<?xml version="1.0" encoding="UTF-8"?>
<svg width="240px" height="240px" viewBox="0 0 240 240" version="1.1" xmlns="http://www.w3.org/2000/svg" xmlns:xlink="http://www.w3.org/1999/xlink">
    <!-- Generator: Sketch 50.2 (55047) - http://www.bohemiancoding.com/sketch -->
    <title>Group 2</title>
    <desc>Created with Sketch.</desc>
    <defs>
        <pattern id="pattern-1" patternUnits="objectBoundingBox" x="nan%" width="nan%" height="100%">
            <use xlink:href="#image-2" transform="scale(inf,inf)"></use>
        </pattern>
        <image id="image-2" width="0" height="0"></image>
    </defs>
    <g id="Page-1" stroke="none" stroke-width="1" fill="none" fill-rule="evenodd">
        <g id="Mobile-Copy-3" transform="translate(-40.000000, -208.000000)">
            <g id="Group-2" transform="translate(50.000000, 218.000000)">
                <circle id="Oval-5-Copy-2" stroke="#A3D8DD" stroke-width="10" fill="url(#pattern-1)" cx="110" cy="110" r="115"></circle>
                <g id="Asset-7" transform="translate(52.000000, 53.000000)" fill="#C4F2F4" fill-rule="nonzero">
                    <path d="M19.6,68.9 L20.5,70.5 C13.8,49.7 25.2,27.5 45.9,20.8 C66.6,14.1 88.9,25.5 95.6,46.2 C98.2,54.2 98.2,62.8 95.5,70.8 L97.4,67.5 C99.3,69.1 100.9,70.9 102.2,73 C102.9,70.9 103.4,68.7 103.8,66.5 C102.9,66.8 101.9,67.1 101,67.4 C100.1,67.7 99,67.9 98,68 L98.9,55.7 C100.9,56.2 102.8,57 104.5,57.9 C104.4,32.2 83.4,11.5 57.7,11.7 C32,11.8 11.3,32.8 11.5,58.5 C11.5,58.7 11.5,58.8 11.5,59 C12.3,58.5 13.1,58.1 13.9,57.8 C14.8,57.4 15.8,57 16.7,56.6 L18.1,68.9 C16.2,68.8 14.2,68.4 12.4,67.8 C12.9,70.1 13.6,72.4 14.4,74.7 C14.7,74.3 14.9,74 15.2,73.6 C15.9,72.7 16.6,71.9 17.3,71.1 C18.1,70.3 18.8,69.5 19.6,68.9 Z" id="Shape"></path>
                    <path d="M97.5,79.4 C96.4,79.3 95.4,79.1 94.3,78.9 C93.5,78.7 92.8,78.6 92.1,78.4 C81,97.2 56.8,103.4 38.1,92.4 C32.9,89.3 28.4,85.1 25.1,80 C22.6,80.8 20.1,81.1 17.5,81 C29.9,103.4 58.2,111.6 80.7,99.1 C88.8,94.6 95.3,87.8 99.5,79.6 C98.8,79.5 98.1,79.5 97.5,79.4 Z" id="Shape"></path>
                    <path d="M100.4,83.1 C99.3,83.1 98.2,83 97.1,82.9 C96,82.8 94.7,82.6 93.5,82.4 C92.3,82.2 91.2,81.9 90.2,81.6 L92.3,74.9 C93.1,75.2 94,75.4 94.9,75.6 C95.8,75.8 96.8,75.9 97.8,76 C98.5,76.1 99.2,76.1 99.9,76.1 C98.7,73.8 97.1,71.8 95.1,70.2 L99.6,64.9 C103.8,68.4 106.8,73.1 108.2,78.4 L109.2,82.1 L105.4,82.8 C104.7,82.9 104.1,83 103.4,83.1 C102.5,83 101.4,83.1 100.4,83.1 Z" id="Shape"></path>
                    <path d="M17.5,36.2 C13.4,27.2 14.8,11 16.1,3.7 L16.8,0 L20.5,1 C21.6,1.3 22.7,1.6 23.7,2 C27,3.2 30.3,4.8 33.3,6.6 C35,7.6 36.7,8.8 38.3,10 C39.8,11.2 41.3,12.4 42.7,13.7 L43,14 L44.7,16.1 L39.3,20.6 L37.7,18.7 C36.5,17.6 35.3,16.6 34,15.6 C32.7,14.6 31.1,13.5 29.5,12.6 C27.2,11.2 24.7,10 22.2,9 C21.1,17.6 21.3,28 23.7,33.3 L17.5,36.2 Z" id="Shape"></path>
                    <path d="M94.5,33.3 L88.5,29.7 C89.4,28.3 90.1,26.8 90.8,25.2 C91.5,23.6 92.2,21.9 92.8,20.2 C93.7,17.7 94.4,15 94.8,12.4 C88.6,13.2 82.7,15.6 77.7,19.4 L77.2,19.7 L74.6,21.1 L71.4,15 L73.8,13.8 C81,8.4 89.7,5.4 98.6,5.2 L102.4,5 L102.2,8.9 C102.1,10 102,11.2 101.9,12.3 C101.4,15.8 100.6,19.3 99.4,22.7 C98.7,24.6 98,26.5 97.2,28.3 C96.4,30 95.5,31.7 94.5,33.3 Z" id="Shape"></path>
                    <path d="M40.5,42.4 C37.5,42.4 35,44.9 35,47.9 C35,50.9 37.5,53.4 40.5,53.4 C43.5,53.4 46,50.9 46,47.9 C46,44.9 43.6,42.4 40.5,42.4 Z M38.5,47.2 C37.7,47.1 37.2,46.5 37.2,45.7 C37.3,45 37.8,44.5 38.5,44.4 C39.3,44.3 39.9,44.9 40,45.7 C40.1,46.5 39.5,47.1 38.7,47.2 C38.6,47.2 38.5,47.2 38.5,47.2 Z" id="Shape"></path>
                    <path d="M75.1,42.4 C72.1,42.4 69.6,44.9 69.6,47.9 C69.6,50.9 72.1,53.4 75.1,53.4 C78.1,53.4 80.6,50.9 80.6,47.9 C80.6,44.9 78.1,42.4 75.1,42.4 Z M73,47.2 C72.2,47.1 71.7,46.5 71.7,45.7 C71.8,45 72.3,44.5 73,44.4 C73.8,44.3 74.4,44.9 74.5,45.7 C74.6,46.5 74,47.1 73.2,47.2 C73.2,47.2 73.1,47.2 73,47.2 Z" id="Shape"></path>
                    <path d="M44.5,83.5 C48.5,85.3 54,85.1 56.7,81.3 C58.4,79 59.1,75.8 59.5,73 C59.9,70.2 55.4,70.2 55,73 C55.2,71.9 54.8,74 54.7,74.3 C54.5,75.3 54.2,76.3 53.8,77.3 C52.6,80.1 49.4,80.8 46.7,79.6 C44,78.4 41.9,82.3 44.5,83.5 Z" id="Shape"></path>
                    <path d="M68.3,79.6 C65.6,80.8 62.4,80.1 61.2,77.3 C60.8,76.3 60.5,75.3 60.3,74.3 C60.2,74 59.9,71.9 60,73 C59.6,70.2 55.1,70.1 55.5,73 C55.9,75.9 56.5,79 58.3,81.3 C61.1,85.1 66.6,85.3 70.6,83.5 C73.2,82.3 70.9,78.4 68.3,79.6 Z" id="Shape"></path>
                    <path d="M57.8,73.4 C56.8,73.4 55.8,73 55.1,72.3 L52.6,69.9 C51.1,68.4 51.1,66 52.6,64.6 C53.3,63.9 54.3,63.5 55.3,63.5 L60.2,63.5 C62.3,63.5 64,65.2 64,67.3 C64,68.3 63.6,69.3 62.9,70 L60.4,72.4 C59.8,73 58.8,73.4 57.8,73.4 Z M55.9,67.4 L57.8,69.3 L59.7,67.4 L55.9,67.4 Z" id="Shape"></path>
                    <path d="M18,72.3 C12.5,72 7.3,70 3,66.5 L0,64.1 L2.7,61.3 C3.2,60.8 3.7,60.3 4.2,59.9 C5.8,58.5 7.5,57.2 9.3,56.1 C10.3,55.5 11.4,54.9 12.5,54.4 C13.5,53.9 14.6,53.5 15.7,53.1 L18,59.7 C17.1,60 16.3,60.3 15.5,60.7 C14.6,61.1 13.8,61.6 12.9,62.1 C12.3,62.5 11.7,62.9 11.1,63.3 C13.4,64.4 15.9,65.1 18.5,65.2 L18,72.3 Z" id="Shape"></path>
                    <path d="M18.3,84.4 C15.6,84.4 13,84 10.5,83.2 L6.8,82.1 L8.3,78.5 C8.6,77.9 8.8,77.3 9.1,76.6 C10,74.7 11.2,72.9 12.5,71.2 C13.3,70.2 14,69.3 14.8,68.5 C15.6,67.7 16.4,66.9 17.3,66.1 L21.9,71.4 C21.2,72 20.5,72.6 19.9,73.3 C19.3,74 18.6,74.7 18,75.5 C17.6,76.1 17.1,76.7 16.8,77.3 C19.4,77.5 21.9,77.2 24.4,76.4 L26.5,83.1 C23.8,84 21.1,84.4 18.3,84.4 Z" id="Shape"></path>
                    <path d="M98.5,71.4 L97.5,64.5 C98.4,64.4 99.3,64.2 100.2,64 C101.1,63.8 102,63.5 103,63.1 C103.7,62.9 104.3,62.6 105,62.3 C102.9,60.8 100.5,59.7 98,59.1 L99.7,52.3 C105,53.6 109.8,56.6 113.3,60.7 L115.8,63.6 L112.7,65.8 C112.1,66.2 111.6,66.6 111,66.9 C109.2,68 107.3,68.9 105.3,69.7 C104.1,70.1 103,70.5 101.9,70.8 C100.8,71 99.7,71.2 98.5,71.4 Z" id="Shape"></path>
                </g>
            </g>
        </g>
    </g>
</svg>