<?xml version="1.0" encoding="utf-8"?>
<!-- Generator: Adobe Illustrator 19.0.0, SVG Export Plug-In . SVG Version: 6.00 Build 0)  -->
<svg version="1.1" id="Layer_1" xmlns="http://www.w3.org/2000/svg" xmlns:xlink="http://www.w3.org/1999/xlink" x="0px" y="0px"
	 viewBox="-293 385 420 420" style="enable-background:new -293 385 420 420;" xml:space="preserve">
<style type="text/css">
	.st0{fill:#FFFFFF;}
</style>
<title>Artboard</title>
<desc>Created with Sketch.</desc>
<g id="Page-1">
	
		<image style="overflow:visible;opacity:0.75;" width="417" height="449" xlink:href="9ED433442943AB05.png"  transform="matrix(1 0 0 1 -289 374)">
	</image>
	<g>
		<g>
			<g id="Artboard_9_">
				<path id="Combined-Shape_12_" class="st0" d="M-58.7,805c-0.6-0.6-1.2-1.2-1.8-1.8c1.7-3.2,3.6-6.3,5-9.6
					c6.1-15.2,13.4-30,17.7-45.6c4.1-14.9,1.2-25.5-19-21.2c-1,0.2-2,0.2-3,0.3c-51.1,1.7-98-10.8-140.1-39.2
					c-29.3-19.7-52.5-44.8-65.9-77c-26-62.6-5.1-130.3,44.7-173.9c73.1-64.1,186.2-68.2,264-9.4c44.7,33.8,68.4,78.3,66.8,134.1
					c-0.9,31.9-9.5,62.1-23.9,90.8C63.3,697.5,30.5,734.8-8.6,767C-24.8,780.3-42,792.4-58.7,805z M-76.6,458.9l-28.2,60l-62.9,9.6
					l45.5,46.7l-10.7,65.9l56.3-31.1l56.3,31.1l-10.7-65.9l45.5-46.7l-62.9-9.6L-76.6,458.9z"/>
			</g>
		</g>
	</g>
</g>
</svg>
