<?xml version="1.0" encoding="UTF-8" standalone="no"?>
<!-- Generator: Adobe Illustrator 22.0.1, SVG Export Plug-In . SVG Version: 6.00 Build 0)  -->

<svg
   xmlns:osb="http://www.openswatchbook.org/uri/2009/osb"
   xmlns:dc="http://purl.org/dc/elements/1.1/"
   xmlns:cc="http://creativecommons.org/ns#"
   xmlns:rdf="http://www.w3.org/1999/02/22-rdf-syntax-ns#"
   xmlns:svg="http://www.w3.org/2000/svg"
   xmlns="http://www.w3.org/2000/svg"
   xmlns:sodipodi="http://sodipodi.sourceforge.net/DTD/sodipodi-0.dtd"
   xmlns:inkscape="http://www.inkscape.org/namespaces/inkscape"
   version="1.1"
   id="Layer_1"
   x="0px"
   y="0px"
   viewBox="0 0 52.1 51.3"
   style="enable-background:new 0 0 52.1 51.3;"
   xml:space="preserve"
   sodipodi:docname="talks.svg"
   inkscape:version="0.92.2 2405546, 2018-03-11"><metadata
   id="metadata981"><rdf:RDF><cc:Work
       rdf:about=""><dc:format>image/svg+xml</dc:format><dc:type
         rdf:resource="http://purl.org/dc/dcmitype/StillImage" /><dc:title>Asset 3</dc:title></cc:Work></rdf:RDF></metadata><defs
   id="defs979"><linearGradient
     id="linearGradient985"
     osb:paint="solid"><stop
       style="stop-color:#ffffff;stop-opacity:1;"
       offset="0"
       id="stop983" /></linearGradient></defs><sodipodi:namedview
   pagecolor="#ffffff"
   bordercolor="#666666"
   borderopacity="1"
   objecttolerance="10"
   gridtolerance="10"
   guidetolerance="10"
   inkscape:pageopacity="0"
   inkscape:pageshadow="2"
   inkscape:window-width="1920"
   inkscape:window-height="968"
   id="namedview977"
   showgrid="false"
   inkscape:pagecheckerboard="true"
   inkscape:zoom="4.6003899"
   inkscape:cx="26.049999"
   inkscape:cy="25.65"
   inkscape:window-x="0"
   inkscape:window-y="34"
   inkscape:window-maximized="1"
   inkscape:current-layer="Layer_1" />
<style
   type="text/css"
   id="style964">
	.st0{fill:#FFFFFF;}
</style>
<title
   id="title966">Asset 3</title>
<path
   style="fill:#ffffff;stroke:none;stroke-width:3;stroke-miterlimit:4;stroke-dasharray:none"
   d="M 26.384766,-2.1269531 C 10.320419,-1.3833985 -4.5694585,13.79061 -1.6875,30.322266 c 1.75970343,15.190822 18.183369,26.977192 33.054688,22.183593 3.838592,-0.465743 7.13615,-4.742675 10.763671,-1.748047 3.513326,1.398493 6.831331,1.719516 6.017579,-3.142578 0.673175,-2.452465 -1.443717,-5.2966 1.091796,-6.970703 C 61.994636,23.860319 47.597978,-3.5074541 26.384766,-2.1269531 Z m 1.064453,7.0898437 C 41.81164,4.4049754 52.027282,22.04793 44.818359,34.382812 c -0.729774,2.86478 -4.838306,4.599322 -4.611328,7.107422 -2.567814,-0.568709 -5.386068,2.918759 -8.425781,3.363282 C 19.880643,50.538743 5.9409165,40.491037 4.9707031,27.976562 3.176609,15.496511 15.807684,5.0915782 27.449219,4.9628906 Z"
   id="path968"
   inkscape:connector-curvature="0" />
<path
   class="st0"
   d="M36.2,19.7h-22c-1.1,0-2-0.9-2-2s0.9-2,2-2h22c1.1,0,2,0.9,2,2S37.3,19.7,36.2,19.7z"
   id="path970"
   style="stroke:none;stroke-width:3;stroke-miterlimit:4;stroke-dasharray:none" />
<path
   class="st0"
   d="M34.2,27.7h-18c-1.1,0-2-0.9-2-2s0.9-2,2-2h18c1.1,0,2,0.9,2,2S35.3,27.7,34.2,27.7z"
   id="path972"
   style="stroke:none;stroke-width:3;stroke-miterlimit:4;stroke-dasharray:none" />
<path
   class="st0"
   d="M32.7,35.7h-15c-1.1,0-2-0.9-2-2s0.9-2,2-2h15c1.1,0,2,0.9,2,2S33.8,35.7,32.7,35.7z"
   id="path974"
   style="stroke:none;stroke-width:3;stroke-miterlimit:4;stroke-dasharray:none" />
</svg>