<?xml version="1.0" encoding="UTF-8" standalone="no"?>
<svg width="24px" height="24px" viewBox="0 0 24 24" version="1.1" xmlns="http://www.w3.org/2000/svg" xmlns:xlink="http://www.w3.org/1999/xlink">
    <!-- Generator: Sketch 47.1 (45422) - http://www.bohemiancoding.com/sketch -->
    <title>sobre_nos_icon</title>
    <desc>Created with Sketch.</desc>
    <defs></defs>
    <g id="Page-1" stroke="none" stroke-width="1" fill="none" fill-rule="evenodd">
        <g id="sobre_nos_icon" fill-rule="nonzero" fill="#FFFFFF">
            <path d="M13.0034444,9.93562784 C12.9961931,9.96346149 12.9905153,9.99166119 12.9865245,10.0201184 C12.9382069,10.3650487 13.0634193,10.6512405 13.25887,10.9164294 C13.4060032,11.1164174 13.5864192,11.2836319 13.7814109,11.4209577 C13.7596049,11.324368 13.7340115,11.2258165 13.7159928,11.1257648 C13.7058932,11.0693343 13.7355035,11.0466005 13.7950683,11.0530629 C14.1887242,11.096107 14.5602297,10.8297641 14.686475,10.4634848 C14.8960422,9.8553274 14.4242291,9.23655318 13.7901333,9.27544294 C13.5445842,9.29051914 13.3103266,9.43030131 13.1573835,9.62786249 C13.1187484,9.71997168 13.0798972,9.81198677 13.0411693,9.90405276 C13.0338425,9.9215598 13.0243286,9.9380503 13.0116435,9.96335079 C13.008898,9.95406719 13.0061653,9.94482742 13.0034444,9.93562784 Z M18.0877906,7.89795402 C18.0731409,7.84893588 18.0456312,7.80354212 18.006273,7.76507142 C17.855313,7.61740985 17.5716711,7.60965825 17.4158662,7.74893285 C17.2699712,7.87931217 17.2710723,8.08530134 17.4169673,8.21580773 C17.5065964,8.29586521 17.6096588,8.32216981 17.7193278,8.31873878 C17.7678861,8.31721387 17.7804386,8.33843546 17.7686569,8.38799485 C17.764803,8.4042605 17.7591874,8.42014492 17.7501585,8.45026178 C17.8540134,8.38276275 17.9457665,8.31271068 18.0139142,8.21609354 C18.0042698,8.10178169 18.0314061,7.9908984 18.0877906,7.89795402 Z M13.7204924,20.329801 C13.7735965,20.3515028 13.8319783,20.3655607 13.8939042,20.3703073 C13.9375147,20.3737061 13.9809998,20.3760852 14.036766,20.3797106 C14.0277432,20.4374897 14.0204748,20.484506 14.0132064,20.5315223 C14.0226052,20.5393395 14.032004,20.5470434 14.0415281,20.5549738 C14.1586998,20.4353371 14.2894058,20.3243106 14.3895344,20.1940244 C14.5083353,20.0394937 14.5250025,19.8653634 14.4033193,19.6995034 C14.2818868,19.53387 14.1058159,19.4713326 13.8893928,19.4901392 C13.6291087,19.5127976 13.4317338,19.6981439 13.4294781,19.9257482 C13.4288814,19.9870953 13.4424821,20.0456676 13.4677355,20.0990179 C13.5841132,20.13279 13.6791919,20.2191126 13.7204924,20.329801 Z M13.7218062,16.764337 C13.8333231,16.7644299 13.944839,16.764493 14.0563523,16.7645001 C14.1106694,16.7117604 14.1566849,16.6513294 14.1911704,16.5765069 C14.250079,16.448542 14.2244235,16.3140963 14.1287384,16.2205688 C13.9777783,16.0729072 13.6941364,16.0651556 13.5383315,16.2044302 C13.3924365,16.3348096 13.3935376,16.5407987 13.5394326,16.6713051 C13.5955209,16.7214037 13.6568698,16.7504524 13.7218062,16.764337 Z M16.3598192,8.3702595 C16.5406187,8.15977848 16.69612,7.9285924 16.8190361,7.67150086 C16.9528127,7.3917521 17.0331468,7.09667938 17.0418837,6.78466964 C17.0570882,6.23911347 16.8352617,5.80428158 16.4180465,5.47406744 C15.6916357,4.89913073 14.6349249,4.93934174 13.9517448,5.565896 C13.4867602,5.99231699 13.2914848,6.65297572 13.5343026,7.26512776 C13.6593423,7.5803636 13.8761763,7.82485572 14.1495164,8.01773028 C14.5429038,8.2952899 14.9811103,8.41695987 15.4582357,8.40048373 C15.4674265,8.40013808 15.4768442,8.40002286 15.485808,8.39794894 C15.6748427,8.35520314 15.7018477,8.4592448 15.663723,8.60464963 C15.6236695,8.7574284 15.5553628,8.9026028 15.4980624,9.05065764 C15.4854676,9.08303384 15.467313,9.11322089 15.4517682,9.14432969 C15.4572145,9.15032102 15.4627744,9.15631234 15.4683342,9.16230366 C15.6248041,9.03890543 15.7859262,8.92092242 15.9369497,8.79095677 C16.0496676,8.69388625 16.1567662,8.59206437 16.2571683,8.48472243 C16.2716362,8.42864503 16.3083033,8.38718699 16.3598192,8.3702595 Z M12,0 C18.6276104,0 24,5.37267089 24,12 C24,18.6273291 18.6278354,24 12,24 C5.3728959,24 0,18.6273291 0,12 C0,5.37267089 5.3728959,0 12,0 Z M10.2601565,10.3868455 C10.2954126,10.482078 10.3297817,10.5750124 10.3669225,10.6753927 C10.3763463,10.6599496 10.3824441,10.651033 10.3873223,10.6417487 C10.4557279,10.5109419 10.5250205,10.3805028 10.5916523,10.2490525 C10.6051782,10.2223947 10.6250236,10.2127428 10.6576188,10.2081466 C10.7892193,10.1895781 10.907183,10.1457307 10.9999796,10.0644705 C11.2078574,9.88246244 11.1777012,9.63822228 10.9333479,9.48544578 C10.8271362,9.41907717 10.7062899,9.38359479 10.5791242,9.36116551 C10.5303422,9.35252472 10.4948644,9.33763315 10.4612713,9.30435692 C10.3476315,9.1917509 10.1928596,9.15645236 10.0222335,9.16307083 C9.90925887,9.16739123 9.8054863,9.19643899 9.71413095,9.25425873 C9.70160285,9.26216413 9.6777662,9.26179644 9.66013817,9.25949836 C9.42576292,9.22934752 9.21067874,9.26464606 9.03240277,9.39912982 C8.76077583,9.60402682 8.79204065,9.92575831 9.09626282,10.0973791 C9.13684056,10.120268 9.18273997,10.1365384 9.22531333,10.1571292 C9.23640015,10.1624608 9.25114561,10.1724804 9.25181082,10.1810293 C9.26267589,10.3115603 9.35724642,10.3941994 9.48873603,10.4454006 C9.74606098,10.545597 9.99861859,10.5352097 10.2376503,10.3999905 C10.2436372,10.3964974 10.2496241,10.3929124 10.2601565,10.3868455 Z M5.30543577,7.82722513 C5.39627138,7.79155015 5.48710698,7.7559664 5.57784211,7.72029141 C5.7618244,7.6479378 5.94560573,7.57531046 6.12988947,7.50368677 C6.14697139,7.49702622 6.16716824,7.49465397 6.18595835,7.49438025 C6.2588077,7.49337661 6.33175754,7.49447149 6.40460689,7.49383281 C6.49393527,7.49301165 6.55462631,7.44073091 6.55502824,7.36053062 C6.55603306,7.14310482 6.55573161,6.92567901 6.55472679,6.70816196 C6.55442535,6.63690323 6.4937343,6.58188528 6.41586086,6.58179404 C6.00981364,6.58115536 5.60376643,6.58097288 5.19761873,6.58133784 C5.12064962,6.58142908 5.05835087,6.63726819 5.05794894,6.70761452 C5.05694412,6.88571572 5.05794894,7.06390817 5.0581499,7.24200938 C5.0581499,7.27950917 5.05754701,7.31710021 5.05835087,7.3546 C5.06026002,7.4418258 5.1185395,7.49365033 5.21510258,7.49392405 C5.34894442,7.49428901 5.48278626,7.49410653 5.61672859,7.49410653 C5.63099701,7.49410653 5.64526544,7.49410653 5.67259651,7.49410653 C5.54267345,7.6086132 5.42199474,7.71490823 5.30131602,7.82129451 C5.30282324,7.82339304 5.30412951,7.82530908 5.30543577,7.82722513 Z M9.38713221,6.31413613 C9.35769327,6.24881846 9.32723529,6.18606227 9.30107993,6.12144319 C9.28885145,6.09128761 9.28115203,6.05787198 9.27798168,6.02538779 C9.26892355,5.93340748 9.29224825,5.908142 9.38147088,5.91512784 C9.61200042,5.93340748 9.83290569,5.89440316 10.040337,5.79054691 C10.3112884,5.65490505 10.5152097,5.45359623 10.5882409,5.1421439 C10.6671599,4.80542608 10.521324,4.45648303 10.2231981,4.23899034 C10.0415825,4.10649211 9.8389067,4.0372158 9.61992629,4.0111353 C9.25193955,3.9672409 8.91656209,4.05107106 8.63202342,4.29906862 C8.27456677,4.61075382 8.22010473,5.06669675 8.48063934,5.49038836 C8.66316076,5.78705399 8.91690177,6.00885462 9.19770396,6.20096541 C9.25329827,6.23903827 9.31093065,6.27396751 9.36788368,6.30994462 C9.37286565,6.31297182 9.38011216,6.31262253 9.38713221,6.31413613 Z M4.80014162,9.86625982 C4.75440534,9.75315709 4.70866906,9.64005436 4.6593647,9.51828139 C4.68523327,9.51828139 4.70291148,9.51828139 4.72058969,9.51828139 C4.92713278,9.51828139 5.13375697,9.51818397 5.34030006,9.51818397 C5.45188361,9.51818397 5.49794426,9.46440903 5.49802536,9.33279681 C5.49818754,9.06645497 5.49818754,8.80001572 5.49794426,8.53367388 C5.49786317,8.42076599 5.45180252,8.36270463 5.35960013,8.3625098 C4.9580291,8.36153561 4.55645807,8.36104852 4.15488705,8.36134078 C4.04192492,8.3614382 4,8.41404412 4,8.54955308 C4.00008109,8.81560266 3.99991891,9.08155482 4.00008109,9.3476044 C4.00016219,9.45642072 4.05116949,9.52675679 4.13980381,9.51623561 C4.26736262,9.50103834 4.37318858,9.54663014 4.47552756,9.633917 C4.57754217,9.72091161 4.68734168,9.79475474 4.7937353,9.87434555 C4.7959248,9.87161784 4.79803321,9.86898754 4.80014162,9.86625982 Z M12.0877333,19.9319372 C12.0691797,19.8638741 12.0474036,19.7944287 12.0320724,19.7239262 C12.0234792,19.6841617 12.0486731,19.6681421 12.0993538,19.6726959 C12.4342957,19.7030275 12.750391,19.5153459 12.8578068,19.2572431 C13.036117,18.8286981 12.6346749,18.3926719 12.0951548,18.420076 C11.7641189,18.4369088 11.4572028,18.6743569 11.4114046,18.94482 C11.3702936,19.187879 11.4768305,19.3895472 11.6431297,19.5764156 C11.7684155,19.7173394 11.9218248,19.8351689 12.0877333,19.9319372 Z M15.7439182,9.16230366 C15.7264333,9.21903915 15.7102575,9.26685512 15.6972607,9.31540672 C15.689126,9.34584342 15.6733241,9.35660201 15.6407854,9.35595834 C15.5436366,9.3538434 15.4464879,9.35467098 15.3492456,9.35513075 C15.2427467,9.35559052 15.19291,9.40506166 15.192723,9.5104407 C15.1922555,9.84524443 15.191975,10.1800482 15.191975,10.5148519 C15.191975,10.6270355 15.2405026,10.6748515 15.3556038,10.6750354 C15.6566807,10.6754952 15.9577577,10.6754952 16.2588346,10.6751273 C16.3759928,10.6749434 16.4258294,10.6250125 16.4257359,10.510622 C16.4255489,10.1827148 16.4255489,9.85471567 16.4254554,9.52680847 C16.4254554,9.40386626 16.3761798,9.34547561 16.2543465,9.35788937 C16.079965,9.3757284 15.9332601,9.33379747 15.8102113,9.21085526 C15.7932874,9.19375186 15.7710339,9.18179787 15.7439182,9.16230366 Z M9.39144964,7.8183103 C9.46974993,7.83983294 9.53374961,7.82078312 9.58901002,7.77837894 C9.62767465,7.74861359 9.66642756,7.71600908 9.69441086,7.67790944 C9.7553209,7.59511597 9.84183081,7.56480111 9.94246478,7.55545937 C9.95853091,7.553994 9.97459703,7.55133801 9.99031006,7.54767458 C10.0616366,7.53128074 10.0832641,7.50636944 10.0804393,7.43804651 C10.0721414,7.23674116 10.0626076,7.0355274 10.0536035,6.83422205 C10.0517497,6.79264214 10.0504256,6.75106224 10.048307,6.70948233 C10.043805,6.62210958 9.99057488,6.57704942 9.89523743,6.58144554 C9.60392856,6.59490863 9.31253142,6.60892124 9.02122255,6.62275068 C9.00144885,6.62366654 8.98158688,6.6239413 8.96190147,6.62568143 C8.87759844,6.63300828 8.83937519,6.6847542 8.84961514,6.76168618 C8.85676545,6.81526381 8.85023307,6.87048998 8.84943859,6.92507505 C8.84917376,6.94339219 8.84626067,6.96170933 8.84705515,6.9798433 C8.85420546,7.14451437 8.86162059,7.30918544 8.86938883,7.47385652 C8.87424398,7.57643249 8.92411959,7.61819557 9.03419903,7.60885383 C9.09510907,7.60372503 9.1553129,7.59200206 9.21622294,7.5865985 C9.26247926,7.58247715 9.30961833,7.58009592 9.35578637,7.58320983 C9.44467971,7.58925449 9.50779664,7.63403989 9.516889,7.69164729 C9.52509862,7.74284369 9.49075948,7.77874528 9.39144964,7.8183103 Z M20.1457951,9.87434555 C20.3560959,9.7472609 20.5485068,9.59793887 20.6924819,9.39214561 C20.9415123,9.0363476 20.8518728,8.64465768 20.4663848,8.45856595 C20.1461758,8.30397718 19.8296779,8.33099364 19.5466759,8.55814648 C19.2298926,8.81231579 19.2742365,9.27471666 19.6302252,9.49348172 C19.7876178,9.59013628 19.9577615,9.63529376 20.1418936,9.61500703 C20.1886166,9.60983782 20.212882,9.63236779 20.2038419,9.67547709 C20.1898536,9.74170155 20.1662543,9.8060729 20.1457951,9.87434555 Z M12.7049549,13.2406448 C12.7875585,13.2717606 12.8568241,13.2563064 12.9174429,13.2021649 C12.9642639,13.160366 13.0162361,13.1188783 13.0477873,13.0640107 C13.1064745,12.9620546 13.1979088,12.9670331 13.2837319,12.9505417 C13.3996344,12.9282421 13.4286101,12.9459781 13.42907,12.781168 C13.4298979,12.497703 13.429162,12.2143416 13.42907,11.9308766 C13.42907,11.7941744 13.3849167,11.7447003 13.2624831,11.7444929 C12.9661036,11.744078 12.6697242,11.7437668 12.3732528,11.7434557 C12.2379411,11.743352 12.1965473,11.7901294 12.1963634,11.9452936 C12.1959954,12.230833 12.1948916,12.5163724 12.1967313,12.8019119 C12.1974672,12.9074982 12.252015,12.9758493 12.3728848,12.9653736 C12.4744376,12.9565575 12.5764502,12.9486748 12.6781869,12.9495045 C12.7334706,12.9499194 12.7877424,12.9704559 12.8211334,13.0304057 C12.8619753,13.1037352 12.8443139,13.1765462 12.7745884,13.2134703 C12.7549954,13.2238423 12.7332866,13.2297543 12.7049549,13.2406448 Z M13.9640514,13.5235602 C13.7811285,13.6487789 13.6045876,13.8425012 13.5069598,14.0686189 C13.4339113,14.2378358 13.4016562,14.4169849 13.4584046,14.6028172 C13.5810431,15.0043709 14.06901,15.1665333 14.4059641,14.9199017 C14.6458941,14.7442799 14.7899211,14.3546076 14.5086804,14.0258273 C14.3658608,13.8588381 14.1772458,13.7851364 13.9631027,13.7996168 C13.9029909,13.8036082 13.8870358,13.788478 13.9013522,13.7247084 C13.9164449,13.6575971 13.9418868,13.5931777 13.9640514,13.5235602 Z M16.3598192,8.3702595 C16.3264488,8.40910826 16.2922165,8.44725167 16.2571683,8.48472243 C16.2528031,8.50164192 16.2504587,8.51989226 16.2503371,8.53920122 C16.2492163,8.72971984 16.2492163,8.92033687 16.2502437,9.11085549 C16.2507108,9.19647078 16.2814398,9.23475164 16.3620453,9.25059539 C16.4217289,9.26230599 16.4819729,9.27234364 16.5424971,9.27805133 C16.6037684,9.28385742 16.6488814,9.31515129 16.6894176,9.36051755 C16.7390138,9.41592147 16.78861,9.47171902 16.8423159,9.52239933 C16.924229,9.5995515 17.0185645,9.63055014 17.1373712,9.58843136 C17.1014117,9.57691757 17.0751658,9.57170193 17.0514418,9.56048338 C16.9445905,9.5102951 16.9295529,9.39368117 17.0200589,9.31544651 C17.096368,9.2495129 17.1882751,9.24636383 17.2801821,9.25128425 C17.3675125,9.25600785 17.4545627,9.26663596 17.5417063,9.27381977 C17.6768583,9.28493991 17.7471897,9.21772699 17.7474699,9.07680619 C17.7477501,8.90026156 17.7476567,8.72381534 17.7470963,8.5472707 C17.7467226,8.43557719 17.684704,8.36432953 17.5787867,8.36364067 C17.1904233,8.36118046 16.8020598,8.36068842 16.4136964,8.36186932 C16.3943729,8.36192765 16.3763331,8.36483321 16.3598192,8.3702595 Z M9.049493,12.2612117 C9.01990898,12.2513526 8.99826979,12.2468816 8.97872135,12.2372517 C8.89070107,12.1942614 8.87836568,12.0942946 8.95279613,12.0272297 C9.01562296,11.9707118 9.09130786,11.9679604 9.16699275,11.9722021 C9.23891431,11.9762145 9.31052226,11.9853858 9.38233928,11.9915764 C9.49367134,12.0010916 9.55158493,11.9434273 9.551794,11.8227105 C9.55200307,11.6713845 9.55200307,11.5200586 9.55148039,11.3688474 C9.55116678,11.2731223 9.50015265,11.2120187 9.41286413,11.2114455 C9.09308499,11.2093819 8.77320131,11.2089234 8.45342217,11.2099551 C8.37292857,11.2101844 8.31940555,11.272893 8.31888286,11.3619689 C8.31794203,11.5253321 8.31794203,11.6885807 8.31877833,11.8519439 C8.31919647,11.925314 8.34449446,11.9581013 8.41087555,11.9717436 C8.46000801,11.9818319 8.50966316,11.99043 8.55942284,11.9952449 C8.60980975,12.0001745 8.64702497,12.0270004 8.68047686,12.0658637 C8.72135089,12.113325 8.76212037,12.1612449 8.80644413,12.2046937 C8.87387059,12.2708415 8.95164623,12.2974382 9.049493,12.2612117 Z M12.8606715,5.51308901 C13.0843064,5.38399692 13.2880048,5.22996774 13.3915395,4.97598983 C13.4815906,4.7552614 13.4075272,4.53112791 13.2089332,4.38821526 C12.9744152,4.21946417 12.6183523,4.22787669 12.3911539,4.40754402 C12.1214822,4.62086143 12.1324617,4.99411681 12.4141723,5.19080947 C12.5439036,5.28134418 12.6874075,5.31970126 12.8430466,5.31279097 C12.9077678,5.30988665 12.9235628,5.3300166 12.9082493,5.39521361 C12.9031448,5.41674565 12.8942842,5.4374765 12.8860014,5.4581072 C12.8784891,5.47673491 12.8692432,5.49476174 12.8606715,5.51308901 Z M17.519492,13.7905759 C17.6999167,13.7045979 17.8822596,13.6230804 18.0600592,13.530746 C18.1615291,13.4781109 18.2624942,13.4514588 18.3746664,13.4570345 C18.5092529,13.4637254 18.5409559,13.4236916 18.540754,13.2733693 C18.5404511,13.0815635 18.540754,12.8897577 18.5398453,12.6979519 C18.5393405,12.5926818 18.4994593,12.546403 18.4049559,12.545957 C18.083786,12.5443958 17.762616,12.5442843 17.441446,12.5447303 C17.3552218,12.5448418 17.3081721,12.5976999 17.3077682,12.6938259 C17.3068596,12.8984559 17.3066576,13.1030859 17.3076673,13.307716 C17.3081721,13.4098637 17.3515871,13.4575921 17.4448788,13.4588188 C17.5599791,13.4602685 17.6751802,13.4591533 17.7932084,13.4591533 C17.6957771,13.5658732 17.6009709,13.6698052 17.5060637,13.7737372 C17.5105062,13.7793129 17.5150496,13.7848887 17.519492,13.7905759 Z M17.8764501,15.1256545 C17.8778521,15.1183875 17.8791462,15.1111205 17.8804403,15.1038535 C17.8273811,15.0906887 17.7799297,15.0683612 17.784567,15.0071712 C17.7892043,14.9456652 17.8373027,14.9226005 17.8932738,14.9135431 C17.9213132,14.9090144 17.9496762,14.9031166 17.9778235,14.9037485 C18.1226581,14.906908 18.2674926,14.9130165 18.4123272,14.9158601 C18.4962298,14.9175452 18.5399067,14.8761551 18.5402302,14.7955865 C18.5410929,14.5896889 18.5408772,14.383686 18.539691,14.1776832 C18.5392596,14.1008007 18.4964455,14.0584627 18.4165331,14.0582521 C18.0869617,14.0573042 17.7573903,14.0574095 17.4278189,14.0583574 C17.3543771,14.058568 17.3099454,14.0974305 17.3089748,14.1685205 C17.3061708,14.3830541 17.3070336,14.5976931 17.307465,14.8122268 C17.3075728,14.8649913 17.3363672,14.9011155 17.3907206,14.9012209 C17.5123686,14.9013262 17.6040361,14.9513524 17.6772622,15.0437167 C17.6966741,15.0681506 17.7261155,15.0895302 17.755557,15.100694 C17.7934102,15.1151226 17.8359008,15.1178609 17.8764501,15.1256545 Z M11.8946163,11.7304612 C11.7988843,11.8281461 11.7100662,11.9187525 11.6200781,12.0104712 C11.6412455,12.0025836 11.6630512,11.9951005 11.6843249,11.9863028 C11.8530261,11.91673 12.0236419,11.8508989 12.189471,11.7756632 C12.2816929,11.7337982 12.3748721,11.7276297 12.4729443,11.7298544 C12.5988851,11.732787 12.6364333,11.6959782 12.636327,11.5774618 C12.6362206,11.4085861 12.6365397,11.2397105 12.6356887,11.0708348 C12.6352633,10.9822509 12.5947367,10.9434196 12.5003875,10.9432174 C12.1797915,10.9424084 11.8590891,10.9422061 11.5384931,10.9426106 C11.4475477,10.9427117 11.4034046,10.9852846 11.4030855,11.0721494 C11.4024473,11.2493172 11.4023409,11.4263838 11.4030855,11.6035516 C11.4034046,11.6845513 11.4502069,11.7291466 11.536153,11.7301578 C11.6531588,11.7314724 11.7700583,11.7304612 11.8946163,11.7304612 Z M11.6079578,13.0056668 C11.7052257,12.9080241 11.794584,12.8183231 11.8899279,12.7225131 C11.7490498,12.7803453 11.6141573,12.835632 11.4793718,12.8909188 C11.4414266,12.9064968 11.4016643,12.9190204 11.36575,12.9380602 C11.2597173,12.9941615 11.1479127,13.0133031 11.0269156,13.006685 C10.9134008,13.0004741 10.8744936,13.0419138 10.874173,13.1516727 C10.8737454,13.3157003 10.8735316,13.4796261 10.8744936,13.6436536 C10.8751349,13.752089 10.9158592,13.7903723 11.0272363,13.7904741 C11.3389212,13.7905759 11.6504992,13.7905759 11.9620772,13.7905759 C12.0620173,13.7905759 12.1073377,13.7490345 12.1074446,13.6558717 C12.1076584,13.4856333 12.1076584,13.3153949 12.1070171,13.1452583 C12.1066964,13.0437465 12.0676823,13.0064814 11.9611152,13.0059723 C11.8461039,13.0051577 11.7311995,13.0056668 11.6079578,13.0056668 Z M8.35242372,8.89528796 C8.53955596,8.77917274 8.70242314,8.65494725 8.80074521,8.46158673 C8.90343501,8.25962141 8.82918388,8.02996251 8.63409269,7.91790242 C8.39639203,7.78131373 8.16451499,7.80336969 7.94360576,7.95489313 C7.73240256,8.09978989 7.74016738,8.42380477 7.95457357,8.58957062 C8.06774588,8.67710212 8.19654489,8.71349939 8.33757349,8.70974098 C8.40629218,8.70786177 8.41735705,8.72348886 8.39474201,8.79173375 C8.38435655,8.82308684 8.36979751,8.85325306 8.35242372,8.89528796 Z M7.92567419,7.64921466 C7.94363827,7.5185932 7.95918023,7.40490045 7.97563049,7.2851975 C8.06706567,7.2851975 8.15900545,7.28239275 8.25074339,7.28589869 C8.36428045,7.29020599 8.41070449,7.24893602 8.40596116,7.13754717 C8.39990585,6.99490534 8.40444734,6.85186282 8.40414457,6.70892048 C8.40394273,6.61516152 8.37225327,6.58220565 8.2799098,6.58200531 C8.01256788,6.58140429 7.74522596,6.58100361 7.47788404,6.58120395 C7.38412766,6.58130412 7.35041977,6.6135588 7.34971332,6.70511402 C7.34860318,6.85617013 7.34850226,7.00722623 7.34930963,7.15828233 C7.34981424,7.25103959 7.38463227,7.29411262 7.47536099,7.28099037 C7.60534831,7.26235878 7.67740649,7.32596662 7.74351029,7.42082745 C7.79568687,7.49565431 7.85724919,7.56417048 7.92567419,7.64921466 Z M16.9083273,13.8050019 C16.9198358,13.7295852 16.9341961,13.6356495 16.9512044,13.5235602 C16.8930504,13.5792394 16.8447754,13.6237096 16.7982319,13.6706165 C16.7719556,13.697055 16.7522994,13.7038778 16.7169588,13.6810944 C16.588022,13.5980021 16.4540946,13.6000734 16.3225097,13.6739061 C16.2666982,13.705218 16.2273857,13.7568766 16.2069146,13.830953 C16.1995817,13.8575133 16.1721852,13.8810277 16.1493717,13.895648 C15.9579015,14.0180934 15.9280606,14.2721219 16.0903011,14.424539 C16.1791107,14.5079968 16.2824843,14.5345571 16.3944129,14.5270033 C16.4249667,14.524932 16.4596961,14.5310239 16.4867871,14.5471062 C16.6177609,14.6247159 16.7668633,14.5996176 16.8723757,14.4814365 C16.8903005,14.4614554 16.9198358,14.4568256 16.9432604,14.4433018 C17.0111916,14.4039487 17.0880852,14.3770229 17.1445079,14.3207345 C17.2435021,14.2220472 17.2438076,14.0619544 17.1445079,13.9638763 C17.0781044,13.8985721 16.9929612,13.8604373 16.9083273,13.8050019 Z M16.879739,15.4518817 C16.993106,15.4518817 17.0918774,15.4536713 17.1907746,15.4510395 C17.2729373,15.4491446 17.3057773,15.4195636 17.3062806,15.3504008 C17.3072871,15.2216548 17.3072871,15.0930142 17.3059031,14.9642682 C17.3051481,14.8899471 17.2679044,14.8591028 17.1783181,14.8588923 C16.9115724,14.858366 16.6449525,14.8586818 16.3783326,14.8596292 C16.2847199,14.859945 16.2509992,14.8898419 16.2503701,14.9705844 C16.2494893,15.0950143 16.2492377,15.2194442 16.249741,15.343874 C16.2499926,15.4233533 16.2830842,15.4549345 16.3805974,15.4501973 C16.4895605,15.4449338 16.5864446,15.4677775 16.6832028,15.5063066 C16.805629,15.5550469 16.9315783,15.5974709 17.0562694,15.6423162 C17.0747654,15.6489483 17.0940164,15.6540013 17.1128899,15.6596859 C17.115658,15.6558961 17.1184261,15.6520011 17.1211943,15.6482114 C17.0449452,15.586207 16.9686962,15.5243079 16.879739,15.4518817 Z M17.4563332,16.3673939 C17.4587757,16.3693621 17.4611614,16.3712798 17.4636039,16.3732984 C17.4935956,16.3432209 17.5270523,16.3152629 17.5526702,16.2825107 C17.5830595,16.2436521 17.5873197,16.1998479 17.5561919,16.1581633 C17.525121,16.1165291 17.4800766,16.1007838 17.4246942,16.1055276 C17.3581218,16.1112302 17.3075676,16.1578605 17.3069996,16.2150886 C17.3063747,16.2733764 17.3577242,16.3217225 17.4258303,16.32687 C17.4369636,16.3277279 17.4480969,16.3283335 17.4623543,16.3292419 C17.4600822,16.3437255 17.4582077,16.355585 17.4563332,16.3673939 Z M18.8028756,11.9538744 C18.8579645,12.1343599 18.9116761,12.3103447 18.9696342,12.5005237 C18.9843246,12.4712121 18.9938504,12.4543638 19.0015398,12.4367076 C19.1085041,12.188944 19.216616,11.9417574 19.320711,11.6927245 C19.3418284,11.6421793 19.3728158,11.6240615 19.423773,11.6152911 C19.6293234,11.5800942 19.8136415,11.4971217 19.9585941,11.3430628 C20.2832741,10.9982479 20.236219,10.5354944 19.8543843,10.2460714 C19.6884291,10.1202855 19.4997498,10.0531228 19.3009708,10.0105403 C19.2247645,9.99426887 19.1693313,9.96599589 19.1168822,9.90298755 C18.9393353,9.68961315 18.6976329,9.62279662 18.4310258,9.6352598 C18.2545119,9.6435686 18.0924588,9.69838355 17.9496868,9.80801344 C17.9301762,9.82301543 17.8927617,9.82232303 17.865332,9.81805323 C17.4993354,9.76093029 17.1631785,9.82786222 16.8846355,10.0825498 C16.4603364,10.470755 16.509113,11.0801818 16.9843693,11.4053787 C17.0477215,11.4487691 17.1194517,11.4794655 17.1859027,11.518586 C17.203118,11.5287412 17.2261864,11.5476668 17.2273341,11.5639382 C17.2443198,11.8111248 17.3919121,11.9677224 17.5974624,12.0647737 C17.9994964,12.2544911 18.3939556,12.2349886 18.7672974,11.9788008 C18.7770527,11.9723384 18.786349,11.9655298 18.8028756,11.9538744 Z M15.4883623,13.9011322 C15.3921863,13.7026444 15.3019783,13.516389 15.2060319,13.3184781 C15.2405772,13.3159393 15.2645638,13.3127082 15.2885504,13.3127082 C15.6956341,13.3124774 16.1026031,13.3127082 16.5096869,13.3125928 C16.5469866,13.3125928 16.5842864,13.3102848 16.6215861,13.3089 C16.7570129,13.3038224 16.8581239,13.2075789 16.8586978,13.0726764 C16.8605341,12.6046144 16.8604193,12.1365525 16.858583,11.6683751 C16.8580092,11.531857 16.7526517,11.4259199 16.6174545,11.4255737 C16.0138871,11.4240735 15.4103197,11.4246505 14.8068671,11.4245351 C14.6057928,11.4244197 14.4047184,11.4240735 14.2037588,11.4241889 C14.0169158,11.4241889 13.9223465,11.516855 13.9216579,11.7054185 C13.9202807,12.0653507 13.9209693,12.4251676 13.9207398,12.7850998 C13.920625,12.8844592 13.9197069,12.9838185 13.9205102,13.0831778 C13.9214284,13.1923461 14.0218508,13.3030146 14.1338648,13.3093616 C14.2434687,13.3157085 14.353876,13.3084384 14.4633651,13.315247 C14.5120269,13.3182473 14.5653943,13.3311721 14.6065961,13.3563293 C14.8839915,13.5260826 15.1586325,13.7004518 15.4343063,13.87309 C15.4475047,13.8810526 15.4618508,13.8872842 15.4883623,13.9011322 Z M12.73346,15.5694684 C12.7494128,15.5621982 12.7553808,15.5580438 12.7620373,15.5568898 C12.7802855,15.553197 12.7989928,15.5512353 12.8173557,15.5478887 C13.0109701,15.5125763 13.1923043,15.4479523 13.3446021,15.3176659 C13.6042084,15.0956365 13.6040936,14.7817488 13.3442578,14.5593732 C13.2055027,14.4406267 13.0421872,14.371733 12.8647551,14.3403442 C12.7652509,14.3228034 12.6679272,14.3136868 12.6053784,14.2166355 C12.587704,14.1891703 12.5517815,14.1712833 12.5211383,14.155012 C12.2272163,13.9988759 11.9297364,13.9978373 11.6338633,14.1458954 C11.5762495,14.1747453 11.5258662,14.1840927 11.4621697,14.1770533 C11.1623944,14.1439336 10.878572,14.1920553 10.6292949,14.3742718 C10.2709877,14.6362295 10.2683481,15.0693253 10.6255075,15.3326679 C10.7036649,15.3902524 10.7972012,15.426488 10.8825889,15.4742635 C10.9008371,15.4845341 10.9271191,15.5009209 10.9290701,15.5169615 C10.9509909,15.6971007 11.0683991,15.8008452 11.2170242,15.872047 C11.5285058,16.021259 11.8483656,16.0237978 12.1700616,15.9049359 C12.2378897,15.8797787 12.3078985,15.8163088 12.3679224,15.8261178 C12.4354063,15.8370808 12.4924462,15.9112829 12.5543064,15.9575583 C12.6505972,16.0295678 12.7471174,16.1011157 12.8597053,16.1848961 C12.8149456,15.9667903 12.7745471,15.769918 12.73346,15.5694684 Z M13.7218062,16.764337 C13.3735274,16.7640467 13.0252395,16.7634658 12.6769939,16.7633957 C12.5521258,16.7633957 12.4803955,16.8347128 12.4800512,16.9611911 C12.4790183,17.2878882 12.4790183,17.6145853 12.4797069,17.9412824 C12.4799364,18.0602597 12.5509781,18.1298458 12.6706816,18.1325 C12.6862901,18.1328462 12.702243,18.1346926 12.7176219,18.1323846 C12.8701492,18.1095354 12.9967389,18.1643504 13.1204593,18.2505541 C13.2729866,18.3568374 13.4345806,18.4499651 13.5922724,18.5485166 C13.5949121,18.550363 13.5991585,18.5495552 13.6115535,18.5508246 C13.5439549,18.4106138 13.4796846,18.2770961 13.4102496,18.1331924 C13.4405485,18.1331924 13.4593705,18.1331924 13.4780778,18.1331924 C13.7814109,18.133077 14.0848587,18.1329616 14.3881918,18.1327308 C14.5356692,18.1326154 14.5994805,18.0685685 14.599251,17.9207412 C14.5987919,17.6038531 14.5955784,17.286965 14.599251,16.9701923 C14.600743,16.8412906 14.5187983,16.7642035 14.3972585,16.7643189 C14.283627,16.7644561 14.169991,16.7645072 14.0563523,16.7645001 C14.0022758,16.8170061 13.9399711,16.8618887 13.8726238,16.9057592 C13.8816528,16.8756423 13.8872684,16.8597579 13.8911222,16.8434922 C13.9029039,16.7939328 13.8903514,16.7727113 13.8417932,16.7742362 C13.8007531,16.7755201 13.7606382,16.7726399 13.7218062,16.764337 Z M11.5459507,7.46839604 C11.5258662,7.43250667 11.5034863,7.3975405 11.4862711,7.36026634 C11.4716955,7.32864677 11.4576937,7.2950654 11.4526439,7.26102243 C11.4393307,7.17020272 11.4629731,7.14585334 11.5545583,7.15104634 C11.8503166,7.16777932 12.1327618,7.11850357 12.3917943,6.96940691 C12.4721322,6.92313155 12.5498304,6.8668164 12.6158223,6.80184626 C12.8912666,6.53077192 12.8816261,6.15756867 12.5950492,5.88730212 C12.3870888,5.69112231 12.1304665,5.60064879 11.8539892,5.56833682 C11.5172585,5.52898546 11.1890207,5.56729822 10.8928033,5.74524486 C10.7884788,5.807907 10.6875973,5.88949472 10.6115058,5.98400723 C10.4168585,6.2255392 10.4307455,6.51600073 10.6323937,6.78845988 C10.794332,7.00725807 11.0057355,7.16881792 11.2350429,7.30856719 C11.3337438,7.36869053 11.4357729,7.42327468 11.5363101,7.48039763 C11.5396384,7.47635863 11.5427371,7.47243503 11.5459507,7.46839604 Z M7.23742761,11.0063259 C7.22434401,11.0107111 7.2109161,11.0144039 7.18520796,11.0224819 C7.31948707,11.0631027 7.42254915,11.0202893 7.51470823,10.9436638 C7.56314052,10.9033892 7.6123762,10.8609221 7.64956118,10.8106077 C7.73953966,10.6887454 7.86211238,10.6438549 8.0058025,10.6309301 C8.23235546,10.6106197 8.24681628,10.5920403 8.24681628,10.3629715 C8.24670152,9.99611527 8.24658675,9.62914361 8.24624244,9.26228735 C8.24601291,9.1073053 8.1732497,9.03194917 8.01957472,9.03171837 C7.55877932,9.03079517 7.09798392,9.03091057 6.63718853,9.03137217 C6.49292456,9.03148757 6.41660353,9.1099595 6.416374,9.25363236 C6.41591492,9.47462316 6.4145377,9.69572935 6.41442293,9.91672014 C6.41430816,10.0940898 6.41465247,10.2714594 6.4167183,10.448829 C6.41821029,10.5696527 6.49579377,10.6497403 6.61584159,10.6459321 C6.76286,10.6412007 6.9095341,10.6206595 7.05632297,10.6210057 C7.12816803,10.6211211 7.20357091,10.6444319 7.27082524,10.6728202 C7.34381798,10.703632 7.39029921,10.7679097 7.38215065,10.8520363 C7.37388732,10.9366244 7.31340434,10.9810533 7.23742761,11.0063259 Z M6.09215307,5.53694805 C6.06265758,5.6960845 6.0345393,5.84760456 6.00320751,6.017127 C6.11625445,5.92526869 6.21679163,5.84610436 6.31411529,5.76313184 C6.34785722,5.73439727 6.37035184,5.73232007 6.4105208,5.75551545 C6.66335574,5.90091931 6.92273247,5.90380431 7.18027292,5.77074823 C7.28322023,5.71754888 7.35862311,5.63549956 7.37549408,5.51086768 C7.37801899,5.49240369 7.40441573,5.47117011 7.42461498,5.46216892 C7.53835053,5.41162377 7.63728095,5.34203763 7.70648634,5.23713913 C7.85809548,5.00737795 7.77236344,4.68633545 7.51585591,4.57520535 C7.37859283,4.51577441 7.22422924,4.45853606 7.07996527,4.46395986 C6.94453848,4.46903745 6.8414764,4.41006811 6.72383872,4.38191054 C6.49877775,4.32824959 6.30103169,4.36517755 6.13806046,4.54220099 C6.11728737,4.56470396 6.07872516,4.57566695 6.04647522,4.58155235 C5.91070413,4.60624792 5.78457358,4.65194628 5.67841275,4.7431122 C5.45909021,4.93144482 5.46677969,5.20425016 5.69597232,5.3810428 C5.79639473,5.45859152 5.91150751,5.50175108 6.03499838,5.52494646 C6.05083643,5.52806226 6.06644494,5.53163966 6.09215307,5.53694805 Z M10.0234322,9.05225955 C9.99301852,9.04302756 9.9708682,9.03875776 9.95078372,9.02975657 C9.86046094,8.98925121 9.84772164,8.8952003 9.92427221,8.83207656 C9.98877209,8.77887721 10.0664703,8.77633841 10.1441686,8.78037741 C10.2179647,8.7841856 10.2915313,8.7927252 10.3653274,8.79861059 C10.4795221,8.80761178 10.5390869,8.75337383 10.5393164,8.63970494 C10.539546,8.49730147 10.5394312,8.35489801 10.5389721,8.21249454 C10.5386278,8.12236722 10.4862934,8.06489808 10.3966592,8.06432108 C10.0684214,8.06235928 9.74006882,8.06189768 9.41171623,8.06293628 C9.32908293,8.06316708 9.27422361,8.12225182 9.27364976,8.20591675 C9.27261685,8.3596294 9.27273162,8.51334206 9.273535,8.66705471 C9.2738793,8.73606385 9.29993174,8.76699102 9.36810421,8.77980041 C9.41860234,8.7892632 9.46955954,8.79734119 9.52063151,8.80195719 C9.57239209,8.80657318 9.61049522,8.83184576 9.64481099,8.86842752 C9.68670148,8.91308728 9.72859197,8.95820864 9.77415505,8.9990602 C9.84324567,9.06126074 9.92300975,9.08630252 10.0234322,9.05225955 Z M15.5503373,16.9526515 C15.5804066,16.9377649 15.6038194,16.92911 15.6216085,16.9166468 C15.7977781,16.7947845 16.0074601,16.7508171 16.2579996,16.7699735 C16.4011159,16.7809365 16.4753711,16.7220826 16.4751416,16.6243388 C16.4745677,16.3133361 16.4731905,16.0024488 16.4706656,15.6914461 C16.4696327,15.5741998 16.4125928,15.5373873 16.2395219,15.5377335 C15.8284213,15.5385413 15.4172058,15.5394645 15.0061052,15.5400415 C14.8748101,15.5402723 14.8061785,15.5845858 14.8054899,15.6739053 C14.8030798,15.9916012 14.801473,16.3091817 14.8006696,16.6268776 C14.8004401,16.7230058 14.8678092,16.7698581 15.0098925,16.7717045 C15.1305142,16.7733201 15.2513654,16.7736663 15.3719871,16.7707813 C15.4398152,16.7691657 15.4821648,16.7790901 15.4947893,16.8306739 C15.5042003,16.8694482 15.5287608,16.906607 15.5503373,16.9526515 Z M10.5264624,12.7502491 C10.5297906,12.7465563 10.5331189,12.7428635 10.5364472,12.7390553 C10.5183138,12.7042045 10.4974259,12.6703924 10.4823913,12.6342722 C10.4469278,12.5493379 10.4697667,12.5171413 10.5610077,12.5203725 C10.7757395,12.5279889 10.9806012,12.4896761 11.1662966,12.3777382 C11.321234,12.2843797 11.4365763,12.1605556 11.4379535,11.9633372 C11.4387569,11.8448215 11.3841271,11.7506552 11.303904,11.6709139 C11.1599843,11.5279334 10.979683,11.4606553 10.7833142,11.4348057 C10.5146412,11.3993779 10.2550349,11.4264969 10.0220549,11.578594 C9.96065381,11.6187531 9.90407296,11.6722987 9.85896895,11.7304602 C9.74569247,11.8764411 9.74936506,12.0340774 9.83727771,12.1917136 C9.9217473,12.3432337 10.0500584,12.4532098 10.1906498,12.5477223 C10.2989913,12.6205396 10.4142188,12.6830863 10.5264624,12.7502491 Z M6.96404912,7.6107995 C7.02774562,7.55425356 7.09132735,7.49770761 7.15502385,7.44127706 C7.15272848,7.43769967 7.15043311,7.43423767 7.14813774,7.43066027 C7.02326965,7.47878203 6.89713911,7.52424959 6.773763,7.57606414 C6.68814573,7.6119535 6.60241368,7.63203308 6.50887738,7.62753249 C6.41694784,7.62303189 6.39066586,7.65211267 6.39043632,7.74212458 C6.39009202,7.96092278 6.39009202,8.17960557 6.39055109,8.39840377 C6.39078063,8.47987609 6.41935798,8.51068786 6.49912206,8.51103406 C6.74243121,8.51184186 6.98574036,8.51161106 7.22893475,8.51022626 C7.30273087,8.50976466 7.33016053,8.48103009 7.3302753,8.40694336 C7.33061961,8.17879777 7.32924239,7.95065219 7.32935715,7.7225066 C7.32935715,7.65799806 7.29848444,7.62718629 7.23513224,7.62730169 C7.14676052,7.62741709 7.05850357,7.62730169 6.97013185,7.62730169 C6.96829556,7.62164709 6.96622972,7.6162233 6.96404912,7.6107995 Z M15.7021759,15.2723137 C15.707111,15.2766989 15.7119313,15.2811995 15.7168663,15.2858155 C15.7774641,15.2170372 15.8450627,15.1531056 15.8968233,15.0782111 C15.9582244,14.9893532 15.966832,14.8891861 15.9039389,14.7938658 C15.8411606,14.6986609 15.7501492,14.6626561 15.6382499,14.6735037 C15.5037413,14.6865439 15.4015973,14.7931734 15.4004496,14.9240368 C15.3991872,15.0573237 15.5029379,15.1678768 15.6405453,15.1796476 C15.6630399,15.1816094 15.6855345,15.1829942 15.7143414,15.1850714 C15.7097507,15.2181912 15.7059633,15.2453101 15.7021759,15.2723137 Z M13.7204924,20.329801 C13.6058004,20.2829302 13.5157265,20.2004037 13.4677355,20.0990179 C13.4049811,20.0808069 13.3360337,20.0778761 13.2659857,20.0946444 C13.041269,20.1485361 12.9201883,20.3861445 13.0063794,20.6073661 C13.0686987,20.7674258 13.1863364,20.8809792 13.328305,20.9858777 C13.3160247,20.945834 13.3046627,20.9170994 13.2985799,20.8873262 C13.2893984,20.8426665 13.3000719,20.8299725 13.3437987,20.8317035 C13.3465531,20.8318189 13.3491928,20.8317035 13.3519473,20.8318189 C13.361014,20.8325113 13.3700807,20.8329729 13.3793769,20.8329729 C13.580107,20.8329729 13.7428487,20.6693358 13.7428487,20.4675014 C13.7428487,20.4651934 13.7426191,20.4628854 13.7426191,20.4605774 C13.7436161,20.4146197 13.7357,20.3705585 13.7204924,20.329801 Z M11.094681,4.45115047 C10.8699644,4.50504222 10.7488836,4.7426506 10.8350748,4.96387219 C10.897394,5.12393184 11.0150317,5.23748533 11.1570003,5.34238383 C11.1447201,5.30234007 11.133358,5.2736055 11.1272753,5.24383233 C11.1180938,5.19917257 11.1287673,5.18647858 11.1724941,5.18820958 C11.1752485,5.18832498 11.1778882,5.18820958 11.1806426,5.18832498 C11.1897093,5.18901738 11.198776,5.18947898 11.2080723,5.18947898 C11.4088023,5.18947898 11.571544,5.02584193 11.571544,4.82400752 C11.571544,4.82169952 11.5713145,4.81939152 11.5713145,4.81708353 C11.5764791,4.57901355 11.3424662,4.39171953 11.094681,4.45115047 Z M18.0877906,7.89795402 C18.1087563,7.96810562 18.1033828,8.04568048 18.0687051,8.12100951 C18.0527875,8.15554541 18.0344195,8.18702203 18.0139142,8.21609354 C18.0182937,8.26800208 18.0302575,8.32061761 18.0505108,8.37258141 C18.1367073,8.59357327 18.299488,8.7504062 18.4959114,8.89528796 C18.4788811,8.83993516 18.463209,8.80030759 18.4547461,8.75910749 C18.4419995,8.69756944 18.4569402,8.67995718 18.51733,8.68236839 C18.5211957,8.68247322 18.5248526,8.68236839 18.5286139,8.68247322 C18.5411515,8.68341673 18.5537937,8.68404574 18.5666448,8.68404574 C18.8443541,8.68404574 19.0695097,8.45812665 19.0695097,8.17947563 C19.0695097,8.17633058 19.0694052,8.1730807 19.0693007,8.16993566 C19.0764054,7.84106874 18.7526202,7.58254601 18.4098195,7.66452686 C18.2682382,7.69838282 18.1563764,7.78489709 18.0877906,7.89795402 Z M13.0034444,9.93562784 C13.0322698,9.82498281 13.08596,9.72012234 13.1573835,9.62786249 C13.2001314,9.52594794 13.2426149,9.42391818 13.2843742,9.32157678 C13.300668,9.28170592 13.3199145,9.26182697 13.3643125,9.25346877 C13.5736174,9.2140497 13.753506,9.12030236 13.8689845,8.92670844 C14.0235028,8.66783022 13.9738557,8.37811704 13.747054,8.18407132 C13.5949416,8.05384158 13.4173495,7.98754074 13.225432,7.95263962 C13.1987494,7.94778283 13.1665991,7.93050169 13.1516175,7.90836377 C13.0905976,7.81868257 13.0110967,7.75667378 12.9146458,7.71364036 C12.6684884,7.60385431 12.4379686,7.63841659 12.217072,7.78660516 C12.1960759,7.80072374 12.1638163,7.80727476 12.1389928,7.80320861 C11.8556547,7.75667378 11.5953904,7.81021142 11.3753687,8.00561252 C11.0144981,8.32604773 11.0735497,8.86955644 11.4971899,9.116688 C11.535136,9.13893888 11.5665208,9.16062501 11.5921098,9.18705499 C11.5911256,9.19834985 11.5903601,9.20964471 11.5903601,9.22105252 C11.5903601,9.49540469 11.8922885,9.71768756 12.2647507,9.71768756 C12.2744833,9.71768756 12.2842158,9.71746166 12.2939484,9.71712281 C12.4856473,9.72920832 12.6711129,9.67860734 12.8465178,9.55063656 C12.8553756,9.54408554 12.8653269,9.53922875 12.8830423,9.52872453 C12.9229701,9.66368211 12.9618381,9.7949579 13.0034444,9.93562784 Z M15.3682266,5.51308901 L15.694973,6.21629542 L16.4257361,6.3289779 L15.8969243,6.8764138 L16.0217193,7.64921466 L15.3682266,7.28429773 L14.7146199,7.64921466 L14.8394149,6.8764138 L14.3107171,6.3289779 L15.0413663,6.21629542 L15.3682266,5.51308901 Z" id="Combined-Shape"></path>
        </g>
    </g>
</svg>