<svg id="Layer_1" data-name="Layer 1" xmlns="http://www.w3.org/2000/svg" xmlns:xlink="http://www.w3.org/1999/xlink" viewBox="0 0 214.41 139.9"><defs><style>.cls-1,.cls-2,.cls-5{fill:none;}.cls-2{clip-rule:evenodd;}.cls-3,.cls-4{font-size:14px;}.cls-12,.cls-3,.cls-4{fill:#052b47;}.cls-11,.cls-3{font-family:Raleway-SemiBold, Raleway;font-weight:700;}.cls-4{font-family:Raleway-Regular, Raleway;}.cls-5{fill-rule:evenodd;}.cls-6{isolation:isolate;}.cls-7{clip-path:url(#clip-path);}.cls-8{clip-path:url(#clip-path-2);}.cls-9{fill:#d6f1f3;}.cls-10{fill:#30c0d3;}.cls-11{font-size:13px;}.cls-11,.cls-13{fill:#30bec0;}.cls-14{opacity:0.15;}.cls-15{opacity:0.55;}.cls-16{clip-path:url(#clip-path-4);}.cls-17{clip-path:url(#clip-path-5);}.cls-18{opacity:0.1;}</style><clipPath id="clip-path"><rect class="cls-1" x="123.67" y="44.01" width="11" height="42"/></clipPath><clipPath id="clip-path-2"><path class="cls-2" d="M132.66,50.61a56.48,56.48,0,0,0-1.53-6,39.34,39.34,0,0,0-2.44,40.75,56.89,56.89,0,0,0,4-34.76"/></clipPath><clipPath id="clip-path-4"><rect class="cls-1" x="119.67" y="23.01" width="87" height="86"/></clipPath><clipPath id="clip-path-5"><path class="cls-2" d="M177.63,104.24a41,41,0,0,1-36.19-3.89A41.47,41.47,0,0,1,134,94.22,40.79,40.79,0,1,1,196,90.48l-2,2.78a31,31,0,0,1-2,2.38,1.23,1.23,0,0,0-.3.44,1.73,1.73,0,0,0,.27,1.21c0,.08.53,1.49.59,1.64a17.11,17.11,0,0,1,.75,3.74c0,.33.09,1.33.09,1.33l-1.22-.45a14.05,14.05,0,0,1-2.56-1.16c-.31-.18-.63-.41-1-.65a7.6,7.6,0,0,0-1.81-1,2.32,2.32,0,0,0-.63-.15,1.57,1.57,0,0,0-1,.33l-.26.16c-.39.21-.75.41-1.19.6a18.72,18.72,0,0,1-2.42,1Z"/></clipPath></defs><title>Artboard 19</title><text class="cls-3" transform="translate(0 136.72)">Grupo 3</text><text class="cls-4" transform="translate(165.85 71.88)">30</text><rect class="cls-1" x="124.14" y="43.62" width="9.63" height="40.75"/><path class="cls-5" d="M56,115.72A59.25,59.25,0,0,0,88,118.24,58.68,58.68,0,1,0,29.54,96l2.86,3.85c.87,1.15,1.79,2.2,2.92,3.43a2.08,2.08,0,0,1,.43.63,2.49,2.49,0,0,1-.4,1.76c-.05.13-.75,2.12-.84,2.36a25.18,25.18,0,0,0-1.12,5.36c0,.49-.13,1.93-.13,1.93l1.84-.63A20,20,0,0,0,38.78,113a14.84,14.84,0,0,0,1.41-.92,10.92,10.92,0,0,1,2.58-1.4,4,4,0,0,1,.91-.22,2.33,2.33,0,0,1,1.46.48l.38.23c.56.3,1.12.59,1.7.86,1.13.55,2.3,1,3.49,1.49Z"/><g class="cls-6"><g class="cls-7"><g class="cls-8"><g class="cls-7"><rect class="cls-9" x="119.14" y="39.62" width="19.63" height="50.75"/></g></g></g></g><path class="cls-10" d="M76.46,121.36a61.27,61.27,0,0,1-21.14-3.76l-.07,0L50,115.39c-1.21-.45-2.44-1-3.6-1.54-.6-.28-1.19-.59-1.78-.9l-.65-.41a.35.35,0,0,0-.13-.05,1.78,1.78,0,0,0-.33.09,8.83,8.83,0,0,0-2.09,1.13c-.51.37-1,.72-1.58,1a22.7,22.7,0,0,1-4,1.84l-4.66,1.59.18-3s.09-1.49.14-2a27.32,27.32,0,0,1,1.21-5.8c0-.15.16-.44.28-.79.55-1.54.59-1.65.64-1.77l.16-.29,0-.06c-1.16-1.26-2.07-2.31-2.93-3.44l-2.87-3.87A60.7,60.7,0,0,1,87.26,1,60.65,60.65,0,0,1,88.35,120.2,61.2,61.2,0,0,1,76.46,121.36Zm-19.72-7.5a57.12,57.12,0,0,0,30.83,2.41A56.61,56.61,0,0,0,132.16,49.7,56.77,56.77,0,0,0,28.17,31a56.31,56.31,0,0,0,3,63.81L34,98.66c.79,1,1.65,2,2.75,3.23a3.84,3.84,0,0,1,.84,1.24l.1.24,0,.25a4.52,4.52,0,0,1-.58,2.95c-.08.24-.31.87-.49,1.38l-.27.77a23,23,0,0,0-.86,3.68,18.79,18.79,0,0,0,2.25-1.11c.41-.24.83-.52,1.23-.81a13,13,0,0,1,3.05-1.65,5.93,5.93,0,0,1,1.4-.33l.17,0a4.34,4.34,0,0,1,2.62.82l.3.17c.45.24,1,.52,1.53.78q1.59.77,3.33,1.41Z"/><text class="cls-11" transform="translate(68.69 47.01)">eu</text><text class="cls-4" transform="translate(76.98 71.88)">110</text><path class="cls-12" d="M73.4,67.15h-.75a2.25,2.25,0,1,0-2.74,0h-.75c-1,0-1.91.61-1.91,2.88v.75a6.18,6.18,0,0,0,8.07,0V70C75.35,67.91,74.46,67.15,73.4,67.15Z"/><path class="cls-12" d="M161.7,67.15H161a2.25,2.25,0,1,0-2.74,0h-.75c-1.05,0-1.91.61-1.91,2.88v.75a6.18,6.18,0,0,0,8.07,0V70C163.65,67.91,162.76,67.15,161.7,67.15Z"/><polygon class="cls-1" points="75.63 29.05 75.8 28.89 75.47 28.89 75.63 29.05"/><path class="cls-1" d="M77,26.89a.12.12,0,0,0-.12.12.12.12,0,1,0,.21-.09A.16.16,0,0,0,77,26.89Z"/><path class="cls-1" d="M74,26.89a.12.12,0,0,0-.12.12.12.12,0,0,0,.24,0,.1.1,0,0,0,0-.09A.11.11,0,0,0,74,26.89Z"/><path class="cls-13" d="M77.66,32.26H77.4a4,4,0,0,1-3.49,0h-.23c-1,0-1.81,1.73-1.81,2.74a1.42,1.42,0,0,0,.4,1.14c.64.65,2.56.73,3.3.72h.22c.74,0,2.66-.07,3.3-.72a1.42,1.42,0,0,0,.4-1.14C79.47,34,78.66,32.26,77.66,32.26Z"/><path class="cls-13" d="M78.7,25.47l-.21-.24,0,0a4.11,4.11,0,0,0-.93-.68l.17-.15.38-.26a3.78,3.78,0,0,1,.64-.31,6.3,6.3,0,0,1,0,1.68Zm-1.57,2.19a.48.48,0,0,1-.47-.48.47.47,0,0,1,.47-.48.48.48,0,0,1,.48.48A.49.49,0,0,1,77.13,27.66Zm-.4,2.63a.86.86,0,0,1-1.06-.2l-.06-.1-.06.1a.87.87,0,0,1-1.07.2c-.22-.1,0-.44.2-.34A.5.5,0,0,0,75,30a.42.42,0,0,0,.26-.23,1.21,1.21,0,0,0,.08-.25l0-.18-.2-.24a.34.34,0,0,1,.23-.57h.42a.3.3,0,0,1,.3.21.32.32,0,0,1-.06.36l-.26.24,0,.16a1.82,1.82,0,0,0,.07.25.49.49,0,0,0,.26.23.49.49,0,0,0,.34,0C76.76,29.85,77,30.19,76.73,30.29Zm-3-3.11a.48.48,0,0,1,.47-.48.49.49,0,0,1,.48.48.48.48,0,0,1-.48.48A.47.47,0,0,1,73.68,27.18ZM72.57,25.5a6.05,6.05,0,0,1,0-1.7,4.18,4.18,0,0,1,.64.31l.38.26.18.15A4.07,4.07,0,0,0,72.57,25.5Zm3.06-.85H76a1.64,1.64,0,0,1-.4,1.39h0a1.25,1.25,0,0,1-.16-.22,2.33,2.33,0,0,1-.31-1.1,4.63,4.63,0,0,1,.52-.07Zm4.81,3.64a2.18,2.18,0,0,0-.78-.6,3.71,3.71,0,0,1-.12-.65,4.08,4.08,0,0,0-.26-.69,2,2,0,0,0-.13-.25,6,6,0,0,0,.09-2.76L79.18,23l-.32.09-.28.09a5,5,0,0,0-.83.43c-.15.09-.29.19-.43.29a4,4,0,0,0-.42.37,3.86,3.86,0,0,0-1.25-.21,4,4,0,0,0-1.28.21A4,4,0,0,0,74,24a2.32,2.32,0,0,0-.48-.34,5,5,0,0,0-.83-.43,2.29,2.29,0,0,0-.28-.09L72.08,23l-.06.33a5.94,5.94,0,0,0,.11,2.81,4,4,0,0,0-.49,1.65l-.21.1a2.46,2.46,0,0,0-.44.34l-.13.12-.19.21v.06l.22.18a2.28,2.28,0,0,0,.82.42,2.83,2.83,0,0,0-.29.47c0,.05,0,.11-.08.16l-.12.31.31.1a2.24,2.24,0,0,0,.68.1h.11a4,4,0,0,0,6.77-.12h.69l.34-.06-.1-.32a2.41,2.41,0,0,0-.33-.73l.08,0a2.55,2.55,0,0,0,.5-.24l.15-.1.27-.19Z"/><text class="cls-3" transform="translate(163.31 124.01)">Grupo 1</text><g class="cls-14"><path class="cls-10" d="M56,115.72A59.25,59.25,0,0,0,88,118.24,58.68,58.68,0,1,0,29.54,96l2.86,3.85c.87,1.15,1.79,2.2,2.92,3.43a2.08,2.08,0,0,1,.43.63,2.49,2.49,0,0,1-.4,1.76c-.05.13-.75,2.12-.84,2.36a25.18,25.18,0,0,0-1.12,5.36c0,.49-.13,1.93-.13,1.93l1.84-.63A20,20,0,0,0,38.78,113a14.84,14.84,0,0,0,1.41-.92,10.92,10.92,0,0,1,2.58-1.4,4,4,0,0,1,.91-.22,2.33,2.33,0,0,1,1.46.48l.38.23c.56.3,1.12.59,1.7.86,1.13.55,2.3,1,3.49,1.49Z"/></g><g class="cls-15"><g class="cls-16"><g class="cls-17"><g class="cls-16"><g class="cls-18"><rect class="cls-10" x="117.63" y="20.21" width="91.56" height="91.56"/></g></g></g><g class="cls-16"><path class="cls-10" d="M163.48,108.77a42.78,42.78,0,0,1-8.42-.84,42.21,42.21,0,0,1-14.7-5.89,43.6,43.6,0,0,1-7.84-6.43,42.79,42.79,0,1,1,65.11-3.93l-2,2.75a24.85,24.85,0,0,1-1.79,2.15c.07.17.17.45.38,1l.2.57.05.13a19,19,0,0,1,.83,4.17v.17c0,.3.09,1.14.09,1.14l.32,3.2-4.24-1.59a15.89,15.89,0,0,1-2.87-1.3c-.33-.2-.69-.44-1.08-.71l-.09-.06a5.39,5.39,0,0,0-1.23-.71l-.48.28c-.37.2-.72.39-1.13.57a23,23,0,0,1-2.57,1.09l-3.69,1.53a42,42,0,0,1-7.64,2A42.62,42.62,0,0,1,163.48,108.77Zm-.06-81.56a38.79,38.79,0,0,0-28,65.63,39.44,39.44,0,0,0,7.11,5.83A38.22,38.22,0,0,0,155.84,104a38.64,38.64,0,0,0,14.18.21,38,38,0,0,0,6.88-1.85l3.76-1.55a18.56,18.56,0,0,0,2.17-.92l.11-.06c.32-.14.59-.29.87-.44l.24-.13a3.55,3.55,0,0,1,2.18-.68h.18a4.75,4.75,0,0,1,1.1.26,9.65,9.65,0,0,1,2.32,1.28c.26.18.52.36.77.51l.4.22c-.09-.43-.21-.87-.34-1.29,0-.14-.14-.37-.22-.62s-.22-.6-.28-.79a3.73,3.73,0,0,1-.45-2.38l0-.25.09-.24a3.54,3.54,0,0,1,.71-1c.72-.79,1.32-1.48,1.86-2.19l2-2.76a38.79,38.79,0,0,0-31-62.09Z"/></g></g></g></svg>