<svg id="Layer_1" data-name="Layer 1" xmlns="http://www.w3.org/2000/svg" xmlns:xlink="http://www.w3.org/1999/xlink" viewBox="0 0 410.76 268.69"><defs><style>.cls-1,.cls-2,.cls-5{fill:none;}.cls-2{clip-rule:evenodd;}.cls-3,.cls-4{fill:#052b47;}.cls-4{font-size:26.93px;font-family:Raleway-Regular, Raleway;}.cls-5{fill-rule:evenodd;}.cls-6{isolation:isolate;}.cls-7{clip-path:url(#clip-path);}.cls-8{clip-path:url(#clip-path-2);}.cls-9{fill:#d6f1f3;}.cls-10{fill:#30c0d3;}.cls-11{font-size:25px;font-family:Raleway-SemiBold, Raleway;font-weight:700;}.cls-11,.cls-12{fill:#30bec0;}.cls-13{opacity:0.15;}.cls-14{opacity:0.55;}.cls-15{clip-path:url(#clip-path-4);}.cls-16{clip-path:url(#clip-path-5);}.cls-17{opacity:0.1;}</style><clipPath id="clip-path"><rect class="cls-1" x="236.88" y="84.65" width="21.16" height="80.78"/></clipPath><clipPath id="clip-path-2"><path class="cls-2" d="M254.19,97.34a112.5,112.5,0,0,0-2.95-11.53,75.68,75.68,0,0,0-4.69,78.39,109.62,109.62,0,0,0,7.64-66.86"/></clipPath><clipPath id="clip-path-4"><rect class="cls-1" x="229.19" y="44.26" width="167.33" height="165.41"/></clipPath><clipPath id="clip-path-5"><path class="cls-2" d="M340.68,200.48a77.16,77.16,0,0,1-14,3.75A79,79,0,0,1,271.07,193a79.8,79.8,0,0,1-14.38-11.79A78.45,78.45,0,1,1,376.05,174l-3.88,5.33c-1.15,1.54-2.39,2.95-3.88,4.59a2.49,2.49,0,0,0-.58.83,3.39,3.39,0,0,0,.52,2.34c.09.15,1,2.87,1.14,3.16a33.32,33.32,0,0,1,1.43,7.19c0,.63.19,2.56.19,2.56l-2.36-.87a27.59,27.59,0,0,1-4.92-2.23c-.6-.35-1.22-.78-1.88-1.24a15,15,0,0,0-3.48-1.94,4.62,4.62,0,0,0-1.22-.29,3,3,0,0,0-1.94.65l-.51.3c-.74.4-1.44.79-2.27,1.15a37.26,37.26,0,0,1-4.66,2Z"/></clipPath></defs><title>Artboard 19</title><path class="cls-3" d="M14.57,260.58A7.57,7.57,0,0,1,9,263.09a8,8,0,0,1-3.55-.8,9,9,0,0,1-2.85-2.14A9.9,9.9,0,0,1,.69,257,10.19,10.19,0,0,1,0,253.31a10,10,0,0,1,.69-3.69,9.67,9.67,0,0,1,1.9-3.07,8.72,8.72,0,0,1,2.88-2.08,8.59,8.59,0,0,1,3.63-.77,8.68,8.68,0,0,1,4.61,1.14,7.55,7.55,0,0,1,2.8,3l-2.32,1.67A5.38,5.38,0,0,0,12,247.2a6,6,0,0,0-3-.78,5.15,5.15,0,0,0-2.45.58,6.09,6.09,0,0,0-1.88,1.53,6.61,6.61,0,0,0-1.2,2.22,8.38,8.38,0,0,0-.42,2.64,7.81,7.81,0,0,0,.47,2.72,7.31,7.31,0,0,0,1.29,2.21,6.14,6.14,0,0,0,2,1.5,5.6,5.6,0,0,0,2.45.55,6.07,6.07,0,0,0,2.78-.68,8,8,0,0,0,2.55-2.12v-2h-4v-2.24H17.1V263H14.57Z"/><path class="cls-3" d="M28.08,251.43a6.6,6.6,0,0,0-3,.79,4.24,4.24,0,0,0-1.9,2.11V263h-3V248.87h2.74V252a6.48,6.48,0,0,1,1.9-2.33,4.59,4.59,0,0,1,2.52-.95h.44l.31,0Z"/><path class="cls-3" d="M34.57,263.22a4,4,0,0,1-3.34-1.44,6.89,6.89,0,0,1-1.13-4.29v-8.62h3v8c0,2.53.89,3.8,2.69,3.8a4.13,4.13,0,0,0,2.39-.78,5,5,0,0,0,1.76-2.26v-8.78h3v10.58a1.15,1.15,0,0,0,.17.73.88.88,0,0,0,.63.24V263a7.56,7.56,0,0,1-.75.11l-.56,0a2.16,2.16,0,0,1-1.38-.45,1.45,1.45,0,0,1-.59-1.14l0-1.4a6.36,6.36,0,0,1-2.45,2.33A7,7,0,0,1,34.57,263.22Z"/><path class="cls-3" d="M54.63,263.22a5.54,5.54,0,0,1-3-.81,5.86,5.86,0,0,1-2-2.1v8.38h-3V248.87h2.61v2.53a6.12,6.12,0,0,1,2.09-2,5.58,5.58,0,0,1,2.89-.75,6,6,0,0,1,2.66.59A6.71,6.71,0,0,1,59,250.81a7.24,7.24,0,0,1,1.38,2.31,7.87,7.87,0,0,1,.5,2.78,8.68,8.68,0,0,1-.46,2.87,6.94,6.94,0,0,1-1.29,2.31,6.23,6.23,0,0,1-2,1.56A5.43,5.43,0,0,1,54.63,263.22Zm-1-2.53a3.59,3.59,0,0,0,1.71-.4,4.18,4.18,0,0,0,1.32-1.08,4.91,4.91,0,0,0,.85-1.54,5.31,5.31,0,0,0,.3-1.77,5.08,5.08,0,0,0-1.25-3.34,4.28,4.28,0,0,0-1.39-1,4,4,0,0,0-1.75-.38,3.74,3.74,0,0,0-1.19.21,4.5,4.5,0,0,0-1.15.6,4.64,4.64,0,0,0-1,.87,3,3,0,0,0-.56,1.09v3.69a5.22,5.22,0,0,0,.7,1.21,4.86,4.86,0,0,0,1,1,4.67,4.67,0,0,0,1.15.65A3.44,3.44,0,0,0,53.66,260.69Z"/><path class="cls-3" d="M69.87,263.22a7.4,7.4,0,0,1-3-.59A7,7,0,0,1,64.6,261a6.92,6.92,0,0,1-1.46-2.33,7.86,7.86,0,0,1,0-5.57,6.79,6.79,0,0,1,1.47-2.33,7,7,0,0,1,2.29-1.59,7.8,7.8,0,0,1,5.95,0,7,7,0,0,1,2.29,1.59,6.94,6.94,0,0,1,1.47,2.33,7.86,7.86,0,0,1,0,5.57A6.94,6.94,0,0,1,75.14,261a7.13,7.13,0,0,1-5.27,2.18ZM65.67,256a5.29,5.29,0,0,0,.33,1.89,4.55,4.55,0,0,0,.89,1.49,4.24,4.24,0,0,0,1.33,1,4,4,0,0,0,3.31,0,4.12,4.12,0,0,0,1.33-1,4.75,4.75,0,0,0,.89-1.51,5.68,5.68,0,0,0,0-3.76,4.69,4.69,0,0,0-.89-1.52,4,4,0,0,0-1.33-1,3.84,3.84,0,0,0-1.66-.36,3.51,3.51,0,0,0-1.62.38,4.19,4.19,0,0,0-1.34,1,5.1,5.1,0,0,0-.9,1.52A5.26,5.26,0,0,0,65.67,256Z"/><path class="cls-3" d="M94.57,256.6a4.8,4.8,0,0,1,1.53.58,4,4,0,0,1,1.18,1,4.66,4.66,0,0,1,.76,1.43,5.78,5.78,0,0,1-.2,4,5,5,0,0,1-1.35,1.73,6.08,6.08,0,0,1-2.11,1.12,9.24,9.24,0,0,1-2.78.39A8.74,8.74,0,0,1,88,266.2a6.09,6.09,0,0,1-2.5-2.06l1.81-2.05A4.59,4.59,0,0,0,89,263.65a5.31,5.31,0,0,0,2.59.57,4.29,4.29,0,0,0,2.73-.76,2.69,2.69,0,0,0,1-2.26,3,3,0,0,0-1.08-2.45,4.92,4.92,0,0,0-3.18-.89h-.72v-2.31h.8a4.12,4.12,0,0,0,2.78-.85,2.75,2.75,0,0,0,1-2.14,2.17,2.17,0,0,0-.86-1.9,3.85,3.85,0,0,0-2.24-.61,4.8,4.8,0,0,0-2.42.6,4.31,4.31,0,0,0-1.67,1.69l-1.86-2a4.3,4.3,0,0,1,1-1.17,7.15,7.15,0,0,1,1.47-.91,8.28,8.28,0,0,1,1.78-.6,9.77,9.77,0,0,1,2-.2,8,8,0,0,1,2.41.35,6.3,6.3,0,0,1,1.88,1,4.36,4.36,0,0,1,1.23,1.51,4.54,4.54,0,0,1,.43,2,4.91,4.91,0,0,1-.24,1.54,4.74,4.74,0,0,1-.69,1.32,4.12,4.12,0,0,1-1.06,1A3.88,3.88,0,0,1,94.57,256.6Z"/><text class="cls-4" transform="translate(318.02 138.25)">30</text><rect class="cls-1" x="237.8" y="83.89" width="18.52" height="78.38"/><path class="cls-5" d="M106.76,222.57a114,114,0,0,0,61.45,4.84A112.85,112.85,0,1,0,55.84,184.63l5.5,7.42c1.67,2.21,3.45,4.23,5.62,6.6a3.63,3.63,0,0,1,.83,1.21,4.86,4.86,0,0,1-.76,3.38c-.11.24-1.45,4.08-1.62,4.54a49.13,49.13,0,0,0-2.16,10.31c-.08.93-.25,3.71-.25,3.71l3.53-1.21a39,39,0,0,0,7.09-3.21,32.42,32.42,0,0,0,2.71-1.78,20.71,20.71,0,0,1,5-2.69A7.07,7.07,0,0,1,83,212.5a4.37,4.37,0,0,1,2.81.91l.73.44c1.07.58,2.16,1.14,3.27,1.67,2.17,1,4.43,2,6.72,2.85Z"/><g class="cls-6"><g class="cls-7"><g class="cls-8"><g class="cls-7"><rect class="cls-9" x="228.18" y="76.2" width="37.76" height="97.62"/></g></g></g></g><path class="cls-10" d="M146.08,233.42a117.76,117.76,0,0,1-40.65-7.24l-.13-.05-10.2-4.2c-2.32-.86-4.7-1.87-6.93-3-1.14-.55-2.29-1.13-3.42-1.74l-1.26-.78a.44.44,0,0,0-.24-.11,3.55,3.55,0,0,0-.64.17,17.2,17.2,0,0,0-4,2.18c-1,.72-2,1.39-3,2a44,44,0,0,1-7.8,3.53l-9,3.07.35-5.73s.18-2.87.26-3.83a52.77,52.77,0,0,1,2.33-11.15c.11-.29.3-.85.54-1.52,1.05-3,1.13-3.18,1.23-3.41l.31-.55a.83.83,0,0,0,.07-.13c-2.22-2.41-4-4.43-5.63-6.61l-5.52-7.45a116.74,116.74,0,0,1,114.11-185A116.7,116.7,0,0,1,209.11,215.1,115.79,115.79,0,0,1,169,231.18,117.58,117.58,0,0,1,146.08,233.42ZM108.16,219a110,110,0,0,0,59.3,4.64,108.84,108.84,0,0,0,85.75-128,109.18,109.18,0,0,0-200-36,108.32,108.32,0,0,0,5.71,122.73l5.52,7.44c1.52,2,3.16,3.88,5.29,6.21a7.46,7.46,0,0,1,1.61,2.39l.2.45.07.49A8.68,8.68,0,0,1,70.48,205c-.16.44-.59,1.67-.94,2.65L69,209.11a43.49,43.49,0,0,0-1.65,7.06,36.89,36.89,0,0,0,4.33-2.12,28.26,28.26,0,0,0,2.36-1.56,25,25,0,0,1,5.86-3.18,11.39,11.39,0,0,1,2.7-.64l.33,0a8.3,8.3,0,0,1,5,1.56l.56.34c.87.46,1.91,1,3,1.5,2,1,4.17,1.89,6.39,2.71Z"/><text class="cls-11" transform="translate(131.13 90.41)">eu</text><text class="cls-4" transform="translate(147.09 138.25)">110</text><path class="cls-3" d="M140.2,129.15h-1.44a4.32,4.32,0,1,0-5.27,0h-1.44c-2,0-3.67,1.17-3.67,5.54v1.44a11.86,11.86,0,0,0,15.51,0v-1.44C144,130.62,142.24,129.15,140.2,129.15Z"/><path class="cls-3" d="M310,129.15h-1.44a4.32,4.32,0,1,0-5.26,0h-1.44c-2,0-3.67,1.17-3.67,5.54v1.44a11.86,11.86,0,0,0,15.51,0v-1.44C313.78,130.62,312.07,129.15,310,129.15Z"/><polygon class="cls-1" points="144.5 55.87 144.82 55.56 144.18 55.56 144.5 55.87"/><path class="cls-1" d="M147,51.71a.23.23,0,0,0-.23.23.23.23,0,1,0,.46,0,.24.24,0,0,0-.23-.23Z"/><path class="cls-1" d="M141.28,51.71a.23.23,0,0,0-.23.23.23.23,0,1,0,.46,0,.24.24,0,0,0-.23-.23Z"/><path class="cls-12" d="M148.4,62.05h-.51a7.72,7.72,0,0,1-6.7,0h-.46c-1.92,0-3.47,3.32-3.47,5.27a2.73,2.73,0,0,0,.77,2.19c1.23,1.25,4.93,1.41,6.34,1.38h.44c1.41,0,5.1-.13,6.34-1.38a2.69,2.69,0,0,0,.76-2.19C151.88,65.37,150.32,62.05,148.4,62.05Z"/><path class="cls-12" d="M150.39,49a6,6,0,0,0-.4-.46l-.05-.06a8,8,0,0,0-1.8-1.31l.34-.28c.23-.17.47-.34.73-.5a8.17,8.17,0,0,1,1.22-.61,12,12,0,0,1,0,3.23Zm-3,4.2a.92.92,0,1,1,.91-.92A.92.92,0,0,1,147.38,53.19Zm-.77,5.06a1.65,1.65,0,0,1-2-.37l-.13-.2a.82.82,0,0,1-.12.2,1.67,1.67,0,0,1-2,.37c-.43-.19,0-.85.38-.65a.84.84,0,0,0,.66,0,.86.86,0,0,0,.49-.43,2.18,2.18,0,0,0,.14-.48l.07-.34-.39-.48a.63.63,0,0,1-.13-.69.6.6,0,0,1,.58-.39h.81a.6.6,0,0,1,.58.39.63.63,0,0,1-.12.69c-.16.16-.32.33-.49.48l.07.3a1.89,1.89,0,0,0,.13.48.93.93,0,0,0,.5.44.89.89,0,0,0,.66,0C146.67,57.41,147.05,58.07,146.61,58.25Zm-5.88-6a.92.92,0,1,1,.92.92A.92.92,0,0,1,140.73,52.28ZM138.6,49a12.78,12.78,0,0,1,0-3.27,7.82,7.82,0,0,1,1.23.61c.26.16.51.33.74.5l.34.28A7.9,7.9,0,0,0,138.6,49Zm5.88-1.62h.79a3.07,3.07,0,0,1-.76,2.67h-.07a2.07,2.07,0,0,1-.31-.42,4.31,4.31,0,0,1-.59-2.12,6.54,6.54,0,0,1,1-.13Zm9.26,7a4.27,4.27,0,0,0-1.5-1.17A8.86,8.86,0,0,1,152,52a8.12,8.12,0,0,0-.5-1.32c-.08-.16-.16-.33-.25-.49a11.58,11.58,0,0,0,.18-5.3l-.12-.63-.61.17a4.88,4.88,0,0,0-.54.18,8.58,8.58,0,0,0-1.6.81c-.29.19-.57.38-.83.57a10,10,0,0,0-.81.7,7.54,7.54,0,0,0-2.4-.39,7.85,7.85,0,0,0-2.45.39,8.89,8.89,0,0,0-.74-.61,5.94,5.94,0,0,0-.92-.66,8.58,8.58,0,0,0-1.6-.81,3.11,3.11,0,0,0-.54-.18l-.61-.17-.12.63a11.47,11.47,0,0,0,.21,5.4,7.67,7.67,0,0,0-.94,3.17,3,3,0,0,0-.4.21,4.93,4.93,0,0,0-.86.64l-.24.23-.37.4v.13l.43.34a4.43,4.43,0,0,0,1.57.81,5.21,5.21,0,0,0-.56.9l-.15.32L136,58l.61.19a4.9,4.9,0,0,0,1.31.2h.21a7.69,7.69,0,0,0,13-.25h1.33l.64-.1-.18-.62a4.45,4.45,0,0,0-.64-1.4l.16-.06a4.94,4.94,0,0,0,.95-.47l.29-.18.52-.38Z"/><path class="cls-3" d="M328.66,236.14a7.53,7.53,0,0,1-5.57,2.51,8.08,8.08,0,0,1-3.56-.8,9.21,9.21,0,0,1-2.85-2.14,10.09,10.09,0,0,1-1.9-3.12,10.23,10.23,0,0,1-.69-3.72,10,10,0,0,1,.69-3.69,9.85,9.85,0,0,1,1.9-3.07,8.93,8.93,0,0,1,2.88-2.08,8.49,8.49,0,0,1,3.64-.77,8.64,8.64,0,0,1,4.6,1.14,7.48,7.48,0,0,1,2.8,3l-2.32,1.67a5.33,5.33,0,0,0-2.15-2.34,6,6,0,0,0-3-.78,5.19,5.19,0,0,0-2.46.58,6.06,6.06,0,0,0-1.88,1.53,7,7,0,0,0-1.2,2.22,8.38,8.38,0,0,0-.42,2.64,7.59,7.59,0,0,0,.48,2.72,6.92,6.92,0,0,0,1.29,2.21,6,6,0,0,0,1.95,1.49,5.48,5.48,0,0,0,2.45.56,6.11,6.11,0,0,0,2.79-.68,8,8,0,0,0,2.54-2.12v-2h-4v-2.24h6.54v9.67h-2.53Z"/><path class="cls-3" d="M342.18,227a6.61,6.61,0,0,0-3.06.79,4.2,4.2,0,0,0-1.9,2.11v8.62h-3V224.43H337v3.15a6.38,6.38,0,0,1,1.9-2.33,4.68,4.68,0,0,1,2.52-1h.44a1.42,1.42,0,0,1,.31,0Z"/><path class="cls-3" d="M348.67,238.78a4,4,0,0,1-3.34-1.44,6.82,6.82,0,0,1-1.13-4.29v-8.62h3v8q0,3.8,2.69,3.8a4.14,4.14,0,0,0,2.4-.78,5,5,0,0,0,1.75-2.26v-8.78h3V235a1.17,1.17,0,0,0,.18.73.84.84,0,0,0,.63.24v2.53c-.31.06-.56.09-.75.11l-.57,0a2.11,2.11,0,0,1-1.37-.45,1.48,1.48,0,0,1-.6-1.14l-.05-1.4A6.36,6.36,0,0,1,352,238,7,7,0,0,1,348.67,238.78Z"/><path class="cls-3" d="M368.73,238.78a5.51,5.51,0,0,1-3-.81,6.06,6.06,0,0,1-2.05-2.1v8.38h-3V224.43h2.61V227a6.21,6.21,0,0,1,2.09-2,5.61,5.61,0,0,1,2.89-.75,6.08,6.08,0,0,1,2.67.59,6.56,6.56,0,0,1,2.1,1.59,7.45,7.45,0,0,1,1.39,2.31,7.87,7.87,0,0,1,.5,2.78,8.84,8.84,0,0,1-.46,2.86,7.09,7.09,0,0,1-1.3,2.32,6.08,6.08,0,0,1-2,1.56A5.49,5.49,0,0,1,368.73,238.78Zm-1-2.53a3.72,3.72,0,0,0,1.71-.4,4.3,4.3,0,0,0,1.32-1.08,4.91,4.91,0,0,0,.85-1.54,5.56,5.56,0,0,0,.29-1.77,5,5,0,0,0-.33-1.83,4.89,4.89,0,0,0-.92-1.51,4.28,4.28,0,0,0-1.39-1,3.93,3.93,0,0,0-1.75-.38,3.68,3.68,0,0,0-1.18.21,4.73,4.73,0,0,0-1.16.6,4.59,4.59,0,0,0-.94.87,3,3,0,0,0-.57,1.09v3.69a5.86,5.86,0,0,0,.7,1.21,5.19,5.19,0,0,0,1,1,4.61,4.61,0,0,0,1.14.65A3.53,3.53,0,0,0,367.76,236.25Z"/><path class="cls-3" d="M384,238.78a7.4,7.4,0,0,1-3-.59,7.18,7.18,0,0,1-2.28-1.59,6.89,6.89,0,0,1-1.45-2.33,7.86,7.86,0,0,1,0-5.57,6.92,6.92,0,0,1,1.46-2.33,7,7,0,0,1,2.29-1.59,7.8,7.8,0,0,1,5.95,0,6.92,6.92,0,0,1,2.29,1.59,6.79,6.79,0,0,1,1.47,2.33,7.86,7.86,0,0,1,0,5.57,6.79,6.79,0,0,1-1.47,2.33,7.13,7.13,0,0,1-5.26,2.18Zm-4.2-7.27a5.51,5.51,0,0,0,.32,1.89,4.72,4.72,0,0,0,.89,1.49,4.35,4.35,0,0,0,1.33,1,4,4,0,0,0,3.32,0,4.23,4.23,0,0,0,1.33-1,5.15,5.15,0,0,0,.89-1.51,5.68,5.68,0,0,0,0-3.76,5.07,5.07,0,0,0-.89-1.52,4.09,4.09,0,0,0-1.33-1,3.9,3.9,0,0,0-1.66-.36,3.52,3.52,0,0,0-1.63.38,4.15,4.15,0,0,0-1.33,1,5.12,5.12,0,0,0-.91,1.52A5.26,5.26,0,0,0,379.77,231.51Z"/><path class="cls-3" d="M410.76,235.85v2.66H400.47v-2.66h3.83v-9.4a3.27,3.27,0,0,1-.76.67,8.6,8.6,0,0,1-1.13.65,9.08,9.08,0,0,1-1.29.5,4.34,4.34,0,0,1-1.18.2v-2.78a3.07,3.07,0,0,0,1.25-.32,9.63,9.63,0,0,0,1.37-.75,12.07,12.07,0,0,0,1.16-.86,2.76,2.76,0,0,0,.58-.62h3v12.71Z"/><g class="cls-13"><path class="cls-10" d="M106.76,222.57a114,114,0,0,0,61.45,4.84A112.85,112.85,0,1,0,55.84,184.63l5.5,7.42c1.67,2.21,3.45,4.23,5.62,6.6a3.63,3.63,0,0,1,.83,1.21,4.86,4.86,0,0,1-.76,3.38c-.11.24-1.45,4.08-1.62,4.54a49.13,49.13,0,0,0-2.16,10.31c-.08.93-.25,3.71-.25,3.71l3.53-1.21a39,39,0,0,0,7.09-3.21,32.42,32.42,0,0,0,2.71-1.78,20.71,20.71,0,0,1,5-2.69A7.07,7.07,0,0,1,83,212.5a4.37,4.37,0,0,1,2.81.91l.73.44c1.07.58,2.16,1.14,3.27,1.67,2.17,1,4.43,2,6.72,2.85Z"/></g><g class="cls-14"><g class="cls-15"><g class="cls-16"><g class="cls-15"><g class="cls-17"><rect class="cls-10" x="225.27" y="38.86" width="176.11" height="176.11"/></g></g></g><g class="cls-15"><path class="cls-10" d="M313.46,209.21a82,82,0,0,1-16.2-1.62A81.17,81.17,0,0,1,269,196.25a84.09,84.09,0,0,1-15.08-12.36,82.29,82.29,0,1,1,125.21-7.56l-3.85,5.29c-1.07,1.44-2.17,2.73-3.44,4.14.12.32.31.86.72,2,.17.5.33.95.39,1.1l.08.23a37.13,37.13,0,0,1,1.61,8v.33c0,.57.17,2.19.17,2.19l.62,6.15-8.15-3.05a29.73,29.73,0,0,1-5.51-2.51c-.65-.37-1.34-.85-2.08-1.36l-.18-.12a10.72,10.72,0,0,0-2.37-1.36l-.93.54c-.7.38-1.38.74-2.17,1.09a40.09,40.09,0,0,1-4.93,2.1l-7.1,2.94A80.25,80.25,0,0,1,327.33,208,82,82,0,0,1,313.46,209.21Zm-.12-156.88a74.6,74.6,0,0,0-53.87,126.23,76,76,0,0,0,13.68,11.21A73.27,73.27,0,0,0,298.76,200a74.21,74.21,0,0,0,27.27.4,72.86,72.86,0,0,0,13.24-3.54l7.23-3a32.72,32.72,0,0,0,4.16-1.78l.23-.1c.61-.27,1.13-.55,1.67-.85l.46-.26a6.93,6.93,0,0,1,4.2-1.31l.33,0a9.07,9.07,0,0,1,2.12.49,18.81,18.81,0,0,1,4.47,2.48c.49.34,1,.69,1.48,1,.26.15.51.3.77.43-.19-.84-.41-1.67-.67-2.49l-.42-1.19-.53-1.51a7.19,7.19,0,0,1-.86-4.59l.07-.48.18-.45a6.31,6.31,0,0,1,1.36-2c1.39-1.53,2.54-2.84,3.57-4.22l3.85-5.3a74.6,74.6,0,0,0-59.6-119.43Z"/></g></g></g></svg>