<?xml version="1.0" encoding="utf-8"?>
<!-- Generator: Adobe Illustrator 22.1.0, SVG Export Plug-In . SVG Version: 6.00 Build 0)  -->
<svg version="1.1" id="Layer_1" xmlns="http://www.w3.org/2000/svg" xmlns:xlink="http://www.w3.org/1999/xlink" x="0px" y="0px"
	 viewBox="0 0 105 106" style="enable-background:new 0 0 105 106;" xml:space="preserve">
<style type="text/css">
	.st0{fill:#FF5783;}
	.st1{fill:none;}
	.st2{fill:#30BEC0;}
</style>
<g>
	<path class="st2" d="M90.2,16.8C70.3-4,37.1-4.7,16.3,15.3c-20.8,20-21.5,53.1-1.5,73.9C31,106,56.5,110.1,77,99.1c0,0,0,0,0,0
		c1.1,0.7,2.4,1.4,3.6,2c2.2,1.1,4.5,2,6.8,2.6c0.7,0.2,1.5,0.4,2.3,0.5l3.7,0.7l0.4-3.8c0.5-4.8-0.2-9.6-1.9-14.1
		C109.6,67,108.9,36.2,90.2,16.8z M88.5,80.1c-1,1.3-2,2.4-3.2,3.8c-0.2,0.3-0.6,0.7-0.8,1.3c-0.4,1.2,0.2,2.4,0.5,3.1
		c0.1,0.1,0.1,0.2,0.2,0.4l0,0.1c0.2,0.5,0.4,1,0.6,1.6c0,0.1,0,0.1,0.1,0.2c0.2,0.6,0.4,1.2,0.5,1.7l0,0.1c0.2,0.7,0.3,1.3,0.4,2.1
		l0,0.1c0.1,0.6,0.2,1.2,0.2,1.9c-1.2-0.4-2.5-1-3.9-1.8c-0.5-0.3-1-0.6-1.5-1c-1.4-0.9-2.9-2-4.7-2.2c-1.2-0.1-2,0.4-2.6,0.8
		c-0.1,0.1-0.2,0.1-0.4,0.2c-0.6,0.3-1.2,0.7-1.9,1c-1.3,0.6-2.6,1.2-3.9,1.6c-2.6,1-5.3,1.7-8,2.2c-5.5,0.9-11,0.9-16.4-0.2
		C38.2,96,33,94,28.3,90.9c-3-1.9-5.8-4.2-8.2-6.8C2.9,66.3,3.4,37.7,21.3,20.5C29.6,12.6,40.1,8.5,50.7,8
		c12.4-0.5,25,4.1,34.3,13.8c7.4,7.8,11.9,17.9,12.5,28.7C98,61.1,94.8,71.7,88.5,80.1z"/>
	<path class="st2" d="M52.5,22.7c-3.1,0-5.6,2.5-5.6,5.6v32.9c0,3.1,2.5,5.6,5.6,5.6s5.6-2.5,5.6-5.6V28.3
		C58.1,25.2,55.6,22.7,52.5,22.7z"/>
	<path class="st2" d="M52.5,71.3c-3.1,0-5.6,2.5-5.6,5.6v0.9c0,3.1,2.5,5.6,5.6,5.6s5.6-2.5,5.6-5.6v-0.9
		C58.1,73.7,55.6,71.3,52.5,71.3z"/>
</g>
</svg>
