<svg xmlns="http://www.w3.org/2000/svg" viewBox="0 0 189.1 193.13"><defs><style>.cls-1{fill:#00a9b8;}.cls-2{fill:#fff;}</style></defs><title>Asset 1</title><g id="Layer_2" data-name="Layer 2"><g id="Layer_1-2" data-name="Layer 1"><path class="cls-1" d="M114.91,89.65a65,65,0,0,0,5.65-14l1-4.45a46,46,0,0,0,.67-5.91A74.51,74.51,0,0,0,97.52,72,53.68,53.68,0,0,0,79.21,85.85a52.41,52.41,0,0,0-9.71,19l-1,4.46a63,63,0,0,0-.93,10.31,51.08,51.08,0,0,0,13.94-1.81C95.49,114,107,104.22,114.91,89.65Z"/><path class="cls-2" d="M187.78,135c.06-.3.12-.6.17-.9q.38-2,.63-4c0-.2,0-.4.07-.6a70,70,0,0,0,.44-7v-.08c0-1.67,0-3.36-.12-5.08,0-.79-.1-1.57-.17-2.35-.14-1.55-.33-3.09-.57-4.6q-.18-1.14-.39-2.25c-.4-2.05-.88-4.06-1.46-6-.29-1-.61-2-.94-2.92s-.7-1.9-1.08-2.83l-.55-1.24-1.11-2.46h0c-.5-1-1-2-1.58-3l-.29-.51c-.48-.82-1-1.61-1.5-2.4-.22-.34-.45-.68-.68-1-.44-.62-.88-1.24-1.34-1.84s-.74-1-1.13-1.44l0,0a53.41,53.41,0,0,0-12.93-11.55l-3.79-2.28s-5.56-3.9-16.61-6.15a73.21,73.21,0,0,0-16.92-1.42,55.74,55.74,0,0,0-.57-6.16,59.54,59.54,0,0,0-11.82-27.34h-.15c-.59-.76-1.2-1.51-1.83-2.26l-.18-.21c-.6-.71-1.21-1.4-1.84-2.08l-.1-.11A70.33,70.33,0,0,0,103,16.79l-.31-.25c-.66-.55-1.32-1.08-2-1.59l-.34-.26Q98,12.89,95.48,11.3l0,0c-.78-.49-1.56-1-2.35-1.43l-.57-.33c-.64-.37-1.29-.73-1.94-1.08l-.66-.35c-.68-.36-1.36-.7-2.06-1l-.5-.24c-.87-.42-1.74-.81-2.62-1.19l-.21-.09c-.79-.33-1.59-.65-2.39-1-.26-.11-.53-.2-.8-.3q-.92-.35-1.86-.66l-.9-.31c-.63-.2-1.26-.4-1.89-.58l-.82-.25c-.9-.25-1.8-.49-2.7-.71A64.29,64.29,0,0,0,65.78.39C65.24.32,64.71.27,64.21.22,63.2.13,62.27.07,61.43,0a31.41,31.41,0,0,0-5.92.23l-4.4.46A53.38,53.38,0,0,0,31,7.5a55.16,55.16,0,0,0-6.8,4.64l-1.81,1.55-1.26,1.09C20.06,15.81,19,16.9,18,18A62.15,62.15,0,0,0,13,24a68.06,68.06,0,0,0-3.78,5.8c-.39.67-.78,1.35-1.15,2A65.72,65.72,0,0,0,.45,55C.28,56.32.16,57.64.09,59,0,59.81,0,60.68,0,61.53A54,54,0,0,0,5.79,86.39c.37.72.74,1.43,1.14,2.14a57.22,57.22,0,0,0,3.37,5.33c.68,1,1.4,1.91,2.15,2.84.19.25.39.49.59.73.93,1.12,1.9,2.23,2.93,3.31l.08.08.08.08-.24.67a30.74,30.74,0,0,0-1.31,4.49,30.33,30.33,0,0,0-.61,4.45,31.76,31.76,0,0,0,.14,5.76l.13,1.1.13,1.09,1.28-.28.87-.19c.66-.14,1.31-.31,1.95-.49l.39-.1c.59-.17,1.18-.36,1.77-.56s1.18-.43,1.76-.67a35.37,35.37,0,0,0,3.49-1.62c1.28-.67,2.53-1.41,3.71-2.18l.47-.33c1.24.76,2.5,1.49,3.79,2.19.9.49,1.81,1,2.72,1.41l.55.27c.82.4,1.65.79,2.47,1.17l.18.08a71.16,71.16,0,0,0,23.44,6.25c0,.37,0,.74,0,1.11a61.16,61.16,0,0,0,9.84,31h.1c.68,1,1.4,2,2.15,3l.47.6q.84,1.08,1.74,2.13l.72.81c.57.64,1.16,1.26,1.76,1.87l.73.74c.85.82,1.72,1.63,2.62,2.4a56.56,56.56,0,0,0,5.34,4c.94.61,1.89,1.2,2.86,1.76s2,1.09,3,1.6a65.85,65.85,0,0,0,23.79,6.45l2.4.17a89,89,0,0,0,9.93,0c.74,0,1.47-.1,2.19-.17s1.45-.13,2.18-.22c.09.17.18.34.28.5.25.4.52.8.78,1.2.53.79,1.07,1.59,1.66,2.36a37.64,37.64,0,0,0,5,5.46l.1.09a3.36,3.36,0,0,0,.29.24c.51.44,1,.88,1.58,1.29l1.75,1.34.32-.52.84-1.35a31.74,31.74,0,0,0,2.41-4.76c.16-.39.31-.78.45-1.18.31-.84.57-1.68.8-2.54a31.26,31.26,0,0,0,1-6.3l.14,0,.08,0c1.18-.46,2.32-1,3.44-1.47.7-.32,1.39-.65,2.07-1s1.33-.68,2-1a54.68,54.68,0,0,0,21.15-20.5c.27-.46.53-.93.79-1.4.59-1.09,1.15-2.19,1.67-3.32.31-.68.61-1.38.9-2.08a59.29,59.29,0,0,0,2-5.85c.12-.41.24-.82.35-1.24C187.26,137.37,187.53,136.2,187.78,135ZM100.26,70.75l.87-.34c.72-.3,1.45-.58,2.19-.85l.47-.17a74.15,74.15,0,0,1,18.46-4.07,45.22,45.22,0,0,1-.67,5.87l-1,4.45a65,65,0,0,1-5.65,14c-.72,1.33-1.48,2.61-2.26,3.86-7.79,12.41-18.49,20.75-31.16,24.21a51,51,0,0,1-13.87,1.78,62.92,62.92,0,0,1,.92-10.21l1-4.46a52.41,52.41,0,0,1,9.71-19A53.68,53.68,0,0,1,97.52,72l1.15-.51Zm-80.94,28ZM24,111c-.51.27-1,.51-1.52.75a31.76,31.76,0,0,1-4.59,1.75c0-.45,0-.89,0-1.34l0-.86c0-.09,0-.17,0-.26,0-.73.11-1.46.21-2.18a1.49,1.49,0,0,0,0-.21c.12-.79.26-1.58.44-2.36l0-.1c.1-.43.24-.86.36-1.29.08-.26.14-.52.22-.78,0-.06,0-.13.05-.19.22-.63.45-1.26.71-1.88l.06-.15c.27-.63.55-1.27.87-1.89h0c-.34-.32-.65-.65-1-1s-.72-.71-1.06-1.07C8.1,86.67,3.66,71.92,4.63,57.45A59.28,59.28,0,0,1,8.17,41c.43-1.17.89-2.32,1.39-3.46a58.66,58.66,0,0,1,8.7-14c.19-.23.38-.46.58-.68a55.17,55.17,0,0,1,14.72-12h0c.81-.45,1.62-.88,2.43-1.28.28-.14.56-.26.84-.39.55-.26,1.1-.52,1.65-.76.34-.15.69-.28,1-.42L41,7.34,42.12,7l1.43-.48,1.15-.33c.47-.14.93-.28,1.4-.4l1.18-.28,1.38-.31,1.2-.22c.46-.08.91-.17,1.37-.23s.81-.12,1.22-.17.9-.12,1.35-.16L55,4.27c.44,0,.89-.07,1.34-.09l1.25,0L59,4.1l1.25,0c.44,0,.88,0,1.32,0l1.26.07,1.31.1,1.26.13q.65.06,1.29.15l1.27.19c.43.06.85.13,1.28.21s.85.15,1.27.24l1.26.26L73,5.8l1.25.32,1.26.35,1.22.37L78,7.25l1.19.41,1.26.47,1.17.46,1.26.51L84,9.61c.42.18.83.37,1.25.57l1.11.54c.42.2.83.41,1.24.62l1.09.58,1.23.68,1,.62L92.2,14l1,.65c.4.26.81.51,1.2.78l1,.67c.4.28.81.56,1.2.85s.62.46.93.69.8.59,1.19.9l.89.71,1.18,1,.83.72c.4.34.8.68,1.18,1l.76.7c.4.37.8.74,1.19,1.12.23.21.45.44.67.66.41.41.82.81,1.21,1.22.18.18.34.37.51.55.44.46.88.93,1.31,1.41h0c.58.64,1.15,1.3,1.71,2a53.62,53.62,0,0,1,10.69,20.35,47,47,0,0,1,1.49,11.39,71.82,71.82,0,0,0-24.21,6.24l-.41.19c-1,.46-2,.94-2.9,1.44-.24.13-.47.27-.71.39-.65.36-1.3.73-1.94,1.11l-1.17.7c-.5.31-1,.63-1.48,1-.77.51-1.53,1-2.28,1.58l-.77.56c-.56.42-1.12.86-1.68,1.3l-.11.1A57.49,57.49,0,0,0,73.12,88.41a59.39,59.39,0,0,0-9.88,30.87,65.19,65.19,0,0,1-17.75-4.22v.13c-.76-.29-1.51-.59-2.27-.9l-.25-.11c-.69-.29-1.38-.6-2.07-.91l-1-.46c-.51-.24-1-.47-1.52-.73-.88-.44-1.76-.89-2.65-1.36-1.15-.63-2.27-1.29-3.38-2l-.87-.53,0,0,0,0c-.51-.32-1-.63-1.51-1h0l-.37.28c-.63.48-1.28,1-1.95,1.41l-.2.14c-.32.21-.66.41-1,.61C25.63,110.12,24.84,110.58,24,111ZM134.33,176.7c-.87.1-1.75.18-2.63.25-.42,0-.84.07-1.26.09a76.85,76.85,0,0,1-19-1.14c-1-.19-2-.41-2.92-.64a55.22,55.22,0,0,1-18.17-7.9A47.54,47.54,0,0,1,86,164c-.72-.61-1.42-1.25-2.1-1.91l-.28-.27c-.59-.59-1.18-1.18-1.75-1.8l-.11-.13a47.49,47.49,0,0,1-3.55-4.33c-6.18-8.5-9.77-19.08-10.47-31.19,0-.27,0-.52,0-.78h1.68a54.52,54.52,0,0,0,13.25-1.94c14.33-4,26.15-13.57,33.81-25.83.83-1.32,1.62-2.67,2.35-4,.24-.45.45-.9.67-1.35s.32-.64.47-1c.3-.62.58-1.25.86-1.88,0-.1.09-.21.14-.32a60.81,60.81,0,0,0,5-22.18c18.11-.64,36,5.8,47.64,20.9v-.14c.2.25.39.5.59.74s.46.6.69.91c.64.9,1.25,1.81,1.83,2.74a52.65,52.65,0,0,1,3.13,5.69c.59,1.23,1.11,2.49,1.6,3.75a54.38,54.38,0,0,1,1.75,5.23c.34,1.21.62,2.44.88,3.67q.54,2.59.84,5.22a57.89,57.89,0,0,1,.39,6.7c0,19.9-10,39.53-28.13,49.4a53.71,53.71,0,0,1-6,2.79c-.46.18-.95.34-1.42.51l-.38.14c-.31.11-.61.23-.92.33,0,.69,0,1.38,0,2.07h0c0,.06,0,.11,0,.16,0,.67-.09,1.34-.16,2l0,.2c-.09.71-.21,1.41-.35,2.12a.3.3,0,0,0,0,.1c-.17.78-.37,1.55-.61,2.32l0,.09,0,.11c-.13.4-.29.8-.43,1.19s-.2.59-.32.87c0,0,0,.08,0,.12l0,.12c-.11.27-.22.53-.34.79s-.28.6-.43.9c-.05.1-.09.21-.15.32a32.28,32.28,0,0,1-3.34-3.46c-.39-.45-.76-.92-1.12-1.4-.57-.74-1.08-1.49-1.58-2.25l-.39-.6-.25-.38c-.37-.6-.7-1.21-1-1.83-.16-.3-.32-.59-.47-.9h0l-.1,0c-.55.08-1.12.14-1.67.21h-.05l-.06,0C135,176.64,134.68,176.67,134.33,176.7Z"/></g></g></svg>