<?xml version="1.0" encoding="utf-8"?>
<!-- Generator: Adobe Illustrator 22.0.1, SVG Export Plug-In . SVG Version: 6.00 Build 0)  -->
<svg version="1.1" id="Layer_1" xmlns="http://www.w3.org/2000/svg" xmlns:xlink="http://www.w3.org/1999/xlink" x="0px" y="0px"
	 viewBox="0 0 115.9 104.9" style="enable-background:new 0 0 115.9 104.9;" xml:space="preserve">
<style type="text/css">
	.st0{fill:#D6F1F3;}
</style>
<title>Asset 3</title>
<g id="Layer_2_1_">
	<g id="Layer_1-2">
		<path class="st0" d="M19.6,68.9l0.9,1.6c-6.7-20.8,4.7-43,25.4-49.7s43,4.7,49.7,25.4c2.6,8,2.6,16.6-0.1,24.6l1.9-3.3
			c1.9,1.6,3.5,3.4,4.8,5.5c0.7-2.1,1.2-4.3,1.6-6.5c-0.9,0.3-1.9,0.6-2.8,0.9s-2,0.5-3,0.6l0.9-12.3c2,0.5,3.9,1.3,5.6,2.2
			c-0.1-25.7-21.1-46.4-46.8-46.2c-25.7,0.1-46.4,21.1-46.2,46.8c0,0.2,0,0.3,0,0.5c0.8-0.5,1.6-0.9,2.4-1.2
			c0.9-0.4,1.9-0.8,2.8-1.2l1.4,12.3c-1.9-0.1-3.9-0.5-5.7-1.1c0.5,2.3,1.2,4.6,2,6.9c0.3-0.4,0.5-0.7,0.8-1.1
			c0.7-0.9,1.4-1.7,2.1-2.5C18.1,70.3,18.8,69.5,19.6,68.9z"/>
		<path class="st0" d="M97.5,79.4c-1.1-0.1-2.1-0.3-3.2-0.5c-0.8-0.2-1.5-0.3-2.2-0.5c-11.1,18.8-35.3,25-54,14
			c-5.2-3.1-9.7-7.3-13-12.4c-2.5,0.8-5,1.1-7.6,1c12.4,22.4,40.7,30.6,63.2,18.1c8.1-4.5,14.6-11.3,18.8-19.5
			C98.8,79.5,98.1,79.5,97.5,79.4z"/>
		<path class="st0" d="M100.4,83.1c-1.1,0-2.2-0.1-3.3-0.2s-2.4-0.3-3.6-0.5s-2.3-0.5-3.3-0.8l2.1-6.7c0.8,0.3,1.7,0.5,2.6,0.7
			s1.9,0.3,2.9,0.4c0.7,0.1,1.4,0.1,2.1,0.1c-1.2-2.3-2.8-4.3-4.8-5.9l4.5-5.3c4.2,3.5,7.2,8.2,8.6,13.5l1,3.7l-3.8,0.7
			c-0.7,0.1-1.3,0.2-2,0.3C102.5,83,101.4,83.1,100.4,83.1z"/>
		<path class="st0" d="M17.5,36.2c-4.1-9-2.7-25.2-1.4-32.5L16.8,0l3.7,1c1.1,0.3,2.2,0.6,3.2,1c3.3,1.2,6.6,2.8,9.6,4.6
			c1.7,1,3.4,2.2,5,3.4c1.5,1.2,3,2.4,4.4,3.7l0.3,0.3l1.7,2.1l-5.4,4.5l-1.6-1.9c-1.2-1.1-2.4-2.1-3.7-3.1s-2.9-2.1-4.5-3
			c-2.3-1.4-4.8-2.6-7.3-3.6c-1.1,8.6-0.9,19,1.5,24.3L17.5,36.2z"/>
		<path class="st0" d="M94.5,33.3l-6-3.6c0.9-1.4,1.6-2.9,2.3-4.5c0.7-1.6,1.4-3.3,2-5c0.9-2.5,1.6-5.2,2-7.8
			c-6.2,0.8-12.1,3.2-17.1,7l-0.5,0.3l-2.6,1.4L71.4,15l2.4-1.2C81,8.4,89.7,5.4,98.6,5.2l3.8-0.2l-0.2,3.9
			c-0.1,1.1-0.2,2.3-0.3,3.4c-0.5,3.5-1.3,7-2.5,10.4c-0.7,1.9-1.4,3.8-2.2,5.6C96.4,30,95.5,31.7,94.5,33.3z"/>
		<path class="st0" d="M40.5,42.4c-3,0-5.5,2.5-5.5,5.5s2.5,5.5,5.5,5.5s5.5-2.5,5.5-5.5S43.6,42.4,40.5,42.4z M38.5,47.2
			c-0.8-0.1-1.3-0.7-1.3-1.5c0.1-0.7,0.6-1.2,1.3-1.3c0.8-0.1,1.4,0.5,1.5,1.3s-0.5,1.4-1.3,1.5C38.6,47.2,38.5,47.2,38.5,47.2z"/>
		<path class="st0" d="M75.1,42.4c-3,0-5.5,2.5-5.5,5.5s2.5,5.5,5.5,5.5s5.5-2.5,5.5-5.5S78.1,42.4,75.1,42.4z M73,47.2
			c-0.8-0.1-1.3-0.7-1.3-1.5c0.1-0.7,0.6-1.2,1.3-1.3c0.8-0.1,1.4,0.5,1.5,1.3c0.1,0.8-0.5,1.4-1.3,1.5C73.2,47.2,73.1,47.2,73,47.2
			z"/>
		<path class="st0" d="M44.5,83.5c4,1.8,9.5,1.6,12.2-2.2c1.7-2.3,2.4-5.5,2.8-8.3s-4.1-2.8-4.5,0c0.2-1.1-0.2,1-0.3,1.3
			c-0.2,1-0.5,2-0.9,3c-1.2,2.8-4.4,3.5-7.1,2.3S41.9,82.3,44.5,83.5L44.5,83.5z"/>
		<path class="st0" d="M68.3,79.6c-2.7,1.2-5.9,0.5-7.1-2.3c-0.4-1-0.7-2-0.9-3c-0.1-0.3-0.4-2.4-0.3-1.3c-0.4-2.8-4.9-2.9-4.5,0
			s1,6,2.8,8.3c2.8,3.8,8.3,4,12.3,2.2C73.2,82.3,70.9,78.4,68.3,79.6L68.3,79.6z"/>
		<path class="st0" d="M57.8,73.4c-1,0-2-0.4-2.7-1.1l-2.5-2.4c-1.5-1.5-1.5-3.9,0-5.3c0.7-0.7,1.7-1.1,2.7-1.1h4.9
			c2.1,0,3.8,1.7,3.8,3.8c0,1-0.4,2-1.1,2.7l-2.5,2.4C59.8,73,58.8,73.4,57.8,73.4z M55.9,67.4l1.9,1.9l1.9-1.9H55.9z"/>
		<path class="st0" d="M18,72.3c-5.5-0.3-10.7-2.3-15-5.8l-3-2.4l2.7-2.8c0.5-0.5,1-1,1.5-1.4c1.6-1.4,3.3-2.7,5.1-3.8
			c1-0.6,2.1-1.2,3.2-1.7c1-0.5,2.1-0.9,3.2-1.3l2.3,6.6c-0.9,0.3-1.7,0.6-2.5,1c-0.9,0.4-1.7,0.9-2.6,1.4c-0.6,0.4-1.2,0.8-1.8,1.2
			c2.3,1.1,4.8,1.8,7.4,1.9L18,72.3z"/>
		<path class="st0" d="M18.3,84.4c-2.7,0-5.3-0.4-7.8-1.2l-3.7-1.1l1.5-3.6c0.3-0.6,0.5-1.2,0.8-1.9c0.9-1.9,2.1-3.7,3.4-5.4
			c0.8-1,1.5-1.9,2.3-2.7c0.8-0.8,1.6-1.6,2.5-2.4l4.6,5.3c-0.7,0.6-1.4,1.2-2,1.9c-0.6,0.7-1.3,1.4-1.9,2.2
			c-0.4,0.6-0.9,1.2-1.2,1.8c2.6,0.2,5.1-0.1,7.6-0.9l2.1,6.7C23.8,84,21.1,84.4,18.3,84.4z"/>
		<path class="st0" d="M98.5,71.4l-1-6.9c0.9-0.1,1.8-0.3,2.7-0.5c0.9-0.2,1.8-0.5,2.8-0.9c0.7-0.2,1.3-0.5,2-0.8
			c-2.1-1.5-4.5-2.6-7-3.2l1.7-6.8c5.3,1.3,10.1,4.3,13.6,8.4l2.5,2.9l-3.1,2.2c-0.6,0.4-1.1,0.8-1.7,1.1c-1.8,1.1-3.7,2-5.7,2.8
			c-1.2,0.4-2.3,0.8-3.4,1.1C100.8,71,99.7,71.2,98.5,71.4z"/>
	</g>
</g>
</svg>
