<svg width="67" height="67" xmlns="http://www.w3.org/2000/svg" fill="none">

 <g>
  <title>Layer 1</title>
  <circle id="svg_1" fill="#C70000" r="33.5" cy="33.5" cx="33.5"/>
  <g>
   <g clip-path="url(#svg_2)">
    <path fill="white" d="m45.03683,44.21991c0.7069,0.8488 0.5928,2.1094 -0.2558,2.8163c-0.374,0.3115 -0.8282,0.4638 -1.2794,0.4638c-0.5733,0 -1.1419,-0.2451 -1.5369,-0.72l-8.4654,-10.2101l-8.46249,10.1563c-0.3955,0.4746 -0.96375,0.72 -1.53687,0.72c-0.45119,0 -0.905,-0.1524 -1.27938,-0.4639c-0.84875,-0.7069 -0.96313,-1.9675 -0.25587,-2.8163l8.93125,-10.7187l-8.93276,-10.66489c-0.70706,-0.84874 -0.59281,-2.10937 0.25613,-2.81624c0.8475,-0.70875 2.10813,-0.59475 2.81625,0.25587l8.46374,10.15416l8.4625,-10.15628c0.7063,-0.84875 1.9675,-0.96375 2.8163,-0.25588c0.8487,0.70688 0.9631,1.9675 0.2559,2.81625l-8.9313,10.71871l8.9341,10.7209z"/>
   </g>
   <defs transform="translate(21.4995) translate(0, 17.5012)">
    <clipPath id="svg_2">
     <rect x="21.49953" y="17.50121" fill="white" height="32" width="24"/>
    </clipPath>
   </defs>
  </g>
 </g>
</svg>