<?xml version="1.0" encoding="UTF-8" standalone="no"?>
<svg
   xmlns:dc="http://purl.org/dc/elements/1.1/"
   xmlns:cc="http://creativecommons.org/ns#"
   xmlns:rdf="http://www.w3.org/1999/02/22-rdf-syntax-ns#"
   xmlns:svg="http://www.w3.org/2000/svg"
   xmlns="http://www.w3.org/2000/svg"
   xmlns:sodipodi="http://sodipodi.sourceforge.net/DTD/sodipodi-0.dtd"
   xmlns:inkscape="http://www.inkscape.org/namespaces/inkscape"
   width="22px"
   height="22px"
   viewBox="0 0 22 22"
   version="1.1"
   id="svg11"
   sodipodi:docname="comentarios_icon.svg"
   inkscape:version="0.92.1 r15371">
  <metadata
     id="metadata15">
    <rdf:RDF>
      <cc:Work
         rdf:about="">
        <dc:format>image/svg+xml</dc:format>
        <dc:type
           rdf:resource="http://purl.org/dc/dcmitype/StillImage" />
      </cc:Work>
    </rdf:RDF>
  </metadata>
  <sodipodi:namedview
     pagecolor="#ffffff"
     bordercolor="#666666"
     borderopacity="1"
     objecttolerance="10"
     gridtolerance="10"
     guidetolerance="10"
     inkscape:pageopacity="0"
     inkscape:pageshadow="2"
     inkscape:window-width="1855"
     inkscape:window-height="1056"
     id="namedview13"
     showgrid="false"
     inkscape:zoom="10.727273"
     inkscape:cx="11"
     inkscape:cy="11"
     inkscape:window-x="65"
     inkscape:window-y="24"
     inkscape:window-maximized="1"
     inkscape:current-layer="Page-1" />
  <!-- Generator: Sketch 47 (45396) - http://www.bohemiancoding.com/sketch -->
  <title
     id="title2">numero_comentarios_icon</title>
  <desc
     id="desc4">Created with Sketch.</desc>
  <defs
     id="defs6" />
  <g
     id="Page-1"
     stroke="none"
     stroke-width="1"
     fill="none"
     fill-rule="evenodd">
    <g
       id="numero_comentarios_icon"
       fill-rule="nonzero"
       fill="#4A4A4A"
       style="fill:#ffffff;fill-opacity:1">
      <path
         d="M4.52703934,8.51694483 L4.52703934,8.51694483 C4.21432585,9.81884299 4.292408,11.2107561 4.84890381,12.5520268 C5.45031856,14.0015897 6.49324378,15.1258487 7.80795171,16.0127524 C9.06803176,16.8627341 10.4237196,17.3947925 11.8666331,17.6330265 C11.1349725,18.8304767 10.1673407,19.852096 9.04537246,20.7521524 C8.5005791,21.1888797 7.91935704,21.5853414 7.35491674,22 C7.33486049,21.9798672 7.31480423,21.9597344 7.29515729,21.9396015 C7.35123294,21.8350658 7.41672275,21.7336273 7.46215631,21.6248327 C7.66885852,21.1273197 7.91526393,20.6394861 8.05975082,20.1260992 C8.19727942,19.6374912 8.09986333,19.287877 7.41795069,19.4315169 C7.38561509,19.438486 7.35164225,19.4388732 7.31848804,19.4400347 C5.59733397,19.4953999 4.01657369,19.0865488 2.59749137,18.1538573 C1.61146042,17.5057354 0.829266504,16.6841615 0.378205439,15.6248655 C-0.497720768,13.5678335 0.206703999,11.3478031 1.88406175,9.91488842 C2.658305,9.25344075 3.56553968,8.78645913 4.52703934,8.51694483 Z M14.8752905,20.8267295 C14.8485489,20.7991793 14.8218072,20.7716292 14.7956113,20.744079 C14.8703788,20.60103 14.9576985,20.4622195 15.0182766,20.3133426 C15.2938796,19.6325355 15.6224201,18.9649736 15.8150693,18.2624442 C15.9984408,17.5938227 15.8685526,17.1154033 14.9593358,17.3119632 C14.9162217,17.3214998 14.8709245,17.3220296 14.8267189,17.3236191 C12.5318468,17.399382 10.4241665,16.8399016 8.5320567,15.5635869 C7.21734876,14.6766832 6.17442354,13.5524242 5.57300879,12.1028613 C4.40510718,9.28797536 5.3443402,6.25003899 7.58081721,4.28920841 C10.8667684,1.40809609 15.9493234,1.22319205 19.4432048,3.86694903 C21.4499217,5.3853874 22.5168598,7.38489419 22.4437296,9.89354935 C22.4017069,11.3282776 22.015317,12.6851236 21.3718797,13.9715048 C20.3589706,15.9969723 18.8859956,17.6727645 17.1292315,19.1191486 C16.4028403,19.7167754 15.6278776,20.2593019 14.8752905,20.8267295 Z M13.9382879,13.1691472 L13.9382879,13.1691472 L17.4133648,13.1691472 C17.4133648,10.6101652 15.2555508,10.5679506 14.7121242,9.92040094 L14.6475791,9.56774245 C15.3341982,9.2008643 15.8167137,8.33557622 15.8167137,7.32586979 C15.8167137,5.98422335 14.9645011,4.89641993 13.9135004,4.89641993 C12.8624996,4.89641993 12.010287,5.98422335 12.010287,7.32586979 C12.010287,8.34424132 12.5015351,9.21497286 13.1974292,9.57612982 L13.1407488,9.88646263 C12.6454328,10.5670063 10.4133648,10.5663953 10.4133648,13.1690361 L13.8886044,13.1690361 L13.9382879,13.1690361 L13.9382879,13.1691472 Z"
         id="meus-votos"
         style="fill:#ffffff;fill-opacity:1" />
    </g>
  </g>
</svg>
