<?xml version="1.0" encoding="UTF-8" standalone="no"?>
<svg
   xmlns:dc="http://purl.org/dc/elements/1.1/"
   xmlns:cc="http://creativecommons.org/ns#"
   xmlns:rdf="http://www.w3.org/1999/02/22-rdf-syntax-ns#"
   xmlns:svg="http://www.w3.org/2000/svg"
   xmlns="http://www.w3.org/2000/svg"
   xmlns:sodipodi="http://sodipodi.sourceforge.net/DTD/sodipodi-0.dtd"
   xmlns:inkscape="http://www.inkscape.org/namespaces/inkscape"
   width="24px"
   height="24px"
   viewBox="0 0 24 24"
   version="1.1"
   id="svg13"
   sodipodi:docname="concordo_icon.svg"
   inkscape:version="0.92.1 r15371">
  <metadata
     id="metadata17">
    <rdf:RDF>
      <cc:Work
         rdf:about="">
        <dc:format>image/svg+xml</dc:format>
        <dc:type
           rdf:resource="http://purl.org/dc/dcmitype/StillImage" />
      </cc:Work>
    </rdf:RDF>
  </metadata>
  <sodipodi:namedview
     pagecolor="#ffffff"
     bordercolor="#666666"
     borderopacity="1"
     objecttolerance="10"
     gridtolerance="10"
     guidetolerance="10"
     inkscape:pageopacity="0"
     inkscape:pageshadow="2"
     inkscape:window-width="1855"
     inkscape:window-height="1056"
     id="namedview15"
     showgrid="false"
     inkscape:zoom="9.8333333"
     inkscape:cx="12"
     inkscape:cy="12"
     inkscape:window-x="65"
     inkscape:window-y="24"
     inkscape:window-maximized="1"
     inkscape:current-layer="svg13" />
  <!-- Generator: Sketch 47.1 (45422) - http://www.bohemiancoding.com/sketch -->
  <title
     id="title2">concordo_icon</title>
  <desc
     id="desc4">Created with Sketch.</desc>
  <defs
     id="defs6" />
  <path
     style="fill:#ffffff;fill-rule:evenodd;stroke:#ffffff;stroke-width:0.56"
     inkscape:connector-curvature="0"
     id="Fill-141"
     d="m 17.042734,8.630573 c -0.06824,-0.05818 -0.167756,-0.0474 -0.222688,0.02538 l -4.47362,5.889263 c -0.0044,0.0061 -0.0085,0.01213 -0.01225,0.01864 -0.0013,0.0022 -0.0025,0.0047 -0.004,0.0074 l -1.210647,1.60616 c -0.03528,0.04605 -0.08388,0.07391 -0.136909,0.0784 -0.05493,0.0031 -0.104794,-0.01527 -0.14536,-0.05414 L 7.3667928,12.846973 c -0.06444,-0.06222 -0.164798,-0.05751 -0.223956,0.01146 -0.05874,0.06874 -0.05409,0.17544 0.01078,0.237889 l 3.4708912,3.355152 c 0.09634,0.0921 0.216772,0.141742 0.342905,0.141742 0.0131,0 0.0262,-4.49e-4 0.03951,-0.0016 0.140501,-0.01146 0.267691,-0.08312 0.359175,-0.202622 l 1.226051,-1.626584 c 0.004,-0.0058 0.0082,-0.0128 0.01204,-0.02022 l 4.462422,-5.874661 c 0.05493,-0.07233 0.04416,-0.178361 -0.02387,-0.236991" />
</svg>
