<?xml version="1.0" encoding="utf-8"?>
<!-- Generator: Adobe Illustrator 22.1.0, SVG Export Plug-In . SVG Version: 6.00 Build 0)  -->
<svg version="1.1" id="Layer_1" xmlns="http://www.w3.org/2000/svg" xmlns:xlink="http://www.w3.org/1999/xlink" x="0px" y="0px"
	 viewBox="0 0 105 106" style="enable-background:new 0 0 105 106;" xml:space="preserve">
<style type="text/css">
	.st0{fill:#FF5783;}
	.st1{fill:none;}
	.st2{fill:#30BEC0;}
</style>
<g>
	<g>
		<path class="st2" d="M71.6,42.7H34c-1.9,0-3.4-1.5-3.4-3.4S32.2,36,34,36h37.6c1.9,0,3.4,1.5,3.4,3.4S73.4,42.7,71.6,42.7z"/>
	</g>
	<g>
		<path class="st2" d="M64.9,56.1H27.3c-1.9,0-3.4-1.5-3.4-3.4c0-1.9,1.5-3.4,3.4-3.4h37.6c1.9,0,3.4,1.5,3.4,3.4
			C68.2,54.6,66.7,56.1,64.9,56.1z"/>
	</g>
	<g>
		<path class="st2" d="M71.6,69.6H34c-1.9,0-3.4-1.5-3.4-3.4s1.5-3.4,3.4-3.4h37.6c1.9,0,3.4,1.5,3.4,3.4S73.4,69.6,71.6,69.6z"/>
	</g>
</g>
<path class="st2" d="M90.5,16.6c-20-20.8-53.1-21.5-73.9-1.5C-4.2,35-4.8,68.2,15.1,89c16.2,16.9,41.6,20.9,62.2,10c0,0,0,0,0,0
	c1.1,0.7,2.4,1.4,3.6,2c2.2,1.1,4.5,2,6.8,2.6c0.7,0.2,1.5,0.4,2.3,0.5l3.7,0.7l0.4-3.8c0.5-4.8-0.2-9.6-1.9-14.1
	C109.9,66.8,109.2,36,90.5,16.6z M88.8,79.9c-1,1.3-2,2.4-3.2,3.8c-0.2,0.3-0.6,0.7-0.8,1.3c-0.4,1.2,0.2,2.4,0.5,3.1
	c0.1,0.1,0.1,0.2,0.2,0.4l0,0.1c0.2,0.5,0.4,1,0.6,1.6c0,0.1,0,0.1,0.1,0.2c0.2,0.6,0.4,1.2,0.5,1.7l0,0.1c0.2,0.7,0.3,1.3,0.4,2.1
	l0,0.1c0.1,0.6,0.2,1.2,0.2,1.9c-1.2-0.4-2.5-1-3.9-1.8c-0.5-0.3-1-0.6-1.5-1c-1.4-0.9-2.9-2-4.7-2.2c-1.2-0.1-2,0.4-2.6,0.8
	c-0.1,0.1-0.2,0.1-0.4,0.2c-0.6,0.3-1.2,0.7-1.9,1c-1.3,0.6-2.6,1.2-3.9,1.6c-2.6,1-5.3,1.7-8,2.2C55,98.1,49.5,98,44,96.9
	c-5.5-1.1-10.7-3.2-15.5-6.2c-3-1.9-5.8-4.2-8.2-6.8C3.1,66.1,3.7,37.5,21.6,20.3C29.9,12.4,40.4,8.3,51,7.8
	c12.4-0.5,25,4.1,34.3,13.8c7.4,7.8,11.9,17.9,12.5,28.7C98.3,60.9,95.1,71.4,88.8,79.9z"/>
</svg>
