<svg width="18" height="12" viewBox="0 0 18 12" fill="none" xmlns="http://www.w3.org/2000/svg">
<path d="M9 0.5C4.90909 0.5 1.41545 2.78067 0 6C1.41545 9.21933 4.90909 11.5 9 11.5C13.0909 11.5 16.5845 9.21933 18 6C16.5845 2.78067 13.0909 0.5 9 0.5ZM9 9.66667C6.74182 9.66667 4.90909 8.024 4.90909 6C4.90909 3.976 6.74182 2.33333 9 2.33333C11.2582 2.33333 13.0909 3.976 13.0909 6C13.0909 8.024 11.2582 9.66667 9 9.66667ZM9 3.8C7.64182 3.8 6.54545 4.78267 6.54545 6C6.54545 7.21733 7.64182 8.2 9 8.2C10.3582 8.2 11.4545 7.21733 11.4545 6C11.4545 4.78267 10.3582 3.8 9 3.8Z" fill="#052B47"/>
</svg>
