<?xml version="1.0" encoding="UTF-8"?>
<svg width="38px" height="38px" viewBox="0 0 38 38" version="1.1" xmlns="http://www.w3.org/2000/svg" xmlns:xlink="http://www.w3.org/1999/xlink">
    <!-- Generator: sketchtool 49.3 (51167) - http://www.bohemiancoding.com/sketch -->
    <title>A0489577-A5A6-4FA3-B82D-6016F1C51145-black</title>
    <desc>Created with sketchtool.</desc>
    <defs></defs>
    <g id="Welcome" stroke="none" stroke-width="1" fill="none" fill-rule="evenodd">
        <g id="Desktop-CPA---RocketChat" transform="translate(-762.000000, -795.000000)" fill="#30BEC0">
            <g id="Group-2" transform="translate(0.000000, 659.000000)">
                <path d="M782.297031,174 L764.097308,174 C762.938658,174 762,173.06076 762,171.902561 L762,138.097292 C762,136.938798 762.938805,136 764.097308,136 L797.902839,136 C799.061048,136 800,136.938798 800,138.097292 L800,171.902561 C800,173.060907 799.0609,174 797.902839,174 L788.21945,174 L788.21945,159.284306 L793.158829,159.284306 L793.898431,153.549339 L788.21945,153.549339 L788.21945,149.887924 C788.21945,148.227519 788.680522,147.096008 791.061521,147.096008 L794.098371,147.094681 L794.098371,141.96528 C793.57316,141.89539 791.770454,141.739243 789.673145,141.739243 C785.29466,141.739243 782.297031,144.411875 782.297031,149.319957 L782.297031,153.549339 L777.344971,153.549339 L777.344971,159.284306 L782.297031,159.284306 L782.297031,174 L782.297031,174 Z" id="Facebook"></path>
            </g>
        </g>
    </g>
</svg>