<?xml version="1.0" encoding="UTF-8" standalone="no"?>
<svg width="24px" height="24px" viewBox="0 0 24 24" version="1.1" xmlns="http://www.w3.org/2000/svg" xmlns:xlink="http://www.w3.org/1999/xlink">
    <!-- Generator: Sketch 47 (45396) - http://www.bohemiancoding.com/sketch -->
    <title>perguntas_frequentes_icon</title>
    <desc>Created with Sketch.</desc>
    <defs></defs>
    <g id="Page-1" stroke="none" stroke-width="1" fill="none" fill-rule="evenodd">
        <g id="perguntas_frequentes_icon" fill-rule="nonzero" fill="#FFFFFF">
            <g id="icon-dúvidas-frenquentes">
                <path d="M12,0 C18.6276104,0 24,5.37267089 24,12 C24,18.6273291 18.6278354,24 12,24 C5.3728959,24 0,18.6273291 0,12 C0,5.37267089 5.3728959,0 12,0 Z M10.1640625,14.9570312 L13.0058594,14.9570312 C13.0058594,14.416664 13.0677077,13.9918635 13.1914063,13.6826172 C13.3151048,13.3733708 13.5755188,13.0657567 13.9726563,12.7597656 C14.7018266,12.2845028 15.3089168,11.695316 15.7939453,10.9921875 C16.2789738,10.289059 16.5214844,9.52409268 16.5214844,8.69726562 C16.5214844,7.42772803 16.1064495,6.4235063 15.2763672,5.68457031 C14.4462849,4.94563433 13.3020906,4.57617188 11.84375,4.57617188 C10.4895766,4.57617188 9.39095474,4.9081998 8.54785156,5.57226562 C7.70474839,6.23633145 7.29296865,7.19335313 7.3125,8.44335938 L7.33203125,8.50195312 L10.1054688,8.50195312 C10.1119792,7.94856494 10.2828759,7.52864727 10.6181641,7.2421875 C10.9534522,6.95572773 11.3619768,6.8125 11.84375,6.8125 C12.4296904,6.8125 12.8805323,6.98176914 13.1962891,7.3203125 C13.5120458,7.65885586 13.6699219,8.12760117 13.6699219,8.7265625 C13.6699219,9.26692979 13.5315769,9.75520615 13.2548828,10.1914062 C12.9781887,10.6276063 12.6087263,11.0345033 12.1464844,11.4121094 C11.35872,12.0175812 10.8330091,12.5318989 10.5693359,12.9550781 C10.3056627,13.3782573 10.1705729,14.0455684 10.1640625,14.9570312 Z M13.0253906,19 L13.0253906,16.5585938 L10.1542969,16.5585938 L10.1542969,19 L13.0253906,19 Z" id="Combined-Shape"></path>
            </g>
        </g>
    </g>
</svg>