<?xml version="1.0" encoding="UTF-8" standalone="no"?>
<!-- Created with Inkscape (http://www.inkscape.org/) -->

<svg
   xmlns:dc="http://purl.org/dc/elements/1.1/"
   xmlns:cc="http://creativecommons.org/ns#"
   xmlns:rdf="http://www.w3.org/1999/02/22-rdf-syntax-ns#"
   xmlns:svg="http://www.w3.org/2000/svg"
   xmlns="http://www.w3.org/2000/svg"
   xmlns:sodipodi="http://sodipodi.sourceforge.net/DTD/sodipodi-0.dtd"
   xmlns:inkscape="http://www.inkscape.org/namespaces/inkscape"
   width="38.369453mm"
   height="4.1620007mm"
   viewBox="0 0 38.369454 4.1620007"
   version="1.1"
   id="svg8"
   sodipodi:docname="flag-checkered.svg"
   inkscape:version="0.92.4 5da689c313, 2019-01-14">
  <defs
     id="defs2" />
  <sodipodi:namedview
     id="base"
     pagecolor="#ffffff"
     bordercolor="#666666"
     borderopacity="1.0"
     inkscape:pageopacity="0.0"
     inkscape:pageshadow="2"
     inkscape:zoom="11.636901"
     inkscape:cx="72.958281"
     inkscape:cy="6.8099819"
     inkscape:document-units="mm"
     inkscape:current-layer="layer1"
     showgrid="false"
     fit-margin-top="0"
     fit-margin-left="1.857"
     fit-margin-right="0"
     fit-margin-bottom="0"
     inkscape:window-width="1920"
     inkscape:window-height="968"
     inkscape:window-x="0"
     inkscape:window-y="34"
     inkscape:window-maximized="1"
     showguides="true"
     inkscape:guide-bbox="true">
    <sodipodi:guide
       position="129.25912,8.1101534"
       orientation="0,1"
       id="guide923"
       inkscape:locked="false" />
    <sodipodi:guide
       position="2.5464972,-1.6370339"
       orientation="1,0"
       id="guide941"
       inkscape:locked="false" />
    <sodipodi:guide
       position="35.764643,-1.250512"
       orientation="1,0"
       id="guide943"
       inkscape:locked="false" />
  </sodipodi:namedview>
  <metadata
     id="metadata5">
    <rdf:RDF>
      <cc:Work
         rdf:about="">
        <dc:format>image/svg+xml</dc:format>
        <dc:type
           rdf:resource="http://purl.org/dc/dcmitype/StillImage" />
        <dc:title></dc:title>
      </cc:Work>
    </rdf:RDF>
  </metadata>
  <g
     inkscape:label="Camada 1"
     inkscape:groupmode="layer"
     id="layer1"
     transform="translate(170.94273,-56.429846)">
    <path
       style="opacity:1;fill:#000000;fill-opacity:1;stroke:none;stroke-width:0.25272727;stroke-linecap:round;stroke-linejoin:round;stroke-miterlimit:4;stroke-dasharray:none;stroke-opacity:0.99585063"
       d="m -135.15806,56.430118 c -0.18563,-0.0075 -0.33822,0.140962 -0.33822,0.324847 0,0.110214 0.0551,0.207662 0.13921,0.26625 v 2.172146 c -0.2454,0.08046 -0.42861,0.286622 -0.47969,0.539773 h -31.829 c -0.0673,-0.33474 -0.36115,-0.575684 -0.70258,-0.576035 -0.39619,-6e-6 -0.71737,0.321155 -0.71739,0.717343 -10e-6,0.396206 0.32118,0.717395 0.71739,0.717389 0.3154,-4.9e-5 0.59378,-0.206098 0.68595,-0.507732 h 31.86357 c 0.0921,0.301422 0.37017,0.507419 0.68535,0.507732 0.39621,6e-6 0.7174,-0.321183 0.71739,-0.717389 -4.3e-4,-0.338946 -0.23803,-0.63134 -0.56972,-0.701106 v -0.460018 c 0.16415,-0.07019 0.36893,-0.128206 0.66361,-0.128206 0.31094,0 0.56734,0.201908 0.9583,0.201908 0.27961,0 0.50293,-0.09456 0.71061,-0.237258 0.0505,-0.0348 0.08,-0.09166 0.08,-0.15315 v -1.410179 c 7.4e-4,-0.135159 -0.1404,-0.225062 -0.26337,-0.168212 -0.19898,0.09223 -0.44376,0.185015 -0.67869,0.185015 -0.31035,0 -0.56734,-0.201864 -0.95831,-0.201864 -0.14502,0 -0.27437,0.02552 -0.39445,0.06961 0.0163,-0.04234 0.0238,-0.08814 0.0209,-0.136869 -0.0104,-0.164742 -0.1456,-0.297032 -0.31091,-0.303994 z m 0.59917,0.653177 v 0.415352 c 0.15664,-0.02146 0.28076,-0.0076 0.42694,0.03304 v -0.390973 c 0.13748,0.04293 0.27384,0.09691 0.42698,0.123592 v 0.396195 c -0.15082,-0.03364 -0.28659,-0.08995 -0.42698,-0.128814 v 0.395067 c 0.1514,0.03422 0.28601,0.09047 0.42698,0.129338 v -0.395023 c 0.13748,0.03074 0.27611,0.04004 0.42694,0.01567 v -0.417095 c 0.15662,-0.02784 0.30337,-0.07888 0.42691,-0.130513 v 0.408954 c -0.13688,0.05685 -0.26855,0.11313 -0.42691,0.138654 v 0.412436 c 0.14385,-0.01972 0.29815,-0.06847 0.42691,-0.150845 v 0.408954 c -0.14558,0.09339 -0.28132,0.143279 -0.42691,0.157199 v -0.415308 c -0.15663,0.02146 -0.27786,0.0087 -0.42694,-0.03252 v 0.390974 c -0.13864,-0.04293 -0.27441,-0.09686 -0.42698,-0.123548 v -0.397329 c -0.11427,-0.02552 -0.23666,-0.03948 -0.42694,-0.02207 v 0.413611 c -0.14966,0.01566 -0.29002,0.04757 -0.42691,0.0963 v -0.408955 c 0.15197,-0.05395 0.27553,-0.08703 0.42691,-0.100954 v -0.406037 c -0.12992,0.01798 -0.25869,0.05917 -0.42691,0.121241 v -0.408954 c 0.19257,-0.07077 0.2906,-0.114878 0.42691,-0.127639 z"
       id="circle822"
       inkscape:connector-curvature="0"
       sodipodi:nodetypes="cscccccccccccccsscsccssccccccccccccccccccccccccccccccccccccc" />
    <circle
       cy="59.874466"
       cx="-151.75801"
       id="me"
       style="opacity:1;fill:#ff3e72;fill-opacity:1;stroke:none;stroke-width:0.25272727;stroke-linecap:round;stroke-linejoin:round;stroke-miterlimit:4;stroke-dasharray:none;stroke-opacity:0.99585063;image-rendering:auto"
       r="0.7173804" />
  </g>
</svg>
