<?xml version="1.0" encoding="UTF-8" standalone="no"?>
<svg width="38px" height="38px" viewBox="0 0 38 38" version="1.1" xmlns="http://www.w3.org/2000/svg" xmlns:xlink="http://www.w3.org/1999/xlink">
    <!-- Generator: Sketch 47 (45396) - http://www.bohemiancoding.com/sketch -->
    <title>floting_button_notification</title>
    <desc>Created with Sketch.</desc>
    <defs></defs>
    <g id="Page-1" stroke="none" stroke-width="1" fill="none" fill-rule="evenodd">
        <g id="floting_button_notification" fill-rule="nonzero" fill="#FFFFFF">
            <path d="M21.0573368,37 C21.0080959,36.9487826 20.9588551,36.8975652 20.9106191,36.8463478 C21.0482926,36.5804113 21.2090791,36.3223545 21.3206248,36.0455835 C21.8281073,34.7799229 22.4330666,33.538886 22.7878019,32.2328424 C23.1254536,30.9898356 22.8862836,30.1004259 21.2120939,30.4658423 C21.1327055,30.4835714 21.0492975,30.4845563 20.9678993,30.4875112 C16.7422283,30.628359 12.8612434,29.5882519 9.3772002,27.2155076 C6.95635799,25.5667014 5.03596385,23.4766377 3.92854661,20.7818147 C1.77802675,15.5487758 3.50748688,9.90107301 7.62563192,6.25577338 C13.6762301,0.899615747 23.0350112,0.555868227 29.4684823,5.4707683 C33.1635578,8.29363475 35.1281682,12.0108357 34.9935095,16.6745736 C34.9161309,19.3418179 34.2046505,21.8642747 33.0198548,24.2557331 C31.154731,28.0211966 28.4424632,31.1365932 25.2076392,33.8255064 C23.8700962,34.9365299 22.4431157,35.9451186 21.0573368,37 Z M19.5797101,24.826087 C20.5549872,24.826087 21.3529412,24.0043478 21.3529412,23 L17.8064791,23 C17.8064791,24.0043478 18.6044331,24.826087 19.5797101,24.826087 Z M25.342711,19.3478261 L25.342711,14.326087 C25.342711,11.4956522 23.4808184,9.21304348 20.9096334,8.57391304 L20.9096334,7.93478261 C20.9096334,7.20434783 20.2890026,6.56521739 19.5797101,6.56521739 C18.8704177,6.56521739 18.2497869,7.20434783 18.2497869,7.93478261 L18.2497869,8.57391304 C15.6786019,9.21304348 13.8167093,11.4956522 13.8167093,14.326087 L13.8167093,19.3478261 L12.0434783,21.173913 L12.0434783,22.0869565 L27.115942,22.0869565 L27.115942,21.173913 L25.342711,19.3478261 Z" id="Combined-Shape-Copy"></path>
        </g>
    </g>
</svg>