<svg id="Layer_1" data-name="Layer 1" xmlns="http://www.w3.org/2000/svg" viewBox="0 0 93.18 92.45"><defs><style>.cls-1{fill:#30bec0;}.cls-2{fill:#fff;}</style></defs><title>poderesArtboard 1 copy 2</title><path class="cls-1" d="M89.67,45.27c.43-.41.85-.84,1.25-1.27l2.26-2.47-2.67-2a23.26,23.26,0,0,0-8.38-4q.5-.52,1-1.08c.57-.69,1.11-1.4,1.61-2.13.33-.49.65-1,.94-1.51l1.68-2.89-3-1.39a23.51,23.51,0,0,0-7.73-2.05c.11-.27.22-.54.32-.82a27.74,27.74,0,0,0,1.36-5.36c.08-.58.15-1.18.19-1.76l.26-3.34-3.35.07a23.31,23.31,0,0,0-8.84,1.93q.06-.86.06-1.71a26.23,26.23,0,0,0-.13-2.67c-.06-.59-.14-1.19-.24-1.76l-.57-3.3-3.23.89A23.32,23.32,0,0,0,55.14,10c-.09-.28-.18-.56-.28-.83a27.05,27.05,0,0,0-2.4-5c-.31-.5-.64-1-1-1.48L49.53,0,47,2.2a23.5,23.5,0,0,0-5.66,7.41c-.28-.4-.55-.81-.84-1.18a26.53,26.53,0,0,0-1.76-2c-.41-.43-.84-.84-1.28-1.23L35,2.94,33,5.63a23.45,23.45,0,0,0-3.59,7.15c-.24-.16-.48-.33-.74-.48a27.16,27.16,0,0,0-5-2.43c-.55-.21-1.12-.39-1.68-.56L18.8,8.38l-.62,3.29a23.3,23.3,0,0,0,0,8.73c-.67-.16-1.34-.32-2-.43a24.58,24.58,0,0,0-2.65-.33c-.6,0-1.2-.06-1.78-.06H8.41l.32,3.32a23.65,23.65,0,0,0,2.1,7.72l-.86.13a28.29,28.29,0,0,0-5.33,1.51Q3.82,32.59,3,33L0,34.43l1.74,2.86A23.26,23.26,0,0,0,8,44.12c-.43.2-.86.42-1.28.64a24.89,24.89,0,0,0-2.29,1.39c-.49.33-1,.69-1.44,1.05L.41,49.27l2.31,2.42a23.17,23.17,0,0,0,6.42,4.75c-.2.22-.4.42-.6.65a27.56,27.56,0,0,0-3.25,4.48c-.29.51-.57,1-.83,1.56L3,66.14l3.14,1.18A23.4,23.4,0,0,0,14.4,68.8c-.05.12-.11.24-.16.37-.32.84-.6,1.69-.83,2.53-.16.58-.29,1.16-.4,1.74l-.65,3.28,3.33.33a23.48,23.48,0,0,0,5.37-.1c-.08.88-.12,1.76-.12,2.63,0,.6,0,1.2.08,1.78l.26,3.33,3.29-.57a23.64,23.64,0,0,0,4.5-1.27,23.32,23.32,0,0,0,2,4.06l1.79,2.83,2.65-2c.46-.36.92-.75,1.36-1.15a25.35,25.35,0,0,0,1.88-1.86c.11.31.2.64.32.94.33.84.71,1.65,1.11,2.43.28.53.57,1,.88,1.55l1.75,2.85,2.67-2A23.46,23.46,0,0,0,51,84.61c.19.22.37.45.57.67A27.43,27.43,0,0,0,55.62,89c.47.36,1,.69,1.46,1l2.82,1.81,1.53-3a23.41,23.41,0,0,0,2.51-9c.41.26.81.54,1.23.79a26.58,26.58,0,0,0,2.37,1.22c.55.24,1.1.47,1.65.67l3.14,1.16.85-3.24a23.6,23.6,0,0,0,.69-8l.86.17a27.35,27.35,0,0,0,5.52.42c.59,0,1.18-.05,1.77-.11l3.33-.32-.64-3.29a23.15,23.15,0,0,0-3.25-8.1c.69-.1,1.37-.2,2-.34a26.55,26.55,0,0,0,2.59-.68c.57-.18,1.13-.38,1.67-.6l3.11-1.23-1.52-3a23.75,23.75,0,0,0-4.81-6.39l.76-.44A27.94,27.94,0,0,0,89.67,45.27ZM80.82,60.34a.89.89,0,0,1,.06-.43l0,.56Z"/><path class="cls-2" d="M28.2,54.92a8.75,8.75,0,0,0-.52,3.93l.11,1.06,1-.21.63-.15a10.82,10.82,0,0,0,1.9-.74c.35-.18.68-.37,1-.57h0a14.56,14.56,0,1,0-4.16-3.32Z"/><path class="cls-2" d="M64.7,36.32A14.55,14.55,0,1,0,61,59.24h0c.32.2.66.39,1,.57a10.82,10.82,0,0,0,1.9.74l.63.15,1,.21.11-1.06a8.48,8.48,0,0,0-.52-3.93A14.59,14.59,0,0,0,64.7,36.32Zm-.49,17.62c-.26.35-.55.67-.9,1.06a.92.92,0,0,0-.23.35,1.19,1.19,0,0,0,.15.87.58.58,0,0,1,.05.11v0q.09.21.18.45s0,0,0,.05.11.33.15.48v0a4.78,4.78,0,0,1,.12.57v0c0,.17,0,.35.05.55a6.67,6.67,0,0,1-1.09-.5c-.13-.07-.27-.17-.42-.27a2.76,2.76,0,0,0-1.3-.62,1.1,1.1,0,0,0-.73.22l-.1,0c-.17.1-.35.19-.52.27-.35.17-.71.32-1.08.46a12.24,12.24,0,0,1-2.23.6,12.59,12.59,0,0,1-4.58-.06A12.42,12.42,0,0,1,47.45,57a12.94,12.94,0,0,1-2.29-1.89,12.53,12.53,0,1,1,19-1.13Z"/></svg>