<?xml version="1.0" encoding="UTF-8"?>
<svg width="14px" height="14px" viewBox="0 0 14 14" version="1.1" xmlns="http://www.w3.org/2000/svg" xmlns:xlink="http://www.w3.org/1999/xlink">
    <!-- Generator: sketchtool 50.2 (55047) - http://www.bohemiancoding.com/sketch -->
    <title>8028E1ED-C956-4EE4-8900-1401BA369CF3</title>
    <desc>Created with sketchtool.</desc>
    <defs></defs>
    <g id="Page-1" stroke="none" stroke-width="1" fill="none" fill-rule="evenodd">
        <g id="admin_Django" transform="translate(-227.000000, -314.000000)" fill="#FF3D72">
            <path d="M234,327.125 C230.61725,327.125 227.875,324.381875 227.875,321 C227.875,317.618125 230.61725,314.875 234,314.875 C237.38275,314.875 240.125,317.618125 240.125,321 C240.125,324.381875 237.38275,327.125 234,327.125 L234,327.125 Z M234,314 C230.133813,314 227,317.1325 227,321 C227,324.8675 230.133813,328 234,328 C237.866187,328 241,324.8675 241,321 C241,317.1325 237.866187,314 234,314 L234,314 Z M236.625,320.5625 L234.4375,320.5625 L234.4375,318.375 C234.4375,318.134375 234.241938,317.9375 234,317.9375 C233.758062,317.9375 233.5625,318.134375 233.5625,318.375 L233.5625,320.5625 L231.375,320.5625 C231.133062,320.5625 230.9375,320.759375 230.9375,321 C230.9375,321.240625 231.133062,321.4375 231.375,321.4375 L233.5625,321.4375 L233.5625,323.625 C233.5625,323.865625 233.758062,324.0625 234,324.0625 C234.241938,324.0625 234.4375,323.865625 234.4375,323.625 L234.4375,321.4375 L236.625,321.4375 C236.866938,321.4375 237.0625,321.240625 237.0625,321 C237.0625,320.759375 236.866938,320.5625 236.625,320.5625 L236.625,320.5625 Z" id="icon_add"></path>
        </g>
    </g>
</svg>