<?xml version="1.0" encoding="UTF-8"?>
<svg width="14px" height="14px" viewBox="0 0 14 14" version="1.1" xmlns="http://www.w3.org/2000/svg" xmlns:xlink="http://www.w3.org/1999/xlink">
    <!-- Generator: sketchtool 51.3 (57544) - http://www.bohemiancoding.com/sketch -->
    <title>8741C215-36D8-4785-B395-E48D6154AED0</title>
    <desc>Created with sketchtool.</desc>
    <defs></defs>
    <g id="Page-1" stroke="none" stroke-width="1" fill="none" fill-rule="evenodd">
        <g id="Criar/editar-QUADRO" transform="translate(-11.000000, -81.000000)" fill="#052B47">
            <g id="Group-4" transform="translate(-1.000000, 70.000000)">
                <path d="M19,24.125 C15.61725,24.125 12.875,21.381875 12.875,18 C12.875,14.618125 15.61725,11.875 19,11.875 C22.38275,11.875 25.125,14.618125 25.125,18 C25.125,21.381875 22.38275,24.125 19,24.125 L19,24.125 Z M19,11 C15.1338125,11 12,14.1325 12,18 C12,21.8675 15.1338125,25 19,25 C22.8661875,25 26,21.8675 26,18 C26,14.1325 22.8661875,11 19,11 L19,11 Z M21.5011875,15.4975 C21.3288125,15.326875 21.050125,15.326875 20.87775,15.4975 L18.997375,17.37875 L17.144125,15.52375 C16.9730625,15.353125 16.6956875,15.353125 16.5255,15.52375 C16.3544375,15.694375 16.3544375,15.974375 16.5255,16.145 L18.37875,17.995625 L16.512375,19.86375 C16.3404375,20.034375 16.3404375,20.314375 16.512375,20.489375 C16.68475,20.66 16.963875,20.66 17.13625,20.489375 L19.002625,18.62125 L20.855875,20.47625 C21.0269375,20.646875 21.3043125,20.646875 21.4749375,20.47625 C21.646,20.305625 21.646,20.025625 21.4749375,19.855 L19.62125,18.004375 L21.5011875,16.123125 C21.673125,15.948125 21.673125,15.6725 21.5011875,15.4975 L21.5011875,15.4975 Z" id="icon_cancel"></path>
            </g>
        </g>
    </g>
</svg>