<?xml version="1.0" encoding="UTF-8"?>
<svg width="14px" height="14px" viewBox="0 0 14 14" version="1.1" xmlns="http://www.w3.org/2000/svg" xmlns:xlink="http://www.w3.org/1999/xlink">
    <!-- Generator: sketchtool 51.3 (57544) - http://www.bohemiancoding.com/sketch -->
    <title>4B17DD86-8E42-47F9-BDCA-1067B8DBD3D0</title>
    <desc>Created with sketchtool.</desc>
    <defs></defs>
    <g id="Page-1" stroke="none" stroke-width="1" fill="none" fill-rule="evenodd">
        <g id="Criar/editar-QUADRO" transform="translate(-190.000000, -81.000000)" fill="#FF3D72">
            <g id="Group-4" transform="translate(-1.000000, 70.000000)">
                <path d="M200.636812,14.968125 C200.42725,14.845625 200.159937,14.92 200.039187,15.125625 L197.241375,19.973125 L195.676,18.529375 C195.510625,18.354375 195.233688,18.345625 195.057375,18.511875 C194.881063,18.67375 194.871875,18.95375 195.03725,19.12875 L197.0375,20.975 C197.202438,21.15 197.479375,21.15875 197.655687,20.9925 C197.709063,20.944375 200.796937,15.563125 200.796937,15.563125 C200.917687,15.3575 200.845937,15.08625 200.636812,14.968125 L200.636812,14.968125 Z M198,24.125 C194.61725,24.125 191.875,21.381875 191.875,18 C191.875,14.618125 194.61725,11.875 198,11.875 C201.38275,11.875 204.125,14.618125 204.125,18 C204.125,21.381875 201.38275,24.125 198,24.125 L198,24.125 Z M198,11 C194.13425,11 191,14.1325 191,18 C191,21.8675 194.13425,25 198,25 C201.86575,25 205,21.8675 205,18 C205,14.1325 201.86575,11 198,11 L198,11 Z" id="icon_save"></path>
            </g>
        </g>
    </g>
</svg>