<?xml version="1.0" encoding="UTF-8"?>
<svg width="14px" height="14px" viewBox="0 0 14 14" version="1.1" xmlns="http://www.w3.org/2000/svg" xmlns:xlink="http://www.w3.org/1999/xlink">
    <!-- Generator: sketchtool 50.2 (55047) - http://www.bohemiancoding.com/sketch -->
    <title>651F3C71-701B-4851-971F-C840D8E5D016</title>
    <desc>Created with sketchtool.</desc>
    <defs></defs>
    <g id="Page-1" stroke="none" stroke-width="1" fill="none" fill-rule="evenodd">
        <g id="admin_Django" transform="translate(-227.000000, -333.000000)" fill="#30BFD3">
            <path d="M232.156375,343.07125 L229.806125,344.494437 C229.592187,344.594187 229.399687,344.387688 229.499437,344.187312 L230.922188,341.835312 L232.156375,343.07125 L232.156375,343.07125 Z M236.292063,336.159625 L237.8395,337.6865 L232.922,342.607063 C232.34625,342.030438 231.548688,341.232438 231.3855,341.06925 L236.292063,336.159625 L236.292063,336.159625 Z M237.8395,334.611312 C238.00925,334.441125 238.284437,334.441125 238.454625,334.611312 L239.376438,335.533562 C239.546188,335.70375 239.546188,335.978937 239.376438,336.148687 L238.454625,337.071375 L236.939563,335.51125 L237.8395,334.611312 L237.8395,334.611312 Z M230.548125,340.90475 L228.666875,344.713187 C228.508937,345.142375 228.851938,345.5265 229.280687,345.327437 L233.0865,343.444875 C233.250563,343.412937 233.409813,343.349063 233.536688,343.222188 L240.29825,336.455812 C240.63775,336.11675 240.63775,335.5655 240.29825,335.226 L238.76175,333.688187 C238.421812,333.348688 237.871875,333.348688 237.532375,333.688187 L230.770813,340.454125 C230.6435,340.581437 230.5805,340.740687 230.548125,340.90475 L230.548125,340.90475 Z M240.125,338.25 L240.125,345.25 C240.125,345.730812 239.649875,346.13025 239.169938,346.13025 L228.738625,346.13025 C228.258688,346.13025 227.869312,345.740875 227.869312,345.260062 L227.869312,334.822187 C227.869312,334.341375 228.269625,333.875 228.75,333.875 L235.75,333.875 L235.75,333 L228.75,333 C227.790125,333 227,333.861438 227,334.822187 L227,345.260062 C227,346.22125 227.778312,347 228.738625,347 L239.169938,347 C240.13025,347 241,346.21075 241,345.25 L241,338.25 L240.125,338.25 L240.125,338.25 Z" id="Fill-214"></path>
        </g>
    </g>
</svg>