<?xml version="1.0" encoding="UTF-8"?>
<svg width="101px" height="101px" viewBox="0 0 101 101" version="1.1" xmlns="http://www.w3.org/2000/svg" xmlns:xlink="http://www.w3.org/1999/xlink">
    <!-- Generator: Sketch 50.2 (55047) - http://www.bohemiancoding.com/sketch -->
    <title>Group</title>
    <desc>Created with Sketch.</desc>
    <defs></defs>
    <g id="Page-1" stroke="none" stroke-width="1" fill="none" fill-rule="evenodd">
        <g id="Perfil-USER-PADRAO---trofeus" transform="translate(-29.000000, -1072.000000)">
            <g id="Group" transform="translate(29.000000, 1072.000000)">
                <circle id="Oval-6" fill="#FFFFFF" cx="50.5" cy="50.5" r="50.5"></circle>
                <path d="M63.4730511,46.9976567 L63.4730511,39.4988283 C68.4122794,39.4988283 68.4635214,39.2376191 68.4635214,41.9984378 C68.4635214,44.7592564 66.2301203,46.9976567 63.4730511,46.9976567 L63.4730511,46.9976567 Z M60.9784409,44.4980472 C60.9784409,50.0196845 56.5116388,56.9960945 51,56.9960945 C45.4883612,56.9960945 41.0215591,50.0196845 41.0215591,44.4980472 L41.0215591,36.9992189 C41.0215591,35.763162 42.3201062,34.4996094 43.5161693,34.4996094 L58.4838307,34.4996094 C59.6798938,34.4996094 60.9784409,35.7231683 60.9784409,36.9992189 L60.9784409,44.4980472 L60.9784409,44.4980472 Z M38.5269489,46.9976567 C35.7711295,46.9976567 33.5364786,44.7592564 33.5364786,41.9984378 C33.5364786,39.2376191 33.5877206,39.4988283 38.5269489,39.4988283 L38.5269489,46.9976567 L38.5269489,46.9976567 Z M63.4730511,36.9992189 C63.4730511,34.2384003 61.2396501,32 58.4838307,32 L43.5161693,32 C40.7603499,32 38.5269489,34.2384003 38.5269489,36.9992189 C29.982034,36.9992189 31.0418684,36.9979691 31.0418684,41.9984378 C31.0418684,46.1390408 34.3925948,49.4972661 38.5269489,49.4972661 C38.8244024,49.4972661 39.1093579,49.4497735 39.396813,49.4097798 C41.0715513,54.3140135 45.0171848,58.7320732 49.7526949,59.405718 L49.7526949,66.9945322 L46.0107795,66.9945322 C45.3221371,66.9945322 44.7634744,67.5531949 44.7634744,68.244337 C44.7634744,68.935479 45.3221371,69.4941417 46.0107795,69.4941417 L55.9892205,69.4941417 C56.6778629,69.4941417 57.2365256,68.935479 57.2365256,68.244337 C57.2365256,67.5531949 56.6778629,66.9945322 55.9892205,66.9945322 L52.2473051,66.9945322 L52.2473051,59.405718 C56.9828152,58.7320732 60.9284487,54.3140135 62.6044368,49.4097798 C62.8906421,49.4497735 63.1755976,49.4972661 63.4730511,49.4972661 C67.6074052,49.4972661 70.9581316,46.1390408 70.9581316,41.9984378 C70.9581316,36.9979691 72.017966,36.9992189 63.4730511,36.9992189 L63.4730511,36.9992189 Z" id="Fill-159" fill="#30BFD3"></path>
            </g>
        </g>
    </g>
</svg>