<svg width="13" height="13" xmlns="http://www.w3.org/2000/svg" fill="none">

 <g>
  <title>Layer 1</title>
  <circle id="svg_1" fill="#777777" r="6.5" cy="6.5" cx="6.5"/>
  <g>
   <path fill="#E5E5E5" d="m5.865,4.055l0,-0.87c0,-0.13333 0.06667,-0.2 0.2,-0.2l0.87,0c0.13333,0 0.2,0.06333 0.2,0.19l0,0.88c0,0.13333 -0.06667,0.2 -0.2,0.2l-0.87,0c-0.13333,0 -0.2,-0.06667 -0.2,-0.2zm0,5.75l0,-4.68c0,-0.14 0.06667,-0.21 0.2,-0.21l0.86,0c0.14,0 0.21,0.07 0.21,0.21l0,4.68c0,0.08667 -0.01667,0.14333 -0.05,0.17c-0.02667,0.02667 -0.07667,0.04 -0.15,0.04l-0.86,0c-0.14,0 -0.21,-0.07 -0.21,-0.21z"/>
  </g>
 </g>
</svg>