<?xml version="1.0" encoding="UTF-8" standalone="no"?>
<svg width="48px" height="48px" viewBox="0 0 48 48" version="1.1" xmlns="http://www.w3.org/2000/svg" xmlns:xlink="http://www.w3.org/1999/xlink">
    <!-- Generator: Sketch 47 (45396) - http://www.bohemiancoding.com/sketch -->
    <title>menu_icon </title>
    <desc>Created with Sketch.</desc>
    <defs></defs>
    <g id="Page-1" stroke="none" stroke-width="1" fill="none" fill-rule="evenodd">
        <g id="menu_icon-"></g>
        <g id="Group-2" transform="translate(4.000000, 2.000000)">
            <path d="M21.4430875,43 C21.3846139,42.9370758 21.3261404,42.8741515 21.2688602,42.8112273 C21.4323474,42.4845054 21.6232814,42.167464 21.7557419,41.8274312 C22.3583774,40.2724767 23.0767666,38.7477742 23.4980147,37.1432064 C23.8989761,35.6160838 23.6149618,34.5233803 21.6268615,34.9723205 C21.5325878,34.994102 21.4335408,34.995312 21.3368804,34.9989423 C16.3188961,35.1719839 11.7102265,33.894138 7.57292524,30.9790521 C4.69817511,28.953376 2.41770707,26.3855834 1.1026491,23.0748009 C-1.45109324,16.6456389 0.602640669,9.70703256 5.49293791,5.22852158 C12.6780232,-1.35190065 23.7915758,-1.77421904 31.4313227,4.26408677 C35.8192248,7.73217984 38.1521997,12.2990268 37.9922925,18.0287618 C37.9004055,21.305662 37.0555225,24.4046803 35.6485776,27.3427578 C33.4337431,31.9688987 30.2129251,35.7963859 26.3715715,39.0999079 C24.7832393,40.4648796 23.0886999,41.7040029 21.4430875,43 Z M10,24 L28,24 L28,22 L10,22 L10,24 Z M10,19 L28,19 L28,17 L10,17 L10,19 Z M10,12 L10,14 L28,14 L28,12 L10,12 Z" id="Combined-Shape" fill="#D74D42" fill-rule="nonzero"></path>
            <g id="menu" transform="translate(10.000000, 12.000000)"></g>
        </g>
    </g>
</svg>