<?xml version="1.0" encoding="UTF-8" standalone="no"?>
<svg width="48px" height="48px" viewBox="0 0 48 48" version="1.1" xmlns="http://www.w3.org/2000/svg" xmlns:xlink="http://www.w3.org/1999/xlink">
    <!-- Generator: Sketch 47 (45396) - http://www.bohemiancoding.com/sketch -->
    <title>menu_icon</title>
    <desc>Created with Sketch.</desc>
    <defs></defs>
    <g id="Page-1" stroke="none" stroke-width="1" fill="none" fill-rule="evenodd">
        <g id="menu_icon" fill-rule="nonzero" fill="#D74D42">
            <g transform="translate(3.000000, 6.000000)" id="Shape">
                <path d="M32.2,9.52 L10.92,9.52 C10.30176,9.52 9.8,10.02176 9.8,10.64 C9.8,11.25824 10.30176,11.76 10.92,11.76 L32.2,11.76 C32.81824,11.76 33.32,11.25824 33.32,10.64 C33.32,10.02176 32.81824,9.52 32.2,9.52 Z"></path>
                <path d="M32.2,17.92 L10.92,17.92 C10.30176,17.92 9.8,18.42176 9.8,19.04 C9.8,19.65824 10.30176,20.16 10.92,20.16 L32.2,20.16 C32.81824,20.16 33.32,19.65824 33.32,19.04 C33.32,18.42176 32.81824,17.92 32.2,17.92 Z"></path>
                <path d="M32.2,26.32 L10.92,26.32 C10.30176,26.32 9.8,26.82176 9.8,27.44 C9.8,28.05824 10.30176,28.56 10.92,28.56 L32.2,28.56 C32.81824,28.56 33.32,28.05824 33.32,27.44 C33.32,26.82176 32.81824,26.32 32.2,26.32 Z"></path>
                <path d="M42,5.6 C42,2.50712 39.49232,0 36.4,0 L5.6,0 C2.50712,0 0,2.50712 0,5.6 L0,31.92 C0,35.01232 2.50712,37.52 5.6,37.52 L36.4,37.52 C39.49232,37.52 42,35.01232 42,31.92 L42,5.6 Z M39.76,31.92 C39.76,33.77528 38.25528,35.28 36.4,35.28 L5.6,35.28 C3.74472,35.28 2.24,33.77528 2.24,31.92 L2.24,5.6 C2.24,3.74472 3.74472,2.24 5.6,2.24 L36.4,2.24 C38.25528,2.24 39.76,3.74472 39.76,5.6 L39.76,31.92 Z"></path>
            </g>
        </g>
    </g>
</svg>