<?xml version="1.0" encoding="UTF-8"?>
<svg width="30px" height="30px" viewBox="0 0 30 30" version="1.1" xmlns="http://www.w3.org/2000/svg" xmlns:xlink="http://www.w3.org/1999/xlink">
    <!-- Generator: Sketch 50.2 (55047) - http://www.bohemiancoding.com/sketch -->
    <title>Group 2</title>
    <desc>Created with Sketch.</desc>
    <defs></defs>
    <g id="Symbols" stroke="none" stroke-width="1" fill="none" fill-rule="evenodd">
        <g id="footer_novo" transform="translate(-247.000000, -10.000000)">
            <g id="Group-2" transform="translate(247.000000, 10.000000)">
                <path d="M10.4946112,25.9839675 C9.06565232,25.1783785 8.57566644,23.3952882 9.40064267,22 L14.5754936,24.9165121 C13.7505173,26.3118002 11.92357,26.788557 10.4946112,25.9839675 L10.4946112,25.9839675 Z" id="Path" fill="#A3D8DD"></path>
                <path d="M26.9392239,13.6123606 L22.9563386,20.3479243 L22.5563501,26.8566037 L3.58289677,16.1630593 L9.15673618,12.5708919 L13.1406214,5.83432873 C15.340558,2.11522613 20.2134176,0.83987678 24.0223079,2.98878046 C27.8331981,5.13568516 29.1391605,9.89225848 26.9392239,13.6123606 L26.9392239,13.6123606 Z M10.5796952,25.7201835 C9.15073636,24.9145944 8.66075047,23.1315041 9.48572671,21.736216 L14.6605776,24.652728 C13.8356014,26.0480162 12.008654,26.524773 10.5796952,25.7201835 L10.5796952,25.7201835 Z M25.0192792,1.30364018 C20.2564164,-1.3799907 14.1655919,0.212197007 11.4156711,4.86282437 L7.43278585,11.5983881 L0,16.3899435 L7.76177637,20.7647116 C6.38681599,23.0895256 7.20179251,26.0620091 9.58372388,27.4033248 C11.9656553,28.7466394 15.0105675,27.9500458 16.3855279,25.6252319 L24.1463043,30 L24.6812889,21.3194286 L28.6641742,14.5838649 C31.4140949,9.93423706 29.7821419,3.98927004 25.0192792,1.30364018 L25.0192792,1.30364018 Z" id="Fill-66" fill="#052B47"></path>
            </g>
        </g>
    </g>
</svg>