<?xml version="1.0" encoding="UTF-8"?>
<svg width="32px" height="32px" viewBox="0 0 32 32" version="1.1" xmlns="http://www.w3.org/2000/svg" xmlns:xlink="http://www.w3.org/1999/xlink">
    <!-- Generator: Sketch 50.2 (55047) - http://www.bohemiancoding.com/sketch -->
    <title>Group</title>
    <desc>Created with Sketch.</desc>
    <defs></defs>
    <g id="Symbols" stroke="none" stroke-width="1" fill="none" fill-rule="evenodd">
        <g id="footer_novo" transform="translate(-144.000000, -9.000000)">
            <g id="Group" transform="translate(145.000000, 10.000000)">
                <g id="gatinho">
                    <circle id="Oval-5" stroke="#052B47" stroke-width="1.5" cx="15" cy="15" r="15"></circle>
                    <path d="M15.7734477,9.19983931 C16.0432243,9.19983931 16.3087063,9.21760318 16.5702842,9.24883636 C16.7389434,10.2391234 16.4512077,11.1917354 15.7463139,11.9384036 C15.722889,11.9106841 15.6994641,11.8835503 15.6764296,11.8568069 C15.5589148,11.7209426 15.448037,11.5924961 15.3541423,11.429498 C14.8940385,10.6328567 14.7634447,9.86901019 14.75427,9.28124078 C15.0911979,9.22931562 15.4316396,9.19983931 15.7734477,9.19983931 Z M24.5829855,15.9668935 C24.1635101,15.4862762 23.6543094,15.1101491 23.0877527,14.8510057 C23.0211212,14.8207187 22.9026232,13.7780877 22.8611678,13.6268419 C22.7398304,13.1842727 22.5772269,12.7534397 22.3775218,12.3404003 C22.298397,12.1768503 21.1389716,10.6423868 21.0484891,10.4848943 C21.6671017,8.9862542 22.6622199,8.27360944 22.4504,7.10112281 L22.8611678,6.34186484 L21.9658075,6.34186484 C21.7874927,6.39221703 21.2241539,6.55993146 21.0484891,6.62315563 C20.512598,6.81566756 19.9810606,6.78992359 19.4684527,7.10112281 C19.1803473,7.27603041 18.9026531,7.46362069 18.6429418,7.65878274 C18.3985634,7.84239786 18.0510197,8.15454355 17.8452572,8.3434589 C17.0869457,8.08866926 16.2883146,7.95105257 15.4773794,7.95105257 C14.6259353,7.95105257 13.8076176,8.09302302 13.0419236,8.35084136 L12.9665846,8.26755203 C12.7382962,8.05573212 12.4929712,7.85091608 12.2372351,7.65878274 C11.9771452,7.4634314 11.6992618,7.27565182 11.4117243,7.10112281 C10.8993056,6.78992359 10.3675789,6.53437677 9.8318771,6.34186484 C9.65602303,6.27864067 9.47638309,6.22128461 9.29787891,6.17093242 L8.68835245,6 L8.57572255,6.62315563 C8.36163112,7.80889283 8.13409981,10.4194455 8.77883495,11.9103245 C8.26111604,12.8460044 7.93515188,13.9013181 7.85091608,15.0230739 C7.71689598,15.0895161 7.58344375,15.160312 7.45283094,15.237544 C7.145039,15.4202126 6.86090881,15.6286252 6.60801211,15.8580495 C6.52491208,15.933767 6.44389427,16.012324 6.36779811,16.0918275 L6,16.4755263 L6,16.6051926 L6.42647923,16.9419465 C6.89460313,17.3116376 7.42273321,17.5774063 7.98266466,17.7352774 C7.7630837,18.0180826 7.57530412,18.3164098 7.42462614,18.6215516 C7.37503113,18.7216881 7.32865412,18.824664 7.28644157,18.9276399 L7.04584898,19.5144511 L7.65291463,19.6974983 C8.07598657,19.8248931 8.5089018,19.8888745 8.94011338,19.8888745 C9.0080699,19.8888745 9.07583713,19.8839529 9.14360436,19.8809242 C10.5203391,21.9124266 12.8437329,23.2522491 15.4773794,23.2522491 C18.2122981,23.2522491 20.613681,21.808315 21.9658075,19.6439281 C22.1286003,19.6585038 22.2904466,19.667022 22.4504,19.667022 C22.6211431,19.667022 22.789804,19.6586931 22.9550576,19.6420352 C23.0680661,19.6306776 23.1803174,19.6153448 23.2891614,19.5964154 L23.9128849,19.4877607 L23.7459277,18.8770984 C23.6100146,18.3802018 23.3910016,17.9194604 23.1034641,17.5071782 C23.1558985,17.4895739 23.2083329,17.4731053 23.2609566,17.4539866 C23.5975212,17.3309456 23.9147779,17.1779961 24.2047762,16.9996812 C24.299991,16.9410001 24.3940701,16.8785331 24.4845526,16.8137945 L25,16.4444821 L24.5829855,15.9668935 Z" id="Fill-6" fill="#A3D8DD"></path>
                    <path d="M13.2989385,13.6358201 C13.2989385,13.1039018 12.8556732,12.6606365 12.3237549,12.6606365 C11.7918365,12.6606365 11.3485712,13.1039018 11.3485712,13.6358201 C11.3485712,14.1677385 11.7918365,14.6110038 12.3237549,14.6110038 C12.8734038,14.6110038 13.2989385,14.1677385 13.2989385,13.6358201 Z M12.0046039,13.5117059 C11.9868733,13.5117059 11.9691426,13.5117059 11.9691426,13.5117059 C11.8272977,13.4939752 11.7386447,13.3875916 11.7386447,13.2457467 C11.7563753,13.1216324 11.8450284,13.0329793 11.9691426,13.0152487 C12.1109875,12.9975181 12.2173712,13.1039018 12.2351018,13.2457467 C12.2528324,13.3875916 12.1464488,13.4939752 12.0046039,13.5117059 Z" id="Shape" fill="#052B47" fill-rule="nonzero"></path>
                    <path d="M18.4585465,12.6606365 C17.9266282,12.6606365 17.4833629,13.1039018 17.4833629,13.6358201 C17.4833629,14.1677385 17.9266282,14.6110038 18.4585465,14.6110038 C18.9904649,14.6110038 19.4337302,14.1677385 19.4337302,13.6358201 C19.4337302,13.0861712 18.9904649,12.6606365 18.4585465,12.6606365 Z M18.1216649,13.5117059 C18.1039343,13.5117059 18.0862037,13.5117059 18.0862037,13.5117059 C17.9443588,13.4939752 17.8557057,13.3875916 17.8557057,13.2457467 C17.8734363,13.1216324 17.9620894,13.0329793 18.0862037,13.0152487 C18.2280486,12.9975181 18.3344322,13.1039018 18.3521628,13.2457467 C18.3698935,13.3875916 18.2635098,13.4939752 18.1216649,13.5117059 Z" id="Shape" fill="#052B47" fill-rule="nonzero"></path>
                    <path d="M17.2528649,19.256424 C16.7741384,19.4691914 16.2067588,19.3450771 15.9939915,18.84862 C15.923069,18.6713139 15.8698772,18.4940077 15.834416,18.3167016 C15.8166854,18.2635098 15.7634935,17.8911669 15.7812242,18.0862037 C15.7812242,18.0684731 15.7634935,18.0507424 15.7634935,18.0152812 C15.7989548,17.9975506 15.834416,17.9620894 15.8521466,17.9443588 L16.2954119,17.5010935 C16.4195262,17.3769792 16.4904486,17.1996731 16.4904486,17.022367 C16.4904486,16.6500241 16.1890282,16.3486037 15.8166854,16.3486037 L14.9478854,16.3486037 C14.7705793,16.3486037 14.5932732,16.4195262 14.4691589,16.5436405 C14.2031997,16.8095996 14.2031997,17.2351343 14.4691589,17.4833629 L14.9124242,17.9266282 C14.9124242,17.9266282 14.9301548,17.9443588 14.9301548,17.9443588 C14.9124242,17.97982 14.8946936,18.0152812 14.8946936,18.0684731 C14.9301548,17.8734363 14.8592323,18.2457792 14.8415017,18.298971 C14.8060405,18.4762771 14.7528487,18.6535832 14.6819262,18.8308894 C14.4691589,19.3273465 13.9017793,19.4514608 13.4230528,19.2386934 C12.9443263,19.0259261 12.5542528,19.7174199 13.0152487,19.9301873 C13.7244732,20.2493383 14.6996568,20.2138771 15.1783834,19.5401138 C15.2315752,19.4691914 15.2670364,19.3982689 15.3024976,19.3273465 C15.3379589,19.3982689 15.3911507,19.4691914 15.4443425,19.5401138 C15.9407997,20.2138771 16.9159833,20.2493383 17.6252078,19.9301873 C18.1216649,19.7351506 17.7138608,19.0436567 17.2528649,19.256424 Z M15.7280323,17.0932894 L15.3911507,17.430171 L15.0542691,17.0932894 L15.7280323,17.0932894 Z" id="Shape" fill="#052B47" fill-rule="nonzero"></path>
                    <path d="M25.2316402,15.8876078 C24.7883749,15.3734201 24.2387259,14.965616 23.6358851,14.6996568 C23.4940402,13.1925548 22.9621219,11.8095671 22.1287831,10.6393468 C22.2174362,10.4797713 22.2883586,10.3201958 22.3770117,10.1428896 C22.5188566,9.82373863 22.6607015,9.48685701 22.7670852,9.14997538 C22.9798525,8.54713459 23.1216974,7.94429379 23.2103504,7.30599177 C23.2280811,7.11095504 23.2458117,6.8981877 23.2635423,6.70315097 L23.2990035,6.02938773 L22.6075097,6.06484895 C21.0117546,6.11804079 19.486922,6.64995914 18.210318,7.58968156 L18.0862037,7.64287339 C17.2351343,7.3591836 16.3131425,7.1996081 15.3734201,7.1996081 C14.4691589,7.1996081 13.5826283,7.3591836 12.7670202,7.64287339 L12.7138283,7.58968156 C12.4655998,7.3591836 12.1996406,7.14641626 11.9336814,6.93364892 C11.6499916,6.72088158 11.3485712,6.52584485 11.0471508,6.33080813 C10.5152325,5.9939265 9.9301223,5.72796733 9.34501211,5.51519999 C9.14997538,5.44427754 8.95493865,5.39108571 8.77763254,5.33789387 L8.12159991,5.16058775 L7.99748562,5.834351 C7.76698767,7.11095504 7.51875911,9.89466107 8.21025296,11.5081467 C7.660604,12.5187916 7.30599177,13.6712814 7.21733871,14.8946936 C7.07549382,14.965616 6.93364892,15.0365385 6.79180403,15.1251915 C6.47265302,15.3202282 6.15350201,15.5329956 5.88754283,15.7989548 C5.79888978,15.8698772 5.71023672,15.9585303 5.62158366,16.0471833 L5.14285714,16.5081792 L5.67477549,16.9337139 C6.17123262,17.3237874 6.75634281,17.6252078 7.3591836,17.7847833 C7.3591836,17.7847833 7.3591836,17.7847833 7.3591836,17.7847833 C7.12868565,18.0862037 6.93364892,18.4053547 6.75634281,18.7422363 C6.70315097,18.84862 6.64995914,18.9550036 6.61449791,19.0791179 L6.34853874,19.7174199 L7.00457137,19.9124567 C7.44783666,20.0543016 7.92656318,20.125224 8.38755908,20.125224 C8.45848153,20.125224 8.52940397,20.125224 8.60032642,20.125224 C10.9584978,23.6358851 15.6571099,24.8061055 19.4159995,22.7316239 C20.6394118,22.0578607 21.6855178,21.0649464 22.4124729,19.8769955 C22.589779,19.8947261 22.7670852,19.8947261 22.9266607,19.8947261 C23.1039668,19.8947261 23.2990035,19.8769955 23.4763096,19.8592648 C23.6004239,19.8415342 23.7068076,19.8238036 23.8309219,19.806073 L24.5046851,19.6819587 L24.327379,19.0259261 C24.1855341,18.4940077 23.9550361,17.9975506 23.6358851,17.5542853 C23.689077,17.5365547 23.7422688,17.5188241 23.7954606,17.5010935 C24.1500729,17.3769792 24.4869545,17.1996731 24.8061055,17.0046364 C24.9124892,16.9337139 25.0188728,16.8805221 25.1075259,16.8095996 L25.6571749,16.4195262 L25.2316402,15.8876078 Z M21.9692076,7.3591836 C21.8982852,7.83791012 21.7741709,8.29890602 21.6145954,8.74217131 C21.5082117,9.04359171 21.4018281,9.34501211 21.2599832,9.61097129 C20.7280648,9.07905294 20.125224,8.61805703 19.4514608,8.24571419 C20.2138771,7.78471828 21.0649464,7.46556727 21.9692076,7.3591836 Z M9.09678355,6.73861219 C9.54004884,6.91591831 9.98331413,7.12868565 10.3911182,7.37691422 C10.6570774,7.53648972 10.9584978,7.73152645 11.1889957,7.90883257 C11.31311,7.99748562 11.4194937,8.08613868 11.5258773,8.17479174 C10.6038855,8.67124887 9.77054679,9.34501211 9.09678355,10.1428896 C8.93720804,9.167706 8.97266927,7.87337134 9.09678355,6.73861219 Z M7.41237544,16.153567 C7.55422033,16.0649139 7.71379584,15.9762609 7.87337134,15.9053384 C7.97975501,15.8521466 8.08613868,15.8166854 8.19252235,15.7812242 L8.29890602,16.6854853 C7.89110195,16.6500241 7.48329789,16.5436405 7.11095504,16.3486037 C7.1996081,16.2954119 7.30599177,16.2244894 7.41237544,16.153567 Z M22.4833954,18.6003914 C22.3060893,18.5826608 22.1287831,18.5649302 21.9692076,18.529469 C21.8096321,18.4940077 21.6500566,18.4585465 21.5082117,18.4053547 L21.1713301,19.486922 C19.0968485,22.4656648 15.0542691,23.3876566 11.8804896,21.5082117 C11.0294202,20.994024 10.2847345,20.3202607 9.71735496,19.5046526 L9.45139578,18.6890445 C9.0258611,18.8308894 8.5648652,18.8840812 8.10386929,18.84862 C8.17479174,18.7422363 8.24571419,18.6358526 8.31663663,18.529469 C8.4230203,18.3876241 8.52940397,18.2635098 8.65351826,18.1393955 C8.75990193,18.0152812 8.88401621,17.9088976 9.00813049,17.8025139 L8.70671009,17.4479017 C7.62514278,13.8131263 9.64643251,9.96558352 13.2634773,8.79536315 C16.9514445,7.60741217 20.8876403,9.6287019 22.0755913,13.2989385 C22.501126,14.6110038 22.5188566,16.0294527 22.1465137,17.3592486 L21.9869382,17.5365547 C22.0046689,17.5542853 22.0401301,17.5897465 22.0578607,17.6074772 C22.0578607,17.6252078 22.0401301,17.6429384 22.0401301,17.660669 L22.0578607,17.6252078 C22.3770117,17.9088976 22.6252403,18.2280486 22.820277,18.6003914 C22.7316239,18.6358526 22.6075097,18.618122 22.4833954,18.6003914 Z M23.4053872,16.3131425 C23.2458117,16.3663343 23.0685056,16.4195262 22.9089301,16.472718 C22.8025464,16.5081792 22.6784321,16.5259098 22.5720484,16.5436405 L22.6429709,15.6393793 C23.0507749,15.7457629 23.4231178,15.923069 23.7599994,16.1712976 C23.6358851,16.2244894 23.5295015,16.2776813 23.4053872,16.3131425 Z" id="Shape" fill="#052B47" fill-rule="nonzero"></path>
                </g>
            </g>
        </g>
    </g>
</svg>