<?xml version="1.0" encoding="UTF-8" standalone="no"?>
<svg width="24px" height="24px" viewBox="0 0 24 24" version="1.1" xmlns="http://www.w3.org/2000/svg" xmlns:xlink="http://www.w3.org/1999/xlink">
    <!-- Generator: Sketch 47 (45396) - http://www.bohemiancoding.com/sketch -->
    <title>notification_off_icon</title>
    <desc>Created with Sketch.</desc>
    <defs></defs>
    <g id="Page-1" stroke="none" stroke-width="1" fill="none" fill-rule="evenodd">
        <g id="notification_off_icon" fill-rule="nonzero" fill="#8F8F8E">
            <g transform="translate(1.000000, 2.000000)" id="Shape">
                <path d="M6.16,1.36230769 L4.62,0 C1.98,1.75153846 0.22,4.47615385 0,7.59 L2.2,7.59 C2.42,4.96269231 3.85,2.72461538 6.16,1.36230769 Z M19.76,7.59 L22,7.59 C21.776,4.47615385 20.096,1.75153846 17.408,0 L15.84,1.36230769 C18.08,2.72461538 19.536,4.96269231 19.76,7.59 Z M17.2894118,8.43333333 C17.2894118,5.35764706 15.1152941,2.8772549 12.1129412,2.1827451 L12.1129412,1.48823529 C12.1129412,0.694509804 11.3882353,0 10.56,0 C9.73176471,0 9.00705882,0.694509804 9.00705882,1.48823529 L9.00705882,2.1827451 C6.00470588,2.8772549 3.83058824,5.35764706 3.83058824,8.43333333 L3.83058824,13.8901961 L1.76,15.8745098 L1.76,16.8666667 L19.36,16.8666667 L19.36,15.8745098 L17.2894118,13.8901961 L17.2894118,8.43333333 Z M11,20.24 C11.11,20.24 11.33,20.24 11.44,20.24 C12.21,20.1556667 12.76,19.734 12.98,19.228 C13.09,19.0593003 13.2,18.8063333 13.2,18.5533333 L8.8,18.5533333 C8.8,19.481 9.79,20.24 11,20.24 Z"></path>
            </g>
        </g>
    </g>
</svg>