<?xml version="1.0" encoding="UTF-8" standalone="no"?>
<!-- Generator: Adobe Illustrator 22.0.1, SVG Export Plug-In . SVG Version: 6.00 Build 0)  -->

<svg
   xmlns:dc="http://purl.org/dc/elements/1.1/"
   xmlns:cc="http://creativecommons.org/ns#"
   xmlns:rdf="http://www.w3.org/1999/02/22-rdf-syntax-ns#"
   xmlns:svg="http://www.w3.org/2000/svg"
   xmlns="http://www.w3.org/2000/svg"
   xmlns:sodipodi="http://sodipodi.sourceforge.net/DTD/sodipodi-0.dtd"
   xmlns:inkscape="http://www.inkscape.org/namespaces/inkscape"
   version="1.1"
   id="Layer_1"
   x="0px"
   y="0px"
   viewBox="0 0 103.87712 103.87712"
   xml:space="preserve"
   sodipodi:docname="profile.svg"
   inkscape:version="0.92.2 2405546, 2018-03-11"
   width="103.87712"
   height="103.87712"><metadata
   id="metadata21"><rdf:RDF><cc:Work
       rdf:about=""><dc:format>image/svg+xml</dc:format><dc:type
         rdf:resource="http://purl.org/dc/dcmitype/StillImage" /><dc:title>Asset 3</dc:title></cc:Work></rdf:RDF></metadata><defs
   id="defs19" /><sodipodi:namedview
   pagecolor="#ffffff"
   bordercolor="#666666"
   borderopacity="1"
   objecttolerance="10"
   gridtolerance="10"
   guidetolerance="10"
   inkscape:pageopacity="0"
   inkscape:pageshadow="2"
   inkscape:window-width="1920"
   inkscape:window-height="968"
   id="namedview17"
   showgrid="false"
   inkscape:zoom="2.2497616"
   inkscape:cx="52.827542"
   inkscape:cy="50.669091"
   inkscape:window-x="0"
   inkscape:window-y="34"
   inkscape:window-maximized="1"
   inkscape:current-layer="Layer_1"
   fit-margin-top="0"
   fit-margin-left="0"
   fit-margin-right="0"
   fit-margin-bottom="0" />
<style
   type="text/css"
   id="style2">
	.st0{fill:#042049;}
</style>
<title
   id="title4">Asset 3</title>
<g
   id="g14"
   transform="matrix(0.66211997,0,0,0.66211997,13.634919,17.147767)">
	<path
   class="st0"
   d="m 46,47.9 c 0,-3 -2.5,-5.5 -5.5,-5.5 -3,0 -5.5,2.5 -5.5,5.5 0,3 2.5,5.5 5.5,5.5 3.1,0 5.5,-2.5 5.5,-5.5 z m -7.3,-0.7 c -0.1,0 -0.2,0 -0.2,0 -0.8,-0.1 -1.3,-0.7 -1.3,-1.5 0.1,-0.7 0.6,-1.2 1.3,-1.3 0.8,-0.1 1.4,0.5 1.5,1.3 0.1,0.8 -0.5,1.4 -1.3,1.5 z"
   id="path6"
   inkscape:connector-curvature="0"
   style="fill:#042049" />
	<path
   class="st0"
   d="m 75.1,42.4 c -3,0 -5.5,2.5 -5.5,5.5 0,3 2.5,5.5 5.5,5.5 3,0 5.5,-2.5 5.5,-5.5 0,-3.1 -2.5,-5.5 -5.5,-5.5 z m -1.9,4.8 c -0.1,0 -0.2,0 -0.2,0 -0.8,-0.1 -1.3,-0.7 -1.3,-1.5 0.1,-0.7 0.6,-1.2 1.3,-1.3 0.8,-0.1 1.4,0.5 1.5,1.3 0.1,0.8 -0.5,1.4 -1.3,1.5 z"
   id="path8"
   inkscape:connector-curvature="0"
   style="fill:#042049" />
	<path
   class="st0"
   d="m 68.3,79.6 v 0 c -2.7,1.2 -5.9,0.5 -7.1,-2.3 -0.4,-1 -0.7,-2 -0.9,-3 C 60.2,74 59.9,71.9 60,73 c 0,-0.1 -0.1,-0.2 -0.1,-0.4 0.2,-0.1 0.4,-0.3 0.5,-0.4 l 2.5,-2.5 C 63.6,69 64,68 64,67 64,64.9 62.3,63.2 60.2,63.2 h -4.9 c -1,0 -2,0.4 -2.7,1.1 -1.5,1.5 -1.5,3.9 0,5.3 l 2.5,2.5 c 0,0 0.1,0.1 0.1,0.1 -0.1,0.2 -0.2,0.4 -0.2,0.7 0.2,-1.1 -0.2,1 -0.3,1.3 -0.2,1 -0.5,2 -0.9,3 -1.2,2.8 -4.4,3.5 -7.1,2.3 -2.7,-1.2 -4.9,2.7 -2.3,3.9 v 0 c 4,1.8 9.5,1.6 12.2,-2.2 0.3,-0.4 0.5,-0.8 0.7,-1.2 0.2,0.4 0.5,0.8 0.8,1.2 2.8,3.8 8.3,4 12.3,2.2 2.8,-1.1 0.5,-5 -2.1,-3.8 z m -8.6,-12.2 -1.9,1.9 -1.9,-1.9 z"
   id="path10"
   inkscape:connector-curvature="0"
   style="fill:#042049" />
	<path
   class="st0"
   d="m 113.3,60.6 c -2.5,-2.9 -5.6,-5.2 -9,-6.7 -0.8,-8.5 -3.8,-16.3 -8.5,-22.9 0.5,-0.9 0.9,-1.8 1.4,-2.8 0.8,-1.8 1.6,-3.7 2.2,-5.6 1.2,-3.4 2,-6.8 2.5,-10.4 0.1,-1.1 0.2,-2.3 0.3,-3.4 L 102.4,5 98.5,5.2 c -9,0.3 -17.6,3.3 -24.8,8.6 L 73,14.1 C 68.2,12.5 63,11.6 57.7,11.6 52.6,11.6 47.6,12.5 43,14.1 v 0 L 42.7,13.8 C 41.3,12.5 39.8,11.3 38.3,10.1 36.7,8.9 35,7.8 33.3,6.7 30.3,4.8 27,3.3 23.7,2.1 22.6,1.7 21.5,1.4 20.5,1.1 l -3.7,-1 -0.7,3.8 c -1.3,7.2 -2.7,22.9 1.2,32 -3.1,5.7 -5.1,12.2 -5.6,19.1 -0.8,0.4 -1.6,0.8 -2.4,1.3 -1.8,1.1 -3.6,2.3 -5.1,3.8 -0.5,0.4 -1,0.9 -1.5,1.4 L 0,64.1 3,66.5 c 2.8,2.2 6.1,3.9 9.5,4.8 0,0 0,0 0,0 -1.3,1.7 -2.4,3.5 -3.4,5.4 -0.3,0.6 -0.6,1.2 -0.8,1.9 l -1.5,3.6 3.7,1.1 c 2.5,0.8 5.2,1.2 7.8,1.2 0.4,0 0.8,0 1.2,0 13.3,19.8 39.8,26.4 61,14.7 6.9,-3.8 12.8,-9.4 16.9,-16.1 1,0.1 2,0.1 2.9,0.1 1,0 2.1,-0.1 3.1,-0.2 0.7,-0.1 1.3,-0.2 2,-0.3 l 3.8,-0.7 -1,-3.7 c -0.8,-3 -2.1,-5.8 -3.9,-8.3 0.3,-0.1 0.6,-0.2 0.9,-0.3 2,-0.7 3.9,-1.7 5.7,-2.8 0.6,-0.4 1.2,-0.7 1.7,-1.1 l 3.1,-2.2 z M 94.9,12.5 c -0.4,2.7 -1.1,5.3 -2,7.8 -0.6,1.7 -1.2,3.4 -2,4.9 -3,-3 -6.4,-5.6 -10.2,-7.7 4.3,-2.6 9.1,-4.4 14.2,-5 z M 22.3,9 c 2.5,1 5,2.2 7.3,3.6 1.5,0.9 3.2,2 4.5,3 0.7,0.5 1.3,1 1.9,1.5 -5.2,2.8 -9.9,6.6 -13.7,11.1 -0.9,-5.5 -0.7,-12.8 0,-19.2 z m -9.5,53.1 c 0.8,-0.5 1.7,-1 2.6,-1.4 0.6,-0.3 1.2,-0.5 1.8,-0.7 l 0.6,5.1 c -2.3,-0.2 -4.6,-0.8 -6.7,-1.9 0.5,-0.3 1.1,-0.7 1.7,-1.1 z m 85,13.8 c -1,-0.1 -2,-0.2 -2.9,-0.4 -0.9,-0.2 -1.8,-0.4 -2.6,-0.7 l -1.9,6.1 C 78.7,97.7 55.9,102.9 38,92.3 33.2,89.4 29,85.6 25.8,81 l -1.5,-4.6 c -2.4,0.8 -5,1.1 -7.6,0.9 0.4,-0.6 0.8,-1.2 1.2,-1.8 0.6,-0.8 1.2,-1.5 1.9,-2.2 0.6,-0.7 1.3,-1.3 2,-1.9 l -1.7,-2 C 14,48.9 25.4,27.2 45.8,20.6 c 20.8,-6.7 43,4.7 49.7,25.4 2.4,7.4 2.5,15.4 0.4,22.9 l -0.9,1 c 0.1,0.1 0.3,0.3 0.4,0.4 0,0.1 -0.1,0.2 -0.1,0.3 l 0.1,-0.2 c 1.8,1.6 3.2,3.4 4.3,5.5 -0.5,0.2 -1.2,0.1 -1.9,0 z m -78.2,-7 c 0,0 0,0 0,0 z m 77.8,-1.4 v 0 0 c 0,0 0,0 0,0 z M 103,63 c -0.9,0.3 -1.9,0.6 -2.8,0.9 -0.6,0.2 -1.3,0.3 -1.9,0.4 l 0.4,-5.1 c 2.3,0.6 4.4,1.6 6.3,3 -0.7,0.3 -1.3,0.6 -2,0.8 z"
   id="path12"
   inkscape:connector-curvature="0"
   style="fill:#042049" />
</g>
<circle
   style="opacity:1;fill:none;fill-opacity:1;stroke:#042049;stroke-width:4.53955603;stroke-linecap:round;stroke-linejoin:round;stroke-miterlimit:4;stroke-dasharray:none;stroke-opacity:1"
   id="path23"
   cx="51.93856"
   cy="51.93856"
   r="49.668781" /></svg>