<?xml version="1.0" encoding="UTF-8" standalone="no"?>
<svg width="24px" height="24px" viewBox="0 0 24 24" version="1.1" xmlns="http://www.w3.org/2000/svg" xmlns:xlink="http://www.w3.org/1999/xlink">
    <!-- Generator: Sketch 47 (45396) - http://www.bohemiancoding.com/sketch -->
    <title>sair_icon</title>
    <desc>Created with Sketch.</desc>
    <defs></defs>
    <g id="Page-1" stroke="none" stroke-width="1" fill="none" fill-rule="evenodd">
        <g id="sair_icon" fill="#FFFFFF">
            <path d="M11.8194444,17.8888889 L18.2083333,11.5 L11.8194444,5.11111111 L10.0305556,6.9 L13.3527778,10.2222222 L0.958333333,10.2222222 L0.958333333,12.7777778 L13.3527778,12.7777778 L10.0305556,16.1 L11.8194444,17.8888889 Z M2.55555556,0 C1.15,0 0,1.15 0,2.55555556 L0,7.66666667 L2.55555556,7.66666667 L2.55555556,2.55555556 L20.4444444,2.55555556 L20.4444444,20.4444444 L2.55555556,20.4444444 L2.55555556,15.3333333 L0,15.3333333 L0,20.4444444 C0,21.85 1.15,23 2.55555556,23 L20.4444444,23 C21.85,23 23,21.85 23,20.4444444 L23,2.55555556 C23,1.15 21.85,0 20.4444444,0 L2.55555556,0 Z"></path>
        </g>
    </g>
</svg>