<?xml version="1.0" encoding="UTF-8"?>
<svg width="14px" height="14px" viewBox="0 0 14 14" version="1.1" xmlns="http://www.w3.org/2000/svg" xmlns:xlink="http://www.w3.org/1999/xlink">
    <!-- Generator: sketchtool 51.2 (57519) - http://www.bohemiancoding.com/sketch -->
    <title>1712D332-2AAD-404A-87FD-35C31335CE8B</title>
    <desc>Created with sketchtool.</desc>
    <defs></defs>
    <g id="Page-1" stroke="none" stroke-width="1" fill="none" fill-rule="evenodd">
        <g id="CPA_lightbox-NOVO-ESTERIOTIPO" transform="translate(-41.000000, -226.000000)" fill="#30BEC0">
            <path d="M48,237.375 C47.489,237.375 46.9955,237.3155 46.52125,237.214438 L44.4615,238.452562 L44.4890625,236.423 C42.910125,235.473625 41.875,233.903875 41.875,232.125 C41.875,229.225688 44.61725,226.875 48,226.875 C51.38275,226.875 54.125,229.225688 54.125,232.125 C54.125,235.02475 51.38275,237.375 48,237.375 L48,237.375 Z M48,226 C44.13425,226 41,228.742687 41,232.125 C41,234.058312 42.0259375,235.779875 43.625,236.902062 L43.625,240 L46.6914375,238.139313 C47.1158125,238.209312 47.5524375,238.25 48,238.25 C51.86575,238.25 55,235.50775 55,232.125 C55,228.742687 51.86575,226 48,226 L48,226 Z" id="icon_comentarios-copy-3"></path>
        </g>
    </g>
</svg>