<?xml version="1.0" encoding="utf-8"?>
<!-- Generator: Adobe Illustrator 22.0.1, SVG Export Plug-In . SVG Version: 6.00 Build 0)  -->
<svg version="1.1" id="Layer_1" xmlns="http://www.w3.org/2000/svg" xmlns:xlink="http://www.w3.org/1999/xlink" x="0px" y="0px"
	 viewBox="0 0 52.1 51.3" style="enable-background:new 0 0 52.1 51.3;" xml:space="preserve">
<style type="text/css">
	.st0{fill:#FFFFFF;}
</style>
<title>Asset 3</title>
<path class="st0" d="M52,27.8c0-0.2,0-0.4,0-0.7c0-0.5,0-1,0-1.5c0-0.3,0-0.6,0-0.9c0-0.8-0.1-1.7-0.3-2.6l-0.1-0.5
	c-0.1-0.5-0.2-1-0.3-1.5l-0.1-0.4c-0.1-0.5-0.3-1.1-0.5-1.7v-0.2c-0.3-0.9-0.7-1.8-1.1-2.7c-0.3-0.6-0.6-1.3-0.9-1.9
	c-0.2-0.3-0.3-0.6-0.5-0.9c-0.3-0.6-0.7-1.1-1-1.6c-0.2-0.3-0.4-0.5-0.5-0.8c-0.5-0.7-1-1.4-1.6-2c-0.3-0.3-0.6-0.6-0.9-0.9
	s-0.6-0.6-0.9-0.9L42,5c-0.3-0.3-0.7-0.6-1.2-0.9L40.7,4c-0.3-0.2-0.7-0.4-1-0.6l-0.4-0.3c-0.3-0.2-0.5-0.3-0.8-0.5l-0.7-0.3
	c-2.2-1.1-4.5-1.8-6.9-2.1L29.2,0c-2.5-0.3-5-0.1-7.4,0.6c-2,0.5-3.9,1.1-5.7,2l-3,1.6C10.4,5.9,8,8,5.9,10.4l-0.1,0.1
	c-0.3,0.3-0.6,0.7-0.8,1l-0.2,0.3c-0.2,0.2-0.4,0.5-0.5,0.8S4,12.9,3.9,13l-0.4,0.6c-0.2,0.4-0.4,0.7-0.6,1.1L2.8,15
	c-0.1,0.3-0.3,0.5-0.4,0.8C-1,23-0.7,31.3,3,38.3c2.1,3.9,5.2,7.3,8.9,9.6l0.3,0.2l0,0l0.1,0.1l0.9,0.5l0.3,0.1l1,0.5l0.4,0.2l1,0.4
	l0.4,0.2c0.5,0.2,0.9,0.3,1.4,0.5c0.9,0.2,1.8,0.4,2.7,0.6c0.5,0.1,0.9,0.1,1.4,0.2s0.9,0.1,1.4,0.1c3.4,0.1,6.8-0.5,10.1-1.7
	l0.9-0.4c1.3-0.5,2.5-1.1,3.7-1.7l0.8-0.4l0.4-0.2l0.4,0.2c0.3,0.2,0.7,0.4,1,0.6c1,0.5,2,0.9,3,1.2h0.1l0.8,0.2l1.5,0.3l0.2-1.6
	c0.1-0.8,0.1-1.5,0.1-2.3c0-0.2,0-0.4,0-0.5c0-0.4-0.1-0.7-0.1-1.1c-0.1-0.7-0.3-1.3-0.5-2l-0.1-0.2l0.2-0.2
	c0.2-0.3,0.5-0.5,0.7-0.8s0.4-0.5,0.6-0.7s0.4-0.5,0.6-0.7C50.2,35.9,51.7,31.9,52,27.8z M45,37.9c-0.5,0.7-1.1,1.4-1.7,2L43,40.2
	l-0.3,0.3l-0.2,0.2L42.2,41l0.2,0.4c0.1,0.2,0.2,0.4,0.3,0.6v0.1c0.1,0.2,0.2,0.5,0.3,0.7V43c0.1,0.2,0.2,0.5,0.2,0.8
	s0.1,0.6,0.2,0.9v0.1v0.3v0.6L43,45.5l-0.3-0.2L42,45c-0.3-0.2-0.6-0.3-0.9-0.5l-0.4-0.2c-0.2-0.1-0.5-0.3-0.7-0.5l-0.7-0.5L39,43.5
	l-0.4,0.3l-0.5,0.3c-0.3,0.2-0.6,0.4-0.9,0.5l-0.4,0.2c-2.2,1.2-4.6,2.1-7,2.8c-0.4,0.1-0.8,0.2-1.1,0.3c-1.5,0.3-3,0.5-4.6,0.5
	c-1.1,0-2.2-0.1-3.2-0.3c-0.7-0.1-1.4-0.3-2.1-0.5c-0.4-0.1-0.7-0.2-1.1-0.3h-0.1c-0.3-0.1-0.6-0.2-1-0.4c-0.7-0.3-1.4-0.6-2-1
	c-4.7-2.7-8.4-7-10.2-12.1c-2.9-7.4-1.7-15.2,3-20.8l0.4-0.5l0.4-0.4l0.3-0.3l0.6-0.7L9.2,11c1.5-1.5,3.1-2.8,4.9-3.9l3.2-1.8
	C24,2.2,31,2.2,37,5.2l1,0.5c0.3,0.2,0.5,0.3,0.8,0.5c0.7,0.5,1.4,1,2.1,1.5c0.4,0.3,0.8,0.7,1.2,1.1c0.5,0.5,1.1,1.1,1.5,1.6
	s0.6,0.8,0.9,1.2c0.4,0.6,0.8,1.1,1.2,1.7c0.5,0.8,0.9,1.5,1.3,2.3C50.4,22.8,49.7,31.3,45,37.9L45,37.9z"/>
<path class="st0" d="M36.2,19.7h-22c-1.1,0-2-0.9-2-2s0.9-2,2-2h22c1.1,0,2,0.9,2,2S37.3,19.7,36.2,19.7z"/>
<path class="st0" d="M34.2,27.7h-18c-1.1,0-2-0.9-2-2s0.9-2,2-2h18c1.1,0,2,0.9,2,2S35.3,27.7,34.2,27.7z"/>
<path class="st0" d="M32.7,35.7h-15c-1.1,0-2-0.9-2-2s0.9-2,2-2h15c1.1,0,2,0.9,2,2S33.8,35.7,32.7,35.7z"/>
</svg>
