<?xml version="1.0" encoding="UTF-8" standalone="no"?>
<svg width="24px" height="24px" viewBox="0 0 24 24" version="1.1" xmlns="http://www.w3.org/2000/svg" xmlns:xlink="http://www.w3.org/1999/xlink">
    <!-- Generator: Sketch 47.1 (45422) - http://www.bohemiancoding.com/sketch -->
    <title>termos_de_uso_icon</title>
    <desc>Created with Sketch.</desc>
    <defs></defs>
    <g id="Page-1" stroke="none" stroke-width="1" fill="none" fill-rule="evenodd">
        <g id="termos_de_uso_icon" fill-rule="nonzero" fill="#FFFFFF">
            <path d="M12,0 C18.6276104,0 24,5.37267089 24,12 C24,18.6273291 18.6278354,24 12,24 C5.3728959,24 0,18.6273291 0,12 C0,5.37267089 5.3728959,0 12,0 Z M7.8,9 C7.1376,9 6.6008,8.4616 6.6008,7.8 C6.6008,7.1376 7.1376,6.6 7.8,6.6 C8.4624,6.6 9,7.1376 9,7.8 C9,8.4616 8.4624,9 7.8,9 Z M12.1992,5 L5,5 L5,12.2 C5,12.6416 5.18,13.0408 5.4696,13.332 L12.672,20.5304 C12.9608,20.82 13.3608,21 13.8032,21 C14.2456,21 14.6456,20.8208 14.9344,20.532 L20.5296,14.936 C20.82,14.6464 21,14.2448 21,13.8032 C21,13.3608 20.8216,12.96 20.5304,12.672 L13.332,5.468 C13.0408,5.18 12.6416,5 12.1992,5 Z" id="Combined-Shape"></path>
        </g>
    </g>
</svg>