<?xml version="1.0" encoding="UTF-8" standalone="no"?>
<svg
   xmlns:dc="http://purl.org/dc/elements/1.1/"
   xmlns:cc="http://creativecommons.org/ns#"
   xmlns:rdf="http://www.w3.org/1999/02/22-rdf-syntax-ns#"
   xmlns:svg="http://www.w3.org/2000/svg"
   xmlns="http://www.w3.org/2000/svg"
   xmlns:sodipodi="http://sodipodi.sourceforge.net/DTD/sodipodi-0.dtd"
   xmlns:inkscape="http://www.inkscape.org/namespaces/inkscape"
   width="22px"
   height="22px"
   viewBox="0 0 22 22"
   version="1.1"
   id="svg14"
   sodipodi:docname="votos_icon.svg"
   inkscape:version="0.92.1 r15371">
  <metadata
     id="metadata18">
    <rdf:RDF>
      <cc:Work
         rdf:about="">
        <dc:format>image/svg+xml</dc:format>
        <dc:type
           rdf:resource="http://purl.org/dc/dcmitype/StillImage" />
      </cc:Work>
    </rdf:RDF>
  </metadata>
  <sodipodi:namedview
     pagecolor="#ffffff"
     bordercolor="#666666"
     borderopacity="1"
     objecttolerance="10"
     gridtolerance="10"
     guidetolerance="10"
     inkscape:pageopacity="0"
     inkscape:pageshadow="2"
     inkscape:window-width="1855"
     inkscape:window-height="1056"
     id="namedview16"
     showgrid="false"
     inkscape:zoom="10.727273"
     inkscape:cx="0.046610169"
     inkscape:cy="11"
     inkscape:window-x="65"
     inkscape:window-y="24"
     inkscape:window-maximized="1"
     inkscape:current-layer="svg14" />
  <!-- Generator: Sketch 47 (45396) - http://www.bohemiancoding.com/sketch -->
  <title
     id="title2">votos_icon</title>
  <desc
     id="desc4">Created with Sketch.</desc>
  <defs
     id="defs6" />
  <g
     id="Page-1"
     stroke="none"
     stroke-width="1"
     fill="none"
     fill-rule="evenodd"
     style="fill:#ffffff;fill-opacity:1">
    <g
       id="votos_icon"
       style="fill:#ffffff;fill-opacity:1">
      <g
         id="hands"
         transform="translate(8.000000, 1.000000)"
         style="fill:#ffffff;fill-opacity:1">
        <path
           d="M6.07463049,2.01803505 L6.06495275,2.01803505 C5.93326896,2.01803505 5.80793849,2.04725363 5.69442817,2.09990957 L5.69442817,1.79596604 C5.69442817,1.25632076 5.27924562,0.817221774 4.76891091,0.817221774 L4.75927011,0.817221774 C4.62644124,0.817221774 4.50007651,0.846948162 4.3857905,0.900463474 C4.34803991,0.397263297 3.9486668,0 3.46326521,0 L3.4536244,0 C3.04682677,0 2.70049655,0.279021803 2.57671748,0.665582038 C2.45083295,0.59769181 2.30836328,0.559371722 2.15761951,0.559371722 L2.1479787,0.559371722 C1.63768093,0.559371722 1.22249838,0.998392588 1.22249838,1.53807693 L1.22249838,5.01993152 C0.964375986,4.79794064 0.63536967,4.66469923 0.277514815,4.66469923 C0.124259262,4.66469923 3.69379495e-05,4.79602659 3.69379495e-05,4.95813501 L3.69379495e-05,9.20400857 C3.69379495e-05,9.7672084 0.224434981,10.3094708 0.615755619,10.6914999 L0.961457888,11.0291151 L0.961457888,12.0077812 L0.792873086,12.0077812 C0.639617534,12.0077812 0.51539521,12.1391086 0.51539521,12.301217 L0.51539521,14.0445271 L0.277477877,14.0445271 C0.124222324,14.0445271 0,14.1758544 0,14.3379629 L0,15.5202606 C0,15.68233 0.124185386,15.8136964 0.277477877,15.8136964 C0.430733429,15.8136964 0.554955754,15.682369 0.554955754,15.5202606 L0.554955754,14.6313986 L0.792873086,14.6313986 L6.09306253,14.6313986 L6.33097986,14.6313986 L6.33097986,19.4131675 L0.554992692,19.4131675 L0.554992692,16.4572083 C0.554992692,16.295178 0.430807305,16.1637725 0.277514815,16.1637725 C0.124222324,16.1637725 3.69379495e-05,16.2951389 3.69379495e-05,16.4572083 L3.69379495e-05,19.7065642 C3.69379495e-05,19.8686336 0.124222324,20 0.277514815,20 L6.6084208,20 C6.76167635,20 6.88589867,19.8686726 6.88589867,19.7065642 L6.88589867,14.3378066 C6.88589867,14.1757373 6.76171329,14.0443708 6.6084208,14.0443708 L6.37050346,14.0443708 L6.37050346,12.3010998 C6.37050346,12.1390304 6.24631808,12.007664 6.09302559,12.007664 L6.0064061,12.007664 L6.0064061,11.0044668 L6.43111864,10.4496263 C6.79739535,9.97119158 6.99911349,9.36865604 6.99911349,8.75303465 L6.99911349,7.70706422 C6.99974143,7.6992127 7,7.69120493 7,7.68319717 L7,2.99670119 C7.00007388,2.45705592 6.58492826,2.01803505 6.07463049,2.01803505 Z M5.81562159,14.0444099 L5.81562159,14.0444099 L1.07035096,14.0444099 L1.07035096,12.5945356 L1.23893576,12.5945356 L5.72903903,12.5945356 L5.81565852,12.5945356 L5.81565852,14.0444099 L5.81562159,14.0444099 Z M6.44537669,7.65936918 L6.44515506,7.65936918 C6.44452712,7.6672207 6.44426855,7.67522847 6.44426855,7.68323623 L6.44426855,8.75311277 C6.44426855,9.23478964 6.28643269,9.70615407 5.99986808,10.0804878 L5.51339528,10.716031 C5.47339148,10.7682572 5.45156116,10.8334521 5.45156116,10.9006393 L5.45156116,12.0077031 L1.51641364,12.0077031 L1.51641364,10.9006393 C1.51641364,10.8187647 1.48409294,10.7406402 1.42720849,10.6850546 L0.992264138,10.2602524 C0.714343006,9.98888678 0.55502963,9.6039281 0.55502963,9.20389138 L0.55502963,5.29543772 C0.941105078,5.42110105 1.22253532,5.801841 1.22253532,6.25078369 L1.22253532,7.68811901 C1.22253532,7.83768845 1.32921211,7.96335178 1.46979795,7.97975793 C1.47611434,7.98053918 2.11037587,8.0573356 2.72856939,8.35920883 C3.49798688,8.73494882 3.8881255,9.27412535 3.8881255,9.96173851 C3.8881255,10.1238079 4.01231089,10.2551743 4.16560338,10.2551743 C4.31889587,10.2551743 4.44308126,10.1238469 4.44308126,9.96173851 C4.44308126,9.03381425 3.92613465,8.29327172 2.94827632,7.82011043 C2.4949738,7.60077578 2.04551283,7.48913581 1.77752801,7.43683142 L1.77752801,1.53803786 C1.77752801,1.32198444 1.94374878,1.14620422 2.14805258,1.14620422 L2.15769338,1.14620422 C2.36203412,1.14620422 2.52825489,1.32198444 2.52825489,1.53803786 L2.52825489,6.21195579 C2.52825489,6.37402515 2.65244028,6.50539157 2.80573277,6.50539157 C2.95902526,6.50539157 3.08321065,6.37406421 3.08321065,6.21195579 L3.08321065,1.53803786 L3.08321065,0.978705203 C3.08321065,0.762651781 3.24943142,0.586871561 3.45373522,0.586871561 L3.46337602,0.586871561 C3.66771676,0.586871561 3.83393753,0.762651781 3.83393753,0.978705203 L3.83393753,1.7960051 L3.83393753,6.21195579 C3.83393753,6.37402515 3.95812292,6.50539157 4.11141541,6.50539157 C4.2647079,6.50539157 4.38889329,6.37406421 4.38889329,6.21195579 L4.38889329,1.79596604 C4.38889329,1.57991262 4.55511406,1.40409334 4.75941786,1.40409334 L4.76905866,1.40409334 C4.9733994,1.40409334 5.13962017,1.57987356 5.13962017,1.79596604 L5.13962017,2.99666213 L5.13962017,6.21191673 C5.13962017,6.37398609 5.26380556,6.50535251 5.41709805,6.50535251 C5.57031666,6.50535251 5.69457593,6.37402515 5.69457593,6.21191673 L5.69457593,2.99670119 C5.69457593,2.78064777 5.8607967,2.60486755 6.0651005,2.60486755 L6.07477824,2.60486755 C6.27908204,2.60486755 6.44530281,2.78064777 6.44530281,2.99670119 L6.44530281,7.65936918 L6.44537669,7.65936918 Z"
           id="Shape"
           fill="#4A4A4A"
           fill-rule="nonzero"
           style="fill:#ffffff;fill-opacity:1" />
        <circle
           id="Oval"
           fill="#000000"
           fill-rule="nonzero"
           cx="6.5"
           cy="16.5"
           r="1"
           style="fill:#ffffff;fill-opacity:1" />
        <rect
           id="Rectangle"
           fill="#4A4A4A"
           x="0"
           y="14"
           width="7"
           height="6"
           style="fill:#ffffff;fill-opacity:1" />
      </g>
    </g>
  </g>
</svg>
