<?xml version="1.0" encoding="UTF-8" standalone="no"?>
<svg width="105px" height="105px" viewBox="0 0 105 105" version="1.1" xmlns="http://www.w3.org/2000/svg" xmlns:xlink="http://www.w3.org/1999/xlink">
    <!-- Generator: Sketch 48.2 (47327) - http://www.bohemiancoding.com/sketch -->
    <title>Group 8</title>
    <desc>Created with Sketch.</desc>
    <defs>
        <path d="M1.5480625,0.588947368 C0.53496875,0.592105263 -0.16415625,1.60842105 0.2199375,2.53789474 C2.21584375,7.36526316 8.8835625,19.5194737 25.4224375,19.5194737 C41.9533437,19.5194737 48.7714062,7.28105263 50.83,2.41105263 C51.2247187,1.47736842 50.51975,0.448947368 49.4981562,0.452105263 L1.5480625,0.588947368" id="path-1"></path>
    </defs>
    <g id="-4°-comentário-em-menos-de-24h" stroke="none" stroke-width="1" fill="none" fill-rule="evenodd" transform="translate(-128.000000, -205.000000)">
        <g id="Group-8" transform="translate(128.000000, 205.000000)">
            <path d="M52.4991965,105 C23.5513368,105 0,81.4487833 0,52.5 C0,23.5517523 23.5513368,0 52.4991965,0 C81.4486632,0 105,23.5517523 105,52.5 C105,81.4487833 81.4486632,105 52.4991965,105" id="Fill-2367" fill="#D8D8D8"></path>
            <path d="M99,52 C99,77.9566665 77.9565469,99 51.999199,99 C26.0423851,99 5,77.9566665 5,52 C5,26.0422655 26.0423851,5 51.999199,5 C77.9565469,5 99,26.0422655 99,52" id="Fill-2368" fill="#F5A623"></path>
            <g id="Group-2376" transform="translate(27.000000, 57.000000)">
                <g id="Group-3">
                    <mask id="mask-2" fill="white">
                        <use xlink:href="#path-1"></use>
                    </mask>
                    <use id="Clip-2374" fill="#000000" xlink:href="#path-1"></use>
                    <path d="M3.68475,0.04 C2.7614375,0.0410526316 2.125,0.314210526 2.4745625,0.564210526 C4.29303125,1.86263158 10.3668125,5.13210526 25.4314687,5.13210526 C40.48975,5.13210526 46.7005937,1.84 48.5759062,0.53 C48.9350312,0.278947368 48.29275,0.00210526316 47.3625312,0.00315789474 L3.68475,0.04" id="Fill-2373" fill="#FFFFFE" mask="url(#mask-2)"></path>
                    <path d="M43.163,23.3594737 C43.163,28.7021053 35.1034062,33.0336842 25.1610625,33.0336842 C15.2187188,33.0336842 7.159125,28.7021053 7.159125,23.3594737 C7.159125,18.0163158 15.2187188,13.6847368 25.1610625,13.6847368 C35.1034062,13.6847368 43.163,18.0163158 43.163,23.3594737" id="Fill-2375" fill="#E05755" mask="url(#mask-2)"></path>
                </g>
            </g>
            <g id="Group-2" transform="translate(22.000000, 17.000000)">
                <path d="M77.5961096,16.195873 C77.5961096,19.8586984 74.6550822,22.8291111 71.0280822,22.8291111 C67.4010822,22.8291111 64.460589,19.8586984 64.460589,16.195873 C64.460589,12.5308889 71.0280822,0.021047619 71.0280822,0.021047619 C71.0280822,0.021047619 77.5961096,12.5308889 77.5961096,16.195873" id="Fill-2369" fill="#7ED321"></path>
                <path d="M4.00471233,31.698254 L2.82830137,31.7225397 L4.00524658,31.7225397 L4.00471233,31.698254 L2.82830137,31.7225397 L4.00524658,31.7225397 C4.00471233,31.7052698 4.00738356,31.290254 4.09553425,30.7079365 C4.16071233,30.2713333 4.2750411,29.7419048 4.45989041,29.2184127 C4.59772603,28.8255238 4.77456164,28.4369524 4.992,28.0872381 C5.3200274,27.5605079 5.72231507,27.1287619 6.25763014,26.8114286 C6.79615068,26.4973333 7.49120548,26.2685079 8.53993151,26.2647302 C9.15110959,26.2652698 9.64421918,26.3462222 10.0523836,26.4719683 C10.7634658,26.6948571 11.2389452,27.0407937 11.6417671,27.4898095 C11.940411,27.8260317 12.1856301,28.2280952 12.3800959,28.660381 C12.6723288,29.3074603 12.8416849,30.0198413 12.9266301,30.5875873 C13.0131781,31.1553333 13.0179863,31.575746 13.0179863,31.6415873 L13.0179863,31.6529206 L13.8033288,31.6599365 L13.0179863,31.6459048 L13.0179863,31.6529206 L13.8033288,31.6599365 L13.0179863,31.6459048 C12.9992877,32.6885714 13.8214932,33.5493651 14.8541918,33.568254 C15.8868904,33.5866032 16.7384795,32.7560317 16.7571781,31.7133651 L16.7577123,31.6415873 C16.7571781,31.4267937 16.7459589,30.8110159 16.6177397,29.9772063 C16.5205068,29.3517143 16.3580959,28.6031746 16.0706712,27.8060635 C15.8548356,27.2086349 15.5684795,26.5831429 15.1795479,25.9700635 C14.5982877,25.0526032 13.769137,24.1561905 12.6445479,23.5096508 C11.5220959,22.8593333 10.1298493,22.4837143 8.53993151,22.4869524 C7.57935616,22.4869524 6.69250685,22.6207937 5.89113699,22.8739048 C4.48553425,23.313746 3.36842466,24.1302857 2.57239726,25.058 C1.97190411,25.7541905 1.53863014,26.5065079 1.21915068,27.234 C0.741534247,28.3268571 0.512876712,29.3689841 0.392671233,30.1779683 C0.273534247,30.9864127 0.265520548,31.5633333 0.265520548,31.7225397 L0.266054795,31.7754286 C0.286890411,32.8186349 1.14115068,33.6465079 2.17331507,33.6254603 C3.2060137,33.6044127 4.02608219,32.7414603 4.00471233,31.698254" id="Fill-2370" fill="#201A13"></path>
                <path d="M46.8721233,31.698254 L45.6957123,31.7225397 L46.8726575,31.7225397 L46.8721233,31.698254 L45.6957123,31.7225397 L46.8726575,31.7225397 C46.8721233,31.7052698 46.8747945,31.290254 46.9629452,30.7079365 C47.0281233,30.2713333 47.1424521,29.7419048 47.3273014,29.2184127 C47.465137,28.8255238 47.6425068,28.4369524 47.859411,28.0872381 C48.1874384,27.5605079 48.5902603,27.1287619 49.1250411,26.8114286 C49.6635616,26.4973333 50.3586164,26.2685079 51.4073425,26.2647302 C52.0185205,26.2652698 52.5116301,26.3462222 52.9197945,26.4719683 C53.6308767,26.6948571 54.1063562,27.0407937 54.5091781,27.4898095 C54.8078219,27.8260317 55.0530411,28.2280952 55.2475068,28.660381 C55.5397397,29.3074603 55.7090959,30.0198413 55.7940411,30.5875873 C55.880589,31.1553333 55.8853973,31.575746 55.8853973,31.6415873 L55.8853973,31.6529206 L56.667,31.6599365 L55.8853973,31.6459048 L55.8853973,31.6529206 L56.667,31.6599365 L55.8853973,31.6459048 C55.8666986,32.6891111 56.6889041,33.5493651 57.7216027,33.568254 C58.7543014,33.5866032 59.6058904,32.7560317 59.624589,31.7133651 L59.6251233,31.6415873 C59.624589,31.4267937 59.6133699,30.8110159 59.4851507,29.9772063 C59.3879178,29.3517143 59.2255068,28.6031746 58.9380822,27.8060635 C58.7222466,27.2086349 58.4358904,26.5831429 58.0469589,25.9700635 C57.4656986,25.0526032 56.6365479,24.1561905 55.5119589,23.5096508 C54.3895068,22.8593333 52.9972603,22.4837143 51.4073425,22.4869524 C50.4467671,22.4869524 49.5599178,22.6207937 48.7585479,22.8739048 C47.3529452,23.313746 46.2358356,24.1302857 45.4398082,25.058 C44.8393151,25.7541905 44.4060411,26.5065079 44.0865616,27.234 C43.6089452,28.3268571 43.3802877,29.3689841 43.2600822,30.1779683 C43.1409452,30.9864127 43.1329315,31.5633333 43.1329315,31.7225397 L43.1334658,31.7754286 C43.1543014,32.8186349 44.0085616,33.6465079 45.0412603,33.6254603 C46.0734247,33.6044127 46.8934932,32.7414603 46.8721233,31.698254" id="Fill-2371" fill="#201A13"></path>
                <path d="M2.86730137,12.841746 C2.94049315,12.8676508 4.58169863,13.5600635 6.69624658,13.566 C7.84380822,13.566 9.15164384,13.3539048 10.3798767,12.6474603 C11.6086438,11.945873 12.7091918,10.7348254 13.4053151,8.95225397 C13.6232877,8.39853968 13.3556301,7.77088889 12.8074932,7.55069841 C12.2588219,7.32996825 11.6374932,7.60034921 11.4195205,8.15460317 C10.8655068,9.5448254 10.1277123,10.3009206 9.32046575,10.7726032 C8.51268493,11.2394286 7.58736986,11.4078095 6.69624658,11.4072698 C5.87938356,11.4078095 5.10526027,11.2647937 4.5469726,11.119619 C4.26756164,11.0473016 4.04210959,10.9755238 3.89091781,10.9231746 C3.81558904,10.8967302 3.75842466,10.8756825 3.72263014,10.8621905 L3.68469863,10.8470794 L3.67828767,10.8449206 L3.54632877,11.1752063 L3.68042466,10.8454603 L3.67828767,10.8449206 L3.54632877,11.1752063 L3.68042466,10.8454603 C3.1349589,10.6187937 2.51042466,10.881619 2.2860411,11.4331746 C2.06165753,11.9841905 2.32183562,12.6150794 2.86730137,12.841746" id="Fill-2377" fill="#201A13"></path>
                <path d="M48.1436301,10.1395556 C49.0929863,9.64304762 49.9029041,9.46549206 50.6166575,9.4644127 C51.3891781,9.46549206 52.0666027,9.67542857 52.6852603,10.0111111 C53.6100411,10.5113968 54.3777534,11.3139048 54.8938356,11.9976825 C55.1529452,12.3382222 55.3500822,12.6469206 55.4788356,12.8644127 C55.5434795,12.9734286 55.5910274,13.0597778 55.6214795,13.1159048 L55.653,13.1768889 L55.659411,13.1887619 L55.6599452,13.1898413 L56.2048767,12.9146032 L55.6583425,13.1871429 L55.6599452,13.1898413 L56.2048767,12.9146032 L55.6583425,13.1871429 C55.9201233,13.7214286 56.5612192,13.9405397 57.0901233,13.6766349 C57.6190274,13.4121905 57.8359315,12.7645714 57.5741507,12.2302857 C57.5431644,12.1714603 56.976863,11.0106032 55.848,9.8044127 C55.2822329,9.20212698 54.5722192,8.58634921 53.6992603,8.11088889 C52.8289726,7.63542857 51.785589,7.30514286 50.6166575,7.30568254 C49.5385479,7.30460317 48.3690822,7.58739683 47.1590137,8.22368254 C46.6354521,8.49838095 46.4313699,9.14977778 46.7033014,9.67866667 C46.9752329,10.2080952 47.6200685,10.414254 48.1436301,10.1395556" id="Fill-2378" fill="#201A13"></path>
            </g>
        </g>
    </g>
</svg>