<?xml version="1.0" encoding="UTF-8" standalone="no"?>
<svg width="105px" height="105px" viewBox="0 0 105 105" version="1.1" xmlns="http://www.w3.org/2000/svg" xmlns:xlink="http://www.w3.org/1999/xlink">
    <!-- Generator: Sketch 48.2 (47327) - http://www.bohemiancoding.com/sketch -->
    <title>Group 9</title>
    <desc>Created with Sketch.</desc>
    <defs></defs>
    <g id="-4°-comentário-em-menos-de-24h-copy" stroke="none" stroke-width="1" fill="none" fill-rule="evenodd" transform="translate(-128.000000, -205.000000)">
        <g id="Group-9" transform="translate(128.000000, 205.000000)">
            <path d="M52.2409645,104.482462 C23.4352538,104.482462 0,81.0472081 0,52.2409645 C0,23.4347208 23.4352538,0 52.2409645,0 C81.0472081,0 104.482995,23.4347208 104.482995,52.2409645 C104.482995,81.0472081 81.0472081,104.482462 52.2409645,104.482462" id="Fill-2386" fill="#D8D8D8"></path>
            <path d="M99.1530457,52.2409645 C99.1530457,78.1487817 78.1487817,99.1525127 52.2409645,99.1525127 C26.3326142,99.1525127 5.32994924,78.1487817 5.32994924,52.2409645 C5.32994924,26.3320812 26.3326142,5.32941624 52.2409645,5.32941624 C78.1487817,5.32941624 99.1530457,26.3320812 99.1530457,52.2409645" id="Fill-2387" fill-opacity="0.77" fill="#EF4438"></path>
            <path d="M30.8865228,56.494797 C29.0119797,56.494797 27.4785533,54.9613706 27.4785533,53.0868274 L27.4785533,44.9085533 C27.4785533,43.0340102 29.0119797,41.5005838 30.8865228,41.5005838 C32.760533,41.5005838 34.2939594,43.0340102 34.2939594,44.9085533 L34.2939594,53.0868274 C34.2939594,54.9613706 32.760533,56.494797 30.8865228,56.494797" id="Fill-2388" fill="#201A13"></path>
            <path d="M73.5964721,56.494797 C71.7224619,56.494797 70.1890355,54.9613706 70.1890355,53.0868274 L70.1890355,44.9085533 C70.1890355,43.0340102 71.7224619,41.5005838 73.5964721,41.5005838 C75.4710152,41.5005838 77.0044416,43.0340102 77.0044416,44.9085533 L77.0044416,53.0868274 C77.0044416,54.9613706 75.4710152,56.494797 73.5964721,56.494797" id="Fill-2389" fill="#201A13"></path>
            <path d="M25.195736,27.8500508 C25.2687563,27.8751015 26.9061168,28.559467 29.0157107,28.5653299 C30.1605838,28.564797 31.4653553,28.3553299 32.6907107,27.6581726 C33.916599,26.9647462 35.0145685,25.7692386 35.7085279,24.0087563 C35.9265228,23.4619036 35.6594924,22.8420305 35.1126396,22.6240355 C34.5652538,22.4065736 33.9453807,22.6736041 33.7279188,23.2204569 C33.175203,24.5939848 32.4391371,25.3407107 31.6337817,25.8060152 C30.8278934,26.2675888 29.9047462,26.4333503 29.0157107,26.4333503 C28.2007614,26.4338832 27.4284518,26.2921066 26.8714721,26.149264 C26.5927157,26.0778426 26.3677919,26.0064213 26.2169543,25.9547208 C26.141802,25.9291371 26.0847716,25.9083503 26.0490609,25.8944924 L26.0112183,25.8801015 L26.0048223,25.8774365 L25.8726396,26.2052284 L26.0069543,25.8785025 L26.0048223,25.8774365 L25.8726396,26.2052284 L26.0069543,25.8785025 C25.4627665,25.6541117 24.8396954,25.9142132 24.6158376,26.458401 C24.3914467,27.0031218 24.6515482,27.6261929 25.195736,27.8500508" id="Fill-2390" fill="#201A13"></path>
            <path d="M70.3659898,25.1808122 C71.3131218,24.6909898 72.1211421,24.5156345 72.8332234,24.5145685 C73.603934,24.5156345 74.2797716,24.7229695 74.8969797,25.0539594 C75.8195939,25.5480457 76.5849746,26.3406091 77.1003807,27.0159137 C77.3583503,27.3527665 77.5550254,27.6571066 77.6840102,27.8724365 C77.7485025,27.9801015 77.7959391,28.0648477 77.8257868,28.1202792 L77.8577665,28.1805076 L77.8641624,28.1922335 L77.8646954,28.1932995 L78.4152792,27.9182741 L77.8630964,28.1911675 L77.8646954,28.1932995 L78.4152792,27.9182741 L77.8630964,28.1911675 C78.124264,28.7188325 78.7633249,28.9352284 79.2915228,28.6740609 C79.8191878,28.4134264 80.0355838,27.7738325 79.7744162,27.2461675 C79.7435025,27.1880711 79.1785279,26.041599 78.0523096,24.8498223 C77.487868,24.255533 76.7795178,23.6473858 75.9086041,23.1772843 C75.0403553,22.7077157 73.9994162,22.3815228 72.8332234,22.3825888 C71.7576396,22.3815228 70.5909137,22.6608122 69.3836802,23.2886802 C68.8613452,23.5599746 68.6572081,24.2038325 68.9285025,24.7261675 C69.199797,25.2485025 69.8436548,25.4521066 70.3659898,25.1808122" id="Fill-2391" fill="#201A13"></path>
            <path d="M23.7443909,70.1058883 C23.8771066,70.2583249 24.6995178,71.1276396 26.5186294,71.9425888 C28.3366751,72.7596701 31.1391624,73.5175888 35.2053807,73.5165228 C39.273731,73.5159898 44.6084772,72.764467 51.550203,70.5754569 C58.8127919,68.2841117 64.1837817,67.5437817 68.0698477,67.5443147 C71.9585787,67.5459137 74.3575888,68.2787817 75.7497716,68.9412944 C76.4463959,69.2733503 76.8935787,69.5904822 77.1515482,69.8015482 C77.280533,69.9076142 77.3620812,69.9870305 77.4031218,70.0296701 L77.4351015,70.0637817 L77.9862183,69.5856853 L77.4111168,70.033934 L77.4351015,70.0637817 L77.9862183,69.5856853 L77.4111168,70.033934 C77.9547716,70.7305584 78.959467,70.8542132 79.6555584,70.3110914 C80.3516497,69.7674365 80.4758376,68.7627411 79.9321827,68.0666497 C79.800533,67.8944924 78.9909137,66.9420305 77.1259645,66.0545939 C75.2620812,65.1644924 72.3599239,64.3452792 68.0698477,64.3463452 C63.7776396,64.3468782 58.0921827,65.1591624 50.5881472,67.5256599 C43.893731,69.6368528 38.8777157,70.3190863 35.2053807,70.3185533 C31.5319797,70.3174873 29.2043909,69.6416497 27.827665,69.0249746 C27.1390355,68.7158376 26.6865228,68.4200254 26.4216244,68.2206853 C26.2894416,68.1210152 26.2041624,68.0458629 26.1599239,68.0048223 L26.1242132,67.9701777 L25.9435279,68.145533 L26.1284772,67.9744416 L26.1242132,67.9701777 L25.9435279,68.145533 L26.1284772,67.9744416 L25.2922081,68.7462183 L26.147132,67.9946954 L26.1284772,67.9744416 L25.2922081,68.7462183 L26.147132,67.9946954 C25.5640355,67.3316497 24.5534772,67.2666244 23.8904315,67.8491878 C23.2268528,68.4322843 23.1618274,69.4423096 23.7443909,70.1058883" id="Fill-2392" fill="#201A13"></path>
        </g>
    </g>
</svg>