<?xml version="1.0" encoding="UTF-8" standalone="no"?>
<svg width="105px" height="105px" viewBox="0 0 105 105" version="1.1" xmlns="http://www.w3.org/2000/svg" xmlns:xlink="http://www.w3.org/1999/xlink">
    <!-- Generator: Sketch 48.2 (47327) - http://www.bohemiancoding.com/sketch -->
    <title>quem avisa amigo é</title>
    <desc>Created with Sketch.</desc>
    <defs></defs>
    <g id="5°-comentário-(faltando-1-para-o-limite-global)" stroke="none" stroke-width="1" fill="none" fill-rule="evenodd" transform="translate(-128.000000, -198.000000)">
        <g id="quem-avisa-amigo-é" transform="translate(128.000000, 198.000000)">
            <path d="M52.2409645,104.482462 C23.4352538,104.482462 0,81.0472081 0,52.2409645 C0,23.4352538 23.4352538,0 52.2409645,0 C81.0472081,0 104.482995,23.4352538 104.482995,52.2409645 C104.482995,81.0472081 81.0472081,104.482462 52.2409645,104.482462" id="Fill-2343" fill="#D8D8D8"></path>
            <path d="M99.1530457,52.2409645 C99.1530457,78.1487817 78.1493147,99.1525127 52.2409645,99.1525127 C26.3326142,99.1525127 5.32994924,78.1487817 5.32994924,52.2409645 C5.32994924,26.3320812 26.3326142,5.32994924 52.2409645,5.32994924 C78.1493147,5.32994924 99.1530457,26.3320812 99.1530457,52.2409645" id="Fill-2344" fill="#F5A623"></path>
            <path d="M30.8865228,50.818934 C29.0119797,50.818934 27.4785533,49.2855076 27.4785533,47.4114975 L27.4785533,43.4396193 C27.4785533,41.5656091 29.0119797,40.0321827 30.8865228,40.0321827 C32.760533,40.0321827 34.2939594,41.5656091 34.2939594,43.4396193 L34.2939594,47.4114975 C34.2939594,49.2855076 32.760533,50.818934 30.8865228,50.818934" id="Fill-2345" fill="#201A13"></path>
            <path d="M68.7803299,48.6331218 L67.7441878,48.6507107 L68.7808629,48.6507107 L68.7803299,48.6331218 L67.7441878,48.6507107 L68.7808629,48.6507107 C68.7803299,48.6336548 68.7824619,48.2237817 68.8704061,47.6486802 C68.9359645,47.2174873 69.0500254,46.6946193 69.2339086,46.1776142 C69.3719543,45.7895939 69.5483756,45.4058376 69.7647716,45.0604569 C70.0925635,44.5402538 70.4939086,44.1138579 71.0279695,43.8004569 C71.5646954,43.4902538 72.2586548,43.264264 73.3049239,43.260533 C73.9146701,43.260533 74.4066244,43.3410152 74.8138325,43.465203 C75.5232487,43.6853299 75.9976142,44.0269797 76.3994924,44.4698985 C76.6974365,44.8024873 76.9420812,45.1995685 77.1360914,45.6264975 C77.4276396,46.2655584 77.596599,46.9691117 77.6813452,47.5298223 C77.7676904,48.090533 77.7724873,48.505736 77.7719543,48.5707614 L77.7724873,48.5723604 C77.7527665,49.6026396 78.5714467,50.4532995 79.6017259,50.4730203 C80.6320051,50.4927411 81.482665,49.6740609 81.5023858,48.6437817 L81.5029188,48.5707614 C81.5029188,48.3586294 81.4917259,47.7504822 81.3632741,46.9270051 C81.266802,46.309264 81.1042386,45.57 80.8180203,44.7827665 C80.6026904,44.1927411 80.3170051,43.575 79.9284518,42.9695178 C79.3490863,42.0634264 78.5218782,41.1781218 77.3993909,40.5395939 C76.2801015,39.897335 74.8905838,39.5263706 73.3049239,39.5295685 C72.346599,39.5290355 71.4618274,39.6617513 70.662335,39.9117259 C69.2594924,40.3461168 68.145,41.1525381 67.3513706,42.0687563 C66.7517513,42.7563198 66.3194924,43.4993147 66.0012944,44.2177919 C65.524264,45.2971066 65.2966751,46.3263198 65.1762183,47.1252792 C65.0573604,47.9237056 65.0498985,48.4934772 65.0498985,48.6507107 L65.0498985,48.6965482 C65.0674873,49.7268274 65.9165482,50.5476396 66.9468274,50.5300508 C67.9771066,50.5124619 68.7979188,49.663401 68.7803299,48.6331218" id="Fill-2346" fill="#201A13"></path>
            <path d="M67.2591624,64.0553299 L67.9030203,64.2392132 L67.2602284,64.05 L67.2591624,64.0553299 L67.9030203,64.2392132 L67.2602284,64.05 C67.2538325,64.0910406 66.3749239,66.9830711 64.0590609,69.7338579 C62.9019289,71.1127157 61.3994162,72.4579949 59.4667766,73.4605584 C57.5314721,74.4620558 55.1617766,75.1378934 52.1663452,75.1405584 C49.1208122,75.1373604 46.7329949,74.445533 44.7966244,73.4275127 C43.3458122,72.662132 42.1487056,71.7048731 41.161066,70.6873858 C39.6804061,69.1624873 38.6783756,67.4984772 38.0601015,66.2272843 C37.7504315,65.5919543 37.5367005,65.0562944 37.4029188,64.6901269 C37.3362944,64.5067766 37.2899239,64.366066 37.2616751,64.2759898 L37.2323604,64.1805838 L37.2270305,64.1640609 L36.6945685,64.3159645 L37.2286294,64.1688579 L37.2270305,64.1640609 L36.6945685,64.3159645 L37.2286294,64.1688579 C36.9546701,63.1753553 35.9275888,62.5922589 34.9340863,62.8662183 C33.9411168,63.1401777 33.3580203,64.1672589 33.6319797,65.1607614 C33.6783503,65.308934 34.5860406,68.6119036 37.3533503,72.0145431 C38.7380711,73.712132 40.6019543,75.4331726 43.0563959,76.7278173 C45.5081726,78.0235279 48.5457107,78.8741878 52.1663452,78.8715228 C55.7896447,78.8741878 58.8367766,78.016066 61.3008122,76.7118274 C63.1503046,75.7353807 64.6720051,74.5164213 65.9074873,73.2489594 C67.7607107,71.3456345 68.9764721,69.3378426 69.7423858,67.7937563 C70.5072335,66.2491371 70.8222335,65.1634264 70.8462183,65.0802792 C71.1292386,64.0894416 70.555736,63.0570305 69.5648985,62.7740102 C68.5745939,62.4909898 67.5421827,63.0644924 67.2591624,64.0553299" id="Fill-2347" fill="#201A13"></path>
        </g>
    </g>
</svg>