<?xml version="1.0" encoding="UTF-8" standalone="no"?>
<!-- Generator: Adobe Illustrator 22.1.0, SVG Export Plug-In . SVG Version: 6.00 Build 0)  -->

<svg
   xmlns:dc="http://purl.org/dc/elements/1.1/"
   xmlns:cc="http://creativecommons.org/ns#"
   xmlns:rdf="http://www.w3.org/1999/02/22-rdf-syntax-ns#"
   xmlns:svg="http://www.w3.org/2000/svg"
   xmlns="http://www.w3.org/2000/svg"
   xmlns:xlink="http://www.w3.org/1999/xlink"
   xmlns:sodipodi="http://sodipodi.sourceforge.net/DTD/sodipodi-0.dtd"
   xmlns:inkscape="http://www.inkscape.org/namespaces/inkscape"
   version="1.1"
   id="Layer_1"
   x="0px"
   y="0px"
   viewBox="0 0 317.78473 37.5"
   xml:space="preserve"
   sodipodi:docname="bg.svg"
   width="317.78473"
   height="37.5"
   inkscape:version="0.92.2 (5c3e80d, 2017-08-06)"><metadata
     id="metadata405"><rdf:RDF><cc:Work
         rdf:about=""><dc:format>image/svg+xml</dc:format><dc:type
           rdf:resource="http://purl.org/dc/dcmitype/StillImage" /></cc:Work></rdf:RDF></metadata><defs
     id="defs403" /><sodipodi:namedview
     pagecolor="#ffffff"
     bordercolor="#666666"
     borderopacity="1"
     objecttolerance="10"
     gridtolerance="10"
     guidetolerance="10"
     inkscape:pageopacity="0"
     inkscape:pageshadow="2"
     inkscape:window-width="1853"
     inkscape:window-height="1025"
     id="namedview401"
     showgrid="false"
     inkscape:zoom="3.1571906"
     inkscape:cx="160.17244"
     inkscape:cy="59.284879"
     inkscape:window-x="67"
     inkscape:window-y="27"
     inkscape:window-maximized="1"
     inkscape:current-layer="Layer_1" /><style
     type="text/css"
     id="style2">
	.st0{clip-path:url(#SVGID_2_);}
	.st1{fill:#D4F7F5;}
</style><g
     id="g398"
     transform="matrix(1.0628252,0,0,1,0,-261.5)"><defs
       id="defs5"><path
         id="SVGID_1_"
         d="M 287,0 H 12 C 5.4,0 0,5.4 0,12 v 279 c 0,4.4 3.6,8 8,8 h 279 c 6.6,0 12,-5.4 12,-12 V 12 C 299,5.4 293.6,0 287,0 Z"
         inkscape:connector-curvature="0" /></defs><clipPath
       id="SVGID_2_"><use
         xlink:href="#SVGID_1_"
         style="overflow:visible"
         id="use7"
         x="0"
         y="0"
         width="100%"
         height="100%" /></clipPath><g
       class="st0"
       clip-path="url(#SVGID_2_)"
       id="g396"><path
         class="st1"
         d="m -5.4,324.5 c -2.4,0.1 -4.2,2.2 -4,4.5 0.2,2.3 2.1,4 4.4,3.9 2.3,-0.1 4,-2 4,-4.3 -0.1,-2.5 -2,-4.3 -4.4,-4.1 z"
         id="path10"
         inkscape:connector-curvature="0"
         style="fill:#d4f7f5" /><path
         class="st1"
         d="m -18.9,318.8 c -2.2,0.1 -4,2.2 -3.9,4.4 0.2,2.2 2.1,3.9 4.3,3.8 2.3,-0.1 4,-2.1 3.9,-4.4 -0.1,-2.2 -2,-4 -4.3,-3.8 z"
         id="path12"
         inkscape:connector-curvature="0"
         style="fill:#d4f7f5" /><path
         class="st1"
         d="m 3.9,320.7 c -2.2,0.1 -3.9,2.1 -3.8,4.3 0.1,2.3 2.1,4.1 4.3,3.9 2.2,-0.1 3.9,-2.1 3.8,-4.3 0,-2.2 -2,-4 -4.3,-3.9 z"
         id="path14"
         inkscape:connector-curvature="0"
         style="fill:#d4f7f5" /><path
         class="st1"
         d="m 49.8,324.9 c -2.2,0.1 -4.1,2.1 -3.9,4.4 0.1,2.2 2.1,3.9 4.3,3.8 2.2,-0.1 3.9,-2 3.8,-4.3 -0.1,-2.2 -2,-4 -4.2,-3.9 z"
         id="path16"
         inkscape:connector-curvature="0"
         style="fill:#d4f7f5" /><path
         class="st1"
         d="m 26.8,322.9 c -2.3,0.1 -3.9,2 -3.8,4.2 0.1,2.3 2,3.9 4.2,3.8 2.3,-0.1 4.1,-2 3.9,-4.3 -0.1,-2.2 -2,-3.9 -4.3,-3.7 z"
         id="path18"
         inkscape:connector-curvature="0"
         style="fill:#d4f7f5" /><path
         class="st1"
         d="m 13.5,317.2 c -2.1,0.2 -3.8,2.1 -3.7,4.2 0.1,2.2 2.2,3.9 4.3,3.7 2.1,-0.2 3.7,-2.1 3.5,-4.3 -0.1,-2.1 -1.9,-3.8 -4.1,-3.6 z"
         id="path20"
         inkscape:connector-curvature="0"
         style="fill:#d4f7f5" /><path
         class="st1"
         d="m -5.1,318.7 c -0.2,-2.1 -2.1,-3.7 -4.2,-3.6 -2.3,0.1 -3.9,2 -3.7,4.3 0.2,2.2 2,3.7 4.2,3.6 2.2,-0.1 3.9,-2.1 3.7,-4.3 z"
         id="path22"
         inkscape:connector-curvature="0"
         style="fill:#d4f7f5" /><path
         class="st1"
         d="m 36.3,319.3 c -2.2,0.2 -3.7,2 -3.6,4.2 0.2,2.2 2,3.7 4.2,3.6 2.2,-0.1 3.8,-2 3.7,-4.1 -0.1,-2.2 -2,-3.9 -4.3,-3.7 z"
         id="path24"
         inkscape:connector-curvature="0"
         style="fill:#d4f7f5" /><path
         class="st1"
         d="m 59.3,321.2 c -2.2,0.1 -3.8,1.9 -3.7,4.1 0.1,2.2 2,3.8 4.1,3.6 2.2,-0.1 3.8,-1.9 3.7,-4.1 -0.1,-2.1 -1.9,-3.7 -4.1,-3.6 z"
         id="path26"
         inkscape:connector-curvature="0"
         style="fill:#d4f7f5" /><path
         class="st1"
         d="m 82.2,323.3 c -2.1,0.1 -3.8,2 -3.7,4.1 0.1,2.1 2,3.8 4.2,3.7 2.1,-0.1 3.8,-2.1 3.6,-4.2 -0.2,-2.1 -2,-3.7 -4.1,-3.6 z"
         id="path28"
         inkscape:connector-curvature="0"
         style="fill:#d4f7f5" /><path
         class="st1"
         d="m 105.1,325.4 c -2.2,0.1 -3.8,1.9 -3.7,4.1 0.1,2.1 1.9,3.7 4,3.6 2.2,-0.1 3.9,-1.9 3.8,-4 -0.1,-2.1 -2,-3.8 -4.1,-3.7 z"
         id="path30"
         inkscape:connector-curvature="0"
         style="fill:#d4f7f5" /><path
         class="st1"
         d="m -29.3,322.5 c -0.5,0.2 -1,0.4 -1.5,0.7 0.1,2.1 0.3,4.2 0.4,6.2 0,0.7 0.4,1.1 1.1,1.2 1.7,0.5 3.6,-0.2 4.6,-1.6 1,-1.4 1,-3.4 0.1,-4.8 -1.1,-1.4 -3,-2.2 -4.7,-1.7 z"
         id="path32"
         inkscape:connector-curvature="0"
         style="fill:#d4f7f5" /><path
         class="st1"
         d="m -22.1,317.1 c 2.1,-0.1 3.7,-1.9 3.6,-4 -0.1,-2.1 -2,-3.8 -4.1,-3.7 -2.1,0.1 -3.7,1.9 -3.6,4 0.2,2.3 1.9,3.9 4.1,3.7 z"
         id="path34"
         inkscape:connector-curvature="0"
         style="fill:#d4f7f5" /><path
         class="st1"
         d="m 0.9,319.2 c 2.1,-0.2 3.6,-2 3.4,-4.2 -0.2,-2.1 -2,-3.7 -4.1,-3.5 -2.1,0.2 -3.7,2 -3.5,4.1 0.1,2.2 2.1,3.8 4.2,3.6 z"
         id="path36"
         inkscape:connector-curvature="0"
         style="fill:#d4f7f5" /><path
         class="st1"
         d="m 50,319.1 c -0.1,-2.1 -2,-3.7 -4,-3.5 -2.1,0.2 -3.7,2 -3.5,4.1 0.2,2.1 2,3.7 4.1,3.5 2,-0.2 3.6,-2 3.4,-4.1 z"
         id="path38"
         inkscape:connector-curvature="0"
         style="fill:#d4f7f5" /><path
         class="st1"
         d="m 27.2,317.1 c -0.1,-2.1 -2,-3.7 -4,-3.6 -2.1,0.1 -3.7,1.9 -3.6,4 0.1,2.1 1.9,3.7 4,3.6 2.1,-0.1 3.7,-2 3.6,-4 z"
         id="path40"
         inkscape:connector-curvature="0"
         style="fill:#d4f7f5" /><path
         class="st1"
         d="m 69,317.7 c -2.1,0.1 -3.7,1.8 -3.6,3.9 0.1,2.1 1.8,3.7 4,3.5 2.1,-0.1 3.7,-2 3.6,-4 -0.2,-1.9 -2,-3.5 -4,-3.4 z"
         id="path42"
         inkscape:connector-curvature="0"
         style="fill:#d4f7f5" /><path
         class="st1"
         d="m 91.7,319.7 c -2,0.2 -3.7,2.1 -3.5,4.1 0.2,2.1 2.1,3.6 4.1,3.4 2,-0.2 3.5,-2 3.4,-4 -0.1,-2 -1.9,-3.6 -4,-3.5 z"
         id="path44"
         inkscape:connector-curvature="0"
         style="fill:#d4f7f5" /><path
         class="st1"
         d="m 114.7,321.9 c -2.1,0.1 -3.7,1.9 -3.5,4 0.2,2 1.9,3.5 3.9,3.4 2.1,-0.1 3.7,-1.9 3.5,-4 -0.2,-2 -1.9,-3.5 -3.9,-3.4 z"
         id="path46"
         inkscape:connector-curvature="0"
         style="fill:#d4f7f5" /><path
         class="st1"
         d="m 137.4,323.8 c -2,0.2 -3.6,1.9 -3.4,3.9 0.1,2 1.9,3.5 3.9,3.4 2.1,-0.1 3.6,-1.8 3.5,-3.9 -0.1,-2 -1.8,-3.6 -4,-3.4 z"
         id="path48"
         inkscape:connector-curvature="0"
         style="fill:#d4f7f5" /><path
         class="st1"
         d="m -12.9,305.8 c -2,0.1 -3.6,1.9 -3.5,3.9 0.1,2 1.8,3.6 3.9,3.5 2,-0.1 3.6,-1.8 3.5,-3.9 -0.2,-2 -1.9,-3.6 -3.9,-3.5 z"
         id="path50"
         inkscape:connector-curvature="0"
         style="fill:#d4f7f5" /><path
         class="st1"
         d="m 9.9,307.9 c -2.1,0.1 -3.5,1.8 -3.4,3.9 0.1,2.1 1.8,3.6 3.8,3.4 2,-0.1 3.6,-1.8 3.5,-3.9 -0.1,-2 -1.8,-3.5 -3.9,-3.4 z"
         id="path52"
         inkscape:connector-curvature="0"
         style="fill:#d4f7f5" /><path
         class="st1"
         d="m 33.2,317.3 c 2,-0.1 3.6,-1.8 3.4,-3.9 -0.1,-2 -1.9,-3.6 -3.9,-3.4 -1.9,0.2 -3.5,1.9 -3.4,3.8 0.1,2 1.9,3.6 3.9,3.5 z"
         id="path54"
         inkscape:connector-curvature="0"
         style="fill:#d4f7f5" /><path
         class="st1"
         d="m 56,319.3 c 2,-0.1 3.6,-1.9 3.5,-3.9 -0.1,-1.9 -1.9,-3.5 -3.8,-3.4 -2.1,0.1 -3.6,1.8 -3.4,3.9 0.1,2 1.8,3.5 3.7,3.4 z"
         id="path56"
         inkscape:connector-curvature="0"
         style="fill:#d4f7f5" /><path
         class="st1"
         d="m 82.3,317.5 c 0,-2.1 -1.7,-3.7 -3.7,-3.6 -2,0.1 -3.6,1.9 -3.5,3.9 0.1,1.9 1.9,3.5 3.8,3.4 1.9,-0.1 3.5,-1.7 3.4,-3.7 z"
         id="path58"
         inkscape:connector-curvature="0"
         style="fill:#d4f7f5" /><path
         class="st1"
         d="m 124.3,318.1 c -2,0.1 -3.6,1.9 -3.5,3.9 0.1,1.9 1.9,3.4 3.8,3.3 1.9,-0.1 3.4,-1.8 3.3,-3.8 0,-1.9 -1.6,-3.4 -3.6,-3.4 z"
         id="path60"
         inkscape:connector-curvature="0"
         style="fill:#d4f7f5" /><path
         class="st1"
         d="m 105.2,319.4 c -0.1,-1.9 -1.8,-3.4 -3.8,-3.3 -2.1,0.1 -3.6,1.8 -3.4,3.9 0.2,2 1.8,3.4 3.8,3.2 2,-0.1 3.5,-1.8 3.4,-3.8 z"
         id="path62"
         inkscape:connector-curvature="0"
         style="fill:#d4f7f5" /><path
         class="st1"
         d="m 147.2,320.3 c -2,0.1 -3.5,1.7 -3.4,3.7 0.1,2 1.7,3.5 3.7,3.4 2,-0.1 3.5,-1.7 3.4,-3.7 -0.1,-2 -1.8,-3.5 -3.7,-3.4 z"
         id="path64"
         inkscape:connector-curvature="0"
         style="fill:#d4f7f5" /><path
         class="st1"
         d="m 0.2,305.6 c -0.1,-1.9 -1.9,-3.5 -3.8,-3.3 -1.9,0.2 -3.4,1.9 -3.2,3.9 0.2,1.9 2,3.4 3.9,3.2 1.8,-0.3 3.3,-2 3.1,-3.8 z"
         id="path66"
         inkscape:connector-curvature="0"
         style="fill:#d4f7f5" /><path
         class="st1"
         d="m 170,322.3 c -1.9,0.1 -3.5,1.9 -3.3,3.8 0.1,1.9 1.8,3.4 3.6,3.3 1.9,0 3.5,-1.8 3.4,-3.7 -0.1,-1.9 -1.8,-3.5 -3.7,-3.4 z"
         id="path68"
         inkscape:connector-curvature="0"
         style="fill:#d4f7f5" /><path
         class="st1"
         d="m -22.6,303.5 c -0.1,-2 -1.7,-3.5 -3.7,-3.3 -2,0.1 -3.5,1.7 -3.4,3.7 0.1,2 1.8,3.4 3.7,3.3 2,-0.1 3.5,-1.7 3.4,-3.7 z"
         id="path70"
         inkscape:connector-curvature="0"
         style="fill:#d4f7f5" /><path
         class="st1"
         d="m 19.4,304.4 c -2,0.1 -3.5,1.7 -3.4,3.7 0.1,1.9 1.7,3.3 3.7,3.2 2,-0.1 3.5,-1.8 3.4,-3.7 -0.2,-1.9 -1.8,-3.3 -3.7,-3.2 z"
         id="path72"
         inkscape:connector-curvature="0"
         style="fill:#d4f7f5" /><path
         class="st1"
         d="m 193,324.2 c -1.9,0 -3.5,1.8 -3.4,3.7 0.1,1.9 1.8,3.5 3.7,3.4 1.9,-0.1 3.4,-1.8 3.3,-3.8 -0.2,-1.8 -1.8,-3.3 -3.6,-3.3 z"
         id="path74"
         inkscape:connector-curvature="0"
         style="fill:#d4f7f5" /><path
         class="st1"
         d="m 65.2,308.4 c -1.9,0.1 -3.4,1.8 -3.3,3.7 0.1,1.9 1.8,3.4 3.7,3.2 1.9,-0.1 3.3,-1.8 3.2,-3.7 0,-1.9 -1.7,-3.4 -3.6,-3.2 z"
         id="path76"
         inkscape:connector-curvature="0"
         style="fill:#d4f7f5" /><path
         class="st1"
         d="m 42.1,306.3 c -1.9,0.2 -3.3,1.9 -3.2,3.7 0.2,1.9 1.8,3.3 3.7,3.2 2,-0.1 3.4,-1.8 3.2,-3.8 -0.1,-1.9 -1.8,-3.3 -3.7,-3.1 z"
         id="path78"
         inkscape:connector-curvature="0"
         style="fill:#d4f7f5" /><path
         class="st1"
         d="m 88.2,310.5 c -1.9,0.1 -3.4,1.7 -3.3,3.6 0.1,1.9 1.7,3.4 3.6,3.3 1.9,-0.1 3.4,-1.7 3.3,-3.6 -0.1,-1.9 -1.7,-3.4 -3.6,-3.3 z"
         id="path80"
         inkscape:connector-curvature="0"
         style="fill:#d4f7f5" /><path
         class="st1"
         d="m 137.5,318 c -0.1,-1.8 -1.7,-3.4 -3.6,-3.3 -1.9,0.1 -3.3,1.7 -3.2,3.6 0.1,1.8 1.6,3.3 3.5,3.2 1.8,0 3.3,-1.7 3.3,-3.5 z"
         id="path82"
         inkscape:connector-curvature="0"
         style="fill:#d4f7f5" /><path
         class="st1"
         d="m 111.1,312.6 c -1.9,0.1 -3.4,1.7 -3.3,3.6 0.1,1.9 1.8,3.3 3.7,3.2 1.9,-0.1 3.2,-1.6 3.2,-3.5 -0.2,-1.9 -1.7,-3.4 -3.6,-3.3 z"
         id="path84"
         inkscape:connector-curvature="0"
         style="fill:#d4f7f5" /><path
         class="st1"
         d="m 156.5,316.6 c -1.8,0.2 -3.2,1.9 -3,3.7 0.2,1.9 1.9,3.3 3.8,3.1 1.8,-0.2 3.1,-1.8 3,-3.7 -0.2,-1.9 -1.9,-3.3 -3.8,-3.1 z"
         id="path86"
         inkscape:connector-curvature="0"
         style="fill:#d4f7f5" /><path
         class="st1"
         d="m -19.9,300.1 c 0.1,1.8 1.7,3.3 3.5,3.2 1.8,-0.1 3.3,-1.7 3.2,-3.5 -0.1,-1.8 -1.7,-3.3 -3.5,-3.2 -1.9,-0.1 -3.4,1.6 -3.2,3.5 z"
         id="path88"
         inkscape:connector-curvature="0"
         style="fill:#d4f7f5" /><path
         class="st1"
         d="m 202.4,320.7 c -1.8,0.1 -3.2,1.8 -3.1,3.6 0.1,1.8 1.7,3.3 3.5,3.2 1.9,-0.1 3.3,-1.8 3.2,-3.7 -0.2,-1.8 -1.8,-3.2 -3.6,-3.1 z"
         id="path90"
         inkscape:connector-curvature="0"
         style="fill:#d4f7f5" /><path
         class="st1"
         d="m 179.7,318.7 c -2,0 -3.4,1.6 -3.3,3.5 0.1,1.9 1.6,3.2 3.5,3.1 1.9,-0.1 3.3,-1.6 3.2,-3.4 0,-1.8 -1.5,-3.2 -3.4,-3.2 z"
         id="path92"
         inkscape:connector-curvature="0"
         style="fill:#d4f7f5" /><path
         class="st1"
         d="m 3,302.2 c 0.1,1.9 1.7,3.2 3.6,3.1 1.9,-0.1 3.2,-1.7 3.1,-3.5 -0.1,-1.9 -1.7,-3.2 -3.6,-3.1 -1.9,0.1 -3.3,1.6 -3.1,3.5 z"
         id="path94"
         inkscape:connector-curvature="0"
         style="fill:#d4f7f5" /><path
         class="st1"
         d="m 32.5,303.8 c -0.1,-1.8 -1.7,-3.3 -3.5,-3.1 -1.8,0.1 -3.2,1.7 -3.1,3.6 0.1,1.8 1.7,3.3 3.5,3.1 1.8,-0.1 3.2,-1.7 3.1,-3.6 z"
         id="path96"
         inkscape:connector-curvature="0"
         style="fill:#d4f7f5" /><path
         class="st1"
         d="m 225.2,322.9 c -1.8,0.1 -3.2,1.8 -3,3.6 0.2,1.8 1.8,3.2 3.6,3 1.9,-0.1 3.2,-1.7 3,-3.6 -0.1,-1.8 -1.7,-3.1 -3.6,-3 z"
         id="path98"
         inkscape:connector-curvature="0"
         style="fill:#d4f7f5" /><path
         class="st1"
         d="m 55.3,305.8 c -0.1,-1.8 -1.8,-3.2 -3.6,-3 -1.8,0.2 -3.1,1.6 -3,3.5 0.1,1.9 1.6,3.2 3.5,3.1 1.9,-0.1 3.3,-1.7 3.1,-3.6 z"
         id="path100"
         inkscape:connector-curvature="0"
         style="fill:#d4f7f5" /><path
         class="st1"
         d="m 248.2,325 c -1.8,0.1 -3.2,1.7 -3.1,3.5 0.1,1.8 1.6,3.1 3.4,3.1 1.8,-0.1 3.3,-1.8 3.1,-3.6 0,-1.7 -1.6,-3.1 -3.4,-3 z"
         id="path102"
         inkscape:connector-curvature="0"
         style="fill:#d4f7f5" /><path
         class="st1"
         d="m 71.6,308.3 c 0.1,1.8 1.7,3.3 3.5,3.1 1.8,-0.1 3.1,-1.6 3,-3.4 -0.1,-1.8 -1.5,-3.2 -3.3,-3.2 -1.8,0.1 -3.3,1.7 -3.2,3.5 z"
         id="path104"
         inkscape:connector-curvature="0"
         style="fill:#d4f7f5" /><path
         class="st1"
         d="m 124.1,312 c -0.1,-1.8 -1.8,-3.2 -3.6,-3.1 -1.8,0.2 -3,1.7 -2.9,3.5 0.1,1.8 1.7,3.1 3.4,3 1.8,-0.1 3.2,-1.7 3.1,-3.4 z"
         id="path106"
         inkscape:connector-curvature="0"
         style="fill:#d4f7f5" /><path
         class="st1"
         d="m 101,309.9 c -0.1,-1.7 -1.7,-3.1 -3.4,-3 -1.8,0.1 -3.2,1.5 -3.1,3.3 0,1.9 1.5,3.3 3.4,3.2 1.8,-0.1 3.3,-1.8 3.1,-3.5 z"
         id="path108"
         inkscape:connector-curvature="0"
         style="fill:#d4f7f5" /><path
         class="st1"
         d="m 146.8,313.9 c -0.2,-1.7 -1.6,-3 -3.4,-2.8 -1.8,0.1 -3.2,1.6 -3,3.4 0.1,1.8 1.7,3.1 3.5,2.9 1.8,-0.2 3.1,-1.7 2.9,-3.5 z"
         id="path110"
         inkscape:connector-curvature="0"
         style="fill:#d4f7f5" /><path
         class="st1"
         d="m -10.2,296.4 c 0.1,1.7 1.7,3.1 3.5,3 1.7,-0.2 3.1,-1.8 2.9,-3.5 -0.2,-1.7 -1.7,-3 -3.3,-2.9 -1.8,0.1 -3.2,1.7 -3.1,3.4 z"
         id="path112"
         inkscape:connector-curvature="0"
         style="fill:#d4f7f5" /><path
         class="st1"
         d="m 169.7,316.1 c -0.1,-1.7 -1.6,-3 -3.3,-3 -1.7,0 -3.2,1.6 -3.1,3.4 0.1,1.8 1.6,3.2 3.4,3.1 1.7,-0.2 3.1,-1.8 3,-3.5 z"
         id="path114"
         inkscape:connector-curvature="0"
         style="fill:#d4f7f5" /><path
         class="st1"
         d="m 35.6,300.5 c 0.1,1.7 1.6,3.1 3.3,3 1.7,-0.1 3.1,-1.6 3,-3.3 -0.1,-1.8 -1.6,-3.2 -3.4,-3.1 -1.7,0.2 -3,1.7 -2.9,3.4 z"
         id="path116"
         inkscape:connector-curvature="0"
         style="fill:#d4f7f5" /><path
         class="st1"
         d="m 212.1,317.3 c -1.7,0 -3.2,1.7 -3,3.4 0.1,1.7 1.7,3 3.3,2.9 1.7,-0.1 3,-1.6 2.9,-3.3 0,-1.7 -1.4,-3.1 -3.2,-3 z"
         id="path118"
         inkscape:connector-curvature="0"
         style="fill:#d4f7f5" /><path
         class="st1"
         d="m -26.6,294 c -0.1,-1.8 -1.6,-3.1 -3.4,-3 -1.9,0.1 -2.7,1.2 -2.6,3.3 0.1,2.2 1,3.1 2.9,3 1.8,-0.1 3.2,-1.6 3.1,-3.3 z"
         id="path120"
         inkscape:connector-curvature="0"
         style="fill:#d4f7f5" /><path
         class="st1"
         d="m 192.6,318.2 c -0.1,-1.8 -1.6,-3.1 -3.5,-2.9 -1.7,0.1 -3,1.6 -2.9,3.3 0.1,1.7 1.5,3 3.3,2.9 1.8,-0.1 3.2,-1.5 3.1,-3.3 z"
         id="path122"
         inkscape:connector-curvature="0"
         style="fill:#d4f7f5" /><path
         class="st1"
         d="m 12.7,298.5 c 0.1,1.7 1.6,3 3.3,2.9 1.8,-0.1 3.1,-1.6 3,-3.4 -0.1,-1.7 -1.6,-3 -3.3,-2.9 -1.8,0.1 -3.1,1.6 -3,3.4 z"
         id="path124"
         inkscape:connector-curvature="0"
         style="fill:#d4f7f5" /><path
         class="st1"
         d="m 234.9,319.2 c -1.7,0.1 -3,1.6 -2.8,3.4 0.1,1.7 1.6,3 3.3,2.9 1.7,-0.1 3,-1.6 3,-3.3 -0.2,-1.7 -1.8,-3.1 -3.5,-3 z"
         id="path126"
         inkscape:connector-curvature="0"
         style="fill:#d4f7f5" /><path
         class="st1"
         d="m 58.5,302.4 c 0.1,1.7 1.6,3.1 3.2,3 1.7,-0.1 3,-1.5 2.9,-3.2 -0.1,-1.7 -1.5,-3.1 -3.2,-3 -1.6,0 -3,1.5 -2.9,3.2 z"
         id="path128"
         inkscape:connector-curvature="0"
         style="fill:#d4f7f5" /><path
         class="st1"
         d="m 81.4,304.5 c 0.1,1.7 1.4,2.9 3.1,2.9 1.7,0 3.1,-1.5 3.1,-3.2 0,-1.7 -1.5,-3.1 -3.2,-3 -1.8,0.1 -3.1,1.5 -3,3.3 z"
         id="path130"
         inkscape:connector-curvature="0"
         style="fill:#d4f7f5" /><path
         class="st1"
         d="m 257.8,321.3 c -1.7,0.1 -3,1.6 -2.9,3.3 0.1,1.7 1.6,3 3.3,2.9 1.7,-0.1 3,-1.5 2.9,-3.3 -0.2,-1.7 -1.6,-3 -3.3,-2.9 z"
         id="path132"
         inkscape:connector-curvature="0"
         style="fill:#d4f7f5" /><path
         class="st1"
         d="m 280.6,323.4 c -1.7,0.1 -3,1.6 -2.8,3.3 0.1,1.7 1.6,3 3.3,2.8 1.6,-0.2 2.9,-1.6 2.8,-3.2 0,-1.6 -1.6,-3 -3.3,-2.9 z"
         id="path134"
         inkscape:connector-curvature="0"
         style="fill:#d4f7f5" /><path
         class="st1"
         d="m 303.7,325.5 c -1.7,0 -3.1,1.5 -3,3.2 0.1,1.6 1.5,2.9 3.1,2.9 1.7,0 3.1,-1.5 3,-3.2 -0.1,-1.6 -1.5,-2.9 -3.1,-2.9 z"
         id="path136"
         inkscape:connector-curvature="0"
         style="fill:#d4f7f5" /><path
         class="st1"
         d="m 133.3,308.3 c -0.1,-1.7 -1.6,-3 -3.3,-2.9 -1.6,0.1 -2.9,1.5 -2.8,3.2 0.1,1.7 1.6,3 3.3,2.9 1.5,-0.1 2.8,-1.6 2.8,-3.2 z"
         id="path138"
         inkscape:connector-curvature="0"
         style="fill:#d4f7f5" /><path
         class="st1"
         d="m 104.3,306.6 c 0.1,1.7 1.6,3 3.3,2.9 1.7,-0.1 2.9,-1.5 2.8,-3.2 -0.1,-1.7 -1.4,-2.9 -3.1,-2.9 -1.8,0 -3.1,1.5 -3,3.2 z"
         id="path140"
         inkscape:connector-curvature="0"
         style="fill:#d4f7f5" /><path
         class="st1"
         d="m 156.1,310.4 c -0.1,-1.7 -1.6,-3 -3.3,-2.8 -1.6,0.2 -2.9,1.6 -2.7,3.2 0.2,1.6 1.6,2.8 3.3,2.7 1.6,-0.1 2.8,-1.5 2.7,-3.1 z"
         id="path142"
         inkscape:connector-curvature="0"
         style="fill:#d4f7f5" /><path
         class="st1"
         d="m -23.2,290.7 c 0.1,1.7 1.6,2.8 3.2,2.7 1.7,-0.1 2.9,-1.5 2.7,-3.2 -0.1,-1.7 -1.5,-2.8 -3.2,-2.7 -1.6,0.1 -2.9,1.5 -2.7,3.2 z"
         id="path144"
         inkscape:connector-curvature="0"
         style="fill:#d4f7f5" /><path
         class="st1"
         d="m -0.4,292.5 c 0.1,1.7 1.5,2.9 3.2,2.8 1.6,-0.1 2.8,-1.4 2.7,-3 -0.1,-1.7 -1.4,-2.9 -3.1,-2.9 -1.6,0.1 -2.9,1.5 -2.8,3.1 z"
         id="path146"
         inkscape:connector-curvature="0"
         style="fill:#d4f7f5" /><path
         class="st1"
         d="m 179.1,312.3 c -0.1,-1.7 -1.5,-2.9 -3.2,-2.8 -1.6,0.1 -2.8,1.4 -2.8,3 0,1.7 1.4,2.9 3.1,2.9 1.7,-0.1 3,-1.5 2.9,-3.1 z"
         id="path148"
         inkscape:connector-curvature="0"
         style="fill:#d4f7f5" /><path
         class="st1"
         d="m 224.8,316.4 c -0.1,-1.6 -1.5,-2.8 -3.1,-2.7 -1.6,0.1 -2.8,1.3 -2.8,2.9 0,1.7 1.4,3 3,2.9 1.7,-0.1 3,-1.5 2.9,-3.1 z"
         id="path150"
         inkscape:connector-curvature="0"
         style="fill:#d4f7f5" /><path
         class="st1"
         d="m 201.9,314.2 c -0.1,-1.6 -1.5,-2.8 -3.1,-2.7 -1.6,0.1 -2.9,1.6 -2.8,3.2 0.1,1.6 1.6,2.9 3.2,2.8 1.7,-0.2 2.9,-1.6 2.7,-3.3 z"
         id="path152"
         inkscape:connector-curvature="0"
         style="fill:#d4f7f5" /><path
         class="st1"
         d="m 45.4,296.7 c 0.1,1.6 1.5,2.8 3,2.7 1.6,-0.1 2.8,-1.3 2.8,-2.9 0,-1.7 -1.4,-3 -3,-2.9 -1.6,0.1 -2.9,1.5 -2.8,3.1 z"
         id="path154"
         inkscape:connector-curvature="0"
         style="fill:#d4f7f5" /><path
         class="st1"
         d="m 22.6,294.6 c 0.1,1.7 1.5,2.9 3.1,2.8 1.6,-0.1 2.9,-1.6 2.7,-3.2 -0.1,-1.5 -1.5,-2.8 -3.1,-2.7 -1.6,0 -2.8,1.4 -2.7,3.1 z"
         id="path156"
         inkscape:connector-curvature="0"
         style="fill:#d4f7f5" /><path
         class="st1"
         d="m 247.6,318.6 c -0.1,-1.7 -1.4,-3 -3.1,-2.8 -1.6,0.1 -2.8,1.5 -2.7,3.1 0.1,1.5 1.5,2.8 3,2.7 1.6,-0.1 2.8,-1.4 2.8,-3 z"
         id="path158"
         inkscape:connector-curvature="0"
         style="fill:#d4f7f5" /><path
         class="st1"
         d="m 68.3,298.6 c 0,1.6 1.3,2.9 2.9,2.8 1.6,0 3,-1.4 2.9,-3.1 -0.1,-1.5 -1.5,-2.8 -3,-2.8 -1.6,0.2 -2.8,1.5 -2.8,3.1 z"
         id="path160"
         inkscape:connector-curvature="0"
         style="fill:#d4f7f5" /><path
         class="st1"
         d="m 267.3,317.9 c -1.6,0.2 -2.7,1.6 -2.6,3.1 0.1,1.6 1.5,2.7 3.1,2.6 1.5,-0.1 2.8,-1.5 2.7,-3.1 -0.1,-1.5 -1.6,-2.8 -3.2,-2.6 z"
         id="path162"
         inkscape:connector-curvature="0"
         style="fill:#d4f7f5" /><path
         class="st1"
         d="m 91.2,300.8 c 0.1,1.5 1.5,2.8 3,2.7 1.6,-0.1 2.8,-1.4 2.7,-3 -0.1,-1.6 -1.4,-2.8 -3,-2.7 -1.5,0.1 -2.8,1.5 -2.7,3 z"
         id="path164"
         inkscape:connector-curvature="0"
         style="fill:#d4f7f5" /><path
         class="st1"
         d="m 290.2,319.8 c -1.5,0.1 -2.8,1.6 -2.6,3.1 0.1,1.5 1.6,2.8 3.1,2.6 1.6,-0.2 2.7,-1.6 2.5,-3.2 -0.1,-1.5 -1.5,-2.6 -3,-2.5 z"
         id="path166"
         inkscape:connector-curvature="0"
         style="fill:#d4f7f5" /><path
         class="st1"
         d="m 114.1,302.9 c 0.1,1.6 1.5,2.7 3.1,2.6 1.5,-0.1 2.7,-1.4 2.6,-2.9 -0.1,-1.6 -1.4,-2.8 -3,-2.7 -1.6,0.1 -2.8,1.4 -2.7,3 z"
         id="path168"
         inkscape:connector-curvature="0"
         style="fill:#d4f7f5" /><path
         class="st1"
         d="m 165.4,306.7 c 0,-1.6 -1.3,-2.9 -2.9,-2.8 -1.5,0.1 -2.7,1.4 -2.7,2.9 0,1.5 1.3,2.7 2.8,2.7 1.6,0 2.8,-1.3 2.8,-2.8 z"
         id="path170"
         inkscape:connector-curvature="0"
         style="fill:#d4f7f5" /><path
         class="st1"
         d="m 335.9,324 c -1.5,0.1 -2.6,1.5 -2.5,3 0.1,1.5 1.4,2.7 2.9,2.6 1.5,-0.1 2.8,-1.5 2.6,-3.1 -0.1,-1.5 -1.5,-2.6 -3,-2.5 z"
         id="path172"
         inkscape:connector-curvature="0"
         style="fill:#d4f7f5" /><path
         class="st1"
         d="m 137,304.9 c 0.1,1.5 1.4,2.6 3,2.5 1.6,-0.1 2.8,-1.4 2.7,-3 -0.1,-1.5 -1.4,-2.6 -3,-2.5 -1.7,0 -2.8,1.4 -2.7,3 z"
         id="path174"
         inkscape:connector-curvature="0"
         style="fill:#d4f7f5" /><path
         class="st1"
         d="m 313,321.9 c -1.5,0.2 -2.6,1.5 -2.5,3 0.1,1.6 1.5,2.7 3.1,2.6 1.5,-0.2 2.6,-1.5 2.5,-3 -0.1,-1.6 -1.5,-2.7 -3.1,-2.6 z"
         id="path176"
         inkscape:connector-curvature="0"
         style="fill:#d4f7f5" /><path
         class="st1"
         d="m -13.6,286.8 c 0.1,1.5 1.4,2.7 2.9,2.6 1.5,-0.1 2.7,-1.5 2.6,-2.9 -0.1,-1.5 -1.4,-2.7 -2.9,-2.6 -1.5,0 -2.7,1.3 -2.6,2.9 z"
         id="path178"
         inkscape:connector-curvature="0"
         style="fill:#d4f7f5" /><path
         class="st1"
         d="m 9.3,288.8 c 0.1,1.5 1.4,2.7 2.9,2.6 1.5,-0.1 2.7,-1.3 2.6,-2.8 -0.1,-1.6 -1.3,-2.7 -2.8,-2.6 -1.6,0 -2.8,1.3 -2.7,2.8 z"
         id="path180"
         inkscape:connector-curvature="0"
         style="fill:#d4f7f5" /><path
         class="st1"
         d="m 188.3,308.6 c -0.1,-1.5 -1.4,-2.7 -2.9,-2.6 -1.5,0.1 -2.7,1.3 -2.6,2.9 0.1,1.5 1.3,2.7 2.9,2.6 1.5,-0.1 2.7,-1.4 2.6,-2.9 z"
         id="path182"
         inkscape:connector-curvature="0"
         style="fill:#d4f7f5" /><path
         class="st1"
         d="m 32.3,290.9 c 0.1,1.5 1.5,2.7 2.9,2.5 1.5,-0.1 2.6,-1.4 2.5,-3 -0.1,-1.5 -1.3,-2.5 -2.8,-2.5 -1.4,0.2 -2.6,1.5 -2.6,3 z"
         id="path184"
         inkscape:connector-curvature="0"
         style="fill:#d4f7f5" /><path
         class="st1"
         d="m 211.1,310.6 c -0.1,-1.5 -1.4,-2.5 -2.8,-2.4 -1.5,0.1 -2.7,1.4 -2.6,2.9 0.1,1.5 1.5,2.6 3,2.5 1.5,-0.2 2.5,-1.5 2.4,-3 z"
         id="path186"
         inkscape:connector-curvature="0"
         style="fill:#d4f7f5" /><path
         class="st1"
         d="m 58.1,295.5 c 1.5,-0.1 2.7,-1.4 2.6,-2.9 -0.1,-1.5 -1.5,-2.6 -3,-2.5 -1.4,0.2 -2.5,1.4 -2.4,2.9 0.1,1.5 1.3,2.6 2.8,2.5 z"
         id="path188"
         inkscape:connector-curvature="0"
         style="fill:#d4f7f5" /><path
         class="st1"
         d="m 234,312.7 c -0.1,-1.4 -1.4,-2.5 -2.9,-2.5 -1.5,0.1 -2.7,1.4 -2.5,2.9 0.1,1.5 1.4,2.6 2.8,2.5 1.5,0 2.7,-1.4 2.6,-2.9 z"
         id="path190"
         inkscape:connector-curvature="0"
         style="fill:#d4f7f5" /><path
         class="st1"
         d="m 257,314.6 c -0.1,-1.4 -1.4,-2.6 -2.8,-2.5 -1.4,0.1 -2.6,1.4 -2.5,2.8 0.1,1.4 1.4,2.6 2.8,2.5 1.4,0 2.6,-1.3 2.5,-2.8 z"
         id="path192"
         inkscape:connector-curvature="0"
         style="fill:#d4f7f5" /><path
         class="st1"
         d="m 78.1,294.9 c 0.1,1.4 1.4,2.6 2.8,2.5 1.4,-0.1 2.6,-1.4 2.5,-2.8 -0.1,-1.4 -1.4,-2.6 -2.8,-2.5 -1.4,0 -2.5,1.4 -2.5,2.8 z"
         id="path194"
         inkscape:connector-curvature="0"
         style="fill:#d4f7f5" /><path
         class="st1"
         d="m 279.8,316.6 c -0.2,-1.4 -1.3,-2.4 -2.8,-2.3 -1.5,0.1 -2.6,1.3 -2.5,2.8 0.1,1.5 1.3,2.5 2.9,2.4 1.5,-0.2 2.5,-1.4 2.4,-2.9 z"
         id="path196"
         inkscape:connector-curvature="0"
         style="fill:#d4f7f5" /><path
         class="st1"
         d="m 101.1,297 c 0.1,1.4 1.3,2.4 2.7,2.4 1.5,-0.1 2.6,-1.2 2.5,-2.7 -0.1,-1.5 -1.3,-2.6 -2.8,-2.5 -1.5,0.1 -2.6,1.3 -2.4,2.8 z"
         id="path198"
         inkscape:connector-curvature="0"
         style="fill:#d4f7f5" /><path
         class="st1"
         d="m 124,299 c 0.1,1.4 1.3,2.5 2.7,2.5 1.4,0 2.6,-1.4 2.5,-2.8 -0.1,-1.4 -1.4,-2.6 -2.9,-2.4 -1.4,0.1 -2.4,1.4 -2.3,2.7 z"
         id="path200"
         inkscape:connector-curvature="0"
         style="fill:#d4f7f5" /><path
         class="st1"
         d="m 302.6,318.6 c -0.2,-1.4 -1.4,-2.4 -2.8,-2.3 -1.4,0.1 -2.5,1.5 -2.3,2.9 0.2,1.4 1.5,2.4 2.8,2.3 1.4,0 2.5,-1.4 2.3,-2.9 z"
         id="path202"
         inkscape:connector-curvature="0"
         style="fill:#d4f7f5" /><path
         class="st1"
         d="m 146.8,301.1 c 0.1,1.4 1.3,2.4 2.7,2.4 1.5,-0.1 2.5,-1.3 2.4,-2.8 -0.1,-1.4 -1.3,-2.4 -2.7,-2.3 -1.4,0.1 -2.4,1.4 -2.4,2.7 z"
         id="path204"
         inkscape:connector-curvature="0"
         style="fill:#d4f7f5" /><path
         class="st1"
         d="m -23.9,283.4 c 1.4,-0.1 2.4,-1.3 2.4,-2.7 -0.1,-1.4 -1.4,-2.5 -2.8,-2.4 -1.4,0.2 -2.4,1.3 -2.2,2.8 0,1.4 1.2,2.4 2.6,2.3 z"
         id="path206"
         inkscape:connector-curvature="0"
         style="fill:#d4f7f5" /><path
         class="st1"
         d="m 322.8,318.5 c -1.4,0.1 -2.4,1.2 -2.4,2.6 0,1.5 1.2,2.6 2.7,2.5 1.4,-0.1 2.6,-1.4 2.4,-2.8 -0.1,-1.3 -1.4,-2.4 -2.7,-2.3 z"
         id="path208"
         inkscape:connector-curvature="0"
         style="fill:#d4f7f5" /><path
         class="st1"
         d="m 21.7,287.5 c 1.4,0 2.5,-1.3 2.4,-2.6 -0.1,-1.4 -1.3,-2.5 -2.7,-2.4 -1.3,0.1 -2.3,1.2 -2.3,2.5 0.1,1.4 1.2,2.6 2.6,2.5 z"
         id="path210"
         inkscape:connector-curvature="0"
         style="fill:#d4f7f5" /><path
         class="st1"
         d="m -3.8,283.1 c 0.1,1.3 1.3,2.4 2.7,2.3 1.4,-0.1 2.4,-1.2 2.3,-2.6 -0.1,-1.4 -1.2,-2.4 -2.6,-2.3 -1.4,0 -2.5,1.2 -2.4,2.6 z"
         id="path212"
         inkscape:connector-curvature="0"
         style="fill:#d4f7f5" /><path
         class="st1"
         d="m -28,317.1 c 0,-2.1 -1.1,-3.5 -3.4,-3.9 l 0.4,7.3 c 1.8,-0.2 3,-1.5 3,-3.4 z"
         id="path214"
         inkscape:connector-curvature="0"
         style="fill:#d4f7f5" /><path
         class="st1"
         d="m 169.8,303.3 c 0.1,1.4 1.3,2.4 2.7,2.2 1.4,-0.1 2.4,-1.4 2.3,-2.7 -0.1,-1.4 -1.4,-2.4 -2.8,-2.3 -1.4,0.2 -2.3,1.3 -2.2,2.8 z"
         id="path216"
         inkscape:connector-curvature="0"
         style="fill:#d4f7f5" /><path
         class="st1"
         d="m 44.6,289.4 c 1.3,-0.1 2.4,-1.2 2.3,-2.5 0,-1.4 -1.3,-2.5 -2.6,-2.4 -1.3,0.1 -2.3,1.3 -2.2,2.6 0.1,1.3 1.2,2.3 2.5,2.3 z"
         id="path218"
         inkscape:connector-curvature="0"
         style="fill:#d4f7f5" /><path
         class="st1"
         d="m 194.9,302.5 c -1.4,0.1 -2.5,1.3 -2.3,2.7 0.1,1.4 1.4,2.4 2.8,2.2 1.3,-0.1 2.3,-1.2 2.2,-2.6 -0.1,-1.4 -1.2,-2.4 -2.7,-2.3 z"
         id="path220"
         inkscape:connector-curvature="0"
         style="fill:#d4f7f5" /><path
         class="st1"
         d="m 220.4,306.9 c -0.1,-1.3 -1.2,-2.4 -2.5,-2.3 -1.3,0 -2.4,1.2 -2.3,2.5 0,1.4 1.3,2.5 2.6,2.4 1.3,-0.1 2.3,-1.3 2.2,-2.6 z"
         id="path222"
         inkscape:connector-curvature="0"
         style="fill:#d4f7f5" /><path
         class="st1"
         d="m 67.5,291.4 c 1.4,-0.1 2.3,-1.2 2.3,-2.5 -0.1,-1.4 -1.2,-2.3 -2.5,-2.3 -1.3,0.1 -2.4,1.2 -2.3,2.5 0,1.3 1.2,2.3 2.5,2.3 z"
         id="path224"
         inkscape:connector-curvature="0"
         style="fill:#d4f7f5" /><path
         class="st1"
         d="m 243.3,308.9 c -0.1,-1.3 -1.3,-2.3 -2.6,-2.2 -1.4,0.1 -2.3,1.2 -2.2,2.6 0.1,1.4 1.2,2.3 2.6,2.2 1.3,-0.2 2.3,-1.3 2.2,-2.6 z"
         id="path226"
         inkscape:connector-curvature="0"
         style="fill:#d4f7f5" /><path
         class="st1"
         d="m 90.4,293.5 c 1.3,-0.1 2.3,-1.4 2.2,-2.6 -0.1,-1.3 -1.4,-2.3 -2.7,-2.1 -1.3,0.2 -2.1,1.3 -2.1,2.5 0.2,1.3 1.3,2.3 2.6,2.2 z"
         id="path228"
         inkscape:connector-curvature="0"
         style="fill:#d4f7f5" /><path
         class="st1"
         d="m 266.1,310.9 c -0.1,-1.3 -1.2,-2.2 -2.5,-2.1 -1.3,0.1 -2.4,1.3 -2.3,2.6 0.1,1.3 1.3,2.3 2.6,2.2 1.4,-0.2 2.3,-1.3 2.2,-2.7 z"
         id="path230"
         inkscape:connector-curvature="0"
         style="fill:#d4f7f5" /><path
         class="st1"
         d="m 289,313 c -0.1,-1.2 -1.2,-2.2 -2.5,-2.2 -1.3,0.1 -2.2,1.1 -2.2,2.4 0,1.4 1.1,2.4 2.5,2.3 1.2,0 2.3,-1.2 2.2,-2.5 z"
         id="path232"
         inkscape:connector-curvature="0"
         style="fill:#d4f7f5" /><path
         class="st1"
         d="m 111,293.4 c 0.1,1.3 1.2,2.2 2.5,2.1 1.2,-0.1 2.2,-1.3 2.2,-2.5 -0.1,-1.3 -1.4,-2.3 -2.6,-2.2 -1.4,0.2 -2.3,1.3 -2.1,2.6 z"
         id="path234"
         inkscape:connector-curvature="0"
         style="fill:#d4f7f5" /><path
         class="st1"
         d="m 312,315 c -0.1,-1.2 -1.3,-2.2 -2.5,-2.2 -1.3,0.1 -2.2,1.2 -2.1,2.5 0.1,1.3 1.2,2.2 2.5,2.2 1.1,-0.2 2.1,-1.3 2.1,-2.5 z"
         id="path236"
         inkscape:connector-curvature="0"
         style="fill:#d4f7f5" /><path
         class="st1"
         d="m 136.3,297.5 c 1.3,-0.1 2.2,-1.2 2.1,-2.5 -0.1,-1.3 -1.2,-2.2 -2.5,-2.1 -1.3,0.1 -2.2,1.2 -2.1,2.5 0.1,1.3 1.2,2.2 2.5,2.1 z"
         id="path238"
         inkscape:connector-curvature="0"
         style="fill:#d4f7f5" /><path
         class="st1"
         d="m 334.7,317 c -0.1,-1.3 -1.2,-2.2 -2.5,-2 -1.2,0.1 -2.1,1.1 -2,2.4 0.1,1.2 1.1,2.1 2.3,2.1 1.4,-0.1 2.3,-1.2 2.2,-2.5 z"
         id="path240"
         inkscape:connector-curvature="0"
         style="fill:#d4f7f5" /><path
         class="st1"
         d="m 159.2,299.3 c 1.2,-0.1 2.1,-1.1 2,-2.3 -0.1,-1.3 -1.1,-2.2 -2.4,-2.1 -1.2,0.1 -2.1,1.1 -2,2.3 0,1.3 1.1,2.2 2.4,2.1 z"
         id="path242"
         inkscape:connector-curvature="0"
         style="fill:#d4f7f5" /><path
         class="st1"
         d="m 346.6,320.9 c -1.5,-0.4 -2.3,-0.1 -3,0.9 -0.6,1 -0.6,2.1 0.2,3 0.7,0.9 1.6,1.1 3.1,0.5 z"
         id="path244"
         inkscape:connector-curvature="0"
         style="fill:#d4f7f5" /><path
         class="st1"
         d="m 204.9,303.4 c 1.2,-0.1 2.1,-1.1 2,-2.3 -0.1,-1.2 -1.2,-2.1 -2.4,-2 -1.1,0.1 -2,1.2 -1.9,2.2 0,1.2 1.1,2.2 2.3,2.1 z"
         id="path246"
         inkscape:connector-curvature="0"
         style="fill:#d4f7f5" /><path
         class="st1"
         d="m 8.5,281.3 c 1.2,-0.1 2.1,-1.1 2,-2.3 -0.1,-1.2 -1.1,-2.1 -2.3,-2.1 -1.2,0.1 -2.1,1.1 -2.1,2.3 0.1,1.2 1.2,2.1 2.4,2.1 z"
         id="path248"
         inkscape:connector-curvature="0"
         style="fill:#d4f7f5" /><path
         class="st1"
         d="m 181.9,301.4 c 1.2,0 2.2,-1.1 2.1,-2.3 0,-1.2 -1.1,-2.1 -2.3,-2.1 -1.2,0 -2.1,1 -2.1,2.2 0.1,1.3 1.1,2.2 2.3,2.2 z"
         id="path250"
         inkscape:connector-curvature="0"
         style="fill:#d4f7f5" /><path
         class="st1"
         d="m 31.4,283.3 c 1.1,-0.1 2,-1.1 2,-2.2 0,-1.2 -1.1,-2.2 -2.3,-2.1 -1.2,0 -2.1,1.1 -2,2.3 0.1,1.2 1.1,2.1 2.3,2 z"
         id="path252"
         inkscape:connector-curvature="0"
         style="fill:#d4f7f5" /><path
         class="st1"
         d="m -14.4,279.2 c 1.2,-0.1 2.1,-1.1 2.1,-2.3 0,-1.3 -1.1,-2.2 -2.4,-2.1 -1.2,0.1 -2.1,1.1 -2,2.3 0.1,1.3 1.1,2.2 2.3,2.1 z"
         id="path254"
         inkscape:connector-curvature="0"
         style="fill:#d4f7f5" /><path
         class="st1"
         d="m 227.8,305.4 c 1.1,-0.1 2,-1.1 1.9,-2.2 -0.1,-1.2 -1.2,-2.1 -2.4,-1.9 -1.1,0.1 -2,1.1 -1.9,2.2 0.2,1.2 1.2,2 2.4,1.9 z"
         id="path256"
         inkscape:connector-curvature="0"
         style="fill:#d4f7f5" /><path
         class="st1"
         d="m 54.2,285.3 c 1.2,-0.1 2,-1 1.9,-2.2 -0.1,-1.2 -1.1,-2.1 -2.3,-1.9 -1.1,0.1 -2,1.1 -1.8,2.2 0.1,1.2 1.1,2 2.2,1.9 z"
         id="path258"
         inkscape:connector-curvature="0"
         style="fill:#d4f7f5" /><path
         class="st1"
         d="m 250.7,307.5 c 1.1,-0.2 1.9,-1.2 1.8,-2.3 -0.1,-1.1 -1.2,-1.9 -2.3,-1.8 -1.1,0.2 -1.9,1.2 -1.8,2.3 0.2,1.1 1.3,1.9 2.3,1.8 z"
         id="path260"
         inkscape:connector-curvature="0"
         style="fill:#d4f7f5" /><path
         class="st1"
         d="m 77,287.4 c 1.1,0 2,-1 2,-2.1 0,-1.1 -1,-2.1 -2.1,-2 -1.1,0 -2,1 -2,2.1 0,1.1 1,2 2.1,2 z"
         id="path262"
         inkscape:connector-curvature="0"
         style="fill:#d4f7f5" /><path
         class="st1"
         d="m 275.3,307.4 c 0,-1.2 -0.9,-2.1 -2,-2 -1.1,0 -2,1 -2,2.1 0.1,1 1,1.9 2,1.9 1.1,-0.1 2,-1 2,-2 z"
         id="path264"
         inkscape:connector-curvature="0"
         style="fill:#d4f7f5" /><path
         class="st1"
         d="m 100,289.2 c 1,-0.1 1.9,-1 1.8,-2.1 0,-1.1 -1.1,-2 -2.2,-1.9 -1.1,0.1 -1.9,1 -1.8,2.1 0.1,1.1 1,2 2.2,1.9 z"
         id="path266"
         inkscape:connector-curvature="0"
         style="fill:#d4f7f5" /><path
         class="st1"
         d="m 298.2,309.3 c 0,-1.1 -1.1,-2 -2.2,-1.9 -1,0.1 -1.8,1 -1.8,2.1 0.1,1.1 1,1.9 2.1,1.8 1,0 1.9,-1 1.9,-2 z"
         id="path268"
         inkscape:connector-curvature="0"
         style="fill:#d4f7f5" /><path
         class="st1"
         d="m 122.8,291.3 c 1,-0.1 1.9,-1 1.8,-2.1 0,-1.1 -0.9,-1.9 -2,-1.9 -1.1,0 -2,1.1 -1.9,2.1 0.1,1.1 1.1,1.9 2.1,1.9 z"
         id="path270"
         inkscape:connector-curvature="0"
         style="fill:#d4f7f5" /><path
         class="st1"
         d="m 321,311.3 c -0.1,-1 -0.9,-1.8 -1.9,-1.7 -1.1,0 -2,0.9 -1.9,2 0,1.1 1,1.9 2.1,1.8 1,-0.1 1.8,-1 1.7,-2.1 z"
         id="path272"
         inkscape:connector-curvature="0"
         style="fill:#d4f7f5" /><path
         class="st1"
         d="m 145.6,293.3 c 1.1,0 1.9,-0.9 1.9,-2 -0.1,-1.1 -1,-1.9 -2.1,-1.8 -1,0.1 -1.8,0.9 -1.8,1.9 0,1.1 0.9,1.9 2,1.9 z"
         id="path274"
         inkscape:connector-curvature="0"
         style="fill:#d4f7f5" /><path
         class="st1"
         d="m 343.8,313.5 c 0,-1.1 -1,-1.9 -2,-1.9 -1,0.1 -1.8,1 -1.8,2 0,1.1 1,1.9 2,1.9 1,-0.1 1.8,-1 1.8,-2 z"
         id="path276"
         inkscape:connector-curvature="0"
         style="fill:#d4f7f5" /><path
         class="st1"
         d="m -27.6,273.1 c 1,-0.1 1.7,-1 1.7,-2 -0.1,-1.1 -1,-1.9 -2.1,-1.7 -1,0.1 -1.7,1 -1.7,2 0.1,1.1 1,1.8 2.1,1.7 z"
         id="path278"
         inkscape:connector-curvature="0"
         style="fill:#d4f7f5" /><path
         class="st1"
         d="m 168.7,295.3 c 1,-0.1 1.8,-1 1.7,-2 -0.1,-1 -0.9,-1.8 -1.9,-1.8 -1,0 -1.8,0.9 -1.8,1.9 0,1.1 1,2 2,1.9 z"
         id="path280"
         inkscape:connector-curvature="0"
         style="fill:#d4f7f5" /><path
         class="st1"
         d="m -4.8,275.2 c 1,-0.1 1.8,-1 1.7,-2 0,-1 -1.1,-1.9 -2.1,-1.8 -1,0.1 -1.7,1 -1.6,2 0.2,1.1 1,1.9 2,1.8 z"
         id="path282"
         inkscape:connector-curvature="0"
         style="fill:#d4f7f5" /><path
         class="st1"
         d="m 18,277.2 c 1,0 1.8,-0.8 1.8,-1.9 0,-1 -0.8,-1.8 -1.8,-1.8 -1,0 -1.8,0.9 -1.8,1.9 -0.1,1 0.8,1.8 1.8,1.8 z"
         id="path284"
         inkscape:connector-curvature="0"
         style="fill:#d4f7f5" /><path
         class="st1"
         d="m 191.6,297.3 c 1,-0.1 1.8,-1 1.7,-2 -0.1,-1 -1,-1.7 -2,-1.7 -1,0.1 -1.7,0.9 -1.6,2 0.1,1.1 0.9,1.8 1.9,1.7 z"
         id="path286"
         inkscape:connector-curvature="0"
         style="fill:#d4f7f5" /><path
         class="st1"
         d="m 214.3,299.2 c 1,0 1.8,-0.8 1.8,-1.9 0,-1 -0.8,-1.7 -1.7,-1.7 -1,0 -1.9,0.9 -1.8,1.9 -0.1,0.9 0.8,1.7 1.7,1.7 z"
         id="path288"
         inkscape:connector-curvature="0"
         style="fill:#d4f7f5" /><path
         class="st1"
         d="m 63.9,281.1 c 1,-0.1 1.6,-0.9 1.5,-1.9 -0.1,-1 -0.9,-1.6 -1.9,-1.5 -1,0.1 -1.7,0.9 -1.6,1.8 0.1,1 1,1.7 2,1.6 z"
         id="path290"
         inkscape:connector-curvature="0"
         style="fill:#d4f7f5" /><path
         class="st1"
         d="m 41,279.2 c 1,-0.1 1.8,-1 1.7,-2 -0.1,-0.9 -1,-1.6 -1.9,-1.5 -1,0.1 -1.8,0.9 -1.6,2 0,1 0.8,1.6 1.8,1.5 z"
         id="path292"
         inkscape:connector-curvature="0"
         style="fill:#d4f7f5" /><path
         class="st1"
         d="m 237.3,301.2 c 1,-0.1 1.7,-0.8 1.7,-1.8 0,-1 -0.9,-1.8 -2,-1.6 -1,0.1 -1.6,0.9 -1.5,1.9 0,0.9 0.8,1.6 1.8,1.5 z"
         id="path294"
         inkscape:connector-curvature="0"
         style="fill:#d4f7f5" /><path
         class="st1"
         d="m 86.6,283.2 c 0.9,0 1.7,-0.9 1.6,-1.8 0,-0.9 -0.8,-1.7 -1.8,-1.7 -0.9,0 -1.7,0.9 -1.6,1.8 0.1,0.9 0.9,1.7 1.8,1.7 z"
         id="path296"
         inkscape:connector-curvature="0"
         style="fill:#d4f7f5" /><path
         class="st1"
         d="m 259.9,299.8 c -0.9,0.1 -1.7,0.9 -1.6,1.8 0.1,0.9 0.9,1.7 1.8,1.6 0.9,-0.1 1.7,-0.9 1.6,-1.8 0,-0.9 -0.8,-1.6 -1.8,-1.6 z"
         id="path298"
         inkscape:connector-curvature="0"
         style="fill:#d4f7f5" /><path
         class="st1"
         d="m -30.9,284.6 c 0,-1.4 -0.5,-2.1 -2.3,-2.8 l 0.3,5.2 c 1.4,-0.5 1.9,-1.1 2,-2.4 z"
         id="path300"
         inkscape:connector-curvature="0"
         style="fill:#d4f7f5" /><path
         class="st1"
         d="m 305.6,304.1 c -0.9,0.1 -1.5,0.8 -1.4,1.8 0.1,0.9 0.8,1.5 1.7,1.5 0.9,-0.1 1.6,-0.8 1.5,-1.7 0,-1 -0.9,-1.7 -1.8,-1.6 z"
         id="path302"
         inkscape:connector-curvature="0"
         style="fill:#d4f7f5" /><path
         class="st1"
         d="m 132.3,287.2 c 0.9,0 1.6,-0.7 1.6,-1.6 0,-1 -0.8,-1.7 -1.7,-1.7 -0.9,0.1 -1.6,0.9 -1.5,1.7 0,0.9 0.7,1.6 1.6,1.6 z"
         id="path304"
         inkscape:connector-curvature="0"
         style="fill:#d4f7f5" /><path
         class="st1"
         d="m 109.5,285.2 c 1,-0.1 1.7,-0.9 1.6,-1.9 -0.1,-0.9 -0.9,-1.5 -1.8,-1.4 -1,0.1 -1.6,0.9 -1.5,1.8 0.1,0.9 0.8,1.6 1.7,1.5 z"
         id="path306"
         inkscape:connector-curvature="0"
         style="fill:#d4f7f5" /><path
         class="st1"
         d="m 282.9,302 c -1,0 -1.7,0.8 -1.7,1.7 0,0.9 0.9,1.7 1.8,1.6 0.9,-0.1 1.5,-0.8 1.5,-1.7 0,-1 -0.7,-1.6 -1.6,-1.6 z"
         id="path308"
         inkscape:connector-curvature="0"
         style="fill:#d4f7f5" /><path
         class="st1"
         d="m 155.2,289.3 c 0.8,0 1.6,-0.8 1.6,-1.6 0,-0.8 -0.8,-1.6 -1.7,-1.6 -0.9,0 -1.6,0.8 -1.5,1.6 0,0.9 0.7,1.6 1.6,1.6 z"
         id="path310"
         inkscape:connector-curvature="0"
         style="fill:#d4f7f5" /><path
         class="st1"
         d="m -18.3,269.2 c 0.9,0 1.6,-0.7 1.6,-1.6 0,-0.9 -0.7,-1.6 -1.6,-1.6 -0.8,0 -1.6,0.8 -1.6,1.6 -0.1,0.8 0.7,1.6 1.6,1.6 z"
         id="path312"
         inkscape:connector-curvature="0"
         style="fill:#d4f7f5" /><path
         class="st1"
         d="m 328.6,306 c -0.9,0 -1.6,0.8 -1.6,1.6 0,0.9 0.8,1.5 1.7,1.5 0.9,-0.1 1.5,-0.8 1.4,-1.7 0,-0.8 -0.6,-1.4 -1.5,-1.4 z"
         id="path314"
         inkscape:connector-curvature="0"
         style="fill:#d4f7f5" /><path
         class="st1"
         d="m 178.2,291.1 c 0.9,-0.1 1.5,-1 1.4,-1.8 -0.1,-0.8 -0.9,-1.4 -1.7,-1.3 -0.8,0.1 -1.5,1 -1.4,1.8 0.1,0.8 0.9,1.4 1.7,1.3 z"
         id="path316"
         inkscape:connector-curvature="0"
         style="fill:#d4f7f5" /><path
         class="st1"
         d="m 4.6,271.1 c 0.8,0 1.6,-0.9 1.5,-1.7 C 6,268.6 5.2,268 4.5,268 c -0.9,0 -1.5,0.9 -1.4,1.7 0,0.8 0.7,1.4 1.5,1.4 z"
         id="path318"
         inkscape:connector-curvature="0"
         style="fill:#d4f7f5" /><path
         class="st1"
         d="m 201.1,293.2 c 0.8,-0.1 1.4,-0.8 1.3,-1.6 -0.1,-0.9 -0.9,-1.5 -1.8,-1.4 -0.8,0.1 -1.4,0.8 -1.3,1.6 0.1,0.9 0.9,1.5 1.8,1.4 z"
         id="path320"
         inkscape:connector-curvature="0"
         style="fill:#d4f7f5" /><path
         class="st1"
         d="m 50.5,275.2 c 0.9,-0.1 1.5,-0.9 1.4,-1.8 -0.1,-0.8 -0.9,-1.4 -1.7,-1.3 -0.8,0.1 -1.4,0.9 -1.3,1.7 0.1,0.8 0.9,1.4 1.6,1.4 z"
         id="path322"
         inkscape:connector-curvature="0"
         style="fill:#d4f7f5" /><path
         class="st1"
         d="m 27.6,273 c 0.9,0 1.5,-0.7 1.4,-1.5 0,-0.9 -0.7,-1.5 -1.5,-1.4 -0.8,0 -1.5,0.7 -1.5,1.5 0.1,0.8 0.8,1.5 1.6,1.4 z"
         id="path324"
         inkscape:connector-curvature="0"
         style="fill:#d4f7f5" /><path
         class="st1"
         d="m 223.9,295.3 c 0.8,-0.1 1.4,-0.8 1.4,-1.6 0,-0.8 -0.9,-1.6 -1.7,-1.5 -0.8,0.1 -1.4,0.9 -1.3,1.7 0,0.8 0.8,1.4 1.6,1.4 z"
         id="path326"
         inkscape:connector-curvature="0"
         style="fill:#d4f7f5" /><path
         class="st1"
         d="m 246.9,297.3 c 0.8,-0.1 1.4,-0.8 1.3,-1.6 -0.1,-0.8 -0.9,-1.4 -1.7,-1.3 -0.8,0.1 -1.3,0.7 -1.2,1.5 0.1,0.8 0.8,1.4 1.6,1.4 z"
         id="path328"
         inkscape:connector-curvature="0"
         style="fill:#d4f7f5" /><path
         class="st1"
         d="m 269.6,296.4 c -0.8,0 -1.5,0.8 -1.5,1.5 0,0.8 0.8,1.5 1.6,1.4 0.8,0 1.4,-0.8 1.3,-1.6 0,-0.7 -0.6,-1.3 -1.4,-1.3 z"
         id="path330"
         inkscape:connector-curvature="0"
         style="fill:#d4f7f5" /><path
         class="st1"
         d="m 96.3,279.2 c 0.8,-0.1 1.4,-0.9 1.4,-1.6 -0.1,-0.7 -0.8,-1.3 -1.5,-1.3 -0.8,0 -1.5,0.7 -1.4,1.5 0,0.9 0.7,1.5 1.5,1.4 z"
         id="path332"
         inkscape:connector-curvature="0"
         style="fill:#d4f7f5" /><path
         class="st1"
         d="m 73.3,277.2 c 0.8,0 1.4,-0.7 1.4,-1.6 -0.1,-0.8 -0.6,-1.3 -1.4,-1.4 -0.8,0 -1.5,0.7 -1.5,1.5 0,0.8 0.7,1.5 1.5,1.5 z"
         id="path334"
         inkscape:connector-curvature="0"
         style="fill:#d4f7f5" /><path
         class="st1"
         d="m 141.9,283.2 c 0.8,0 1.5,-0.8 1.4,-1.6 -0.1,-0.8 -0.9,-1.4 -1.6,-1.3 -0.7,0.1 -1.3,0.8 -1.2,1.5 0.1,0.8 0.7,1.4 1.4,1.4 z"
         id="path336"
         inkscape:connector-curvature="0"
         style="fill:#d4f7f5" /><path
         class="st1"
         d="m 187.7,287.3 c 0.8,0 1.5,-0.8 1.4,-1.6 -0.1,-0.8 -0.9,-1.4 -1.7,-1.3 -0.7,0.1 -1.2,0.8 -1.2,1.6 0.1,0.8 0.7,1.4 1.5,1.3 z"
         id="path338"
         inkscape:connector-curvature="0"
         style="fill:#d4f7f5" /><path
         class="st1"
         d="m 315.4,300.4 c -0.8,0 -1.5,0.7 -1.5,1.5 0,0.8 0.8,1.5 1.6,1.4 0.7,-0.1 1.3,-0.7 1.3,-1.5 0,-0.7 -0.6,-1.3 -1.4,-1.4 z"
         id="path340"
         inkscape:connector-curvature="0"
         style="fill:#d4f7f5" /><path
         class="st1"
         d="m 164.9,285.2 c 0.8,-0.1 1.3,-0.7 1.2,-1.5 -0.1,-0.8 -0.7,-1.3 -1.5,-1.2 -0.7,0.1 -1.4,0.7 -1.3,1.4 0,0.8 0.8,1.4 1.6,1.3 z"
         id="path342"
         inkscape:connector-curvature="0"
         style="fill:#d4f7f5" /><path
         class="st1"
         d="m 302.2,297.5 c 0.7,-0.1 1.3,-0.8 1.3,-1.5 0,-0.7 -0.8,-1.3 -1.5,-1.3 -0.7,0.1 -1.3,0.7 -1.3,1.5 0.1,0.7 0.8,1.3 1.5,1.3 z"
         id="path344"
         inkscape:connector-curvature="0"
         style="fill:#d4f7f5" /><path
         class="st1"
         d="m 292.4,298.4 c -0.8,0.1 -1.3,0.7 -1.3,1.5 0,0.8 0.7,1.3 1.4,1.3 0.7,0 1.4,-0.7 1.4,-1.4 0.1,-0.8 -0.7,-1.5 -1.5,-1.4 z"
         id="path346"
         inkscape:connector-curvature="0"
         style="fill:#d4f7f5" /><path
         class="st1"
         d="m 338.2,302.5 c -0.8,0 -1.4,0.6 -1.4,1.4 0,0.8 0.6,1.4 1.3,1.4 0.8,0 1.5,-0.7 1.5,-1.5 0,-0.7 -0.6,-1.3 -1.4,-1.3 z"
         id="path348"
         inkscape:connector-curvature="0"
         style="fill:#d4f7f5" /><path
         class="st1"
         d="m 256.2,293.4 c 0.7,0 1.4,-0.7 1.4,-1.4 0,-0.7 -0.6,-1.4 -1.4,-1.4 -0.7,0 -1.4,0.7 -1.4,1.4 0,0.7 0.7,1.4 1.4,1.4 z"
         id="path350"
         inkscape:connector-curvature="0"
         style="fill:#d4f7f5" /><path
         class="st1"
         d="m 119,281.1 c 0.8,0 1.4,-0.5 1.4,-1.3 0.1,-0.9 -0.6,-1.5 -1.4,-1.5 -0.7,0 -1.4,0.7 -1.4,1.4 0,0.7 0.6,1.3 1.4,1.4 z"
         id="path352"
         inkscape:connector-curvature="0"
         style="fill:#d4f7f5" /><path
         class="st1"
         d="m 210.6,289.3 c 0.8,-0.1 1.3,-0.7 1.2,-1.5 -0.1,-0.8 -0.7,-1.3 -1.5,-1.2 -0.8,0.1 -1.3,0.7 -1.2,1.5 0.1,0.8 0.8,1.3 1.5,1.2 z"
         id="path354"
         inkscape:connector-curvature="0"
         style="fill:#d4f7f5" /><path
         class="st1"
         d="m 324.9,296.8 c -0.8,0 -1.4,0.7 -1.3,1.4 0,0.7 0.7,1.3 1.4,1.3 0.8,0 1.3,-0.6 1.3,-1.4 0,-0.7 -0.6,-1.3 -1.4,-1.3 z"
         id="path356"
         inkscape:connector-curvature="0"
         style="fill:#d4f7f5" /><path
         class="st1"
         d="m 233.4,291.2 c 0.8,0 1.4,-0.6 1.3,-1.4 0,-0.7 -0.7,-1.3 -1.4,-1.3 -0.8,0 -1.4,0.6 -1.3,1.4 0,0.8 0.6,1.3 1.4,1.3 z"
         id="path358"
         inkscape:connector-curvature="0"
         style="fill:#d4f7f5" /><path
         class="st1"
         d="m 279.1,295.4 c 0.8,0 1.4,-0.6 1.4,-1.3 0,-0.7 -0.6,-1.3 -1.4,-1.3 -0.8,0 -1.4,0.6 -1.4,1.3 0,0.7 0.6,1.3 1.4,1.3 z"
         id="path360"
         inkscape:connector-curvature="0"
         style="fill:#d4f7f5" /><path
         class="st1"
         d="m 311.3,293.6 c 0.9,0.2 1.3,-0.4 1.5,-1.9 -0.9,-0.1 -1.6,-0.2 -2.4,-0.2 -0.3,1.3 0,2 0.9,2.1 z"
         id="path362"
         inkscape:connector-curvature="0"
         style="fill:#d4f7f5" /><path
         class="st1"
         d="m 334,295.6 c 0.5,0.1 1.2,-0.2 1.5,-0.5 0.6,-0.6 0.3,-1.3 -0.6,-1.5 -0.5,-0.1 -1,-0.1 -1.6,-0.1 -0.4,1.1 -0.2,1.9 0.7,2.1 z"
         id="path364"
         inkscape:connector-curvature="0"
         style="fill:#d4f7f5" /><path
         class="st1"
         d="m -9.1,265.1 c 0.8,0.1 1.4,-0.1 1.7,-1.3 -1,-0.1 -1.8,-0.2 -2.7,-0.2 -0.1,0.9 0.3,1.4 1,1.5 z"
         id="path366"
         inkscape:connector-curvature="0"
         style="fill:#d4f7f5" /><path
         class="st1"
         d="m -30.2,261.8 c -1,-0.1 -1.9,-0.2 -3.1,-0.3 1.3,2 1.9,2 3.1,0.3 z"
         id="path368"
         inkscape:connector-curvature="0"
         style="fill:#d4f7f5" /><path
         class="st1"
         d="m 35.7,267.8 c 0,0.9 0.4,1.3 1.1,1.4 1,0.1 1.4,-0.4 1.5,-1.5 0,-0.7 -0.6,-1.3 -1.3,-1.3 -0.7,0 -1.2,0.5 -1.3,1.2 0,0 0,0 0,0 0,0 0,0 0,0.1 0,0 0,0.1 0,0.1 0,0 0,0 0,0 z"
         id="path370"
         inkscape:connector-curvature="0"
         style="fill:#d4f7f5" /><circle
         class="st1"
         cx="59.5"
         cy="270.10001"
         r="1.2"
         id="circle372"
         style="fill:#d4f7f5" /><circle
         class="st1"
         cx="82.5"
         cy="272.10001"
         r="1.2"
         id="circle374"
         style="fill:#d4f7f5" /><circle
         class="st1"
         cx="105.5"
         cy="274.10001"
         r="1.2"
         id="circle376"
         style="fill:#d4f7f5" /><circle
         class="st1"
         cx="128.5"
         cy="276.10001"
         r="1.2"
         id="circle378"
         style="fill:#d4f7f5" /><path
         class="st1"
         d="m 151.5,279.5 c 0.7,0 1.2,-0.6 1.2,-1.2 0,-0.7 -0.6,-1.2 -1.2,-1.2 -0.7,0 -1.2,0.6 -1.2,1.2 -0.1,0.7 0.5,1.2 1.2,1.2 z"
         id="path380"
         inkscape:connector-curvature="0"
         style="fill:#d4f7f5" /><circle
         class="st1"
         cx="172.3"
         cy="279.70001"
         r="1.2"
         id="circle382"
         style="fill:#d4f7f5" /><circle
         class="st1"
         cx="196"
         cy="282.39999"
         r="1.2"
         id="circle384"
         style="fill:#d4f7f5" /><path
         class="st1"
         d="m 220.1,285.5 c 0.7,0 1.2,-0.6 1.2,-1.2 0,-0.7 -0.6,-1.2 -1.2,-1.2 -0.6,0 -1.2,0.6 -1.2,1.2 0,0.7 0.5,1.2 1.2,1.2 z"
         id="path386"
         inkscape:connector-curvature="0"
         style="fill:#d4f7f5" /><circle
         class="st1"
         cx="243"
         cy="286.60001"
         r="1.2"
         id="circle388"
         style="fill:#d4f7f5" /><circle
         class="st1"
         cx="265.79999"
         cy="288.5"
         r="1.2"
         id="circle390"
         style="fill:#d4f7f5" /><circle
         class="st1"
         cx="288.79999"
         cy="290.5"
         r="1.2"
         id="circle392"
         style="fill:#d4f7f5" /><circle
         class="st1"
         cx="14.2"
         cy="266"
         r="1.2"
         id="circle394"
         style="fill:#d4f7f5" /></g></g></svg>