<?xml version="1.0" standalone="no"?><!-- Generator: Gravit.io --><svg xmlns="http://www.w3.org/2000/svg" xmlns:xlink="http://www.w3.org/1999/xlink" style="isolation:isolate" viewBox="0 0 404.086 71.604" width="404.086" height="71.604"><defs><clipPath id="_clipPath_bSxCAAAjHBoV4F4Ywku6tHe0lryz78QY"><rect width="404.086" height="71.604"/></clipPath></defs><g clip-path="url(#_clipPath_bSxCAAAjHBoV4F4Ywku6tHe0lryz78QY)"><g><path d=" M 29.653 8.604 C 27.102 8.504 25.189 6.404 25.402 4.104 C 25.614 1.804 27.633 0.104 30.078 0.204 C 32.522 0.304 34.329 2.204 34.329 4.504 C 34.223 7.004 32.204 8.804 29.653 8.604 L 29.653 8.604 Z " fill="rgb(212,247,245)"/><path d=" M 15.305 14.304 C 12.966 14.204 11.053 12.104 11.16 9.904 C 11.372 7.704 13.392 6.004 15.73 6.104 C 18.174 6.204 19.981 8.204 19.875 10.504 C 19.769 12.704 17.749 14.504 15.305 14.304 Z " fill="rgb(212,247,245)"/><path d=" M 39.537 12.404 C 37.199 12.304 35.392 10.304 35.498 8.104 C 35.605 5.804 37.73 4.004 40.069 4.204 C 42.407 4.304 44.214 6.304 44.107 8.504 C 44.107 10.704 41.982 12.504 39.537 12.404 Z " fill="rgb(212,247,245)"/><path d=" M 88.321 8.204 C 85.983 8.104 83.963 6.104 84.176 3.804 C 84.282 1.604 86.408 -0.096 88.746 0.004 C 91.084 0.104 92.891 2.004 92.785 4.304 C 92.678 6.504 90.659 8.304 88.321 8.204 Z " fill="rgb(212,247,245)"/><path d=" M 63.876 10.204 C 61.431 10.104 59.731 8.204 59.837 6.004 C 59.943 3.704 61.963 2.104 64.301 2.204 C 66.745 2.304 68.659 4.204 68.446 6.504 C 68.34 8.704 66.32 10.404 63.876 10.204 Z " fill="rgb(212,247,245)"/><path d=" M 49.74 15.904 C 47.508 15.704 45.701 13.804 45.808 11.704 C 45.914 9.504 48.146 7.804 50.378 8.004 C 52.61 8.204 54.31 10.104 54.098 12.304 C 53.992 14.404 52.078 16.104 49.74 15.904 L 49.74 15.904 Z " fill="rgb(212,247,245)"/><path d=" M 29.972 14.404 C 29.759 16.504 27.74 18.104 25.508 18.004 C 23.063 17.904 21.363 16.004 21.575 13.704 C 21.788 11.504 23.701 10.004 26.039 10.104 C 28.377 10.204 30.184 12.204 29.972 14.404 Z " fill="rgb(212,247,245)"/><path d=" M 73.973 13.804 C 71.634 13.604 70.04 11.804 70.146 9.604 C 70.359 7.404 72.272 5.904 74.61 6.004 C 76.949 6.104 78.649 8.004 78.543 10.104 C 78.436 12.304 76.417 14.004 73.973 13.804 Z " fill="rgb(212,247,245)"/><path d=" M 98.418 11.904 C 96.079 11.804 94.379 10.004 94.485 7.804 C 94.591 5.604 96.611 4.004 98.843 4.204 C 101.181 4.304 102.881 6.104 102.775 8.304 C 102.669 10.404 100.756 12.004 98.418 11.904 Z " fill="rgb(212,247,245)"/><path d=" M 122.756 9.804 C 120.524 9.704 118.718 7.804 118.824 5.704 C 118.93 3.604 120.95 1.904 123.288 2.004 C 125.52 2.104 127.326 4.104 127.114 6.204 C 126.901 8.304 124.988 9.904 122.756 9.804 Z " fill="rgb(212,247,245)"/><path d=" M 147.095 7.704 C 144.757 7.604 143.056 5.804 143.163 3.604 C 143.269 1.504 145.182 -0.096 147.414 0.004 C 149.752 0.104 151.559 1.904 151.453 4.004 C 151.346 6.104 149.327 7.804 147.095 7.704 L 147.095 7.704 Z " fill="rgb(212,247,245)"/><path d=" M 4.251 10.604 C 3.72 10.404 3.188 10.204 2.657 9.904 C 2.763 7.804 2.976 5.704 3.082 3.704 C 3.082 3.004 3.507 2.604 4.251 2.504 C 6.058 2.004 8.077 2.704 9.14 4.104 C 10.203 5.504 10.203 7.504 9.247 8.904 C 8.077 10.304 6.058 11.104 4.251 10.604 L 4.251 10.604 Z " fill="rgb(212,247,245)"/><path d=" M 11.904 16.004 C 14.136 16.104 15.836 17.904 15.73 20.004 C 15.624 22.104 13.604 23.804 11.372 23.704 C 9.14 23.604 7.44 21.804 7.546 19.704 C 7.759 17.404 9.565 15.804 11.904 16.004 Z " fill="rgb(212,247,245)"/><path d=" M 36.349 13.904 C 38.581 14.104 40.175 15.904 39.962 18.104 C 39.75 20.204 37.837 21.804 35.605 21.604 C 33.373 21.404 31.672 19.604 31.885 17.504 C 31.991 15.304 34.117 13.704 36.349 13.904 L 36.349 13.904 Z " fill="rgb(212,247,245)"/><path d=" M 88.533 14.004 C 88.427 16.104 86.408 17.704 84.282 17.504 C 82.05 17.304 80.35 15.504 80.562 13.404 C 80.775 11.304 82.688 9.704 84.92 9.904 C 87.045 10.104 88.746 11.904 88.533 14.004 Z " fill="rgb(212,247,245)"/><path d=" M 64.301 16.004 C 64.195 18.104 62.175 19.704 60.05 19.604 C 57.818 19.504 56.117 17.704 56.223 15.604 C 56.33 13.504 58.243 11.904 60.475 12.004 C 62.707 12.104 64.407 14.004 64.301 16.004 Z " fill="rgb(212,247,245)"/><path d=" M 108.727 15.404 C 106.495 15.304 104.795 13.604 104.901 11.504 C 105.007 9.404 106.814 7.804 109.152 8.004 C 111.384 8.104 113.085 10.004 112.978 12.004 C 112.766 13.904 110.853 15.504 108.727 15.404 Z " fill="rgb(212,247,245)"/><path d=" M 132.853 13.404 C 130.727 13.204 128.921 11.304 129.133 9.304 C 129.346 7.204 131.365 5.704 133.491 5.904 C 135.616 6.104 137.211 7.904 137.104 9.904 C 136.998 11.904 135.085 13.504 132.853 13.404 Z " fill="rgb(212,247,245)"/><path d=" M 157.298 11.204 C 155.066 11.104 153.366 9.304 153.578 7.204 C 153.791 5.204 155.598 3.704 157.723 3.804 C 159.955 3.904 161.656 5.704 161.443 7.804 C 161.231 9.804 159.424 11.304 157.298 11.204 Z " fill="rgb(212,247,245)"/><path d=" M 181.424 9.304 C 179.299 9.104 177.598 7.404 177.811 5.404 C 177.917 3.404 179.83 1.904 181.956 2.004 C 184.188 2.104 185.782 3.804 185.676 5.904 C 185.569 7.904 183.762 9.504 181.424 9.304 Z " fill="rgb(212,247,245)"/><path d=" M 21.682 27.304 C 19.556 27.204 17.855 25.404 17.962 23.404 C 18.068 21.404 19.875 19.804 22.107 19.904 C 24.232 20.004 25.933 21.704 25.827 23.804 C 25.614 25.804 23.807 27.404 21.682 27.304 Z " fill="rgb(212,247,245)"/><path d=" M 45.914 25.204 C 43.682 25.104 42.194 23.404 42.3 21.304 C 42.407 19.204 44.214 17.704 46.339 17.904 C 48.465 18.004 50.165 19.704 50.059 21.804 C 49.953 23.804 48.146 25.304 45.914 25.204 Z " fill="rgb(212,247,245)"/><path d=" M 70.678 15.804 C 72.804 15.904 74.504 17.604 74.291 19.704 C 74.185 21.704 72.272 23.304 70.146 23.104 C 68.127 22.904 66.427 21.204 66.533 19.304 C 66.639 17.304 68.552 15.704 70.678 15.804 L 70.678 15.804 Z " fill="rgb(212,247,245)"/><path d=" M 94.91 13.804 C 97.036 13.904 98.736 15.704 98.63 17.704 C 98.524 19.604 96.611 21.204 94.591 21.104 C 92.36 21.004 90.765 19.304 90.978 17.204 C 91.084 15.204 92.891 13.704 94.91 13.804 Z " fill="rgb(212,247,245)"/><path d=" M 122.863 15.604 C 122.863 17.704 121.056 19.304 118.93 19.204 C 116.804 19.104 115.104 17.304 115.21 15.304 C 115.317 13.404 117.23 11.804 119.249 11.904 C 121.268 12.004 122.969 13.604 122.863 15.604 L 122.863 15.604 Z " fill="rgb(212,247,245)"/><path d=" M 167.501 15.004 C 165.376 14.904 163.675 13.104 163.781 11.104 C 163.888 9.204 165.801 7.704 167.82 7.804 C 169.839 7.904 171.434 9.604 171.327 11.604 C 171.327 13.504 169.627 15.004 167.501 15.004 Z " fill="rgb(212,247,245)"/><path d=" M 147.201 13.704 C 147.095 15.604 145.288 17.104 143.163 17.004 C 140.931 16.904 139.336 15.204 139.549 13.104 C 139.762 11.104 141.462 9.704 143.588 9.904 C 145.713 10.004 147.308 11.704 147.201 13.704 L 147.201 13.704 Z " fill="rgb(212,247,245)"/><path d=" M 191.84 12.804 C 189.714 12.704 188.12 11.104 188.226 9.104 C 188.333 7.104 190.033 5.604 192.159 5.704 C 194.284 5.804 195.879 7.404 195.772 9.404 C 195.666 11.404 193.859 12.904 191.84 12.804 Z " fill="rgb(212,247,245)"/><path d=" M 35.605 27.504 C 35.498 29.404 33.585 31.004 31.566 30.804 C 29.547 30.604 27.952 28.904 28.165 26.904 C 28.377 25.004 30.291 23.504 32.31 23.704 C 34.223 24.004 35.817 25.704 35.605 27.504 L 35.605 27.504 Z " fill="rgb(212,247,245)"/><path d=" M 216.072 10.804 C 214.053 10.704 212.352 8.904 212.565 7.004 C 212.671 5.104 214.478 3.604 216.391 3.704 C 218.411 3.704 220.111 5.504 220.005 7.404 C 219.899 9.304 218.092 10.904 216.072 10.804 L 216.072 10.804 Z " fill="rgb(212,247,245)"/><path d=" M 11.372 29.604 C 11.266 31.604 9.565 33.104 7.44 32.904 C 5.314 32.804 3.72 31.204 3.826 29.204 C 3.932 27.204 5.739 25.804 7.759 25.904 C 9.884 26.004 11.479 27.604 11.372 29.604 Z " fill="rgb(212,247,245)"/><path d=" M 56.011 28.704 C 53.885 28.604 52.291 27.004 52.397 25.004 C 52.504 23.104 54.204 21.704 56.33 21.804 C 58.455 21.904 60.05 23.604 59.943 25.504 C 59.731 27.404 58.03 28.804 56.011 28.704 Z " fill="rgb(212,247,245)"/><path d=" M 240.517 8.904 C 238.498 8.904 236.797 7.104 236.904 5.204 C 237.01 3.304 238.817 1.704 240.836 1.804 C 242.856 1.904 244.45 3.604 244.344 5.604 C 244.131 7.404 242.43 8.904 240.517 8.904 L 240.517 8.904 Z " fill="rgb(212,247,245)"/><path d=" M 104.688 24.704 C 102.669 24.604 101.075 22.904 101.181 21.004 C 101.287 19.104 103.094 17.604 105.113 17.804 C 107.133 17.904 108.621 19.604 108.514 21.504 C 108.514 23.404 106.708 24.904 104.688 24.704 L 104.688 24.704 Z " fill="rgb(212,247,245)"/><path d=" M 80.137 26.804 C 78.118 26.604 76.63 24.904 76.736 23.104 C 76.949 21.204 78.649 19.804 80.668 19.904 C 82.794 20.004 84.282 21.704 84.069 23.704 C 83.963 25.604 82.156 27.004 80.137 26.804 L 80.137 26.804 Z " fill="rgb(212,247,245)"/><path d=" M 129.133 22.604 C 127.114 22.504 125.52 20.904 125.626 19.004 C 125.732 17.104 127.433 15.604 129.452 15.704 C 131.471 15.804 133.066 17.404 132.959 19.304 C 132.853 21.204 131.153 22.704 129.133 22.604 Z " fill="rgb(212,247,245)"/><path d=" M 181.531 15.104 C 181.424 16.904 179.724 18.504 177.704 18.404 C 175.685 18.304 174.197 16.704 174.303 14.804 C 174.41 13.004 176.004 11.504 178.023 11.604 C 179.936 11.604 181.531 13.304 181.531 15.104 L 181.531 15.104 Z " fill="rgb(212,247,245)"/><path d=" M 153.472 20.504 C 151.453 20.404 149.858 18.804 149.965 16.904 C 150.071 15.004 151.878 13.604 153.897 13.704 C 155.916 13.804 157.298 15.304 157.298 17.204 C 157.086 19.104 155.491 20.604 153.472 20.504 L 153.472 20.504 Z " fill="rgb(212,247,245)"/><path d=" M 201.724 16.504 C 199.811 16.304 198.323 14.604 198.536 12.804 C 198.748 10.904 200.555 9.504 202.574 9.704 C 204.488 9.904 205.869 11.504 205.763 13.404 C 205.55 15.304 203.744 16.704 201.724 16.504 Z " fill="rgb(212,247,245)"/><path d=" M 14.242 33.004 C 14.348 31.204 16.049 29.704 17.962 29.804 C 19.875 29.904 21.469 31.504 21.363 33.304 C 21.257 35.104 19.556 36.604 17.643 36.504 C 15.624 36.604 14.029 34.904 14.242 33.004 Z " fill="rgb(212,247,245)"/><path d=" M 250.508 12.404 C 248.595 12.304 247.107 10.604 247.213 8.804 C 247.319 7.004 249.02 5.504 250.933 5.604 C 252.952 5.704 254.44 7.404 254.334 9.304 C 254.122 11.104 252.421 12.504 250.508 12.404 Z " fill="rgb(212,247,245)"/><path d=" M 226.382 14.404 C 224.256 14.404 222.768 12.804 222.874 10.904 C 222.981 9.004 224.575 7.704 226.594 7.804 C 228.614 7.904 230.102 9.404 229.995 11.204 C 229.995 13.004 228.401 14.404 226.382 14.404 L 226.382 14.404 Z " fill="rgb(212,247,245)"/><path d=" M 38.581 30.904 C 38.687 29.004 40.387 27.704 42.407 27.804 C 44.426 27.904 45.808 29.504 45.701 31.304 C 45.595 33.204 43.895 34.504 41.875 34.404 C 39.856 34.304 38.368 32.804 38.581 30.904 Z " fill="rgb(212,247,245)"/><path d=" M 69.934 29.304 C 69.828 31.104 68.127 32.604 66.214 32.404 C 64.301 32.304 62.813 30.704 62.919 28.804 C 63.026 27.004 64.726 25.504 66.639 25.704 C 68.552 25.804 70.04 27.404 69.934 29.304 Z " fill="rgb(212,247,245)"/><path d=" M 274.74 10.204 C 272.827 10.104 271.339 8.404 271.552 6.604 C 271.764 4.804 273.465 3.404 275.378 3.604 C 277.397 3.704 278.779 5.304 278.566 7.204 C 278.46 9.004 276.76 10.304 274.74 10.204 Z " fill="rgb(212,247,245)"/><path d=" M 94.166 27.304 C 94.06 29.104 92.253 30.504 90.34 30.304 C 88.427 30.104 87.045 28.704 87.152 26.804 C 87.258 24.904 88.852 23.604 90.872 23.704 C 92.891 23.804 94.379 25.404 94.166 27.304 Z " fill="rgb(212,247,245)"/><path d=" M 299.185 8.104 C 297.272 8.004 295.784 6.404 295.891 4.604 C 295.997 2.804 297.591 1.504 299.504 1.504 C 301.417 1.604 303.011 3.304 302.799 5.104 C 302.799 6.804 301.098 8.204 299.185 8.104 Z " fill="rgb(212,247,245)"/><path d=" M 111.49 24.804 C 111.597 23.004 113.297 21.504 115.21 21.704 C 117.123 21.804 118.505 23.304 118.399 25.104 C 118.292 26.904 116.804 28.304 114.891 28.304 C 112.978 28.204 111.384 26.604 111.49 24.804 L 111.49 24.804 Z " fill="rgb(212,247,245)"/><path d=" M 167.289 21.104 C 167.182 22.904 165.376 24.304 163.463 24.204 C 161.549 24.004 160.274 22.504 160.38 20.704 C 160.487 18.904 162.187 17.604 163.994 17.704 C 165.907 17.804 167.395 19.404 167.289 21.104 Z " fill="rgb(212,247,245)"/><path d=" M 142.737 23.204 C 142.631 24.904 140.931 26.304 139.124 26.204 C 137.211 26.104 135.723 24.704 135.829 22.904 C 135.829 21.004 137.423 19.604 139.443 19.704 C 141.356 19.804 142.95 21.504 142.737 23.204 Z " fill="rgb(212,247,245)"/><path d=" M 191.415 19.204 C 191.202 20.904 189.714 22.204 187.801 22.004 C 185.888 21.904 184.4 20.404 184.613 18.604 C 184.719 16.804 186.42 15.504 188.333 15.704 C 190.246 15.904 191.627 17.404 191.415 19.204 L 191.415 19.204 Z " fill="rgb(212,247,245)"/><path d=" M 24.551 36.704 C 24.658 35.004 26.358 33.604 28.271 33.704 C 30.078 33.904 31.566 35.504 31.353 37.204 C 31.141 38.904 29.547 40.204 27.846 40.104 C 25.933 40.004 24.445 38.404 24.551 36.704 Z " fill="rgb(212,247,245)"/><path d=" M 215.754 17.004 C 215.647 18.704 214.053 20.004 212.246 20.004 C 210.439 20.004 208.845 18.404 208.951 16.604 C 209.058 14.804 210.652 13.404 212.565 13.504 C 214.372 13.704 215.86 15.304 215.754 17.004 Z " fill="rgb(212,247,245)"/><path d=" M 73.229 32.604 C 73.335 30.904 74.929 29.504 76.736 29.604 C 78.543 29.704 80.031 31.204 79.924 32.904 C 79.818 34.704 78.224 36.104 76.311 36.004 C 74.504 35.804 73.122 34.304 73.229 32.604 L 73.229 32.604 Z " fill="rgb(212,247,245)"/><path d=" M 260.817 15.804 C 259.01 15.804 257.416 14.104 257.629 12.404 C 257.735 10.704 259.436 9.404 261.136 9.504 C 262.943 9.604 264.325 11.104 264.218 12.804 C 264.218 14.504 262.73 15.904 260.817 15.804 L 260.817 15.804 Z " fill="rgb(212,247,245)"/><path d=" M 7.121 39.104 C 7.015 40.904 5.42 42.204 3.507 42.104 C 1.488 42.004 0.638 40.904 0.744 38.804 C 0.85 36.604 1.807 35.704 3.826 35.804 C 5.739 35.904 7.227 37.404 7.121 39.104 Z " fill="rgb(212,247,245)"/><path d=" M 240.092 14.904 C 239.986 16.704 238.392 18.004 236.372 17.804 C 234.566 17.704 233.184 16.204 233.29 14.504 C 233.396 12.804 234.884 11.504 236.797 11.604 C 238.711 11.704 240.198 13.104 240.092 14.904 Z " fill="rgb(212,247,245)"/><path d=" M 48.89 34.604 C 48.996 32.904 50.59 31.604 52.397 31.704 C 54.31 31.804 55.692 33.304 55.586 35.104 C 55.479 36.804 53.885 38.104 52.078 38.004 C 50.165 37.904 48.784 36.404 48.89 34.604 Z " fill="rgb(212,247,245)"/><path d=" M 285.05 13.904 C 283.243 13.804 281.861 12.304 282.074 10.504 C 282.18 8.804 283.774 7.504 285.581 7.604 C 287.388 7.704 288.77 9.204 288.77 10.904 C 288.557 12.604 286.857 14.004 285.05 13.904 L 285.05 13.904 Z " fill="rgb(212,247,245)"/><path d=" M 97.567 30.704 C 97.674 29.004 99.268 27.604 100.968 27.704 C 102.775 27.804 104.157 29.204 104.051 30.904 C 103.944 32.604 102.456 34.004 100.65 33.904 C 98.949 33.904 97.461 32.404 97.567 30.704 Z " fill="rgb(212,247,245)"/><path d=" M 121.906 28.604 C 122.012 26.904 123.394 25.704 125.201 25.704 C 127.008 25.704 128.496 27.204 128.496 28.904 C 128.496 30.604 126.901 32.004 125.095 31.904 C 123.181 31.804 121.8 30.404 121.906 28.604 L 121.906 28.604 Z " fill="rgb(212,247,245)"/><path d=" M 309.388 11.804 C 307.582 11.704 306.2 10.204 306.306 8.504 C 306.413 6.804 308.007 5.504 309.814 5.604 C 311.62 5.704 313.002 7.104 312.896 8.904 C 312.683 10.604 311.195 11.904 309.388 11.804 L 309.388 11.804 Z " fill="rgb(212,247,245)"/><path d=" M 333.621 9.704 C 331.814 9.604 330.432 8.104 330.645 6.404 C 330.751 4.704 332.345 3.404 334.152 3.604 C 335.853 3.804 337.234 5.204 337.128 6.804 C 337.128 8.404 335.428 9.804 333.621 9.704 L 333.621 9.704 Z " fill="rgb(212,247,245)"/><path d=" M 358.172 7.604 C 356.365 7.604 354.877 6.104 354.984 4.404 C 355.09 2.804 356.578 1.504 358.278 1.504 C 360.085 1.504 361.573 3.004 361.467 4.704 C 361.361 6.304 359.873 7.604 358.172 7.604 Z " fill="rgb(212,247,245)"/><path d=" M 177.067 24.804 C 176.96 26.504 175.366 27.804 173.559 27.704 C 171.859 27.604 170.477 26.204 170.583 24.504 C 170.69 22.804 172.284 21.504 174.091 21.604 C 175.685 21.704 177.067 23.204 177.067 24.804 Z " fill="rgb(212,247,245)"/><path d=" M 146.245 26.504 C 146.351 24.804 147.945 23.504 149.752 23.604 C 151.559 23.704 152.834 25.104 152.728 26.804 C 152.622 28.504 151.24 29.704 149.433 29.704 C 147.52 29.704 146.138 28.204 146.245 26.504 Z " fill="rgb(212,247,245)"/><path d=" M 201.299 22.704 C 201.193 24.404 199.599 25.704 197.792 25.504 C 196.091 25.304 194.71 23.904 194.922 22.304 C 195.135 20.704 196.623 19.504 198.429 19.604 C 200.13 19.704 201.405 21.104 201.299 22.704 L 201.299 22.704 Z " fill="rgb(212,247,245)"/><path d=" M 10.735 42.404 C 10.841 40.704 12.435 39.604 14.136 39.704 C 15.942 39.804 17.218 41.204 17.005 42.904 C 16.899 44.604 15.411 45.704 13.604 45.604 C 11.904 45.504 10.522 44.104 10.735 42.404 Z " fill="rgb(212,247,245)"/><path d=" M 34.967 40.604 C 35.073 38.904 36.561 37.704 38.368 37.804 C 40.069 37.904 41.344 39.204 41.238 40.804 C 41.131 42.504 39.75 43.704 37.943 43.704 C 36.242 43.604 34.861 42.204 34.967 40.604 L 34.967 40.604 Z " fill="rgb(212,247,245)"/><path d=" M 225.744 20.804 C 225.638 22.504 224.15 23.704 222.343 23.604 C 220.643 23.504 219.367 22.204 219.367 20.604 C 219.367 18.904 220.855 17.704 222.662 17.704 C 224.469 17.804 225.85 19.204 225.744 20.804 L 225.744 20.804 Z " fill="rgb(212,247,245)"/><path d=" M 274.315 16.704 C 274.209 18.304 272.721 19.504 271.02 19.404 C 269.32 19.304 268.045 18.104 268.045 16.504 C 268.045 14.804 269.532 13.504 271.233 13.604 C 273.04 13.704 274.421 15.104 274.315 16.704 L 274.315 16.704 Z " fill="rgb(212,247,245)"/><path d=" M 249.976 18.904 C 249.87 20.504 248.382 21.704 246.682 21.604 C 244.981 21.504 243.6 20.004 243.706 18.404 C 243.812 16.804 245.406 15.504 247.107 15.604 C 248.914 15.804 250.189 17.204 249.976 18.904 L 249.976 18.904 Z " fill="rgb(212,247,245)"/><path d=" M 83.644 36.404 C 83.751 34.804 85.239 33.604 86.833 33.704 C 88.533 33.804 89.809 35.004 89.809 36.604 C 89.809 38.304 88.321 39.604 86.62 39.504 C 84.92 39.404 83.538 38.004 83.644 36.404 L 83.644 36.404 Z " fill="rgb(212,247,245)"/><path d=" M 59.412 38.504 C 59.518 36.804 61.006 35.604 62.707 35.704 C 64.407 35.804 65.789 37.304 65.576 38.904 C 65.47 40.404 63.982 41.704 62.282 41.604 C 60.581 41.604 59.306 40.204 59.412 38.504 L 59.412 38.504 Z " fill="rgb(212,247,245)"/><path d=" M 298.548 14.504 C 298.441 16.204 297.06 17.504 295.253 17.304 C 293.552 17.204 292.277 15.804 292.383 14.204 C 292.489 12.704 293.977 11.404 295.572 11.504 C 297.272 11.604 298.548 12.904 298.548 14.504 L 298.548 14.504 Z " fill="rgb(212,247,245)"/><path d=" M 107.983 34.504 C 107.983 32.904 109.365 31.604 111.065 31.704 C 112.766 31.704 114.254 33.104 114.147 34.804 C 114.041 36.304 112.553 37.604 110.959 37.604 C 109.258 37.404 107.983 36.104 107.983 34.504 L 107.983 34.504 Z " fill="rgb(212,247,245)"/><path d=" M 319.485 15.204 C 317.785 15.004 316.616 13.604 316.722 12.104 C 316.828 10.504 318.316 9.404 320.017 9.504 C 321.611 9.604 322.993 11.004 322.886 12.604 C 322.78 14.104 321.186 15.404 319.485 15.204 Z " fill="rgb(212,247,245)"/><path d=" M 132.322 32.304 C 132.428 30.804 133.916 29.504 135.51 29.604 C 137.211 29.704 138.486 31.004 138.38 32.604 C 138.274 34.204 136.892 35.404 135.191 35.304 C 133.597 35.204 132.215 33.804 132.322 32.304 Z " fill="rgb(212,247,245)"/><path d=" M 343.824 13.304 C 342.23 13.204 340.848 11.704 341.061 10.204 C 341.167 8.704 342.761 7.404 344.355 7.604 C 346.056 7.804 347.225 9.204 347.012 10.804 C 346.906 12.304 345.418 13.404 343.824 13.304 L 343.824 13.304 Z " fill="rgb(212,247,245)"/><path d=" M 156.66 30.204 C 156.767 28.604 158.255 27.504 159.955 27.604 C 161.549 27.704 162.825 29.004 162.719 30.504 C 162.612 32.104 161.231 33.304 159.53 33.204 C 157.83 33.104 156.554 31.804 156.66 30.204 L 156.66 30.204 Z " fill="rgb(212,247,245)"/><path d=" M 211.183 26.404 C 211.183 28.004 209.802 29.304 208.101 29.204 C 206.507 29.104 205.232 27.804 205.232 26.304 C 205.232 24.804 206.613 23.604 208.207 23.604 C 209.908 23.604 211.183 24.904 211.183 26.404 L 211.183 26.404 Z " fill="rgb(212,247,245)"/><path d=" M 392.395 9.104 C 390.801 9.004 389.632 7.604 389.738 6.104 C 389.844 4.604 391.226 3.404 392.82 3.504 C 394.414 3.604 395.796 5.004 395.584 6.604 C 395.477 8.104 393.989 9.204 392.395 9.104 Z " fill="rgb(212,247,245)"/><path d=" M 180.999 28.204 C 181.105 26.704 182.487 25.604 184.188 25.704 C 185.888 25.804 187.164 27.104 187.057 28.704 C 186.951 30.204 185.569 31.304 183.869 31.204 C 182.062 31.204 180.893 29.804 180.999 28.204 Z " fill="rgb(212,247,245)"/><path d=" M 368.056 11.204 C 366.462 11.004 365.293 9.704 365.399 8.204 C 365.506 6.604 366.994 5.504 368.694 5.604 C 370.288 5.804 371.457 7.104 371.351 8.604 C 371.245 10.204 369.757 11.304 368.056 11.204 Z " fill="rgb(212,247,245)"/><path d=" M 20.938 46.304 C 21.044 44.804 22.426 43.604 24.02 43.704 C 25.614 43.804 26.889 45.204 26.783 46.604 C 26.677 48.104 25.295 49.304 23.701 49.204 C 22.107 49.204 20.831 47.904 20.938 46.304 Z " fill="rgb(212,247,245)"/><path d=" M 45.276 44.304 C 45.383 42.804 46.764 41.604 48.359 41.704 C 49.953 41.804 51.228 43.004 51.122 44.504 C 51.016 46.104 49.74 47.204 48.146 47.104 C 46.445 47.104 45.17 45.804 45.276 44.304 Z " fill="rgb(212,247,245)"/><path d=" M 235.522 24.504 C 235.416 26.004 234.034 27.204 232.44 27.104 C 230.846 27.004 229.57 25.804 229.677 24.204 C 229.783 22.704 231.058 21.504 232.759 21.604 C 234.353 21.704 235.628 23.004 235.522 24.504 Z " fill="rgb(212,247,245)"/><path d=" M 69.721 42.204 C 69.828 40.704 71.316 39.504 72.804 39.704 C 74.398 39.804 75.567 41.104 75.461 42.704 C 75.354 44.204 74.079 45.204 72.485 45.204 C 70.997 45.004 69.721 43.704 69.721 42.204 Z " fill="rgb(212,247,245)"/><path d=" M 259.754 22.504 C 259.648 24.004 258.267 25.004 256.779 24.904 C 255.184 24.804 253.909 23.504 254.015 22.004 C 254.122 20.504 255.609 19.404 257.204 19.504 C 258.798 19.704 259.861 21.004 259.754 22.504 Z " fill="rgb(212,247,245)"/><path d=" M 97.142 37.604 C 98.736 37.704 100.012 39.004 99.906 40.504 C 99.799 42.004 98.311 43.104 96.717 43.004 C 95.229 42.804 94.06 41.604 94.166 40.104 C 94.273 38.604 95.548 37.504 97.142 37.604 Z " fill="rgb(212,247,245)"/><path d=" M 284.093 20.404 C 283.987 21.804 282.605 22.904 281.011 22.904 C 279.417 22.804 278.141 21.504 278.354 20.004 C 278.46 18.504 279.842 17.404 281.33 17.504 C 282.924 17.504 284.199 18.904 284.093 20.404 Z " fill="rgb(212,247,245)"/><path d=" M 308.538 18.504 C 308.432 19.904 307.05 21.104 305.562 21.004 C 304.074 20.904 302.799 19.604 302.905 18.204 C 303.011 16.804 304.393 15.604 305.881 15.704 C 307.369 15.704 308.644 17.004 308.538 18.504 Z " fill="rgb(212,247,245)"/><path d=" M 118.399 38.204 C 118.505 36.804 119.887 35.604 121.375 35.704 C 122.863 35.804 124.138 37.104 124.032 38.504 C 123.925 39.904 122.544 41.104 121.056 41.004 C 119.568 41.004 118.399 39.604 118.399 38.204 Z " fill="rgb(212,247,245)"/><path d=" M 332.771 16.504 C 332.558 17.904 331.389 18.904 329.795 18.804 C 328.2 18.704 327.031 17.504 327.138 16.004 C 327.244 14.504 328.519 13.504 330.22 13.604 C 331.814 13.804 332.877 15.004 332.771 16.504 L 332.771 16.504 Z " fill="rgb(212,247,245)"/><path d=" M 142.844 36.104 C 142.95 34.704 144.225 33.704 145.713 33.704 C 147.308 33.804 148.477 34.904 148.37 36.404 C 148.264 37.904 146.989 39.004 145.394 38.904 C 143.8 38.804 142.631 37.604 142.844 36.104 Z " fill="rgb(212,247,245)"/><path d=" M 167.182 34.104 C 167.289 32.704 168.564 31.604 170.052 31.604 C 171.54 31.604 172.815 33.004 172.709 34.404 C 172.603 35.804 171.221 37.004 169.627 36.804 C 168.139 36.704 167.076 35.404 167.182 34.104 L 167.182 34.104 Z " fill="rgb(212,247,245)"/><path d=" M 357.003 14.504 C 356.79 15.904 355.515 16.904 354.027 16.804 C 352.539 16.704 351.37 15.304 351.583 13.904 C 351.795 12.504 353.177 11.504 354.558 11.604 C 356.046 11.604 357.216 13.004 357.003 14.504 Z " fill="rgb(212,247,245)"/><path d=" M 191.415 32.004 C 191.521 30.604 192.796 29.604 194.284 29.604 C 195.879 29.704 196.942 30.904 196.835 32.404 C 196.729 33.804 195.454 34.804 193.966 34.704 C 192.478 34.604 191.415 33.304 191.415 32.004 L 191.415 32.004 Z " fill="rgb(212,247,245)"/><path d=" M 9.991 49.704 C 11.479 49.804 12.541 51.004 12.541 52.404 C 12.435 53.804 11.053 54.904 9.565 54.804 C 8.077 54.604 7.015 53.504 7.227 52.004 C 7.227 50.604 8.503 49.604 9.991 49.704 L 9.991 49.704 Z " fill="rgb(212,247,245)"/><path d=" M 378.472 14.604 C 376.984 14.504 375.921 13.404 375.921 12.004 C 375.921 10.504 377.197 9.404 378.791 9.504 C 380.279 9.604 381.554 10.904 381.342 12.304 C 381.235 13.604 379.854 14.704 378.472 14.604 Z " fill="rgb(212,247,245)"/><path d=" M 58.455 45.604 C 59.943 45.604 61.112 46.904 61.006 48.204 C 60.9 49.604 59.624 50.704 58.137 50.604 C 56.755 50.504 55.692 49.404 55.692 48.104 C 55.798 46.704 56.967 45.504 58.455 45.604 Z " fill="rgb(212,247,245)"/><path d=" M 31.353 50.004 C 31.46 48.704 32.735 47.604 34.223 47.704 C 35.711 47.804 36.774 48.904 36.667 50.304 C 36.561 51.704 35.392 52.704 33.904 52.604 C 32.416 52.604 31.247 51.404 31.353 50.004 Z " fill="rgb(212,247,245)"/><path d=" M 5.633 16.004 C 5.633 18.104 4.464 19.504 2.019 19.904 L 2.444 12.604 C 4.358 12.804 5.633 14.104 5.633 16.004 L 5.633 16.004 Z " fill="rgb(212,247,245)"/><path d=" M 215.86 29.804 C 215.966 28.404 217.241 27.404 218.729 27.604 C 220.217 27.704 221.28 29.004 221.174 30.304 C 221.068 31.704 219.686 32.704 218.198 32.604 C 216.71 32.404 215.754 31.304 215.86 29.804 Z " fill="rgb(212,247,245)"/><path d=" M 82.794 43.704 C 84.176 43.804 85.345 44.904 85.239 46.204 C 85.239 47.604 83.857 48.704 82.475 48.604 C 81.094 48.504 80.031 47.304 80.137 46.004 C 80.243 44.704 81.412 43.704 82.794 43.704 L 82.794 43.704 Z " fill="rgb(212,247,245)"/><path d=" M 242.537 30.604 C 241.049 30.504 239.88 29.304 240.092 27.904 C 240.198 26.504 241.58 25.504 243.068 25.704 C 244.45 25.804 245.513 26.904 245.406 28.304 C 245.3 29.704 244.131 30.704 242.537 30.604 L 242.537 30.604 Z " fill="rgb(212,247,245)"/><path d=" M 269.639 26.204 C 269.532 27.504 268.363 28.604 266.982 28.504 C 265.6 28.504 264.431 27.304 264.537 26.004 C 264.537 24.604 265.919 23.504 267.301 23.604 C 268.682 23.704 269.745 24.904 269.639 26.204 L 269.639 26.204 Z " fill="rgb(212,247,245)"/><path d=" M 107.133 41.704 C 108.621 41.804 109.577 42.904 109.577 44.204 C 109.471 45.604 108.302 46.504 106.92 46.504 C 105.539 46.404 104.369 45.304 104.476 44.004 C 104.476 42.704 105.751 41.704 107.133 41.704 Z " fill="rgb(212,247,245)"/><path d=" M 293.977 24.204 C 293.871 25.504 292.596 26.504 291.214 26.404 C 289.726 26.304 288.77 25.204 288.876 23.804 C 288.982 22.404 290.151 21.504 291.639 21.604 C 293.021 21.804 294.084 22.904 293.977 24.204 Z " fill="rgb(212,247,245)"/><path d=" M 131.471 39.604 C 132.853 39.704 133.916 41.004 133.81 42.204 C 133.703 43.504 132.322 44.504 130.94 44.304 C 129.558 44.104 128.708 43.004 128.708 41.804 C 128.921 40.504 130.09 39.504 131.471 39.604 L 131.471 39.604 Z " fill="rgb(212,247,245)"/><path d=" M 318.21 22.204 C 318.104 23.504 316.934 24.404 315.553 24.304 C 314.171 24.204 313.002 23.004 313.108 21.704 C 313.215 20.404 314.49 19.404 315.872 19.504 C 317.36 19.704 318.316 20.804 318.21 22.204 Z " fill="rgb(212,247,245)"/><path d=" M 342.549 20.104 C 342.442 21.304 341.273 22.304 339.891 22.304 C 338.51 22.204 337.553 21.204 337.553 19.904 C 337.553 18.504 338.722 17.504 340.21 17.604 C 341.486 17.604 342.655 18.804 342.549 20.104 Z " fill="rgb(212,247,245)"/><path d=" M 153.366 39.704 C 153.472 38.404 154.641 37.504 156.023 37.604 C 157.298 37.704 158.361 38.904 158.361 40.104 C 158.255 41.404 156.873 42.404 155.598 42.304 C 154.11 42.104 153.153 41.004 153.366 39.704 L 153.366 39.704 Z " fill="rgb(212,247,245)"/><path d=" M 366.994 18.104 C 366.887 19.304 365.612 20.304 364.336 20.304 C 362.955 20.204 361.998 19.104 362.105 17.804 C 362.211 16.504 363.38 15.604 364.762 15.604 C 365.931 15.804 366.994 16.904 366.994 18.104 Z " fill="rgb(212,247,245)"/><path d=" M 180.255 35.604 C 181.637 35.704 182.593 36.804 182.487 38.104 C 182.381 39.404 181.212 40.304 179.83 40.204 C 178.448 40.104 177.492 39.004 177.598 37.704 C 177.704 36.404 178.873 35.504 180.255 35.604 Z " fill="rgb(212,247,245)"/><path d=" M 391.12 16.104 C 391.013 17.404 389.844 18.304 388.463 18.104 C 387.187 18.004 386.231 17.004 386.337 15.704 C 386.443 14.504 387.506 13.604 388.781 13.604 C 390.269 13.704 391.226 14.804 391.12 16.104 Z " fill="rgb(212,247,245)"/><path d=" M 204.594 33.804 C 205.869 33.904 206.826 34.904 206.719 36.104 C 206.613 37.404 205.55 38.304 204.169 38.204 C 202.893 38.104 201.937 37.104 202.043 35.904 C 202.043 34.604 203.212 33.704 204.594 33.804 Z " fill="rgb(212,247,245)"/><path d=" M 403.767 12.204 C 402.173 12.604 401.323 12.304 400.579 11.304 C 399.941 10.304 399.941 9.204 400.791 8.304 C 401.535 7.404 402.492 7.204 404.086 7.804 L 403.767 12.204 Z " fill="rgb(212,247,245)"/><path d=" M 253.165 29.704 C 254.44 29.804 255.397 30.804 255.291 32.004 C 255.184 33.204 254.015 34.104 252.74 34.004 C 251.571 33.904 250.614 32.804 250.72 31.804 C 250.72 30.604 251.89 29.604 253.165 29.704 Z " fill="rgb(212,247,245)"/><path d=" M 44.426 51.804 C 45.701 51.904 46.658 52.904 46.552 54.104 C 46.445 55.304 45.383 56.204 44.107 56.204 C 42.832 56.104 41.875 55.104 41.875 53.904 C 41.982 52.704 43.151 51.804 44.426 51.804 Z " fill="rgb(212,247,245)"/><path d=" M 228.72 31.704 C 229.995 31.704 231.058 32.804 230.952 34.004 C 230.952 35.204 229.783 36.104 228.507 36.104 C 227.232 36.104 226.275 35.104 226.275 33.904 C 226.382 32.604 227.445 31.704 228.72 31.704 L 228.72 31.704 Z " fill="rgb(212,247,245)"/><path d=" M 68.765 49.804 C 69.934 49.904 70.89 50.904 70.89 52.004 C 70.89 53.204 69.721 54.204 68.446 54.104 C 67.171 54.104 66.214 53.004 66.32 51.804 C 66.427 50.604 67.489 49.704 68.765 49.804 Z " fill="rgb(212,247,245)"/><path d=" M 20.087 53.904 C 21.363 54.004 22.319 55.004 22.319 56.204 C 22.319 57.504 21.15 58.404 19.769 58.304 C 18.493 58.204 17.537 57.204 17.643 56.004 C 17.749 54.704 18.812 53.804 20.087 53.904 Z " fill="rgb(212,247,245)"/><path d=" M 277.504 27.704 C 278.673 27.804 279.629 28.804 279.523 29.904 C 279.417 31.104 278.248 32.004 276.972 31.804 C 275.803 31.704 274.847 30.704 274.953 29.604 C 275.165 28.404 276.228 27.604 277.504 27.704 Z " fill="rgb(212,247,245)"/><path d=" M 92.997 47.804 C 94.273 47.904 95.123 48.804 95.017 50.004 C 94.91 51.204 93.847 52.104 92.572 51.904 C 91.403 51.804 90.446 50.804 90.659 49.704 C 90.765 48.504 91.828 47.704 92.997 47.804 Z " fill="rgb(212,247,245)"/><path d=" M 301.842 25.604 C 303.011 25.804 303.862 26.804 303.755 27.904 C 303.649 29.004 302.48 29.804 301.311 29.704 C 300.142 29.504 299.292 28.504 299.398 27.404 C 299.61 26.304 300.78 25.504 301.842 25.604 Z " fill="rgb(212,247,245)"/><path d=" M 117.23 45.704 C 118.399 45.704 119.355 46.704 119.355 47.804 C 119.355 48.904 118.292 49.904 117.123 49.804 C 115.954 49.804 114.998 48.804 114.998 47.704 C 114.998 46.604 116.061 45.704 117.23 45.704 Z " fill="rgb(212,247,245)"/><path d=" M 327.988 25.704 C 327.988 26.904 327.031 27.804 325.862 27.704 C 324.693 27.704 323.737 26.704 323.737 25.604 C 323.843 24.604 324.799 23.704 325.862 23.704 C 327.031 23.804 327.988 24.704 327.988 25.704 Z " fill="rgb(212,247,245)"/><path d=" M 141.675 43.904 C 142.737 44.004 143.694 44.904 143.588 46.004 C 143.588 47.104 142.419 48.004 141.249 47.904 C 140.08 47.804 139.23 46.904 139.336 45.804 C 139.443 44.704 140.399 43.804 141.675 43.904 Z " fill="rgb(212,247,245)"/><path d=" M 352.327 23.804 C 352.327 24.904 351.157 25.804 349.988 25.704 C 348.926 25.604 348.075 24.704 348.075 23.604 C 348.182 22.504 349.138 21.704 350.307 21.804 C 351.37 21.804 352.327 22.804 352.327 23.804 L 352.327 23.804 Z " fill="rgb(212,247,245)"/><path d=" M 165.907 41.804 C 166.97 41.904 167.926 42.804 167.82 43.904 C 167.82 45.004 166.864 45.804 165.694 45.804 C 164.525 45.804 163.569 44.704 163.675 43.704 C 163.781 42.604 164.844 41.804 165.907 41.804 L 165.907 41.804 Z " fill="rgb(212,247,245)"/><path d=" M 376.559 21.804 C 376.453 22.804 375.602 23.604 374.54 23.504 C 373.37 23.504 372.414 22.604 372.52 21.504 C 372.52 20.404 373.583 19.604 374.752 19.704 C 375.815 19.804 376.665 20.704 376.559 21.804 L 376.559 21.804 Z " fill="rgb(212,247,245)"/><path d=" M 190.139 39.804 C 191.309 39.804 192.159 40.704 192.159 41.804 C 192.053 42.904 191.096 43.704 189.927 43.604 C 188.864 43.504 188.014 42.704 188.014 41.704 C 188.014 40.604 188.97 39.804 190.139 39.804 L 190.139 39.804 Z " fill="rgb(212,247,245)"/><path d=" M 400.791 19.604 C 400.791 20.704 399.729 21.504 398.666 21.504 C 397.603 21.404 396.753 20.504 396.753 19.504 C 396.753 18.404 397.815 17.604 398.878 17.604 C 399.941 17.704 400.791 18.604 400.791 19.604 Z " fill="rgb(212,247,245)"/><path d=" M 6.058 60.004 C 7.121 60.104 7.865 61.004 7.865 62.004 C 7.759 63.104 6.802 63.904 5.633 63.704 C 4.57 63.604 3.826 62.704 3.826 61.704 C 3.932 60.604 4.889 59.904 6.058 60.004 Z " fill="rgb(212,247,245)"/><path d=" M 214.691 37.804 C 215.754 37.904 216.604 38.804 216.497 39.804 C 216.391 40.804 215.541 41.604 214.478 41.604 C 213.415 41.604 212.565 40.704 212.565 39.704 C 212.565 38.604 213.628 37.704 214.691 37.804 L 214.691 37.804 Z " fill="rgb(212,247,245)"/><path d=" M 30.291 57.904 C 31.353 58.004 32.204 58.904 32.097 59.904 C 32.097 60.904 30.928 61.804 29.865 61.704 C 28.803 61.604 28.059 60.704 28.165 59.704 C 28.377 58.604 29.228 57.804 30.291 57.904 Z " fill="rgb(212,247,245)"/><path d=" M 54.523 55.904 C 55.586 55.904 56.436 56.704 56.436 57.804 C 56.436 58.804 55.586 59.604 54.523 59.604 C 53.46 59.604 52.61 58.704 52.61 57.704 C 52.504 56.704 53.46 55.904 54.523 55.904 Z " fill="rgb(212,247,245)"/><path d=" M 239.029 35.804 C 240.092 35.904 240.942 36.804 240.836 37.804 C 240.73 38.804 239.773 39.504 238.711 39.504 C 237.648 39.404 236.904 38.604 237.01 37.504 C 237.116 36.404 237.967 35.704 239.029 35.804 Z " fill="rgb(212,247,245)"/><path d=" M 263.156 33.904 C 264.218 33.904 265.069 34.704 265.069 35.804 C 265.069 36.804 264.218 37.504 263.262 37.504 C 262.199 37.504 261.242 36.604 261.349 35.604 C 261.242 34.704 262.199 33.904 263.156 33.904 Z " fill="rgb(212,247,245)"/><path d=" M 103.307 52.004 C 104.369 52.104 105.007 52.904 104.901 53.904 C 104.795 54.904 103.944 55.504 102.881 55.404 C 101.819 55.304 101.075 54.504 101.181 53.604 C 101.287 52.604 102.244 51.904 103.307 52.004 L 103.307 52.004 Z " fill="rgb(212,247,245)"/><path d=" M 78.968 53.904 C 80.031 54.004 80.881 54.904 80.775 55.904 C 80.668 56.804 79.712 57.504 78.755 57.404 C 77.693 57.304 76.842 56.504 77.055 55.404 C 77.055 54.404 77.905 53.804 78.968 53.904 Z " fill="rgb(212,247,245)"/><path d=" M 287.601 31.904 C 288.663 32.004 289.407 32.704 289.407 33.704 C 289.407 34.704 288.451 35.504 287.282 35.304 C 286.219 35.204 285.581 34.404 285.687 33.404 C 285.687 32.504 286.538 31.804 287.601 31.904 L 287.601 31.904 Z " fill="rgb(212,247,245)"/><path d=" M 127.433 49.904 C 128.389 49.904 129.24 50.804 129.133 51.704 C 129.133 52.604 128.283 53.404 127.22 53.404 C 126.264 53.404 125.413 52.504 125.52 51.604 C 125.626 50.704 126.476 49.904 127.433 49.904 Z " fill="rgb(212,247,245)"/><path d=" M 311.62 33.304 C 310.664 33.204 309.814 32.404 309.92 31.504 C 310.026 30.604 310.876 29.804 311.833 29.904 C 312.789 30.004 313.64 30.804 313.533 31.704 C 313.533 32.604 312.683 33.304 311.62 33.304 Z " fill="rgb(212,247,245)"/><path d=" M 2.551 48.504 C 2.551 49.904 2.019 50.604 0.106 51.304 L 0.425 46.104 C 1.913 46.604 2.444 47.204 2.551 48.504 Z " fill="rgb(212,247,245)"/><path d=" M 360.191 29.004 C 359.235 28.904 358.597 28.204 358.704 27.204 C 358.81 26.304 359.554 25.704 360.51 25.704 C 361.467 25.804 362.211 26.504 362.105 27.404 C 362.105 28.404 361.148 29.104 360.191 29.004 Z " fill="rgb(212,247,245)"/><path d=" M 176.004 45.904 C 176.96 45.904 177.704 46.604 177.704 47.504 C 177.704 48.504 176.854 49.204 175.898 49.204 C 174.941 49.104 174.197 48.304 174.303 47.504 C 174.303 46.604 175.047 45.904 176.004 45.904 Z " fill="rgb(212,247,245)"/><path d=" M 151.771 47.904 C 152.834 48.004 153.578 48.804 153.472 49.804 C 153.366 50.704 152.515 51.304 151.559 51.204 C 150.496 51.104 149.858 50.304 149.965 49.404 C 150.071 48.504 150.815 47.804 151.771 47.904 L 151.771 47.904 Z " fill="rgb(212,247,245)"/><path d=" M 336.065 31.104 C 335.002 31.104 334.259 30.304 334.259 29.404 C 334.259 28.504 335.215 27.704 336.172 27.804 C 337.128 27.904 337.766 28.604 337.766 29.504 C 337.766 30.504 337.022 31.104 336.065 31.104 Z " fill="rgb(212,247,245)"/><path d=" M 200.343 43.804 C 201.193 43.804 202.043 44.604 202.043 45.404 C 202.043 46.204 201.193 47.004 200.236 47.004 C 199.28 47.004 198.536 46.204 198.642 45.404 C 198.642 44.504 199.386 43.804 200.343 43.804 Z " fill="rgb(212,247,245)"/><path d=" M 15.942 63.904 C 16.899 63.904 17.643 64.604 17.643 65.504 C 17.643 66.404 16.899 67.104 15.942 67.104 C 15.092 67.104 14.242 66.304 14.242 65.504 C 14.136 64.704 14.986 63.904 15.942 63.904 Z " fill="rgb(212,247,245)"/><path d=" M 384.636 27.104 C 383.68 27.104 382.936 26.304 382.936 25.504 C 382.936 24.604 383.786 24.004 384.743 24.004 C 385.699 24.104 386.337 24.804 386.231 25.704 C 386.231 26.504 385.593 27.104 384.636 27.104 L 384.636 27.104 Z " fill="rgb(212,247,245)"/><path d=" M 224.788 42.004 C 225.744 42.104 226.382 43.004 226.275 43.804 C 226.169 44.604 225.319 45.204 224.469 45.104 C 223.618 45.004 222.874 44.104 222.981 43.304 C 223.087 42.504 223.937 41.904 224.788 42.004 Z " fill="rgb(212,247,245)"/><path d=" M 40.281 62.004 C 41.131 62.004 41.982 62.904 41.875 63.704 C 41.769 64.504 40.919 65.104 40.175 65.104 C 39.218 65.104 38.581 64.204 38.687 63.404 C 38.687 62.604 39.431 62.004 40.281 62.004 L 40.281 62.004 Z " fill="rgb(212,247,245)"/><path d=" M 249.126 39.904 C 249.976 40.004 250.614 40.704 250.508 41.504 C 250.402 42.404 249.551 43.004 248.595 42.904 C 247.745 42.804 247.107 42.104 247.213 41.304 C 247.319 40.404 248.17 39.804 249.126 39.904 Z " fill="rgb(212,247,245)"/><path d=" M 89.065 57.904 C 90.021 58.004 90.659 58.804 90.553 59.704 C 90.446 60.504 89.596 61.104 88.746 61.004 C 87.896 60.904 87.258 60.104 87.364 59.304 C 87.471 58.504 88.321 57.904 89.065 57.904 L 89.065 57.904 Z " fill="rgb(212,247,245)"/><path d=" M 64.726 60.104 C 65.683 60.104 66.32 60.804 66.214 61.604 C 66.214 62.504 65.47 63.104 64.62 63.004 C 63.77 63.004 63.026 62.304 63.026 61.504 C 63.132 60.704 63.876 60.004 64.726 60.104 Z " fill="rgb(212,247,245)"/><path d=" M 273.359 37.804 C 274.209 37.904 274.847 38.604 274.847 39.404 C 274.847 40.204 273.89 41.004 273.04 40.904 C 272.19 40.804 271.552 40.004 271.658 39.204 C 271.658 38.404 272.508 37.804 273.359 37.804 L 273.359 37.804 Z " fill="rgb(212,247,245)"/><path d=" M 297.804 35.804 C 298.654 35.904 299.292 36.604 299.185 37.404 C 299.079 38.204 298.229 38.804 297.378 38.704 C 296.528 38.604 295.997 38.004 296.103 37.204 C 296.209 36.404 296.953 35.804 297.804 35.804 L 297.804 35.804 Z " fill="rgb(212,247,245)"/><path d=" M 321.93 36.704 C 321.079 36.704 320.336 35.904 320.336 35.204 C 320.336 34.404 321.186 33.704 322.036 33.804 C 322.886 33.804 323.524 34.604 323.418 35.404 C 323.418 36.104 322.78 36.704 321.93 36.704 L 321.93 36.704 Z " fill="rgb(212,247,245)"/><path d=" M 137.742 53.904 C 138.592 54.004 139.23 54.804 139.23 55.504 C 139.124 56.204 138.38 56.804 137.636 56.804 C 136.786 56.804 136.042 56.104 136.148 55.304 C 136.148 54.404 136.892 53.804 137.742 53.904 L 137.742 53.904 Z " fill="rgb(212,247,245)"/><path d=" M 113.297 55.904 C 114.147 55.904 114.785 56.604 114.785 57.504 C 114.679 58.304 114.147 58.804 113.297 58.904 C 112.447 58.904 111.703 58.204 111.703 57.404 C 111.703 56.604 112.447 55.904 113.297 55.904 Z " fill="rgb(212,247,245)"/><path d=" M 186.207 49.904 C 187.057 49.904 187.801 50.704 187.695 51.504 C 187.589 52.304 186.738 52.904 185.994 52.804 C 185.25 52.704 184.613 52.004 184.719 51.304 C 184.825 50.504 185.463 49.904 186.207 49.904 L 186.207 49.904 Z " fill="rgb(212,247,245)"/><path d=" M 234.884 45.804 C 235.735 45.804 236.479 46.604 236.372 47.404 C 236.266 48.204 235.416 48.804 234.566 48.704 C 233.822 48.604 233.29 47.904 233.29 47.104 C 233.396 46.304 234.034 45.704 234.884 45.804 L 234.884 45.804 Z " fill="rgb(212,247,245)"/><path d=" M 370.607 32.704 C 369.757 32.704 369.013 32.004 369.013 31.204 C 369.013 30.404 369.863 29.704 370.713 29.804 C 371.457 29.904 372.095 30.504 372.095 31.304 C 372.095 32.004 371.457 32.604 370.607 32.704 L 370.607 32.704 Z " fill="rgb(212,247,245)"/><path d=" M 210.652 47.904 C 211.502 48.004 212.034 48.604 211.927 49.404 C 211.821 50.204 211.183 50.704 210.333 50.604 C 209.589 50.504 208.845 49.904 208.951 49.204 C 208.951 48.404 209.802 47.804 210.652 47.904 L 210.652 47.904 Z " fill="rgb(212,247,245)"/><path d=" M 356.578 35.604 C 357.322 35.704 357.96 36.404 357.96 37.104 C 357.96 37.804 357.109 38.404 356.365 38.404 C 355.621 38.304 354.984 37.704 354.984 36.904 C 355.09 36.204 355.834 35.604 356.578 35.604 Z " fill="rgb(212,247,245)"/><path d=" M 346.162 34.704 C 345.312 34.604 344.781 34.004 344.781 33.204 C 344.781 32.404 345.524 31.904 346.268 31.904 C 347.012 31.904 347.756 32.604 347.756 33.304 C 347.863 34.104 347.012 34.804 346.162 34.704 L 346.162 34.704 Z " fill="rgb(212,247,245)"/><path d=" M 394.84 30.604 C 393.989 30.604 393.352 30.004 393.352 29.204 C 393.352 28.404 393.989 27.804 394.733 27.804 C 395.584 27.804 396.328 28.504 396.328 29.304 C 396.328 30.004 395.69 30.604 394.84 30.604 L 394.84 30.604 Z " fill="rgb(212,247,245)"/><path d=" M 307.688 39.704 C 308.432 39.704 309.176 40.404 309.176 41.104 C 309.176 41.804 308.538 42.504 307.688 42.504 C 306.944 42.504 306.2 41.804 306.2 41.104 C 306.2 40.404 306.944 39.704 307.688 39.704 Z " fill="rgb(212,247,245)"/><path d=" M 161.868 52.004 C 162.719 52.004 163.356 52.504 163.356 53.304 C 163.463 54.204 162.719 54.804 161.868 54.804 C 161.124 54.804 160.38 54.104 160.38 53.404 C 160.38 52.704 161.018 52.104 161.868 52.004 L 161.868 52.004 Z " fill="rgb(212,247,245)"/><path d=" M 259.223 43.804 C 260.073 43.904 260.605 44.504 260.498 45.304 C 260.392 46.104 259.754 46.604 258.904 46.504 C 258.054 46.404 257.523 45.804 257.629 45.004 C 257.735 44.204 258.479 43.704 259.223 43.804 Z " fill="rgb(212,247,245)"/><path d=" M 380.704 36.304 C 379.854 36.304 379.216 35.604 379.322 34.904 C 379.322 34.204 380.066 33.604 380.81 33.604 C 381.661 33.604 382.192 34.204 382.192 35.004 C 382.192 35.704 381.554 36.304 380.704 36.304 Z " fill="rgb(212,247,245)"/><path d=" M 283.455 41.904 C 284.306 41.904 284.943 42.504 284.837 43.304 C 284.837 44.004 284.093 44.604 283.349 44.604 C 282.499 44.604 281.861 44.004 281.968 43.204 C 281.968 42.404 282.605 41.904 283.455 41.904 Z " fill="rgb(212,247,245)"/><path d=" M 332.027 37.704 C 332.877 37.704 333.515 38.304 333.515 39.004 C 333.515 39.704 332.877 40.304 332.027 40.304 C 331.176 40.304 330.539 39.704 330.539 39.004 C 330.539 38.304 331.176 37.704 332.027 37.704 Z " fill="rgb(212,247,245)"/><path d=" M 366.25 39.504 C 367.206 39.304 367.631 39.904 367.844 41.404 C 366.887 41.504 366.143 41.604 365.293 41.604 C 364.974 40.304 365.293 39.604 366.25 39.504 L 366.25 39.504 Z " fill="rgb(212,247,245)"/><path d=" M 390.376 37.504 C 390.907 37.404 391.651 37.704 391.97 38.004 C 392.608 38.604 392.289 39.304 391.332 39.504 C 390.801 39.604 390.269 39.604 389.632 39.604 C 389.207 38.504 389.419 37.704 390.376 37.504 L 390.376 37.504 Z " fill="rgb(212,247,245)"/><path d=" M 25.72 68.004 C 26.571 67.904 27.208 68.104 27.527 69.304 C 26.464 69.404 25.614 69.504 24.658 69.504 C 24.551 68.604 24.976 68.104 25.72 68.004 Z " fill="rgb(212,247,245)"/><path d=" M 3.295 71.304 C 2.232 71.404 1.275 71.504 0 71.604 C 1.382 69.604 2.019 69.604 3.295 71.304 Z " fill="rgb(212,247,245)"/><path d=" M 73.335 65.304 C 73.335 64.404 73.76 64.004 74.504 63.904 C 75.567 63.804 75.992 64.304 76.098 65.404 C 76.098 66.104 75.461 66.704 74.717 66.704 C 73.973 66.704 73.441 66.204 73.335 65.504 C 73.335 65.504 73.335 65.504 73.335 65.504 C 73.335 65.504 73.335 65.504 73.335 65.404 C 73.335 65.404 73.335 65.304 73.335 65.304 C 73.335 65.304 73.335 65.304 73.335 65.304 Z " fill="rgb(212,247,245)"/><path d=" M 97.355 63.004 C 97.355 63.667 97.926 64.204 98.63 64.204 C 99.334 64.204 99.906 63.667 99.906 63.004 C 99.906 62.342 99.334 61.804 98.63 61.804 C 97.926 61.804 97.355 62.342 97.355 63.004 Z " fill="rgb(212,247,245)"/><path d=" M 121.8 61.004 C 121.8 61.667 122.371 62.204 123.075 62.204 C 123.779 62.204 124.351 61.667 124.351 61.004 C 124.351 60.342 123.779 59.804 123.075 59.804 C 122.371 59.804 121.8 60.342 121.8 61.004 Z " fill="rgb(212,247,245)"/><path d=" M 146.245 59.004 C 146.245 59.667 146.816 60.204 147.52 60.204 C 148.224 60.204 148.796 59.667 148.796 59.004 C 148.796 58.342 148.224 57.804 147.52 57.804 C 146.816 57.804 146.245 58.342 146.245 59.004 Z " fill="rgb(212,247,245)"/><path d=" M 170.69 57.004 C 170.69 57.667 171.261 58.204 171.965 58.204 C 172.669 58.204 173.241 57.667 173.241 57.004 C 173.241 56.342 172.669 55.804 171.965 55.804 C 171.261 55.804 170.69 56.342 170.69 57.004 Z " fill="rgb(212,247,245)"/><path d=" M 196.41 53.604 C 197.154 53.604 197.685 54.204 197.685 54.804 C 197.685 55.504 197.048 56.004 196.41 56.004 C 195.666 56.004 195.135 55.404 195.135 54.804 C 195.028 54.104 195.666 53.604 196.41 53.604 Z " fill="rgb(212,247,245)"/><path d=" M 217.241 53.404 C 217.241 54.067 217.813 54.604 218.517 54.604 C 219.221 54.604 219.792 54.067 219.792 53.404 C 219.792 52.742 219.221 52.204 218.517 52.204 C 217.813 52.204 217.241 52.742 217.241 53.404 Z " fill="rgb(212,247,245)"/><path d=" M 242.43 50.704 C 242.43 51.367 243.002 51.904 243.706 51.904 C 244.41 51.904 244.981 51.367 244.981 50.704 C 244.981 50.042 244.41 49.504 243.706 49.504 C 243.002 49.504 242.43 50.042 242.43 50.704 Z " fill="rgb(212,247,245)"/><path d=" M 269.32 47.604 C 270.064 47.604 270.595 48.204 270.595 48.804 C 270.595 49.504 269.958 50.004 269.32 50.004 C 268.682 50.004 268.045 49.404 268.045 48.804 C 268.045 48.104 268.576 47.604 269.32 47.604 Z " fill="rgb(212,247,245)"/><path d=" M 292.383 46.504 C 292.383 47.167 292.955 47.704 293.659 47.704 C 294.363 47.704 294.934 47.167 294.934 46.504 C 294.934 45.842 294.363 45.304 293.659 45.304 C 292.955 45.304 292.383 45.842 292.383 46.504 Z " fill="rgb(212,247,245)"/><path d=" M 316.616 44.604 C 316.616 45.267 317.187 45.804 317.891 45.804 C 318.595 45.804 319.166 45.267 319.166 44.604 C 319.166 43.942 318.595 43.404 317.891 43.404 C 317.187 43.404 316.616 43.942 316.616 44.604 Z " fill="rgb(212,247,245)"/><path d=" M 341.061 42.604 C 341.061 43.267 341.632 43.804 342.336 43.804 C 343.04 43.804 343.611 43.267 343.611 42.604 C 343.611 41.942 343.04 41.404 342.336 41.404 C 341.632 41.404 341.061 41.942 341.061 42.604 Z " fill="rgb(212,247,245)"/><path d=" M 49.209 67.104 C 49.209 67.767 49.78 68.304 50.484 68.304 C 51.188 68.304 51.76 67.767 51.76 67.104 C 51.76 66.442 51.188 65.904 50.484 65.904 C 49.78 65.904 49.209 66.442 49.209 67.104 Z " fill="rgb(212,247,245)"/></g></g></svg>