<svg id="Camada_1" data-name="Camada 1" xmlns="http://www.w3.org/2000/svg" viewBox="0 0 549 439.49"><defs><style>.cls-1{opacity:0.35;}.cls-2{fill:#00c2d4;}.cls-3{fill:#052b47;}</style></defs><g id="bubble-3"><g class="cls-1"><path class="cls-2" d="M351.09,398a6.75,6.75,0,0,1-5.29-2.53l-11.7-14.25a104.21,104.21,0,0,1-30.46,4.54h0a105.12,105.12,0,0,1-40.15-202.28,103.83,103.83,0,0,1,39.83-7.92A105.09,105.09,0,0,1,355.69,372l2.3,18.29a6.81,6.81,0,0,1-1.63,5.41A7,7,0,0,1,351.09,398Z"/></g><path class="cls-2" d="M303.32,178.6c39,0,76.4,22.5,93.34,60.05a102.11,102.11,0,0,1-44.2,131.69l.25,2,.83,6.58.83,6.57.64,5.14a3.9,3.9,0,0,1-3.92,4.41,3.81,3.81,0,0,1-3-1.44l-3.29-4-4.2-5.12-4.2-5.12-1.29-1.57A102.11,102.11,0,1,1,303.32,178.6m0-6a108.07,108.07,0,0,0-99,150.82A108,108,0,0,0,333,384.7l2.94,3.58,4.21,5.12,3.29,4a9.82,9.82,0,0,0,7.61,3.63,10,10,0,0,0,7.52-3.39,9.75,9.75,0,0,0,2.36-7.77l-.65-5.14-.83-6.57-.58-4.6a108.09,108.09,0,0,0-55.59-201Z"/></g><g id="bubble-2"><g class="cls-1"><path class="cls-2" d="M349.5,223.85a64,64,0,0,1-1.14-127.92h1.14a64,64,0,0,1,63.46,56l9.8,2.83a5.33,5.33,0,0,1,0,10.25l-9.8,2.83a64,64,0,0,1-63.46,56Z"/></g><path class="cls-2" d="M349.5,98.92a61,61,0,0,1,60.7,55.34l1.16.33,3.8,1.1,3.8,1.09,3,.86a2.34,2.34,0,0,1,0,4.49l-3,.86-3.8,1.09-3.8,1.1-1.16.34a61,61,0,1,1-61.79-66.59h1.09m0-6h-1.19a67,67,0,1,0,67.35,77.25l1.16-.33,3.8-1.1,3-.86a8.33,8.33,0,0,0,0-16l-3-.86-3.8-1.1-1.16-.33A67,67,0,0,0,349.5,92.92Z"/></g><g id="bubble-1"><g class="cls-1"><path class="cls-2" d="M227.48,251.55A105,105,0,0,1,145.33,81l-8.91-16.13a6.81,6.81,0,0,1,.07-6.82,6.87,6.87,0,0,1,9.32-2.57l16.13,8.91a105.1,105.1,0,1,1,65.55,187.16Z"/></g><path class="cls-2" d="M227.51,44.44a102.12,102.12,0,1,1-78.58,36.89l-1-1.77-3.2-5.8-3.2-5.8-2.5-4.54a3.92,3.92,0,0,1,3.4-5.82,4,4,0,0,1,1.91.51l4.54,2.5,5.8,3.2,5.8,3.2,1.77,1a101.79,101.79,0,0,1,65.24-23.55m0-6A108.22,108.22,0,0,0,161.65,60.8l-4.05-2.24-5.8-3.2-4.54-2.51a9.87,9.87,0,0,0-13.35,3.67,9.8,9.8,0,0,0-.12,9.8l2.51,4.54,3.2,5.8,2.24,4a108.12,108.12,0,1,0,85.77-42.27Z"/></g><g id="text-3"><path class="cls-3" d="M298.51,311.09h-2a4.58,4.58,0,1,0-4.55,0h-2a3.47,3.47,0,0,0-3.48,3.47v4.51a15.14,15.14,0,0,0,15.53.44v-4.95A3.47,3.47,0,0,0,298.51,311.09Z"/><path d="M311.92,309.24h-6V307h10l-6.57,13.25h-2.84Z"/><path d="M320.9,311.89a4.87,4.87,0,0,1,1.73.3,4.06,4.06,0,0,1,1.38.87,3.88,3.88,0,0,1,.91,1.35,4.41,4.41,0,0,1,.33,1.73,4.53,4.53,0,0,1-.37,1.83,4,4,0,0,1-1,1.41,4.51,4.51,0,0,1-1.55.91,5.53,5.53,0,0,1-1.94.33,5.43,5.43,0,0,1-2.6-.62,4.21,4.21,0,0,1-1.74-1.68l1.43-1.49a3.94,3.94,0,0,0,1.31,1.16,3.39,3.39,0,0,0,1.62.43,2.32,2.32,0,0,0,1.65-.61,2.17,2.17,0,0,0-1.5-3.78,2.54,2.54,0,0,0-1.15.28,2.33,2.33,0,0,0-.85.77h-2.18s0-.18.08-.42.11-.56.18-.94.16-.8.25-1.27.18-.94.28-1.42c.22-1.15.47-2.43.74-3.85h6.53v2.28H319.7l-.54,3a1.51,1.51,0,0,1,.66-.4A3.73,3.73,0,0,1,320.9,311.89Z"/><path d="M336.37,312.37a6.63,6.63,0,0,1-.37,2.27,5.47,5.47,0,0,1-1,1.79,4.63,4.63,0,0,1-1.53,1.18,4.6,4.6,0,0,1-3.84,0,4.69,4.69,0,0,1-1.52-1.18,5.48,5.48,0,0,1-1-1.79,7.34,7.34,0,0,1,0-4.54,5.59,5.59,0,0,1,1-1.79,4.69,4.69,0,0,1,1.52-1.18,4.5,4.5,0,0,1,3.84,0,4.63,4.63,0,0,1,1.53,1.18,5.57,5.57,0,0,1,1,1.79A6.63,6.63,0,0,1,336.37,312.37Zm-2.52,0a5.35,5.35,0,0,0-.17-1.37,3.19,3.19,0,0,0-.48-1.07,2.15,2.15,0,0,0-.72-.69,1.87,1.87,0,0,0-1.87,0,2.27,2.27,0,0,0-.73.69,3.4,3.4,0,0,0-.47,1.07,5,5,0,0,0-.17,1.37,4.82,4.82,0,0,0,.17,1.36,3.61,3.61,0,0,0,.47,1.07,2.27,2.27,0,0,0,.73.69,1.94,1.94,0,0,0,1.87,0,2.15,2.15,0,0,0,.72-.69,3.39,3.39,0,0,0,.48-1.07A5.22,5.22,0,0,0,333.85,312.37Z"/></g><g id="text-2"><path class="cls-3" d="M361.26,155h-2a4.57,4.57,0,1,0-4.54,0h-2a3.47,3.47,0,0,0-3.48,3.48V163a15.12,15.12,0,0,0,15.52.44v-4.94A3.47,3.47,0,0,0,361.26,155Z"/><path d="M375.6,159.52v2.26H368v-2.26h2.65v-5.65a1.91,1.91,0,0,1-.53.45,6,6,0,0,1-.79.44,5.63,5.63,0,0,1-.89.34,2.88,2.88,0,0,1-.81.13V152.9a2,2,0,0,0,.82-.22,6.74,6.74,0,0,0,.95-.51,8.56,8.56,0,0,0,.81-.59,1.76,1.76,0,0,0,.44-.46h2.56v8.4Z"/><path d="M381.46,155.83a4.87,4.87,0,0,1,1.73.3,4.2,4.2,0,0,1,1.39.87,4.1,4.1,0,0,1,.9,1.35,4.71,4.71,0,0,1,0,3.56,4.1,4.1,0,0,1-1,1.41,4.7,4.7,0,0,1-1.55.91,5.61,5.61,0,0,1-1.94.33,5.46,5.46,0,0,1-2.61-.61,4.4,4.4,0,0,1-1.74-1.68l1.43-1.5a3.94,3.94,0,0,0,1.31,1.16,3.28,3.28,0,0,0,1.62.43,2.3,2.3,0,0,0,1.66-.61A2.18,2.18,0,0,0,381.1,158a2.46,2.46,0,0,0-1.14.28,2.18,2.18,0,0,0-.85.77h-2.19s0-.18.08-.42.11-.55.18-.93.16-.81.25-1.27.18-1,.28-1.43c.22-1.15.47-2.43.74-3.85H385v2.28h-4.73l-.54,3a1.58,1.58,0,0,1,.67-.39A3.32,3.32,0,0,1,381.46,155.83Z"/><path d="M391.8,155.83a4.87,4.87,0,0,1,1.73.3,4.06,4.06,0,0,1,1.38.87,4,4,0,0,1,.91,1.35,4.71,4.71,0,0,1,0,3.56,4.1,4.1,0,0,1-1,1.41,4.7,4.7,0,0,1-1.55.91,5.61,5.61,0,0,1-1.94.33,5.46,5.46,0,0,1-2.61-.61,4.4,4.4,0,0,1-1.74-1.68l1.43-1.5a3.94,3.94,0,0,0,1.31,1.16,3.28,3.28,0,0,0,1.62.43,2.3,2.3,0,0,0,1.66-.61,2.13,2.13,0,0,0,.64-1.61,2.07,2.07,0,0,0-2.15-2.17,2.46,2.46,0,0,0-1.14.28,2.18,2.18,0,0,0-.85.77h-2.19s0-.18.08-.42.11-.55.18-.93.16-.81.25-1.27.18-1,.28-1.43c.22-1.15.47-2.43.74-3.85h6.54v2.28H390.6l-.54,3a1.58,1.58,0,0,1,.67-.39A3.28,3.28,0,0,1,391.8,155.83Z"/></g><g id="text-1"><path class="cls-3" d="M186.89,129.46h-2a4.58,4.58,0,1,0-4.55,0h-2a3.48,3.48,0,0,0-3.48,3.48v4.5a15.17,15.17,0,0,0,15.53.45v-4.95A3.48,3.48,0,0,0,186.89,129.46Z"/><path d="M201.49,134v2.26h-7.58V134h2.65V128.3a2.1,2.1,0,0,1-.53.46,7.35,7.35,0,0,1-.79.43,5.63,5.63,0,0,1-.89.34,2.83,2.83,0,0,1-.81.13v-2.33a2,2,0,0,0,.82-.22,6.74,6.74,0,0,0,.95-.51,7.1,7.1,0,0,0,.81-.59,1.94,1.94,0,0,0,.44-.45h2.56V134Z"/><path d="M212.52,131.79a4.54,4.54,0,0,1-.37,1.81,4.6,4.6,0,0,1-1,1.46,4.66,4.66,0,0,1-1.54,1,5,5,0,0,1-1.91.36,4.94,4.94,0,0,1-2-.41,4.18,4.18,0,0,1-1.54-1.2,5.63,5.63,0,0,1-1-1.91,9.16,9.16,0,0,1-.33-2.57,12.9,12.9,0,0,1,.35-3.2,7,7,0,0,1,1-2.33,4.5,4.5,0,0,1,1.62-1.43,4.64,4.64,0,0,1,2.13-.48A4.94,4.94,0,0,1,212,125l-1.44,1.57a3.24,3.24,0,0,0-1.16-1.11,3.11,3.11,0,0,0-1.53-.39,2.39,2.39,0,0,0-2,1,4.75,4.75,0,0,0-.78,2.8,2.77,2.77,0,0,1,1.11-1.06,3.46,3.46,0,0,1,1.67-.39,5,5,0,0,1,1.82.33,4.61,4.61,0,0,1,1.47.93,4.21,4.21,0,0,1,1,1.41A4.32,4.32,0,0,1,212.52,131.79Zm-4.84,2.5a2.33,2.33,0,0,0,.94-.2,2.37,2.37,0,0,0,.78-.54,2.54,2.54,0,0,0,.53-.8,2.39,2.39,0,0,0,.2-1,2.26,2.26,0,0,0-.2-.94,2.45,2.45,0,0,0-.53-.78,2.38,2.38,0,0,0-.77-.52,2.3,2.3,0,0,0-.95-.19,2.37,2.37,0,0,0-1,.19,2.32,2.32,0,0,0-.78.52,2.42,2.42,0,0,0-.52.78,2.26,2.26,0,0,0-.19.94,2.52,2.52,0,0,0,.73,1.75,2.44,2.44,0,0,0,.77.54A2.19,2.19,0,0,0,207.68,134.29Z"/><path d="M223.85,131.79a4.54,4.54,0,0,1-1.4,3.27,4.66,4.66,0,0,1-1.54,1,5,5,0,0,1-1.91.36,4.91,4.91,0,0,1-2-.41,4.18,4.18,0,0,1-1.54-1.2,5.46,5.46,0,0,1-1-1.91,9.14,9.14,0,0,1-.34-2.57,12.87,12.87,0,0,1,.36-3.2,6.83,6.83,0,0,1,1-2.33,4.42,4.42,0,0,1,1.62-1.43,4.64,4.64,0,0,1,2.13-.48,4.91,4.91,0,0,1,4.08,2.09l-1.43,1.57a3.24,3.24,0,0,0-1.16-1.11,3.11,3.11,0,0,0-1.53-.39,2.39,2.39,0,0,0-2,1,4.68,4.68,0,0,0-.78,2.8,2.77,2.77,0,0,1,1.11-1.06,3.43,3.43,0,0,1,1.67-.39,5,5,0,0,1,1.82.33,4.72,4.72,0,0,1,1.47.93,4.21,4.21,0,0,1,1,1.41A4.32,4.32,0,0,1,223.85,131.79Zm-4.84,2.5a2.33,2.33,0,0,0,.94-.2,2.37,2.37,0,0,0,.78-.54,2.72,2.72,0,0,0,.53-.8,2.39,2.39,0,0,0,.2-1,2.26,2.26,0,0,0-.2-.94,2.63,2.63,0,0,0-.53-.78,2.38,2.38,0,0,0-.77-.52,2.34,2.34,0,0,0-1-.19,2.37,2.37,0,0,0-.95.19,2.32,2.32,0,0,0-.78.52,2.46,2.46,0,0,0-.71,1.72,2.23,2.23,0,0,0,.2,1,2.39,2.39,0,0,0,.53.79,2.44,2.44,0,0,0,.77.54A2.15,2.15,0,0,0,219,134.29Z"/><path d="M230.42,138.58V135.8H225v-2.22l6.25-8h1.7v8h1.64v2.24h-1.64v2.78Zm-2.95-5h3.23v-4.22Z"/></g><path d="M303.37,426.89V413.64H309a3.72,3.72,0,0,1,1.69.39,4.39,4.39,0,0,1,1.33,1,4.83,4.83,0,0,1,.88,1.42,4.29,4.29,0,0,1,.31,1.6,4.79,4.79,0,0,1-.29,1.63,4.55,4.55,0,0,1-.84,1.41,4.28,4.28,0,0,1-1.31,1,3.76,3.76,0,0,1-1.68.37h-3.14v4.44Zm2.57-6.7h3a1.5,1.5,0,0,0,1.19-.57,2.45,2.45,0,0,0,.47-1.57,2.59,2.59,0,0,0-.15-.91,2.37,2.37,0,0,0-.39-.68,1.57,1.57,0,0,0-.57-.42,1.74,1.74,0,0,0-.66-.14h-2.88Z"/><path d="M320.58,419.28a4.93,4.93,0,0,0-2,.44,2.6,2.6,0,0,0-1.29,1.26v5.91h-2.5v-9.77h2.3v2.09a4.52,4.52,0,0,1,.61-.91,5,5,0,0,1,.77-.7,3.6,3.6,0,0,1,.83-.46,2.43,2.43,0,0,1,.81-.16h.31l.2,0Z"/><path d="M322,415.75v-2.48h2.5v2.48Zm0,11.14v-9.77h2.5v9.77Z"/><path d="M331.25,427.08a5.37,5.37,0,0,1-2.14-.41,4.67,4.67,0,0,1-1.62-1.11,5,5,0,0,1-1-1.61,5.41,5.41,0,0,1-.35-1.93,5.47,5.47,0,0,1,.35-1.94,4.9,4.9,0,0,1,1-1.61,4.67,4.67,0,0,1,1.62-1.11,5.79,5.79,0,0,1,4.28,0,4.69,4.69,0,0,1,1.6,1.11,4.9,4.9,0,0,1,1,1.61,5.38,5.38,0,0,1,0,3.87,5,5,0,0,1-1,1.61,4.59,4.59,0,0,1-1.6,1.11A5.46,5.46,0,0,1,331.25,427.08ZM328.69,422a3.45,3.45,0,0,0,.2,1.19,2.9,2.9,0,0,0,.54.92,2.41,2.41,0,0,0,.81.61,2.53,2.53,0,0,0,2,0,2.41,2.41,0,0,0,.81-.61,2.84,2.84,0,0,0,.54-.93,3.51,3.51,0,0,0,.2-1.2,3.42,3.42,0,0,0-.2-1.17,2.84,2.84,0,0,0-.54-.93,2.28,2.28,0,0,0-.81-.61,2.44,2.44,0,0,0-1-.21,2.29,2.29,0,0,0-1,.22,2.55,2.55,0,0,0-.81.61,3,3,0,0,0-.54.94A3.42,3.42,0,0,0,328.69,422Z"/><path d="M343.87,419.28a4.93,4.93,0,0,0-2,.44,2.57,2.57,0,0,0-1.28,1.26v5.91H338v-9.77h2.3v2.09a4.17,4.17,0,0,1,.62-.91,4.54,4.54,0,0,1,.76-.7,3.6,3.6,0,0,1,.83-.46,2.43,2.43,0,0,1,.81-.16h.31l.2,0Z"/><path d="M345.27,415.75v-2.48h2.5v2.48Zm0,11.14v-9.77h2.5v9.77Z"/><path d="M349.37,425.36l5.45-6.49H349.6v-1.75h7.85v1.53L352,425.14h5.51v1.75h-8.18Z"/><path d="M361.9,427.08a3.83,3.83,0,0,1-1.33-.23,3.28,3.28,0,0,1-1.06-.66,2.88,2.88,0,0,1-.7-1,2.91,2.91,0,0,1-.25-1.23,2.73,2.73,0,0,1,.3-1.27,2.85,2.85,0,0,1,.86-1,4.28,4.28,0,0,1,1.32-.65,5.93,5.93,0,0,1,1.68-.23,7.81,7.81,0,0,1,1.28.11,5.58,5.58,0,0,1,1.11.32v-.56a2,2,0,0,0-.55-1.49,2.31,2.31,0,0,0-1.64-.53,4.5,4.5,0,0,0-1.53.28,7.17,7.17,0,0,0-1.53.82l-.76-1.58a7.14,7.14,0,0,1,4.06-1.25,4.78,4.78,0,0,1,3.28,1,3.79,3.79,0,0,1,1.17,3v3a.84.84,0,0,0,.14.56.63.63,0,0,0,.45.19v2.12a5.41,5.41,0,0,1-1.1.14,1.69,1.69,0,0,1-1.09-.32,1.36,1.36,0,0,1-.47-.84l-.06-.54a4.31,4.31,0,0,1-1.59,1.3A4.53,4.53,0,0,1,361.9,427.08Zm.7-1.83a3.25,3.25,0,0,0,1.21-.22,2.25,2.25,0,0,0,.89-.6.91.91,0,0,0,.41-.71V422.6a6.87,6.87,0,0,0-1-.27,5.16,5.16,0,0,0-1-.1,2.69,2.69,0,0,0-1.59.44,1.31,1.31,0,0,0-.61,1.11,1.34,1.34,0,0,0,.48,1.05A1.75,1.75,0,0,0,362.6,425.25Z"/><path d="M378.93,427.08a5.41,5.41,0,0,1-2.14-.41,4.77,4.77,0,0,1-1.62-1.11,4.82,4.82,0,0,1-1-1.61,5.38,5.38,0,0,1,0-3.87,4.75,4.75,0,0,1,2.63-2.72,5.79,5.79,0,0,1,4.28,0,4.83,4.83,0,0,1,1.61,1.11,4.72,4.72,0,0,1,1,1.61,5.38,5.38,0,0,1,0,3.87,5,5,0,0,1-1,1.61,4.73,4.73,0,0,1-1.61,1.11A5.42,5.42,0,0,1,378.93,427.08ZM376.38,422a3.46,3.46,0,0,0,.19,1.19,2.9,2.9,0,0,0,.54.92,2.44,2.44,0,0,0,.82.61,2.39,2.39,0,0,0,1,.21,2.44,2.44,0,0,0,1-.21,2.41,2.41,0,0,0,.81-.61,2.84,2.84,0,0,0,.54-.93,3.29,3.29,0,0,0,.2-1.2,3.2,3.2,0,0,0-.2-1.17,2.84,2.84,0,0,0-.54-.93,2.28,2.28,0,0,0-.81-.61,2.44,2.44,0,0,0-1-.21,2.25,2.25,0,0,0-1,.22,2.59,2.59,0,0,0-.82.61,3,3,0,0,0-.54.94A3.42,3.42,0,0,0,376.38,422Z"/><path d="M405.4,426.89h-2.5v-5.48a3,3,0,0,0-.4-1.72,1.31,1.31,0,0,0-1.11-.54,2.08,2.08,0,0,0-1.4.57,3.13,3.13,0,0,0-.94,1.48v5.69h-2.5v-5.48a2.89,2.89,0,0,0-.4-1.72,1.31,1.31,0,0,0-1.11-.54,2.13,2.13,0,0,0-1.39.56,3,3,0,0,0-.94,1.47v5.71h-2.5v-9.77h2.25v1.81a3.76,3.76,0,0,1,1.49-1.47,4.44,4.44,0,0,1,2.15-.51,2.83,2.83,0,0,1,1.91.59,2.69,2.69,0,0,1,.86,1.48,4.14,4.14,0,0,1,1.51-1.54,4,4,0,0,1,2.09-.53,2.93,2.93,0,0,1,1.47.33,2.45,2.45,0,0,1,.9.88,3.67,3.67,0,0,1,.44,1.23,8.18,8.18,0,0,1,.12,1.4Z"/><path d="M412.12,427.08a5.36,5.36,0,0,1-2.13-.4,4.81,4.81,0,0,1-2.66-2.7,5.2,5.2,0,0,1-.36-1.92,5.38,5.38,0,0,1,.35-2,4.82,4.82,0,0,1,1-1.62,4.72,4.72,0,0,1,1.63-1.11,5.33,5.33,0,0,1,2.16-.41,5.19,5.19,0,0,1,2.13.41,4.74,4.74,0,0,1,2.62,2.7,5.38,5.38,0,0,1,.34,1.91c0,.16,0,.32,0,.46a1.85,1.85,0,0,1-.05.38h-7.55a2.69,2.69,0,0,0,.28,1,2.62,2.62,0,0,0,.57.77,2.56,2.56,0,0,0,.81.48,2.47,2.47,0,0,0,.93.17,2.9,2.9,0,0,0,1.41-.36,1.9,1.9,0,0,0,.9-1l2.15.59a4.36,4.36,0,0,1-1.73,1.84A5.33,5.33,0,0,1,412.12,427.08Zm2.54-5.9a2.63,2.63,0,0,0-.82-1.76,2.48,2.48,0,0,0-1.74-.66,2.62,2.62,0,0,0-.94.17,2.43,2.43,0,0,0-.78.5,2.65,2.65,0,0,0-.55.76,2.68,2.68,0,0,0-.25,1Z"/><path d="M418.76,415.75v-2.48h2.5v2.48Zm0,11.14v-9.77h2.5v9.77Z"/><path d="M428,427.08a5.42,5.42,0,0,1-2.15-.41,4.83,4.83,0,0,1-2.63-2.72,5.38,5.38,0,0,1,0-3.87,4.6,4.6,0,0,1,1-1.61,4.73,4.73,0,0,1,1.61-1.11A5.25,5.25,0,0,1,428,417a5.19,5.19,0,0,1,2.13.41,4.73,4.73,0,0,1,1.61,1.11,4.9,4.9,0,0,1,1,1.61,5.47,5.47,0,0,1,.35,1.94,5.41,5.41,0,0,1-.35,1.93,5.16,5.16,0,0,1-1,1.61,4.63,4.63,0,0,1-1.61,1.11A5.41,5.41,0,0,1,428,427.08ZM425.48,422a3.23,3.23,0,0,0,.2,1.19,2.9,2.9,0,0,0,.54.92,2.41,2.41,0,0,0,.81.61,2.44,2.44,0,0,0,1,.21,2.39,2.39,0,0,0,1-.21,2.44,2.44,0,0,0,.82-.61,2.84,2.84,0,0,0,.54-.93,3.51,3.51,0,0,0,.19-1.2,3.42,3.42,0,0,0-.19-1.17,2.84,2.84,0,0,0-.54-.93,2.32,2.32,0,0,0-.82-.61,2.39,2.39,0,0,0-1-.21,2.29,2.29,0,0,0-1,.22,2.55,2.55,0,0,0-.81.61,3,3,0,0,0-.54.94A3.2,3.2,0,0,0,425.48,422Z"/><path d="M442,427.08a3.83,3.83,0,0,1-1.33-.23,3.28,3.28,0,0,1-1.06-.66,2.88,2.88,0,0,1-.7-1,2.91,2.91,0,0,1-.25-1.23,2.73,2.73,0,0,1,.3-1.27,3,3,0,0,1,.86-1,4.28,4.28,0,0,1,1.32-.65,5.93,5.93,0,0,1,1.68-.23,7.81,7.81,0,0,1,1.28.11,5.58,5.58,0,0,1,1.11.32v-.56a2,2,0,0,0-.55-1.49,2.29,2.29,0,0,0-1.64-.53,4.5,4.5,0,0,0-1.53.28,7.68,7.68,0,0,0-1.53.82l-.76-1.58a7.15,7.15,0,0,1,4.07-1.25,4.77,4.77,0,0,1,3.27,1,3.79,3.79,0,0,1,1.17,3v3a.84.84,0,0,0,.14.56.64.64,0,0,0,.46.19v2.12a5.5,5.5,0,0,1-1.11.14,1.69,1.69,0,0,1-1.09-.32,1.36,1.36,0,0,1-.47-.84l-.06-.54a4.23,4.23,0,0,1-1.59,1.3A4.5,4.5,0,0,1,442,427.08Zm.71-1.83a3.23,3.23,0,0,0,1.2-.22,2.25,2.25,0,0,0,.89-.6.91.91,0,0,0,.41-.71V422.6a6.87,6.87,0,0,0-1-.27,5.16,5.16,0,0,0-1-.1,2.69,2.69,0,0,0-1.59.44,1.31,1.31,0,0,0-.61,1.11,1.34,1.34,0,0,0,.48,1.05A1.77,1.77,0,0,0,442.69,425.25Z"/><path d="M465.21,426.89h-2.5v-5.48a2.89,2.89,0,0,0-.4-1.72,1.31,1.31,0,0,0-1.11-.54,2.1,2.1,0,0,0-1.4.57,3,3,0,0,0-.93,1.48v5.69h-2.5v-5.48a2.88,2.88,0,0,0-.41-1.72,1.29,1.29,0,0,0-1.11-.54,2.17,2.17,0,0,0-1.39.56,3,3,0,0,0-.94,1.47v5.71H450v-9.77h2.26v1.81a3.67,3.67,0,0,1,1.48-1.47,4.48,4.48,0,0,1,2.16-.51,2.81,2.81,0,0,1,1.9.59,2.64,2.64,0,0,1,.86,1.48,4.21,4.21,0,0,1,1.51-1.54,4,4,0,0,1,2.09-.53,3,3,0,0,1,1.48.33,2.5,2.5,0,0,1,.89.88,3.67,3.67,0,0,1,.44,1.23,8.18,8.18,0,0,1,.12,1.4Z"/><path d="M473,427.08a4,4,0,0,1-2-.5,3.8,3.8,0,0,1-1.38-1.38v1.69H467.4V413.27h2.5v5.56a3.73,3.73,0,0,1,1.37-1.39,3.86,3.86,0,0,1,2-.49,3.59,3.59,0,0,1,1.73.41,4.33,4.33,0,0,1,1.35,1.1,4.87,4.87,0,0,1,.88,1.62,6.14,6.14,0,0,1,.31,2,5.57,5.57,0,0,1-.35,2,5.05,5.05,0,0,1-1,1.6,4.52,4.52,0,0,1-1.45,1.07A4.27,4.27,0,0,1,473,427.08Zm-.69-2.13a2.55,2.55,0,0,0,1.1-.23,2.7,2.7,0,0,0,.86-.63,2.88,2.88,0,0,0,.55-.91,3.18,3.18,0,0,0,.19-1.12,3.58,3.58,0,0,0-.18-1.14,3.05,3.05,0,0,0-.54-.95,2.67,2.67,0,0,0-.81-.65,2.19,2.19,0,0,0-1-.24,2.31,2.31,0,0,0-1.51.55,3.48,3.48,0,0,0-1,1.35v2.33a1.94,1.94,0,0,0,.38.67,3.12,3.12,0,0,0,.57.52,2.74,2.74,0,0,0,.69.33A2.37,2.37,0,0,0,472.27,425Z"/><path d="M479.23,415.75v-2.48h2.5v2.48Zm0,11.14v-9.77h2.5v9.77Z"/><path d="M488.52,427.08a5.43,5.43,0,0,1-2.13-.4,5,5,0,0,1-1.62-1.09,4.77,4.77,0,0,1-1-1.61,5,5,0,0,1-.37-1.92,5.38,5.38,0,0,1,.36-2,4.64,4.64,0,0,1,1-1.62,4.76,4.76,0,0,1,1.64-1.11,5.29,5.29,0,0,1,2.15-.41,5.2,5.2,0,0,1,2.14.41,4.8,4.8,0,0,1,1.6,1.1,4.68,4.68,0,0,1,1,1.6,5.39,5.39,0,0,1,.35,1.91c0,.16,0,.32,0,.46a3,3,0,0,1-.05.38H486a2.89,2.89,0,0,0,.28,1,2.48,2.48,0,0,0,.58.77,2.63,2.63,0,0,0,1.74.65,2.89,2.89,0,0,0,1.4-.36,1.88,1.88,0,0,0,.91-1l2.15.59a4.42,4.42,0,0,1-1.73,1.84A5.34,5.34,0,0,1,488.52,427.08Zm2.54-5.9a2.58,2.58,0,0,0-.81-1.76,2.49,2.49,0,0,0-1.75-.66,2.66,2.66,0,0,0-.94.17,2.53,2.53,0,0,0-1.32,1.26,2.68,2.68,0,0,0-.26,1Z"/><path d="M504.25,426.89h-2.5v-5.48a2.81,2.81,0,0,0-.41-1.72,1.34,1.34,0,0,0-1.14-.54,2.14,2.14,0,0,0-.76.15,2.88,2.88,0,0,0-.74.42,3.14,3.14,0,0,0-.62.64,2.34,2.34,0,0,0-.41.82v5.71h-2.5v-9.77h2.25v1.81a3.76,3.76,0,0,1,1.57-1.46,5,5,0,0,1,2.32-.52,3,3,0,0,1,1.49.33,2.62,2.62,0,0,1,.9.88,3.66,3.66,0,0,1,.43,1.23,8.18,8.18,0,0,1,.12,1.4Z"/><path d="M512.2,426.39a10.33,10.33,0,0,1-1.23.45,5.1,5.1,0,0,1-1.53.22,3.46,3.46,0,0,1-1-.13,2.12,2.12,0,0,1-.8-.42,2.08,2.08,0,0,1-.55-.74,2.69,2.69,0,0,1-.2-1.11V419h-1.29v-1.92h1.29v-3.18h2.5v3.18h2V419h-2v4.78a.88.88,0,0,0,.27.73,1,1,0,0,0,.66.22,2.43,2.43,0,0,0,.76-.13l.6-.23Z"/><path d="M517.8,427.08a5.34,5.34,0,0,1-2.12-.4A4.73,4.73,0,0,1,513,424a5,5,0,0,1-.37-1.92,5.38,5.38,0,0,1,.36-2,4.79,4.79,0,0,1,1-1.62,4.85,4.85,0,0,1,1.64-1.11,5.32,5.32,0,0,1,2.15-.41,5.2,5.2,0,0,1,2.14.41,4.8,4.8,0,0,1,1.6,1.1,4.53,4.53,0,0,1,1,1.6,5.39,5.39,0,0,1,.35,1.91c0,.16,0,.32,0,.46a1.85,1.85,0,0,1,0,.38H515.3a2.89,2.89,0,0,0,.28,1,2.48,2.48,0,0,0,1.38,1.25,2.49,2.49,0,0,0,.94.17,2.93,2.93,0,0,0,1.41-.36,1.9,1.9,0,0,0,.9-1l2.15.59a4.36,4.36,0,0,1-1.73,1.84A5.34,5.34,0,0,1,517.8,427.08Zm2.54-5.9a2.58,2.58,0,0,0-.81-1.76,2.48,2.48,0,0,0-1.74-.66,2.67,2.67,0,0,0-.95.17,2.58,2.58,0,0,0-1.57,2.25Z"/><path d="M446.31,115a3.12,3.12,0,0,1-.33,1.47,3.08,3.08,0,0,1-.93,1.07,4.4,4.4,0,0,1-1.36.65,5.87,5.87,0,0,1-1.65.22h-6.4V105.17h7.09a2.6,2.6,0,0,1,1.25.3,3.13,3.13,0,0,1,.95.78,3.48,3.48,0,0,1,.61,1.08,3.68,3.68,0,0,1,.21,1.22,3.62,3.62,0,0,1-.48,1.82,3,3,0,0,1-1.42,1.26,3.31,3.31,0,0,1,2.46,3.38Zm-8.1-7.63v3.34h3.44a1.54,1.54,0,0,0,1.11-.45,1.67,1.67,0,0,0,.46-1.23,1.72,1.72,0,0,0-.42-1.22,1.4,1.4,0,0,0-1-.44Zm5.51,7.14a2,2,0,0,0-.12-.68,2,2,0,0,0-.33-.57,1.58,1.58,0,0,0-.48-.38,1.44,1.44,0,0,0-.62-.14h-4v3.49H442a1.59,1.59,0,0,0,.66-.13,1.66,1.66,0,0,0,.53-.36,1.87,1.87,0,0,0,.36-.55A1.75,1.75,0,0,0,443.72,114.52Z"/><path d="M451.07,118.61a2.75,2.75,0,0,1-2.29-1,4.44,4.44,0,0,1-.79-2.87v-6.12h2.5v5.58c0,1.5.55,2.25,1.63,2.25a2.61,2.61,0,0,0,1.41-.43,3.26,3.26,0,0,0,1.11-1.34v-6.06h2.5v6.9a.84.84,0,0,0,.14.56.6.6,0,0,0,.46.19v2.12a5,5,0,0,1-.63.1l-.46,0a1.83,1.83,0,0,1-1.09-.31,1.22,1.22,0,0,1-.49-.85l-.06-.78a4.14,4.14,0,0,1-1.68,1.51A5.13,5.13,0,0,1,451.07,118.61Z"/><path d="M463.32,118.61a7.56,7.56,0,0,1-2.41-.39,5.74,5.74,0,0,1-2-1.12l.94-1.57a7.21,7.21,0,0,0,1.74,1,4.66,4.66,0,0,0,1.69.33,2.12,2.12,0,0,0,1.18-.28.9.9,0,0,0,.42-.8.8.8,0,0,0-.5-.77,11,11,0,0,0-1.64-.56c-.64-.17-1.18-.34-1.63-.5a4.52,4.52,0,0,1-1.08-.55,2,2,0,0,1-.6-.71,2.35,2.35,0,0,1-.18-1,3,3,0,0,1,.29-1.35,2.92,2.92,0,0,1,.81-1,3.86,3.86,0,0,1,1.22-.65,5,5,0,0,1,1.52-.22,6.37,6.37,0,0,1,2.07.32,5.06,5.06,0,0,1,1.76,1l-1,1.51a6.15,6.15,0,0,0-1.45-.82,4,4,0,0,0-1.39-.26,2.06,2.06,0,0,0-1.06.26.91.91,0,0,0-.43.84.88.88,0,0,0,.1.43,1,1,0,0,0,.33.3,3.07,3.07,0,0,0,.59.25,9,9,0,0,0,.9.25c.68.18,1.25.35,1.73.53a4.8,4.8,0,0,1,1.18.59,2.33,2.33,0,0,1,.67.78,2.4,2.4,0,0,1,.21,1.05,2.71,2.71,0,0,1-1.06,2.27A4.56,4.56,0,0,1,463.32,118.61Z"/><path d="M468.28,113.54a5.48,5.48,0,0,1,.35-2,4.73,4.73,0,0,1,1-1.6,5,5,0,0,1,1.62-1.1,5.29,5.29,0,0,1,2.15-.41,5.13,5.13,0,0,1,2.73.69,4.32,4.32,0,0,1,1.69,1.81l-2.44.74a2.23,2.23,0,0,0-.84-.83,2.4,2.4,0,0,0-1.16-.28,2.47,2.47,0,0,0-1,.21,2.38,2.38,0,0,0-.81.6,2.7,2.7,0,0,0-.54.92,3.51,3.51,0,0,0-.19,1.2,3.27,3.27,0,0,0,.2,1.19,3.05,3.05,0,0,0,.55.93,2.41,2.41,0,0,0,.81.61,2.38,2.38,0,0,0,1,.21,2.42,2.42,0,0,0,1.24-.33,2,2,0,0,0,.8-.82l2.44.74a4.05,4.05,0,0,1-1.66,1.83,5.16,5.16,0,0,1-2.78.71,5.46,5.46,0,0,1-2.15-.41,4.87,4.87,0,0,1-1.62-1.11,5.11,5.11,0,0,1-1-1.62A5.29,5.29,0,0,1,468.28,113.54Z"/><path d="M482.09,118.61a3.81,3.81,0,0,1-1.32-.23,3.22,3.22,0,0,1-1.07-.66,2.94,2.94,0,0,1-.7-1,3,3,0,0,1-.25-1.24,2.62,2.62,0,0,1,.31-1.27,2.75,2.75,0,0,1,.86-1,4.12,4.12,0,0,1,1.31-.65,5.93,5.93,0,0,1,1.68-.23,7.71,7.71,0,0,1,1.28.11,5.21,5.21,0,0,1,1.11.32v-.56a1.93,1.93,0,0,0-.55-1.49,2.28,2.28,0,0,0-1.63-.53,4.41,4.41,0,0,0-1.53.28,7.17,7.17,0,0,0-1.53.82l-.77-1.58a7.17,7.17,0,0,1,4.07-1.25,4.73,4.73,0,0,1,3.27,1,3.79,3.79,0,0,1,1.17,3v3a.9.9,0,0,0,.14.56.62.62,0,0,0,.46.19v2.12a5.41,5.41,0,0,1-1.1.14,1.65,1.65,0,0,1-1.09-.32,1.33,1.33,0,0,1-.48-.84l-.06-.54a4.2,4.2,0,0,1-1.58,1.3A4.54,4.54,0,0,1,482.09,118.61Zm.71-1.83a3.23,3.23,0,0,0,1.2-.22,2.18,2.18,0,0,0,.89-.6.91.91,0,0,0,.41-.71v-1.12a6.51,6.51,0,0,0-1-.27,5.08,5.08,0,0,0-1-.1,2.68,2.68,0,0,0-1.58.44,1.33,1.33,0,0,0-.13,2.16A1.75,1.75,0,0,0,482.8,116.78Z"/><path d="M496,110.81a4.93,4.93,0,0,0-2,.44,2.64,2.64,0,0,0-1.29,1.26v5.91h-2.5v-9.77h2.3v2.09a4.17,4.17,0,0,1,.62-.91,4.54,4.54,0,0,1,.76-.7,3.6,3.6,0,0,1,.83-.46,2.43,2.43,0,0,1,.81-.16h.31l.2,0Z"/><path d="M505.08,118.61a7.54,7.54,0,0,1-2.4-.39,5.74,5.74,0,0,1-2-1.12l.93-1.57a7.46,7.46,0,0,0,1.75,1,4.62,4.62,0,0,0,1.69.33,2.09,2.09,0,0,0,1.17-.28.89.89,0,0,0,.43-.8.81.81,0,0,0-.5-.77,11.41,11.41,0,0,0-1.64-.56c-.64-.17-1.18-.34-1.63-.5a4.16,4.16,0,0,1-1.08-.55,2,2,0,0,1-.6-.71,2.35,2.35,0,0,1-.18-1,3.11,3.11,0,0,1,.28-1.35,3.07,3.07,0,0,1,.82-1,3.65,3.65,0,0,1,1.22-.65,4.94,4.94,0,0,1,1.52-.22,6.31,6.31,0,0,1,2.06.32,5.11,5.11,0,0,1,1.77,1l-1,1.51a6.15,6.15,0,0,0-1.45-.82,4,4,0,0,0-1.39-.26,2,2,0,0,0-1.06.26.91.91,0,0,0-.43.84.78.78,0,0,0,.1.43,1,1,0,0,0,.33.3,2.82,2.82,0,0,0,.59.25,9,9,0,0,0,.9.25c.67.18,1.25.35,1.73.53a4.55,4.55,0,0,1,1.17.59,2.26,2.26,0,0,1,.68.78,2.4,2.4,0,0,1,.21,1.05,2.74,2.74,0,0,1-1.06,2.27A4.57,4.57,0,0,1,505.08,118.61Z"/><path d="M515.2,118.61a5.36,5.36,0,0,1-2.13-.4,4.87,4.87,0,0,1-1.62-1.09,4.8,4.8,0,0,1-1-1.61,5.2,5.2,0,0,1-.36-1.92,5.38,5.38,0,0,1,.35-2,4.82,4.82,0,0,1,2.66-2.73,5.33,5.33,0,0,1,2.16-.41,5.16,5.16,0,0,1,2.13.41A4.85,4.85,0,0,1,519,110a4.68,4.68,0,0,1,1,1.6,5.38,5.38,0,0,1,.34,1.91c0,.16,0,.32,0,.46a1.92,1.92,0,0,1,0,.38H512.7a2.69,2.69,0,0,0,.28,1,2.48,2.48,0,0,0,.58.77,2.41,2.41,0,0,0,.8.48,2.47,2.47,0,0,0,.93.17,2.9,2.9,0,0,0,1.41-.36,2,2,0,0,0,.91-1l2.14.59a4.33,4.33,0,0,1-1.72,1.84A5.36,5.36,0,0,1,515.2,118.61Zm2.54-5.9a2.63,2.63,0,0,0-.82-1.76,2.47,2.47,0,0,0-1.74-.66,2.62,2.62,0,0,0-.94.17,2.54,2.54,0,0,0-.78.5,2.65,2.65,0,0,0-.55.76,2.68,2.68,0,0,0-.25,1Z"/><path d="M527.66,110.81a4.91,4.91,0,0,0-2,.44,2.56,2.56,0,0,0-1.29,1.26v5.91h-2.5v-9.77h2.3v2.09a4.52,4.52,0,0,1,.61-.91,5,5,0,0,1,.77-.7,3.6,3.6,0,0,1,.83-.46,2.43,2.43,0,0,1,.81-.16h.31l.19,0Z"/><path d="M439.09,141a7.65,7.65,0,0,1-2.41-.39,6.12,6.12,0,0,1-2-1.12l.93-1.57a8.27,8.27,0,0,0,1.75,1,4.6,4.6,0,0,0,1.69.32,2.2,2.2,0,0,0,1.17-.27.91.91,0,0,0,.43-.81.8.8,0,0,0-.5-.76,11.2,11.2,0,0,0-1.65-.56c-.63-.18-1.17-.34-1.62-.51a3.87,3.87,0,0,1-1.08-.55,1.75,1.75,0,0,1-.6-.71,2.28,2.28,0,0,1-.19-1,2.94,2.94,0,0,1,1.1-2.36,3.78,3.78,0,0,1,1.23-.64,4.89,4.89,0,0,1,1.52-.23,6.58,6.58,0,0,1,2.06.32,5,5,0,0,1,1.76,1l-1,1.51a5.82,5.82,0,0,0-1.45-.82,3.84,3.84,0,0,0-1.39-.26,1.94,1.94,0,0,0-1.06.26.89.89,0,0,0-.43.84.81.81,0,0,0,.1.43,1,1,0,0,0,.33.3,3.7,3.7,0,0,0,.58.25c.25.08.55.16.91.25.67.17,1.25.35,1.73.52a5.08,5.08,0,0,1,1.17.6,2,2,0,0,1,.67.77,2.33,2.33,0,0,1,.22,1.06,2.73,2.73,0,0,1-1.07,2.27A4.6,4.6,0,0,1,439.09,141Z"/><path d="M447.66,141a2.8,2.8,0,0,1-2.3-1,4.54,4.54,0,0,1-.78-2.88V131h2.5v5.58c0,1.51.54,2.26,1.62,2.26a2.57,2.57,0,0,0,1.41-.44,3.08,3.08,0,0,0,1.11-1.33V131h2.5V138a.92.92,0,0,0,.14.56.63.63,0,0,0,.46.18v2.13a4.73,4.73,0,0,1-.63.09,3.62,3.62,0,0,1-.45,0,1.76,1.76,0,0,1-1.09-.31,1.19,1.19,0,0,1-.5-.84l0-.79a4.19,4.19,0,0,1-1.68,1.51A5,5,0,0,1,447.66,141Z"/><path d="M459.9,141a7.65,7.65,0,0,1-2.41-.39,6.12,6.12,0,0,1-2-1.12l.93-1.57a8.27,8.27,0,0,0,1.75,1,4.55,4.55,0,0,0,1.68.32,2.22,2.22,0,0,0,1.18-.27.91.91,0,0,0,.43-.81.8.8,0,0,0-.5-.76,11.2,11.2,0,0,0-1.65-.56c-.63-.18-1.17-.34-1.62-.51a3.87,3.87,0,0,1-1.08-.55,1.75,1.75,0,0,1-.6-.71,2.13,2.13,0,0,1-.19-1,3.1,3.1,0,0,1,.29-1.34,3,3,0,0,1,.81-1,3.78,3.78,0,0,1,1.23-.64,4.89,4.89,0,0,1,1.52-.23,6.58,6.58,0,0,1,2.06.32,5,5,0,0,1,1.76,1l-1,1.51a5.82,5.82,0,0,0-1.45-.82,3.84,3.84,0,0,0-1.39-.26,1.94,1.94,0,0,0-1.06.26.89.89,0,0,0-.43.84.81.81,0,0,0,.1.43,1,1,0,0,0,.33.3,3.33,3.33,0,0,0,.58.25c.25.08.55.16.91.25.67.17,1.25.35,1.72.52a5.17,5.17,0,0,1,1.18.6,2.11,2.11,0,0,1,.67.77,2.33,2.33,0,0,1,.22,1.06,2.73,2.73,0,0,1-1.07,2.27A4.6,4.6,0,0,1,459.9,141Z"/><path d="M471.34,140.32a10,10,0,0,1-1.23.44,5.2,5.2,0,0,1-1.53.23,3.81,3.81,0,0,1-1-.13,2.19,2.19,0,0,1-.8-.42,1.93,1.93,0,0,1-.55-.75,2.62,2.62,0,0,1-.21-1.11V133h-1.29V131H466v-3.17h2.5V131h2V133h-2v4.78a.89.89,0,0,0,.27.74,1,1,0,0,0,.66.21,2.22,2.22,0,0,0,.77-.13c.25-.08.45-.16.6-.22Z"/><path d="M476.94,141a5.61,5.61,0,0,1-2.13-.4,5,5,0,0,1-1.62-1.1,4.76,4.76,0,0,1-1-1.6,5.2,5.2,0,0,1-.36-1.92,5.55,5.55,0,0,1,.35-2,4.86,4.86,0,0,1,1-1.63,5.11,5.11,0,0,1,1.63-1.11,5.51,5.51,0,0,1,2.16-.41,5.41,5.41,0,0,1,2.14.41,5.07,5.07,0,0,1,1.6,1.1,4.72,4.72,0,0,1,1,1.61,5.32,5.32,0,0,1,.34,1.9c0,.16,0,.32,0,.47a1.82,1.82,0,0,1,0,.37h-7.56a3,3,0,0,0,.28,1,2.44,2.44,0,0,0,.58.76,2.27,2.27,0,0,0,.8.49,2.69,2.69,0,0,0,.93.17,2.8,2.8,0,0,0,1.41-.37,1.92,1.92,0,0,0,.91-1l2.14.6a4.33,4.33,0,0,1-1.72,1.84A5.36,5.36,0,0,1,476.94,141Zm2.54-5.9a2.62,2.62,0,0,0-.81-1.76,2.47,2.47,0,0,0-1.75-.67,2.42,2.42,0,0,0-.94.18,2.48,2.48,0,0,0-.78.5,2.7,2.7,0,0,0-.55.76,2.89,2.89,0,0,0-.25,1Z"/><path d="M492.67,140.82h-2.5v-5.49a2.87,2.87,0,0,0-.41-1.71,1.34,1.34,0,0,0-1.14-.54,2.31,2.31,0,0,0-.76.14,2.88,2.88,0,0,0-.74.42,3.89,3.89,0,0,0-.63.65,2.74,2.74,0,0,0-.41.82v5.71h-2.5V131h2.26v1.81a3.62,3.62,0,0,1,1.57-1.45,5,5,0,0,1,2.31-.53,3,3,0,0,1,1.5.34,2.42,2.42,0,0,1,.89.88,3.67,3.67,0,0,1,.44,1.23,8.18,8.18,0,0,1,.12,1.4Z"/><path d="M500.62,140.32a8.93,8.93,0,0,1-1.23.44,5.1,5.1,0,0,1-1.53.23,3.87,3.87,0,0,1-1-.13,2.27,2.27,0,0,1-.8-.42,1.93,1.93,0,0,1-.55-.75,2.62,2.62,0,0,1-.21-1.11V133H494V131h1.29v-3.17h2.5V131h2.06V133h-2.06v4.78a.89.89,0,0,0,.27.74,1.07,1.07,0,0,0,.67.21,2.21,2.21,0,0,0,.76-.13c.25-.08.45-.16.6-.22Z"/><path d="M504.6,141a3.61,3.61,0,0,1-1.33-.24,3.08,3.08,0,0,1-1.76-1.63,2.91,2.91,0,0,1-.25-1.23,2.77,2.77,0,0,1,.3-1.28,3.16,3.16,0,0,1,.86-1,4.27,4.27,0,0,1,1.32-.64,5.59,5.59,0,0,1,1.68-.24,6.85,6.85,0,0,1,1.28.12,5.59,5.59,0,0,1,1.11.31v-.56a2,2,0,0,0-.55-1.49,2.29,2.29,0,0,0-1.64-.52,4.27,4.27,0,0,0-1.53.28,7.68,7.68,0,0,0-1.53.82l-.76-1.59a7.23,7.23,0,0,1,4.07-1.25,4.75,4.75,0,0,1,3.27,1,3.79,3.79,0,0,1,1.17,3v3a.92.92,0,0,0,.14.56.6.6,0,0,0,.46.18v2.13a5.42,5.42,0,0,1-1.11.13,1.69,1.69,0,0,1-1.09-.32,1.36,1.36,0,0,1-.47-.84l-.06-.54a4.19,4.19,0,0,1-1.59,1.31A4.5,4.5,0,0,1,504.6,141Zm.71-1.83a3.24,3.24,0,0,0,1.2-.23,2.17,2.17,0,0,0,.89-.59.91.91,0,0,0,.41-.71v-1.12a6.51,6.51,0,0,0-1-.27,5.19,5.19,0,0,0-1-.11,2.69,2.69,0,0,0-1.59.44,1.36,1.36,0,0,0-.13,2.17A1.77,1.77,0,0,0,505.31,139.18Zm1.21-9.28-1.61-.48,1-2.22h2.34Z"/><path d="M515,140.82l-3.6-9.78H514l2.48,7.75L519,131h2.35l-3.6,9.78Z"/><path d="M526.83,141a5.54,5.54,0,0,1-2.13-.4,4.81,4.81,0,0,1-2.66-2.7,5.21,5.21,0,0,1-.37-1.92,5.35,5.35,0,0,1,.36-2,4.86,4.86,0,0,1,1-1.63,5,5,0,0,1,1.63-1.11,5.49,5.49,0,0,1,2.15-.41,5.37,5.37,0,0,1,2.14.41,5.11,5.11,0,0,1,1.61,1.1,4.7,4.7,0,0,1,1,1.61,5.33,5.33,0,0,1,.35,1.9c0,.16,0,.32,0,.47a1.74,1.74,0,0,1,0,.37h-7.55a2.74,2.74,0,0,0,.27,1,2.6,2.6,0,0,0,.58.76,2.41,2.41,0,0,0,.81.49,2.64,2.64,0,0,0,.93.17,2.8,2.8,0,0,0,1.41-.37,1.9,1.9,0,0,0,.9-1l2.15.6a4.36,4.36,0,0,1-1.73,1.84A5.33,5.33,0,0,1,526.83,141Zm2.53-5.9a2.58,2.58,0,0,0-.81-1.76,2.45,2.45,0,0,0-1.74-.67,2.51,2.51,0,0,0-.95.18,2.33,2.33,0,0,0-.77.5,2.52,2.52,0,0,0-.55.76,2.68,2.68,0,0,0-.25,1Z"/><path d="M533.45,127.2H536v10.48a1.22,1.22,0,0,0,.26.84,1,1,0,0,0,.75.3,1.81,1.81,0,0,0,.49-.07,2.92,2.92,0,0,0,.52-.19l.33,1.91a4.88,4.88,0,0,1-1.17.37,6.19,6.19,0,0,1-1.22.13,2.5,2.5,0,0,1-1.82-.63,2.39,2.39,0,0,1-.64-1.78Z"/><path d="M26.84,32.13V18.88h5.62a3.84,3.84,0,0,1,1.69.38,4.3,4.3,0,0,1,1.33,1,4.63,4.63,0,0,1,.88,1.42,4.3,4.3,0,0,1,.32,1.59,4.62,4.62,0,0,1-.3,1.64,4.55,4.55,0,0,1-.84,1.41,4.16,4.16,0,0,1-1.31,1,3.9,3.9,0,0,1-1.68.37H29.42v4.44Zm2.58-6.7h3a1.47,1.47,0,0,0,1.19-.58,2.38,2.38,0,0,0,.48-1.57,2.57,2.57,0,0,0-.15-.9,2,2,0,0,0-.4-.68,1.46,1.46,0,0,0-.57-.42,1.51,1.51,0,0,0-.66-.14H29.42Z"/><path d="M44.05,24.52A4.84,4.84,0,0,0,42,25a2.56,2.56,0,0,0-1.29,1.26v5.92h-2.5V22.35h2.29v2.09a4.48,4.48,0,0,1,.62-.9,4.54,4.54,0,0,1,.76-.7,3.44,3.44,0,0,1,.83-.46,2.25,2.25,0,0,1,.82-.16h.3l.2,0Z"/><path d="M45.45,21V18.51H48V21Zm0,11.14V22.35H48v9.78Z"/><path d="M54.73,32.32a5.42,5.42,0,0,1-2.15-.41A5.07,5.07,0,0,1,51,30.8a4.86,4.86,0,0,1-1-1.62,5.35,5.35,0,0,1,0-3.86,4.86,4.86,0,0,1,1-1.62,5.07,5.07,0,0,1,1.62-1.11,5.42,5.42,0,0,1,2.15-.41,5.36,5.36,0,0,1,2.13.41,5,5,0,0,1,1.61,1.11,4.86,4.86,0,0,1,1,1.62,5.35,5.35,0,0,1,0,3.86,5,5,0,0,1-1,1.62,4.92,4.92,0,0,1-1.61,1.11A5.41,5.41,0,0,1,54.73,32.32Zm-2.56-5.06a3.4,3.4,0,0,0,.19,1.18,3.05,3.05,0,0,0,.55.93,2.55,2.55,0,0,0,.81.61,2.51,2.51,0,0,0,2,0,2.55,2.55,0,0,0,.81-.61,2.86,2.86,0,0,0,.55-.93,3.55,3.55,0,0,0,.19-1.2,3.42,3.42,0,0,0-.19-1.17,2.81,2.81,0,0,0-.55-.94,2.38,2.38,0,0,0-.81-.6,2.25,2.25,0,0,0-1-.22,2.41,2.41,0,0,0-1,.22,2.58,2.58,0,0,0-.81.62,3.05,3.05,0,0,0-.55.93A3.48,3.48,0,0,0,52.17,27.26Z"/><path d="M67.34,24.52a4.84,4.84,0,0,0-2,.43A2.56,2.56,0,0,0,64,26.21v5.92h-2.5V22.35h2.29v2.09a4.48,4.48,0,0,1,.62-.9,5,5,0,0,1,.76-.7,3.5,3.5,0,0,1,.84-.46,2.2,2.2,0,0,1,.81-.16h.3l.2,0Z"/><path d="M68.74,21V18.51h2.5V21Zm0,11.14V22.35h2.5v9.78Z"/><path d="M72.85,30.6l5.45-6.49H73.07V22.35h7.86v1.53l-5.41,6.5H81v1.75H72.85Z"/><path d="M85.37,32.32A3.65,3.65,0,0,1,84,32.08a3.08,3.08,0,0,1-1.76-1.63A2.91,2.91,0,0,1,82,29.22a2.66,2.66,0,0,1,.31-1.28,3,3,0,0,1,.85-1,4.27,4.27,0,0,1,1.32-.64,5.6,5.6,0,0,1,1.68-.23,6.77,6.77,0,0,1,1.28.11,5.23,5.23,0,0,1,1.11.31v-.56A2,2,0,0,0,88,24.44a2.28,2.28,0,0,0-1.63-.52,4.19,4.19,0,0,0-1.53.28,7.47,7.47,0,0,0-1.54.82l-.76-1.59a7.25,7.25,0,0,1,4.07-1.25,4.75,4.75,0,0,1,3.27,1,3.79,3.79,0,0,1,1.17,3v3.05a.92.92,0,0,0,.14.56.61.61,0,0,0,.46.18v2.13a5.4,5.4,0,0,1-1.1.13,1.7,1.7,0,0,1-1.1-.32A1.36,1.36,0,0,1,89,31.1L89,30.56a4.23,4.23,0,0,1-1.58,1.31A4.57,4.57,0,0,1,85.37,32.32Zm.71-1.83a3.24,3.24,0,0,0,1.2-.23,2.17,2.17,0,0,0,.89-.59.91.91,0,0,0,.41-.71V27.84a6.51,6.51,0,0,0-1-.27,5.19,5.19,0,0,0-1-.11A2.71,2.71,0,0,0,85,27.9a1.36,1.36,0,0,0-.13,2.17A1.79,1.79,0,0,0,86.08,30.49Z"/><path d="M100.56,32.32a3.6,3.6,0,0,1-1.32-.24,3,3,0,0,1-1.07-.65,3.09,3.09,0,0,1-.7-1,2.91,2.91,0,0,1-.25-1.23,2.66,2.66,0,0,1,.31-1.28,2.93,2.93,0,0,1,.86-1,4.11,4.11,0,0,1,1.31-.64,5.6,5.6,0,0,1,1.68-.23,6.77,6.77,0,0,1,1.28.11,5.23,5.23,0,0,1,1.11.31v-.56a2,2,0,0,0-.55-1.49,2.28,2.28,0,0,0-1.63-.52,4.19,4.19,0,0,0-1.53.28,7.17,7.17,0,0,0-1.53.82l-.77-1.59a7.25,7.25,0,0,1,4.07-1.25,4.74,4.74,0,0,1,3.27,1,3.79,3.79,0,0,1,1.17,3v3.05a.92.92,0,0,0,.14.56.61.61,0,0,0,.46.18v2.13a5.33,5.33,0,0,1-1.1.13,1.65,1.65,0,0,1-1.09-.32,1.33,1.33,0,0,1-.48-.84l-.06-.54a4.23,4.23,0,0,1-1.58,1.31A4.57,4.57,0,0,1,100.56,32.32Zm.71-1.83a3.24,3.24,0,0,0,1.2-.23,2.17,2.17,0,0,0,.89-.59.91.91,0,0,0,.41-.71V27.84a6.51,6.51,0,0,0-1-.27,5.11,5.11,0,0,0-1-.11,2.66,2.66,0,0,0-1.58.44,1.34,1.34,0,0,0-.13,2.17A1.75,1.75,0,0,0,101.27,30.49Z"/><path d="M117.62,32.32a5.54,5.54,0,0,1-2.13-.4,4.89,4.89,0,0,1-1.62-1.1,4.76,4.76,0,0,1-1-1.6,5.2,5.2,0,0,1-.36-1.92,5.34,5.34,0,0,1,.35-2,4.86,4.86,0,0,1,1-1.63,5.11,5.11,0,0,1,1.63-1.11,5.51,5.51,0,0,1,2.16-.41,5.36,5.36,0,0,1,2.13.41,5,5,0,0,1,1.61,1.1,4.72,4.72,0,0,1,1,1.61,5.32,5.32,0,0,1,.34,1.9c0,.16,0,.32,0,.47a1.82,1.82,0,0,1,0,.37h-7.56a2.75,2.75,0,0,0,.28,1,2.44,2.44,0,0,0,.58.76,2.27,2.27,0,0,0,.8.49,2.69,2.69,0,0,0,.93.17,2.8,2.8,0,0,0,1.41-.37,2,2,0,0,0,.91-1l2.14.6a4.33,4.33,0,0,1-1.72,1.84A5.36,5.36,0,0,1,117.62,32.32Zm2.54-5.9a2.63,2.63,0,0,0-.82-1.76,2.58,2.58,0,0,0-2.68-.49,2.37,2.37,0,0,0-.78.5,2.52,2.52,0,0,0-.55.76,2.68,2.68,0,0,0-.25,1Z"/><path d="M123.65,27.24A5.26,5.26,0,0,1,124,25.3a4.77,4.77,0,0,1,1-1.61,5.16,5.16,0,0,1,1.62-1.1,5.46,5.46,0,0,1,2.15-.41,5.13,5.13,0,0,1,2.73.69,4.45,4.45,0,0,1,1.69,1.81l-2.44.75a2.3,2.3,0,0,0-.84-.83,2.4,2.4,0,0,0-1.16-.29,2.29,2.29,0,0,0-1,.22,2.49,2.49,0,0,0-.81.59,2.84,2.84,0,0,0-.54.93,3.5,3.5,0,0,0-.2,1.19,3.32,3.32,0,0,0,.21,1.2,2.86,2.86,0,0,0,.55.93,2.55,2.55,0,0,0,.81.61,2.38,2.38,0,0,0,1,.21,2.34,2.34,0,0,0,1.24-.34,1.83,1.83,0,0,0,.79-.82l2.45.75a4.11,4.11,0,0,1-1.66,1.83,5.25,5.25,0,0,1-2.78.71,5.42,5.42,0,0,1-2.15-.41,5.07,5.07,0,0,1-1.62-1.11,4.88,4.88,0,0,1-1-1.63A5.25,5.25,0,0,1,123.65,27.24Z"/><path d="M139.21,32.32a5.46,5.46,0,0,1-2.15-.41,4.81,4.81,0,0,1-2.63-2.73,5.5,5.5,0,0,1,0-3.86,4.81,4.81,0,0,1,2.63-2.73,5.46,5.46,0,0,1,2.15-.41,5.37,5.37,0,0,1,2.14.41A5,5,0,0,1,143,23.7a5.06,5.06,0,0,1,1,1.62,5.5,5.5,0,0,1,0,3.86,5,5,0,0,1-1,1.62,4.87,4.87,0,0,1-1.6,1.11A5.46,5.46,0,0,1,139.21,32.32Zm-2.56-5.06a3.4,3.4,0,0,0,.2,1.18,2.84,2.84,0,0,0,.54.93,2.55,2.55,0,0,0,.81.61,2.53,2.53,0,0,0,2,0,2.55,2.55,0,0,0,.81-.61,2.84,2.84,0,0,0,.54-.93,3.55,3.55,0,0,0,.2-1.2,3.42,3.42,0,0,0-.2-1.17,2.79,2.79,0,0,0-.54-.94,2.38,2.38,0,0,0-.81-.6,2.29,2.29,0,0,0-1-.22,2.44,2.44,0,0,0-1,.22,2.58,2.58,0,0,0-.81.62,2.84,2.84,0,0,0-.54.93A3.48,3.48,0,0,0,136.65,27.26Z"/><path d="M155.09,32.13h-2.5V26.64a2.87,2.87,0,0,0-.41-1.71,1.34,1.34,0,0,0-1.14-.54,2.31,2.31,0,0,0-.76.14,2.88,2.88,0,0,0-.74.42,3.48,3.48,0,0,0-.62.65,2.55,2.55,0,0,0-.42.82v5.71H146V22.35h2.26v1.81a3.68,3.68,0,0,1,1.57-1.45,5,5,0,0,1,2.31-.53,3,3,0,0,1,1.5.34,2.42,2.42,0,0,1,.89.88,3.67,3.67,0,0,1,.44,1.23,8.18,8.18,0,0,1,.12,1.4Z"/><path d="M161.79,32.32a5.41,5.41,0,0,1-2.14-.41A5,5,0,0,1,158,30.8a4.86,4.86,0,0,1-1-1.62,5.35,5.35,0,0,1,0-3.86,4.86,4.86,0,0,1,1-1.62,5,5,0,0,1,1.62-1.11,5.79,5.79,0,0,1,4.28,0,5.14,5.14,0,0,1,1.61,1.11,4.86,4.86,0,0,1,1,1.62,5.35,5.35,0,0,1,0,3.86,4.77,4.77,0,0,1-2.61,2.73A5.46,5.46,0,0,1,161.79,32.32Zm-2.55-5.06a3.4,3.4,0,0,0,.19,1.18,2.84,2.84,0,0,0,.54.93,2.48,2.48,0,0,0,.82.61,2.39,2.39,0,0,0,1,.21,2.44,2.44,0,0,0,1-.21,2.55,2.55,0,0,0,.81-.61,2.84,2.84,0,0,0,.54-.93,3.55,3.55,0,0,0,.2-1.2,3.42,3.42,0,0,0-.2-1.17,2.79,2.79,0,0,0-.54-.94,2.38,2.38,0,0,0-.81-.6,2.29,2.29,0,0,0-1-.22,2.4,2.4,0,0,0-1,.22,2.51,2.51,0,0,0-.82.62,2.84,2.84,0,0,0-.54.93A3.48,3.48,0,0,0,159.24,27.26Z"/><path d="M183.78,32.13h-2.5V26.64a3,3,0,0,0-.4-1.71,1.31,1.31,0,0,0-1.11-.54,2.07,2.07,0,0,0-1.4.56,3.16,3.16,0,0,0-.94,1.49v5.69h-2.5V26.64a2.87,2.87,0,0,0-.4-1.71,1.31,1.31,0,0,0-1.11-.54,2.12,2.12,0,0,0-1.39.55,3.05,3.05,0,0,0-.94,1.48v5.71h-2.5V22.35h2.25v1.81a3.74,3.74,0,0,1,1.49-1.46,4.33,4.33,0,0,1,2.15-.52,2.79,2.79,0,0,1,1.91.6,2.7,2.7,0,0,1,.86,1.47,4.11,4.11,0,0,1,1.51-1.53,4,4,0,0,1,2.09-.54,2.93,2.93,0,0,1,1.47.34,2.38,2.38,0,0,1,.9.88,3.67,3.67,0,0,1,.44,1.23,8.18,8.18,0,0,1,.12,1.4Z"/><path d="M186,21V18.51h2.5V21Zm0,11.14V22.35h2.5v9.78Z"/><path d="M193.39,32.32a3.65,3.65,0,0,1-1.33-.24,3.08,3.08,0,0,1-1.76-1.63,2.91,2.91,0,0,1-.25-1.23,2.66,2.66,0,0,1,.31-1.28,3,3,0,0,1,.85-1,4.27,4.27,0,0,1,1.32-.64,5.6,5.6,0,0,1,1.68-.23,6.77,6.77,0,0,1,1.28.11,5.23,5.23,0,0,1,1.11.31v-.56a2,2,0,0,0-.55-1.49,2.28,2.28,0,0,0-1.63-.52,4.19,4.19,0,0,0-1.53.28,7.47,7.47,0,0,0-1.54.82l-.76-1.59a7.25,7.25,0,0,1,4.07-1.25,4.75,4.75,0,0,1,3.27,1,3.79,3.79,0,0,1,1.17,3v3.05a.92.92,0,0,0,.14.56.61.61,0,0,0,.46.18v2.13a5.4,5.4,0,0,1-1.1.13,1.7,1.7,0,0,1-1.1-.32,1.36,1.36,0,0,1-.47-.84l-.06-.54a4.23,4.23,0,0,1-1.58,1.31A4.57,4.57,0,0,1,193.39,32.32Zm.71-1.83a3.24,3.24,0,0,0,1.2-.23,2.17,2.17,0,0,0,.89-.59.91.91,0,0,0,.41-.71V27.84a6.51,6.51,0,0,0-1-.27,5.19,5.19,0,0,0-1-.11,2.71,2.71,0,0,0-1.59.44,1.36,1.36,0,0,0-.13,2.17A1.79,1.79,0,0,0,194.1,30.49Z"/></svg>