<?xml version="1.0" encoding="UTF-8"?>
<svg width="37px" height="37px" viewBox="0 0 37 37" version="1.1" xmlns="http://www.w3.org/2000/svg" xmlns:xlink="http://www.w3.org/1999/xlink">
    <!-- Generator: Sketch 50.2 (55047) - http://www.bohemiancoding.com/sketch -->
    <title>Group</title>
    <desc>Created with Sketch.</desc>
    <defs></defs>
    <g id="Symbols" stroke="none" stroke-width="1" fill="none" fill-rule="evenodd">
        <g id="navbar_logados-PAD" transform="translate(-191.000000, -18.000000)">
            <g id="Group" transform="translate(192.000000, 19.000000)">
                <g id="perfil-icon" stroke="#00D6D8" stroke-width="2">
                    <circle id="Oval-5" cx="17.5" cy="17.5" r="17.5"></circle>
                </g>
                <g id="Page-1" transform="translate(6.000000, 7.000000)" fill="#00D6D8">
                    <polygon id="Fill-1" points="11.3570806 14.0612581 11.7346767 13.5612581 10.9797122 13.5612581"></polygon>
                    <g id="Group-8" transform="translate(0.000000, 0.032021)">
                        <path d="M14.3715412,8.988906 C14.2212315,8.988906 14.0993896,9.11074794 14.0993896,9.26105762 C14.0993896,9.4113673 14.2212315,9.53320923 14.3715412,9.53320923 C14.5218509,9.53320923 14.6436928,9.4113673 14.6436928,9.26105762 C14.6436928,9.11074794 14.5218509,8.988906 14.3715412,8.988906" id="Fill-2"></path>
                        <path d="M7.53005946,8.988906 C7.37974978,8.988906 7.25790785,9.11074794 7.25790785,9.26105762 C7.25790785,9.4113673 7.37974978,9.53320923 7.53005946,9.53320923 C7.68036914,9.53320923 7.80221108,9.4113673 7.80221108,9.26105762 C7.80221108,9.11074794 7.68036914,8.988906 7.53005946,8.988906" id="Fill-4"></path>
                        <path d="M18.3677062,5.79118144 C18.2039597,5.60101692 18.0336088,5.41654595 17.8555146,5.2398182 C17.8316017,5.21636078 17.8079165,5.19290337 17.7840036,5.16967369 C17.1483759,4.55203755 16.4303055,4.03028077 15.6562107,3.61806786 C15.8026487,3.4912156 15.9395216,3.37711689 16.0431442,3.29922914 C16.3196229,3.09175624 16.6156875,2.89179882 16.9231391,2.70482268 C17.3959313,2.4176401 17.8826159,2.17646139 18.3724888,1.98629687 C18.528492,3.24867043 18.5539991,4.6989311 18.3677062,5.79118144 Z M14.7798597,10.7580054 C14.1783932,10.7580054 13.6910255,10.2706376 13.6910255,9.66917117 C13.6910255,9.06793245 14.1783932,8.5805647 14.7798597,8.5805647 C15.3810984,8.5805647 15.8684662,9.06793245 15.8684662,9.66917117 C15.8684662,10.2706376 15.3810984,10.7580054 14.7798597,10.7580054 Z M13.8816455,16.7280326 C13.0959358,17.0860429 12.0109732,17.0427719 11.4550551,16.2923622 C11.3997138,16.2176629 11.3516603,16.1379532 11.3070229,16.0564216 C11.2621577,16.1379532 11.2143319,16.2176629 11.1589906,16.2923622 C10.6033003,17.0429997 9.51810994,17.0858151 8.73240025,16.7280326 C8.21087122,16.4904977 8.66430542,15.7232351 9.18219058,15.958948 C9.70759124,16.1983048 10.350279,16.0518667 10.5846254,15.507108 C10.6620577,15.3274196 10.7114777,15.1336113 10.7540654,14.9425358 C10.7565706,14.9320596 10.7590758,14.9213558 10.7615809,14.9108796 C10.7905042,14.7794725 10.8201106,14.6482932 10.8508558,14.5171138 C10.6814158,14.3494958 10.5124312,14.1814222 10.3439022,14.0131209 C10.1293693,13.7988157 10.0656016,13.4790661 10.1819777,13.1989435 C10.2976706,12.9185932 10.5689112,12.7375383 10.8722635,12.7375383 L11.8422164,12.7375383 C12.1455687,12.7375383 12.4165816,12.9185932 12.5325022,13.1987157 C12.6486506,13.4790661 12.5848829,13.7988157 12.3705777,14.0131209 C12.1774526,14.2062461 11.9847829,14.3970938 11.7852809,14.5836145 C11.8096493,14.7020403 11.8335622,14.8213771 11.8592971,14.9402583 C11.9016571,15.1336113 11.9510771,15.3255977 12.0294203,15.507108 C12.2639945,16.0520945 12.905999,16.1985326 13.4320829,15.958948 C13.9504236,15.7227796 14.4024913,16.4907255 13.8816455,16.7280326 Z M6.84965765,9.66917117 C6.84965765,9.06793245 7.3370254,8.5805647 7.93826411,8.5805647 C8.53950283,8.5805647 9.02709832,9.06793245 9.02709832,9.66917117 C9.02709832,10.2706376 8.53950283,10.7580054 7.93826411,10.7580054 C7.3370254,10.7580054 6.84965765,10.2706376 6.84965765,9.66917117 Z M4.35474471,5.83581886 C4.16002535,4.7385582 4.18484922,3.26552334 4.34267439,1.98629687 C4.83231955,2.17646139 5.31923182,2.4176401 5.79202408,2.70482268 C6.09902022,2.89134333 6.394857,3.0915285 6.67201893,3.29945689 C6.81162474,3.40444592 6.94735894,3.51330657 7.08013249,3.62421689 C6.03548022,4.18241238 5.11084794,4.93578272 4.35474471,5.83581886 Z M11.4024467,3.9289356 C11.7171861,3.9289356 12.0269151,3.94966012 12.3320893,3.98609883 C12.5288584,5.14143369 12.1931668,6.25281435 11.3707906,7.12392726 C11.3434616,7.09158791 11.3161326,7.05993178 11.289259,7.02873113 C11.1521584,6.87022274 11.0228009,6.72036855 10.9132571,6.53020403 C10.3764693,5.60078918 10.22411,4.70963497 10.2134061,4.02390399 C10.6064887,3.96332464 11.0036706,3.9289356 11.4024467,3.9289356 Z M22.3575172,12.187086 C21.8528411,11.6088493 21.2402153,11.156326 20.5585837,10.8445473 C20.4784185,10.8081086 20.335852,9.55370601 20.2859766,9.3717402 C20.139994,8.83927955 19.9443636,8.32093889 19.7040959,7.82400598 C19.6088998,7.62723695 19.5050494,7.43502275 19.3961888,7.24554146 C20.1404495,5.44250853 19.8712585,2.35614978 19.6164153,0.945516207 L19.4809088,0.195789745 L18.747352,0.401440715 C18.5328191,0.462020071 18.3164643,0.531025879 18.1051197,0.607091686 C17.4603823,0.838705238 16.820883,1.14615686 16.2041578,1.5205646 C15.8575346,1.73099815 15.5234371,1.95669042 15.2109752,2.19149235 C14.9169603,2.41240203 14.4988261,2.78794849 14.2512707,3.01523495 C13.3389365,2.7086943 12.3780932,2.54312591 11.4024467,2.54312591 C10.3780635,2.54312591 9.3935351,2.71393236 8.47231896,3.02411688 L8.44567315,2.99154979 L8.38167767,2.92391043 C8.10702089,2.6690672 7.81186734,2.42265042 7.50418798,2.19149235 C7.19127056,1.95646267 6.85694539,1.73054267 6.51100538,1.5205646 C5.89450796,1.14615686 5.25478085,0.838705238 4.61027116,0.607091686 C4.3986989,0.531025879 4.1825718,0.462020071 3.96781115,0.401440715 L3.23448211,0.195789745 L3.09897566,0.945516207 C2.84139952,2.37209171 2.56765371,5.51288079 3.34334276,7.3065763 C2.72046856,8.4323047 2.32829694,9.70196601 2.22695177,11.0515647 C2.06571048,11.1315022 1.90515241,11.2166776 1.74801048,11.3095964 C1.37770208,11.5293673 1.03586143,11.7801112 0.731598204,12.0561344 C0.631619493,12.1472312 0.534145943,12.2417441 0.442593684,12.3373957 L9.10967755e-05,12.7990286 L9.10967755e-05,12.9550319 L0.513193685,13.3601848 C1.0763995,13.8049648 1.71179951,14.1247145 2.38546016,14.3146512 C2.12127951,14.6548977 1.89535951,15.013819 1.71407693,15.380939 C1.65440854,15.5014145 1.59861176,15.6253061 1.54782531,15.7491977 L1.25836531,16.4551977 L1.98873371,16.6754242 C2.49773694,16.8286945 3.01858275,16.9056713 3.53737889,16.9056713 C3.61913825,16.9056713 3.70066986,16.89975 3.78220147,16.8961061 C5.43856859,19.3402326 8.23387315,20.95219 11.4024467,20.95219 C14.6928623,20.95219 17.5819965,19.2149745 19.2087572,16.6109732 C19.4046152,16.6285093 19.5993346,16.6387577 19.7917765,16.6387577 C19.9971998,16.6387577 20.2001178,16.6287371 20.3989366,16.6086958 C20.5348985,16.5950313 20.6699495,16.5765842 20.8009011,16.55381 L21.5513108,16.4230861 L21.3504424,15.6883906 C21.1869237,15.090568 20.9234262,14.5362441 20.5774862,14.0402222 C20.6405707,14.0190422 20.7036553,13.9992287 20.7669675,13.9762267 C21.1718927,13.8281945 21.5535882,13.644179 21.9024888,13.4296461 C22.017043,13.3590461 22.1302308,13.2838912 22.2390914,13.2060035 L22.8592327,12.761679 L22.3575172,12.187086 Z" id="Fill-6"></path>
                    </g>
                </g>
            </g>
        </g>
    </g>
</svg>