<?xml version="1.0" encoding="UTF-8" standalone="no"?>
<svg width="85px" height="125px" viewBox="0 0 85 125" version="1.1" xmlns="http://www.w3.org/2000/svg" xmlns:xlink="http://www.w3.org/1999/xlink">
    <!-- Generator: Sketch 48.2 (47327) - http://www.bohemiancoding.com/sketch -->
    <title>Combined Shape</title>
    <desc>Created with Sketch.</desc>
    <defs></defs>
    <g id="Artboard-Copy" stroke="none" stroke-width="1" fill="none" fill-rule="evenodd" transform="translate(0.000000, -2.000000)">
        <g id="Group-7-Copy" transform="translate(0.000000, 2.000000)" fill="#9B9B9B">
            <g id="Group-20">
                <g id="Group-17">
                    <path d="M74.4204077,70.666475 C72.0521875,72.7490988 66.5441336,75.9496556 60.8056608,78.924029 L60.8056608,124.672991 L43.5232237,104.191789 L26.24,124.672991 L26.24,79.061047 C21.9461402,76.8433321 17.7559863,74.4877135 14.8844143,72.5554421 L0.88642564,72.9995724 C0.306547631,73.0181716 -0.123919548,72.4269129 0.0323240944,71.8263547 L4.49870578,54.6480386 C4.60393109,54.2427719 4.95103795,53.9647628 5.34278586,53.9721046 L9.68374608,54.0548381 L5.31019784,9.28021513 C5.31019784,6.07736437 38.2839207,6.96074766 43.2445693,0 L43.5355856,0 C45.5789921,6.38068536 81.4707436,6.07736437 81.4707436,9.28021513 L76.9719285,55.3372692 L82.3863894,55.4404623 C82.8082017,55.4482935 83.1625969,55.784058 83.2227256,56.2323965 L84.9846802,69.2998006 C85.0584746,69.847498 84.6726484,70.3413556 84.1583654,70.3575076 L74.4204077,70.666475 Z M36.4481138,64.6015625 L45.9403013,64.6015625 C45.9403013,62.3359262 46.1291015,60.6171934 46.5067076,59.4453125 C46.8843137,58.2734316 47.8152939,57.0364648 49.2996763,55.734375 C52.2163576,53.3906133 54.631698,50.8060037 56.5457701,47.9804687 C58.4598422,45.1549338 59.4168638,42.0885582 59.4168638,38.78125 C59.4168638,33.8333086 57.8869312,29.9661598 54.8270201,27.1796875 C51.767109,24.3932152 47.5028287,23 42.0340513,23 C36.9819428,23 32.8608902,24.29556 29.6707701,26.8867187 C26.48065,29.4778775 24.924676,33.0911227 25.0028013,37.7265625 L25.1199888,37.9609375 L34.2606138,37.9609375 C34.2606138,35.6432176 35.0158146,33.891933 36.5262388,32.7070312 C38.0366631,31.5221295 39.8725822,30.9296875 42.0340513,30.9296875 C44.5601056,30.9296875 46.5067008,31.6262951 47.8738951,33.0195312 C49.2410894,34.4127674 49.9246763,36.3723832 49.9246763,38.8984375 C49.9246763,41.0859484 49.325724,43.0846264 48.1278013,44.8945312 C46.9298787,46.7044361 45.3153115,48.5989484 43.2840513,50.578125 C40.4194537,53.0000121 38.5705138,55.0117107 37.7371763,56.6132812 C36.9038388,58.2148518 36.4741556,60.8775855 36.4481138,64.6015625 Z M46.0965513,80.6953125 L46.0965513,71.59375 L36.4090513,71.59375 L36.4090513,80.6953125 L46.0965513,80.6953125 Z" id="Combined-Shape"></path>
                </g>
            </g>
        </g>
    </g>
</svg>