<svg id="Layer_1" data-name="Layer 1" xmlns="http://www.w3.org/2000/svg" viewBox="0 0 93.18 92.45"><defs><style>.cls-1{fill:#30bec0;}.cls-2{fill:#fff;}</style></defs><title>poderesArtboard 1 copy 3</title><path class="cls-1" d="M89.67,45.27c.43-.41.85-.84,1.25-1.27l2.26-2.47-2.67-2a23.26,23.26,0,0,0-8.38-4q.5-.52,1-1.08c.57-.69,1.11-1.4,1.61-2.13.33-.49.65-1,.94-1.51l1.68-2.89-3-1.39a23.51,23.51,0,0,0-7.73-2.05c.11-.27.22-.54.32-.82a27.74,27.74,0,0,0,1.36-5.36c.08-.58.15-1.18.19-1.76l.26-3.34-3.35.07a23.31,23.31,0,0,0-8.84,1.93q.06-.86.06-1.71a26.23,26.23,0,0,0-.13-2.67c-.06-.59-.14-1.19-.24-1.76l-.57-3.3-3.23.89A23.32,23.32,0,0,0,55.14,10c-.09-.28-.18-.56-.28-.83a27.05,27.05,0,0,0-2.4-5c-.31-.5-.64-1-1-1.48L49.53,0,47,2.2a23.5,23.5,0,0,0-5.66,7.41c-.28-.4-.55-.81-.84-1.18a26.53,26.53,0,0,0-1.76-2c-.41-.43-.84-.84-1.28-1.23L35,2.94,33,5.63a23.45,23.45,0,0,0-3.59,7.15c-.24-.16-.48-.33-.74-.48a27.16,27.16,0,0,0-5-2.43c-.55-.21-1.12-.39-1.68-.56L18.8,8.38l-.62,3.29a23.3,23.3,0,0,0,0,8.73c-.67-.16-1.34-.32-2-.43a24.58,24.58,0,0,0-2.65-.33c-.6,0-1.2-.06-1.78-.06H8.41l.32,3.32a23.65,23.65,0,0,0,2.1,7.72l-.86.13a28.29,28.29,0,0,0-5.33,1.51Q3.82,32.59,3,33L0,34.43l1.74,2.86A23.26,23.26,0,0,0,8,44.12c-.43.2-.86.42-1.28.64a24.89,24.89,0,0,0-2.29,1.39c-.49.33-1,.69-1.44,1.05L.41,49.27l2.31,2.42a23.17,23.17,0,0,0,6.42,4.75c-.2.22-.4.42-.6.65a27.56,27.56,0,0,0-3.25,4.48c-.29.51-.57,1-.83,1.56L3,66.14l3.14,1.18A23.4,23.4,0,0,0,14.4,68.8c-.05.12-.11.24-.16.37-.32.84-.6,1.69-.83,2.53-.16.58-.29,1.16-.4,1.74l-.65,3.28,3.33.33a23.48,23.48,0,0,0,5.37-.1c-.08.88-.12,1.76-.12,2.63,0,.6,0,1.2.08,1.78l.26,3.33,3.29-.57a23.64,23.64,0,0,0,4.5-1.27,23.32,23.32,0,0,0,2,4.06l1.79,2.83,2.65-2c.46-.36.92-.75,1.36-1.15a25.35,25.35,0,0,0,1.88-1.86c.11.31.2.64.32.94.33.84.71,1.65,1.11,2.43.28.53.57,1,.88,1.55l1.75,2.85,2.67-2A23.46,23.46,0,0,0,51,84.61c.19.22.37.45.57.67A27.43,27.43,0,0,0,55.62,89c.47.36,1,.69,1.46,1l2.82,1.81,1.53-3a23.41,23.41,0,0,0,2.51-9c.41.26.81.54,1.23.79a26.58,26.58,0,0,0,2.37,1.22c.55.24,1.1.47,1.65.67l3.14,1.16.85-3.24a23.6,23.6,0,0,0,.69-8l.86.17a27.35,27.35,0,0,0,5.52.42c.59,0,1.18-.05,1.77-.11l3.33-.32-.64-3.29a23.15,23.15,0,0,0-3.25-8.1c.69-.1,1.37-.2,2-.34a26.55,26.55,0,0,0,2.59-.68c.57-.18,1.13-.38,1.67-.6l3.11-1.23-1.52-3a23.75,23.75,0,0,0-4.81-6.39l.76-.44A27.94,27.94,0,0,0,89.67,45.27ZM80.82,60.34a.89.89,0,0,1,.06-.43l0,.56Z"/><path class="cls-2" d="M35,64.37c.46-.23.91-.49,1.34-.76l.49-.31.51.27a19.65,19.65,0,1,0-5.62-4.48l.4.45-.22.56a11.16,11.16,0,0,0-.67,5.12l0,.4.39-.08c.29-.06.57-.12.83-.2A13.12,13.12,0,0,0,35,64.37Zm-3.08-1c0-.31.06-.58.1-.84a6.83,6.83,0,0,1,.19-1c.07-.28.15-.54.24-.81a6.83,6.83,0,0,1,.3-.78l.1-.23c.06-.12.19-.39.16-.48a.92.92,0,0,0-.11-.14,19.83,19.83,0,0,1-1.34-1.58A18.77,18.77,0,1,1,56.7,62.06a18.48,18.48,0,0,1-6.45,2.58,18.93,18.93,0,0,1-6.86.09,19.26,19.26,0,0,1-3.35-.9c-.55-.2-1.09-.43-1.62-.68l-.79-.41-.19-.11c-.19-.12-.29-.17-.4-.16a3.41,3.41,0,0,0-1.38.7c-.24.17-.47.32-.67.44a11,11,0,0,1-1.74.79l-1.41.45Z"/><path class="cls-2" d="M39.24,52.6a5.72,5.72,0,0,0-.35,2.63l.07.7.7-.14.42-.1a6.79,6.79,0,0,0,1.27-.49c.23-.12.46-.25.67-.38h0a9.74,9.74,0,1,0-2.78-2.22Z"/></svg>