<?xml version="1.0" encoding="UTF-8" standalone="no"?>
<svg
   xmlns:dc="http://purl.org/dc/elements/1.1/"
   xmlns:cc="http://creativecommons.org/ns#"
   xmlns:rdf="http://www.w3.org/1999/02/22-rdf-syntax-ns#"
   xmlns:svg="http://www.w3.org/2000/svg"
   xmlns="http://www.w3.org/2000/svg"
   xmlns:sodipodi="http://sodipodi.sourceforge.net/DTD/sodipodi-0.dtd"
   xmlns:inkscape="http://www.inkscape.org/namespaces/inkscape"
   id="Layer_1"
   data-name="Layer 1"
   viewBox="0 0 93.18 92.45"
   version="1.1"
   sodipodi:docname="profile.svg"
   inkscape:version="0.92.4 5da689c313, 2019-01-14">
  <metadata
     id="metadata17">
    <rdf:RDF>
      <cc:Work
         rdf:about="">
        <dc:format>image/svg+xml</dc:format>
        <dc:type
           rdf:resource="http://purl.org/dc/dcmitype/StillImage" />
      </cc:Work>
    </rdf:RDF>
  </metadata>
  <sodipodi:namedview
     pagecolor="#ffffff"
     bordercolor="#666666"
     borderopacity="1"
     objecttolerance="10"
     gridtolerance="10"
     guidetolerance="10"
     inkscape:pageopacity="0"
     inkscape:pageshadow="2"
     inkscape:window-width="777"
     inkscape:window-height="480"
     id="namedview15"
     showgrid="false"
     showguides="true"
     inkscape:guide-bbox="true"
     inkscape:zoom="2.5527313"
     inkscape:cx="46.59"
     inkscape:cy="46.224998"
     inkscape:window-x="965"
     inkscape:window-y="141"
     inkscape:window-maximized="0"
     inkscape:current-layer="Layer_1">
    <sodipodi:guide
       position="30.555507,66.987076"
       orientation="0,1"
       id="guide25"
       inkscape:locked="false" />
    <sodipodi:guide
       position="57.193642,27.029873"
       orientation="0,1"
       id="guide27"
       inkscape:locked="false" />
  </sodipodi:namedview>
  <defs
     id="defs4">
    <style
       id="style2">.cls-1{fill:#30bec0;}.cls-2{fill:#fff;}</style>
  </defs>
  <title
     id="title6">poderesArtboard 1 copy 3</title>
  <path
     class="cls-1"
     d="M89.67,45.27c.43-.41.85-.84,1.25-1.27l2.26-2.47-2.67-2a23.26,23.26,0,0,0-8.38-4q.5-.52,1-1.08c.57-.69,1.11-1.4,1.61-2.13.33-.49.65-1,.94-1.51l1.68-2.89-3-1.39a23.51,23.51,0,0,0-7.73-2.05c.11-.27.22-.54.32-.82a27.74,27.74,0,0,0,1.36-5.36c.08-.58.15-1.18.19-1.76l.26-3.34-3.35.07a23.31,23.31,0,0,0-8.84,1.93q.06-.86.06-1.71a26.23,26.23,0,0,0-.13-2.67c-.06-.59-.14-1.19-.24-1.76l-.57-3.3-3.23.89A23.32,23.32,0,0,0,55.14,10c-.09-.28-.18-.56-.28-.83a27.05,27.05,0,0,0-2.4-5c-.31-.5-.64-1-1-1.48L49.53,0,47,2.2a23.5,23.5,0,0,0-5.66,7.41c-.28-.4-.55-.81-.84-1.18a26.53,26.53,0,0,0-1.76-2c-.41-.43-.84-.84-1.28-1.23L35,2.94,33,5.63a23.45,23.45,0,0,0-3.59,7.15c-.24-.16-.48-.33-.74-.48a27.16,27.16,0,0,0-5-2.43c-.55-.21-1.12-.39-1.68-.56L18.8,8.38l-.62,3.29a23.3,23.3,0,0,0,0,8.73c-.67-.16-1.34-.32-2-.43a24.58,24.58,0,0,0-2.65-.33c-.6,0-1.2-.06-1.78-.06H8.41l.32,3.32a23.65,23.65,0,0,0,2.1,7.72l-.86.13a28.29,28.29,0,0,0-5.33,1.51Q3.82,32.59,3,33L0,34.43l1.74,2.86A23.26,23.26,0,0,0,8,44.12c-.43.2-.86.42-1.28.64a24.89,24.89,0,0,0-2.29,1.39c-.49.33-1,.69-1.44,1.05L.41,49.27l2.31,2.42a23.17,23.17,0,0,0,6.42,4.75c-.2.22-.4.42-.6.65a27.56,27.56,0,0,0-3.25,4.48c-.29.51-.57,1-.83,1.56L3,66.14l3.14,1.18A23.4,23.4,0,0,0,14.4,68.8c-.05.12-.11.24-.16.37-.32.84-.6,1.69-.83,2.53-.16.58-.29,1.16-.4,1.74l-.65,3.28,3.33.33a23.48,23.48,0,0,0,5.37-.1c-.08.88-.12,1.76-.12,2.63,0,.6,0,1.2.08,1.78l.26,3.33,3.29-.57a23.64,23.64,0,0,0,4.5-1.27,23.32,23.32,0,0,0,2,4.06l1.79,2.83,2.65-2c.46-.36.92-.75,1.36-1.15a25.35,25.35,0,0,0,1.88-1.86c.11.31.2.64.32.94.33.84.71,1.65,1.11,2.43.28.53.57,1,.88,1.55l1.75,2.85,2.67-2A23.46,23.46,0,0,0,51,84.61c.19.22.37.45.57.67A27.43,27.43,0,0,0,55.62,89c.47.36,1,.69,1.46,1l2.82,1.81,1.53-3a23.41,23.41,0,0,0,2.51-9c.41.26.81.54,1.23.79a26.58,26.58,0,0,0,2.37,1.22c.55.24,1.1.47,1.65.67l3.14,1.16.85-3.24a23.6,23.6,0,0,0,.69-8l.86.17a27.35,27.35,0,0,0,5.52.42c.59,0,1.18-.05,1.77-.11l3.33-.32-.64-3.29a23.15,23.15,0,0,0-3.25-8.1c.69-.1,1.37-.2,2-.34a26.55,26.55,0,0,0,2.59-.68c.57-.18,1.13-.38,1.67-.6l3.11-1.23-1.52-3a23.75,23.75,0,0,0-4.81-6.39l.76-.44A27.94,27.94,0,0,0,89.67,45.27ZM80.82,60.34a.89.89,0,0,1,.06-.43l0,.56Z"
     id="path8" />
  <path
     style="fill:#ffffff;fill-rule:evenodd;stroke:none;stroke-width:2.00027514"
     inkscape:connector-curvature="0"
     id="Fill-6"
     d="m 60.384866,36.655245 c -0.327537,-0.380382 -0.668286,-0.749375 -1.024523,-1.102877 -0.04783,-0.04693 -0.09521,-0.09385 -0.143039,-0.14032 -1.271431,-1.235443 -2.707771,-2.279099 -4.256172,-3.103638 0.292917,-0.253739 0.5667,-0.481969 0.773973,-0.637766 0.553034,-0.415003 1.145243,-0.814972 1.760232,-1.188976 0.945714,-0.574445 1.919218,-1.056869 2.899099,-1.437249 0.312049,2.525093 0.36307,5.426014 -0.0096,7.610814 z m -7.176679,9.935013 c -1.203099,0 -2.177967,-0.974868 -2.177967,-2.177966 0,-1.202643 0.974868,-2.177513 2.177967,-2.177513 1.202642,0 2.177512,0.97487 2.177512,2.177513 0,1.203098 -0.97487,2.177966 -2.177512,2.177966 z M 51.41151,58.531956 c -1.571634,0.716119 -3.741859,0.629565 -4.853847,-0.871461 -0.110696,-0.149421 -0.206819,-0.308861 -0.296105,-0.471945 -0.08973,0.163082 -0.185406,0.322526 -0.296105,0.471945 -1.111535,1.501482 -3.282213,1.587124 -4.85385,0.871461 -1.043201,-0.475135 -0.136218,-2.009872 0.899704,-1.538381 1.050947,0.47878 2.3365,0.185865 2.805256,-0.903804 0.154881,-0.359426 0.253741,-0.747097 0.338927,-1.1293 0.005,-0.02096 0.01,-0.04237 0.015,-0.06333 0.05785,-0.26285 0.117076,-0.525246 0.178584,-0.78764 -0.338926,-0.335282 -0.676943,-0.671476 -1.014047,-1.008125 -0.429125,-0.428668 -0.556677,-1.068256 -0.323893,-1.628578 0.231418,-0.560779 0.773973,-0.922938 1.380762,-0.922938 h 1.940171 c 0.60679,0 1.14889,0.362159 1.380762,0.922482 0.23233,0.560778 0.104774,1.200366 -0.323893,1.629034 -0.386303,0.386304 -0.771696,0.768052 -1.170755,1.141143 0.04875,0.236885 0.09657,0.475592 0.148061,0.713387 0.08473,0.386759 0.183585,0.770786 0.340293,1.133856 0.469214,1.090121 1.753399,1.38304 2.805711,0.903804 1.036825,-0.472401 1.941083,1.0637 0.899248,1.538381 z M 37.345599,44.412292 c 0,-1.202643 0.974871,-2.177513 2.177514,-2.177513 1.202641,0 2.177968,0.97487 2.177968,2.177513 0,1.203098 -0.975327,2.177966 -2.177968,2.177966 -1.202643,0 -2.177514,-0.974868 -2.177514,-2.177966 z m -4.990512,-7.66776 c -0.389491,-2.194822 -0.339837,-5.141297 -0.02414,-7.700103 0.979424,0.380382 1.953382,0.862804 2.899099,1.437249 0.614076,0.373094 1.205831,0.773519 1.760232,1.189432 0.279248,0.210007 0.550755,0.427759 0.816338,0.649609 -2.089592,1.116546 -3.93911,2.623493 -5.451526,4.423813 z m 14.097345,-3.814291 c 0.629565,0 1.249108,0.04145 1.85954,0.114336 0.393592,2.310988 -0.277882,4.534055 -1.922861,6.276521 -0.05467,-0.06469 -0.109335,-0.128018 -0.163082,-0.190426 -0.274244,-0.317062 -0.532993,-0.616811 -0.752112,-0.997193 -1.073723,-1.859084 -1.378483,-3.641639 -1.399894,-5.01329 0.786274,-0.121176 1.580747,-0.189966 2.378409,-0.189966 z M 68.365586,49.448813 C 67.356095,48.29218 66.130675,47.38701 64.767225,46.763366 64.606863,46.690476 64.3217,44.181329 64.221936,43.817349 63.92993,42.75228 63.538616,41.715455 63.058014,40.721453 62.867588,40.327861 62.659865,39.94338 62.442115,39.564366 63.93084,35.957804 63.392384,29.784236 62.882628,26.96258 l -0.271049,-1.499658 -1.467316,0.411359 c -0.429125,0.121176 -0.861895,0.259205 -1.284641,0.411358 -1.289653,0.46329 -2.568827,1.078278 -3.802447,1.827197 -0.693341,0.420924 -1.361629,0.872372 -1.986639,1.342041 -0.588111,0.441879 -1.424494,1.193076 -1.919672,1.647711 -1.824919,-0.613165 -3.746872,-0.944348 -5.698432,-0.944348 -2.049048,0 -4.018377,0.341661 -5.861062,0.962114 l -0.05331,-0.06515 -0.128018,-0.135298 c -0.549372,-0.509749 -1.139761,-1.00265 -1.755203,-1.46503 -0.625923,-0.470125 -1.294665,-0.922027 -1.98664,-1.342041 -1.233163,-0.748919 -2.512793,-1.363907 -3.801991,-1.827197 -0.423202,-0.152161 -0.855517,-0.290184 -1.285096,-0.411358 l -1.46686,-0.411359 -0.271051,1.499658 c -0.515223,2.853545 -1.062791,9.135987 0.488801,12.723872 -1.24592,2.251766 -2.030369,4.791437 -2.233089,7.491007 -0.322527,0.159902 -0.643687,0.330271 -0.958014,0.516133 -0.740718,0.439602 -1.424494,0.941159 -2.033104,1.493281 -0.199987,0.182225 -0.394958,0.371271 -0.578089,0.562601 l -0.885126,0.923393 v 0.312049 l 1.026345,0.810418 c 1.126567,0.889682 2.397542,1.52927 3.745049,1.909194 -0.528434,0.680588 -0.980337,1.398529 -1.34295,2.13287 -0.119357,0.240983 -0.230964,0.488801 -0.33255,0.736619 l -0.579,1.412194 1.460937,0.440513 c 1.018148,0.306582 2.059981,0.460557 3.097718,0.460557 0.163543,0 0.326627,-0.0118 0.489712,-0.0192 3.313189,4.888926 8.904568,8.113284 15.242588,8.113284 6.581735,0 12.360798,-3.47491 15.614768,-8.683629 0.39177,0.03509 0.781263,0.05557 1.166198,0.05557 0.410905,0 0.816797,-0.02004 1.214489,-0.06013 0.27196,-0.02732 0.542101,-0.06423 0.804039,-0.109796 l 1.501026,-0.261483 -0.401793,-1.469593 c -0.327081,-1.19581 -0.854149,-2.304611 -1.546125,-3.296791 0.126198,-0.04237 0.252373,-0.08199 0.379014,-0.128018 0.809964,-0.296104 1.573459,-0.664187 2.271357,-1.093312 0.229139,-0.141219 0.455547,-0.29155 0.673296,-0.447346 l 1.240455,-0.888772 z" />
</svg>
