<?xml version="1.0" encoding="UTF-8" standalone="no"?>
<svg
   xmlns:dc="http://purl.org/dc/elements/1.1/"
   xmlns:cc="http://creativecommons.org/ns#"
   xmlns:rdf="http://www.w3.org/1999/02/22-rdf-syntax-ns#"
   xmlns:svg="http://www.w3.org/2000/svg"
   xmlns="http://www.w3.org/2000/svg"
   xmlns:sodipodi="http://sodipodi.sourceforge.net/DTD/sodipodi-0.dtd"
   xmlns:inkscape="http://www.inkscape.org/namespaces/inkscape"
   id="Layer_1"
   data-name="Layer 1"
   viewBox="0 0 93.18 92.45"
   version="1.1"
   sodipodi:docname="total_score.svg"
   inkscape:version="0.92.4 5da689c313, 2019-01-14">
  <metadata
     id="metadata17">
    <rdf:RDF>
      <cc:Work
         rdf:about="">
        <dc:format>image/svg+xml</dc:format>
        <dc:type
           rdf:resource="http://purl.org/dc/dcmitype/StillImage" />
        <dc:title>poderesArtboard 1 copy 2</dc:title>
      </cc:Work>
    </rdf:RDF>
  </metadata>
  <sodipodi:namedview
     pagecolor="#ffffff"
     bordercolor="#666666"
     borderopacity="1"
     objecttolerance="10"
     gridtolerance="10"
     guidetolerance="10"
     inkscape:pageopacity="0"
     inkscape:pageshadow="2"
     inkscape:window-width="1920"
     inkscape:window-height="968"
     id="namedview15"
     showgrid="false"
     showguides="true"
     inkscape:guide-bbox="true"
     inkscape:zoom="4.1962219"
     inkscape:cx="49.565912"
     inkscape:cy="50.347301"
     inkscape:window-x="0"
     inkscape:window-y="34"
     inkscape:window-maximized="1"
     inkscape:current-layer="Layer_1">
    <sodipodi:guide
       position="128.88156,62.677966"
       orientation="0,1"
       id="guide37"
       inkscape:locked="false" />
    <sodipodi:guide
       position="110.46991,29.772034"
       orientation="0,1"
       id="guide39"
       inkscape:locked="false" />
    <sodipodi:guide
       position="24.287711,34.472881"
       orientation="1,0"
       id="guide41"
       inkscape:locked="false" />
    <sodipodi:guide
       position="69.729235,29.772035"
       orientation="1,0"
       id="guide43"
       inkscape:locked="false" />
  </sodipodi:namedview>
  <defs
     id="defs4">
    <style
       id="style2">.cls-1{fill:#30bec0;}.cls-2{fill:#fff;}</style>
  </defs>
  <title
     id="title6">poderesArtboard 1 copy 2</title>
  <path
     class="cls-1"
     d="m 89.67,45.244998 c 0.43,-0.41 0.85,-0.84 1.25,-1.27 l 2.26,-2.47 -2.67,-2 a 23.26,23.26 0 0 0 -8.38,-4 q 0.5,-0.52 1,-1.08 c 0.57,-0.69 1.11,-1.4 1.61,-2.13 0.33,-0.49 0.65,-1 0.94,-1.51 l 1.68,-2.89 -3,-1.39 a 23.51,23.51 0 0 0 -7.73,-2.05 c 0.11,-0.27 0.22,-0.54 0.32,-0.82 a 27.74,27.74 0 0 0 1.36,-5.36 c 0.08,-0.58 0.15,-1.18 0.19,-1.76 l 0.26,-3.34 -3.35,0.07 a 23.31,23.31 0 0 0 -8.84,1.93 q 0.06,-0.86 0.06,-1.71 a 26.23,26.23 0 0 0 -0.13,-2.67 c -0.06,-0.59 -0.14,-1.1899993 -0.24,-1.7599993 l -0.57,-3.3 -3.23,0.89 a 23.32,23.32 0 0 0 -7.32,3.35 c -0.09,-0.28 -0.18,-0.56 -0.28,-0.83 a 27.05,27.05 0 0 0 -2.4,-5 c -0.31,-0.5 -0.64,-1 -1,-1.48 L 49.53,-0.02500129 47,2.1749987 a 23.5,23.5 0 0 0 -5.66,7.41 c -0.28,-0.4 -0.55,-0.81 -0.84,-1.18 a 26.53,26.53 0 0 0 -1.76,-2 c -0.41,-0.43 -0.84,-0.84 -1.28,-1.23 l -2.46,-2.26 -2,2.69 a 23.45,23.45 0 0 0 -3.59,7.1499993 c -0.24,-0.16 -0.48,-0.33 -0.74,-0.48 a 27.16,27.16 0 0 0 -5,-2.4299993 c -0.55,-0.21 -1.12,-0.39 -1.68,-0.56 l -3.19,-0.93 -0.62,3.2899993 a 23.3,23.3 0 0 0 0,8.73 c -0.67,-0.16 -1.34,-0.32 -2,-0.43 a 24.58,24.58 0 0 0 -2.65,-0.33 c -0.6,0 -1.2,-0.06 -1.78,-0.06 H 8.4100002 l 0.32,3.32 a 23.65,23.65 0 0 0 2.0999998,7.72 l -0.8599998,0.13 a 28.29,28.29 0 0 0 -5.33,1.51 q -0.82,0.33 -1.64,0.74 L 1.5258789e-7,34.404998 1.7400002,37.264998 a 23.26,23.26 0 0 0 6.26,6.83 c -0.43,0.2 -0.86,0.42 -1.28,0.64 a 24.89,24.89 0 0 0 -2.29,1.39 c -0.49,0.33 -1,0.69 -1.44,1.05 l -2.58000005,2.07 2.31000005,2.42 a 23.17,23.17 0 0 0 6.42,4.75 c -0.2,0.22 -0.4,0.42 -0.6,0.65 a 27.56,27.56 0 0 0 -3.25,4.48 c -0.29,0.51 -0.57,1 -0.83,1.56 l -1.46,3.01 3.14,1.18 a 23.4,23.4 0 0 0 8.2599998,1.48 c -0.05,0.12 -0.11,0.24 -0.16,0.37 -0.32,0.84 -0.6,1.69 -0.83,2.53 -0.16,0.58 -0.29,1.16 -0.4,1.74 l -0.65,3.28 3.33,0.33 a 23.48,23.48 0 0 0 5.37,-0.1 c -0.08,0.88 -0.12,1.76 -0.12,2.63 0,0.6 0,1.2 0.08,1.78 l 0.26,3.33 3.29,-0.57 a 23.64,23.64 0 0 0 4.5,-1.27 23.32,23.32 0 0 0 2,4.06 l 1.79,2.83 2.65,-2 c 0.46,-0.36 0.92,-0.75 1.36,-1.15 a 25.35,25.35 0 0 0 1.88,-1.86 c 0.11,0.31 0.2,0.64 0.32,0.94 0.33,0.84 0.71,1.65 1.11,2.43 0.28,0.53 0.57,1 0.88,1.55 l 1.75,2.85 2.67,-2 a 23.46,23.46 0 0 0 5.52,-5.89 c 0.19,0.22 0.37,0.45 0.57,0.67 a 27.43,27.43 0 0 0 4.05,3.72 c 0.47,0.36 1,0.69 1.46,1 l 2.82,1.81 1.53,-3 a 23.41,23.41 0 0 0 2.51,-9 c 0.41,0.26 0.81,0.54 1.23,0.79 a 26.58,26.58 0 0 0 2.37,1.22 c 0.55,0.24 1.1,0.47 1.65,0.67 l 3.14,1.16 0.85,-3.24 a 23.6,23.6 0 0 0 0.69,-8 l 0.86,0.17 a 27.35,27.35 0 0 0 5.52,0.42 c 0.59,0 1.18,-0.05 1.77,-0.11 l 3.33,-0.32 -0.64,-3.29 a 23.15,23.15 0 0 0 -3.25,-8.1 c 0.69,-0.1 1.37,-0.2 2,-0.34 a 26.55,26.55 0 0 0 2.59,-0.68 c 0.57,-0.18 1.13,-0.38 1.67,-0.6 l 3.11,-1.23 -1.52,-3 a 23.75,23.75 0 0 0 -4.81,-6.39 l 0.76,-0.44 a 27.94,27.94 0 0 0 4.41,-3.23 z m -8.85,15.07 a 0.89,0.89 0 0 1 0.06,-0.43 v 0.56 z"
     id="path8"
     inkscape:connector-curvature="0"
     style="fill:#30bec0" />
  <g
     id="g583"
     transform="translate(0.71312415,0.6359947)">
    <path
       sodipodi:nodetypes="scsssscssscccsssssssscccsssscccsscccs"
       id="path547"
       class=""
       d="M 62.811158,38.501045 H 56.14008 v -2.565799 c 0,-0.853129 -0.686354,-1.539482 -1.539483,-1.539482 H 37.153155 c -0.853129,0 -1.539483,0.686353 -1.539483,1.539482 v 2.565799 h -6.671078 c -0.853129,0 -1.539482,0.686353 -1.539482,1.539482 v 3.592122 c 0,4.265641 4.996894,8.447896 11.026529,9.134249 2.014151,3.341953 4.368273,4.721072 4.368273,4.721072 v 4.618442 h -3.078961 c -2.264316,0 -4.105281,1.327802 -4.105281,3.592119 v 0.769743 c 0,0.423357 0.346383,0.769739 0.769739,0.769739 h 18.986925 c 0.423357,0 0.769744,-0.346382 0.769744,-0.769739 v -0.769743 c 0,-2.264317 -1.840965,-3.592119 -4.105281,-3.592119 H 48.955834 V 57.48797 c 0,0 2.354122,-1.379119 4.368277,-4.721072 6.048878,-0.692764 11.026529,-4.881435 11.026529,-9.134249 v -3.592122 c 0,-0.853129 -0.686353,-1.539482 -1.539482,-1.539482 z M 31.508392,43.632649 V 42.60633 h 4.118112 c 0.06414,2.091125 0.37204,3.925673 0.821055,5.529299 -3.046887,-1.051979 -4.939167,-3.200836 -4.939167,-4.50298 z m 28.736968,0 c 0,1.295729 -1.885864,3.451001 -4.939167,4.50298 0.449015,-1.603626 0.756912,-3.438174 0.821055,-5.529299 h 4.118112 z"
       style="fill:#ffffff;stroke-width:0.06414501"
       inkscape:connector-curvature="0" />
    <path
       sodipodi:nodetypes="ccccccccccccc"
       inkscape:connector-curvature="0"
       d="m 58.94756,30.20772 0.602962,3.502318 c -0.793469,1.905356 -2.845851,-0.102525 -4.25923,-0.846714 -1.676918,0.846342 -3.372017,2.426595 -4.25923,0.846714 l 0.602962,-3.502318 -2.540135,-2.475997 c -0.455434,-0.442603 -0.205265,-1.218758 0.429764,-1.314975 l 3.515146,-0.513161 1.571552,-3.181589 c 0.282245,-0.570894 1.096878,-0.570894 1.379122,0 l 1.571552,3.181589 3.515146,0.513161 C 62.613582,27.7758 60.096525,29.08777 58.94756,30.20772 Z"
       style="fill:#ffffff;stroke-width:0.06414501"
       id="path572" />
    <path
       id="path575"
       style="fill:#ffffff;stroke-width:0.04410417"
       d="m 47.402289,25.381347 0.414578,2.408087 c -0.545565,1.310065 -1.95672,-0.07049 -2.928517,-0.582175 -1.152997,0.581919 -2.318496,1.668453 -2.928517,0.582175 l 0.414579,-2.408087 -1.746519,-1.702421 c -0.313143,-0.30432 -0.141135,-0.83798 0.295492,-0.904136 l 2.416908,-0.352835 1.080551,-2.187563 c 0.194062,-0.39253 0.754179,-0.39253 0.948242,0 l 1.080551,2.187563 2.416908,0.352835 c 1.056389,0.934442 -0.674263,1.836513 -1.464256,2.606557 z"
       inkscape:connector-curvature="0"
       sodipodi:nodetypes="ccccccccccccc" />
    <path
       sodipodi:nodetypes="ccccccccccccc"
       inkscape:connector-curvature="0"
       d="M 37.133867,25.166455 37.4539,27.02537 c -0.421147,1.011302 -1.510484,-0.05442 -2.260659,-0.449408 -0.890053,0.449211 -1.789756,1.287958 -2.26066,0.449408 l 0.320032,-1.858915 -1.34822,-1.314177 c -0.241729,-0.234919 -0.108948,-0.646877 0.228105,-0.697946 l 1.865725,-0.27237 0.834127,-1.688682 c 0.149806,-0.303012 0.582187,-0.303012 0.731993,0 l 0.834128,1.688682 1.865724,0.27237 c 0.815476,0.72134 -0.520494,1.417691 -1.130328,2.012123 z"
       style="fill:#ffffff;stroke-width:0.03404608"
       id="path577" />
  </g>
</svg>
