<?xml version="1.0" encoding="UTF-8"?>
<svg width="155px" height="155px" viewBox="0 0 155 155" version="1.1" xmlns="http://www.w3.org/2000/svg" xmlns:xlink="http://www.w3.org/1999/xlink">
    <!-- Generator: sketchtool 50.2 (55047) - http://www.bohemiancoding.com/sketch -->
    <title>95E030BB-F6ED-4AA7-80CB-E764032B97F5</title>
    <desc>Created with sketchtool.</desc>
    <defs>
        <circle id="path-1" cx="77.5" cy="77.5" r="77.5"></circle>
        <filter x="-1.3%" y="-1.3%" width="102.6%" height="102.6%" filterUnits="objectBoundingBox" id="filter-2">
            <feGaussianBlur stdDeviation="1.5" in="SourceAlpha" result="shadowBlurInner1"></feGaussianBlur>
            <feOffset dx="0" dy="1" in="shadowBlurInner1" result="shadowOffsetInner1"></feOffset>
            <feComposite in="shadowOffsetInner1" in2="SourceAlpha" operator="arithmetic" k2="-1" k3="1" result="shadowInnerInner1"></feComposite>
            <feColorMatrix values="0 0 0 0 0.0196078431   0 0 0 0 0.168627451   0 0 0 0 0.278431373  0 0 0 0.7 0" type="matrix" in="shadowInnerInner1"></feColorMatrix>
        </filter>
    </defs>
    <g id="Page-1" stroke="none" stroke-width="1" fill="none" fill-rule="evenodd">
        <g id="403---permissao-negada" transform="translate(-82.000000, -45.000000)">
            <g id="Group-Copy-7" transform="translate(82.000000, 45.000000)">
                <g id="gatinho">
                    <g id="Oval-5">
                        <use fill="#FFFFFF" fill-rule="evenodd" xlink:href="#path-1"></use>
                        <use fill="black" fill-opacity="1" filter="url(#filter-2)" xlink:href="#path-1"></use>
                    </g>
                    <path d="M78.4961464,50.5325031 C79.8899922,50.5325031 81.2616493,50.6242831 82.6131351,50.7856545 C83.4845408,55.9021375 81.9979065,60.8239661 78.355955,64.6817519 C78.2349264,64.5385347 78.1138979,64.3983433 77.9948864,64.260169 C77.3877264,63.5582033 76.8148578,62.8945633 76.329735,62.0524061 C73.9525321,57.9364261 73.2777978,53.989886 73.2303949,50.9530774 C74.9711892,50.6847974 76.7301378,50.5325031 78.4961464,50.5325031 Z M124.012092,85.4956164 C121.844802,83.012427 119.213932,81.0691039 116.286722,79.7301964 C115.94246,79.5737134 115.33022,74.1867866 115.116034,73.4053497 C114.489124,71.1187421 113.649006,68.8927716 112.617196,66.7587349 C112.208384,65.9137268 106.21802,57.9856653 105.750527,57.1719537 C108.946692,49.42898 114.088136,45.7469821 112.993733,39.6891345 L115.116034,35.7663017 L110.490006,35.7663017 C109.568712,36.0264547 106.658129,36.8929792 105.750527,37.2196374 C102.981756,38.2142824 100.23548,38.0812719 97.5870055,39.6891345 C96.0984611,40.5928238 94.6637077,41.5620403 93.3218661,42.5703775 C92.059244,43.5190556 90.2636018,45.1318084 89.2004955,46.107871 C85.2825527,44.7914579 81.156292,44.0804383 76.9664601,44.0804383 C72.5673322,44.0804383 68.3393575,44.8139523 64.3832721,46.1460137 L63.9940206,45.7156855 C62.8145301,44.6212826 61.547018,43.5630664 60.2257148,42.5703775 C58.8819171,41.5610622 57.4461857,40.5908677 55.9605754,39.6891345 C53.3130789,38.0812719 50.5658245,36.7609467 47.7980317,35.7663017 C46.8894523,35.4396435 45.9613126,35.1433038 45.039041,34.8831508 L41.889821,34 L41.3078999,37.2196374 C40.2017608,43.3459463 39.0261823,56.8338016 42.3573139,64.5366765 C39.6824329,69.3710228 37.9982847,74.8234768 37.5630664,80.6192153 C36.8706292,80.9624999 36.1811261,81.3282789 35.5062932,81.7273105 C33.9160349,82.6710985 32.4480289,83.747897 31.1413959,84.9332556 C30.7120457,85.3244631 30.2934538,85.7303408 29.9002903,86.1411087 L28,88.1235525 L28,88.7934953 L30.203476,90.5333905 C32.6221162,92.4434609 35.3507882,93.8165991 38.2437674,94.6322666 C37.1092658,96.0934265 36.1390713,97.6347839 35.3605684,99.21135 C35.1043275,99.7287219 34.864713,100.260764 34.6466148,100.792806 L33.4035531,103.824664 L36.5400589,104.770408 C38.7259306,105.428615 40.9626593,105.759185 43.1905858,105.759185 C43.5416945,105.759185 43.8918252,105.733756 44.2419558,105.718108 C51.3550855,116.214204 63.3592865,123.13662 76.9664601,123.13662 C91.0968737,123.13662 103.504018,115.676294 110.490006,104.493629 C111.331102,104.568936 112.167308,104.612947 112.993733,104.612947 C113.875906,104.612947 114.747321,104.569914 115.601131,104.483849 C116.185008,104.425167 116.764973,104.345948 117.327334,104.248146 L120.549906,103.686763 L119.687293,100.531675 C118.985076,97.9643762 117.853508,95.5838788 116.367898,93.4537542 C116.638809,93.3627984 116.90972,93.2777108 117.181609,93.1789309 C118.920526,92.5432188 120.559686,91.7529797 122.05801,90.8316861 C122.549954,90.5285004 123.036029,90.2057542 123.503522,89.8712718 L126.166667,87.9631574 L124.012092,85.4956164 Z" id="Fill-6" fill="#A3D8DD"></path>
                    <path d="M67.0768976,76.0384488 C67.0768976,73.290204 64.7866936,71 62.0384488,71 C59.290204,71 57,73.290204 57,76.0384488 C57,78.7866936 59.290204,81.0768976 62.0384488,81.0768976 C64.8783018,81.0768976 67.0768976,78.7866936 67.0768976,76.0384488 Z M60.3895019,76.4125382 C60.2978938,76.4125382 60.2062856,76.4125382 60.2062856,76.4125382 C59.4734203,76.3209301 59.0153795,75.7712811 59.0153795,75.0384158 C59.1069877,74.3971587 59.5650285,73.9391179 60.2062856,73.8475097 C60.9391509,73.7559016 61.4887999,74.3055505 61.580408,75.0384158 C61.6720162,75.7712811 61.1223672,76.3209301 60.3895019,76.4125382 Z" id="Shape" fill="#052B47" fill-rule="nonzero"></path>
                    <path d="M93.0384488,71 C90.290204,71 88,73.290204 88,76.0384488 C88,78.7866936 90.290204,81.0768976 93.0384488,81.0768976 C95.7866936,81.0768976 98.0768976,78.7866936 98.0768976,76.0384488 C98.0768976,73.1985958 95.7866936,71 93.0384488,71 Z M91.2978938,76.4125382 C91.2062856,76.4125382 91.1146775,76.4125382 91.1146775,76.4125382 C90.3818122,76.3209301 89.9237714,75.7712811 89.9237714,75.0384158 C90.0153795,74.3971587 90.4734203,73.9391179 91.1146775,73.8475097 C91.8475427,73.7559016 92.3971917,74.3055505 92.4887999,75.0384158 C92.580408,75.7712811 92.0307591,76.3209301 91.2978938,76.4125382 Z" id="Shape" fill="#052B47" fill-rule="nonzero"></path>
                    <path d="M79.8095957,96.9775997 C79.8095957,96.8859916 79.7179875,96.7943834 79.7179875,96.6111671 C79.9012038,96.5195589 80.0844202,96.3363426 80.1760283,96.2447344 L82.4662323,93.9545304 C83.1074894,93.3132733 83.4739221,92.3971917 83.4739221,91.4811101 C83.4739221,89.5573387 81.9165834,88 79.992812,88 L75.5040121,88 C74.5879305,88 73.6718489,88.3664326 73.0305918,89.0076898 C71.6564694,90.3818122 71.6564694,92.580408 73.0305918,93.8629223 L75.3207958,96.1531263 C75.3207958,96.1531263 75.412404,96.2447344 75.412404,96.2447344 C75.3207958,96.4279508 75.2291877,96.6111671 75.2291877,96.8859916 C75.412404,95.8783018 74.6107709,101.870864 75.1449182,102.970162 C75.1449182,106.508842 79.3967718,106.508842 79.6190406,102.970162 C79.7044055,101.611092 79.7179875,95.96991 79.8095957,96.9775997 Z M79.5347712,91.8475427 L77.7942161,93.5880978 L76.0536611,91.8475427 L79.5347712,91.8475427 Z" id="Shape" fill="#052B47" fill-rule="nonzero"></path>
                    <path d="M128.792046,85.422937 C126.501842,82.7663004 123.661989,80.6593127 120.547311,79.2851903 C119.814446,71.4984966 117.066201,64.3530601 112.760618,58.3069216 C113.218658,57.4824481 113.585091,56.6579747 114.043132,55.7418931 C114.775997,54.0929462 115.508862,52.3523911 116.058511,50.6118361 C117.157809,47.4971586 117.890675,44.3824812 118.348715,41.0845874 C118.440324,40.0768976 118.531932,38.9775997 118.62354,37.96991 L118.806756,34.4887999 L115.234038,34.6720162 C106.989304,34.9468407 99.1110017,37.6950855 92.5152142,42.550318 L91.8739571,42.8251425 C87.4767654,41.3594119 82.713141,40.5349384 77.8579085,40.5349384 C73.1858924,40.5349384 68.6054843,41.3594119 64.391509,42.8251425 L64.1166845,42.550318 C62.8341702,41.3594119 61.4600478,40.260114 60.0859254,39.160816 C58.6201949,38.0615181 57.0628561,37.0538283 55.5055174,36.0461386 C52.7572726,34.3055835 49.7342033,32.9314611 46.711134,31.8321632 C45.7034442,31.4657306 44.6957545,31.1909061 43.7796729,30.9160816 L40.3901709,30 L39.7489138,33.4811101 C38.5580077,40.0768976 37.2754935,54.4593788 40.8482117,62.7957214 C38.0083588,68.0173866 36.1761956,73.971917 35.7181548,80.29288 C34.9852895,80.6593127 34.2524242,81.0257453 33.5195589,81.4837861 C31.870612,82.4914759 30.2216651,83.5907738 28.8475427,84.9648962 C28.3895019,85.3313289 27.9314611,85.7893697 27.4734203,86.2474105 L25,88.6292226 L27.7482448,90.8278185 C30.3132733,92.843198 33.3363426,94.4005367 36.45102,95.2250102 C36.45102,95.2250102 36.45102,95.2250102 36.45102,95.2250102 C35.260114,96.7823489 34.2524242,98.4312958 33.3363426,100.171851 C33.0615181,100.7215 32.7866936,101.271149 32.6034773,101.912406 L31.2293549,105.2103 L34.6188568,106.217989 C36.9090608,106.950855 39.3824812,107.317287 41.7642933,107.317287 C42.130726,107.317287 42.4971586,107.317287 42.8635913,107.317287 C55.0474766,125.455703 79.3236391,131.501842 98.7445691,120.783687 C105.065532,117.302577 110.470414,112.17252 114.226348,106.034773 C115.14243,106.126381 116.058511,106.126381 116.882985,106.126381 C117.799066,106.126381 118.806756,106.034773 119.722838,105.943165 C120.364095,105.851557 120.913744,105.759949 121.555001,105.66834 L125.036111,105.027083 L124.12003,101.637581 C123.387164,98.8893366 122.196258,96.3243081 120.547311,94.0341041 C120.822136,93.9424959 121.09696,93.8508878 121.371785,93.7592796 C123.203948,93.1180225 124.944503,92.2019409 126.59345,91.1942511 C127.143099,90.8278185 127.692748,90.552994 128.150789,90.1865614 L130.990642,88.1711818 L128.792046,85.422937 Z M111.936144,41.3594119 C111.569712,43.8328322 110.928454,46.2146444 110.103981,48.5048484 C109.554332,50.0621871 109.004683,51.6195258 108.271818,52.9936483 C105.523573,50.2454034 102.408896,47.8635913 98.9277854,45.9398199 C102.866936,43.5580077 107.264128,41.9090608 111.936144,41.3594119 Z M45.4286198,38.1531263 C47.7188238,39.0692079 50.0090278,40.1685058 52.1160155,41.45102 C53.4901379,42.2754935 55.0474766,43.2831833 56.2383827,44.1992649 C56.8796398,44.6573057 57.4292888,45.1153465 57.9789377,45.5733873 C53.2153134,48.1384158 48.9097299,51.6195258 45.4286198,55.7418931 C44.6041463,50.7034442 44.7873626,44.0160485 45.4286198,38.1531263 Z M36.7258445,86.7970594 C37.4587098,86.3390186 38.2831833,85.8809778 39.1076567,85.5145452 C39.6573057,85.2397207 40.2069546,85.0565044 40.7566036,84.8732881 L41.3062525,89.5453042 C39.1992649,89.3620879 37.0922772,88.812439 35.1685058,87.8047492 C35.6265466,87.5299247 36.1761956,87.1634921 36.7258445,86.7970594 Z M114.592781,99.4389856 C113.676699,99.3473774 112.760618,99.2557692 111.936144,99.0725529 C111.111671,98.8893366 110.287197,98.7061203 109.554332,98.4312958 L107.813777,104.019394 C97.0956222,119.409565 76.2089616,124.173189 59.8111009,114.462724 C55.4139092,111.806087 51.5663665,108.324977 48.6349054,104.111002 L47.260783,99.8970264 C45.0621871,100.629892 42.680375,100.904716 40.2985628,100.7215 C40.6649954,100.171851 41.0314281,99.6222019 41.3978607,99.0725529 C41.9475097,98.3396876 42.4971586,97.6984305 43.1384158,97.0571734 C43.6880647,96.4159163 44.3293218,95.8662673 44.970579,95.3166183 L43.4132402,93.4844551 C37.8251425,74.7047823 48.2684727,54.8258115 66.9565374,48.7796729 C86.0110348,42.6419261 106.348046,53.0852564 112.485793,72.0481456 C114.684389,78.8271495 114.775997,86.1558023 112.852226,93.0264143 L112.027752,93.9424959 C112.119361,94.0341041 112.302577,94.2173204 112.394185,94.3089286 C112.394185,94.4005367 112.302577,94.4921449 112.302577,94.5837531 L112.394185,94.4005367 C114.043132,95.8662673 115.325646,97.5152142 116.333336,99.4389856 C115.875295,99.6222019 115.234038,99.5305937 114.592781,99.4389856 Z M119.356405,87.6215329 C118.531932,87.8963574 117.61585,88.1711818 116.791377,88.4460063 C116.241728,88.6292226 115.600471,88.7208308 115.050822,88.812439 L115.417254,84.1404228 C117.524242,84.6900717 119.448013,85.6061533 121.188568,86.8886676 C120.547311,87.1634921 119.997662,87.4383166 119.356405,87.6215329 Z" id="Shape" fill="#052B47" fill-rule="nonzero"></path>
                </g>
                <path d="M55,72.3019802 C83.1452145,72.1006601 98.5511551,72 101.217822,72" id="Path-118-Copy" stroke="#052B47" stroke-width="4" stroke-linecap="round"></path>
            </g>
        </g>
    </g>
</svg>