<?xml version="1.0" encoding="UTF-8"?>
<svg width="155px" height="155px" viewBox="0 0 155 155" version="1.1" xmlns="http://www.w3.org/2000/svg" xmlns:xlink="http://www.w3.org/1999/xlink">
    <!-- Generator: sketchtool 50.2 (55047) - http://www.bohemiancoding.com/sketch -->
    <title>7D2A0604-EA69-4003-80C7-4AF9EDD2B4FC</title>
    <desc>Created with sketchtool.</desc>
    <defs>
        <circle id="path-1" cx="77.5" cy="77.5" r="77.5"></circle>
        <filter x="-1.3%" y="-1.3%" width="102.6%" height="102.6%" filterUnits="objectBoundingBox" id="filter-2">
            <feGaussianBlur stdDeviation="1.5" in="SourceAlpha" result="shadowBlurInner1"></feGaussianBlur>
            <feOffset dx="0" dy="1" in="shadowBlurInner1" result="shadowOffsetInner1"></feOffset>
            <feComposite in="shadowOffsetInner1" in2="SourceAlpha" operator="arithmetic" k2="-1" k3="1" result="shadowInnerInner1"></feComposite>
            <feColorMatrix values="0 0 0 0 0.0196078431   0 0 0 0 0.168627451   0 0 0 0 0.278431373  0 0 0 0.7 0" type="matrix" in="shadowInnerInner1"></feColorMatrix>
        </filter>
    </defs>
    <g id="Page-1" stroke="none" stroke-width="1" fill="none" fill-rule="evenodd">
        <g id="404---página-não-encontrada" transform="translate(-82.000000, -45.000000)">
            <g id="Group-Copy-7" transform="translate(82.000000, 45.000000)">
                <g id="gatinho">
                    <g id="Oval-5">
                        <use fill="#FFFFFF" fill-rule="evenodd" xlink:href="#path-1"></use>
                        <use fill="black" fill-opacity="1" filter="url(#filter-2)" xlink:href="#path-1"></use>
                    </g>
                    <path d="M78.4961464,62.5325031 C79.8899922,62.5325031 81.2616493,62.6242831 82.6131351,62.7856545 C83.4845408,67.9021375 81.9979065,72.8239661 78.355955,76.6817519 C78.2349264,76.5385347 78.1138979,76.3983433 77.9948864,76.260169 C77.3877264,75.5582033 76.8148578,74.8945633 76.329735,74.0524061 C73.9525321,69.9364261 73.2777978,65.989886 73.2303949,62.9530774 C74.9711892,62.6847974 76.7301378,62.5325031 78.4961464,62.5325031 Z M124.012092,97.4956164 C121.844802,95.012427 119.213932,93.0691039 116.286722,91.7301964 C115.94246,91.5737134 115.33022,86.1867866 115.116034,85.4053497 C114.489124,83.1187421 113.649006,80.8927716 112.617196,78.7587349 C112.208384,77.9137268 106.21802,69.9856653 105.750527,69.1719537 C108.946692,61.42898 114.088136,57.7469821 112.993733,51.6891345 L115.116034,47.7663017 L110.490006,47.7663017 C109.568712,48.0264547 106.658129,48.8929792 105.750527,49.2196374 C102.981756,50.2142824 100.23548,50.0812719 97.5870055,51.6891345 C96.0984611,52.5928238 94.6637077,53.5620403 93.3218661,54.5703775 C92.059244,55.5190556 90.2636018,57.1318084 89.2004955,58.107871 C85.2825527,56.7914579 81.156292,56.0804383 76.9664601,56.0804383 C72.5673322,56.0804383 68.3393575,56.8139523 64.3832721,58.1460137 L63.9940206,57.7156855 C62.8145301,56.6212826 61.547018,55.5630664 60.2257148,54.5703775 C58.8819171,53.5610622 57.4461857,52.5908677 55.9605754,51.6891345 C53.3130789,50.0812719 50.5658245,48.7609467 47.7980317,47.7663017 C46.8894523,47.4396435 45.9613126,47.1433038 45.039041,46.8831508 L41.889821,46 L41.3078999,49.2196374 C40.2017608,55.3459463 39.0261823,68.8338016 42.3573139,76.5366765 C39.6824329,81.3710228 37.9982847,86.8234768 37.5630664,92.6192153 C36.8706292,92.9624999 36.1811261,93.3282789 35.5062932,93.7273105 C33.9160349,94.6710985 32.4480289,95.747897 31.1413959,96.9332556 C30.7120457,97.3244631 30.2934538,97.7303408 29.9002903,98.1411087 L28,100.123552 L28,100.793495 L30.203476,102.53339 C32.6221162,104.443461 35.3507882,105.816599 38.2437674,106.632267 C37.1092658,108.093427 36.1390713,109.634784 35.3605684,111.21135 C35.1043275,111.728722 34.864713,112.260764 34.6466148,112.792806 L33.4035531,115.824664 L36.5400589,116.770408 C38.7259306,117.428615 40.9626593,117.759185 43.1905858,117.759185 C43.5416945,117.759185 43.8918252,117.733756 44.2419558,117.718108 C51.3550855,128.214204 63.3592865,135.13662 76.9664601,135.13662 C91.0968737,135.13662 103.504018,127.676294 110.490006,116.493629 C111.331102,116.568936 112.167308,116.612947 112.993733,116.612947 C113.875906,116.612947 114.747321,116.569914 115.601131,116.483849 C116.185008,116.425167 116.764973,116.345948 117.327334,116.248146 L120.549906,115.686763 L119.687293,112.531675 C118.985076,109.964376 117.853508,107.583879 116.367898,105.453754 C116.638809,105.362798 116.90972,105.277711 117.181609,105.178931 C118.920526,104.543219 120.559686,103.75298 122.05801,102.831686 C122.549954,102.5285 123.036029,102.205754 123.503522,101.871272 L126.166667,99.9631574 L124.012092,97.4956164 Z" id="Fill-6" fill="#A3D8DD"></path>
                    <path d="M66.7111823,87.348272 C66.7111823,84.6000272 64.4209783,82.3098232 61.6727335,82.3098232 C58.9244887,82.3098232 56.6342847,84.6000272 56.6342847,87.348272 C56.6342847,90.0965169 58.9244887,92.3867209 61.6727335,92.3867209 C64.5125865,92.3867209 66.7111823,90.0965169 66.7111823,87.348272 Z M60.0237866,86.7223615 C59.9321785,86.7223615 59.8405703,86.7223615 59.8405703,86.7223615 C59.107705,86.6307533 58.6496642,86.0811043 58.6496642,85.348239 C58.7412724,84.7069819 59.1993132,84.2489411 59.8405703,84.157333 C60.5734356,84.0657248 61.1230846,84.6153738 61.2146927,85.348239 C61.3063009,86.0811043 60.7566519,86.6307533 60.0237866,86.7223615 Z" id="Shape" fill="#052B47" fill-rule="nonzero"></path>
                    <path d="M93.369157,82.3098232 C90.6209122,82.3098232 88.3307082,84.6000272 88.3307082,87.348272 C88.3307082,90.0965169 90.6209122,92.3867209 93.369157,92.3867209 C96.1174018,92.3867209 98.4076058,90.0965169 98.4076058,87.348272 C98.4076058,84.5084191 96.1174018,82.3098232 93.369157,82.3098232 Z M91.628602,86.7223615 C91.5369938,86.7223615 91.4453856,86.7223615 91.4453856,86.7223615 C90.7125204,86.6307533 90.2544796,86.0811043 90.2544796,85.348239 C90.3460877,84.7069819 90.8041285,84.2489411 91.4453856,84.157333 C92.1782509,84.0657248 92.7278999,84.6153738 92.819508,85.348239 C92.9111162,86.0811043 92.3614672,86.6307533 91.628602,86.7223615 Z" id="Shape" fill="#052B47" fill-rule="nonzero"></path>
                    <path d="M79.8095957,108.9776 C79.8095957,108.885992 79.7179875,108.794383 79.7179875,108.611167 C79.9012038,108.519559 80.0844202,108.336343 80.1760283,108.244734 L82.4662323,105.95453 C83.1074894,105.313273 83.4739221,104.397192 83.4739221,103.48111 C83.4739221,101.557339 81.9165834,100 79.992812,100 L75.5040121,100 C74.5879305,100 73.6718489,100.366433 73.0305918,101.00769 C71.6564694,102.381812 71.6564694,104.580408 73.0305918,105.862922 L75.3207958,108.153126 C75.3207958,108.153126 75.412404,108.244734 75.412404,108.244734 C75.3207958,108.427951 75.2291877,108.611167 75.2291877,108.885992 C75.412404,107.878302 74.6107709,113.870864 75.1449182,114.970162 C75.1449182,118.508842 79.3967718,118.508842 79.6190406,114.970162 C79.7044055,113.611092 79.7179875,107.96991 79.8095957,108.9776 Z M79.5347712,103.847543 L77.7942161,105.588098 L76.0536611,103.847543 L79.5347712,103.847543 Z" id="Shape" fill="#052B47" fill-rule="nonzero"></path>
                    <path d="M128.792046,97.422937 C126.501842,94.7663004 123.661989,92.6593127 120.547311,91.2851903 C119.814446,83.4984966 117.066201,76.3530601 112.760618,70.3069216 C113.218658,69.4824481 113.585091,68.6579747 114.043132,67.7418931 C114.775997,66.0929462 115.508862,64.3523911 116.058511,62.6118361 C117.157809,59.4971586 117.890675,56.3824812 118.348715,53.0845874 C118.440324,52.0768976 118.531932,50.9775997 118.62354,49.96991 L118.806756,46.4887999 L115.234038,46.6720162 C106.989304,46.9468407 99.1110017,49.6950855 92.5152142,54.550318 L91.8739571,54.8251425 C87.4767654,53.3594119 82.713141,52.5349384 77.8579085,52.5349384 C73.1858924,52.5349384 68.6054843,53.3594119 64.391509,54.8251425 L64.1166845,54.550318 C62.8341702,53.3594119 61.4600478,52.260114 60.0859254,51.160816 C58.6201949,50.0615181 57.0628561,49.0538283 55.5055174,48.0461386 C52.7572726,46.3055835 49.7342033,44.9314611 46.711134,43.8321632 C45.7034442,43.4657306 44.6957545,43.1909061 43.7796729,42.9160816 L40.3901709,42 L39.7489138,45.4811101 C38.5580077,52.0768976 37.2754935,66.4593788 40.8482117,74.7957214 C38.0083588,80.0173866 36.1761956,85.971917 35.7181548,92.29288 C34.9852895,92.6593127 34.2524242,93.0257453 33.5195589,93.4837861 C31.870612,94.4914759 30.2216651,95.5907738 28.8475427,96.9648962 C28.3895019,97.3313289 27.9314611,97.7893697 27.4734203,98.2474105 L25,100.629223 L27.7482448,102.827818 C30.3132733,104.843198 33.3363426,106.400537 36.45102,107.22501 C36.45102,107.22501 36.45102,107.22501 36.45102,107.22501 C35.260114,108.782349 34.2524242,110.431296 33.3363426,112.171851 C33.0615181,112.7215 32.7866936,113.271149 32.6034773,113.912406 L31.2293549,117.2103 L34.6188568,118.217989 C36.9090608,118.950855 39.3824812,119.317287 41.7642933,119.317287 C42.130726,119.317287 42.4971586,119.317287 42.8635913,119.317287 C55.0474766,137.455703 79.3236391,143.501842 98.7445691,132.783687 C105.065532,129.302577 110.470414,124.17252 114.226348,118.034773 C115.14243,118.126381 116.058511,118.126381 116.882985,118.126381 C117.799066,118.126381 118.806756,118.034773 119.722838,117.943165 C120.364095,117.851557 120.913744,117.759949 121.555001,117.66834 L125.036111,117.027083 L124.12003,113.637581 C123.387164,110.889337 122.196258,108.324308 120.547311,106.034104 C120.822136,105.942496 121.09696,105.850888 121.371785,105.75928 C123.203948,105.118022 124.944503,104.201941 126.59345,103.194251 C127.143099,102.827818 127.692748,102.552994 128.150789,102.186561 L130.990642,100.171182 L128.792046,97.422937 Z M111.936144,53.3594119 C111.569712,55.8328322 110.928454,58.2146444 110.103981,60.5048484 C109.554332,62.0621871 109.004683,63.6195258 108.271818,64.9936483 C105.523573,62.2454034 102.408896,59.8635913 98.9277854,57.9398199 C102.866936,55.5580077 107.264128,53.9090608 111.936144,53.3594119 Z M45.4286198,50.1531263 C47.7188238,51.0692079 50.0090278,52.1685058 52.1160155,53.45102 C53.4901379,54.2754935 55.0474766,55.2831833 56.2383827,56.1992649 C56.8796398,56.6573057 57.4292888,57.1153465 57.9789377,57.5733873 C53.2153134,60.1384158 48.9097299,63.6195258 45.4286198,67.7418931 C44.6041463,62.7034442 44.7873626,56.0160485 45.4286198,50.1531263 Z M36.7258445,98.7970594 C37.4587098,98.3390186 38.2831833,97.8809778 39.1076567,97.5145452 C39.6573057,97.2397207 40.2069546,97.0565044 40.7566036,96.8732881 L41.3062525,101.545304 C39.1992649,101.362088 37.0922772,100.812439 35.1685058,99.8047492 C35.6265466,99.5299247 36.1761956,99.1634921 36.7258445,98.7970594 Z M114.592781,111.438986 C113.676699,111.347377 112.760618,111.255769 111.936144,111.072553 C111.111671,110.889337 110.287197,110.70612 109.554332,110.431296 L107.813777,116.019394 C97.0956222,131.409565 76.2089616,136.173189 59.8111009,126.462724 C55.4139092,123.806087 51.5663665,120.324977 48.6349054,116.111002 L47.260783,111.897026 C45.0621871,112.629892 42.680375,112.904716 40.2985628,112.7215 C40.6649954,112.171851 41.0314281,111.622202 41.3978607,111.072553 C41.9475097,110.339688 42.4971586,109.698431 43.1384158,109.057173 C43.6880647,108.415916 44.3293218,107.866267 44.970579,107.316618 L43.4132402,105.484455 C37.8251425,86.7047823 48.2684727,66.8258115 66.9565374,60.7796729 C86.0110348,54.6419261 106.348046,65.0852564 112.485793,84.0481456 C114.684389,90.8271495 114.775997,98.1558023 112.852226,105.026414 L112.027752,105.942496 C112.119361,106.034104 112.302577,106.21732 112.394185,106.308929 C112.394185,106.400537 112.302577,106.492145 112.302577,106.583753 L112.394185,106.400537 C114.043132,107.866267 115.325646,109.515214 116.333336,111.438986 C115.875295,111.622202 115.234038,111.530594 114.592781,111.438986 Z M119.356405,99.6215329 C118.531932,99.8963574 117.61585,100.171182 116.791377,100.446006 C116.241728,100.629223 115.600471,100.720831 115.050822,100.812439 L115.417254,96.1404228 C117.524242,96.6900717 119.448013,97.6061533 121.188568,98.8886676 C120.547311,99.1634921 119.997662,99.4383166 119.356405,99.6215329 Z" id="Shape" fill="#052B47" fill-rule="nonzero"></path>
                </g>
                <path d="M54.7821782,79.8019802 C62.4544464,79.1625413 67.2497389,77.6278878 69.1680558,75.1980198" id="Path-118-Copy" stroke="#052B47" stroke-width="4" stroke-linecap="round"></path>
                <path d="M87.009901,79.8019802 C94.6821692,79.1625413 99.4774617,77.6278878 101.395779,75.1980198" id="Path-118-Copy-2" stroke="#052B47" stroke-width="4" stroke-linecap="round" transform="translate(94.202840, 77.500000) scale(-1, 1) translate(-94.202840, -77.500000) "></path>
                <text id="?" transform="translate(87.259694, 34.154925) rotate(23.000000) translate(-87.259694, -34.154925) " font-family="Raleway-Black, Raleway" font-size="38" font-weight="700" fill="#052B47">
                    <tspan x="77.8546944" y="43.3851235">?</tspan>
                </text>
                <text id="?-copy-4" transform="translate(70.801544, 30.617194) rotate(-20.000000) translate(-70.801544, -30.617194) " font-family="Raleway-ExtraBold, Raleway" font-size="26" font-weight="600" fill="#052B47">
                    <tspan x="64.431544" y="27.8473916">?</tspan>
                </text>
            </g>
        </g>
    </g>
</svg>