<?xml version="1.0" encoding="UTF-8" standalone="no"?>
<svg
   xmlns:dc="http://purl.org/dc/elements/1.1/"
   xmlns:cc="http://creativecommons.org/ns#"
   xmlns:rdf="http://www.w3.org/1999/02/22-rdf-syntax-ns#"
   xmlns:svg="http://www.w3.org/2000/svg"
   xmlns="http://www.w3.org/2000/svg"
   xmlns:sodipodi="http://sodipodi.sourceforge.net/DTD/sodipodi-0.dtd"
   xmlns:inkscape="http://www.inkscape.org/namespaces/inkscape"
   viewBox="0 0 115.91 104.86"
   version="1.1"
   id="svg63"
   sodipodi:docname="ej-cat.svg"
   inkscape:version="0.92.2 2405546, 2018-03-11">
  <metadata
     id="metadata67">
    <rdf:RDF>
      <cc:Work
         rdf:about="">
        <dc:format>image/svg+xml</dc:format>
        <dc:type
           rdf:resource="http://purl.org/dc/dcmitype/StillImage" />
      </cc:Work>
    </rdf:RDF>
  </metadata>
  <sodipodi:namedview
     pagecolor="#ffffff"
     bordercolor="#666666"
     borderopacity="1"
     objecttolerance="10"
     gridtolerance="10"
     guidetolerance="10"
     inkscape:pageopacity="0"
     inkscape:pageshadow="2"
     inkscape:window-width="1920"
     inkscape:window-height="968"
     id="namedview65"
     showgrid="false"
     inkscape:zoom="7.1905397"
     inkscape:cx="57.955002"
     inkscape:cy="52.43"
     inkscape:window-x="0"
     inkscape:window-y="34"
     inkscape:window-maximized="1"
     inkscape:current-layer="Layer_2" />
  <defs
     id="defs31">
    <style
       id="style29">.cls-1{fill:#30c0d3;}</style>
  </defs>
  <title
     id="title33">Asset 3</title>
  <g
     id="Layer_2"
     data-name="Layer 2"
     style="fill:#73d216">
    <g
       id="Layer_1-2"
       data-name="Layer 1"
       style="fill:#d6f1f3;fill-opacity:1">
      <path
         class="cls-1"
         d="M19.59,68.88l.86,1.62a39.5,39.5,0,1,1,75.07.29l1.91-3.33a22.88,22.88,0,0,1,4.75,5.46,46.56,46.56,0,0,0,1.64-6.48c-.94.33-1.87.62-2.78.86s-2,.46-3,.61l.88-12.33a22.86,22.86,0,0,1,5.62,2.25,46.5,46.5,0,0,0-93,.53c0,.17,0,.34,0,.52.79-.46,1.58-.87,2.37-1.24a28.41,28.41,0,0,1,2.85-1.16l1.41,12.28a22.91,22.91,0,0,1-5.71-1.1,45.41,45.41,0,0,0,2,6.89c.26-.36.52-.72.8-1.08A30.18,30.18,0,0,1,17.36,71,27.72,27.72,0,0,1,19.59,68.88Z"
         id="path35"
         style="fill:#d6f1f3;fill-opacity:1" />
      <path
         class="cls-1"
         d="M97.47,79.42a31.73,31.73,0,0,1-3.21-.48c-.76-.15-1.49-.34-2.21-.54A39.46,39.46,0,0,1,25,79.92a23,23,0,0,1-7.59,1,46.46,46.46,0,0,0,82-1.35C98.76,79.52,98.12,79.48,97.47,79.42Z"
         id="path37"
         style="fill:#d6f1f3;fill-opacity:1" />
      <path
         class="cls-1"
         d="M100.42,83.07c-1.09,0-2.19-.06-3.3-.17s-2.4-.3-3.55-.53-2.27-.52-3.34-.85l2.09-6.68c.84.26,1.73.48,2.63.67s1.9.33,2.87.43c.72.07,1.43.11,2.14.12a19.3,19.3,0,0,0-4.78-5.93l4.51-5.35a26.75,26.75,0,0,1,8.6,13.49l1,3.71-3.79.66c-.66.11-1.34.21-2,.28C102.48,83,101.45,83.07,100.42,83.07Z"
         id="path39"
         style="fill:#d6f1f3;fill-opacity:1" />
      <path
         class="cls-1"
         d="M17.45,36.25c-4.09-9-2.68-25.17-1.37-32.46L16.77,0l3.71,1c1.08.3,2.17.65,3.24,1a53.07,53.07,0,0,1,9.6,4.61,60.32,60.32,0,0,1,5,3.39,57.45,57.45,0,0,1,4.43,3.7l.33.34,1.7,2.08-5.4,4.45-1.56-1.89c-1.16-1.07-2.41-2.11-3.7-3.08s-2.9-2.06-4.45-3a47,47,0,0,0-7.32-3.63c-1.07,8.64-.93,19.05,1.45,24.3Z"
         id="path41"
         style="fill:#d6f1f3;fill-opacity:1" />
      <path
         class="cls-1"
         d="M94.53,33.31l-6-3.56a47.09,47.09,0,0,0,2.33-4.47c.73-1.59,1.4-3.27,2-5a47.3,47.3,0,0,0,2-7.83,36.59,36.59,0,0,0-17.06,7l-.47.29-2.61,1.37L71.41,15l2.38-1.24a44.27,44.27,0,0,1,24.82-8.6L102.46,5l-.23,3.85c-.07,1.12-.18,2.26-.32,3.38a52.75,52.75,0,0,1-2.47,10.37,59.79,59.79,0,0,1-2.24,5.62A53.73,53.73,0,0,1,94.53,33.31Z"
         id="path43"
         style="fill:#d6f1f3;fill-opacity:1" />
      <path
         class="cls-1"
         d="M40.53,42.36a5.5,5.5,0,1,0,5.5,5.5A5.5,5.5,0,0,0,40.53,42.36Zm-2.06,4.81a1.38,1.38,0,0,1,0-2.75,1.38,1.38,0,1,1,0,2.75Z"
         id="path45"
         style="fill:#d6f1f3;fill-opacity:1" />
      <path
         class="cls-1"
         d="M75.1,42.36a5.5,5.5,0,1,0,5.5,5.5A5.5,5.5,0,0,0,75.1,42.36ZM73,47.17a1.38,1.38,0,0,1,0-2.75,1.38,1.38,0,1,1,0,2.75Z"
         id="path47"
         style="fill:#d6f1f3;fill-opacity:1" />
      <path
         class="cls-1"
         d="M44.55,83.52c4,1.81,9.45,1.59,12.25-2.2,1.74-2.35,2.39-5.46,2.76-8.3s-4.13-2.84-4.5,0c.15-1.11-.2,1-.26,1.32a17.38,17.38,0,0,1-.9,3c-1.18,2.75-4.43,3.49-7.08,2.28s-4.91,2.69-2.27,3.89Z"
         id="path49"
         style="fill:#d6f1f3;fill-opacity:1" />
      <path
         class="cls-1"
         d="M68.29,79.63c-2.66,1.21-5.9.47-7.09-2.28a16.52,16.52,0,0,1-.89-3c-.07-.29-.41-2.43-.27-1.32-.37-2.83-4.87-2.87-4.5,0s1,6,2.76,8.3c2.81,3.79,8.29,4,12.26,2.2,2.63-1.2.34-5.08-2.27-3.89Z"
         id="path51"
         style="fill:#d6f1f3;fill-opacity:1" />
      <path
         class="cls-1"
         d="M57.8,73.36a3.73,3.73,0,0,1-2.66-1.11L52.69,69.8a3.77,3.77,0,0,1,2.67-6.44h4.89a3.77,3.77,0,0,1,2.67,6.44l-2.45,2.45A3.74,3.74,0,0,1,57.8,73.36Zm-1.9-6,1.9,1.91,1.91-1.91Z"
         id="path53"
         style="fill:#d6f1f3;fill-opacity:1" />
      <path
         class="cls-1"
         d="M18,72.26A26.83,26.83,0,0,1,3,66.51L0,64.12l2.67-2.78c.46-.49,1-1,1.46-1.42a31.13,31.13,0,0,1,5.13-3.77,33.46,33.46,0,0,1,3.18-1.68,31.88,31.88,0,0,1,3.19-1.3l2.28,6.62a24,24,0,0,0-2.51,1c-.86.4-1.72.86-2.57,1.36q-.93.55-1.8,1.17a19.53,19.53,0,0,0,7.37,1.93Z"
         id="path55"
         style="fill:#d6f1f3;fill-opacity:1" />
      <path
         class="cls-1"
         d="M18.3,84.42a26.9,26.9,0,0,1-7.82-1.17L6.79,82.14l1.46-3.57c.26-.62.54-1.25.84-1.86a31.82,31.82,0,0,1,3.39-5.38c.75-1,1.53-1.88,2.34-2.73a30.81,30.81,0,0,1,2.49-2.37l4.56,5.31a26.62,26.62,0,0,0-2,1.87c-.65.69-1.29,1.43-1.89,2.21-.44.57-.86,1.15-1.24,1.75a19.37,19.37,0,0,0,7.56-.91l2.15,6.66A26.3,26.3,0,0,1,18.3,84.42Z"
         id="path57"
         style="fill:#d6f1f3;fill-opacity:1" />
      <path
         class="cls-1"
         d="M98.54,71.37l-1-6.92a26.7,26.7,0,0,0,2.66-.54c.9-.24,1.84-.53,2.77-.87.68-.25,1.34-.52,2-.82A19.39,19.39,0,0,0,98,59l1.71-6.79a26.73,26.73,0,0,1,13.63,8.4l2.53,2.9-3.13,2.25c-.55.39-1.12.77-1.7,1.13a32,32,0,0,1-5.74,2.76c-1.15.42-2.3.78-3.43,1.07A31.93,31.93,0,0,1,98.54,71.37Z"
         id="path59"
         style="fill:#d6f1f3;fill-opacity:1" />
    </g>
  </g>
</svg>
