<?xml version="1.0" encoding="UTF-8" standalone="no"?>
<svg width="15px" height="15px" viewBox="0 0 15 15" version="1.1" xmlns="http://www.w3.org/2000/svg" xmlns:xlink="http://www.w3.org/1999/xlink">
    <!-- Generator: sketchtool 49.1 (51147) - http://www.bohemiancoding.com/sketch -->
    <title>C17965DB-BCAE-4CFA-8549-B52A37572BDE-color</title>
    <desc>Created with sketchtool.</desc>
    <defs></defs>
    <g id="Page-1" stroke="none" stroke-width="1" fill="none" fill-rule="evenodd">
        <g id="Login" transform="translate(-153.000000, -586.000000)" fill="#FFFFFF">
            <g id="Group-3" transform="translate(141.000000, 574.000000)">
                <path d="M19.9009907,26.8125 L12.930884,26.8125 C12.4871454,26.8125 12.1276596,26.4510162 12.1276596,26.0052618 L12.1276596,12.9946815 C12.1276596,12.5488136 12.4872019,12.1875 12.930884,12.1875 L25.8776831,12.1875 C26.3212523,12.1875 26.6808511,12.5488136 26.6808511,12.9946815 L26.6808511,26.0052618 C26.6808511,26.4510729 26.3211958,26.8125 25.8776831,26.8125 L22.1691511,26.8125 L22.1691511,21.148894 L24.0608282,21.148894 L24.34408,18.9416862 L22.1691511,18.9416862 L22.1691511,17.5325236 C22.1691511,16.893486 22.3457317,16.458003 23.2576038,16.458003 L24.4206529,16.4574922 L24.4206529,14.4833479 C24.219508,14.4564494 23.5291099,14.3963534 22.7258855,14.3963534 C21.0490189,14.3963534 19.9009907,15.424965 19.9009907,17.3139308 L19.9009907,18.9416862 L18.0044571,18.9416862 L18.0044571,21.148894 L19.9009907,21.148894 L19.9009907,26.8125 L19.9009907,26.8125 Z" id="Facebook"></path>
            </g>
        </g>
    </g>
</svg>