<?xml version="1.0" encoding="UTF-8" standalone="no"?>
<svg width="15px" height="15px" viewBox="0 0 15 15" version="1.1" xmlns="http://www.w3.org/2000/svg" xmlns:xlink="http://www.w3.org/1999/xlink">
    <!-- Generator: sketchtool 49.1 (51147) - http://www.bohemiancoding.com/sketch -->
    <title>0DBC7CEA-4683-41E0-A333-F13128868644-color</title>
    <desc>Created with sketchtool.</desc>
    <defs></defs>
    <g id="Page-1" stroke="none" stroke-width="1" fill="none" fill-rule="evenodd">
        <g id="Login" transform="translate(-92.000000, -586.000000)">
            <g id="Group-4" transform="translate(81.000000, 574.000000)">
                <g id="Group" transform="translate(11.375000, 12.187500)">
                    <g id="Google">
                        <path d="M2.99424716,7.3125 C2.99424716,6.848075 3.07138157,6.402825 3.20905185,5.9852 L0.799333807,4.14505 C0.329692649,5.0986 0.0650923295,6.17305 0.0650923295,7.3125 C0.0650923295,8.450975 0.329367188,9.524775 0.798357422,10.477675 L3.20677362,8.63395 C3.07040518,8.218275 2.99424716,7.77465 2.99424716,7.3125" id="Fill-1" fill="#FBBC05"></path>
                        <path d="M7.22524858,3.0875 C8.23417969,3.0875 9.1454723,3.445 9.86148793,4.03 L11.9444425,1.95 C10.675142,0.845 9.04783381,0.1625 7.22524858,0.1625 C4.39568501,0.1625 1.96383558,1.780675 0.799333807,4.14505 L3.20905185,5.9852 C3.76428942,4.29975 5.34700941,3.0875 7.22524858,3.0875" id="Fill-2" fill="#EA4335"></path>
                        <path d="M7.22524858,11.5375 C5.34700941,11.5375 3.76428942,10.32525 3.20905185,8.6398 L0.799333807,10.479625 C1.96383558,12.844325 4.39568501,14.4625 7.22524858,14.4625 C8.97167578,14.4625 10.6390158,13.8424 11.8904158,12.680525 L9.60307138,10.9122 C8.95768093,11.318775 8.1450032,11.5375 7.22524858,11.5375" id="Fill-3" fill="#34A853"></path>
                        <path d="M14.0599432,7.3125 C14.0599432,6.89 13.9948509,6.435 13.8972124,6.0125 L7.22524858,6.0125 L7.22524858,8.775 L11.065696,8.775 C10.8736737,9.71685 10.3509822,10.44095 9.60307138,10.9122 L11.8904158,12.680525 C13.2049554,11.460475 14.0599432,9.643075 14.0599432,7.3125" id="Fill-4" fill="#4285F4"></path>
                    </g>
                </g>
            </g>
        </g>
    </g>
</svg>