<?xml version="1.0" encoding="UTF-8" standalone="no"?>
<svg width="15px" height="13px" viewBox="0 0 15 13" version="1.1" xmlns="http://www.w3.org/2000/svg" xmlns:xlink="http://www.w3.org/1999/xlink">
    <!-- Generator: sketchtool 49.1 (51147) - http://www.bohemiancoding.com/sketch -->
    <title>4B0CA5B3-6AE7-4A8F-A042-AF51C9FA269D-color</title>
    <desc>Created with sketchtool.</desc>
    <defs></defs>
    <g id="Page-1" stroke="none" stroke-width="1" fill="none" fill-rule="evenodd">
        <g id="Login" transform="translate(-214.000000, -587.000000)" fill="#FFFFFF">
            <g id="Group-2" transform="translate(201.000000, 574.000000)">
                <path d="M27.4893617,15.2552817 C26.9546257,15.5 26.3788875,15.665493 25.7749604,15.7394366 C26.3917007,15.3591549 26.8649335,14.756162 27.0878826,14.0378521 C26.510436,14.3899648 25.8723404,14.6461268 25.1906801,14.7834507 C24.647402,14.1857394 23.8709242,13.8125 23.011588,13.8125 C21.3638152,13.8125 20.0269751,15.1901408 20.0269751,16.8890845 C20.0269751,17.1302817 20.0526014,17.3644366 20.1038541,17.5897887 C17.6223713,17.4612676 15.4227782,16.2376761 13.9492644,14.3741197 C13.6921469,14.8301056 13.5452226,15.3591549 13.5452226,15.9225352 C13.5452226,16.9894366 14.0722707,17.931338 14.8735206,18.4832746 C14.3849119,18.4683099 13.923638,18.3283451 13.5204505,18.0994718 L13.5204505,18.1373239 C13.5204505,19.6285211 14.5497746,20.8723592 15.9165121,21.1540493 C15.6662283,21.2262324 15.4022771,21.2623239 15.1297839,21.2623239 C14.9375864,21.2623239 14.74966,21.243838 14.5677131,21.2077465 C14.9478369,22.4295775 16.049769,23.3195423 17.3567117,23.3433099 C16.3350755,24.1690141 15.0469254,24.6610915 13.6485821,24.6610915 C13.4076946,24.6610915 13.1693698,24.647007 12.9361702,24.618838 C14.2576345,25.4903169 15.8276742,26 17.5130323,26 C23.0056086,26 26.00816,21.3125 26.00816,17.2464789 C26.00816,17.1126761 26.0055973,16.9788732 26.0004721,16.8477113 C26.5838981,16.4137324 27.0904452,15.8723592 27.4893617,15.2552817" id="Twitter"></path>
            </g>
        </g>
    </g>
</svg>