<?xml version="1.0" encoding="UTF-8" standalone="no"?>
<!-- Generator: Adobe Illustrator 22.0.1, SVG Export Plug-In . SVG Version: 6.00 Build 0)  -->

<svg
   xmlns:osb="http://www.openswatchbook.org/uri/2009/osb"
   xmlns:dc="http://purl.org/dc/elements/1.1/"
   xmlns:cc="http://creativecommons.org/ns#"
   xmlns:rdf="http://www.w3.org/1999/02/22-rdf-syntax-ns#"
   xmlns:svg="http://www.w3.org/2000/svg"
   xmlns="http://www.w3.org/2000/svg"
   xmlns:xlink="http://www.w3.org/1999/xlink"
   xmlns:sodipodi="http://sodipodi.sourceforge.net/DTD/sodipodi-0.dtd"
   xmlns:inkscape="http://www.inkscape.org/namespaces/inkscape"
   version="1.1"
   id="Layer_1"
   x="0px"
   y="0px"
   viewBox="0 0 115.9 104.9"
   style="enable-background:new 0 0 115.9 104.9;"
   xml:space="preserve"
   sodipodi:docname="profile.svg"
   inkscape:version="0.92.2 2405546, 2018-03-11"><metadata
   id="metadata1070"><rdf:RDF><cc:Work
       rdf:about=""><dc:format>image/svg+xml</dc:format><dc:type
         rdf:resource="http://purl.org/dc/dcmitype/StillImage" /><dc:title>Asset 3</dc:title></cc:Work></rdf:RDF></metadata><defs
   id="defs1068"><linearGradient
     id="linearGradient1074"
     osb:paint="solid"><stop
       style="stop-color:#ffffff;stop-opacity:1;"
       offset="0"
       id="stop1072" /></linearGradient><linearGradient
     inkscape:collect="always"
     xlink:href="#linearGradient1074"
     id="linearGradient1076"
     x1="0"
     y1="52.488988"
     x2="115.8"
     y2="52.488988"
     gradientUnits="userSpaceOnUse" /></defs><sodipodi:namedview
   pagecolor="#ffffff"
   bordercolor="#666666"
   borderopacity="1"
   objecttolerance="10"
   gridtolerance="10"
   guidetolerance="10"
   inkscape:pageopacity="0"
   inkscape:pageshadow="2"
   inkscape:window-width="1920"
   inkscape:window-height="968"
   id="namedview1066"
   showgrid="false"
   inkscape:pagecheckerboard="true"
   inkscape:zoom="4.5093217"
   inkscape:cx="61.784323"
   inkscape:cy="39.337501"
   inkscape:window-x="0"
   inkscape:window-y="34"
   inkscape:window-maximized="1"
   inkscape:current-layer="Layer_1" />
<style
   type="text/css"
   id="style1051">
	.st0{fill:#FFFFFF;}
</style>
<title
   id="title1053">Asset 3</title>
<g
   id="g1063"
   style="stroke:none;stroke-width:3;stroke-miterlimit:4;stroke-dasharray:none">
	
	
	
	<path
   style="fill:#ffffff;stroke:none;stroke-width:3;stroke-miterlimit:4;stroke-dasharray:none"
   d="M 14.835938,-0.37304688 C 12.398305,11.492373 11.765982,24.26727 14.929688,35.894531 11.835258,41.373466 10.563313,47.899759 9.4101562,53.78125 4.6453633,56.455931 0.76151286,60.361901 -2.9941406,64.265625 c 3.81014339,3.06188 7.5401258,6.450076 12.2128906,8.154297 -2.3122638,3.342756 -3.4464037,7.297668 -5.1191406,10.96289 4.7007423,1.495419 9.5984296,3.056698 14.5136716,3.109376 13.207731,19.488482 41.421048,26.369832 62.039063,14.910152 7.418469,-3.683283 13.44219,-9.993423 18.220703,-16.369137 4.334903,0.400764 8.590013,-0.515948 12.822263,-1.361328 -0.78135,-4.255097 -2.79033,-9.207759 -4.09179,-12.769531 4.07861,-1.683278 7.58938,-4.392762 11.14648,-6.94336 -3.31722,-4.755269 -8.18842,-8.729948 -12.63672,-11.865234 -0.6813,-7.714455 -4.36095,-15.130693 -7.781249,-21.574219 C 102.55521,21.911323 104.56669,12.36305 104.51172,2.7871094 93.282304,2.5639798 81.745612,5.3393694 72.671875,11.994141 63.293094,9.0400768 53.026644,8.9092665 43.625,11.841797 35.734079,4.509422 25.745864,-0.29467151 15.238281,-2.4941406 Z M 24.140625,12.013672 c 2.388736,1.422567 7.17235,3.212001 7.867187,5.185547 -2.984488,1.834803 -5.839138,4.254157 -8.261718,6.576172 -0.177613,-3.862255 -0.447079,-8.583738 0.394531,-11.761719 z m 68.144531,2.865234 c -0.678877,2.03695 -1.202042,5.8442 -2.546875,6.611328 -1.077411,-1.785779 -7.362426,-3.721869 -3.380859,-4.748046 1.912415,-0.802338 3.905028,-1.424793 5.927734,-1.863282 z m -34.640625,6.003906 c 20.974406,-0.638539 39.454231,18.436048 37.832031,39.507813 0.631992,3.858547 -2.523662,8.53007 -2.481967,10.795174 -1.57361,1.252893 -3.652657,5.718218 -5.289517,10.20092 C 75.406415,98.166288 48.711979,100.77493 33.472656,86.5625 29.44887,83.34673 26.624494,79.043495 25.710938,73.931641 17.475358,76.781496 24.996991,73.288092 23.423828,70.105469 18.966737,63.03307 20.352681,53.358487 22.822266,45.644531 27.813565,31.264454 42.22914,20.854903 57.644531,20.882812 Z m -17.25,19.519532 c -7.477058,-0.297641 -10.212714,11.017167 -3.376953,14.123047 6.450098,3.919308 14.290569,-4.922172 9.667969,-10.871094 -1.378427,-2.054354 -3.819263,-3.310338 -6.291016,-3.251953 z m 34.59961,0 C 67.517082,40.104703 64.781427,51.419511 71.617188,54.525391 78.069823,58.454967 85.942954,49.569478 81.25,43.640625 79.859847,41.622306 77.452987,40.347325 74.994141,40.402344 Z M 55.197266,61.501953 c -6.246045,-0.105479 -7.660134,8.873992 -2.253907,11.501953 0.292866,4.403413 -3.568959,6.151333 -7.072265,4.375 -4.904076,-0.479701 -6.371899,7.484032 -1.234375,8.333985 4.332222,1.968834 9.879228,0.530085 13.089843,-2.03711 4.052593,3.833801 12.20929,4.263562 15.707032,-0.341797 1.723362,-4.303129 -3.876608,-7.572528 -7.386719,-5.1875 C 62.162527,78.450181 60.704,72.136109 64.765625,70.900391 68.431213,66.529511 63.491809,59.987448 58.199219,61.5 c -1.000606,0.0025 -2.001416,-0.004 -3.001953,0.002 z"
   id="path1061"
   inkscape:connector-curvature="0"
   sodipodi:nodetypes="ccccccccccccccccccccccccccccccccccccccccccccccccccccccc" />
</g>
</svg>