<?xml version="1.0" encoding="UTF-8" standalone="no"?>
<svg width="101px" height="132px" viewBox="0 0 101 132" version="1.1" xmlns="http://www.w3.org/2000/svg" xmlns:xlink="http://www.w3.org/1999/xlink">
    <!-- Generator: sketchtool 49.1 (51147) - http://www.bohemiancoding.com/sketch -->
    <title>4FE50358-09DF-4C53-9648-012748FC678D</title>
    <desc>Created with sketchtool.</desc>
    <defs>
        <polygon id="path-1" points="0.374 0.859 100.747 0.859 100.747 131.94 0.374 131.94"></polygon>
    </defs>
    <g id="Page-1" stroke="none" stroke-width="1" fill="none" fill-rule="evenodd">
        <g id="Perfil-USER-PADRAO---contribuicoes" transform="translate(-110.000000, -156.000000)">
            <g id="ej-cat-11" transform="translate(110.000000, 156.000000)">
                <polyline id="Fill-1" fill="#3CB6B1" points="0 56.588 0.374 56.884 0.374 56.199 0 56.588"></polyline>
                <polyline id="Fill-2" fill="#2F1B3D" points="50.242 61.064 51.9 59.406 48.585 59.406 50.242 61.064"></polyline>
                <path d="M63.478,39.469 C62.819,39.469 62.283,40.004 62.283,40.664 C62.283,41.324 62.819,41.859 63.478,41.859 C64.138,41.859 64.674,41.324 64.674,40.664 C64.674,40.004 64.138,39.469 63.478,39.469" id="Fill-3" fill="#2F1B3D"></path>
                <g id="Group-8">
                    <mask id="mask-2" fill="white">
                        <use xlink:href="#path-1"></use>
                    </mask>
                    <g id="Clip-5"></g>
                    <path d="M33.438,39.469 C32.777,39.469 32.242,40.004 32.242,40.664 C32.242,41.324 32.777,41.859 33.438,41.859 C34.097,41.859 34.632,41.324 34.632,40.664 C34.632,40.004 34.097,39.469 33.438,39.469" id="Fill-4" fill="#2F1B3D" mask="url(#mask-2)"></path>
                    <path d="M81.025,25.428 C80.306,24.593 79.558,23.784 78.776,23.007 C78.672,22.904 78.567,22.801 78.462,22.699 C75.672,19.987 72.518,17.696 69.119,15.886 C69.762,15.33 70.363,14.829 70.818,14.486 C72.032,13.576 73.332,12.697 74.682,11.877 C76.758,10.616 78.895,9.557 81.047,8.721 C81.731,14.264 81.843,20.632 81.025,25.428 Z M65.271,47.237 C62.631,47.237 60.49,45.097 60.49,42.457 C60.49,39.816 62.631,37.676 65.271,37.676 C67.911,37.676 70.051,39.816 70.051,42.457 C70.051,45.097 67.911,47.237 65.271,47.237 Z M61.327,73.452 C57.877,75.023 53.113,74.834 50.672,71.538 C50.429,71.21 50.218,70.86 50.022,70.502 C49.825,70.86 49.615,71.21 49.372,71.538 C46.932,74.835 42.167,75.023 38.717,73.452 C36.427,72.409 38.418,69.039 40.691,70.074 C42.999,71.125 45.821,70.482 46.85,68.09 C47.19,67.301 47.407,66.451 47.594,65.611 C47.605,65.565 47.616,65.518 47.627,65.472 C47.754,64.895 47.884,64.319 48.019,63.744 C47.275,63.007 46.533,62.27 45.793,61.53 C44.851,60.589 44.571,59.185 45.082,57.955 C45.59,56.724 46.781,55.929 48.113,55.929 L52.372,55.929 C53.704,55.929 54.894,56.724 55.403,57.954 C55.913,59.185 55.633,60.589 54.691,61.53 C53.844,62.378 52.998,63.216 52.122,64.036 C52.229,64.556 52.334,65.08 52.447,65.602 C52.633,66.451 52.85,67.293 53.194,68.09 C54.224,70.483 57.043,71.127 59.353,70.074 C61.628,69.038 63.614,72.41 61.327,73.452 Z M30.45,42.457 C30.45,39.816 32.59,37.676 35.23,37.676 C37.87,37.676 40.011,39.816 40.011,42.457 C40.011,45.097 37.87,47.237 35.23,47.237 C32.59,47.237 30.45,45.097 30.45,42.457 Z M19.495,25.624 C18.64,20.807 18.749,14.338 19.442,8.721 C21.592,9.557 23.73,10.616 25.806,11.877 C27.154,12.695 28.453,13.574 29.67,14.487 C30.283,14.948 30.879,15.426 31.462,15.913 C26.875,18.364 22.815,21.672 19.495,25.624 Z M50.441,17.251 C51.823,17.251 53.183,17.342 54.523,17.502 C55.387,22.576 53.913,27.456 50.302,31.28 C50.182,31.138 50.062,31 49.944,30.862 C49.342,30.166 48.774,29.508 48.293,28.673 C45.936,24.592 45.267,20.679 45.22,17.669 C46.946,17.402 48.69,17.251 50.441,17.251 Z M98.544,53.512 C96.328,50.973 93.638,48.986 90.644,47.618 C90.294,47.458 89.667,41.95 89.448,41.15 C88.807,38.813 87.948,36.536 86.892,34.355 C86.475,33.49 86.018,32.646 85.541,31.814 C88.809,23.897 87.627,10.346 86.507,4.151 L85.913,0.859 L82.692,1.763 C81.75,2.028 80.8,2.332 79.872,2.665 C77.041,3.682 74.232,5.032 71.525,6.676 C70.003,7.6 68.536,8.591 67.164,9.623 C65.873,10.592 64.037,12.242 62.95,13.239 C58.944,11.893 54.725,11.167 50.441,11.167 C45.943,11.167 41.62,11.916 37.575,13.278 L37.458,13.135 L37.177,12.838 C35.971,11.719 34.675,10.637 33.324,9.623 C31.95,8.59 30.482,7.598 28.963,6.676 C26.256,5.032 23.447,3.682 20.617,2.665 C19.688,2.332 18.739,2.028 17.796,1.763 L14.576,0.859 L13.981,4.151 C12.85,10.415 11.648,24.206 15.054,32.082 C12.319,37.025 10.597,42.6 10.152,48.526 C9.444,48.878 8.739,49.251 8.049,49.66 C6.423,50.624 4.922,51.726 3.586,52.937 C3.147,53.337 2.719,53.752 2.317,54.172 L0.374,56.199 L0.374,56.884 L2.627,58.664 C5.1,60.617 7.89,62.021 10.848,62.855 C9.688,64.348 8.696,65.924 7.9,67.536 C7.638,68.065 7.393,68.609 7.17,69.153 L5.899,72.253 L9.106,73.22 C11.341,73.894 13.628,74.231 15.906,74.231 C16.265,74.231 16.623,74.206 16.981,74.189 C24.253,84.921 36.528,92 50.441,92 C64.889,92 77.575,84.372 84.718,72.937 C85.578,73.015 86.433,73.06 87.278,73.06 C88.18,73.06 89.071,73.015 89.945,72.927 C90.541,72.868 91.133,72.786 91.71,72.686 L95.003,72.112 L94.122,68.887 C93.404,66.261 92.247,63.828 90.728,61.649 C91.006,61.557 91.282,61.469 91.56,61.368 C93.338,60.718 95.014,59.911 96.546,58.968 C97.049,58.659 97.546,58.329 98.023,57.986 L100.748,56.036 L98.544,53.512 Z" id="Fill-6" fill="#2F1B3D" mask="url(#mask-2)"></path>
                    <path d="M70.582,93 L67.941,93 C62.645,95.56 56.71,97 50.441,97 C44.179,97 38.255,95.555 32.964,93 L30.492,93 C20.422,93 12.261,110.276 12.261,120.347 C12.261,120.347 12.107,121.365 12.233,122.895 C23.694,128.705 36.645,132 50.374,132 C64.239,132 77.312,128.639 88.857,122.72 C88.958,121.286 88.813,120.347 88.813,120.347 C88.813,110.276 80.651,93 70.582,93" id="Fill-7" fill="#2F1B3D" mask="url(#mask-2)"></path>
                </g>
            </g>
        </g>
    </g>
</svg>