<?xml version="1.0" encoding="utf-8"?>
<!-- Generator: Adobe Illustrator 22.1.0, SVG Export Plug-In . SVG Version: 6.00 Build 0)  -->
<svg version="1.1" id="Layer_1" xmlns="http://www.w3.org/2000/svg" xmlns:xlink="http://www.w3.org/1999/xlink" x="0px" y="0px"
	 viewBox="0 0 299 299" style="enable-background:new 0 0 299 299;" xml:space="preserve">
<style type="text/css">
	.st0{clip-path:url(#SVGID_2_);}
	.st1{fill:#D4F7F5;}
</style>
<g>
	<defs>
		<path id="SVGID_1_" d="M287,0H12C5.4,0,0,5.4,0,12v279c0,4.4,3.6,8,8,8h279c6.6,0,12-5.4,12-12V12C299,5.4,293.6,0,287,0z"/>
	</defs>
	<clipPath id="SVGID_2_">
		<use xlink:href="#SVGID_1_"  style="overflow:visible;"/>
	</clipPath>
	<g class="st0">
		<path class="st1" d="M-5.4,324.5c-2.4,0.1-4.2,2.2-4,4.5c0.2,2.3,2.1,4,4.4,3.9c2.3-0.1,4-2,4-4.3C-1.1,326.1-3,324.3-5.4,324.5z"
			/>
		<path class="st1" d="M-18.9,318.8c-2.2,0.1-4,2.2-3.9,4.4c0.2,2.2,2.1,3.9,4.3,3.8c2.3-0.1,4-2.1,3.9-4.4
			C-14.7,320.4-16.6,318.6-18.9,318.8z"/>
		<path class="st1" d="M3.9,320.7c-2.2,0.1-3.9,2.1-3.8,4.3c0.1,2.3,2.1,4.1,4.3,3.9c2.2-0.1,3.9-2.1,3.8-4.3
			C8.2,322.4,6.2,320.6,3.9,320.7z"/>
		<path class="st1" d="M49.8,324.9c-2.2,0.1-4.1,2.1-3.9,4.4c0.1,2.2,2.1,3.9,4.3,3.8c2.2-0.1,3.9-2,3.8-4.3
			C53.9,326.6,52,324.8,49.8,324.9z"/>
		<path class="st1" d="M26.8,322.9c-2.3,0.1-3.9,2-3.8,4.2c0.1,2.3,2,3.9,4.2,3.8c2.3-0.1,4.1-2,3.9-4.3
			C31,324.4,29.1,322.7,26.8,322.9z"/>
		<path class="st1" d="M13.5,317.2c-2.1,0.2-3.8,2.1-3.7,4.2c0.1,2.2,2.2,3.9,4.3,3.7c2.1-0.2,3.7-2.1,3.5-4.3
			C17.5,318.7,15.7,317,13.5,317.2z"/>
		<path class="st1" d="M-5.1,318.7c-0.2-2.1-2.1-3.7-4.2-3.6c-2.3,0.1-3.9,2-3.7,4.3c0.2,2.2,2,3.7,4.2,3.6
			C-6.6,322.9-4.9,320.9-5.1,318.7z"/>
		<path class="st1" d="M36.3,319.3c-2.2,0.2-3.7,2-3.6,4.2c0.2,2.2,2,3.7,4.2,3.6c2.2-0.1,3.8-2,3.7-4.1
			C40.5,320.8,38.6,319.1,36.3,319.3z"/>
		<path class="st1" d="M59.3,321.2c-2.2,0.1-3.8,1.9-3.7,4.1c0.1,2.2,2,3.8,4.1,3.6c2.2-0.1,3.8-1.9,3.7-4.1
			C63.3,322.7,61.5,321.1,59.3,321.2z"/>
		<path class="st1" d="M82.2,323.3c-2.1,0.1-3.8,2-3.7,4.1c0.1,2.1,2,3.8,4.2,3.7c2.1-0.1,3.8-2.1,3.6-4.2
			C86.1,324.8,84.3,323.2,82.2,323.3z"/>
		<path class="st1" d="M105.1,325.4c-2.2,0.1-3.8,1.9-3.7,4.1c0.1,2.1,1.9,3.7,4,3.6c2.2-0.1,3.9-1.9,3.8-4
			C109.1,327,107.2,325.3,105.1,325.4z"/>
		<path class="st1" d="M-29.3,322.5c-0.5,0.2-1,0.4-1.5,0.7c0.1,2.1,0.3,4.2,0.4,6.2c0,0.7,0.4,1.1,1.1,1.2c1.7,0.5,3.6-0.2,4.6-1.6
			c1-1.4,1-3.4,0.1-4.8C-25.7,322.8-27.6,322-29.3,322.5z"/>
		<path class="st1" d="M-22.1,317.1c2.1-0.1,3.7-1.9,3.6-4c-0.1-2.1-2-3.8-4.1-3.7c-2.1,0.1-3.7,1.9-3.6,4
			C-26,315.7-24.3,317.3-22.1,317.1z"/>
		<path class="st1" d="M0.9,319.2c2.1-0.2,3.6-2,3.4-4.2c-0.2-2.1-2-3.7-4.1-3.5c-2.1,0.2-3.7,2-3.5,4.1
			C-3.2,317.8-1.2,319.4,0.9,319.2z"/>
		<path class="st1" d="M50,319.1c-0.1-2.1-2-3.7-4-3.5c-2.1,0.2-3.7,2-3.5,4.1c0.2,2.1,2,3.7,4.1,3.5C48.6,323,50.2,321.2,50,319.1z
			"/>
		<path class="st1" d="M27.2,317.1c-0.1-2.1-2-3.7-4-3.6c-2.1,0.1-3.7,1.9-3.6,4c0.1,2.1,1.9,3.7,4,3.6
			C25.7,321,27.3,319.1,27.2,317.1z"/>
		<path class="st1" d="M69,317.7c-2.1,0.1-3.7,1.8-3.6,3.9c0.1,2.1,1.8,3.7,4,3.5c2.1-0.1,3.7-2,3.6-4C72.8,319.2,71,317.6,69,317.7
			z"/>
		<path class="st1" d="M91.7,319.7c-2,0.2-3.7,2.1-3.5,4.1c0.2,2.1,2.1,3.6,4.1,3.4c2-0.2,3.5-2,3.4-4
			C95.6,321.2,93.8,319.6,91.7,319.7z"/>
		<path class="st1" d="M114.7,321.9c-2.1,0.1-3.7,1.9-3.5,4c0.2,2,1.9,3.5,3.9,3.4c2.1-0.1,3.7-1.9,3.5-4
			C118.4,323.3,116.7,321.8,114.7,321.9z"/>
		<path class="st1" d="M137.4,323.8c-2,0.2-3.6,1.9-3.4,3.9c0.1,2,1.9,3.5,3.9,3.4c2.1-0.1,3.6-1.8,3.5-3.9
			C141.3,325.2,139.6,323.6,137.4,323.8z"/>
		<path class="st1" d="M-12.9,305.8c-2,0.1-3.6,1.9-3.5,3.9c0.1,2,1.8,3.6,3.9,3.5c2-0.1,3.6-1.8,3.5-3.9
			C-9.2,307.3-10.9,305.7-12.9,305.8z"/>
		<path class="st1" d="M9.9,307.9c-2.1,0.1-3.5,1.8-3.4,3.9c0.1,2.1,1.8,3.6,3.8,3.4c2-0.1,3.6-1.8,3.5-3.9
			C13.7,309.3,12,307.8,9.9,307.9z"/>
		<path class="st1" d="M33.2,317.3c2-0.1,3.6-1.8,3.4-3.9c-0.1-2-1.9-3.6-3.9-3.4c-1.9,0.2-3.5,1.9-3.4,3.8
			C29.4,315.8,31.2,317.4,33.2,317.3z"/>
		<path class="st1" d="M56,319.3c2-0.1,3.6-1.9,3.5-3.9c-0.1-1.9-1.9-3.5-3.8-3.4c-2.1,0.1-3.6,1.8-3.4,3.9
			C52.4,317.9,54.1,319.4,56,319.3z"/>
		<path class="st1" d="M82.3,317.5c0-2.1-1.7-3.7-3.7-3.6c-2,0.1-3.6,1.9-3.5,3.9c0.1,1.9,1.9,3.5,3.8,3.4
			C80.8,321.1,82.4,319.5,82.3,317.5z"/>
		<path class="st1" d="M124.3,318.1c-2,0.1-3.6,1.9-3.5,3.9c0.1,1.9,1.9,3.4,3.8,3.3c1.9-0.1,3.4-1.8,3.3-3.8
			C127.9,319.6,126.3,318.1,124.3,318.1z"/>
		<path class="st1" d="M105.2,319.4c-0.1-1.9-1.8-3.4-3.8-3.3c-2.1,0.1-3.6,1.8-3.4,3.9c0.2,2,1.8,3.4,3.8,3.2
			C103.8,323.1,105.3,321.4,105.2,319.4z"/>
		<path class="st1" d="M147.2,320.3c-2,0.1-3.5,1.7-3.4,3.7c0.1,2,1.7,3.5,3.7,3.4c2-0.1,3.5-1.7,3.4-3.7
			C150.8,321.7,149.1,320.2,147.2,320.3z"/>
		<path class="st1" d="M0.2,305.6c-0.1-1.9-1.9-3.5-3.8-3.3c-1.9,0.2-3.4,1.9-3.2,3.9c0.2,1.9,2,3.4,3.9,3.2
			C-1.1,309.1,0.4,307.4,0.2,305.6z"/>
		<path class="st1" d="M170,322.3c-1.9,0.1-3.5,1.9-3.3,3.8c0.1,1.9,1.8,3.4,3.6,3.3c1.9,0,3.5-1.8,3.4-3.7
			C173.6,323.8,171.9,322.2,170,322.3z"/>
		<path class="st1" d="M-22.6,303.5c-0.1-2-1.7-3.5-3.7-3.3c-2,0.1-3.5,1.7-3.4,3.7c0.1,2,1.8,3.4,3.7,3.3
			C-24,307.1-22.5,305.5-22.6,303.5z"/>
		<path class="st1" d="M19.4,304.4c-2,0.1-3.5,1.7-3.4,3.7c0.1,1.9,1.7,3.3,3.7,3.2c2-0.1,3.5-1.8,3.4-3.7
			C22.9,305.7,21.3,304.3,19.4,304.4z"/>
		<path class="st1" d="M193,324.2c-1.9,0-3.5,1.8-3.4,3.7c0.1,1.9,1.8,3.5,3.7,3.4c1.9-0.1,3.4-1.8,3.3-3.8
			C196.4,325.7,194.8,324.2,193,324.2z"/>
		<path class="st1" d="M65.2,308.4c-1.9,0.1-3.4,1.8-3.3,3.7c0.1,1.9,1.8,3.4,3.7,3.2c1.9-0.1,3.3-1.8,3.2-3.7
			C68.8,309.7,67.1,308.2,65.2,308.4z"/>
		<path class="st1" d="M42.1,306.3c-1.9,0.2-3.3,1.9-3.2,3.7c0.2,1.9,1.8,3.3,3.7,3.2c2-0.1,3.4-1.8,3.2-3.8
			C45.7,307.5,44,306.1,42.1,306.3z"/>
		<path class="st1" d="M88.2,310.5c-1.9,0.1-3.4,1.7-3.3,3.6c0.1,1.9,1.7,3.4,3.6,3.3c1.9-0.1,3.4-1.7,3.3-3.6
			C91.7,311.9,90.1,310.4,88.2,310.5z"/>
		<path class="st1" d="M137.5,318c-0.1-1.8-1.7-3.4-3.6-3.3c-1.9,0.1-3.3,1.7-3.2,3.6c0.1,1.8,1.6,3.3,3.5,3.2
			C136,321.5,137.5,319.8,137.5,318z"/>
		<path class="st1" d="M111.1,312.6c-1.9,0.1-3.4,1.7-3.3,3.6c0.1,1.9,1.8,3.3,3.7,3.2c1.9-0.1,3.2-1.6,3.2-3.5
			C114.5,314,113,312.5,111.1,312.6z"/>
		<path class="st1" d="M156.5,316.6c-1.8,0.2-3.2,1.9-3,3.7c0.2,1.9,1.9,3.3,3.8,3.1c1.8-0.2,3.1-1.8,3-3.7
			C160.1,317.8,158.4,316.4,156.5,316.6z"/>
		<path class="st1" d="M-19.9,300.1c0.1,1.8,1.7,3.3,3.5,3.2c1.8-0.1,3.3-1.7,3.2-3.5c-0.1-1.8-1.7-3.3-3.5-3.2
			C-18.6,296.5-20.1,298.2-19.9,300.1z"/>
		<path class="st1" d="M202.4,320.7c-1.8,0.1-3.2,1.8-3.1,3.6c0.1,1.8,1.7,3.3,3.5,3.2c1.9-0.1,3.3-1.8,3.2-3.7
			C205.8,322,204.2,320.6,202.4,320.7z"/>
		<path class="st1" d="M179.7,318.7c-2,0-3.4,1.6-3.3,3.5c0.1,1.9,1.6,3.2,3.5,3.1c1.9-0.1,3.3-1.6,3.2-3.4
			C183.1,320.1,181.6,318.7,179.7,318.7z"/>
		<path class="st1" d="M3,302.2c0.1,1.9,1.7,3.2,3.6,3.1c1.9-0.1,3.2-1.7,3.1-3.5c-0.1-1.9-1.7-3.2-3.6-3.1
			C4.2,298.8,2.8,300.3,3,302.2z"/>
		<path class="st1" d="M32.5,303.8c-0.1-1.8-1.7-3.3-3.5-3.1c-1.8,0.1-3.2,1.7-3.1,3.6c0.1,1.8,1.7,3.3,3.5,3.1
			C31.2,307.3,32.6,305.7,32.5,303.8z"/>
		<path class="st1" d="M225.2,322.9c-1.8,0.1-3.2,1.8-3,3.6c0.2,1.8,1.8,3.2,3.6,3c1.9-0.1,3.2-1.7,3-3.6
			C228.7,324.1,227.1,322.8,225.2,322.9z"/>
		<path class="st1" d="M55.3,305.8c-0.1-1.8-1.8-3.2-3.6-3c-1.8,0.2-3.1,1.6-3,3.5c0.1,1.9,1.6,3.2,3.5,3.1
			C54.1,309.3,55.5,307.7,55.3,305.8z"/>
		<path class="st1" d="M248.2,325c-1.8,0.1-3.2,1.7-3.1,3.5c0.1,1.8,1.6,3.1,3.4,3.1c1.8-0.1,3.3-1.8,3.1-3.6
			C251.6,326.3,250,324.9,248.2,325z"/>
		<path class="st1" d="M71.6,308.3c0.1,1.8,1.7,3.3,3.5,3.1c1.8-0.1,3.1-1.6,3-3.4c-0.1-1.8-1.5-3.2-3.3-3.2
			C73,304.9,71.5,306.5,71.6,308.3z"/>
		<path class="st1" d="M124.1,312c-0.1-1.8-1.8-3.2-3.6-3.1c-1.8,0.2-3,1.7-2.9,3.5c0.1,1.8,1.7,3.1,3.4,3
			C122.8,315.3,124.2,313.7,124.1,312z"/>
		<path class="st1" d="M101,309.9c-0.1-1.7-1.7-3.1-3.4-3c-1.8,0.1-3.2,1.5-3.1,3.3c0,1.9,1.5,3.3,3.4,3.2
			C99.7,313.3,101.2,311.6,101,309.9z"/>
		<path class="st1" d="M146.8,313.9c-0.2-1.7-1.6-3-3.4-2.8c-1.8,0.1-3.2,1.6-3,3.4c0.1,1.8,1.7,3.1,3.5,2.9
			C145.7,317.2,147,315.7,146.8,313.9z"/>
		<path class="st1" d="M-10.2,296.4c0.1,1.7,1.7,3.1,3.5,3c1.7-0.2,3.1-1.8,2.9-3.5c-0.2-1.7-1.7-3-3.3-2.9
			C-8.9,293.1-10.3,294.7-10.2,296.4z"/>
		<path class="st1" d="M169.7,316.1c-0.1-1.7-1.6-3-3.3-3c-1.7,0-3.2,1.6-3.1,3.4c0.1,1.8,1.6,3.2,3.4,3.1
			C168.4,319.4,169.8,317.8,169.7,316.1z"/>
		<path class="st1" d="M35.6,300.5c0.1,1.7,1.6,3.1,3.3,3c1.7-0.1,3.1-1.6,3-3.3c-0.1-1.8-1.6-3.2-3.4-3.1
			C36.8,297.3,35.5,298.8,35.6,300.5z"/>
		<path class="st1" d="M212.1,317.3c-1.7,0-3.2,1.7-3,3.4c0.1,1.7,1.7,3,3.3,2.9c1.7-0.1,3-1.6,2.9-3.3
			C215.3,318.6,213.9,317.2,212.1,317.3z"/>
		<path class="st1" d="M-26.6,294c-0.1-1.8-1.6-3.1-3.4-3c-1.9,0.1-2.7,1.2-2.6,3.3c0.1,2.2,1,3.1,2.9,3
			C-27.9,297.2-26.5,295.7-26.6,294z"/>
		<path class="st1" d="M192.6,318.2c-0.1-1.8-1.6-3.1-3.5-2.9c-1.7,0.1-3,1.6-2.9,3.3c0.1,1.7,1.5,3,3.3,2.9
			C191.3,321.4,192.7,320,192.6,318.2z"/>
		<path class="st1" d="M12.7,298.5c0.1,1.7,1.6,3,3.3,2.9c1.8-0.1,3.1-1.6,3-3.4c-0.1-1.7-1.6-3-3.3-2.9
			C13.9,295.2,12.6,296.7,12.7,298.5z"/>
		<path class="st1" d="M234.9,319.2c-1.7,0.1-3,1.6-2.8,3.4c0.1,1.7,1.6,3,3.3,2.9c1.7-0.1,3-1.6,3-3.3
			C238.2,320.5,236.6,319.1,234.9,319.2z"/>
		<path class="st1" d="M58.5,302.4c0.1,1.7,1.6,3.1,3.2,3c1.7-0.1,3-1.5,2.9-3.2c-0.1-1.7-1.5-3.1-3.2-3
			C59.8,299.2,58.4,300.7,58.5,302.4z"/>
		<path class="st1" d="M81.4,304.5c0.1,1.7,1.4,2.9,3.1,2.9c1.7,0,3.1-1.5,3.1-3.2c0-1.7-1.5-3.1-3.2-3
			C82.6,301.3,81.3,302.7,81.4,304.5z"/>
		<path class="st1" d="M257.8,321.3c-1.7,0.1-3,1.6-2.9,3.3c0.1,1.7,1.6,3,3.3,2.9c1.7-0.1,3-1.5,2.9-3.3
			C260.9,322.5,259.5,321.2,257.8,321.3z"/>
		<path class="st1" d="M280.6,323.4c-1.7,0.1-3,1.6-2.8,3.3c0.1,1.7,1.6,3,3.3,2.8c1.6-0.2,2.9-1.6,2.8-3.2
			C283.9,324.7,282.3,323.3,280.6,323.4z"/>
		<path class="st1" d="M303.7,325.5c-1.7,0-3.1,1.5-3,3.2c0.1,1.6,1.5,2.9,3.1,2.9c1.7,0,3.1-1.5,3-3.2
			C306.7,326.8,305.3,325.5,303.7,325.5z"/>
		<path class="st1" d="M133.3,308.3c-0.1-1.7-1.6-3-3.3-2.9c-1.6,0.1-2.9,1.5-2.8,3.2c0.1,1.7,1.6,3,3.3,2.9
			C132,311.4,133.3,309.9,133.3,308.3z"/>
		<path class="st1" d="M104.3,306.6c0.1,1.7,1.6,3,3.3,2.9c1.7-0.1,2.9-1.5,2.8-3.2c-0.1-1.7-1.4-2.9-3.1-2.9
			C105.5,303.4,104.2,304.9,104.3,306.6z"/>
		<path class="st1" d="M156.1,310.4c-0.1-1.7-1.6-3-3.3-2.8c-1.6,0.2-2.9,1.6-2.7,3.2c0.2,1.6,1.6,2.8,3.3,2.7
			C155,313.4,156.2,312,156.1,310.4z"/>
		<path class="st1" d="M-23.2,290.7c0.1,1.7,1.6,2.8,3.2,2.7c1.7-0.1,2.9-1.5,2.7-3.2c-0.1-1.7-1.5-2.8-3.2-2.7
			C-22.1,287.6-23.4,289-23.2,290.7z"/>
		<path class="st1" d="M-0.4,292.5c0.1,1.7,1.5,2.9,3.2,2.8c1.6-0.1,2.8-1.4,2.7-3c-0.1-1.7-1.4-2.9-3.1-2.9
			C0.8,289.5-0.5,290.9-0.4,292.5z"/>
		<path class="st1" d="M179.1,312.3c-0.1-1.7-1.5-2.9-3.2-2.8c-1.6,0.1-2.8,1.4-2.8,3c0,1.7,1.4,2.9,3.1,2.9
			C177.9,315.3,179.2,313.9,179.1,312.3z"/>
		<path class="st1" d="M224.8,316.4c-0.1-1.6-1.5-2.8-3.1-2.7c-1.6,0.1-2.8,1.3-2.8,2.9c0,1.7,1.4,3,3,2.9
			C223.6,319.4,224.9,318,224.8,316.4z"/>
		<path class="st1" d="M201.9,314.2c-0.1-1.6-1.5-2.8-3.1-2.7c-1.6,0.1-2.9,1.6-2.8,3.2c0.1,1.6,1.6,2.9,3.2,2.8
			C200.9,317.3,202.1,315.9,201.9,314.2z"/>
		<path class="st1" d="M45.4,296.7c0.1,1.6,1.5,2.8,3,2.7c1.6-0.1,2.8-1.3,2.8-2.9c0-1.7-1.4-3-3-2.9
			C46.6,293.7,45.3,295.1,45.4,296.7z"/>
		<path class="st1" d="M22.6,294.6c0.1,1.7,1.5,2.9,3.1,2.8c1.6-0.1,2.9-1.6,2.7-3.2c-0.1-1.5-1.5-2.8-3.1-2.7
			C23.7,291.5,22.5,292.9,22.6,294.6z"/>
		<path class="st1" d="M247.6,318.6c-0.1-1.7-1.4-3-3.1-2.8c-1.6,0.1-2.8,1.5-2.7,3.1c0.1,1.5,1.5,2.8,3,2.7
			C246.4,321.5,247.6,320.2,247.6,318.6z"/>
		<path class="st1" d="M68.3,298.6c0,1.6,1.3,2.9,2.9,2.8c1.6,0,3-1.4,2.9-3.1c-0.1-1.5-1.5-2.8-3-2.8
			C69.5,295.7,68.3,297,68.3,298.6z"/>
		<path class="st1" d="M267.3,317.9c-1.6,0.2-2.7,1.6-2.6,3.1c0.1,1.6,1.5,2.7,3.1,2.6c1.5-0.1,2.8-1.5,2.7-3.1
			C270.4,319,268.9,317.7,267.3,317.9z"/>
		<path class="st1" d="M91.2,300.8c0.1,1.5,1.5,2.8,3,2.7c1.6-0.1,2.8-1.4,2.7-3c-0.1-1.6-1.4-2.8-3-2.7
			C92.4,297.9,91.1,299.3,91.2,300.8z"/>
		<path class="st1" d="M290.2,319.8c-1.5,0.1-2.8,1.6-2.6,3.1c0.1,1.5,1.6,2.8,3.1,2.6c1.6-0.2,2.7-1.6,2.5-3.2
			C293.1,320.8,291.7,319.7,290.2,319.8z"/>
		<path class="st1" d="M114.1,302.9c0.1,1.6,1.5,2.7,3.1,2.6c1.5-0.1,2.7-1.4,2.6-2.9c-0.1-1.6-1.4-2.8-3-2.7
			C115.2,300,114,301.3,114.1,302.9z"/>
		<path class="st1" d="M165.4,306.7c0-1.6-1.3-2.9-2.9-2.8c-1.5,0.1-2.7,1.4-2.7,2.9c0,1.5,1.3,2.7,2.8,2.7
			C164.2,309.5,165.4,308.2,165.4,306.7z"/>
		<path class="st1" d="M335.9,324c-1.5,0.1-2.6,1.5-2.5,3c0.1,1.5,1.4,2.7,2.9,2.6c1.5-0.1,2.8-1.5,2.6-3.1
			C338.8,325,337.4,323.9,335.9,324z"/>
		<path class="st1" d="M137,304.9c0.1,1.5,1.4,2.6,3,2.5c1.6-0.1,2.8-1.4,2.7-3c-0.1-1.5-1.4-2.6-3-2.5
			C138,301.9,136.9,303.3,137,304.9z"/>
		<path class="st1" d="M313,321.9c-1.5,0.2-2.6,1.5-2.5,3c0.1,1.6,1.5,2.7,3.1,2.6c1.5-0.2,2.6-1.5,2.5-3
			C316,322.9,314.6,321.8,313,321.9z"/>
		<path class="st1" d="M-13.6,286.8c0.1,1.5,1.4,2.7,2.9,2.6c1.5-0.1,2.7-1.5,2.6-2.9c-0.1-1.5-1.4-2.7-2.9-2.6
			C-12.5,283.9-13.7,285.2-13.6,286.8z"/>
		<path class="st1" d="M9.3,288.8c0.1,1.5,1.4,2.7,2.9,2.6c1.5-0.1,2.7-1.3,2.6-2.8c-0.1-1.6-1.3-2.7-2.8-2.6
			C10.4,286,9.2,287.3,9.3,288.8z"/>
		<path class="st1" d="M188.3,308.6c-0.1-1.5-1.4-2.7-2.9-2.6c-1.5,0.1-2.7,1.3-2.6,2.9c0.1,1.5,1.3,2.7,2.9,2.6
			C187.2,311.4,188.4,310.1,188.3,308.6z"/>
		<path class="st1" d="M32.3,290.9c0.1,1.5,1.5,2.7,2.9,2.5c1.5-0.1,2.6-1.4,2.5-3c-0.1-1.5-1.3-2.5-2.8-2.5
			C33.5,288.1,32.3,289.4,32.3,290.9z"/>
		<path class="st1" d="M211.1,310.6c-0.1-1.5-1.4-2.5-2.8-2.4c-1.5,0.1-2.7,1.4-2.6,2.9c0.1,1.5,1.5,2.6,3,2.5
			C210.2,313.4,211.2,312.1,211.1,310.6z"/>
		<path class="st1" d="M58.1,295.5c1.5-0.1,2.7-1.4,2.6-2.9c-0.1-1.5-1.5-2.6-3-2.5c-1.4,0.2-2.5,1.4-2.4,2.9
			C55.4,294.5,56.6,295.6,58.1,295.5z"/>
		<path class="st1" d="M234,312.7c-0.1-1.4-1.4-2.5-2.9-2.5c-1.5,0.1-2.7,1.4-2.5,2.9c0.1,1.5,1.4,2.6,2.8,2.5
			C232.9,315.6,234.1,314.2,234,312.7z"/>
		<path class="st1" d="M257,314.6c-0.1-1.4-1.4-2.6-2.8-2.5c-1.4,0.1-2.6,1.4-2.5,2.8c0.1,1.4,1.4,2.6,2.8,2.5
			C255.9,317.4,257.1,316.1,257,314.6z"/>
		<path class="st1" d="M78.1,294.9c0.1,1.4,1.4,2.6,2.8,2.5c1.4-0.1,2.6-1.4,2.5-2.8c-0.1-1.4-1.4-2.6-2.8-2.5
			C79.2,292.1,78.1,293.5,78.1,294.9z"/>
		<path class="st1" d="M279.8,316.6c-0.2-1.4-1.3-2.4-2.8-2.3c-1.5,0.1-2.6,1.3-2.5,2.8c0.1,1.5,1.3,2.5,2.9,2.4
			C278.9,319.3,279.9,318.1,279.8,316.6z"/>
		<path class="st1" d="M101.1,297c0.1,1.4,1.3,2.4,2.7,2.4c1.5-0.1,2.6-1.2,2.5-2.7c-0.1-1.5-1.3-2.6-2.8-2.5
			C102,294.3,100.9,295.5,101.1,297z"/>
		<path class="st1" d="M124,299c0.1,1.4,1.3,2.5,2.7,2.5c1.4,0,2.6-1.4,2.5-2.8c-0.1-1.4-1.4-2.6-2.9-2.4
			C124.9,296.4,123.9,297.7,124,299z"/>
		<path class="st1" d="M302.6,318.6c-0.2-1.4-1.4-2.4-2.8-2.3c-1.4,0.1-2.5,1.5-2.3,2.9c0.2,1.4,1.5,2.4,2.8,2.3
			C301.7,321.5,302.8,320.1,302.6,318.6z"/>
		<path class="st1" d="M146.8,301.1c0.1,1.4,1.3,2.4,2.7,2.4c1.5-0.1,2.5-1.3,2.4-2.8c-0.1-1.4-1.3-2.4-2.7-2.3
			C147.8,298.5,146.8,299.8,146.8,301.1z"/>
		<path class="st1" d="M-23.9,283.4c1.4-0.1,2.4-1.3,2.4-2.7c-0.1-1.4-1.4-2.5-2.8-2.4c-1.4,0.2-2.4,1.3-2.2,2.8
			C-26.5,282.5-25.3,283.5-23.9,283.4z"/>
		<path class="st1" d="M322.8,318.5c-1.4,0.1-2.4,1.2-2.4,2.6c0,1.5,1.2,2.6,2.7,2.5c1.4-0.1,2.6-1.4,2.4-2.8
			C325.4,319.5,324.1,318.4,322.8,318.5z"/>
		<path class="st1" d="M21.7,287.5c1.4,0,2.5-1.3,2.4-2.6c-0.1-1.4-1.3-2.5-2.7-2.4c-1.3,0.1-2.3,1.2-2.3,2.5
			C19.2,286.4,20.3,287.6,21.7,287.5z"/>
		<path class="st1" d="M-3.8,283.1c0.1,1.3,1.3,2.4,2.7,2.3c1.4-0.1,2.4-1.2,2.3-2.6c-0.1-1.4-1.2-2.4-2.6-2.3
			C-2.8,280.5-3.9,281.7-3.8,283.1z"/>
		<path class="st1" d="M-28,317.1c0-2.1-1.1-3.5-3.4-3.9l0.4,7.3C-29.2,320.3-28,319-28,317.1z"/>
		<path class="st1" d="M169.8,303.3c0.1,1.4,1.3,2.4,2.7,2.2c1.4-0.1,2.4-1.4,2.3-2.7c-0.1-1.4-1.4-2.4-2.8-2.3
			C170.6,300.7,169.7,301.8,169.8,303.3z"/>
		<path class="st1" d="M44.6,289.4c1.3-0.1,2.4-1.2,2.3-2.5c0-1.4-1.3-2.5-2.6-2.4c-1.3,0.1-2.3,1.3-2.2,2.6
			C42.2,288.4,43.3,289.4,44.6,289.4z"/>
		<path class="st1" d="M194.9,302.5c-1.4,0.1-2.5,1.3-2.3,2.7c0.1,1.4,1.4,2.4,2.8,2.2c1.3-0.1,2.3-1.2,2.2-2.6
			C197.5,303.4,196.4,302.4,194.9,302.5z"/>
		<path class="st1" d="M220.4,306.9c-0.1-1.3-1.2-2.4-2.5-2.3c-1.3,0-2.4,1.2-2.3,2.5c0,1.4,1.3,2.5,2.6,2.4
			C219.5,309.4,220.5,308.2,220.4,306.9z"/>
		<path class="st1" d="M67.5,291.4c1.4-0.1,2.3-1.2,2.3-2.5c-0.1-1.4-1.2-2.3-2.5-2.3c-1.3,0.1-2.4,1.2-2.3,2.5
			C65,290.4,66.2,291.4,67.5,291.4z"/>
		<path class="st1" d="M243.3,308.9c-0.1-1.3-1.3-2.3-2.6-2.2c-1.4,0.1-2.3,1.2-2.2,2.6c0.1,1.4,1.2,2.3,2.6,2.2
			C242.4,311.3,243.4,310.2,243.3,308.9z"/>
		<path class="st1" d="M90.4,293.5c1.3-0.1,2.3-1.4,2.2-2.6c-0.1-1.3-1.4-2.3-2.7-2.1c-1.3,0.2-2.1,1.3-2.1,2.5
			C88,292.6,89.1,293.6,90.4,293.5z"/>
		<path class="st1" d="M266.1,310.9c-0.1-1.3-1.2-2.2-2.5-2.1c-1.3,0.1-2.4,1.3-2.3,2.6c0.1,1.3,1.3,2.3,2.6,2.2
			C265.3,313.4,266.2,312.3,266.1,310.9z"/>
		<path class="st1" d="M289,313c-0.1-1.2-1.2-2.2-2.5-2.2c-1.3,0.1-2.2,1.1-2.2,2.4c0,1.4,1.1,2.4,2.5,2.3
			C288,315.5,289.1,314.3,289,313z"/>
		<path class="st1" d="M111,293.4c0.1,1.3,1.2,2.2,2.5,2.1c1.2-0.1,2.2-1.3,2.2-2.5c-0.1-1.3-1.4-2.3-2.6-2.2
			C111.7,291,110.8,292.1,111,293.4z"/>
		<path class="st1" d="M312,315c-0.1-1.2-1.3-2.2-2.5-2.2c-1.3,0.1-2.2,1.2-2.1,2.5c0.1,1.3,1.2,2.2,2.5,2.2
			C311,317.3,312,316.2,312,315z"/>
		<path class="st1" d="M136.3,297.5c1.3-0.1,2.2-1.2,2.1-2.5c-0.1-1.3-1.2-2.2-2.5-2.1c-1.3,0.1-2.2,1.2-2.1,2.5
			C133.9,296.7,135,297.6,136.3,297.5z"/>
		<path class="st1" d="M334.7,317c-0.1-1.3-1.2-2.2-2.5-2c-1.2,0.1-2.1,1.1-2,2.4c0.1,1.2,1.1,2.1,2.3,2.1
			C333.9,319.4,334.8,318.3,334.7,317z"/>
		<path class="st1" d="M159.2,299.3c1.2-0.1,2.1-1.1,2-2.3c-0.1-1.3-1.1-2.2-2.4-2.1c-1.2,0.1-2.1,1.1-2,2.3
			C156.8,298.5,157.9,299.4,159.2,299.3z"/>
		<path class="st1" d="M346.6,320.9c-1.5-0.4-2.3-0.1-3,0.9c-0.6,1-0.6,2.1,0.2,3c0.7,0.9,1.6,1.1,3.1,0.5L346.6,320.9z"/>
		<path class="st1" d="M204.9,303.4c1.2-0.1,2.1-1.1,2-2.3c-0.1-1.2-1.2-2.1-2.4-2c-1.1,0.1-2,1.2-1.9,2.2
			C202.6,302.5,203.7,303.5,204.9,303.4z"/>
		<path class="st1" d="M8.5,281.3c1.2-0.1,2.1-1.1,2-2.3c-0.1-1.2-1.1-2.1-2.3-2.1c-1.2,0.1-2.1,1.1-2.1,2.3
			C6.2,280.4,7.3,281.3,8.5,281.3z"/>
		<path class="st1" d="M181.9,301.4c1.2,0,2.2-1.1,2.1-2.3c0-1.2-1.1-2.1-2.3-2.1c-1.2,0-2.1,1-2.1,2.2
			C179.7,300.5,180.7,301.4,181.9,301.4z"/>
		<path class="st1" d="M31.4,283.3c1.1-0.1,2-1.1,2-2.2c0-1.2-1.1-2.2-2.3-2.1c-1.2,0-2.1,1.1-2,2.3
			C29.2,282.5,30.2,283.4,31.4,283.3z"/>
		<path class="st1" d="M-14.4,279.2c1.2-0.1,2.1-1.1,2.1-2.3c0-1.3-1.1-2.2-2.4-2.1c-1.2,0.1-2.1,1.1-2,2.3
			C-16.6,278.4-15.6,279.3-14.4,279.2z"/>
		<path class="st1" d="M227.8,305.4c1.1-0.1,2-1.1,1.9-2.2c-0.1-1.2-1.2-2.1-2.4-1.9c-1.1,0.1-2,1.1-1.9,2.2
			C225.6,304.7,226.6,305.5,227.8,305.4z"/>
		<path class="st1" d="M54.2,285.3c1.2-0.1,2-1,1.9-2.2c-0.1-1.2-1.1-2.1-2.3-1.9c-1.1,0.1-2,1.1-1.8,2.2
			C52.1,284.6,53.1,285.4,54.2,285.3z"/>
		<path class="st1" d="M250.7,307.5c1.1-0.2,1.9-1.2,1.8-2.3c-0.1-1.1-1.2-1.9-2.3-1.8c-1.1,0.2-1.9,1.2-1.8,2.3
			C248.6,306.8,249.7,307.6,250.7,307.5z"/>
		<path class="st1" d="M77,287.4c1.1,0,2-1,2-2.1c0-1.1-1-2.1-2.1-2c-1.1,0-2,1-2,2.1C74.9,286.5,75.9,287.4,77,287.4z"/>
		<path class="st1" d="M275.3,307.4c0-1.2-0.9-2.1-2-2c-1.1,0-2,1-2,2.1c0.1,1,1,1.9,2,1.9C274.4,309.3,275.3,308.4,275.3,307.4z"/>
		<path class="st1" d="M100,289.2c1-0.1,1.9-1,1.8-2.1c0-1.1-1.1-2-2.2-1.9c-1.1,0.1-1.9,1-1.8,2.1C97.9,288.4,98.8,289.3,100,289.2
			z"/>
		<path class="st1" d="M298.2,309.3c0-1.1-1.1-2-2.2-1.9c-1,0.1-1.8,1-1.8,2.1c0.1,1.1,1,1.9,2.1,1.8
			C297.3,311.3,298.2,310.3,298.2,309.3z"/>
		<path class="st1" d="M122.8,291.3c1-0.1,1.9-1,1.8-2.1c0-1.1-0.9-1.9-2-1.9c-1.1,0-2,1.1-1.9,2.1
			C120.8,290.5,121.8,291.3,122.8,291.3z"/>
		<path class="st1" d="M321,311.3c-0.1-1-0.9-1.8-1.9-1.7c-1.1,0-2,0.9-1.9,2c0,1.1,1,1.9,2.1,1.8
			C320.3,313.3,321.1,312.4,321,311.3z"/>
		<path class="st1" d="M145.6,293.3c1.1,0,1.9-0.9,1.9-2c-0.1-1.1-1-1.9-2.1-1.8c-1,0.1-1.8,0.9-1.8,1.9
			C143.6,292.5,144.5,293.3,145.6,293.3z"/>
		<path class="st1" d="M343.8,313.5c0-1.1-1-1.9-2-1.9c-1,0.1-1.8,1-1.8,2c0,1.1,1,1.9,2,1.9C343,315.4,343.8,314.5,343.8,313.5z"/>
		<path class="st1" d="M-27.6,273.1c1-0.1,1.7-1,1.7-2c-0.1-1.1-1-1.9-2.1-1.7c-1,0.1-1.7,1-1.7,2
			C-29.6,272.5-28.7,273.2-27.6,273.1z"/>
		<path class="st1" d="M168.7,295.3c1-0.1,1.8-1,1.7-2c-0.1-1-0.9-1.8-1.9-1.8c-1,0-1.8,0.9-1.8,1.9
			C166.7,294.5,167.7,295.4,168.7,295.3z"/>
		<path class="st1" d="M-4.8,275.2c1-0.1,1.8-1,1.7-2c0-1-1.1-1.9-2.1-1.8c-1,0.1-1.7,1-1.6,2C-6.6,274.5-5.8,275.3-4.8,275.2z"/>
		<path class="st1" d="M18,277.2c1,0,1.8-0.8,1.8-1.9c0-1-0.8-1.8-1.8-1.8c-1,0-1.8,0.9-1.8,1.9C16.1,276.4,17,277.2,18,277.2z"/>
		<path class="st1" d="M191.6,297.3c1-0.1,1.8-1,1.7-2c-0.1-1-1-1.7-2-1.7c-1,0.1-1.7,0.9-1.6,2
			C189.8,296.7,190.6,297.4,191.6,297.3z"/>
		<path class="st1" d="M214.3,299.2c1,0,1.8-0.8,1.8-1.9c0-1-0.8-1.7-1.7-1.7c-1,0-1.9,0.9-1.8,1.9
			C212.5,298.4,213.4,299.2,214.3,299.2z"/>
		<path class="st1" d="M63.9,281.1c1-0.1,1.6-0.9,1.5-1.9c-0.1-1-0.9-1.6-1.9-1.5c-1,0.1-1.7,0.9-1.6,1.8
			C62,280.5,62.9,281.2,63.9,281.1z"/>
		<path class="st1" d="M41,279.2c1-0.1,1.8-1,1.7-2c-0.1-0.9-1-1.6-1.9-1.5c-1,0.1-1.8,0.9-1.6,2C39.2,278.7,40,279.3,41,279.2z"/>
		<path class="st1" d="M237.3,301.2c1-0.1,1.7-0.8,1.7-1.8c0-1-0.9-1.8-2-1.6c-1,0.1-1.6,0.9-1.5,1.9
			C235.5,300.6,236.3,301.3,237.3,301.2z"/>
		<path class="st1" d="M86.6,283.2c0.9,0,1.7-0.9,1.6-1.8c0-0.9-0.8-1.7-1.8-1.7c-0.9,0-1.7,0.9-1.6,1.8
			C84.9,282.4,85.7,283.2,86.6,283.2z"/>
		<path class="st1" d="M259.9,299.8c-0.9,0.1-1.7,0.9-1.6,1.8c0.1,0.9,0.9,1.7,1.8,1.6c0.9-0.1,1.7-0.9,1.6-1.8
			C261.7,300.5,260.9,299.8,259.9,299.8z"/>
		<path class="st1" d="M-30.9,284.6c0-1.4-0.5-2.1-2.3-2.8l0.3,5.2C-31.5,286.5-31,285.9-30.9,284.6z"/>
		<path class="st1" d="M305.6,304.1c-0.9,0.1-1.5,0.8-1.4,1.8c0.1,0.9,0.8,1.5,1.7,1.5c0.9-0.1,1.6-0.8,1.5-1.7
			C307.4,304.7,306.5,304,305.6,304.1z"/>
		<path class="st1" d="M132.3,287.2c0.9,0,1.6-0.7,1.6-1.6c0-1-0.8-1.7-1.7-1.7c-0.9,0.1-1.6,0.9-1.5,1.7
			C130.7,286.5,131.4,287.2,132.3,287.2z"/>
		<path class="st1" d="M109.5,285.2c1-0.1,1.7-0.9,1.6-1.9c-0.1-0.9-0.9-1.5-1.8-1.4c-1,0.1-1.6,0.9-1.5,1.8
			C107.9,284.6,108.6,285.3,109.5,285.2z"/>
		<path class="st1" d="M282.9,302c-1,0-1.7,0.8-1.7,1.7c0,0.9,0.9,1.7,1.8,1.6c0.9-0.1,1.5-0.8,1.5-1.7
			C284.5,302.6,283.8,302,282.9,302z"/>
		<path class="st1" d="M155.2,289.3c0.8,0,1.6-0.8,1.6-1.6c0-0.8-0.8-1.6-1.7-1.6c-0.9,0-1.6,0.8-1.5,1.6
			C153.6,288.6,154.3,289.3,155.2,289.3z"/>
		<path class="st1" d="M-18.3,269.2c0.9,0,1.6-0.7,1.6-1.6c0-0.9-0.7-1.6-1.6-1.6c-0.8,0-1.6,0.8-1.6,1.6
			C-20,268.4-19.2,269.2-18.3,269.2z"/>
		<path class="st1" d="M328.6,306c-0.9,0-1.6,0.8-1.6,1.6c0,0.9,0.8,1.5,1.7,1.5c0.9-0.1,1.5-0.8,1.4-1.7
			C330.1,306.6,329.5,306,328.6,306z"/>
		<path class="st1" d="M178.2,291.1c0.9-0.1,1.5-1,1.4-1.8c-0.1-0.8-0.9-1.4-1.7-1.3c-0.8,0.1-1.5,1-1.4,1.8
			C176.6,290.6,177.4,291.2,178.2,291.1z"/>
		<path class="st1" d="M4.6,271.1c0.8,0,1.6-0.9,1.5-1.7c-0.1-0.8-0.9-1.4-1.6-1.4c-0.9,0-1.5,0.9-1.4,1.7
			C3.1,270.5,3.8,271.1,4.6,271.1z"/>
		<path class="st1" d="M201.1,293.2c0.8-0.1,1.4-0.8,1.3-1.6c-0.1-0.9-0.9-1.5-1.8-1.4c-0.8,0.1-1.4,0.8-1.3,1.6
			C199.4,292.7,200.2,293.3,201.1,293.2z"/>
		<path class="st1" d="M50.5,275.2c0.9-0.1,1.5-0.9,1.4-1.8c-0.1-0.8-0.9-1.4-1.7-1.3c-0.8,0.1-1.4,0.9-1.3,1.7
			C49,274.6,49.8,275.2,50.5,275.2z"/>
		<path class="st1" d="M27.6,273c0.9,0,1.5-0.7,1.4-1.5c0-0.9-0.7-1.5-1.5-1.4c-0.8,0-1.5,0.7-1.5,1.5
			C26.1,272.4,26.8,273.1,27.6,273z"/>
		<path class="st1" d="M223.9,295.3c0.8-0.1,1.4-0.8,1.4-1.6c0-0.8-0.9-1.6-1.7-1.5c-0.8,0.1-1.4,0.9-1.3,1.7
			C222.3,294.7,223.1,295.3,223.9,295.3z"/>
		<path class="st1" d="M246.9,297.3c0.8-0.1,1.4-0.8,1.3-1.6c-0.1-0.8-0.9-1.4-1.7-1.3c-0.8,0.1-1.3,0.7-1.2,1.5
			C245.4,296.7,246.1,297.3,246.9,297.3z"/>
		<path class="st1" d="M269.6,296.4c-0.8,0-1.5,0.8-1.5,1.5c0,0.8,0.8,1.5,1.6,1.4c0.8,0,1.4-0.8,1.3-1.6
			C271,297,270.4,296.4,269.6,296.4z"/>
		<path class="st1" d="M96.3,279.2c0.8-0.1,1.4-0.9,1.4-1.6c-0.1-0.7-0.8-1.3-1.5-1.3c-0.8,0-1.5,0.7-1.4,1.5
			C94.8,278.7,95.5,279.3,96.3,279.2z"/>
		<path class="st1" d="M73.3,277.2c0.8,0,1.4-0.7,1.4-1.6c-0.1-0.8-0.6-1.3-1.4-1.4c-0.8,0-1.5,0.7-1.5,1.5
			C71.8,276.5,72.5,277.2,73.3,277.2z"/>
		<path class="st1" d="M141.9,283.2c0.8,0,1.5-0.8,1.4-1.6c-0.1-0.8-0.9-1.4-1.6-1.3c-0.7,0.1-1.3,0.8-1.2,1.5
			C140.6,282.6,141.2,283.2,141.9,283.2z"/>
		<path class="st1" d="M187.7,287.3c0.8,0,1.5-0.8,1.4-1.6c-0.1-0.8-0.9-1.4-1.7-1.3c-0.7,0.1-1.2,0.8-1.2,1.6
			C186.3,286.8,186.9,287.4,187.7,287.3z"/>
		<path class="st1" d="M315.4,300.4c-0.8,0-1.5,0.7-1.5,1.5c0,0.8,0.8,1.5,1.6,1.4c0.7-0.1,1.3-0.7,1.3-1.5
			C316.8,301.1,316.2,300.5,315.4,300.4z"/>
		<path class="st1" d="M164.9,285.2c0.8-0.1,1.3-0.7,1.2-1.5c-0.1-0.8-0.7-1.3-1.5-1.2c-0.7,0.1-1.4,0.7-1.3,1.4
			C163.3,284.7,164.1,285.3,164.9,285.2z"/>
		<path class="st1" d="M302.2,297.5c0.7-0.1,1.3-0.8,1.3-1.5c0-0.7-0.8-1.3-1.5-1.3c-0.7,0.1-1.3,0.7-1.3,1.5
			C300.8,296.9,301.5,297.5,302.2,297.5z"/>
		<path class="st1" d="M292.4,298.4c-0.8,0.1-1.3,0.7-1.3,1.5c0,0.8,0.7,1.3,1.4,1.3c0.7,0,1.4-0.7,1.4-1.4
			C294,299,293.2,298.3,292.4,298.4z"/>
		<path class="st1" d="M338.2,302.5c-0.8,0-1.4,0.6-1.4,1.4c0,0.8,0.6,1.4,1.3,1.4c0.8,0,1.5-0.7,1.5-1.5
			C339.6,303.1,339,302.5,338.2,302.5z"/>
		<path class="st1" d="M256.2,293.4c0.7,0,1.4-0.7,1.4-1.4c0-0.7-0.6-1.4-1.4-1.4c-0.7,0-1.4,0.7-1.4,1.4
			C254.8,292.7,255.5,293.4,256.2,293.4z"/>
		<path class="st1" d="M119,281.1c0.8,0,1.4-0.5,1.4-1.3c0.1-0.9-0.6-1.5-1.4-1.5c-0.7,0-1.4,0.7-1.4,1.4
			C117.6,280.4,118.2,281,119,281.1z"/>
		<path class="st1" d="M210.6,289.3c0.8-0.1,1.3-0.7,1.2-1.5c-0.1-0.8-0.7-1.3-1.5-1.2c-0.8,0.1-1.3,0.7-1.2,1.5
			C209.2,288.9,209.9,289.4,210.6,289.3z"/>
		<path class="st1" d="M324.9,296.8c-0.8,0-1.4,0.7-1.3,1.4c0,0.7,0.7,1.3,1.4,1.3c0.8,0,1.3-0.6,1.3-1.4
			C326.3,297.4,325.7,296.8,324.9,296.8z"/>
		<path class="st1" d="M233.4,291.2c0.8,0,1.4-0.6,1.3-1.4c0-0.7-0.7-1.3-1.4-1.3c-0.8,0-1.4,0.6-1.3,1.4
			C232,290.7,232.6,291.2,233.4,291.2z"/>
		<path class="st1" d="M279.1,295.4c0.8,0,1.4-0.6,1.4-1.3c0-0.7-0.6-1.3-1.4-1.3c-0.8,0-1.4,0.6-1.4,1.3
			C277.7,294.8,278.3,295.4,279.1,295.4z"/>
		<path class="st1" d="M311.3,293.6c0.9,0.2,1.3-0.4,1.5-1.9c-0.9-0.1-1.6-0.2-2.4-0.2C310.1,292.8,310.4,293.5,311.3,293.6z"/>
		<path class="st1" d="M334,295.6c0.5,0.1,1.2-0.2,1.5-0.5c0.6-0.6,0.3-1.3-0.6-1.5c-0.5-0.1-1-0.1-1.6-0.1
			C332.9,294.6,333.1,295.4,334,295.6z"/>
		<path class="st1" d="M-9.1,265.1c0.8,0.1,1.4-0.1,1.7-1.3c-1-0.1-1.8-0.2-2.7-0.2C-10.2,264.5-9.8,265-9.1,265.1z"/>
		<path class="st1" d="M-30.2,261.8c-1-0.1-1.9-0.2-3.1-0.3C-32,263.5-31.4,263.5-30.2,261.8z"/>
		<path class="st1" d="M35.7,267.8c0,0.9,0.4,1.3,1.1,1.4c1,0.1,1.4-0.4,1.5-1.5c0-0.7-0.6-1.3-1.3-1.3c-0.7,0-1.2,0.5-1.3,1.2
			c0,0,0,0,0,0c0,0,0,0,0,0.1c0,0,0,0.1,0,0.1C35.7,267.8,35.7,267.8,35.7,267.8z"/>
		<circle class="st1" cx="59.5" cy="270.1" r="1.2"/>
		<circle class="st1" cx="82.5" cy="272.1" r="1.2"/>
		<circle class="st1" cx="105.5" cy="274.1" r="1.2"/>
		<circle class="st1" cx="128.5" cy="276.1" r="1.2"/>
		<path class="st1" d="M151.5,279.5c0.7,0,1.2-0.6,1.2-1.2c0-0.7-0.6-1.2-1.2-1.2c-0.7,0-1.2,0.6-1.2,1.2
			C150.2,279,150.8,279.5,151.5,279.5z"/>
		<circle class="st1" cx="172.3" cy="279.7" r="1.2"/>
		<circle class="st1" cx="196" cy="282.4" r="1.2"/>
		<path class="st1" d="M220.1,285.5c0.7,0,1.2-0.6,1.2-1.2c0-0.7-0.6-1.2-1.2-1.2s-1.2,0.6-1.2,1.2
			C218.9,285,219.4,285.5,220.1,285.5z"/>
		<circle class="st1" cx="243" cy="286.6" r="1.2"/>
		<circle class="st1" cx="265.8" cy="288.5" r="1.2"/>
		<circle class="st1" cx="288.8" cy="290.5" r="1.2"/>
		<circle class="st1" cx="14.2" cy="266" r="1.2"/>
	</g>
</g>
</svg>
