<svg xmlns="http://www.w3.org/2000/svg" viewBox="0 0 240 240"><defs><style>.cls-1{fill:#8ec73f;}.cls-2{fill:#3e1b53;}</style></defs><title>Asset 1</title><g id="Layer_2" data-name="Layer 2"><g id="Layer_1-2" data-name="Layer 1"><path class="cls-1" d="M158.83,135.38h-14a41.39,41.39,0,1,0-50.49,0H81.11c-19.55,0-35.4,11.13-35.4,53.12v12.61a110,110,0,0,0,148.57,0c-.05-5.09-.08-9.67,0-12.63C194.76,149.4,178.39,135.38,158.83,135.38Z"/><path class="cls-2" d="M120,10a110,110,0,0,1,77.78,187.78A110,110,0,1,1,42.22,42.22,109.25,109.25,0,0,1,120,10m0-10A120,120,0,1,0,240,120,120,120,0,0,0,120,0Z"/></g></g></svg>