<svg xmlns="http://www.w3.org/2000/svg" viewBox="0 0 118.98 111.21"><defs><style>.cls-1{fill:#c6027b;}</style></defs><title>Asset 2</title><g id="Layer_2" data-name="Layer 2"><g id="Layer_1-2" data-name="Layer 1"><path class="cls-1" d="M1.67,46.15l0-.07A1.31,1.31,0,0,0,0,45.73v2.64a1.5,1.5,0,0,0,.45.07A19.76,19.76,0,0,1,1.67,46.15Z"/><path class="cls-1" d="M.3,48.88c-.07,0-.14-.1-.22-.14a5.75,5.75,0,0,0-.06.89C.11,49.38.2,49.13.3,48.88Z"/><path class="cls-1" d="M51.61,42.56v3.53h.45c.11-.28.24-.56.37-.83l.07-.14a10.13,10.13,0,0,1,1.59-2.27,1.49,1.49,0,0,0-1.28-.8A1.56,1.56,0,0,0,51.61,42.56Z"/><path class="cls-1" d="M96.29,52.2c-.4,0-.79.09-1.15.16a6.5,6.5,0,0,0-3.21,1.56,4.94,4.94,0,0,0-.67.78,5.67,5.67,0,0,0-.93,2.64c0,.13,0,.25,0,.38s0,.3,0,.46v1.19c0,3.34,2.2,4.85,5.34,4.85a8.61,8.61,0,0,0,3.05-.47l.53-.23c1.62-.83,2.55-2.44,2.55-5.18v-6.2H97.51A11.87,11.87,0,0,0,96.29,52.2Z"/><path class="cls-1" d="M101.76,45V42.84a16.13,16.13,0,0,0-.68-5.06,7.58,7.58,0,0,0-.61-1.35,5.77,5.77,0,0,0-2-2.14l-.2-.12a7.93,7.93,0,0,0-2.82-.91l-.32,0a12.18,12.18,0,0,0-1.52-.09c-.52,0-1,0-1.44,0s-.56.05-.82.09a10,10,0,0,0-1.08.19l-.56.15c-.32.09-.61.2-.9.31v.48a3.9,3.9,0,0,1,1.78,1.85A4.77,4.77,0,0,1,91,37.74a6.73,6.73,0,0,1,0,.8,6.61,6.61,0,0,1-.29,2,.76.76,0,0,0,0,.11A5.21,5.21,0,0,1,89.19,43,5.65,5.65,0,0,1,88,43.7a7.33,7.33,0,0,1-3.15.65h-.09a5.81,5.81,0,0,1-3-.84l-.14-.09a5.58,5.58,0,0,1-2-2.43,2,2,0,0,0-.72.57,3.39,3.39,0,0,0-.08-.43,1.57,1.57,0,0,0-1.24-1.31,1.59,1.59,0,0,0-1.69.79l-.21.3a4.91,4.91,0,0,0,0-.53,1.5,1.5,0,0,0-1.12-1.48,1.57,1.57,0,0,0-1.74.67,1.52,1.52,0,0,0,.15,1.85,2.3,2.3,0,0,0,.38.32,2.14,2.14,0,0,0-1.59.79A15.45,15.45,0,0,1,74,44.77c.29.38.57.78.84,1.19a20.43,20.43,0,0,1,1.53,2.86q.24.57.45,1.17a23.36,23.36,0,0,1,1,3.32c0,.21.1.41.14.63.13.71.25,1.44.34,2.19,1.3-4.54,5.34-7.37,11.84-8.4.43-.07.87-.13,1.33-.18a41.18,41.18,0,0,1,4.74-.26h5.58Z"/><path class="cls-1" d="M69.6,41a12.84,12.84,0,0,1,2.14,1.46c-.17-.92-.59-1.42-1.32-1.55A1.54,1.54,0,0,0,69.6,41Z"/><path class="cls-1" d="M54.78,73.08a5.89,5.89,0,0,0,.58.24,7.56,7.56,0,0,0,2.56.44,7,7,0,0,0,4.15-1.29l.39-.29a8.45,8.45,0,0,0,2.68-6.7V54.68a10.47,10.47,0,0,0-.08-1.28,8.34,8.34,0,0,0-.21-1.28,7.82,7.82,0,0,0-1.32-3,6,6,0,0,0-1-1.08,6.56,6.56,0,0,0-2.19-1.26l-.29-.1a7.6,7.6,0,0,0-2.15-.3h-.41a7.88,7.88,0,0,0-1.48.22,6.49,6.49,0,0,0-2.76,1.45,6.31,6.31,0,0,0-1.91,3.16,6.09,6.09,0,0,0-.18.87,7.88,7.88,0,0,0-.09,1.2V66.84A6.63,6.63,0,0,0,54.78,73.08Z"/><path class="cls-1" d="M57.35,40.1a1.53,1.53,0,0,0-1.87.69,1.47,1.47,0,0,0-.16.91,11.14,11.14,0,0,1,2.34-1.42A1.2,1.2,0,0,0,57.35,40.1Z"/><path class="cls-1" d="M118.62,34.63c.15.28-.05.61.36.87-.11-.75-.15-1.4-.3-2a1.56,1.56,0,0,0-2.53-.75,4.64,4.64,0,0,0-.39.38,6.72,6.72,0,0,0-.16-.76,1.54,1.54,0,0,0-2-.93,1.46,1.46,0,0,0-1,1.2,1.54,1.54,0,0,0,.6,1.52c.13.1.39.1.35.37a1.32,1.32,0,0,0-1,0,12.23,12.23,0,0,1,1.28,2.9q.2.68.33,1.38a17.79,17.79,0,0,1,.34,3.51v23h4.41c0-4.92-.06-8.49-.1-8.62l-.6.23-.31-.61.66-.34.26.39a29.09,29.09,0,0,0,0-3.23c0-1.08,0-2.17,0-3.25s0-2.16,0-3.35l-.84.43-.49-1,1-.5.24.47a13.16,13.16,0,0,0,.11-1.75,1.47,1.47,0,0,0-.43-1.25s0-.07,0-.12l.41-.17V36.47c-.48,0-.69.38-1,.65a2,2,0,0,0-.85-1.61A1.76,1.76,0,0,0,118.62,34.63Z"/><path class="cls-1" d="M110.87,71.61c-3.3,0-5.42-1-6.66-2.51a4.06,4.06,0,0,1-.26-.36,7.44,7.44,0,0,1-1.17-4.28v-.08h-.32a2.56,2.56,0,0,1-.11.24l-.15.32c-1.61,3.26-4.38,6.67-11.36,6.67-4.77,0-8.09-1.2-10.19-3.41-.13-.14-.26-.27-.38-.42a9.82,9.82,0,0,1-1.83-3.48c0-.15-.1-.3-.14-.45,0,.11,0,.22,0,.33q-.17,1.38-.45,2.67l-.06.3A22.81,22.81,0,0,1,75.64,73l-.22.4A14.27,14.27,0,0,1,62.58,81c-5.71,0-9.16-3.19-10.52-6.69h-.45v21.3h66.61l.65,0c.08-.95.09-14.61,0-25.49A19.81,19.81,0,0,1,110.87,71.61Z"/><path class="cls-1" d="M37,47.93a7.54,7.54,0,0,1-.48,2.19.65.65,0,0,1,0,.13,6,6,0,0,1-1.56,2.29,5.63,5.63,0,0,1-1.13.77,7.11,7.11,0,0,1-3.15.77l-.2,0h0a8.47,8.47,0,0,1-2.57-.38,5.93,5.93,0,0,1-.89-.37,5.12,5.12,0,0,1-2.24-2.07h0a5.93,5.93,0,0,1-.59-1.52c0-.11,0-.21-.07-.31a7.11,7.11,0,0,1-.1-1.14,6.13,6.13,0,0,1,.3-1.92c0-.11.08-.21.12-.32A6.13,6.13,0,0,1,26,43.64a7.26,7.26,0,0,1,1.44-1v-.49h0a13.09,13.09,0,0,0-2.8-.57l-.54,0c-.41,0-.85,0-1.35,0-.32,0-.62,0-.93,0a12.17,12.17,0,0,0-1.88.26,9.73,9.73,0,0,0-2.48.89,8.9,8.9,0,0,0-1.64,1.14A8.66,8.66,0,0,0,14,46.11l-.19.33a12.85,12.85,0,0,0-1,2.66c0,.13-.07.26-.1.4a16.64,16.64,0,0,0-.37,3v.09c0,.3,0,.59,0,.9v8.75a17.28,17.28,0,0,0,.37,3.65q.12.52.27,1a9.71,9.71,0,0,0,1.63,3.21,8.77,8.77,0,0,0,.63.72A7.43,7.43,0,0,0,21,73h.14a5.27,5.27,0,0,0,.56,0A19.69,19.69,0,0,0,28,71.54a6.77,6.77,0,0,0,.65-.36,14.45,14.45,0,0,0,3.18-3l3.27,1.91.75.44.75.43A19.57,19.57,0,0,1,35,73.55v0a17,17,0,0,1-5.41,4.65l-.2.11a25.82,25.82,0,0,1-9.56,2.76C9.6,82.22,2.89,76.37.05,68.14v4.27L.93,72l.38.78-.82.41c-.13-.21-.25-.39-.38-.58A5.26,5.26,0,0,0,0,73.92a4.68,4.68,0,0,0,.15,1.86s0,.1,0,.15a5.19,5.19,0,0,0-.11.65V95.76H17.83v15.45c.21-.13.34-.19.46-.28l11.11-8.05,10-7.29h0V48.22l-.62-.07Z"/><path class="cls-1" d="M67,39.89a10.29,10.29,0,0,1,1.1.4.61.61,0,0,0-.07-.1L67.79,40c-.16,0-.33-.07-.5-.09A1.31,1.31,0,0,0,67,39.89Z"/><path class="cls-1" d="M69.55,38.3a1.51,1.51,0,0,0-1.32-1.42,1.53,1.53,0,0,0-1.62,1,1.51,1.51,0,0,0,.76,1.84l.42.25h0l.54-.1A1.51,1.51,0,0,0,69.55,38.3Z"/><path class="cls-1" d="M78.33,36.73a1.53,1.53,0,0,0-1.57,1.48,1.55,1.55,0,0,0,1.47,1.6,1.6,1.6,0,0,0,1-.33,6.48,6.48,0,0,1-.1-1.18,6.41,6.41,0,0,1,.13-1.22A1.54,1.54,0,0,0,78.33,36.73Z"/><path class="cls-1" d="M63.93,38.91a1.51,1.51,0,0,0-.93.36,16.51,16.51,0,0,1,2.15.2A1.54,1.54,0,0,0,63.93,38.91Z"/><path class="cls-1" d="M72.67,39.35a1.51,1.51,0,0,0-1.52-1.52,1.53,1.53,0,1,0,0,3.06A1.52,1.52,0,0,0,72.67,39.35Z"/><path class="cls-1" d="M111.7,33.28a1.52,1.52,0,0,0,.89-1.36,1.54,1.54,0,0,0-1.53-1.53,1.51,1.51,0,0,0-1.41.92A11.28,11.28,0,0,1,111.7,33.28Z"/><path class="cls-1" d="M75.23,38.8a1.51,1.51,0,1,0-1.54-1.49A1.49,1.49,0,0,0,75.23,38.8Z"/><path class="cls-1" d="M55.23,40.52A1.49,1.49,0,0,0,53.76,39a1.5,1.5,0,0,0-.09,3A1.5,1.5,0,0,0,55.23,40.52Z"/><path class="cls-1" d="M62.37,39.26A1.5,1.5,0,0,0,60.9,37.9a1.52,1.52,0,0,0-1.52,1.53,1.64,1.64,0,0,0,0,.23A12.68,12.68,0,0,1,62.37,39.26Z"/><path class="cls-1" d="M109.45,30.87A1.48,1.48,0,0,0,108,29.38a1.52,1.52,0,0,0-1,.37,13.46,13.46,0,0,1,2.45,1.39A2.45,2.45,0,0,0,109.45,30.87Z"/><path class="cls-1" d="M115.12,31.31a1.52,1.52,0,0,0,0-3,1.52,1.52,0,0,0,0,3Z"/><path class="cls-1" d="M46.12,40.16l.46-.08h0A1.33,1.33,0,0,0,46.12,40.16Z"/><path class="cls-1" d="M38.65,41.4l1.07-.18a1.65,1.65,0,0,0-.31,0A1.47,1.47,0,0,0,38.65,41.4Z"/><path class="cls-1" d="M72.17,37.75a1.49,1.49,0,1,0,0-3,1.49,1.49,0,0,0,0,3Z"/><path class="cls-1" d="M79.35,36.66a7.71,7.71,0,0,1,1.12-2.43,1.45,1.45,0,0,0-1.13-.54,1.49,1.49,0,1,0,0,3Z"/><path class="cls-1" d="M66.44,37.33A1.49,1.49,0,0,0,65,35.87a1.48,1.48,0,1,0,1.47,1.46Z"/><path class="cls-1" d="M112,30.3a1.48,1.48,0,0,0,.06-3,1.48,1.48,0,1,0-.06,3Z"/><path class="cls-1" d="M59.27,38.44A1.48,1.48,0,0,0,57.78,37a1.48,1.48,0,1,0,0,3A1.47,1.47,0,0,0,59.27,38.44Z"/><path class="cls-1" d="M43.48,39.09A1.48,1.48,0,0,0,42,40.59a2.13,2.13,0,0,0,0,.25l2.91-.48A1.45,1.45,0,0,0,43.48,39.09Z"/><path class="cls-1" d="M51.61,40.62a1.46,1.46,0,0,0,.51-1.1,1.48,1.48,0,0,0-1.47-1.46,1.46,1.46,0,0,0-1.49,1.43.88.88,0,0,0,0,.16l2.43-.4Z"/><path class="cls-1" d="M104.94,28.44a1.53,1.53,0,0,0-1,.3,18.44,18.44,0,0,1,2.28.7A1.46,1.46,0,0,0,104.94,28.44Z"/><path class="cls-1" d="M37.78,41.54a1.49,1.49,0,0,0-1.46-1.37,1.47,1.47,0,0,0-1.42,1.12,7.79,7.79,0,0,1,.48.65Z"/><path class="cls-1" d="M77.69,34.22a1.46,1.46,0,1,0-1.46,1.45A1.47,1.47,0,0,0,77.69,34.22Z"/><path class="cls-1" d="M82.13,32.37c.25-.21.5-.42.77-.63A1.46,1.46,0,0,0,82.13,32.37Z"/><path class="cls-1" d="M63.37,36.39a1.46,1.46,0,1,0-1.45,1.46A1.47,1.47,0,0,0,63.37,36.39Z"/><path class="cls-1" d="M56.2,37.46A1.45,1.45,0,0,0,54.8,36a1.46,1.46,0,0,0-.09,2.92A1.45,1.45,0,0,0,56.2,37.46Z"/><path class="cls-1" d="M117.6,26.75a1.46,1.46,0,1,0-2.91,0,1.49,1.49,0,0,0,1.47,1.45A1.47,1.47,0,0,0,117.6,26.75Z"/><path class="cls-1" d="M70.53,35.27a1.46,1.46,0,1,0-1.43,1.47A1.44,1.44,0,0,0,70.53,35.27Z"/><path class="cls-1" d="M110.37,27.8a1.45,1.45,0,0,0-1.43-1.47,1.46,1.46,0,0,0,0,2.92A1.46,1.46,0,0,0,110.37,27.8Z"/><path class="cls-1" d="M47.64,37.06a1.44,1.44,0,0,0-.15,2.87l.67-.11a1.42,1.42,0,0,0,.89-1.26A1.44,1.44,0,0,0,47.64,37.06Z"/><path class="cls-1" d="M101.74,27.43a1.43,1.43,0,0,0-1.21.72c.93.1,1.82.22,2.66.39A1.46,1.46,0,0,0,101.74,27.43Z"/><path class="cls-1" d="M40.35,38.14a1.45,1.45,0,0,0,0,2.9,1.45,1.45,0,1,0,0-2.9Z"/><path class="cls-1" d="M33.27,39.24a1.27,1.27,0,0,0-.48.07A11.79,11.79,0,0,1,34.63,41a2.66,2.66,0,0,0,0-.3A1.41,1.41,0,0,0,33.27,39.24Z"/><path class="cls-1" d="M107.33,26.84a1.45,1.45,0,0,0-1.45-1.45,1.43,1.43,0,0,0,0,2.85A1.45,1.45,0,0,0,107.33,26.84Z"/><path class="cls-1" d="M67.4,34.23A1.4,1.4,0,0,0,66,32.83a1.43,1.43,0,1,0,0,2.86A1.41,1.41,0,0,0,67.4,34.23Z"/><path class="cls-1" d="M51.67,37.86a1.43,1.43,0,0,0,0-2.85,1.43,1.43,0,1,0,0,2.85Z"/><path class="cls-1" d="M81.72,32.15a1.41,1.41,0,0,0-1.39-1.45,1.44,1.44,0,1,0,0,2.88A1.42,1.42,0,0,0,81.72,32.15Z"/><path class="cls-1" d="M74.58,33.16a1.45,1.45,0,0,0-1.49-1.42,1.43,1.43,0,0,0,.08,2.86A1.45,1.45,0,0,0,74.58,33.16Z"/><path class="cls-1" d="M91.56,27.57a1.41,1.41,0,0,0-1.34,1.08c.81-.17,1.64-.32,2.54-.43A1.43,1.43,0,0,0,91.56,27.57Z"/><path class="cls-1" d="M60.26,35.39a1.44,1.44,0,0,0-1.44-1.46,1.42,1.42,0,0,0,0,2.84A1.45,1.45,0,0,0,60.26,35.39Z"/><path class="cls-1" d="M114.47,25.75a1.39,1.39,0,0,0-1.38-1.44,1.42,1.42,0,1,0,0,2.84A1.4,1.4,0,0,0,114.47,25.75Z"/><path class="cls-1" d="M83.63,31.22a17.19,17.19,0,0,1,2.14-1.14s0,0,0,0a1.44,1.44,0,0,0-1.37-1.42,1.41,1.41,0,0,0-.78,2.61Z"/><path class="cls-1" d="M38.75,38.6a1.38,1.38,0,0,0-1.31-1.44A1.4,1.4,0,1,0,37.28,40,1.37,1.37,0,0,0,38.75,38.6Z"/><path class="cls-1" d="M44.52,36.12a1.41,1.41,0,1,0,0,2.81,1.41,1.41,0,1,0,0-2.81Z"/><path class="cls-1" d="M100.13,28.11a1.66,1.66,0,0,0,0-.24,1.38,1.38,0,0,0-1.44-1.37,1.41,1.41,0,0,0-1.39,1.43V28C98.31,28,99.24,28,100.13,28.11Z"/><path class="cls-1" d="M77.21,29.71a1.4,1.4,0,1,0,1.4,1.41A1.38,1.38,0,0,0,77.21,29.71Z"/><path class="cls-1" d="M70.05,33.61a1.41,1.41,0,1,0,0-2.82,1.4,1.4,0,0,0-1.37,1.45A1.42,1.42,0,0,0,70.05,33.61Z"/><path class="cls-1" d="M117.14,22.28a1.39,1.39,0,1,0,0,2.77,1.39,1.39,0,0,0,0-2.77Z"/><path class="cls-1" d="M62.86,34.67a1.39,1.39,0,1,0-1.36-1.38A1.36,1.36,0,0,0,62.86,34.67Z"/><path class="cls-1" d="M55.71,35.78a1.41,1.41,0,1,0-1.38-1.4A1.43,1.43,0,0,0,55.71,35.78Z"/><path class="cls-1" d="M110,26.16a1.41,1.41,0,0,0,0-2.81,1.41,1.41,0,0,0,0,2.81Z"/><path class="cls-1" d="M104.19,25.77a1.39,1.39,0,1,0-1.36,1.41A1.4,1.4,0,0,0,104.19,25.77Z"/><path class="cls-1" d="M2.75,44.53a1.23,1.23,0,0,0,.14-.6A1.38,1.38,0,0,0,1.5,42.55a1.39,1.39,0,1,0,0,2.77,1.38,1.38,0,0,0,.94-.38C2.55,44.8,2.65,44.67,2.75,44.53Z"/><path class="cls-1" d="M48.58,36.8a1.4,1.4,0,1,0-1.39-1.37A1.39,1.39,0,0,0,48.58,36.8Z"/><path class="cls-1" d="M94.93,28c.5,0,1,0,1.53-.05A1.37,1.37,0,0,0,97,26.85a1.4,1.4,0,0,0-1.42-1.36A1.37,1.37,0,0,0,94.93,28Z"/><path class="cls-1" d="M35.64,37.58a1.4,1.4,0,0,0-1.38-1.39,1.39,1.39,0,0,0,0,2.78A1.4,1.4,0,0,0,35.64,37.58Z"/><path class="cls-1" d="M41.4,37.87a1.36,1.36,0,0,0,1.39-1.36,1.37,1.37,0,0,0-1.37-1.4,1.38,1.38,0,1,0,0,2.76Z"/><path class="cls-1" d="M88,29.24c.51-.17,1-.32,1.61-.45a1.4,1.4,0,0,0,.28-.83,1.37,1.37,0,0,0-1.38-1.38A1.38,1.38,0,0,0,88,29.24Z"/><path class="cls-1" d="M82.72,29.05a1.4,1.4,0,0,0-1.39-1.38,1.38,1.38,0,0,0,0,2.75A1.39,1.39,0,0,0,82.72,29.05Z"/><path class="cls-1" d="M72.79,30.11a1.39,1.39,0,0,0,1.37,1.4,1.38,1.38,0,1,0,0-2.75A1.39,1.39,0,0,0,72.79,30.11Z"/><path class="cls-1" d="M67,32.53a1.35,1.35,0,0,0,1.35-1.39,1.36,1.36,0,0,0-1.41-1.34,1.4,1.4,0,0,0-1.34,1.37A1.38,1.38,0,0,0,67,32.53Z"/><path class="cls-1" d="M59.82,33.62a1.37,1.37,0,1,0,0-2.73,1.37,1.37,0,0,0,0,2.73Z"/><path class="cls-1" d="M6.41,40.81a1.33,1.33,0,0,0-.86-.3A1.36,1.36,0,0,0,4.4,42.59,20,20,0,0,1,6.41,40.81Z"/><path class="cls-1" d="M118.88,32.16v-2.7a1.51,1.51,0,0,0-1.91.47,1.53,1.53,0,0,0,0,1.86A1.47,1.47,0,0,0,118.88,32.16Z"/><path class="cls-1" d="M114,24a1.37,1.37,0,0,0,.06-2.73A1.37,1.37,0,1,0,114,24Z"/><path class="cls-1" d="M45.49,35.79a1.37,1.37,0,0,0,1.35-1.35,1.38,1.38,0,0,0-1.4-1.37,1.36,1.36,0,0,0,.05,2.72Z"/><path class="cls-1" d="M101.06,24.79a1.36,1.36,0,0,0-1.35-1.34,1.36,1.36,0,1,0,0,2.72A1.36,1.36,0,0,0,101.06,24.79Z"/><path class="cls-1" d="M106.88,25.07a1.35,1.35,0,1,0,0-2.7,1.35,1.35,0,1,0,0,2.7Z"/><path class="cls-1" d="M52.63,34.69a1.35,1.35,0,1,0,0-2.7,1.35,1.35,0,1,0,0,2.7Z"/><path class="cls-1" d="M86.74,27a1.35,1.35,0,1,0-1.37,1.33A1.37,1.37,0,0,0,86.74,27Z"/><path class="cls-1" d="M93.91,25.91a1.35,1.35,0,0,0-1.33-1.35,1.34,1.34,0,1,0,1.33,1.35Z"/><path class="cls-1" d="M39.67,35.53a1.32,1.32,0,0,0-1.32-1.35,1.34,1.34,0,1,0,0,2.68A1.33,1.33,0,0,0,39.67,35.53Z"/><path class="cls-1" d="M76.9,28a1.34,1.34,0,1,0,1.32-1.37A1.35,1.35,0,0,0,76.9,28Z"/><path class="cls-1" d="M23.8,36.31l.68.07a1.51,1.51,0,0,0-.48-.09Z"/><path class="cls-1" d="M9.7,38.47a1.32,1.32,0,0,0-1.28,1c.54-.32,1.1-.62,1.67-.9A1.23,1.23,0,0,0,9.7,38.47Z"/><path class="cls-1" d="M31.17,37.89a1.34,1.34,0,1,0-1.35-1.34A1.34,1.34,0,0,0,31.17,37.89Z"/><path class="cls-1" d="M3.85,40.91a1.3,1.3,0,0,0-1.33-1.33,1.33,1.33,0,1,0,0,2.65A1.3,1.3,0,0,0,3.85,40.91Z"/><path class="cls-1" d="M69.75,29.12a1.3,1.3,0,0,0,1.31,1.31,1.33,1.33,0,1,0,0-2.65A1.3,1.3,0,0,0,69.75,29.12Z"/><path class="cls-1" d="M58.1,31.26A1.32,1.32,0,0,0,56.73,30a1.29,1.29,0,0,0-1.29,1.31,1.31,1.31,0,0,0,1.33,1.34A1.34,1.34,0,0,0,58.1,31.26Z"/><path class="cls-1" d="M65.24,30.19a1.32,1.32,0,0,0-1.34-1.33,1.34,1.34,0,0,0,0,2.67A1.32,1.32,0,0,0,65.24,30.19Z"/><path class="cls-1" d="M109.62,21.7A1.3,1.3,0,0,0,111,23a1.32,1.32,0,1,0,0-2.64A1.3,1.3,0,0,0,109.62,21.7Z"/><path class="cls-1" d="M50.92,32.35A1.31,1.31,0,0,0,49.61,31a1.33,1.33,0,1,0,0,2.66A1.31,1.31,0,0,0,50.92,32.35Z"/><path class="cls-1" d="M103.77,21.43a1.32,1.32,0,1,0,0,2.64,1.32,1.32,0,0,0,0-2.64Z"/><path class="cls-1" d="M35.18,33.17a1.32,1.32,0,0,0,.07,2.63,1.33,1.33,0,0,0,1.3-1.31A1.34,1.34,0,0,0,35.18,33.17Z"/><path class="cls-1" d="M90.77,24.87a1.31,1.31,0,0,0-1.29-1.32,1.35,1.35,0,0,0-1.34,1.29,1.32,1.32,0,1,0,2.63,0Z"/><path class="cls-1" d="M43.69,33.38a1.29,1.29,0,0,0-1.31-1.29,1.31,1.31,0,1,0,0,2.62A1.29,1.29,0,0,0,43.69,33.38Z"/><path class="cls-1" d="M97.94,23.75a1.32,1.32,0,0,0-1.34-1.28,1.31,1.31,0,0,0,0,2.62A1.31,1.31,0,0,0,97.94,23.75Z"/><path class="cls-1" d="M22.14,36.21a1.35,1.35,0,0,0-1.22-.86,1.3,1.3,0,0,0-1.22.88c.48,0,1,0,1.45,0Z"/><path class="cls-1" d="M73.83,27.05a1.33,1.33,0,0,0,1.32,1.3A1.28,1.28,0,0,0,76.44,27a1.31,1.31,0,0,0-1.3-1.31A1.34,1.34,0,0,0,73.83,27.05Z"/><path class="cls-1" d="M69.29,28.14A1.29,1.29,0,0,0,68,26.84a1.29,1.29,0,1,0,1.31,1.3Z"/><path class="cls-1" d="M28.09,36.88A1.31,1.31,0,0,0,28,34.27a1.31,1.31,0,1,0,.05,2.61Z"/><path class="cls-1" d="M13.74,36.46a1.3,1.3,0,0,0-1.28,1.12c.74-.26,1.5-.47,2.27-.66A1.28,1.28,0,0,0,13.74,36.46Z"/><path class="cls-1" d="M83.62,25.94A1.31,1.31,0,0,0,81,26a1.29,1.29,0,0,0,1.32,1.28A1.31,1.31,0,0,0,83.62,25.94Z"/><path class="cls-1" d="M115.06,18.3a1.3,1.3,0,0,0,0,2.6,1.3,1.3,0,0,0,0-2.6Z"/><path class="cls-1" d="M55,30.25a1.29,1.29,0,1,0-1.32,1.3A1.32,1.32,0,0,0,55,30.25Z"/><path class="cls-1" d="M7.89,38.79a1.3,1.3,0,1,0-1.32,1.28A1.28,1.28,0,0,0,7.89,38.79Z"/><path class="cls-1" d="M62.12,29.17a1.3,1.3,0,1,0-2.59,0,1.3,1.3,0,0,0,2.59,0Z"/><path class="cls-1" d="M109.19,20.6a1.3,1.3,0,0,0-1.28-1.26,1.29,1.29,0,0,0,0,2.58A1.3,1.3,0,0,0,109.19,20.6Z"/><path class="cls-1" d="M47.8,31.32a1.28,1.28,0,0,0-1.28-1.26,1.28,1.28,0,1,0,0,2.56A1.28,1.28,0,0,0,47.8,31.32Z"/><path class="cls-1" d="M94.87,22.81a1.31,1.31,0,0,0-1.32-1.29,1.29,1.29,0,0,0,0,2.57A1.31,1.31,0,0,0,94.87,22.81Z"/><path class="cls-1" d="M40.63,32.45a1.28,1.28,0,1,0-2.56,0,1.31,1.31,0,0,0,1.27,1.29A1.3,1.3,0,0,0,40.63,32.45Z"/><path class="cls-1" d="M102,21.71a1.28,1.28,0,0,0-2.56,0A1.28,1.28,0,0,0,100.77,23,1.26,1.26,0,0,0,102,21.71Z"/><path class="cls-1" d="M33.47,33.53a1.26,1.26,0,0,0-1.26-1.28,1.27,1.27,0,1,0,0,2.53A1.26,1.26,0,0,0,33.47,33.53Z"/><path class="cls-1" d="M87.65,23.87a1.28,1.28,0,0,0-1.3-1.25,1.27,1.27,0,1,0,0,2.54A1.27,1.27,0,0,0,87.65,23.87Z"/><path class="cls-1" d="M72.05,24.74a1.27,1.27,0,0,0,0,2.54,1.27,1.27,0,1,0,0-2.54Z"/><path class="cls-1" d="M79.21,26.26a1.28,1.28,0,0,0,0-2.55,1.28,1.28,0,1,0,0,2.55Z"/><path class="cls-1" d="M18.88,36.28a1.21,1.21,0,0,0,.19-.59,1.24,1.24,0,0,0-1.21-1.32,1.28,1.28,0,0,0-1.31,1.24,1.25,1.25,0,0,0,.35.89C17.55,36.41,18.21,36.33,18.88,36.28Z"/><path class="cls-1" d="M26.25,34.53A1.27,1.27,0,0,0,25,33.28a1.27,1.27,0,0,0,0,2.53A1.26,1.26,0,0,0,26.25,34.53Z"/><path class="cls-1" d="M11.93,36.73a1.29,1.29,0,0,0-1.28-1.27,1.26,1.26,0,0,0,0,2.52A1.27,1.27,0,0,0,11.93,36.73Z"/><path class="cls-1" d="M66.14,27.11a1.24,1.24,0,0,0-1.25-1.27,1.26,1.26,0,1,0,0,2.52A1.24,1.24,0,0,0,66.14,27.11Z"/><path class="cls-1" d="M106.06,19.66a1.27,1.27,0,0,0-1.23-1.25,1.25,1.25,0,0,0-.07,2.5A1.28,1.28,0,0,0,106.06,19.66Z"/><path class="cls-1" d="M50.55,28a1.26,1.26,0,0,0,.05,2.51,1.24,1.24,0,0,0,1.22-1.25A1.26,1.26,0,0,0,50.55,28Z"/><path class="cls-1" d="M4.75,37.85a1.23,1.23,0,0,0-1.24-1.29,1.25,1.25,0,1,0,0,2.5A1.24,1.24,0,0,0,4.75,37.85Z"/><path class="cls-1" d="M59,28.21a1.27,1.27,0,0,0-1.27-1.27,1.25,1.25,0,0,0,0,2.5A1.28,1.28,0,0,0,59,28.21Z"/><path class="cls-1" d="M112,17.33a1.24,1.24,0,1,0,0,2.48,1.24,1.24,0,1,0,0-2.48Z"/><path class="cls-1" d="M44.67,30.35a1.25,1.25,0,0,0-1.25-1.22,1.24,1.24,0,1,0,0,2.47A1.24,1.24,0,0,0,44.67,30.35Z"/><path class="cls-1" d="M97.64,22a1.24,1.24,0,0,0,0-2.47,1.24,1.24,0,1,0,0,2.47Z"/><path class="cls-1" d="M37.5,31.4a1.23,1.23,0,0,0-1.24-1.23A1.23,1.23,0,1,0,37.5,31.4Z"/><path class="cls-1" d="M30.34,32.49a1.27,1.27,0,0,0-1.23-1.25,1.25,1.25,0,0,0,0,2.49A1.28,1.28,0,0,0,30.34,32.49Z"/><path class="cls-1" d="M90.49,23a1.23,1.23,0,1,0,0-2.45,1.23,1.23,0,1,0,0,2.45Z"/><path class="cls-1" d="M83.33,24.1a1.24,1.24,0,1,0-1.22-1.26A1.24,1.24,0,0,0,83.33,24.1Z"/><path class="cls-1" d="M23.17,33.57a1.22,1.22,0,0,0-1.24-1.22,1.22,1.22,0,1,0,1.24,1.22Z"/><path class="cls-1" d="M76.17,22.74a1.22,1.22,0,1,0,0,2.43,1.22,1.22,0,0,0,0-2.43Z"/><path class="cls-1" d="M118.41,19.28a1.31,1.31,0,0,0-1.41.62,1.38,1.38,0,0,0,.11,1.5,1.33,1.33,0,0,0,1.49.43.4.4,0,0,0,.31-.42c0-.64,0-1.28,0-1.95A3.42,3.42,0,0,0,118.41,19.28Z"/><path class="cls-1" d="M69,23.82a1.22,1.22,0,1,0,1.17,1.23A1.21,1.21,0,0,0,69,23.82Z"/><path class="cls-1" d="M16,34.65a1.23,1.23,0,0,0-1.24-1.22,1.23,1.23,0,0,0,0,2.46A1.23,1.23,0,0,0,16,34.65Z"/><path class="cls-1" d="M114.82,16.53A1.21,1.21,0,0,0,116,17.71a1.21,1.21,0,1,0,0-2.41A1.21,1.21,0,0,0,114.82,16.53Z"/><path class="cls-1" d="M61.82,27.34a1.23,1.23,0,0,0,1.2-1.2,1.21,1.21,0,0,0-1.23-1.22,1.21,1.21,0,0,0,0,2.42Z"/><path class="cls-1" d="M8.78,35.73a1.19,1.19,0,0,0-1.2-1.19,1.21,1.21,0,1,0,0,2.42A1.2,1.2,0,0,0,8.78,35.73Z"/><path class="cls-1" d="M53.43,27.17a1.22,1.22,0,0,0,1.21,1.19,1.21,1.21,0,0,0,0-2.41A1.22,1.22,0,0,0,53.43,27.17Z"/><path class="cls-1" d="M107.68,17.56a1.19,1.19,0,0,0,1.15,1.24,1.22,1.22,0,0,0,1.26-1.2,1.24,1.24,0,0,0-1.19-1.22A1.2,1.2,0,0,0,107.68,17.56Z"/><path class="cls-1" d="M93.37,19.7a1.18,1.18,0,0,0,1.18,1.21,1.2,1.2,0,0,0,1.21-1.18,1.23,1.23,0,0,0-1.19-1.22A1.2,1.2,0,0,0,93.37,19.7Z"/><path class="cls-1" d="M39.12,29.32a1.22,1.22,0,0,0,1.19,1.21,1.2,1.2,0,0,0,0-2.39A1.22,1.22,0,0,0,39.12,29.32Z"/><path class="cls-1" d="M46.29,28.26a1.19,1.19,0,0,0,1.21,1.19,1.2,1.2,0,1,0,0-2.4A1.18,1.18,0,0,0,46.29,28.26Z"/><path class="cls-1" d="M100.51,18.63a1.22,1.22,0,0,0,1.21,1.2,1.19,1.19,0,0,0,1.19-1.21,1.18,1.18,0,0,0-1.2-1.19A1.2,1.2,0,0,0,100.51,18.63Z"/><path class="cls-1" d="M32,30.4a1.16,1.16,0,0,0,1.17,1.2,1.19,1.19,0,0,0,1.22-1.18,1.2,1.2,0,0,0-1.22-1.18A1.17,1.17,0,0,0,32,30.4Z"/><path class="cls-1" d="M86.2,20.78A1.19,1.19,0,0,0,87.4,22a1.15,1.15,0,0,0,1.18-1.19,1.16,1.16,0,0,0-1.21-1.17A1.19,1.19,0,0,0,86.2,20.78Z"/><path class="cls-1" d="M27.19,31.5a1.19,1.19,0,0,0-2.37,0A1.21,1.21,0,0,0,26,32.7,1.19,1.19,0,0,0,27.19,31.5Z"/><path class="cls-1" d="M79.06,21.89a1.19,1.19,0,1,0,1.2-1.19A1.2,1.2,0,0,0,79.06,21.89Z"/><path class="cls-1" d="M20,32.52a1.18,1.18,0,1,0-2.36,0,1.19,1.19,0,0,0,1.17,1.17A1.2,1.2,0,0,0,20,32.52Z"/><path class="cls-1" d="M71.9,23a1.18,1.18,0,0,0,1.19,1.2A1.17,1.17,0,1,0,71.9,23Z"/><path class="cls-1" d="M12.86,33.64a1.17,1.17,0,1,0-1.22,1.15A1.14,1.14,0,0,0,12.86,33.64Z"/><path class="cls-1" d="M57.6,25.12a1.17,1.17,0,0,0,2.34,0,1.2,1.2,0,0,0-1.16-1.18A1.18,1.18,0,0,0,57.6,25.12Z"/><path class="cls-1" d="M64.75,24a1.18,1.18,0,0,0,2.35,0A1.17,1.17,0,0,0,66,22.84,1.16,1.16,0,0,0,64.75,24Z"/><path class="cls-1" d="M3.36,34.73A1.21,1.21,0,0,0,4.53,35.9a1.18,1.18,0,0,0,0-2.36A1.21,1.21,0,0,0,3.36,34.73Z"/><path class="cls-1" d="M111.79,15.5A1.17,1.17,0,0,0,113,16.65a1.18,1.18,0,0,0,0-2.35A1.18,1.18,0,0,0,111.79,15.5Z"/><path class="cls-1" d="M104.62,16.57a1.16,1.16,0,0,0,1.16,1.15,1.16,1.16,0,0,0,0-2.31A1.16,1.16,0,0,0,104.62,16.57Z"/><path class="cls-1" d="M50.4,26.12a1.13,1.13,0,0,0,1.08,1.22A1.16,1.16,0,1,0,51.62,25,1.14,1.14,0,0,0,50.4,26.12Z"/><path class="cls-1" d="M97.48,17.65a1.15,1.15,0,0,0,1.16,1.16,1.16,1.16,0,0,0,0-2.31A1.14,1.14,0,0,0,97.48,17.65Z"/><path class="cls-1" d="M43.23,27.3a1.18,1.18,0,0,0,1.18,1.14,1.17,1.17,0,0,0,1.13-1.19,1.15,1.15,0,0,0-1.17-1.14A1.18,1.18,0,0,0,43.23,27.3Z"/><path class="cls-1" d="M36.09,28.38a1.13,1.13,0,0,0,1.18,1.13,1.15,1.15,0,0,0,0-2.3A1.13,1.13,0,0,0,36.09,28.38Z"/><path class="cls-1" d="M90.31,18.73a1.17,1.17,0,0,0,1.17,1.16,1.15,1.15,0,0,0,0-2.29A1.16,1.16,0,0,0,90.31,18.73Z"/><path class="cls-1" d="M83.18,19.82a1.12,1.12,0,0,0,1.15,1.09,1.14,1.14,0,1,0,0-2.28A1.12,1.12,0,0,0,83.18,19.82Z"/><path class="cls-1" d="M28.92,29.37a1.17,1.17,0,0,0,1.16,1.16,1.14,1.14,0,0,0,0-2.28A1.17,1.17,0,0,0,28.92,29.37Z"/><path class="cls-1" d="M16.88,31.55a1.14,1.14,0,0,0-1.13-1.12,1.14,1.14,0,1,0,0,2.27A1.13,1.13,0,0,0,16.88,31.55Z"/><path class="cls-1" d="M68.87,22A1.12,1.12,0,0,0,70,23.08a1.14,1.14,0,1,0,0-2.27A1.13,1.13,0,0,0,68.87,22Z"/><path class="cls-1" d="M24.06,30.49a1.15,1.15,0,0,0-1.12-1.14,1.13,1.13,0,1,0,0,2.26A1.14,1.14,0,0,0,24.06,30.49Z"/><path class="cls-1" d="M76,20.85A1.14,1.14,0,0,0,77.13,22a1.11,1.11,0,0,0,1.15-1.09,1.13,1.13,0,0,0-1.14-1.16A1.15,1.15,0,0,0,76,20.85Z"/><path class="cls-1" d="M61.7,23.05a1.13,1.13,0,0,0,1.15,1.1,1.12,1.12,0,1,0,0-2.23A1.12,1.12,0,0,0,61.7,23.05Z"/><path class="cls-1" d="M.32,33.75a1.14,1.14,0,0,0,1.14,1.12,1.13,1.13,0,1,0-.07-2.25A1.14,1.14,0,0,0,.32,33.75Z"/><path class="cls-1" d="M108.79,14.49a1.12,1.12,0,1,0,2.23,0,1.12,1.12,0,1,0-2.23,0Z"/><path class="cls-1" d="M54.56,24.14A1.12,1.12,0,1,0,55.67,23,1.14,1.14,0,0,0,54.56,24.14Z"/><path class="cls-1" d="M117.05,12.3a1.12,1.12,0,1,0,1.14,1.1A1.12,1.12,0,0,0,117.05,12.3Z"/><path class="cls-1" d="M7.48,32.67a1.1,1.1,0,0,0,1.13,1.1,1.12,1.12,0,1,0,0-2.23A1.11,1.11,0,0,0,7.48,32.67Z"/><path class="cls-1" d="M101.63,15.58a1.1,1.1,0,0,0,1.13,1.11,1.1,1.1,0,1,0,0-2.2A1.1,1.1,0,0,0,101.63,15.58Z"/><path class="cls-1" d="M47.41,25.15a1.12,1.12,0,0,0,1.12,1.12A1.12,1.12,0,1,0,48.48,24,1.11,1.11,0,0,0,47.41,25.15Z"/><path class="cls-1" d="M40.25,26.21a1.09,1.09,0,0,0,1.1,1.13,1.07,1.07,0,0,0,1.1-1.06,1.09,1.09,0,0,0-1.09-1.14A1.11,1.11,0,0,0,40.25,26.21Z"/><path class="cls-1" d="M33.11,27.31a1.08,1.08,0,0,0,1,1.12,1.11,1.11,0,0,0,1.14-1.11,1.12,1.12,0,0,0-1.09-1.1A1.1,1.1,0,0,0,33.11,27.31Z"/><path class="cls-1" d="M87.29,17.7a1.09,1.09,0,0,0,1.08,1.11,1.1,1.1,0,0,0,0-2.2A1.09,1.09,0,0,0,87.29,17.7Z"/><path class="cls-1" d="M94.5,16.57a1.07,1.07,0,0,0,1.08,1.14,1.09,1.09,0,0,0,0-2.18A1.08,1.08,0,0,0,94.5,16.57Z"/><path class="cls-1" d="M25.9,28.38A1.07,1.07,0,0,0,27,29.51a1.09,1.09,0,0,0,0-2.18A1.07,1.07,0,0,0,25.9,28.38Z"/><path class="cls-1" d="M18.73,29.5a1.09,1.09,0,0,0,1.08,1.09,1.09,1.09,0,0,0,0-2.17A1.1,1.1,0,0,0,18.73,29.5Z"/><path class="cls-1" d="M80.12,18.82a1.1,1.1,0,0,0,1.12,1.06,1.06,1.06,0,0,0,1.05-1.1,1.08,1.08,0,0,0-1.1-1.07A1.11,1.11,0,0,0,80.12,18.82Z"/><path class="cls-1" d="M11.6,30.64a1.08,1.08,0,0,0,1.06,1,1.09,1.09,0,1,0,0-2.17A1.08,1.08,0,0,0,11.6,30.64Z"/><path class="cls-1" d="M65.82,21a1.09,1.09,0,0,0,1.12,1.05,1.08,1.08,0,0,0-.06-2.16A1.1,1.1,0,0,0,65.82,21Z"/><path class="cls-1" d="M73,19.92a1.06,1.06,0,0,0,1.07,1,1.08,1.08,0,1,0,0-2.15A1.06,1.06,0,0,0,73,19.92Z"/><path class="cls-1" d="M4.43,31.63A1.09,1.09,0,0,0,5.48,32.7a1.08,1.08,0,0,0,0-2.15A1.1,1.1,0,0,0,4.43,31.63Z"/><path class="cls-1" d="M58.67,22a1.08,1.08,0,0,0,1,1.1,1.08,1.08,0,1,0-1-1.1Z"/><path class="cls-1" d="M113.94,11.31a1.07,1.07,0,0,0,0,2.14,1.07,1.07,0,0,0,0-2.14Z"/><path class="cls-1" d="M44.36,24.15a1.06,1.06,0,1,0,1.08-1A1.09,1.09,0,0,0,44.36,24.15Z"/><path class="cls-1" d="M51.52,23.13a1.06,1.06,0,1,0,1-1.09A1,1,0,0,0,51.52,23.13Z"/><path class="cls-1" d="M106.82,12.42a1.05,1.05,0,1,0,1.05,1.06A1,1,0,0,0,106.82,12.42Z"/><path class="cls-1" d="M99.66,13.5a1.06,1.06,0,0,0,0,2.12,1.06,1.06,0,0,0,0-2.12Z"/><path class="cls-1" d="M37.22,25.24a1,1,0,0,0,1,1.07,1,1,0,1,0,0-2.08A1,1,0,0,0,37.22,25.24Z"/><path class="cls-1" d="M92.53,14.61a1,1,0,0,0-1.08,1,1,1,0,0,0,1,1.06,1,1,0,0,0,1-1.05A1,1,0,0,0,92.53,14.61Z"/><path class="cls-1" d="M30.06,26.34a1.06,1.06,0,0,0,1.06,1.06,1,1,0,0,0,0-2.08A1.05,1.05,0,0,0,30.06,26.34Z"/><path class="cls-1" d="M85.3,15.69a1,1,0,0,0,0,2.09,1,1,0,1,0,0-2.09Z"/><path class="cls-1" d="M71,17.83a1.05,1.05,0,0,0-1.07,1,1,1,0,0,0,1,1,1,1,0,0,0,0-2.05Z"/><path class="cls-1" d="M22.92,27.34a1,1,0,0,0,1,1.08,1,1,0,1,0,0-2.06A1,1,0,0,0,22.92,27.34Z"/><path class="cls-1" d="M17.81,28.49a1,1,0,0,0-1-1,1,1,0,1,0,0,2.05A1,1,0,0,0,17.81,28.49Z"/><path class="cls-1" d="M78.16,16.74a1,1,0,0,0-1,1,1.06,1.06,0,0,0,1.06,1,1,1,0,0,0,1-1.08A1,1,0,0,0,78.16,16.74Z"/><path class="cls-1" d="M2.43,29.63a1,1,0,0,0,0,2,1,1,0,0,0,0-2Z"/><path class="cls-1" d="M9.56,30.57a1,1,0,0,0,1-1,1,1,0,0,0-1-1,1,1,0,0,0-1,1A1,1,0,0,0,9.56,30.57Z"/><path class="cls-1" d="M63.8,18.94a1,1,0,0,0,0,2,1,1,0,0,0,1-1A1,1,0,0,0,63.8,18.94Z"/><path class="cls-1" d="M110.88,10.4a1,1,0,0,0,0,2,1,1,0,1,0,0-2Z"/><path class="cls-1" d="M56.62,20a1,1,0,0,0-1,1,1,1,0,1,0,1-1Z"/><path class="cls-1" d="M0,37.92a1.21,1.21,0,0,0,1.42-.54A1.19,1.19,0,0,0,1.37,36,1.11,1.11,0,0,0,0,35.68Z"/><path class="cls-1" d="M96.57,12.59a1,1,0,0,0-1,1,1,1,0,0,0,1,1,1,1,0,0,0,1-1A1,1,0,0,0,96.57,12.59Z"/><path class="cls-1" d="M42.3,22.21a1,1,0,1,0,1,1A1,1,0,0,0,42.3,22.21Z"/><path class="cls-1" d="M118,9.32a1,1,0,1,0,0,2c.59,0,.85-.32.85-1S118.63,9.32,118,9.32Z"/><path class="cls-1" d="M49.52,21.13a1,1,0,1,0,1,1A1,1,0,0,0,49.52,21.13Z"/><path class="cls-1" d="M103.71,11.51a1,1,0,0,0-1,1,1,1,0,0,0,1,1,1,1,0,1,0,0-2Z"/><path class="cls-1" d="M35.19,23.25a1,1,0,1,0,0,2,1,1,0,0,0,0-2Z"/><path class="cls-1" d="M89.39,13.63a1,1,0,0,0-1,1,1,1,0,0,0,1,1,1,1,0,0,0,0-2Z"/><path class="cls-1" d="M82.22,14.73a1,1,0,0,0-1,1,1,1,0,0,0,1,.94,1,1,0,0,0-.07-1.95Z"/><path class="cls-1" d="M28,24.35a1,1,0,1,0,0,1.95,1,1,0,1,0,0-1.95Z"/><path class="cls-1" d="M21.82,26.43a1,1,0,0,0-1-1,1,1,0,0,0,0,1.94A1,1,0,0,0,21.82,26.43Z"/><path class="cls-1" d="M14.66,27.49a1,1,0,0,0-1-.95,1,1,0,0,0-.92,1,1,1,0,0,0,1,1A1,1,0,0,0,14.66,27.49Z"/><path class="cls-1" d="M67.94,16.92a1,1,0,0,0-1,1,1,1,0,0,0,1,1,1,1,0,0,0,0-1.93Z"/><path class="cls-1" d="M75.06,15.83a.94.94,0,0,0-.93,1,.93.93,0,0,0,.93.95,1,1,0,1,0,0-1.92Z"/><path class="cls-1" d="M6.58,27.65a.94.94,0,1,0-.06,1.88.94.94,0,0,0,.06-1.88Z"/><path class="cls-1" d="M60.82,18a.94.94,0,1,0-.07,1.88A.94.94,0,1,0,60.82,18Z"/><path class="cls-1" d="M114,9.33a.95.95,0,1,0,1-.92A.93.93,0,0,0,114,9.33Z"/><path class="cls-1" d="M106.86,10.41a.91.91,0,0,0,.91.9.93.93,0,1,0,0-1.86A.9.9,0,0,0,106.86,10.41Z"/><path class="cls-1" d="M53.56,19.07a.93.93,0,1,0,.93.9A.92.92,0,0,0,53.56,19.07Z"/><path class="cls-1" d="M117.7,27.81a1.33,1.33,0,0,0,1.19,1.29V26.33A1.42,1.42,0,0,0,117.7,27.81Z"/><path class="cls-1" d="M39.22,21.26a.91.91,0,0,0-.91.9.93.93,0,0,0,.94.94.91.91,0,0,0,.9-1A.9.9,0,0,0,39.22,21.26Z"/><path class="cls-1" d="M46.39,20.15a.93.93,0,0,0-.92.9,1,1,0,0,0,.91,1,1,1,0,0,0,.95-.94A1,1,0,0,0,46.39,20.15Z"/><path class="cls-1" d="M92.56,12.6a.9.9,0,0,0,.93.88.93.93,0,1,0,0-1.85A.9.9,0,0,0,92.56,12.6Z"/><path class="cls-1" d="M99.69,11.44a1,1,0,0,0,.93,1,.94.94,0,0,0,0-1.88A1,1,0,0,0,99.69,11.44Z"/><path class="cls-1" d="M32.09,22.35a.92.92,0,1,0,0,1.83.92.92,0,0,0,0-1.83Z"/><path class="cls-1" d="M85.39,13.65a.93.93,0,0,0,1,.91.92.92,0,0,0-.07-1.83A.93.93,0,0,0,85.39,13.65Z"/><path class="cls-1" d="M25.82,24.38a.9.9,0,0,0-.86-.94.92.92,0,1,0-.05,1.83A.91.91,0,0,0,25.82,24.38Z"/><path class="cls-1" d="M78.26,14.74a.9.9,0,0,0,.9.9.91.91,0,0,0,0-1.82A.9.9,0,0,0,78.26,14.74Z"/><path class="cls-1" d="M17.72,26.29a.91.91,0,1,0,.05-1.81.91.91,0,0,0-.05,1.81Z"/><path class="cls-1" d="M71.09,15.84a.88.88,0,0,0,.88.86.87.87,0,0,0,.92-.87.89.89,0,0,0-.9-.9A.9.9,0,0,0,71.09,15.84Z"/><path class="cls-1" d="M56.8,18a.9.9,0,0,0,.92.84.92.92,0,0,0,.84-.92A.88.88,0,1,0,56.8,18Z"/><path class="cls-1" d="M3.45,28.45a.89.89,0,0,0,0-1.78.92.92,0,0,0-.9.86A.9.9,0,0,0,3.45,28.45Z"/><path class="cls-1" d="M64.84,17.73a.88.88,0,1,0-.89-.9A.88.88,0,0,0,64.84,17.73Z"/><path class="cls-1" d="M10.56,27.35a.88.88,0,1,0-.85-.89A.88.88,0,0,0,10.56,27.35Z"/><path class="cls-1" d="M111.91,9.2a.88.88,0,0,0,0-1.76.88.88,0,1,0,0,1.76Z"/><path class="cls-1" d="M104.77,10.27a.86.86,0,0,0,.85-.88.88.88,0,0,0-.88-.85.87.87,0,0,0,0,1.73Z"/><path class="cls-1" d="M50.52,19.89a.87.87,0,0,0,0-1.73.87.87,0,1,0,0,1.73Z"/><path class="cls-1" d="M97.52,11.35a.86.86,0,1,0,0-1.71.86.86,0,0,0,0,1.71Z"/><path class="cls-1" d="M43.33,21a.86.86,0,1,0,0-1.71.86.86,0,0,0,0,1.71Z"/><path class="cls-1" d="M90.39,12.44a.86.86,0,0,0,0-1.71.86.86,0,1,0,0,1.71Z"/><path class="cls-1" d="M36.21,22.06a.86.86,0,0,0,.84-.84.85.85,0,0,0-.86-.87.88.88,0,0,0-.85.83A.89.89,0,0,0,36.21,22.06Z"/><path class="cls-1" d="M29,23.08a.85.85,0,1,0-.83-.85A.85.85,0,0,0,29,23.08Z"/><path class="cls-1" d="M83.22,13.46a.87.87,0,0,0,.84-.85.84.84,0,1,0-.84.85Z"/><path class="cls-1" d="M21.8,24.14a.82.82,0,1,0-.8-.86A.82.82,0,0,0,21.8,24.14Z"/><path class="cls-1" d="M76.09,14.52a.82.82,0,0,0,0-1.64.82.82,0,1,0,0,1.64Z"/><path class="cls-1" d="M68.93,15.62a.83.83,0,0,0,0-1.66.84.84,0,0,0-.85.83A.85.85,0,0,0,68.93,15.62Z"/><path class="cls-1" d="M14.65,25.24a.86.86,0,0,0,.84-.78.85.85,0,0,0-.8-.88.83.83,0,0,0,0,1.66Z"/><path class="cls-1" d="M61.76,16.68a.81.81,0,0,0,0-1.61.8.8,0,0,0-.81.77A.79.79,0,0,0,61.76,16.68Z"/><path class="cls-1" d="M116,7.06A.81.81,0,0,0,116,5.45.81.81,0,1,0,116,7.06Z"/><path class="cls-1" d="M7.51,26.3a.81.81,0,1,0,0-1.61.81.81,0,1,0,0,1.61Z"/><path class="cls-1" d="M101.68,9.22a.79.79,0,0,0,0-1.58.79.79,0,1,0,0,1.58Z"/><path class="cls-1" d="M108.82,8.13a.79.79,0,1,0,0-1.57.76.76,0,0,0-.79.78A.77.77,0,0,0,108.82,8.13Z"/><path class="cls-1" d="M118.89,18.62V16.29a1.18,1.18,0,0,0-1,1.31A1.06,1.06,0,0,0,118.89,18.62Z"/><path class="cls-1" d="M54.56,17.75a.79.79,0,1,0,0-1.57.79.79,0,1,0,0,1.57Z"/><path class="cls-1" d="M94.51,10.24a.79.79,0,0,0,.76-.77.77.77,0,1,0-1.54,0A.78.78,0,0,0,94.51,10.24Z"/><path class="cls-1" d="M47.39,18.77a.78.78,0,1,0,0-1.55.78.78,0,0,0,0,1.55Z"/><path class="cls-1" d="M40.26,19.86a.78.78,0,1,0-.76-.77A.78.78,0,0,0,40.26,19.86Z"/><path class="cls-1" d="M87.35,11.3a.75.75,0,1,0,0-1.5.75.75,0,1,0,0,1.5Z"/><path class="cls-1" d="M33.08,20.93a.74.74,0,0,0,.78-.74.73.73,0,0,0-.73-.77.76.76,0,1,0-.05,1.51Z"/><path class="cls-1" d="M80.16,12.4a.76.76,0,0,0,.07-1.52.76.76,0,1,0-.07,1.52Z"/><path class="cls-1" d="M25.93,22a.76.76,0,1,0,0-1.52.76.76,0,0,0,0,1.52Z"/><path class="cls-1" d="M18.8,23.09a.75.75,0,0,0,0-1.49.77.77,0,0,0-.74.73A.76.76,0,0,0,18.8,23.09Z"/><path class="cls-1" d="M73,13.47A.74.74,0,0,0,73,12,.74.74,0,1,0,73,13.47Z"/><path class="cls-1" d="M11.57,24.11a.73.73,0,0,0,.73-.72.73.73,0,0,0-.72-.74.73.73,0,1,0,0,1.46Z"/><path class="cls-1" d="M65.79,14.53a.72.72,0,1,0,0-1.43.72.72,0,1,0,0,1.43Z"/><path class="cls-1" d="M4.44,25.17a.7.7,0,0,0,.68-.7.68.68,0,0,0-.67-.7.69.69,0,0,0-.74.69A.7.7,0,0,0,4.44,25.17Z"/><path class="cls-1" d="M58.63,15.55a.7.7,0,0,0,.73-.71.71.71,0,0,0-1.41,0A.7.7,0,0,0,58.63,15.55Z"/><path class="cls-1" d="M1,27.05a.75.75,0,0,0,0-.94.75.75,0,0,0-1-.22v1.4C.52,27.42.79,27.36,1,27.05Z"/><path class="cls-1" d="M44.33,17.7a.68.68,0,0,0,0-1.36.68.68,0,1,0,0,1.36Z"/><path class="cls-1" d="M105.73,7a.7.7,0,0,0,.69-.69.71.71,0,0,0-.7-.69.69.69,0,0,0-.68.7A.68.68,0,0,0,105.73,7Z"/><path class="cls-1" d="M51.51,16.62a.67.67,0,0,0,.66-.71.66.66,0,0,0-.7-.66.69.69,0,1,0,0,1.37Z"/><path class="cls-1" d="M98.55,8.08a.68.68,0,1,0,0-1.36.7.7,0,0,0-.67.71A.71.71,0,0,0,98.55,8.08Z"/><path class="cls-1" d="M112.89,5.92a.7.7,0,0,0,0-1.39.7.7,0,1,0,0,1.39Z"/><path class="cls-1" d="M37.14,18.77a.66.66,0,1,0,.07-1.32.66.66,0,1,0-.07,1.32Z"/><path class="cls-1" d="M91.4,9.14a.65.65,0,1,0-.65-.65A.65.65,0,0,0,91.4,9.14Z"/><path class="cls-1" d="M30,19.85a.66.66,0,0,0,.69-.61.65.65,0,1,0-1.29-.09A.66.66,0,0,0,30,19.85Z"/><path class="cls-1" d="M84.28,10.23a.66.66,0,0,0,.62-.68.67.67,0,0,0-.67-.63.66.66,0,0,0,0,1.31Z"/><path class="cls-1" d="M22.88,20.86a.65.65,0,0,0,.61-.63.63.63,0,0,0-.65-.63.63.63,0,0,0,0,1.26Z"/><path class="cls-1" d="M77.08,11.24a.63.63,0,0,0,0-1.26.63.63,0,0,0,0,1.26Z"/><path class="cls-1" d="M15.7,21.94a.61.61,0,0,0,.61-.61.63.63,0,0,0-.59-.64.63.63,0,1,0,0,1.25Z"/><path class="cls-1" d="M69.93,12.32a.63.63,0,1,0,0-1.25.63.63,0,0,0-.59.64A.62.62,0,0,0,69.93,12.32Z"/><path class="cls-1" d="M8.54,23a.6.6,0,0,0,.61-.61.59.59,0,0,0-.64-.58.57.57,0,0,0-.57.58A.58.58,0,0,0,8.54,23Z"/><path class="cls-1" d="M62.79,13.38a.59.59,0,0,0,.59-.63.58.58,0,0,0-.59-.56.6.6,0,1,0,0,1.19Z"/><path class="cls-1" d="M1.38,24.1a.61.61,0,0,0,0-1.21.61.61,0,0,0,0,1.21Z"/><path class="cls-1" d="M.09,41A1.24,1.24,0,0,0,0,38.77c0,.43,0,.79,0,1.15A3.14,3.14,0,0,0,.09,41Z"/><path class="cls-1" d="M116.92,3.75A.59.59,0,1,0,117,2.58a.59.59,0,1,0-.06,1.17Z"/><path class="cls-1" d="M55.55,14.46a.6.6,0,0,0,.6-.62.61.61,0,0,0-.61-.56.59.59,0,0,0-.56.6A.59.59,0,0,0,55.55,14.46Z"/><path class="cls-1" d="M109.79,4.84a.58.58,0,0,0,.58-.57.59.59,0,0,0-.55-.61.59.59,0,1,0,0,1.18Z"/><path class="cls-1" d="M102.66,5.91a.57.57,0,1,0,0-1.14.57.57,0,0,0,0,1.14Z"/><path class="cls-1" d="M48.39,15.53a.57.57,0,0,0,0-1.14.57.57,0,1,0,0,1.14Z"/><path class="cls-1" d="M41.29,16.56a.57.57,0,0,0-.09-1.14.57.57,0,0,0,.09,1.14Z"/><path class="cls-1" d="M88.27,8a.56.56,0,0,0,.61-.54.55.55,0,0,0-.55-.54A.54.54,0,0,0,88.27,8Z"/><path class="cls-1" d="M95.46,7a.56.56,0,1,0,0-1.11.58.58,0,0,0-.58.52A.57.57,0,0,0,95.46,7Z"/><path class="cls-1" d="M34.08,17.62a.53.53,0,0,0,.55-.53.52.52,0,0,0-.52-.55.54.54,0,1,0,0,1.08Z"/><path class="cls-1" d="M81.17,9.09a.55.55,0,0,0,0-1.09.55.55,0,0,0,0,1.09Z"/><path class="cls-1" d="M26.92,18.72a.56.56,0,0,0,.54-.55.55.55,0,0,0-.54-.55.57.57,0,0,0-.54.55A.57.57,0,0,0,26.92,18.72Z"/><path class="cls-1" d="M118.2,7.31c0,.39.22.59.68.72V6.39C118.33,6.64,118.16,6.88,118.2,7.31Z"/><path class="cls-1" d="M12.6,20.86a.52.52,0,0,0,0-1,.52.52,0,1,0,0,1Z"/><path class="cls-1" d="M66.87,11.24a.52.52,0,0,0,0-1,.5.5,0,0,0-.52.55A.51.51,0,0,0,66.87,11.24Z"/><path class="cls-1" d="M74,10.16a.53.53,0,1,0,0-1.05.53.53,0,1,0,0,1.05Z"/><path class="cls-1" d="M19.75,19.78a.53.53,0,1,0,0-1.05.53.53,0,0,0,0,1.05Z"/><path class="cls-1" d="M59.7,12.32a.51.51,0,0,0,.48-.53.5.5,0,0,0-.52-.49.51.51,0,0,0,0,1Z"/><path class="cls-1" d="M113.94,2.7a.53.53,0,0,0,.48-.54.53.53,0,0,0-.53-.48.51.51,0,0,0,0,1Z"/><path class="cls-1" d="M5.44,21.87a.52.52,0,0,0,.52-.5.51.51,0,0,0-.53-.49.48.48,0,0,0-.48.47A.49.49,0,0,0,5.44,21.87Z"/><path class="cls-1" d="M52.5,13.34a.5.5,0,0,0,0-1,.52.52,0,0,0-.51.45A.5.5,0,0,0,52.5,13.34Z"/><path class="cls-1" d="M106.76,3.72a.5.5,0,0,0,0-1,.51.51,0,0,0-.48.47A.52.52,0,0,0,106.76,3.72Z"/><path class="cls-1" d="M45.32,14.41a.48.48,0,1,0,.09-1,.48.48,0,1,0-.09,1Z"/><path class="cls-1" d="M92.38,5.88a.5.5,0,0,0,.47-.47.49.49,0,0,0-.44-.5.49.49,0,1,0,0,1Z"/><path class="cls-1" d="M99.56,4.78a.47.47,0,1,0,0-.94.47.47,0,1,0,0,.94Z"/><path class="cls-1" d="M38.2,15.5a.48.48,0,0,0,0-1,.49.49,0,0,0-.51.48A.5.5,0,0,0,38.2,15.5Z"/><path class="cls-1" d="M31,16.56a.46.46,0,0,0,.05-.91.48.48,0,0,0-.51.43A.47.47,0,0,0,31,16.56Z"/><path class="cls-1" d="M23.83,17.66a.48.48,0,0,0,.47-.48.49.49,0,0,0-.49-.45.47.47,0,0,0,0,.93Z"/><path class="cls-1" d="M78.05,8a.47.47,0,0,0,.47-.47A.46.46,0,0,0,78,7.11a.49.49,0,0,0-.44.44A.48.48,0,0,0,78.05,8Z"/><path class="cls-1" d="M85.24,6.94a.46.46,0,1,0,0-.91.44.44,0,0,0-.42.45A.44.44,0,0,0,85.24,6.94Z"/><path class="cls-1" d="M63.76,10.14a.45.45,0,0,0,0-.9.47.47,0,0,0-.49.44A.48.48,0,0,0,63.76,10.14Z"/><path class="cls-1" d="M49.44,12.32a.46.46,0,0,0,.43-.44.45.45,0,0,0-.4-.46.47.47,0,0,0-.49.43A.47.47,0,0,0,49.44,12.32Z"/><path class="cls-1" d="M9.51,19.76a.47.47,0,0,0,.46-.47.48.48,0,0,0-.5-.43.47.47,0,0,0-.4.47A.45.45,0,0,0,9.51,19.76Z"/><path class="cls-1" d="M56.56,11.22a.44.44,0,1,0,0-.88.44.44,0,0,0,0,.88Z"/><path class="cls-1" d="M13.58,17.69a.44.44,0,0,0,.43-.44.45.45,0,0,0-.42-.44.46.46,0,0,0-.44.44A.45.45,0,0,0,13.58,17.69Z"/><path class="cls-1" d="M16.69,18.66a.44.44,0,0,0,0-.87.45.45,0,0,0-.47.46A.46.46,0,0,0,16.69,18.66Z"/><path class="cls-1" d="M2.4,20.84a.44.44,0,0,0,.4-.47A.43.43,0,0,0,2.34,20a.46.46,0,0,0-.44.44A.46.46,0,0,0,2.4,20.84Z"/><path class="cls-1" d="M28,15.51a.45.45,0,0,0,.41-.46.47.47,0,0,0-.46-.42.45.45,0,0,0-.4.47A.43.43,0,0,0,28,15.51Z"/><path class="cls-1" d="M71,9a.45.45,0,0,0,.41-.46.46.46,0,0,0-.47-.41.42.42,0,0,0-.42.49A.43.43,0,0,0,71,9Z"/><path class="cls-1" d="M42.25,13.38a.44.44,0,0,0,.46-.4.43.43,0,0,0-.42-.44.4.4,0,0,0-.45.39A.42.42,0,0,0,42.25,13.38Z"/><path class="cls-1" d="M6.43,18.76a.42.42,0,1,0,0-.84.42.42,0,0,0-.42.43A.41.41,0,0,0,6.43,18.76Z"/><path class="cls-1" d="M35.13,14.41a.42.42,0,0,0,.41-.44.4.4,0,0,0-.44-.4.42.42,0,0,0-.42.43A.43.43,0,0,0,35.13,14.41Z"/><path class="cls-1" d="M20.82,16.59a.43.43,0,0,0,.41-.45.42.42,0,0,0-.46-.4.43.43,0,0,0-.41.45A.44.44,0,0,0,20.82,16.59Z"/><path class="cls-1" d="M17.52,15.57A.56.56,0,0,0,18,15.5a.57.57,0,0,0,.11-.45c0-.05-.24-.1-.37-.11a1.9,1.9,0,0,0-.4.05C17.23,15.29,17.31,15.49,17.52,15.57Z"/><path class="cls-1" d="M32.09,13.45c.25,0,.33-.21.31-.67l-.82.09C31.7,13.35,31.84,13.49,32.09,13.45Z"/><path class="cls-1" d="M25,14.52c.3-.06.37-.25.24-.7l-.75.13C24.52,14.44,24.66,14.57,25,14.52Z"/><path class="cls-1" d="M10.64,16.65c.28-.07.36-.28.22-.69l-.74.12C10.21,16.55,10.37,16.71,10.64,16.65Z"/><path class="cls-1" d="M3.55,17.69c.28-.09.32-.33.19-.67-.19,0-.36,0-.52.06s-.37.29-.16.48A.62.62,0,0,0,3.55,17.69Z"/><path class="cls-1" d="M53.59,10.23c.26-.06.33-.23.25-.67l-.79.16C53.21,10.17,53.35,10.29,53.59,10.23Z"/><path class="cls-1" d="M46.43,11.27c.26-.07.33-.25.25-.63l-.77.12C46,11.2,46.18,11.32,46.43,11.27Z"/><path class="cls-1" d="M67.84,8.06c.25,0,.37-.19.34-.6l-.77.09C67.38,7.92,67.56,8.05,67.84,8.06Z"/><path class="cls-1" d="M60.74,9.13c.29-.07.38-.26.3-.61l-.81.12C60.36,9.08,60.48,9.19,60.74,9.13Z"/><path class="cls-1" d="M39.32,12.32c.25-.08.33-.27.24-.6l-.43,0a1.11,1.11,0,0,0-.17,0,.22.22,0,0,0-.14.38A.39.39,0,0,0,39.32,12.32Z"/><path class="cls-1" d="M75.12,6.94a.39.39,0,0,0,.24-.55l-.41,0-.42.09C74.73,6.93,74.88,7,75.12,6.94Z"/><path class="cls-1" d="M89.48,4.84c.24-.08.29-.24.19-.57l-.6.08s-.09.06-.13.09C89.09,4.81,89.24,4.92,89.48,4.84Z"/><path class="cls-1" d="M82.26,5.88c.24,0,.39-.21.33-.55l-.84.1C81.83,5.8,82,5.93,82.26,5.88Z"/><path class="cls-1" d="M96.58,3.75c.27,0,.38-.22.32-.54l-.83.1C96.12,3.64,96.28,3.79,96.58,3.75Z"/><path class="cls-1" d="M103.75,2.67c.22,0,.35-.21.33-.53-.32,0-.61,0-.85.22C103.36,2.59,103.51,2.73,103.75,2.67Z"/><path class="cls-1" d="M110.94,1.58c.22-.06.34-.21.28-.51l-.84.13C110.5,1.56,110.7,1.64,110.94,1.58Z"/><path class="cls-1" d="M118.5,0l-1,.15C117.94.66,118.12.64,118.5,0Z"/><path class="cls-1" d="M0,29.06v1.19C.43,29.68.42,29.44,0,29.06Z"/><rect class="cls-1" x="118.84" y="24.43" width="0.04" height="0.42"/></g></g></svg>