<?xml version="1.0" encoding="UTF-8" standalone="no"?>
<svg
   xmlns:dc="http://purl.org/dc/elements/1.1/"
   xmlns:cc="http://creativecommons.org/ns#"
   xmlns:rdf="http://www.w3.org/1999/02/22-rdf-syntax-ns#"
   xmlns:svg="http://www.w3.org/2000/svg"
   xmlns="http://www.w3.org/2000/svg"
   xmlns:sodipodi="http://sodipodi.sourceforge.net/DTD/sodipodi-0.dtd"
   xmlns:inkscape="http://www.inkscape.org/namespaces/inkscape"
   viewBox="0 0 76.23 23.05"
   version="1.1"
   id="svg2216"
   sodipodi:docname="logo.svg"
   inkscape:version="0.92.4 5da689c313, 2019-01-14">
  <metadata
     id="metadata2220">
    <rdf:RDF>
      <cc:Work
         rdf:about="">
        <dc:format>image/svg+xml</dc:format>
        <dc:type
           rdf:resource="http://purl.org/dc/dcmitype/StillImage" />
      </cc:Work>
    </rdf:RDF>
  </metadata>
  <sodipodi:namedview
     pagecolor="#ffffff"
     bordercolor="#666666"
     borderopacity="1"
     objecttolerance="10"
     gridtolerance="10"
     guidetolerance="10"
     inkscape:pageopacity="0"
     inkscape:pageshadow="2"
     inkscape:window-width="1920"
     inkscape:window-height="968"
     id="namedview2218"
     showgrid="false"
     inkscape:zoom="16.288593"
     inkscape:cx="38.115002"
     inkscape:cy="14.997893"
     inkscape:window-x="0"
     inkscape:window-y="34"
     inkscape:window-maximized="1"
     inkscape:current-layer="svg2216" />
  <defs
     id="defs2168">
    <style
       id="style2166">.cls-1{fill:#c6027b;}.cls-2{fill:#3f1b53;}.cls-3{fill:#ff5722;}</style>
  </defs>
  <title
     id="title2170">Asset 1PARTICIPA</title>
  <g
     id="g2324">
    <path
       inkscape:connector-curvature="0"
       id="path2300"
       d="M 70.160002,2.1899994 V -5.8146972e-7 H 6.0800012 V 11.429999 L 1.1784668e-6,19.86 H 6.0800012 v 3.19 H 70.160002 V 10.619999 l 6.07,-8.4299996 z"
       style="fill:#ffffff" />
    <path
       style="fill:#c6027b"
       inkscape:connector-curvature="0"
       id="path2172"
       d="m 10.55,12.82 h 0.72 V 6.2 L 10.55,6.05 V 5.33 l 2.67,-0.54 v 1.09 h 0.07 A 1.84,1.84 0 0 1 13.89,5.12 1.74,1.74 0 0 1 15,4.79 2.3,2.3 0 0 1 16,5 a 2.37,2.37 0 0 1 0.81,0.67 3.2,3.2 0 0 1 0.5,1 5.12,5.12 0 0 1 0.17,1.34 5.06,5.06 0 0 1 -0.17,1.34 3.24,3.24 0 0 1 -0.5,1 2.49,2.49 0 0 1 -0.81,0.67 2.3,2.3 0 0 1 -1.06,0.24 1.7,1.7 0 0 1 -1.68,-1.06 h -0.07 v 2.5 h 1 v 0.82 h -3.64 z m 3.68,-2.58 A 1.1,1.1 0 0 0 15,9.91 a 1.32,1.32 0 0 0 0.34,-1 V 7.24 A 1.32,1.32 0 0 0 15,6.24 1.1,1.1 0 0 0 14.19,5.91 1,1 0 0 0 13.13,7 v 2.15 a 1,1 0 0 0 1.1,1.09 z"
       class="cls-1" />
    <path
       style="fill:#c6027b"
       inkscape:connector-curvature="0"
       id="path2174"
       d="M 20.52,11.38 A 2.09,2.09 0 0 1 19,10.91 1.85,1.85 0 0 1 18.53,9.57 1.54,1.54 0 0 1 19.25,8.18 3.74,3.74 0 0 1 21.34,7.71 h 0.85 V 7 a 1.75,1.75 0 0 0 -0.28,-1.09 1.14,1.14 0 0 0 -1,-0.37 2.5,2.5 0 0 0 -0.42,0 1.26,1.26 0 0 0 -0.31,0.09 V 5.7 A 0.75,0.75 0 0 1 20.42,5.91 0.72,0.72 0 0 1 20.53,6.33 0.86,0.86 0 0 1 20.29,6.95 0.93,0.93 0 0 1 19.58,7.2 0.82,0.82 0 0 1 19,7 0.92,0.92 0 0 1 18.76,6.35 a 1.14,1.14 0 0 1 0.17,-0.57 1.67,1.67 0 0 1 0.52,-0.5 2.75,2.75 0 0 1 0.86,-0.36 4.63,4.63 0 0 1 1.18,-0.13 3,3 0 0 1 2,0.57 2,2 0 0 1 0.65,1.64 v 3.47 h 0.72 v 0.71 a 1.91,1.91 0 0 1 -0.57,0.18 3.26,3.26 0 0 1 -0.7,0.07 1.22,1.22 0 0 1 -1,-0.31 1.11,1.11 0 0 1 -0.28,-0.77 H 22.3 c -0.06,0.12 -0.14,0.25 -0.22,0.39 a 1.36,1.36 0 0 1 -0.33,0.35 1.56,1.56 0 0 1 -0.5,0.25 2.26,2.26 0 0 1 -0.73,0.04 z m 0.74,-1.12 a 1.08,1.08 0 0 0 0.68,-0.19 0.81,0.81 0 0 0 0.25,-0.69 V 8.45 h -0.64 a 1.25,1.25 0 0 0 -0.83,0.24 0.82,0.82 0 0 0 -0.28,0.67 v 0.18 a 0.65,0.65 0 0 0 0.23,0.55 0.92,0.92 0 0 0 0.59,0.17 z"
       class="cls-1" />
    <path
       style="fill:#c6027b"
       inkscape:connector-curvature="0"
       id="path2176"
       d="m 25.63,10.42 h 0.71 V 6.2 L 25.63,6 V 5.32 L 28.25,4.79 V 6 h 0.05 a 1.87,1.87 0 0 1 0.55,-0.84 1.44,1.44 0 0 1 1,-0.34 1.35,1.35 0 0 1 0.95,0.32 1.18,1.18 0 0 1 0.33,0.88 A 1.09,1.09 0 0 1 30.88,6.8 1,1 0 0 1 30.13,7.08 0.94,0.94 0 0 1 29.43,6.84 0.78,0.78 0 0 1 29.2,6.27 0.5,0.5 0 0 1 29.26,6 0.29,0.29 0 0 1 29.4,5.85 V 5.78 H 29.32 A 0.72,0.72 0 0 0 28.96,5.89 1.23,1.23 0 0 0 28.63,6.17 1.69,1.69 0 0 0 28.4,6.53 1,1 0 0 0 28.31,6.92 v 3.52 h 1 v 0.82 h -3.68 z"
       class="cls-1" />
    <path
       style="fill:#c6027b"
       inkscape:connector-curvature="0"
       id="path2178"
       d="m 34,11.36 c -1,0 -1.45,-0.42 -1.45,-1.26 V 5.8 H 31.7 V 4.94 H 32 A 0.85,0.85 0 0 0 32.59,4.75 1.45,1.45 0 0 0 33,4.23 l 0.53,-1.05 h 1 v 1.76 h 1.39 V 5.8 h -1.43 v 4.6 h 1.39 v 0.74 A 3.32,3.32 0 0 1 35.17,11.28 8.06,8.06 0 0 1 34,11.36 Z"
       class="cls-1" />
    <path
       style="fill:#c6027b"
       inkscape:connector-curvature="0"
       id="path2180"
       d="m 36.64,10.42 h 0.72 V 6.2 L 36.64,6 V 5.32 L 39.3,4.79 v 5.63 H 40 v 0.82 H 36.64 Z M 38.32,4.17 A 1.21,1.21 0 0 1 37.49,3.89 1,1 0 0 1 37.19,3.11 V 3.05 a 1,1 0 0 1 0.3,-0.77 1.35,1.35 0 0 1 1.67,0 1,1 0 0 1 0.3,0.77 v 0.06 a 1,1 0 0 1 -0.3,0.78 1.21,1.21 0 0 1 -0.84,0.28 z"
       class="cls-1" />
    <path
       style="fill:#c6027b"
       inkscape:connector-curvature="0"
       id="path2182"
       d="m 44,11.38 a 3.6,3.6 0 0 1 -1.37,-0.25 2.7,2.7 0 0 1 -1,-0.7 2.8,2.8 0 0 1 -0.6,-1 3.94,3.94 0 0 1 -0.21,-1.3 3.65,3.65 0 0 1 0.26,-1.41 2.83,2.83 0 0 1 0.71,-1 A 2.86,2.86 0 0 1 42.83,5 3.81,3.81 0 0 1 44.15,4.78 2.91,2.91 0 0 1 45.89,5.24 1.4,1.4 0 0 1 46.5,6.4 1,1 0 0 1 46.24,7.14 1,1 0 0 1 45.52,7.41 1,1 0 0 1 44.81,7.18 0.81,0.81 0 0 1 44.56,6.56 0.86,0.86 0 0 1 44.72,6 1,1 0 0 1 45.09,5.7 V 5.67 L 44.81,5.6 a 2.26,2.26 0 0 0 -0.42,0 1.44,1.44 0 0 0 -1.14,0.4 1.9,1.9 0 0 0 -0.41,1.31 v 1.31 a 1.66,1.66 0 0 0 0.37,1.16 1.31,1.31 0 0 0 1,0.4 1.66,1.66 0 0 0 1.64,-1 l 0.71,0.4 a 3.65,3.65 0 0 1 -0.31,0.63 2.65,2.65 0 0 1 -0.53,0.59 2.45,2.45 0 0 1 -0.76,0.44 2.8,2.8 0 0 1 -0.96,0.14 z"
       class="cls-1" />
    <path
       style="fill:#c6027b"
       inkscape:connector-curvature="0"
       id="path2184"
       d="m 47.36,10.42 h 0.72 V 6.2 L 47.36,6 V 5.32 L 50,4.79 v 5.63 h 0.72 v 0.82 H 47.36 Z M 49,4.17 A 1.19,1.19 0 0 1 48.17,3.89 1,1 0 0 1 47.87,3.11 V 3.05 A 1,1 0 0 1 48.17,2.28 1.15,1.15 0 0 1 49,2 a 1.17,1.17 0 0 1 0.84,0.29 1,1 0 0 1 0.3,0.77 V 3.12 A 1,1 0 0 1 49.84,3.9 1.21,1.21 0 0 1 49,4.17 Z"
       class="cls-1" />
    <path
       style="fill:#c6027b"
       inkscape:connector-curvature="0"
       id="path2186"
       d="M 51.38,12.82 H 52.1 V 6.2 L 51.38,6.05 V 5.33 L 54,4.79 v 1.09 h 0.07 a 1.84,1.84 0 0 1 0.6,-0.76 1.74,1.74 0 0 1 1.08,-0.33 2.3,2.3 0 0 1 1.87,0.91 3,3 0 0 1 0.5,1 4.72,4.72 0 0 1 0.18,1.34 4.67,4.67 0 0 1 -0.18,1.34 3,3 0 0 1 -0.5,1 2.39,2.39 0 0 1 -0.81,0.67 2.3,2.3 0 0 1 -1.06,0.24 1.79,1.79 0 0 1 -1.1,-0.32 1.77,1.77 0 0 1 -0.58,-0.74 H 54 v 2.5 h 1 v 0.82 h -3.62 z m 3.67,-2.58 a 1.1,1.1 0 0 0 0.81,-0.33 1.28,1.28 0 0 0 0.34,-1 V 7.24 a 1.28,1.28 0 0 0 -0.34,-1 1.17,1.17 0 0 0 -1.6,0 A 1.06,1.06 0 0 0 54,7 v 2.15 a 1.06,1.06 0 0 0 0.3,0.79 1.09,1.09 0 0 0 0.75,0.3 z"
       class="cls-1" />
    <path
       style="fill:#c6027b"
       inkscape:connector-curvature="0"
       id="path2188"
       d="M 61.35,11.38 A 2.12,2.12 0 0 1 59.82,10.91 1.85,1.85 0 0 1 59.36,9.57 1.53,1.53 0 0 1 60.07,8.18 3.76,3.76 0 0 1 62.16,7.71 H 63 V 7 a 1.75,1.75 0 0 0 -0.29,-1.09 1.12,1.12 0 0 0 -1,-0.37 2.63,2.63 0 0 0 -0.43,0 1.18,1.18 0 0 0 -0.3,0.09 V 5.7 A 0.73,0.73 0 0 1 61.21,5.91 0.66,0.66 0 0 1 61.32,6.33 0.86,0.86 0 0 1 61.08,6.95 0.91,0.91 0 0 1 60.38,7.2 0.79,0.79 0 0 1 59.81,7 0.88,0.88 0 0 1 59.56,6.35 1.14,1.14 0 0 1 59.73,5.78 1.67,1.67 0 0 1 60.25,5.28 2.85,2.85 0 0 1 61.11,4.92 4.71,4.71 0 0 1 62.3,4.79 3,3 0 0 1 64.3,5.36 2,2 0 0 1 65,7 v 3.47 h 0.72 v 0.71 a 1.75,1.75 0 0 1 -0.56,0.18 3.42,3.42 0 0 1 -0.71,0.07 1.22,1.22 0 0 1 -1,-0.31 1.11,1.11 0 0 1 -0.28,-0.77 h -0.05 a 4.09,4.09 0 0 1 -0.22,0.39 1.21,1.21 0 0 1 -0.33,0.35 1.38,1.38 0 0 1 -0.5,0.25 2.2,2.2 0 0 1 -0.72,0.04 z m 0.73,-1.12 A 1.06,1.06 0 0 0 62.76,10.07 0.81,0.81 0 0 0 63,9.38 V 8.45 h -0.65 a 1.22,1.22 0 0 0 -0.82,0.24 0.83,0.83 0 0 0 -0.29,0.67 v 0.18 a 0.65,0.65 0 0 0 0.23,0.55 0.92,0.92 0 0 0 0.61,0.17 z"
       class="cls-1" />
    <path
       style="fill:#3f1b53"
       inkscape:connector-curvature="0"
       id="path2190"
       d="m 12.06,19.7 a 1.63,1.63 0 0 1 -1.18,-0.36 1.42,1.42 0 0 1 -0.36,-1 1.22,1.22 0 0 1 0.55,-1.08 3,3 0 0 1 1.62,-0.36 h 0.66 v -0.52 a 1.4,1.4 0 0 0 -0.22,-0.84 0.9,0.9 0 0 0 -0.75,-0.28 1.62,1.62 0 0 0 -0.33,0 0.88,0.88 0 0 0 -0.23,0.07 v 0 a 0.7,0.7 0 0 1 0.18,0.17 0.49,0.49 0 0 1 0.09,0.32 0.65,0.65 0 0 1 -0.19,0.48 0.7,0.7 0 0 1 -0.54,0.19 0.66,0.66 0 0 1 -0.49,-0.2 0.68,0.68 0 0 1 -0.19,-0.5 0.82,0.82 0 0 1 0.14,-0.44 1.12,1.12 0 0 1 0.39,-0.39 2.22,2.22 0 0 1 0.66,-0.27 3.63,3.63 0 0 1 0.92,-0.11 2.32,2.32 0 0 1 1.56,0.44 1.58,1.58 0 0 1 0.49,1.23 V 19 h 0.56 v 0.55 a 1.42,1.42 0 0 1 -0.44,0.14 2.47,2.47 0 0 1 -0.54,0.05 1,1 0 0 1 -0.74,-0.24 0.85,0.85 0 0 1 -0.21,-0.59 v 0 c 0,0.1 -0.11,0.2 -0.17,0.3 a 1,1 0 0 1 -0.26,0.27 1,1 0 0 1 -0.39,0.2 1.75,1.75 0 0 1 -0.59,0.02 z m 0.56,-0.86 a 0.9,0.9 0 0 0 0.53,-0.14 0.65,0.65 0 0 0 0.2,-0.54 v -0.71 h -0.5 a 1,1 0 0 0 -0.64,0.18 0.64,0.64 0 0 0 -0.22,0.51 v 0.14 a 0.5,0.5 0 0 0 0.18,0.43 0.73,0.73 0 0 0 0.45,0.13 z"
       class="cls-2" />
    <path
       style="fill:#3f1b53"
       inkscape:connector-curvature="0"
       id="path2192"
       d="M 18,19.7 A 1.83,1.83 0 0 1 17.18,19.52 1.94,1.94 0 0 1 16.56,19 a 2.39,2.39 0 0 1 -0.39,-0.8 3.72,3.72 0 0 1 -0.13,-1 3.8,3.8 0 0 1 0.13,-1 2.39,2.39 0 0 1 0.39,-0.8 1.77,1.77 0 0 1 1.44,-0.78 1.35,1.35 0 0 1 0.84,0.25 1.3,1.3 0 0 1 0.45,0.58 h 0.06 v -1.9 l -0.56,-0.12 v -0.55 l 2.06,-0.41 v 6.15 l 0.56,0.12 v 0.56 l -2.06,0.4 V 18.87 H 19.29 A 1.34,1.34 0 0 1 18,19.7 Z m 0.51,-0.88 a 0.8,0.8 0 0 0 0.84,-0.83 v -1.65 a 0.82,0.82 0 0 0 -0.24,-0.61 0.83,0.83 0 0 0 -0.6,-0.23 0.86,0.86 0 0 0 -0.63,0.26 1,1 0 0 0 -0.26,0.75 v 1.31 a 1,1 0 0 0 0.26,0.75 0.85,0.85 0 0 0 0.63,0.25 z"
       class="cls-2" />
    <path
       style="fill:#3f1b53"
       inkscape:connector-curvature="0"
       id="path2194"
       d="m 24.41,19.7 a 2.61,2.61 0 0 1 -1,-0.17 2.26,2.26 0 0 1 -0.76,-0.49 2.3,2.3 0 0 1 -0.49,-0.8 3.48,3.48 0 0 1 0,-2.15 2.3,2.3 0 0 1 0.49,-0.8 2.11,2.11 0 0 1 0.76,-0.49 2.79,2.79 0 0 1 2,0 2,2 0 0 1 0.76,0.49 2.16,2.16 0 0 1 0.49,0.8 3.48,3.48 0 0 1 0,2.15 2.07,2.07 0 0 1 -1.25,1.29 2.59,2.59 0 0 1 -1,0.17 z m 0,-0.68 a 0.78,0.78 0 0 0 0.61,-0.24 1.1,1.1 0 0 0 0.21,-0.73 v -1.77 a 1.08,1.08 0 0 0 -0.21,-0.73 0.78,0.78 0 0 0 -0.61,-0.24 0.76,0.76 0 0 0 -0.61,0.24 1.08,1.08 0 0 0 -0.22,0.73 v 1.77 a 1.1,1.1 0 0 0 0.22,0.73 0.76,0.76 0 0 0 0.61,0.22 z"
       class="cls-2" />
    <path
       style="fill:#3f1b53"
       inkscape:connector-curvature="0"
       id="path2196"
       d="M 27.41,19 H 28 V 13.55 L 27.44,13.43 V 12.88 L 29.5,12.47 V 19 H 30 v 0.63 h -2.59 z"
       class="cls-2" />
    <path
       style="fill:#3f1b53"
       inkscape:connector-curvature="0"
       id="path2198"
       d="m 33.07,19.7 a 2.61,2.61 0 0 1 -1,-0.19 1.93,1.93 0 0 1 -0.77,-0.53 2.15,2.15 0 0 1 -0.47,-0.8 3,3 0 0 1 -0.17,-1 3.14,3.14 0 0 1 0.17,-1.06 2.14,2.14 0 0 1 0.48,-0.8 2,2 0 0 1 0.74,-0.5 2.54,2.54 0 0 1 1,-0.18 2.93,2.93 0 0 1 1,0.16 2.15,2.15 0 0 1 0.73,0.45 2,2 0 0 1 0.45,0.7 2.52,2.52 0 0 1 0.17,0.93 v 0.33 h -3.19 v 0.39 a 1.15,1.15 0 0 0 0.32,0.9 1.22,1.22 0 0 0 0.86,0.3 1.36,1.36 0 0 0 0.81,-0.23 1.26,1.26 0 0 0 0.44,-0.54 l 0.54,0.32 a 2.65,2.65 0 0 1 -0.25,0.46 1.79,1.79 0 0 1 -0.42,0.45 1.88,1.88 0 0 1 -0.61,0.33 2.37,2.37 0 0 1 -0.83,0.11 z m -0.86,-3.11 h 1.54 v -0.13 a 1.5,1.5 0 0 0 -0.21,-0.92 0.68,0.68 0 0 0 -0.55,-0.26 0.73,0.73 0 0 0 -0.57,0.26 1.48,1.48 0 0 0 -0.21,0.92 z"
       class="cls-2" />
    <path
       style="fill:#3f1b53"
       inkscape:connector-curvature="0"
       id="path2200"
       d="m 38.15,19.7 a 1.43,1.43 0 0 1 -0.81,-0.19 0.73,0.73 0 0 1 -0.33,-0.42 v 0 0.5 H 36 v -1.44 h 1 v 0.15 a 0.65,0.65 0 0 0 0.23,0.53 1.17,1.17 0 0 0 0.73,0.18 1.18,1.18 0 0 0 0.65,-0.14 0.45,0.45 0 0 0 0.2,-0.41 0.42,0.42 0 0 0 -0.15,-0.34 1.12,1.12 0 0 0 -0.49,-0.22 l -0.44,-0.11 a 2.62,2.62 0 0 1 -1.23,-0.6 1.35,1.35 0 0 1 -0.39,-1 1.39,1.39 0 0 1 0.5,-1.14 2,2 0 0 1 1.3,-0.41 1.36,1.36 0 0 1 0.77,0.19 0.85,0.85 0 0 1 0.34,0.43 v 0 -0.5 h 1 V 16.2 H 39 V 16 a 0.64,0.64 0 0 0 -0.22,-0.53 1.15,1.15 0 0 0 -0.72,-0.18 0.8,0.8 0 0 0 -0.51,0.13 0.41,0.41 0 0 0 -0.17,0.36 0.49,0.49 0 0 0 0.13,0.37 1.31,1.31 0 0 0 0.53,0.24 l 0.4,0.1 a 6.4,6.4 0 0 1 0.7,0.23 1.77,1.77 0 0 1 0.52,0.32 1.25,1.25 0 0 1 0.31,0.44 1.81,1.81 0 0 1 0.1,0.61 1.67,1.67 0 0 1 -0.14,0.69 1.35,1.35 0 0 1 -0.4,0.49 1.93,1.93 0 0 1 -0.61,0.3 2.8,2.8 0 0 1 -0.77,0.13 z"
       class="cls-2" />
    <path
       style="fill:#3f1b53"
       inkscape:connector-curvature="0"
       id="path2202"
       d="m 43.25,19.7 a 2.62,2.62 0 0 1 -1,-0.19 2,2 0 0 1 -0.76,-0.54 2.33,2.33 0 0 1 -0.47,-0.81 3.22,3.22 0 0 1 -0.15,-1 2.68,2.68 0 0 1 0.2,-1.09 2.21,2.21 0 0 1 1.37,-1.28 3,3 0 0 1 1,-0.17 2.18,2.18 0 0 1 1.34,0.36 1.1,1.1 0 0 1 0.47,0.89 0.81,0.81 0 0 1 -0.2,0.57 0.75,0.75 0 0 1 -0.56,0.21 0.77,0.77 0 0 1 -0.54,-0.18 0.63,0.63 0 0 1 -0.2,-0.48 0.6,0.6 0 0 1 0.13,-0.4 0.68,0.68 0 0 1 0.28,-0.23 V 15.3 l -0.21,-0.05 a 1.52,1.52 0 0 0 -0.33,0 1.12,1.12 0 0 0 -0.88,0.34 1.47,1.47 0 0 0 -0.31,1 v 1 a 1.25,1.25 0 0 0 0.28,0.89 1,1 0 0 0 0.79,0.31 1.32,1.32 0 0 0 0.83,-0.24 1.34,1.34 0 0 0 0.44,-0.57 l 0.55,0.32 a 3.57,3.57 0 0 1 -0.24,0.48 2,2 0 0 1 -0.41,0.46 2,2 0 0 1 -0.59,0.34 2.2,2.2 0 0 1 -0.83,0.12 z"
       class="cls-2" />
    <path
       style="fill:#3f1b53"
       inkscape:connector-curvature="0"
       id="path2204"
       d="m 48.28,19.7 a 2.64,2.64 0 0 1 -1,-0.19 2.08,2.08 0 0 1 -0.77,-0.53 2.45,2.45 0 0 1 -0.47,-0.8 3.3,3.3 0 0 1 -0.16,-1 3.14,3.14 0 0 1 0.12,-1.08 2.26,2.26 0 0 1 0.47,-0.8 2.15,2.15 0 0 1 0.75,-0.5 2.5,2.5 0 0 1 1,-0.18 2.93,2.93 0 0 1 1,0.16 2.1,2.1 0 0 1 0.72,0.45 2,2 0 0 1 0.46,0.7 2.52,2.52 0 0 1 0.16,0.93 v 0.33 h -3.14 v 0.39 a 1.16,1.16 0 0 0 0.33,0.9 1.2,1.2 0 0 0 0.86,0.3 1.36,1.36 0 0 0 0.81,-0.23 1.34,1.34 0 0 0 0.44,-0.54 l 0.53,0.32 a 2.56,2.56 0 0 1 -0.24,0.46 1.79,1.79 0 0 1 -0.42,0.45 1.88,1.88 0 0 1 -0.61,0.33 2.43,2.43 0 0 1 -0.84,0.13 z M 47.42,16.59 H 49 v -0.13 a 1.5,1.5 0 0 0 -0.21,-0.92 0.68,0.68 0 0 0 -0.55,-0.26 0.7,0.7 0 0 0 -0.57,0.26 1.41,1.41 0 0 0 -0.22,0.92 z"
       class="cls-2" />
    <path
       style="fill:#3f1b53"
       inkscape:connector-curvature="0"
       id="path2206"
       d="m 51.2,19 h 0.55 V 15.71 L 51.2,15.59 V 15 l 2,-0.41 v 0.93 h 0.06 a 1.51,1.51 0 0 1 0.18,-0.36 1.1,1.1 0 0 1 0.28,-0.29 1.31,1.31 0 0 1 0.41,-0.2 1.69,1.69 0 0 1 0.53,-0.08 1.59,1.59 0 0 1 1.28,0.45 2.07,2.07 0 0 1 0.37,1.35 V 19 h 0.56 v 0.63 H 54.32 V 19 h 0.51 v -2.53 a 1,1 0 0 0 -0.16,-0.67 0.69,0.69 0 0 0 -0.56,-0.2 1.1,1.1 0 0 0 -0.31,0 1,1 0 0 0 -0.28,0.12 0.7,0.7 0 0 0 -0.2,0.22 0.66,0.66 0 0 0 -0.07,0.32 V 19 h 0.51 v 0.63 H 51.2 Z"
       class="cls-2" />
    <path
       style="fill:#3f1b53"
       inkscape:connector-curvature="0"
       id="path2208"
       d="m 59.1,19.68 c -0.75,0 -1.12,-0.32 -1.12,-1 V 15.4 h -0.66 v -0.66 h 0.27 A 0.65,0.65 0 0 0 58,14.6 1.35,1.35 0 0 0 58.29,14.19 l 0.41,-0.8 h 0.73 v 1.35 h 1.08 v 0.66 h -1.04 v 3.54 h 1.08 v 0.58 A 3.43,3.43 0 0 1 60,19.63 6.17,6.17 0 0 1 59.1,19.68 Z"
       class="cls-2" />
    <path
       style="fill:#3f1b53"
       inkscape:connector-curvature="0"
       id="path2210"
       d="m 63.49,19.7 a 2.61,2.61 0 0 1 -1,-0.19 2,2 0 0 1 -0.77,-0.53 2.29,2.29 0 0 1 -0.47,-0.8 3,3 0 0 1 -0.16,-1 3.15,3.15 0 0 1 0.16,-1.06 2.28,2.28 0 0 1 0.48,-0.8 2.2,2.2 0 0 1 0.74,-0.5 2.55,2.55 0 0 1 1,-0.18 2.82,2.82 0 0 1 1,0.16 2.15,2.15 0 0 1 0.73,0.45 2,2 0 0 1 0.46,0.7 2.52,2.52 0 0 1 0.16,0.93 v 0.33 h -3.19 v 0.39 a 1.19,1.19 0 0 0 0.32,0.9 1.23,1.23 0 0 0 0.86,0.3 1.32,1.32 0 0 0 0.81,-0.23 1.19,1.19 0 0 0 0.44,-0.54 l 0.54,0.32 a 2.65,2.65 0 0 1 -0.25,0.46 1.58,1.58 0 0 1 -0.41,0.45 1.93,1.93 0 0 1 -0.62,0.33 2.37,2.37 0 0 1 -0.83,0.11 z m -0.86,-3.11 h 1.54 v -0.13 a 1.58,1.58 0 0 0 -0.2,-0.92 0.69,0.69 0 0 0 -0.55,-0.26 0.7,0.7 0 0 0 -0.57,0.26 1.41,1.41 0 0 0 -0.22,0.92 z"
       class="cls-2" />
    <path
       style="fill:#ff5722"
       inkscape:connector-curvature="0"
       id="path2212"
       d="M 70.16,2.19 V 0 H 6.08 V 11.43 L 0,19.86 h 6.08 v 3.19 H 70.16 V 10.62 l 6.07,-8.43 z m -1,8.11 V 22.06 H 7.06 V 18.88 H 1.92 L 7.06,11.75 V 1 h 62.11 v 2.17 h 5.14 z"
       class="cls-3" />
  </g>
</svg>
