<svg xmlns="http://www.w3.org/2000/svg" viewBox="0 0 76.23 23.05"><defs><style>.cls-1{fill:#c6027b;}.cls-2{fill:#3f1b53;}.cls-3{fill:#ff5722;}</style></defs><title>Asset 1PARTICIPA</title><g id="Layer_2" data-name="Layer 2"><g id="Layer_1-2" data-name="Layer 1"><path class="cls-1" d="M10.55,12.82h.72V6.2l-.72-.15V5.33l2.67-.54V5.88h.07a1.84,1.84,0,0,1,.6-.76A1.74,1.74,0,0,1,15,4.79,2.3,2.3,0,0,1,16,5a2.37,2.37,0,0,1,.81.67,3.2,3.2,0,0,1,.5,1,5.12,5.12,0,0,1,.17,1.34,5.06,5.06,0,0,1-.17,1.34,3.24,3.24,0,0,1-.5,1,2.49,2.49,0,0,1-.81.67,2.3,2.3,0,0,1-1.06.24,1.7,1.7,0,0,1-1.68-1.06h-.07v2.5h1v.82H10.55Zm3.68-2.58A1.1,1.1,0,0,0,15,9.91a1.32,1.32,0,0,0,.34-1V7.24a1.32,1.32,0,0,0-.34-1,1.1,1.1,0,0,0-.81-.33A1,1,0,0,0,13.13,7V9.15a1,1,0,0,0,1.1,1.09Z"/><path class="cls-1" d="M20.52,11.38A2.09,2.09,0,0,1,19,10.91a1.85,1.85,0,0,1-.47-1.34,1.54,1.54,0,0,1,.72-1.39,3.74,3.74,0,0,1,2.09-.47h.85V7a1.75,1.75,0,0,0-.28-1.09,1.14,1.14,0,0,0-1-.37,2.5,2.5,0,0,0-.42,0,1.26,1.26,0,0,0-.31.09v.07a.75.75,0,0,1,.24.21.72.72,0,0,1,.11.42.86.86,0,0,1-.24.62.93.93,0,0,1-.71.25A.82.82,0,0,1,19,7a.92.92,0,0,1-.24-.65,1.14,1.14,0,0,1,.17-.57,1.67,1.67,0,0,1,.52-.5,2.75,2.75,0,0,1,.86-.36,4.63,4.63,0,0,1,1.18-.13,3,3,0,0,1,2,.57A2,2,0,0,1,24.14,7v3.47h.72v.71a1.91,1.91,0,0,1-.57.18,3.26,3.26,0,0,1-.7.07,1.22,1.22,0,0,1-1-.31,1.11,1.11,0,0,1-.28-.77H22.3c-.06.12-.14.25-.22.39a1.36,1.36,0,0,1-.33.35,1.56,1.56,0,0,1-.5.25A2.26,2.26,0,0,1,20.52,11.38Zm.74-1.12a1.08,1.08,0,0,0,.68-.19.81.81,0,0,0,.25-.69V8.45h-.64a1.25,1.25,0,0,0-.83.24.82.82,0,0,0-.28.67v.18a.65.65,0,0,0,.23.55A.92.92,0,0,0,21.26,10.26Z"/><path class="cls-1" d="M25.63,10.42h.71V6.2L25.63,6V5.32l2.62-.53V6h.05a1.87,1.87,0,0,1,.55-.84,1.44,1.44,0,0,1,1-.34,1.35,1.35,0,0,1,.95.32,1.18,1.18,0,0,1,.33.88,1.09,1.09,0,0,1-.25.78,1,1,0,0,1-.75.28.94.94,0,0,1-.7-.24.78.78,0,0,1-.23-.57A.5.5,0,0,1,29.26,6a.29.29,0,0,1,.14-.15l0-.07-.08,0a.72.72,0,0,0-.36.11,1.23,1.23,0,0,0-.33.28,1.69,1.69,0,0,0-.23.36,1,1,0,0,0-.09.39v3.52h1v.82H25.63Z"/><path class="cls-1" d="M34,11.36c-1,0-1.45-.42-1.45-1.26V5.8H31.7V4.94H32a.85.85,0,0,0,.59-.19A1.45,1.45,0,0,0,33,4.23l.53-1.05h1V4.94h1.39V5.8H34.49v4.6h1.39v.74a3.32,3.32,0,0,1-.71.14A8.06,8.06,0,0,1,34,11.36Z"/><path class="cls-1" d="M36.64,10.42h.72V6.2L36.64,6V5.32l2.66-.53v5.63H40v.82H36.64Zm1.68-6.25a1.21,1.21,0,0,1-.83-.28,1,1,0,0,1-.3-.78V3.05a1,1,0,0,1,.3-.77,1.35,1.35,0,0,1,1.67,0,1,1,0,0,1,.3.77v.06a1,1,0,0,1-.3.78A1.21,1.21,0,0,1,38.32,4.17Z"/><path class="cls-1" d="M44,11.38a3.6,3.6,0,0,1-1.37-.25,2.7,2.7,0,0,1-1-.7,2.8,2.8,0,0,1-.6-1,3.94,3.94,0,0,1-.21-1.3,3.65,3.65,0,0,1,.26-1.41,2.83,2.83,0,0,1,.71-1A2.86,2.86,0,0,1,42.83,5a3.81,3.81,0,0,1,1.32-.22,2.91,2.91,0,0,1,1.74.46,1.4,1.4,0,0,1,.61,1.16,1,1,0,0,1-.26.74,1,1,0,0,1-.72.27,1,1,0,0,1-.71-.23.81.81,0,0,1-.25-.62A.86.86,0,0,1,44.72,6a1,1,0,0,1,.37-.3V5.67l-.28-.07a2.26,2.26,0,0,0-.42,0A1.44,1.44,0,0,0,43.25,6a1.9,1.9,0,0,0-.41,1.31V8.62a1.66,1.66,0,0,0,.37,1.16,1.31,1.31,0,0,0,1,.4,1.66,1.66,0,0,0,1.64-1l.71.4a3.65,3.65,0,0,1-.31.63,2.65,2.65,0,0,1-.53.59,2.45,2.45,0,0,1-.76.44A2.8,2.8,0,0,1,44,11.38Z"/><path class="cls-1" d="M47.36,10.42h.72V6.2L47.36,6V5.32L50,4.79v5.63h.72v.82H47.36ZM49,4.17a1.19,1.19,0,0,1-.83-.28,1,1,0,0,1-.3-.78V3.05a1,1,0,0,1,.3-.77A1.15,1.15,0,0,1,49,2a1.17,1.17,0,0,1,.84.29,1,1,0,0,1,.3.77v.06a1,1,0,0,1-.3.78A1.21,1.21,0,0,1,49,4.17Z"/><path class="cls-1" d="M51.38,12.82h.72V6.2l-.72-.15V5.33L54,4.79V5.88h.07a1.84,1.84,0,0,1,.6-.76,1.74,1.74,0,0,1,1.08-.33,2.3,2.3,0,0,1,1.87.91,3,3,0,0,1,.5,1,4.72,4.72,0,0,1,.18,1.34,4.67,4.67,0,0,1-.18,1.34,3,3,0,0,1-.5,1,2.39,2.39,0,0,1-.81.67,2.3,2.3,0,0,1-1.06.24,1.79,1.79,0,0,1-1.1-.32,1.77,1.77,0,0,1-.58-.74H54v2.5h1v.82H51.38Zm3.67-2.58a1.1,1.1,0,0,0,.81-.33,1.28,1.28,0,0,0,.34-1V7.24a1.28,1.28,0,0,0-.34-1,1.17,1.17,0,0,0-1.6,0A1.06,1.06,0,0,0,54,7V9.15a1.06,1.06,0,0,0,.3.79A1.09,1.09,0,0,0,55.05,10.24Z"/><path class="cls-1" d="M61.35,11.38a2.12,2.12,0,0,1-1.53-.47,1.85,1.85,0,0,1-.46-1.34,1.53,1.53,0,0,1,.71-1.39,3.76,3.76,0,0,1,2.09-.47H63V7a1.75,1.75,0,0,0-.29-1.09,1.12,1.12,0,0,0-1-.37,2.63,2.63,0,0,0-.43,0,1.18,1.18,0,0,0-.3.09v.07a.73.73,0,0,1,.23.21.66.66,0,0,1,.11.42.86.86,0,0,1-.24.62.91.91,0,0,1-.7.25A.79.79,0,0,1,59.81,7a.88.88,0,0,1-.25-.65,1.14,1.14,0,0,1,.17-.57,1.67,1.67,0,0,1,.52-.5,2.85,2.85,0,0,1,.86-.36,4.71,4.71,0,0,1,1.19-.13,3,3,0,0,1,2,.57A2,2,0,0,1,65,7v3.47h.72v.71a1.75,1.75,0,0,1-.56.18,3.42,3.42,0,0,1-.71.07,1.22,1.22,0,0,1-1-.31,1.11,1.11,0,0,1-.28-.77h-.05a4.09,4.09,0,0,1-.22.39,1.21,1.21,0,0,1-.33.35,1.38,1.38,0,0,1-.5.25A2.2,2.2,0,0,1,61.35,11.38Zm.73-1.12a1.06,1.06,0,0,0,.68-.19A.81.81,0,0,0,63,9.38V8.45h-.65a1.22,1.22,0,0,0-.82.24.83.83,0,0,0-.29.67v.18a.65.65,0,0,0,.23.55A.92.92,0,0,0,62.08,10.26Z"/><path class="cls-2" d="M12.06,19.7a1.63,1.63,0,0,1-1.18-.36,1.42,1.42,0,0,1-.36-1,1.22,1.22,0,0,1,.55-1.08,3,3,0,0,1,1.62-.36h.66v-.52a1.4,1.4,0,0,0-.22-.84.9.9,0,0,0-.75-.28,1.62,1.62,0,0,0-.33,0,.88.88,0,0,0-.23.07v0a.7.7,0,0,1,.18.17.49.49,0,0,1,.09.32.65.65,0,0,1-.19.48.7.7,0,0,1-.54.19.66.66,0,0,1-.49-.2.68.68,0,0,1-.19-.5.82.82,0,0,1,.14-.44,1.12,1.12,0,0,1,.39-.39,2.22,2.22,0,0,1,.66-.27,3.63,3.63,0,0,1,.92-.11,2.32,2.32,0,0,1,1.56.44,1.58,1.58,0,0,1,.49,1.23V19h.56v.55a1.42,1.42,0,0,1-.44.14,2.47,2.47,0,0,1-.54.05,1,1,0,0,1-.74-.24.85.85,0,0,1-.21-.59h0c0,.1-.11.2-.17.3a1,1,0,0,1-.26.27,1,1,0,0,1-.39.2A1.75,1.75,0,0,1,12.06,19.7Zm.56-.86a.9.9,0,0,0,.53-.14.65.65,0,0,0,.2-.54v-.71h-.5a1,1,0,0,0-.64.18.64.64,0,0,0-.22.51v.14a.5.5,0,0,0,.18.43A.73.73,0,0,0,12.62,18.84Z"/><path class="cls-2" d="M18,19.7a1.83,1.83,0,0,1-.82-.18,1.94,1.94,0,0,1-.62-.52,2.39,2.39,0,0,1-.39-.8,3.72,3.72,0,0,1-.13-1,3.8,3.8,0,0,1,.13-1,2.39,2.39,0,0,1,.39-.8A1.77,1.77,0,0,1,18,14.62a1.35,1.35,0,0,1,.84.25,1.3,1.3,0,0,1,.45.58h.06v-1.9l-.56-.12v-.55l2.06-.41v6.15l.56.12v.56l-2.06.4v-.83h-.06A1.34,1.34,0,0,1,18,19.7Zm.51-.88a.8.8,0,0,0,.84-.83V16.34a.82.82,0,0,0-.24-.61.83.83,0,0,0-.6-.23.86.86,0,0,0-.63.26,1,1,0,0,0-.26.75v1.31a1,1,0,0,0,.26.75A.85.85,0,0,0,18.51,18.82Z"/><path class="cls-2" d="M24.41,19.7a2.61,2.61,0,0,1-1-.17,2.26,2.26,0,0,1-.76-.49,2.3,2.3,0,0,1-.49-.8,3.48,3.48,0,0,1,0-2.15,2.3,2.3,0,0,1,.49-.8,2.11,2.11,0,0,1,.76-.49,2.79,2.79,0,0,1,2,0,2,2,0,0,1,.76.49,2.16,2.16,0,0,1,.49.8,3.48,3.48,0,0,1,0,2.15,2.07,2.07,0,0,1-1.25,1.29A2.59,2.59,0,0,1,24.41,19.7Zm0-.68a.78.78,0,0,0,.61-.24,1.1,1.1,0,0,0,.21-.73V16.28a1.08,1.08,0,0,0-.21-.73.78.78,0,0,0-.61-.24.76.76,0,0,0-.61.24,1.08,1.08,0,0,0-.22.73v1.77a1.1,1.1,0,0,0,.22.73A.76.76,0,0,0,24.41,19Z"/><path class="cls-2" d="M27.41,19H28V13.55l-.56-.12v-.55l2.06-.41V19H30v.63H27.41Z"/><path class="cls-2" d="M33.07,19.7a2.61,2.61,0,0,1-1-.19,1.93,1.93,0,0,1-.77-.53,2.15,2.15,0,0,1-.47-.8,3,3,0,0,1-.17-1,3.14,3.14,0,0,1,.17-1.06,2.14,2.14,0,0,1,.48-.8,2,2,0,0,1,.74-.5,2.54,2.54,0,0,1,1-.18,2.93,2.93,0,0,1,1,.16,2.15,2.15,0,0,1,.73.45,2,2,0,0,1,.45.7,2.52,2.52,0,0,1,.17.93v.33H32.21v.39a1.15,1.15,0,0,0,.32.9,1.22,1.22,0,0,0,.86.3,1.36,1.36,0,0,0,.81-.23,1.26,1.26,0,0,0,.44-.54l.54.32a2.65,2.65,0,0,1-.25.46,1.79,1.79,0,0,1-.42.45,1.88,1.88,0,0,1-.61.33A2.37,2.37,0,0,1,33.07,19.7Zm-.86-3.11h1.54v-.13a1.5,1.5,0,0,0-.21-.92.68.68,0,0,0-.55-.26.73.73,0,0,0-.57.26,1.48,1.48,0,0,0-.21.92Z"/><path class="cls-2" d="M38.15,19.7a1.43,1.43,0,0,1-.81-.19.73.73,0,0,1-.33-.42h0v.5H36V18.15H37v.15a.65.65,0,0,0,.23.53,1.17,1.17,0,0,0,.73.18,1.18,1.18,0,0,0,.65-.14.45.45,0,0,0,.2-.41.42.42,0,0,0-.15-.34,1.12,1.12,0,0,0-.49-.22l-.44-.11a2.62,2.62,0,0,1-1.23-.6,1.35,1.35,0,0,1-.39-1,1.39,1.39,0,0,1,.5-1.14,2,2,0,0,1,1.3-.41,1.36,1.36,0,0,1,.77.19.85.85,0,0,1,.34.43h0v-.5h1v1.44H39V16a.64.64,0,0,0-.22-.53,1.15,1.15,0,0,0-.72-.18.8.8,0,0,0-.51.13.41.41,0,0,0-.17.36.49.49,0,0,0,.13.37,1.31,1.31,0,0,0,.53.24l.4.1a6.4,6.4,0,0,1,.7.23,1.77,1.77,0,0,1,.52.32,1.25,1.25,0,0,1,.31.44,1.81,1.81,0,0,1,.1.61,1.67,1.67,0,0,1-.14.69,1.35,1.35,0,0,1-.4.49,1.93,1.93,0,0,1-.61.3A2.8,2.8,0,0,1,38.15,19.7Z"/><path class="cls-2" d="M43.25,19.7a2.62,2.62,0,0,1-1-.19,2,2,0,0,1-.76-.54,2.33,2.33,0,0,1-.47-.81,3.22,3.22,0,0,1-.15-1,2.68,2.68,0,0,1,.2-1.09,2.21,2.21,0,0,1,1.37-1.28,3,3,0,0,1,1-.17,2.18,2.18,0,0,1,1.34.36,1.1,1.1,0,0,1,.47.89.81.81,0,0,1-.2.57.75.75,0,0,1-.56.21.77.77,0,0,1-.54-.18.63.63,0,0,1-.2-.48.6.6,0,0,1,.13-.4.68.68,0,0,1,.28-.23V15.3l-.21-.05a1.52,1.52,0,0,0-.33,0,1.12,1.12,0,0,0-.88.34,1.47,1.47,0,0,0-.31,1v1a1.25,1.25,0,0,0,.28.89,1,1,0,0,0,.79.31,1.32,1.32,0,0,0,.83-.24,1.34,1.34,0,0,0,.44-.57l.55.32a3.57,3.57,0,0,1-.24.48,2,2,0,0,1-.41.46,2,2,0,0,1-.59.34A2.2,2.2,0,0,1,43.25,19.7Z"/><path class="cls-2" d="M48.28,19.7a2.64,2.64,0,0,1-1-.19,2.08,2.08,0,0,1-.77-.53,2.45,2.45,0,0,1-.47-.8,3.3,3.3,0,0,1-.16-1A3.14,3.14,0,0,1,46,16.1a2.26,2.26,0,0,1,.47-.8,2.15,2.15,0,0,1,.75-.5,2.5,2.5,0,0,1,1-.18,2.93,2.93,0,0,1,1,.16,2.1,2.1,0,0,1,.72.45,2,2,0,0,1,.46.7,2.52,2.52,0,0,1,.16.93v.33H47.42v.39a1.16,1.16,0,0,0,.33.9,1.2,1.2,0,0,0,.86.3,1.36,1.36,0,0,0,.81-.23,1.34,1.34,0,0,0,.44-.54l.53.32a2.56,2.56,0,0,1-.24.46,1.79,1.79,0,0,1-.42.45,1.88,1.88,0,0,1-.61.33A2.43,2.43,0,0,1,48.28,19.7Zm-.86-3.11H49v-.13a1.5,1.5,0,0,0-.21-.92.68.68,0,0,0-.55-.26.7.7,0,0,0-.57.26,1.41,1.41,0,0,0-.22.92Z"/><path class="cls-2" d="M51.2,19h.55V15.71l-.55-.12V15l2-.41v.93h.06a1.51,1.51,0,0,1,.18-.36,1.1,1.1,0,0,1,.28-.29,1.31,1.31,0,0,1,.41-.2,1.69,1.69,0,0,1,.53-.08,1.59,1.59,0,0,1,1.28.45,2.07,2.07,0,0,1,.37,1.35V19h.56v.63H54.32V19h.51V16.47a1,1,0,0,0-.16-.67.69.69,0,0,0-.56-.2,1.1,1.1,0,0,0-.31,0,1,1,0,0,0-.28.12.7.7,0,0,0-.2.22.66.66,0,0,0-.07.32V19h.51v.63H51.2Z"/><path class="cls-2" d="M59.1,19.68c-.75,0-1.12-.32-1.12-1V15.4h-.66v-.66h.27A.65.65,0,0,0,58,14.6a1.35,1.35,0,0,0,.29-.41l.41-.8h.73v1.35h1.08v.66H59.47v3.54h1.08v.58a3.43,3.43,0,0,1-.55.11A6.17,6.17,0,0,1,59.1,19.68Z"/><path class="cls-2" d="M63.49,19.7a2.61,2.61,0,0,1-1-.19,2,2,0,0,1-.77-.53,2.29,2.29,0,0,1-.47-.8,3,3,0,0,1-.16-1,3.15,3.15,0,0,1,.16-1.06,2.28,2.28,0,0,1,.48-.8,2.2,2.2,0,0,1,.74-.5,2.55,2.55,0,0,1,1-.18,2.82,2.82,0,0,1,1,.16,2.15,2.15,0,0,1,.73.45,2,2,0,0,1,.46.7,2.52,2.52,0,0,1,.16.93v.33H62.63v.39a1.19,1.19,0,0,0,.32.9,1.23,1.23,0,0,0,.86.3,1.32,1.32,0,0,0,.81-.23,1.19,1.19,0,0,0,.44-.54l.54.32a2.65,2.65,0,0,1-.25.46,1.58,1.58,0,0,1-.41.45,1.93,1.93,0,0,1-.62.33A2.37,2.37,0,0,1,63.49,19.7Zm-.86-3.11h1.54v-.13a1.58,1.58,0,0,0-.2-.92.69.69,0,0,0-.55-.26.7.7,0,0,0-.57.26,1.41,1.41,0,0,0-.22.92Z"/><path class="cls-3" d="M70.16,2.19V0H6.08V11.43L0,19.86H6.08v3.19H70.16V10.62l6.07-8.43Zm-1,8.11V22.06H7.06V18.88H1.92l5.14-7.13V1H69.17V3.17h5.14Z"/></g></g></svg>