<svg id="Camada_1" data-name="Camada 1" xmlns="http://www.w3.org/2000/svg" viewBox="0 0 1000 1000">
  <path fill="#00d876"
    d="M797.41,388.84C753.82,271.13,666,202.43,541.15,184.33c-72.63-10.53-141,4.83-203.56,43.08C191.71,316.67,142.88,501.28,225,650.78a12.23,12.23,0,0,1,1.11,10c-14.46,52.34-28.72,104.75-43.35,158.3,3.06-.73,5.15-1.19,7.22-1.73q76.92-20.15,153.81-40.4a16.08,16.08,0,0,1,12.51,1.41c61.35,31.53,126.34,42.37,194.35,31.51,76.49-12.22,141.19-47.53,190.62-107.18C818.78,609.12,839.51,502.5,797.41,388.84ZM605,738.66C523.21,773.82,442.81,767,365.75,722.54c-5.61-3.24-10.45-4-16.67-2.3-29.77,8.15-59.66,15.86-90.52,24,8.37-30.73,16.28-60.37,24.65-89.88,1.47-5.18.9-9-1.95-13.43-31-47.91-45.44-100.54-42.12-157.42,4.21-72.26,33.64-133,87.3-181.62,38.36-34.74,83.54-55.78,134.55-64,138.53-22.47,273.93,73,298.6,210.48C781.63,571.14,719.72,689.33,605,738.66Z" />
  <path fill="#00d876"
    d="M341,425.61c-.27-25.61,10-47.14,28.35-65.16,6.13-6,13.36-9.24,22.08-8.88a79.39,79.39,0,0,0,11.94.12c9.57-1,14.92,3.95,18.3,12.05q13,31.14,25.95,62.3c2.06,4.93,1.37,9.44-1.43,13.87a235.84,235.84,0,0,1-19.91,26.49c-4.6,5.4-4.67,10.27-1.13,16.21,25.79,43.27,61.77,74.57,108.63,93.27,6.45,2.57,11.55,1.45,15.87-4,7.87-9.85,15.92-19.56,23.73-29.45,5.44-6.89,8.45-8.09,17.16-4.69,18.11,7.07,35.18,16.4,52.71,24.72q2.38,1.14,4.76,2.31c14.45,7.07,15.39,8.83,13.24,24.64-4.16,30.61-29.45,54.47-60.24,59-28.05,4.1-53.17-4.71-78.53-14.21-54.36-20.38-96.11-57.1-131.75-101.58-16.58-20.69-32.53-41.93-42-67.14a136.94,136.94,0,0,1-6-20.29A84.17,84.17,0,0,1,341,425.61Z" />
</svg>