<svg id="Camada_1" data-name="Camada 1" xmlns="http://www.w3.org/2000/svg" viewBox="0 0 1000 1000">
  <path fill="#1ccee7"
    d="M858.78,201.85c-2.56-17.95-21.32-29.92-43-21.25Q489.69,311,163.17,440.35c-12.11,4.8-20.93,11.94-24,25v8.44c3.43,12.81,12,20,24.28,24.62,54.39,20.49,108.59,41.51,162.93,62.13,4,1.52,5.8,3.62,6.85,7.62,15.28,58.31,31.27,116.43,45.82,174.91,5.66,22.75,28.91,33.09,49.28,17.7,28.75-21.71,58.49-42.11,87.53-63.44,4.7-3.45,7.54-3.06,12,0q85.47,58.38,171.21,116.39c7.76,5.27,16,8.86,25.66,6.5,14.12-3.45,20.43-13.53,23-27q13.5-72,27.22-144.06,40.49-212.22,81-424.44C857.37,217.2,859.9,209.71,858.78,201.85Zm-472,346.41c-.91-3.38-2-6.73-2.67-10.16-2.56-13-10.46-20.63-22.68-25.21-36.51-13.67-72.85-27.81-109.25-41.78-1.51-.58-3-1.18-5.92-2.32l456-181.42c-1.6,4.77-4.16,6.21-6.12,8.1Q553.52,432.7,410.87,569.84c-5.56,5.35-10.63,10.9-13.29,18.84ZM425,692.75c-7-26.57-13.84-52.2-21-79.24l67.47,45.75Zm274.1,50.45c-2.39.95-3.4-.74-4.6-1.55q-108.91-73.8-217.83-147.59c-4.3-2.91-4.4-4.31-.67-7.89Q627.75,440.39,779.37,294.4c1.27-1.23,2.21-3.09,5.85-3.22Q742,517.76,699.06,743.2Z" />
</svg>