<?xml version="1.0" encoding="UTF-8" standalone="no"?>
<svg
   xmlns:dc="http://purl.org/dc/elements/1.1/"
   xmlns:cc="http://creativecommons.org/ns#"
   xmlns:rdf="http://www.w3.org/1999/02/22-rdf-syntax-ns#"
   xmlns:svg="http://www.w3.org/2000/svg"
   xmlns="http://www.w3.org/2000/svg"
   xmlns:sodipodi="http://sodipodi.sourceforge.net/DTD/sodipodi-0.dtd"
   xmlns:inkscape="http://www.inkscape.org/namespaces/inkscape"
   viewBox="0 0 225 225"
   version="1.1"
   id="svg28"
   sodipodi:docname="logo-balloons.svg"
   width="225"
   height="225"
   inkscape:version="0.92.2 2405546, 2018-03-11"
   inkscape:export-filename="/home/chips/git/ej/ej-server/lib/assets/img/logo/icon-144.png"
   inkscape:export-xdpi="61.439999"
   inkscape:export-ydpi="61.439999">
  <metadata
     id="metadata32">
    <rdf:RDF>
      <cc:Work
         rdf:about="">
        <dc:format>image/svg+xml</dc:format>
        <dc:type
           rdf:resource="http://purl.org/dc/dcmitype/StillImage" />
        <dc:title>Asset 1</dc:title>
      </cc:Work>
    </rdf:RDF>
  </metadata>
  <sodipodi:namedview
     pagecolor="#ffffff"
     bordercolor="#666666"
     borderopacity="1"
     objecttolerance="10"
     gridtolerance="10"
     guidetolerance="10"
     inkscape:pageopacity="0"
     inkscape:pageshadow="2"
     inkscape:window-width="1920"
     inkscape:window-height="968"
     id="namedview30"
     showgrid="false"
     fit-margin-top="0"
     fit-margin-left="0"
     fit-margin-right="0"
     fit-margin-bottom="0"
     inkscape:zoom="3.1967798"
     inkscape:cx="97.91103"
     inkscape:cy="111.64008"
     inkscape:window-x="0"
     inkscape:window-y="34"
     inkscape:window-maximized="1"
     inkscape:current-layer="svg28" />
  <defs
     id="defs4">
    <style
       id="style2">.cls-1{fill:#fff;}.cls-2{fill:#ff5783;}.cls-3{fill:#01d6d8;}.cls-4{fill:#31c0d3;}</style>
  </defs>
  <title
     id="title6">Asset 1</title>
  <g
     id="Layer_2"
     data-name="Layer 2"
     transform="translate(15.214596,0.86316172)">
    <g
       id="Layer_1-2"
       data-name="Layer 1">
      <path
         class="cls-1"
         d="m 174.15,192.82 c 18.55,-20.47 21,-47.79 6.45,-73.1 a 75.83,75.83 0 0 0 -5.48,-8.26 v 0 A 65.51,65.51 0 0 0 164.46,100.4 l -1.94,-1.58 1.76,-1.82 c 16.46,-16.69 19.79,-39.94 9.06,-61.43 0.75,-0.8 1.49,-1.63 2.19,-2.5 0.9,-1.14 1.78,-2.35 2.6,-3.61 a 38.58,38.58 0 0 0 3.46,-6.64 31,31 0 0 0 -15.11,1.82 57.07,57.07 0 0 0 -7.54,-8 A 50.44,50.44 0 0 0 148,9.41 c -0.78,-0.38 -1.56,-0.73 -2.34,-1.06 a 46.46,46.46 0 0 0 -7.29,-2.41 49.89,49.89 0 0 0 -11.79,-1.4 h -1.07 a 56.75,56.75 0 0 0 -13.5,2 70.33,70.33 0 0 0 -16.54,6.93 78.26,78.26 0 0 0 -14.23,10.33 59.23,59.23 0 0 0 -10,12 l -0.64,1 H 69.38 A 62.56,62.56 0 0 0 39.94,45.52 C 23.63,54.9 13,68 9.17,83.42 c -0.23,1 -0.44,1.91 -0.62,2.83 a 55.92,55.92 0 0 0 -0.8,14.75 70.81,70.81 0 0 0 7.06,25.27 c -0.85,0.83 -1.67,1.72 -2.46,2.66 -0.93,1.1 -1.83,2.3 -2.69,3.54 A 38.12,38.12 0 0 0 6,139 30.88,30.88 0 0 0 21.17,137.54 c 0.19,0.27 0.36,0.56 0.54,0.82 1.31,1.92 2.69,3.77 4.1,5.51 0.71,0.87 1.43,1.72 2.16,2.54 a 66,66 0 0 0 16.85,13.82 c 0.86,0.48 1.74,1 2.62,1.39 a 55.84,55.84 0 0 0 8.14,3.28 l 1.24,0.39 0.29,1.26 A 71.75,71.75 0 0 0 65,186 c 9.35,16.3 22.71,27 38.63,31 16.2,4 34.1,0.83 51.76,-9.3 2.27,-1.3 4.46,-2.7 6.54,-4.16 0.92,0.7 1.89,1.38 2.9,2 1.23,0.76 2.54,1.49 3.89,2.16 a 38.85,38.85 0 0 0 7,2.67 31,31 0 0 0 -3.77,-15.23 c 0.71,-0.73 1.47,-1.52 2.2,-2.32 z"
         id="path8"
         inkscape:connector-curvature="0"
         style="fill:#ffffff" />
      <polygon
         class="cls-1"
         points=""
         id="polygon10"
         style="fill:#ffffff" />
      <path
         class="cls-2"
         d="M 118.07,116.82 A 48.84,48.84 0 0 1 84.58,103.47 l 0.75,-0.65 a 43.82,43.82 0 0 1 6.78,-5.12 69.88,69.88 0 0 1 35.35,-9.58 c 1.06,0 2.12,0 3.18,0.07 a 66.76,66.76 0 0 1 2.85,26.31 53.81,53.81 0 0 1 -15.42,2.32 z"
         id="path12"
         inkscape:connector-curvature="0"
         style="fill:#ff5783" />
      <path
         class="cls-2"
         d="m 127.46,88.78 c 0.89,0 1.79,0 2.68,0 a 66,66 0 0 1 2.74,25.22 53,53 0 0 1 -14.81,2.17 48.07,48.07 0 0 1 -32.49,-12.68 l 0.18,-0.16 a 42.68,42.68 0 0 1 6.68,-5 69.16,69.16 0 0 1 35,-9.5 m 0,-1.32 a 71,71 0 0 0 -35.68,9.67 44.13,44.13 0 0 0 -6.88,5.19 l -1.31,1.13 a 49.63,49.63 0 0 0 34.48,14 54.5,54.5 0 0 0 16,-2.48 66.82,66.82 0 0 0 -3,-27.45 c -1.16,-0.06 -2.39,-0.09 -3.67,-0.09 z"
         id="path14"
         inkscape:connector-curvature="0"
         style="fill:#ff5783" />
      <path
         class="cls-3"
         d="m 164.78,205.59 c -1,-0.63 -2,-1.31 -2.9,-2 -0.94,0.66 -1.91,1.3 -2.89,1.93 l -0.6,0.39 c -1,0.63 -2,1.24 -3,1.84 -17.66,10.13 -35.56,13.34 -51.76,9.3 -15.92,-4 -29.28,-14.7 -38.63,-31 a 71.75,71.75 0 0 1 -7.8,-19.49 l -0.29,-1.26 -1.24,-0.39 a 55.84,55.84 0 0 1 -8.14,-3.28 c -0.88,-0.44 -1.76,-0.91 -2.62,-1.39 A 66,66 0 0 1 28,146.41 c -0.73,-0.82 -1.45,-1.67 -2.16,-2.54 -1.41,-1.74 -2.79,-3.59 -4.1,-5.51 -0.18,-0.26 -0.35,-0.55 -0.54,-0.82 a 30.67,30.67 0 0 1 -4.6,1.25 c 0.46,0.72 0.92,1.44 1.39,2.13 1.38,2 2.83,4 4.32,5.81 0.74,0.9 1.51,1.81 2.29,2.69 a 70.37,70.37 0 0 0 18,14.76 c 0.93,0.52 1.88,1 2.83,1.5 a 60.13,60.13 0 0 0 7.57,3.15 77.31,77.31 0 0 0 8,19.46 c 10,17.41 24.32,28.87 41.47,33.15 a 62,62 0 0 0 15.09,1.84 c 13,0 26.62,-3.91 40,-11.6 a 90.14,90.14 0 0 0 8.32,-5.42 c -0.34,-0.26 -0.73,-0.44 -1.1,-0.67 z"
         id="path16"
         inkscape:connector-curvature="0"
         style="fill:#01d6d8" />
      <path
         class="cls-3"
         d="m 184.54,117.46 a 81.11,81.11 0 0 0 -5.81,-8.76 70.54,70.54 0 0 0 -9.54,-10.24 C 185,81.2 188.4,58.09 178.72,36.36 c 0.12,-0.14 0.24,-0.27 0.35,-0.42 a 46.67,46.67 0 0 0 2.86,-4 43.2,43.2 0 0 0 4,-7.62 c 0.33,-0.85 0.64,-1.72 0.91,-2.59 l 0.75,-2.38 -2.44,-0.52 A 35.76,35.76 0 0 0 168.06,19.36 60.16,60.16 0 0 0 161.95,13.21 54.22,54.22 0 0 0 150,5.33 c -0.84,-0.41 -1.71,-0.81 -2.56,-1.17 a 52.75,52.75 0 0 0 -8,-2.63 54.22,54.22 0 0 0 -5.52,-1 A 54.85,54.85 0 0 0 125.43,0 61.3,61.3 0 0 0 110.85,2.12 74,74 0 0 0 93.24,9.5 82.88,82.88 0 0 0 78.15,20.5 64.31,64.31 0 0 0 68,32.36 67.4,67.4 0 0 0 37.64,41.63 c -17.37,10 -28.74,24 -32.88,40.7 -0.26,1 -0.49,2.07 -0.68,3.07 a 61.07,61.07 0 0 0 -0.87,15.92 76.42,76.42 0 0 0 8.31,28.61 c 0.27,-0.34 0.54,-0.69 0.82,-1 0.79,-0.94 1.61,-1.83 2.46,-2.66 v 0 a 78.18,78.18 0 0 1 -4.61,-12 l -0.24,-0.8 C 9.76,112.78 9.59,112.08 9.42,111.39 9.29,110.85 9.16,110.31 9.05,109.77 8.94,109.23 8.8,108.61 8.69,108.03 8.58,107.45 8.44,106.61 8.33,105.9 8.26,105.46 8.18,105.01 8.12,104.57 7.97,103.39 7.84,102.22 7.75,101.05 A 55.92,55.92 0 0 1 8.55,86.32 C 8.73,85.4 8.94,84.44 9.17,83.49 13,68 23.63,54.9 39.91,45.57 a 62.56,62.56 0 0 1 29.44,-8.72 h 1.22 l 0.64,-1 a 59.23,59.23 0 0 1 10,-12 78.26,78.26 0 0 1 14.28,-10.41 70.33,70.33 0 0 1 16.51,-6.93 56.75,56.75 0 0 1 13.5,-2 h 1.07 a 49.89,49.89 0 0 1 11.79,1.4 46.46,46.46 0 0 1 7.29,2.41 c 0.78,0.33 1.56,0.68 2.34,1.06 a 50.44,50.44 0 0 1 10.92,7.25 c 0.86,0.75 1.69,1.54 2.51,2.35 l 0.68,0.69 c 0.63,0.64 1.24,1.31 1.85,2 l 0.43,0.47 v 0 c 0.69,0.81 1.38,1.63 2,2.48 v 0 a 31.86,31.86 0 0 1 4.66,-1.37 v 0 c 0.17,0 0.34,-0.05 0.5,-0.09 0.5,-0.09 1,-0.18 1.5,-0.25 l 0.73,-0.11 c 0.74,-0.09 1.49,-0.15 2.24,-0.19 h 0.69 c 0.58,0 1.17,0 1.75,0 h 0.7 c 0.79,0 1.57,0.1 2.36,0.2 a 38.58,38.58 0 0 1 -3.46,6.64 c -0.52,0.8 -1.07,1.57 -1.63,2.33 v 0 c -0.32,0.43 -0.64,0.86 -1,1.28 -0.7,0.87 -1.44,1.7 -2.19,2.5 0.38,0.75 0.73,1.51 1.08,2.27 v 0 c 0.18,0.41 0.35,0.82 0.52,1.23 0.09,0.2 0.18,0.4 0.26,0.61 0.22,0.51 0.41,1 0.61,1.53 l 0.18,0.47 c 0.23,0.62 0.45,1.25 0.66,1.88 0,0 0,0.08 0.05,0.13 0.44,1.35 0.84,2.7 1.18,4.06 0,0.14 0.07,0.29 0.1,0.43 0.13,0.53 0.25,1.06 0.37,1.58 0,0.22 0.08,0.44 0.13,0.67 0.09,0.45 0.18,0.89 0.26,1.34 0,0.26 0.07,0.51 0.12,0.76 0.06,0.42 0.13,0.84 0.19,1.25 l 0.09,0.82 c 0,0.4 0.1,0.8 0.14,1.19 0.04,0.39 0,0.57 0.07,0.85 0.07,0.28 0.06,0.77 0.08,1.16 0.02,0.39 0,0.58 0,0.87 0,0.29 0,0.75 0,1.12 v 0.89 c 0,0.37 0,0.74 0,1.1 v 0.9 c 0,0.36 0,0.72 -0.05,1.08 l -0.06,0.9 -0.09,1.07 c 0,0.31 -0.07,0.61 -0.1,0.91 -0.03,0.3 -0.09,0.7 -0.14,1 -0.05,0.3 -0.09,0.61 -0.13,0.91 -0.04,0.3 -0.11,0.69 -0.18,1 -0.07,0.31 -0.11,0.6 -0.17,0.9 l -0.21,1 -0.21,0.9 c -0.08,0.34 -0.17,0.68 -0.26,1 -0.09,0.32 -0.15,0.59 -0.24,0.89 -0.09,0.3 -0.19,0.67 -0.3,1 l -0.27,0.88 -0.34,1 -0.31,0.87 -0.39,1 c -0.11,0.29 -0.22,0.57 -0.34,0.86 l -0.42,1 c -0.13,0.28 -0.25,0.57 -0.39,0.85 -0.14,0.28 -0.3,0.64 -0.46,1 l -0.41,0.84 -0.51,1 -0.45,0.82 -0.55,0.94 -0.48,0.81 c -0.19,0.31 -0.4,0.63 -0.6,0.94 -0.2,0.31 -0.33,0.52 -0.51,0.78 l -0.65,0.94 -0.52,0.75 -0.72,1 -0.54,0.71 c -0.26,0.33 -0.53,0.65 -0.8,1 -0.27,0.35 -0.35,0.44 -0.53,0.65 -0.31,0.36 -0.62,0.72 -0.94,1.07 l -0.46,0.53 c -0.49,0.52 -1,1 -1.48,1.55 l -1.76,1.78 1.94,1.58 a 65.51,65.51 0 0 1 10.66,11.06 v 0 a 75.83,75.83 0 0 1 5.48,8.26 c 14.51,25.31 12.1,52.63 -6.45,73.1 -0.73,0.8 -1.48,1.59 -2.26,2.37 v 0 a 32,32 0 0 1 2,4.41 c 1.27,-1.21 2.51,-2.46 3.67,-3.73 20.06,-21.98 22.69,-51.29 7.15,-78.39 z m -10.89,76.21 z"
         id="path18"
         inkscape:connector-curvature="0"
         style="fill:#01d6d8" />
      <path
         class="cls-4"
         d="m 177.51,195.87 c 19.94,-22 22.57,-51.31 7,-78.41 a 81.11,81.11 0 0 0 -5.81,-8.76 70.61,70.61 0 0 0 -9.5,-10.21 v 0 0 c 15.73,-17.25 19.17,-40.34 9.5,-62.06 0.12,-0.14 0.24,-0.27 0.35,-0.42 a 46.67,46.67 0 0 0 2.86,-4 43.2,43.2 0 0 0 4,-7.62 c 0.33,-0.85 0.64,-1.72 0.91,-2.59 l 0.75,-2.38 -2.44,-0.52 A 35.76,35.76 0 0 0 168.04,19.43 60.16,60.16 0 0 0 161.93,13.28 54.22,54.22 0 0 0 150,5.33 c -0.84,-0.41 -1.71,-0.81 -2.56,-1.17 a 52.75,52.75 0 0 0 -8,-2.63 54.22,54.22 0 0 0 -5.52,-1 A 54.85,54.85 0 0 0 125.43,0 61.3,61.3 0 0 0 110.85,2.12 74,74 0 0 0 93.24,9.5 82.88,82.88 0 0 0 78.15,20.5 64.2,64.2 0 0 0 68,32.35 v 0 a 67.45,67.45 0 0 0 -30.35,9.27 c -17.37,10 -28.74,24 -32.88,40.7 -0.26,1 -0.49,2.07 -0.68,3.07 a 61.07,61.07 0 0 0 -0.87,15.92 74.26,74.26 0 0 0 6.19,24.06 l -0.54,0.61 c -1,1.22 -2,2.53 -2.95,3.9 a 42.5,42.5 0 0 0 -4.14,7.53 c -0.35,0.84 -0.68,1.7 -1,2.56 l -0.78,2.37 2.43,0.58 a 36.27,36.27 0 0 0 8.38,1 35.41,35.41 0 0 0 8.57,-1.06 c 1,1.33 1.94,2.64 2.94,3.88 0.74,0.9 1.51,1.81 2.29,2.69 a 70.37,70.37 0 0 0 18,14.76 c 0.93,0.52 1.88,1 2.83,1.5 a 60,60 0 0 0 7.56,3.14 v 0 a 76.78,76.78 0 0 0 8,19.44 c 10,17.41 24.32,28.87 41.47,33.15 a 62,62 0 0 0 15.09,1.84 c 13,0 26.62,-3.91 40,-11.6 q 2.18,-1.25 4.24,-2.6 l 0.54,0.36 a 47.6,47.6 0 0 0 4.28,2.38 43.42,43.42 0 0 0 8,3 c 0.87,0.23 1.77,0.43 2.67,0.6 l 2.46,0.47 0.23,-2.49 A 35.81,35.81 0 0 0 177.26,196 Z M 81.24,23.8 A 78.26,78.26 0 0 1 95.49,13.44 70.33,70.33 0 0 1 112,6.51 a 56.75,56.75 0 0 1 13.5,-2 h 1.07 a 49.89,49.89 0 0 1 11.79,1.4 46.46,46.46 0 0 1 7.29,2.41 c 0.78,0.33 1.56,0.68 2.34,1.06 a 50.44,50.44 0 0 1 10.92,7.25 c 0.52,0.45 1,0.92 1.52,1.4 0.34,0.31 0.66,0.63 1,1 v 0 l 0.16,0.16 q 1.21,1.21 2.37,2.52 v 0 l 0.43,0.47 v 0 0 c 0.69,0.81 1.38,1.63 2,2.48 v 0 c 0.73,-0.28 1.48,-0.53 2.23,-0.75 l 0.22,-0.06 c 0.73,-0.22 1.47,-0.4 2.21,-0.56 v 0 0 c 0.17,0 0.34,-0.05 0.5,-0.09 a 31.31,31.31 0 0 1 6.91,-0.56 v 0 h 0.67 c 0.8,0 1.6,0.1 2.39,0.2 a 38.58,38.58 0 0 1 -3.46,6.64 c -0.52,0.8 -1.07,1.57 -1.63,2.32 v 0 c -0.32,0.43 -0.64,0.86 -1,1.28 -0.7,0.87 -1.44,1.7 -2.19,2.5 0.38,0.75 0.73,1.51 1.08,2.27 v 0 c 0.18,0.41 0.35,0.82 0.52,1.23 v 0 c 0.18,0.43 0.36,0.86 0.53,1.29 l 0.33,0.84 v 0 c 0.31,0.81 0.61,1.63 0.88,2.44 v 0 c 0.12,0.36 0.22,0.72 0.33,1.08 0.4,1.27 0.75,2.55 1.05,3.82 l 0.27,1.17 v 0 l 0.12,0.65 v 0 c 0.09,0.45 0.18,0.89 0.26,1.34 v 0 c 0,0.25 0.07,0.49 0.11,0.74 v 0 c 0.06,0.42 0.13,0.84 0.19,1.25 v 0 c 0.22,1.63 0.35,3.25 0.42,4.87 v 0 c 0,0.37 0,0.75 0,1.12 v 0 0.87 0 0.63 c 0,0.45 0,0.91 0,1.36 v 0 c 0,0.36 0,0.72 -0.05,1.08 v 0 l -0.06,0.89 v 0 0.27 c -0.1,1.23 -0.24,2.45 -0.43,3.66 v 0 c 0,0.32 -0.11,0.64 -0.16,1 -0.18,1 -0.38,1.94 -0.61,2.9 v 0 c 0,0.18 -0.09,0.36 -0.14,0.54 -0.11,0.46 -0.23,0.92 -0.36,1.37 v 0 l -0.06,0.22 c -0.22,0.75 -0.46,1.5 -0.71,2.25 l -0.14,0.42 v 0 a 48.17,48.17 0 0 1 -1.85,4.55 v 0 a 0.14,0.14 0 0 0 0,0.06 c -0.28,0.58 -0.56,1.16 -0.85,1.74 v 0 l -0.51,1 v 0 c -0.14,0.27 -0.29,0.54 -0.44,0.8 v 0 l -0.55,0.94 v 0 c -0.15,0.27 -0.31,0.53 -0.47,0.79 v 0 c -0.19,0.31 -0.4,0.63 -0.6,0.94 v 0 l -0.5,0.78 v 0 l -0.65,0.94 v 0 c -0.57,0.81 -1.15,1.61 -1.77,2.39 v 0 l -0.7,0.86 -0.63,0.76 v 0 c -0.31,0.36 -0.62,0.72 -0.94,1.07 v 0 c -0.15,0.17 -0.29,0.34 -0.44,0.5 v 0 l -0.09,0.09 A 61.12,61.12 0 0 0 134.81,83.14 c -0.5,-1.38 -1.08,-2.86 -1.77,-4.49 a 88.35,88.35 0 0 0 -4.83,-9.8 C 117.11,49.63 100.71,37 82.06,33.35 a 57.73,57.73 0 0 0 -8.52,-1 61,61 0 0 1 7.7,-8.55 z M 136,88.08 a 56.36,56.36 0 0 1 26.43,10.75 l -1.35,1.23 a 69.57,69.57 0 0 1 -11.32,8 c -2.34,1.35 -4.73,2.57 -7.12,3.65 -1.27,0.56 -2.54,1.09 -3.82,1.58 A 70.51,70.51 0 0 0 136,88.08 Z M 134.1,115 c -18.48,5.68 -36.69,1.5 -50.51,-11.55 l 1.31,-1.13 a 44.13,44.13 0 0 1 6.88,-5.19 70.86,70.86 0 0 1 39.35,-9.58 66.82,66.82 0 0 1 2.97,27.45 z M 70.58,36.83 a 53.81,53.81 0 0 1 10.62,1 c 17.33,3.35 32.64,15.26 43.12,33.53 a 83,83 0 0 1 4.59,9.31 c 0.35,0.81 0.66,1.58 1,2.32 a 75.44,75.44 0 0 0 -40.4,10.21 49.41,49.41 0 0 0 -7.58,5.68 c -0.57,0.5 -1.13,1 -1.69,1.45 A 59.09,59.09 0 0 1 71.86,89.41 C 61.54,71.42 61.1,52.79 70.58,36.83 Z M 51.94,163.59 q -2.27,-0.89 -4.46,-2 c -0.88,-0.44 -1.76,-0.91 -2.62,-1.39 A 66,66 0 0 1 28,146.41 c -0.73,-0.82 -1.45,-1.67 -2.16,-2.54 -0.56,-0.69 -1.1,-1.4 -1.65,-2.12 l -0.76,-1 v 0 c -0.57,-0.78 -1.14,-1.56 -1.69,-2.37 -0.18,-0.26 -0.35,-0.55 -0.54,-0.82 -0.73,0.26 -1.47,0.49 -2.21,0.69 l -0.2,0.06 c -0.73,0.19 -1.46,0.36 -2.19,0.5 v 0 c -0.2,0 -0.41,0.06 -0.61,0.09 l -1.25,0.19 -1,0.12 c -0.73,0.07 -1.46,0.11 -2.18,0.13 H 10.8 c -0.57,0 -1.14,0 -1.71,0 l -0.73,-0.05 c -0.79,-0.06 -1.58,-0.14 -2.37,-0.26 a 38.12,38.12 0 0 1 3.62,-6.55 c 0.86,-1.24 1.76,-2.44 2.69,-3.54 0.79,-0.94 1.61,-1.83 2.46,-2.66 v 0 c -0.48,-1 -0.94,-2 -1.38,-3 -0.25,-0.59 -0.48,-1.18 -0.72,-1.77 -0.17,-0.42 -0.35,-0.84 -0.51,-1.26 -0.31,-0.82 -0.6,-1.63 -0.88,-2.45 l -0.19,-0.54 A 69,69 0 0 1 8.9,109 l -0.21,-1 v 0 C 8.41,106.51 8.18,105 8,103.55 7.9,102.7 7.81,101.86 7.75,101.02 A 55.92,55.92 0 0 1 8.55,86.29 C 8.73,85.37 8.94,84.41 9.17,83.46 13,68 23.63,54.9 39.91,45.57 a 63.78,63.78 0 0 1 25.3,-8.44 c -8.82,16.82 -7.91,36 2.71,54.54 a 62.74,62.74 0 0 0 8.74,11.49 c -19.6,16.23 -28.45,37.95 -24.72,60.43 z M 80,106.29 C 90.75,116.65 104,122 118,122 a 58.69,58.69 0 0 0 15.39,-2.12 c -3.44,15.86 -13.62,29.3 -29,38.11 a 76.25,76.25 0 0 1 -9.5,4.64 59.2,59.2 0 0 1 -30.65,4.17 53.83,53.83 0 0 1 -7.38,-1.56 C 52.3,143.41 60.69,122.07 80,106.29 Z m 88.66,101.46 c -0.95,-0.47 -1.86,-1 -2.75,-1.49 v 0 c -0.38,-0.22 -0.77,-0.44 -1.14,-0.67 -1,-0.63 -2,-1.31 -2.9,-2 v 0 c -0.55,0.39 -1.13,0.75 -1.69,1.13 h -0.05 v 0.06 l -1,0.62 v 0 c -1.23,0.8 -2.49,1.58 -3.78,2.32 -17.66,10.13 -35.56,13.34 -51.76,9.3 -15.92,-4 -29.28,-14.7 -38.63,-31 a 73.68,73.68 0 0 1 -6.8,-15.75 q 2.72,0.66 5.48,1.05 a 59.16,59.16 0 0 0 8.2,0.57 65.8,65.8 0 0 0 24.77,-5 81.73,81.73 0 0 0 10.05,-4.89 c 17.33,-9.93 28.53,-25.39 31.68,-43.62 2.06,-0.72 4.13,-1.55 6.17,-2.46 2.52,-1.14 5.05,-2.43 7.52,-3.85 a 73.76,73.76 0 0 0 12.06,-8.58 c 0.64,-0.56 1.27,-1.15 1.9,-1.74 a 66.2,66.2 0 0 1 9.13,9.74 v 0 a 75.83,75.83 0 0 1 5.48,8.26 c 14.51,25.31 12.1,52.63 -6.45,73.1 -0.38,0.42 -0.79,0.82 -1.18,1.24 v 0 c -0.36,0.38 -0.71,0.76 -1.08,1.13 0.37,0.7 0.72,1.41 1,2.12 0,0.06 0,0.12 0.07,0.17 0.31,0.7 0.59,1.41 0.84,2.12 v 0 c 0,0.07 0,0.14 0.07,0.21 v 0 c 0.26,0.77 0.51,1.54 0.71,2.33 v 0 c 0,0 0,0.07 0,0.11 v 0 c 0.22,0.88 0.41,1.77 0.56,2.67 v 0.23 0 c 0.13,0.81 0.23,1.64 0.3,2.47 a 2.64,2.64 0 0 0 0,0.28 v 0 c 0,0.32 0,0.64 0,1 0,0.51 0,1 0,1.53 a 38.85,38.85 0 0 1 -6.77,-2.71 z m 5,-14.08 z"
         id="path20"
         inkscape:connector-curvature="0"
         style="fill:#31c0d3" />
    </g>
  </g>
</svg>
