<?xml version="1.0" encoding="utf-8"?>
<!-- Generator: Adobe Illustrator 22.0.1, SVG Export Plug-In . SVG Version: 6.00 Build 0)  -->
<svg version="1.1" id="Layer_1" xmlns="http://www.w3.org/2000/svg" xmlns:xlink="http://www.w3.org/1999/xlink" x="0px" y="0px"
	 viewBox="0 0 78.6 80.6" style="enable-background:new 0 0 78.6 80.6;" xml:space="preserve">
<style type="text/css">
	.st0{fill:#FF5783;}
	.st1{fill:#30C0D3;}
</style>
<title>Asset 2</title>
<path class="st0" d="M43.3,30l-0.2,0.1c-0.3,0.1-0.6,0.2-0.9,0.3l-0.3,0.1l-0.5,0.2L40.9,31c-2.7,1.3-5.1,3.1-7.1,5.4
	c-1.7,2.1-3,4.6-3.7,7.3l-0.4,1.8c-0.2,1-0.3,1.9-0.3,2.9c1.5-0.1,2.9-0.3,4.3-0.7c5-1.5,9.3-4.8,12-9.4c0.3-0.5,0.6-1,0.9-1.5
	c0.9-1.7,1.7-3.6,2.2-5.5l0.4-1.8c0,0,0.1-0.4,0.1-1C47.3,28.8,45.3,29.3,43.3,30z"/>
<path class="st1" d="M78.5,48.4L78.5,48.4c0-0.3-0.1-0.7-0.1-1c-0.1-0.7-0.1-1.3-0.2-1.9c-0.1-0.3-0.1-0.6-0.2-1
	c-0.2-0.8-0.4-1.7-0.6-2.5c-0.1-0.4-0.3-0.8-0.4-1.2s-0.3-0.8-0.5-1.2L75.8,38c-0.2-0.4-0.4-0.8-0.7-1.3L75,36.5
	c-0.2-0.3-0.4-0.7-0.6-1c-0.1-0.2-0.2-0.3-0.3-0.4s-0.4-0.5-0.6-0.8s-0.3-0.4-0.5-0.6c-1.5-1.9-3.4-3.6-5.5-4.9l-1.5-0.9
	c-2.2-1.3-4.6-2.2-7.1-2.7c-2-0.4-4.1-0.6-6.1-0.6l0,0c0-0.6-0.1-1.1-0.2-1.6c-0.7-4.2-2.4-8.2-5-11.5l-0.4-0.4l0,0l-0.5-0.6
	l-0.1-0.1L46,9.5c-0.8-0.9-1.7-1.8-2.7-2.6l-0.1-0.1l-0.8-0.7l-0.1-0.1c-0.7-0.5-1.3-1-2-1.4c-0.3-0.2-0.6-0.4-1-0.6L39,4
	c-0.3-0.2-0.5-0.3-0.8-0.4l-0.3-0.2L37,3l-0.2-0.1l-1.2-0.5l-1-0.4l-0.3-0.1c-0.2-0.1-0.5-0.2-0.8-0.3l-0.4-0.1l-0.8-0.2L32,1
	c-0.4-0.1-0.8-0.2-1.1-0.3c-1-0.2-2.1-0.4-3.1-0.6l-0.7-0.1c-0.4,0-0.8-0.1-1.2-0.1c-0.8-0.1-1.7,0-2.5,0.1l0,0l-1.8,0.2
	c-3,0.4-5.9,1.4-8.5,2.9c-1,0.6-2,1.3-2.9,2L8.9,6.2C8.4,6.6,8,7.1,7.5,7.6c-1.4,1.5-2.6,3.2-3.6,4.9c-0.2,0.3-0.3,0.6-0.5,0.9
	c-1.7,3-2.7,6.3-3.2,9.7c-0.1,0.6-0.1,1.1-0.1,1.7c0,0.4,0,0.7,0,1.1c0,3.7,0.8,7.3,2.4,10.5C2.6,36.7,2.8,37,3,37.3
	c0.4,0.8,0.9,1.5,1.4,2.2C4.7,40,5,40.4,5.3,40.8l0.2,0.3c0.3,0.3,0.6,0.7,0.9,1c-0.4,1.2-0.6,2.4-0.7,3.6c-0.1,0.8,0,1.7,0.1,2.5
	l0.2,2l2-0.4c0.3-0.1,0.6-0.1,0.9-0.2H9l0.8-0.2c0.2-0.1,0.5-0.2,0.8-0.3c0.5-0.2,1-0.4,1.5-0.7c0.4-0.2,0.9-0.5,1.2-0.7
	c0.3,0.2,0.7,0.4,1,0.6s0.8,0.4,1.1,0.6l0.2,0.1l1.1,0.5c2.8,1.3,5.8,2.1,8.9,2.5c0.2,4.5,1.7,8.8,4.1,12.6l0.3,0.4l0,0
	c0.2,0.3,0.4,0.6,0.6,0.8l0.2,0.2c0.2,0.3,0.5,0.6,0.7,0.9l0.3,0.3c0.2,0.3,0.5,0.5,0.7,0.8l0.3,0.3c0.4,0.3,0.7,0.7,1.1,1
	c0.7,0.6,1.5,1.2,2.3,1.7c0.4,0.3,0.8,0.5,1.2,0.7s0.8,0.5,1.3,0.7c3.1,1.5,6.5,2.4,10,2.7l1,0.1c1.4,0.1,2.8,0.1,4.1,0l0.9-0.1h0.3
	l0.1,0.1l0.1,0.1c0.2,0.3,0.5,0.7,0.7,1c0.7,0.9,1.4,1.7,2.2,2.4l0.1,0.1c0.2,0.2,0.4,0.4,0.7,0.6l1.6,1.2l1.1-1.7
	c0.4-0.7,0.7-1.4,1-2.1c0.1-0.2,0.1-0.3,0.2-0.5c0.1-0.4,0.2-0.7,0.4-1.1c0.2-0.7,0.3-1.4,0.4-2.1c0.3-0.1,0.6-0.3,0.9-0.4
	s0.6-0.3,0.9-0.4s0.6-0.3,0.8-0.4c3.7-2,6.8-5,8.9-8.7c0.1-0.2,0.2-0.4,0.3-0.6c0.2-0.5,0.5-0.9,0.7-1.4c0.1-0.3,0.3-0.6,0.4-0.9
	c0.3-0.8,0.6-1.6,0.9-2.5l0.1-0.5c0.1-0.5,0.2-1,0.3-1.5l0.1-0.4c0.1-0.6,0.2-1.1,0.3-1.8v-0.2c0.1-1,0.2-2,0.2-3
	C78.5,49.9,78.5,49.2,78.5,48.4z M61.1,70.2l-0.3,0.1L60,70.6v0.8c0,0.2,0,0.4,0,0.7v0.1c0,0.2,0,0.5-0.1,0.7V73
	c0,0.3-0.1,0.5-0.1,0.8s-0.1,0.6-0.2,0.8v0.1L59.5,75l-0.2-0.3c-0.1-0.2-0.3-0.4-0.4-0.5s-0.4-0.6-0.6-0.9L58,73
	c-0.1-0.2-0.3-0.4-0.4-0.7l-0.6-1l-0.7,0.1l-0.5,0.1l-0.6,0.1c-0.4,0-0.7,0.1-1,0.1h-0.5c-2.5,0.2-5,0-7.4-0.4
	c-0.4-0.1-0.8-0.1-1.1-0.2c-2.5-0.6-4.9-1.6-7-3.1c-0.6-0.4-1.1-0.8-1.7-1.3c-0.3-0.2-0.6-0.5-0.8-0.8l-0.1-0.1
	c-0.2-0.2-0.5-0.5-0.7-0.7c-0.5-0.5-0.9-1.1-1.4-1.7c-2.4-3.3-3.7-7.3-4-11.4c1.8-0.1,3.5-0.3,5.3-0.8c5.9-1.7,11-5.6,14.2-10.9
	c0.4-0.6,0.7-1.2,1-1.7l0.2-0.4l0.3-0.6l0.4-0.8l0.1-0.1c1.2-2.7,1.9-5.5,2.1-8.4H53c7.2,0,13.4,2.8,17.5,8.1l0.7,0.9
	c0.2,0.2,0.3,0.5,0.5,0.7c0.5,0.7,0.9,1.4,1.2,2.2c0.2,0.5,0.4,1,0.6,1.4c0.3,0.7,0.5,1.4,0.7,2c0.1,0.5,0.2,1,0.3,1.4
	c0.1,0.7,0.2,1.4,0.3,2c0.1,0.9,0.1,1.7,0.1,2.6c0.1,7.9-4,15.2-10.9,19.1c-0.7,0.4-1.5,0.8-2.3,1.1L61.5,70L61.1,70.2z M18.8,46.3
	L18.8,46.3c-0.3-0.1-0.6-0.2-0.9-0.4l-0.4-0.2L17,45.5c-0.4-0.2-0.7-0.3-1-0.5s-0.9-0.5-1.3-0.8l-0.5-0.3l-0.4-0.3L13,43.2l-0.7,0.5
	c-0.2,0.2-0.5,0.4-0.7,0.5l-0.1,0.1l-0.3,0.2h-0.1c-0.3,0.2-0.6,0.4-0.9,0.5l-0.6,0.3l-0.4,0.2c0-0.1,0-0.2,0-0.4
	c0-0.3,0.1-0.6,0.2-0.9c0-0.1,0.1-0.2,0.1-0.3l0.1-0.5c0.1-0.2,0.2-0.5,0.3-0.8s0.2-0.5,0.3-0.7l0.3-0.7l-0.5-0.5l-0.2-0.2l-0.3-0.3
	l-0.3-0.3c-4-4.2-6-9.9-5.5-15.7c0.2-2.2,0.6-4.3,1.4-6.4c0.2-0.4,0.3-0.9,0.5-1.3c0.9-2,2-3.8,3.4-5.4l0.2-0.3
	C10.9,9,12.9,7.4,15,6.2c0.3-0.2,0.6-0.3,1-0.5l0.4-0.2L17,5.3l0.5-0.2L18,4.9l0.5-0.2l0.5-0.2l0.6-0.2l0.4-0.1l0.6-0.1L20.9,4
	l0.5-0.1l0.4-0.1l0.5-0.1h0.4h0.5h0.5h1h1h0.5h0.5l0.5,0.1h0.5l0.5,0.1l1,0.2l0.5,0.1l0.5,0.1l0.5,0.1l0.5,0.1l0.5,0.2l0.5,0.2
	L32.7,5c0.2,0.1,0.3,0.1,0.5,0.2l0.5,0.2l0.5,0.2l0.4,0.2l1.8,0.9L36.9,7l0.5,0.3l0,0l0.4,0.2l2.1,1.4L40,9l0.4,0.3l2,1.7l0.4,0.4
	l0.3,0.3c0.2,0.1,0.3,0.3,0.5,0.5l0.2,0.2c0.2,0.2,0.4,0.4,0.5,0.5l0.7,0.8c1.9,2.3,3.3,5,4.1,7.8c0.3,1.1,0.5,2.3,0.5,3.4
	c-3.2,0.3-6.3,1.2-9.2,2.5l-0.2,0.1c-0.4,0.2-0.8,0.4-1.2,0.6l-0.3,0.2c-0.3,0.2-0.6,0.3-0.8,0.5L37.4,29l-0.6,0.4
	c-0.3,0.2-0.6,0.4-1,0.7l-0.3,0.2c-0.2,0.2-0.5,0.4-0.8,0.6c-1.9,1.5-3.5,3.3-4.9,5.3c-2.4,3.6-3.8,7.7-4.1,12c-2-0.3-4-0.8-5.9-1.5
	L18.8,46.3z M40.9,31l0.6-0.3l0.5-0.2l0.3-0.1c0.3-0.1,0.6-0.2,0.9-0.3l0.2-0.1c1.9-0.7,4-1.2,6-1.5c-0.1,0.6-0.1,1-0.1,1l-0.4,1.8
	c-0.5,1.9-1.3,3.7-2.2,5.5c-0.3,0.5-0.6,1-0.9,1.5c-2.7,4.5-7,7.9-12,9.4c-1.4,0.4-2.9,0.6-4.3,0.7c0.1-1,0.2-2,0.3-2.9l0.4-1.8
	c0.7-2.7,2-5.1,3.7-7.3C35.7,34.1,38.1,32.2,40.9,31z"/>
</svg>
