<?xml version="1.0" encoding="UTF-8" standalone="no"?>
<svg
   xmlns:dc="http://purl.org/dc/elements/1.1/"
   xmlns:cc="http://creativecommons.org/ns#"
   xmlns:rdf="http://www.w3.org/1999/02/22-rdf-syntax-ns#"
   xmlns:svg="http://www.w3.org/2000/svg"
   xmlns="http://www.w3.org/2000/svg"
   xmlns:sodipodi="http://sodipodi.sourceforge.net/DTD/sodipodi-0.dtd"
   xmlns:inkscape="http://www.inkscape.org/namespaces/inkscape"
   viewBox="0 0 150.54001 199.42"
   version="1.1"
   id="svg28"
   sodipodi:docname="logo-ej.svg"
   width="150.54001"
   height="199.42"
   inkscape:version="0.92.2 2405546, 2018-03-11">
  <metadata
     id="metadata32">
    <rdf:RDF>
      <cc:Work
         rdf:about="">
        <dc:format>image/svg+xml</dc:format>
        <dc:type
           rdf:resource="http://purl.org/dc/dcmitype/StillImage" />
        <dc:title>Asset 1</dc:title>
      </cc:Work>
    </rdf:RDF>
  </metadata>
  <sodipodi:namedview
     pagecolor="#ffffff"
     bordercolor="#666666"
     borderopacity="1"
     objecttolerance="10"
     gridtolerance="10"
     guidetolerance="10"
     inkscape:pageopacity="0"
     inkscape:pageshadow="2"
     inkscape:window-width="785"
     inkscape:window-height="480"
     id="namedview30"
     showgrid="false"
     fit-margin-top="0"
     fit-margin-left="0"
     fit-margin-right="0"
     fit-margin-bottom="0"
     inkscape:zoom="1.0569688"
     inkscape:cx="-33.259997"
     inkscape:cy="87.780001"
     inkscape:window-x="0"
     inkscape:window-y="34"
     inkscape:window-maximized="0"
     inkscape:current-layer="svg28" />
  <defs
     id="defs4">
    <style
       id="style2">.cls-1{fill:#fff;}.cls-2{fill:#ff5783;}.cls-3{fill:#01d6d8;}.cls-4{fill:#31c0d3;}</style>
  </defs>
  <title
     id="title6">Asset 1</title>
  <polygon
     class="cls-1"
     points=""
     id="polygon10"
     style="fill:#ffffff"
     transform="translate(-217.06)" />
  <path
     d="m 134.7,48.38 a 23.45,23.45 0 0 0 -14.76,5.71 c 3.33,9 4,20.94 4,28.55 l -0.11,21.07 -0.13,51.71 c 0,19 -2.77,34.26 -18.28,34.26 -7.87,0 -15,-6.48 -15,-16.21 a 26.54,26.54 0 0 1 2.95,-12.15 1.13,1.13 0 0 1 0.12,-0.21 72.08,72.08 0 0 0 6,-10.3 c 2,-4.93 2,-8 0.85,-10 a 5.84,5.84 0 0 0 -2.94,-2.5 c -4.64,11.36 -16.93,18.78 -33.86,18.78 -19.94,0 -33.86,-10.2 -36.18,-40.35 a 169,169 0 0 0 23.89,1.4 c 31.07,0 51.25,-12.3 51.25,-35.49 C 102.5,59.92 83.02,48.33 57.28,48.33 20.18,48.33 0,72.22 0,110.95 c 0,40.35 22,62.38 56.82,62.38 a 73.8,73.8 0 0 0 11.17,-0.82 c 0,0.25 0,0.5 0,0.75 0,13.2 10.19,26.16 37.73,26.16 34,0 43.75,-21.53 43.75,-46.76 V 62.18 c -0.02,-8.8 -6.45,-13.8 -14.77,-13.8 z m -78.34,9.44 c 9.28,0 18.79,4.17 18.79,20.87 0,25.28 -19.25,29.45 -37.11,29.22 -3.71,0 -7.42,-0.23 -10.9,-0.46 0,-31.78 11.37,-49.63 29.22,-49.63 z"
     id="path22"
     inkscape:connector-curvature="0" />
  <circle
     cx="135.26001"
     cy="15.28"
     r="15.28"
     id="circle24" />
</svg>
