<svg xmlns="http://www.w3.org/2000/svg" viewBox="0 0 367.6 223.28"><defs><style>.cls-1{fill:#fff;}.cls-2{fill:#ff5783;}.cls-3{fill:#01d6d8;}.cls-4{fill:#31c0d3;}</style></defs><title>Asset 1</title><g id="Layer_2" data-name="Layer 2"><g id="Layer_1-2" data-name="Layer 1"><path class="cls-1" d="M174.15,192.82c18.55-20.47,21-47.79,6.45-73.1a75.83,75.83,0,0,0-5.48-8.26h0a65.51,65.51,0,0,0-10.66-11.06l-1.94-1.58L164.28,97c16.46-16.69,19.79-39.94,9.06-61.43.75-.8,1.49-1.63,2.19-2.5.9-1.14,1.78-2.35,2.6-3.61a38.58,38.58,0,0,0,3.46-6.64,31,31,0,0,0-15.11,1.82,57.07,57.07,0,0,0-7.54-8A50.44,50.44,0,0,0,148,9.41c-.78-.38-1.56-.73-2.34-1.06a46.46,46.46,0,0,0-7.29-2.41,49.89,49.89,0,0,0-11.79-1.4h-1.07a56.75,56.75,0,0,0-13.5,2,70.33,70.33,0,0,0-16.54,6.93A78.26,78.26,0,0,0,81.24,23.8a59.23,59.23,0,0,0-10,12l-.64,1-1.22,0a62.56,62.56,0,0,0-29.44,8.72C23.63,54.9,13,68,9.17,83.42c-.23,1-.44,1.91-.62,2.83A55.92,55.92,0,0,0,7.75,101a70.81,70.81,0,0,0,7.06,25.27c-.85.83-1.67,1.72-2.46,2.66-.93,1.1-1.83,2.3-2.69,3.54A38.12,38.12,0,0,0,6,139a30.88,30.88,0,0,0,15.17-1.46c.19.27.36.56.54.82,1.31,1.92,2.69,3.77,4.1,5.51.71.87,1.43,1.72,2.16,2.54a66,66,0,0,0,16.85,13.82c.86.48,1.74,1,2.62,1.39a55.84,55.84,0,0,0,8.14,3.28l1.24.39.29,1.26A71.75,71.75,0,0,0,65,186c9.35,16.3,22.71,27,38.63,31,16.2,4,34.1.83,51.76-9.3,2.27-1.3,4.46-2.7,6.54-4.16.92.7,1.89,1.38,2.9,2,1.23.76,2.54,1.49,3.89,2.16a38.85,38.85,0,0,0,7,2.67,31,31,0,0,0-3.77-15.23C172.66,194.41,173.42,193.62,174.15,192.82Z"/><polygon class="cls-1" points="173.65 193.67 173.65 193.67 173.65 193.67 173.65 193.67"/><path class="cls-2" d="M118.07,116.82a48.84,48.84,0,0,1-33.49-13.35l.75-.65a43.82,43.82,0,0,1,6.78-5.12,69.88,69.88,0,0,1,35.35-9.58c1.06,0,2.12,0,3.18.07a66.76,66.76,0,0,1,2.85,26.31,53.81,53.81,0,0,1-15.42,2.32Z"/><path class="cls-2" d="M127.46,88.78c.89,0,1.79,0,2.68,0A66,66,0,0,1,132.88,114a53,53,0,0,1-14.81,2.17,48.07,48.07,0,0,1-32.49-12.68l.18-.16a42.68,42.68,0,0,1,6.68-5,69.16,69.16,0,0,1,35-9.5m0-1.32a71,71,0,0,0-35.68,9.67,44.13,44.13,0,0,0-6.88,5.19l-1.31,1.13a49.63,49.63,0,0,0,34.48,14,54.5,54.5,0,0,0,16-2.48,66.82,66.82,0,0,0-3-27.45c-1.16-.06-2.39-.09-3.67-.09Z"/><path class="cls-3" d="M164.78,205.59c-1-.63-2-1.31-2.9-2-.94.66-1.91,1.3-2.89,1.93l-.6.39c-1,.63-2,1.24-3,1.84-17.66,10.13-35.56,13.34-51.76,9.3-15.92-4-29.28-14.7-38.63-31a71.75,71.75,0,0,1-7.8-19.49l-.29-1.26-1.24-.39a55.84,55.84,0,0,1-8.14-3.28c-.88-.44-1.76-.91-2.62-1.39A66,66,0,0,1,28,146.41c-.73-.82-1.45-1.67-2.16-2.54-1.41-1.74-2.79-3.59-4.1-5.51-.18-.26-.35-.55-.54-.82a30.67,30.67,0,0,1-4.6,1.25c.46.72.92,1.44,1.39,2.13,1.38,2,2.83,4,4.32,5.81.74.9,1.51,1.81,2.29,2.69a70.37,70.37,0,0,0,18,14.76c.93.52,1.88,1,2.83,1.5A60.13,60.13,0,0,0,53,168.83a77.31,77.31,0,0,0,8,19.46c10,17.41,24.32,28.87,41.47,33.15a62,62,0,0,0,15.09,1.84c13,0,26.62-3.91,40-11.6a90.14,90.14,0,0,0,8.32-5.42C165.54,206,165.15,205.82,164.78,205.59Z"/><path class="cls-3" d="M184.54,117.46a81.11,81.11,0,0,0-5.81-8.76,70.54,70.54,0,0,0-9.54-10.24C185,81.2,188.4,58.09,178.72,36.36c.12-.14.24-.27.35-.42a46.67,46.67,0,0,0,2.86-4,43.2,43.2,0,0,0,4-7.62c.33-.85.64-1.72.91-2.59l.75-2.38-2.44-.52a35.76,35.76,0,0,0-17.09.53,60.16,60.16,0,0,0-6.11-6.15A54.22,54.22,0,0,0,150,5.33c-.84-.41-1.71-.81-2.56-1.17a52.75,52.75,0,0,0-8-2.63,54.22,54.22,0,0,0-5.52-1A54.85,54.85,0,0,0,125.43,0a61.3,61.3,0,0,0-14.58,2.12A74,74,0,0,0,93.24,9.5a82.88,82.88,0,0,0-15.09,11A64.31,64.31,0,0,0,68,32.36a67.4,67.4,0,0,0-30.36,9.27c-17.37,10-28.74,24-32.88,40.7-.26,1-.49,2.07-.68,3.07a61.07,61.07,0,0,0-.87,15.92,76.42,76.42,0,0,0,8.31,28.61c.27-.34.54-.69.82-1,.79-.94,1.61-1.83,2.46-2.66h0a78.18,78.18,0,0,1-4.61-12l-.24-.8c-.19-.69-.36-1.39-.53-2.08-.13-.54-.26-1.08-.37-1.62s-.25-1.16-.36-1.74-.25-1.42-.36-2.13c-.07-.44-.15-.89-.21-1.33-.15-1.18-.28-2.35-.37-3.52a55.92,55.92,0,0,1,.8-14.73c.18-.92.39-1.88.62-2.83C13,68,23.63,54.9,39.91,45.57a62.56,62.56,0,0,1,29.44-8.72l1.22,0,.64-1a59.23,59.23,0,0,1,10-12A78.26,78.26,0,0,1,95.49,13.44,70.33,70.33,0,0,1,112,6.51a56.75,56.75,0,0,1,13.5-2h1.07a49.89,49.89,0,0,1,11.79,1.4,46.46,46.46,0,0,1,7.29,2.41c.78.33,1.56.68,2.34,1.06a50.44,50.44,0,0,1,10.92,7.25c.86.75,1.69,1.54,2.51,2.35l.68.69c.63.64,1.24,1.31,1.85,2l.43.47,0,0c.69.81,1.38,1.63,2,2.48h0a31.86,31.86,0,0,1,4.66-1.37l0,0c.17,0,.34-.05.5-.09.5-.09,1-.18,1.5-.25l.73-.11c.74-.09,1.49-.15,2.24-.19h.69c.58,0,1.17,0,1.75,0l.7,0c.79,0,1.57.1,2.36.2a38.58,38.58,0,0,1-3.46,6.64c-.52.8-1.07,1.57-1.63,2.33h0c-.32.43-.64.86-1,1.28-.7.87-1.44,1.7-2.19,2.5.38.75.73,1.51,1.08,2.27h0c.18.41.35.82.52,1.23.09.2.18.4.26.61.22.51.41,1,.61,1.53l.18.47c.23.62.45,1.25.66,1.88,0,0,0,.08.05.13.44,1.35.84,2.7,1.18,4.06,0,.14.07.29.1.43.13.53.25,1.06.37,1.58,0,.22.08.44.13.67.09.45.18.89.26,1.34,0,.26.07.51.12.76.06.42.13.84.19,1.25l.09.82c0,.4.1.8.14,1.19s0,.57.07.85.06.77.08,1.16,0,.58,0,.87,0,.75,0,1.12v.89c0,.37,0,.74,0,1.1l0,.9c0,.36,0,.72-.05,1.08l-.06.9-.09,1.07c0,.31-.07.61-.1.91s-.09.7-.14,1-.09.61-.13.91-.11.69-.18,1-.11.6-.17.9l-.21,1-.21.9c-.08.34-.17.68-.26,1s-.15.59-.24.89-.19.67-.3,1l-.27.88-.34,1-.31.87-.39,1c-.11.29-.22.57-.34.86l-.42,1c-.13.28-.25.57-.39.85s-.3.64-.46,1l-.41.84-.51,1-.45.82-.55.94-.48.81c-.19.31-.4.63-.6.94s-.33.52-.51.78l-.65.94-.52.75-.72,1-.54.71c-.26.33-.53.65-.8,1s-.35.44-.53.65c-.31.36-.62.72-.94,1.07l-.46.53c-.49.52-1,1-1.48,1.55l-1.76,1.78,1.94,1.58a65.51,65.51,0,0,1,10.66,11.06h0a75.83,75.83,0,0,1,5.48,8.26c14.51,25.31,12.1,52.63-6.45,73.1-.73.8-1.48,1.59-2.26,2.37h0a32,32,0,0,1,2,4.41c1.27-1.21,2.51-2.46,3.67-3.73C197.45,173.87,200.08,144.56,184.54,117.46Zm-10.89,76.21Z"/><path class="cls-4" d="M177.51,195.87c19.94-22,22.57-51.31,7-78.41a81.11,81.11,0,0,0-5.81-8.76,70.61,70.61,0,0,0-9.5-10.21l0,0,0,0c15.73-17.25,19.17-40.34,9.5-62.06.12-.14.24-.27.35-.42a46.67,46.67,0,0,0,2.86-4,43.2,43.2,0,0,0,4-7.62c.33-.85.64-1.72.91-2.59l.75-2.38-2.44-.52a35.76,35.76,0,0,0-17.09.53,60.16,60.16,0,0,0-6.11-6.15A54.22,54.22,0,0,0,150,5.33c-.84-.41-1.71-.81-2.56-1.17a52.75,52.75,0,0,0-8-2.63,54.22,54.22,0,0,0-5.52-1A54.85,54.85,0,0,0,125.43,0a61.3,61.3,0,0,0-14.58,2.12A74,74,0,0,0,93.24,9.5a82.88,82.88,0,0,0-15.09,11A64.2,64.2,0,0,0,68,32.35h0a67.45,67.45,0,0,0-30.35,9.27c-17.37,10-28.74,24-32.88,40.7-.26,1-.49,2.07-.68,3.07a61.07,61.07,0,0,0-.87,15.92,74.26,74.26,0,0,0,6.19,24.06l-.54.61c-1,1.22-2,2.53-2.95,3.9a42.5,42.5,0,0,0-4.14,7.53c-.35.84-.68,1.7-1,2.56L0,142.34l2.43.58a36.27,36.27,0,0,0,8.38,1,35.41,35.41,0,0,0,8.57-1.06c1,1.33,1.94,2.64,2.94,3.88.74.9,1.51,1.81,2.29,2.69a70.37,70.37,0,0,0,18,14.76c.93.52,1.88,1,2.83,1.5A60,60,0,0,0,53,168.83h0a76.78,76.78,0,0,0,8,19.44c10,17.41,24.32,28.87,41.47,33.15a62,62,0,0,0,15.09,1.84c13,0,26.62-3.91,40-11.6q2.18-1.25,4.24-2.6l.54.36a47.6,47.6,0,0,0,4.28,2.38,43.42,43.42,0,0,0,8,3c.87.23,1.77.43,2.67.6l2.46.47.23-2.49a35.81,35.81,0,0,0-2.72-17.38ZM81.24,23.8A78.26,78.26,0,0,1,95.49,13.44,70.33,70.33,0,0,1,112,6.51a56.75,56.75,0,0,1,13.5-2h1.07a49.89,49.89,0,0,1,11.79,1.4,46.46,46.46,0,0,1,7.29,2.41c.78.33,1.56.68,2.34,1.06a50.44,50.44,0,0,1,10.92,7.25c.52.45,1,.92,1.52,1.4.34.31.66.63,1,1h0l.16.16q1.21,1.21,2.37,2.52h0l.43.47,0,0h0c.69.81,1.38,1.63,2,2.48h0c.73-.28,1.48-.53,2.23-.75l.22-.06c.73-.22,1.47-.4,2.21-.56h0l0,0c.17,0,.34-.05.5-.09a31.31,31.31,0,0,1,6.91-.56h0l.67,0c.8,0,1.6.1,2.39.2a38.58,38.58,0,0,1-3.46,6.64c-.52.8-1.07,1.57-1.63,2.32h0c-.32.43-.64.86-1,1.28-.7.87-1.44,1.7-2.19,2.5.38.75.73,1.51,1.08,2.27h0c.18.41.35.82.52,1.23h0c.18.43.36.86.53,1.29l.33.84v0c.31.81.61,1.63.88,2.44h0c.12.36.22.72.33,1.08.4,1.27.75,2.55,1.05,3.82l.27,1.17h0l.12.65v0c.09.45.18.89.26,1.34h0c0,.25.07.49.11.74h0c.06.42.13.84.19,1.25h0c.22,1.63.35,3.25.42,4.87h0c0,.37,0,.75,0,1.12h0v.87h0v.63c0,.45,0,.91,0,1.36h0c0,.36,0,.72-.05,1.08h0l-.06.89h0l0,.27c-.1,1.23-.24,2.45-.43,3.66h0c0,.32-.11.64-.16,1-.18,1-.38,1.94-.61,2.9h0c0,.18-.09.36-.14.54-.11.46-.23.92-.36,1.37h0l-.06.22c-.22.75-.46,1.5-.71,2.25l-.14.42h0a48.17,48.17,0,0,1-1.85,4.55h0a.14.14,0,0,0,0,.06c-.28.58-.56,1.16-.85,1.74h0l-.51,1h0c-.14.27-.29.54-.44.8h0l-.55.94h0c-.15.27-.31.53-.47.79h0c-.19.31-.4.63-.6.94h0l-.5.78h0l-.65.94h0c-.57.81-1.15,1.61-1.77,2.39h0l-.7.86-.63.76h0c-.31.36-.62.72-.94,1.07l0,0c-.15.17-.29.34-.44.5h0l-.09.09a61.12,61.12,0,0,0-30.81-12.22c-.5-1.38-1.08-2.86-1.77-4.49a88.35,88.35,0,0,0-4.83-9.8C117.11,49.63,100.71,37,82.06,33.35a57.73,57.73,0,0,0-8.52-1A61,61,0,0,1,81.24,23.8ZM136,88.08a56.36,56.36,0,0,1,26.43,10.75l-1.35,1.23a69.57,69.57,0,0,1-11.32,8c-2.34,1.35-4.73,2.57-7.12,3.65-1.27.56-2.54,1.09-3.82,1.58A70.51,70.51,0,0,0,136,88.08ZM134.1,115c-18.48,5.68-36.69,1.5-50.51-11.55l1.31-1.13a44.13,44.13,0,0,1,6.88-5.19,70.86,70.86,0,0,1,39.35-9.58A66.82,66.82,0,0,1,134.1,115ZM70.58,36.83a53.81,53.81,0,0,1,10.62,1c17.33,3.35,32.64,15.26,43.12,33.53a83,83,0,0,1,4.59,9.31c.35.81.66,1.58,1,2.32A75.44,75.44,0,0,0,89.51,93.2a49.41,49.41,0,0,0-7.58,5.68c-.57.5-1.13,1-1.69,1.45a59.09,59.09,0,0,1-8.38-10.92C61.54,71.42,61.1,52.79,70.58,36.83ZM51.94,163.59q-2.27-.89-4.46-2c-.88-.44-1.76-.91-2.62-1.39A66,66,0,0,1,28,146.41c-.73-.82-1.45-1.67-2.16-2.54-.56-.69-1.1-1.4-1.65-2.12l-.76-1h0c-.57-.78-1.14-1.56-1.69-2.37-.18-.26-.35-.55-.54-.82-.73.26-1.47.49-2.21.69l-.2.06c-.73.19-1.46.36-2.19.5v0c-.2,0-.41.06-.61.09l-1.25.19-1,.12c-.73.07-1.46.11-2.18.13h-.76c-.57,0-1.14,0-1.71,0l-.73-.05c-.79-.06-1.58-.14-2.37-.26a38.12,38.12,0,0,1,3.62-6.55c.86-1.24,1.76-2.44,2.69-3.54.79-.94,1.61-1.83,2.46-2.66l0,0c-.48-1-.94-2-1.38-3-.25-.59-.48-1.18-.72-1.77-.17-.42-.35-.84-.51-1.26-.31-.82-.6-1.63-.88-2.45l-.19-.54A69,69,0,0,1,8.9,109l-.21-1h0c-.28-1.49-.51-3-.69-4.45-.1-.85-.19-1.69-.25-2.53a55.92,55.92,0,0,1,.8-14.73c.18-.92.39-1.88.62-2.83C13,68,23.63,54.9,39.91,45.57a63.78,63.78,0,0,1,25.3-8.44c-8.82,16.82-7.91,36,2.71,54.54a62.74,62.74,0,0,0,8.74,11.49C57.06,119.39,48.21,141.11,51.94,163.59ZM80,106.29C90.75,116.65,104,122,118,122a58.69,58.69,0,0,0,15.39-2.12c-3.44,15.86-13.62,29.3-29,38.11a76.25,76.25,0,0,1-9.5,4.64,59.2,59.2,0,0,1-30.65,4.17,53.83,53.83,0,0,1-7.38-1.56C52.3,143.41,60.69,122.07,80,106.29Zm88.66,101.46c-.95-.47-1.86-1-2.75-1.49h0c-.38-.22-.77-.44-1.14-.67-1-.63-2-1.31-2.9-2h0c-.55.39-1.13.75-1.69,1.13l-.05,0,0,.06-1,.62h0c-1.23.8-2.49,1.58-3.78,2.32-17.66,10.13-35.56,13.34-51.76,9.3-15.92-4-29.28-14.7-38.63-31a73.68,73.68,0,0,1-6.8-15.75q2.72.66,5.48,1.05a59.16,59.16,0,0,0,8.2.57,65.8,65.8,0,0,0,24.77-5A81.73,81.73,0,0,0,106.66,162c17.33-9.93,28.53-25.39,31.68-43.62,2.06-.72,4.13-1.55,6.17-2.46,2.52-1.14,5.05-2.43,7.52-3.85a73.76,73.76,0,0,0,12.06-8.58c.64-.56,1.27-1.15,1.9-1.74a66.2,66.2,0,0,1,9.13,9.74h0a75.83,75.83,0,0,1,5.48,8.26c14.51,25.31,12.1,52.63-6.45,73.1-.38.42-.79.82-1.18,1.24h0c-.36.38-.71.76-1.08,1.13.37.7.72,1.41,1,2.12,0,.06,0,.12.07.17.31.7.59,1.41.84,2.12h0c0,.07,0,.14.07.21h0c.26.77.51,1.54.71,2.33h0s0,.07,0,.11h0c.22.88.41,1.77.56,2.67l0,.23h0c.13.81.23,1.64.3,2.47a2.64,2.64,0,0,0,0,.28h0c0,.32,0,.64,0,1,0,.51,0,1,0,1.53A38.85,38.85,0,0,1,168.67,207.75Zm5-14.08Z"/><path d="M351.76,48.38A23.45,23.45,0,0,0,337,54.09c3.33,9,4,20.94,4,28.55l-.11,21.07-.13,51.71c0,19-2.77,34.26-18.28,34.26-7.87,0-15-6.48-15-16.21a26.54,26.54,0,0,1,2.95-12.15,1.13,1.13,0,0,1,.12-.21,72.08,72.08,0,0,0,6-10.3c2-4.93,2-8,.85-10a5.84,5.84,0,0,0-2.94-2.5c-4.64,11.36-16.93,18.78-33.86,18.78-19.94,0-33.86-10.2-36.18-40.35a169,169,0,0,0,23.89,1.4c31.07,0,51.25-12.3,51.25-35.49,0-22.73-19.48-34.32-45.22-34.32-37.1,0-57.28,23.89-57.28,62.62,0,40.35,22,62.38,56.82,62.38a73.8,73.8,0,0,0,11.17-.82c0,.25,0,.5,0,.75,0,13.2,10.19,26.16,37.73,26.16,34,0,43.75-21.53,43.75-46.76V62.18C366.51,53.38,360.08,48.38,351.76,48.38Zm-78.34,9.44c9.28,0,18.79,4.17,18.79,20.87,0,25.28-19.25,29.45-37.11,29.22-3.71,0-7.42-.23-10.9-.46C244.2,75.67,255.57,57.82,273.42,57.82Z"/><circle cx="352.32" cy="15.28" r="15.28"/></g></g></svg>
