<svg id="Layer_1" data-name="Layer 1" xmlns="http://www.w3.org/2000/svg" viewBox="0 0 116 156"><defs><style>.cls-1{fill:#c6027b;}</style></defs><title>Artboard 1ejcat</title><polygon class="cls-1" points="57.9 75.1 59.5 73.4 56.2 73.4 57.9 75.1"/><path class="cls-1" d="M71.1,53.5a1.2,1.2,0,1,0,1.2,1.2A1.16,1.16,0,0,0,71.1,53.5Z"/><path class="cls-1" d="M41.1,53.5a1.2,1.2,0,1,0,1.2,1.2A1.22,1.22,0,0,0,41.1,53.5Z"/><path class="cls-1" d="M106.2,67.5a24.08,24.08,0,0,0-7.9-5.9c-.4-.2-1-5.7-1.2-6.5a35.23,35.23,0,0,0-2.6-6.8,20.13,20.13,0,0,0-1.4-2.5c3.3-7.9,2.1-21.5,1-27.7l-.6-3.3-3.2.9c-.9.3-1.9.6-2.8.9a48.56,48.56,0,0,0-8.3,4c-1.5.9-3,1.9-4.4,2.9s-3.1,2.6-4.2,3.6A40.46,40.46,0,0,0,58.1,25a39.64,39.64,0,0,0-12.9,2.1l-.1-.1-.3-.3a41.58,41.58,0,0,0-3.9-3.2,47.85,47.85,0,0,0-4.4-2.9,48.56,48.56,0,0,0-8.3-4c-.9-.3-1.9-.6-2.8-.9l-3.2-.9-.6,3.3c-1.1,6.3-2.3,20.1,1.1,27.9a39.68,39.68,0,0,0-4.9,16.4c-.7.4-1.4.7-2.1,1.1a37.18,37.18,0,0,0-4.5,3.3c-.4.4-.9.8-1.3,1.2L8,70v.2l-.4.4.4.3v-.2l2.3,1.8a22.86,22.86,0,0,0,8.2,4.2,21.35,21.35,0,0,0-2.9,4.7,11.11,11.11,0,0,0-.7,1.6l-1.3,3.1,3.2,1a22.4,22.4,0,0,0,6.8,1h1.1a40.23,40.23,0,0,0,67.7-1.2A22.6,22.6,0,0,0,95,87a24.37,24.37,0,0,0,2.7-.1c.6-.1,1.2-.1,1.8-.2l3.3-.6-.9-3.2a22.73,22.73,0,0,0-3.4-7.2,6.89,6.89,0,0,0,.8-.3,33.1,33.1,0,0,0,5-2.4,13,13,0,0,0,1.5-1l2.7-2ZM58.1,31.3a28.28,28.28,0,0,1,4.1.3A15.69,15.69,0,0,1,58,45.4c-.1-.1-.2-.3-.4-.4a18.39,18.39,0,0,1-1.7-2.2,22.82,22.82,0,0,1-3.1-11A23.8,23.8,0,0,1,58.1,31.3Zm-31,8.3c-.9-4.8-.7-11.3-.1-16.9a34.78,34.78,0,0,1,6.4,3.2c1.3.8,2.6,1.7,3.9,2.6.6.5,1.2.9,1.8,1.4A42,42,0,0,0,27.1,39.6Zm11,16.9a4.8,4.8,0,0,1,4.8-4.8,4.8,4.8,0,1,1,0,9.6A4.8,4.8,0,0,1,38.1,56.5ZM69,87.5c-3.4,1.6-8.2,1.4-10.7-1.9-.2-.3-.5-.7-.7-1a8.79,8.79,0,0,1-.6,1c-2.4,3.3-7.2,3.5-10.7,1.9-2.3-1-.3-4.4,2-3.4a4.52,4.52,0,0,0,6.2-2,10.27,10.27,0,0,0,.7-2.5v-.1c.1-.6.3-1.2.4-1.7l-2.2-2.2a3.36,3.36,0,0,1-.7-3.6,3.28,3.28,0,0,1,3-2H60a3.28,3.28,0,0,1,3,2,3.44,3.44,0,0,1-.7,3.6c-.8.8-1.7,1.7-2.6,2.5.1.5.2,1,.3,1.6a23.35,23.35,0,0,0,.7,2.5c1,2.4,3.8,3,6.2,2C69.3,83,71.2,86.4,69,87.5Zm3.9-26.3a4.8,4.8,0,0,1-4.8-4.8,4.8,4.8,0,0,1,9.6,0A4.8,4.8,0,0,1,72.9,61.2ZM88.7,39.4c-.7-.8-1.5-1.6-2.2-2.4l-.3-.3a41.14,41.14,0,0,0-9.3-6.8,9.57,9.57,0,0,1,1.7-1.4,37.75,37.75,0,0,1,3.9-2.6,42.47,42.47,0,0,1,6.4-3.2A71.16,71.16,0,0,1,88.7,39.4Z"/><path class="cls-1" d="M78.2,107H75.6a40.28,40.28,0,0,1-35,0H38.1c-10.1,0-18.2,17.3-18.2,27.3a8.36,8.36,0,0,0,0,2.5,84.32,84.32,0,0,0,76.6-.2,15.55,15.55,0,0,0,0-2.4C96.4,124.3,88.3,107,78.2,107Z"/></svg>