<?xml version="1.0" encoding="UTF-8" standalone="no"?>
<svg width="30px" height="27px" viewBox="0 0 30 27" version="1.1" xmlns="http://www.w3.org/2000/svg" xmlns:xlink="http://www.w3.org/1999/xlink">
    <!-- Generator: Sketch 49.1 (51147) - http://www.bohemiancoding.com/sketch -->
    <title>Fill 1</title>
    <desc>Created with Sketch.</desc>
    <defs></defs>
    <g id="Symbols" stroke="none" stroke-width="1" fill="none" fill-rule="evenodd">
        <g id="Como-Funciona" transform="translate(-37.000000, -179.000000)" fill="#30BEC0">
            <g id="Page-1" transform="translate(37.000000, 179.000000)">
                <path d="M26.4640885,22.087917 C26.273469,22.328487 26.0682478,22.550967 25.8184248,22.810977 C25.7706372,22.861197 25.6976283,22.937067 25.6559469,23.050197 C25.5701947,23.281317 25.6702832,23.511087 25.7361239,23.662827 C25.7467434,23.687127 25.7565664,23.710077 25.7690442,23.742477 L25.774885,23.758677 C25.8128496,23.856957 25.8497522,23.962257 25.8855929,24.076737 C25.8882478,24.088077 25.8911681,24.099147 25.894354,24.109407 C25.9309912,24.233337 25.9607257,24.348087 25.9830265,24.451227 L25.9886018,24.477147 C26.0159469,24.607287 26.0382478,24.741477 26.0552389,24.883767 L26.0581593,24.912387 C26.0714336,25.031997 26.0809912,25.155117 26.0857699,25.293627 C25.8622301,25.212087 25.6216991,25.090317 25.3413451,24.918057 C25.2550619,24.865407 25.1618761,24.793857 25.063115,24.718527 C24.8103717,24.525477 24.523646,24.306777 24.1790442,24.259527 C23.9563009,24.229017 23.7940885,24.322977 23.6754159,24.391827 C23.6525841,24.405327 23.6292212,24.418827 23.6053274,24.430977 C23.484531,24.492267 23.3621416,24.551127 23.2384248,24.606477 C22.994708,24.716367 22.7419646,24.815727 22.4873628,24.901857 C21.9855929,25.072227 21.463646,25.196157 20.9366549,25.270137 C19.884,25.417287 18.8244425,25.368417 17.7879823,25.124067 C16.7358584,24.875667 15.7530265,24.436107 14.8670973,23.817537 C14.3066549,23.426037 13.7900177,22.964337 13.3317876,22.445397 C12.7216991,21.754467 12.2406372,20.990907 11.8846195,20.186037 C14.5729381,19.660887 17.0377168,18.030087 18.5563009,15.498837 C19.993115,13.103397 20.3398407,10.336707 19.7395752,7.802217 C22.1050619,7.801137 24.4620531,8.780697 26.1640885,10.708227 C27.5406372,12.267207 28.3235575,14.281677 28.3681593,16.380387 C28.4122301,18.457227 27.7360354,20.484117 26.4640885,22.087917 M6.74692035,18.316827 C6.4660354,18.199917 6.19762832,18.063567 5.88143363,17.894547 C5.82037168,17.862147 5.72824779,17.813007 5.60957522,17.804367 C5.36745133,17.787087 5.17975221,17.950437 5.05550443,18.058167 C5.03585841,18.075447 5.01727434,18.091647 4.99019469,18.113247 L4.97665487,18.123507 C4.89515044,18.188577 4.80647788,18.254727 4.70904425,18.322767 C4.69948673,18.328437 4.68939823,18.334647 4.68063717,18.340587 C4.57497345,18.411867 4.47541593,18.473427 4.38435398,18.524727 L4.36178761,18.537687 C4.24709735,18.601677 4.12709735,18.661887 3.99780531,18.719127 L3.97178761,18.730197 C3.86320354,18.777717 3.74984071,18.821997 3.62081416,18.866547 C3.63382301,18.625437 3.67948673,18.355707 3.76125664,18.032787 C3.78621239,17.933697 3.82656637,17.822457 3.86930974,17.704467 C3.97869027,17.402607 4.10240708,17.060517 4.04771682,16.710597 C4.01293805,16.484877 3.8780708,16.353657 3.77930974,16.257807 C3.7599292,16.239177 3.74054867,16.220547 3.72249558,16.200567 C3.62984071,16.100397 3.53930974,15.997797 3.45169912,15.893037 C3.27860177,15.686757 3.11267257,15.468867 2.95869027,15.245577 C2.65444248,14.804937 2.38815929,14.331357 2.16780531,13.838607 C1.72736283,12.854187 1.46984071,11.807127 1.40320354,10.726587 C1.33523894,9.629577 1.46745133,8.545257 1.79612389,7.503867 C2.00373451,6.845067 2.29019469,6.208947 2.64753982,5.613327 C5.12612389,1.481517 10.4454159,0.172287 14.5052389,2.694897 C16.0400177,3.648537 17.1773628,5.015817 17.8657699,6.570477 C16.1308142,6.905277 14.4616991,7.710417 13.0551504,8.996697 C10.2295752,11.581407 9.1880708,15.444567 10.0155929,18.964557 C8.9000177,18.966987 7.78815929,18.750717 6.74692035,18.316827 M17.3727611,14.763627 C16.2996637,16.552917 14.6276283,17.893197 12.664885,18.538227 C12.2552389,18.672687 11.8381593,18.773397 11.4178938,18.844407 C10.6116106,15.756147 11.4911681,12.324717 13.9819646,10.046457 C15.2507257,8.885997 16.7671858,8.182107 18.3370089,7.919667 C18.9255929,10.160397 18.6510796,12.632247 17.3727611,14.763627 M27.1952389,9.765117 C25.1151504,7.408827 22.1918761,6.271857 19.3015221,6.400647 C18.5270973,4.426137 17.143646,2.681127 15.2276283,1.490427 C10.5155044,-1.437453 4.34134513,0.082107 1.46426549,4.878117 C-0.869097344,8.768547 -0.37237168,13.769757 2.65869027,17.107227 L2.65869027,17.107497 C2.57930974,17.359947 2.51081416,17.622387 2.45506195,17.887797 C2.35470797,18.365157 2.30161062,18.842247 2.29736283,19.304757 C2.29576991,19.453257 2.29922124,19.606887 2.30851328,19.762137 L2.3520531,20.503017 L3.07231859,20.387457 C3.98293805,20.241657 4.85267257,19.878237 5.59789381,19.333647 C7.14753982,20.109627 8.81559292,20.435247 10.4496637,20.358027 C10.874177,21.442617 11.4901062,22.470507 12.3003717,23.388507 C15.294,26.778627 20.1439115,27.727137 24.1540885,25.727787 L24.154354,25.727787 C24.3691327,25.877637 24.5966549,26.019657 24.8305487,26.149797 C25.2513451,26.384697 25.684885,26.573157 26.1189558,26.710047 C26.2583363,26.754057 26.403823,26.794557 26.5527611,26.830197 L27.2626726,27.000027 L27.3603717,26.264277 C27.4840885,25.334667 27.3911681,24.382647 27.0919646,23.499747 C30.5860354,19.664937 30.6449735,13.672287 27.1952389,9.765117" id="Fill-1"></path>
            </g>
        </g>
    </g>
</svg>