<?xml version="1.0" encoding="UTF-8"?>
<svg width="28px" height="28px" viewBox="0 0 28 28" version="1.1" xmlns="http://www.w3.org/2000/svg" xmlns:xlink="http://www.w3.org/1999/xlink">
    <!-- Generator: Sketch 51.2 (57519) - http://www.bohemiancoding.com/sketch -->
    <title>talk</title>
    <desc>Created with Sketch.</desc>
    <defs>
        <polygon id="path-1" points="0.016 0.139733333 27.8457928 0.139733333 27.8457928 27.9998787 0.016 27.9998787"></polygon>
    </defs>
    <g id="Page-1" stroke="none" stroke-width="1" fill="none" fill-rule="evenodd">
        <g id="Perfil-DEFAULT-Alterado" transform="translate(-117.000000, -1225.000000)">
            <g id="navbar" transform="translate(0.000000, 1204.000000)">
                <g id="talk" transform="translate(117.000000, 21.000000)">
                    <mask id="mask-2" fill="white">
                        <use xlink:href="#path-1"></use>
                    </mask>
                    <g id="Clip-2"></g>
                    <path d="M18.9309333,11.3869333 L8.91493333,11.3869333 C8.4208,11.3869333 8.02053333,10.9866667 8.02053333,10.4925333 C8.02053333,9.99866667 8.4208,9.5984 8.91493333,9.5984 L18.9309333,9.5984 C19.4248,9.5984 19.8253333,9.99866667 19.8253333,10.4925333 C19.8253333,10.9866667 19.4248,11.3869333 18.9309333,11.3869333 Z M6.232,14.0698667 C6.232,13.5757333 6.63226667,13.1754667 7.1264,13.1754667 L17.1421333,13.1754667 C17.6362667,13.1754667 18.0365333,13.5757333 18.0365333,14.0698667 C18.0365333,14.5637333 17.6362667,14.964 17.1421333,14.964 L7.1264,14.964 C6.63226667,14.964 6.232,14.5637333 6.232,14.0698667 Z M8.02053333,17.6469333 C8.02053333,17.1528 8.4208,16.7528 8.91493333,16.7528 L18.9309333,16.7528 C19.4248,16.7528 19.8253333,17.1528 19.8253333,17.6469333 C19.8253333,18.1408 19.4248,18.5413333 18.9309333,18.5413333 L8.91493333,18.5413333 C8.4208,18.5413333 8.02053333,18.1408 8.02053333,17.6469333 Z M23.9818667,4.41866667 C18.6613333,-1.1248 9.82213333,-1.30586667 4.27893333,4.01466667 C-1.26453333,9.33573333 -1.44586667,18.1744 3.8752,23.7178667 C8.1912,28.2141333 14.98,29.2888 20.4685333,26.3733333 C20.7744,26.568 21.0973333,26.7517333 21.4282667,26.9189333 C22.024,27.2205333 22.6357333,27.4584 23.2458667,27.6256 C23.4416,27.6794667 23.6458667,27.728 23.8541333,27.7701333 L24.8496,27.9696 L24.9522667,26.96 C25.0824,25.6837333 24.9106667,24.3866667 24.4546667,23.1938667 C29.1429333,17.7933333 28.9557333,9.6008 23.9818667,4.41866667 Z" id="Fill-1" fill="#3F1B53" mask="url(#mask-2)"></path>
                </g>
            </g>
        </g>
    </g>
</svg>