<?xml version="1.0" encoding="UTF-8" standalone="no"?>
<svg width="31px" height="29px" viewBox="0 0 31 29" version="1.1" xmlns="http://www.w3.org/2000/svg" xmlns:xlink="http://www.w3.org/1999/xlink">
    <!-- Generator: Sketch 49.1 (51147) - http://www.bohemiancoding.com/sketch -->
    <title>Page 1</title>
    <desc>Created with Sketch.</desc>
    <defs>
        <polygon id="path-1" points="0.000122772277 0.268078495 30.8078614 0.268078495 30.8078614 28.6880785 0.000122772277 28.6880785"></polygon>
    </defs>
    <g id="Symbols" stroke="none" stroke-width="1" fill="none" fill-rule="evenodd">
        <g id="navbar_logados-MOB" transform="translate(-194.000000, -12.000000)">
            <g id="Page-1" transform="translate(194.000000, 12.000000)">
                <polygon id="Fill-1" fill="#3F1B53" points="15.3060812 19.0853054 15.8149723 18.5682946 14.797497 18.5682946"></polygon>
                <g id="Group-9" transform="translate(0.000000, 0.043843)">
                    <path d="M19.3687079,12.3077559 C19.1661337,12.3077559 19.0019257,12.4745839 19.0019257,12.6803903 C19.0019257,12.8861968 19.1661337,13.0530247 19.3687079,13.0530247 C19.5712822,13.0530247 19.7354901,12.8861968 19.7354901,12.6803903 C19.7354901,12.4745839 19.5712822,12.3077559 19.3687079,12.3077559" id="Fill-2" fill="#3F1B53"></path>
                    <path d="M10.1483564,12.3077559 C9.94578218,12.3077559 9.78157426,12.4745839 9.78157426,12.6803903 C9.78157426,12.8861968 9.94578218,13.0530247 10.1483564,13.0530247 C10.3509307,13.0530247 10.5151386,12.8861968 10.5151386,12.6803903 C10.5151386,12.4745839 10.3509307,12.3077559 10.1483564,12.3077559" id="Fill-4" fill="#3F1B53"></path>
                    <g id="Group-8">
                        <mask id="mask-2" fill="white">
                            <use xlink:href="#path-1"></use>
                        </mask>
                        <g id="Clip-7"></g>
                        <path d="M24.7543901,7.92937957 C24.5337069,7.66900323 24.3041228,7.41642258 24.064103,7.17444409 C24.0318752,7.14232581 23.9999545,7.11020753 23.9677267,7.07840108 C23.1110832,6.23272366 22.1433307,5.51832581 21.1000733,4.9539172 C21.2974297,4.78022903 21.481895,4.62400323 21.6215485,4.51735806 C21.9941624,4.2332828 22.3931723,3.95949785 22.8075287,3.7034871 C23.4447168,3.31027204 24.1006277,2.98004624 24.7608356,2.71966989 C24.9710832,4.44813226 25.0054594,6.43385269 24.7543901,7.92937957 Z M19.919004,14.7300355 C19.1084,14.7300355 18.4515683,14.0627237 18.4515683,13.239186 C18.4515683,12.4159602 19.1084,11.7486484 19.919004,11.7486484 C20.729301,11.7486484 21.3861327,12.4159602 21.3861327,13.239186 C21.3861327,14.0627237 20.729301,14.7300355 19.919004,14.7300355 Z M18.7084693,22.9042935 C17.6495584,23.3944871 16.1873406,23.3352398 15.4381228,22.3077667 C15.3635386,22.2054871 15.2987762,22.0963473 15.2386178,21.9847129 C15.1781525,22.0963473 15.113697,22.2054871 15.0391129,22.3077667 C14.290202,23.3355516 12.8276772,23.3941753 11.7687663,22.9042935 C11.065895,22.579057 11.6769941,21.5285086 12.3749545,21.8512505 C13.0830436,22.1789817 13.949202,21.9784763 14.2650337,21.2325839 C14.3693901,20.9865516 14.4359941,20.721186 14.4933901,20.4595624 C14.4967663,20.4452183 14.5001426,20.4305624 14.5035188,20.4162183 C14.542499,20.2362935 14.5824,20.0566806 14.6238356,19.8770677 C14.3954792,19.6475624 14.1677366,19.4174333 13.9406079,19.1869925 C13.6514792,18.8935624 13.5655386,18.4557559 13.7223802,18.0722075 C13.878301,17.6883473 14.2438554,17.4404441 14.6526871,17.4404441 L15.959905,17.4404441 C16.3687366,17.4404441 16.7339842,17.6883473 16.8902119,18.0718957 C17.0467465,18.4557559 16.9608059,18.8935624 16.6719842,19.1869925 C16.4117069,19.4514226 16.1520436,19.7127344 15.8831723,19.9681215 C15.9160139,20.130272 15.9482416,20.2936699 15.9829248,20.4564441 C16.0400139,20.721186 16.1066178,20.984057 16.212202,21.2325839 C16.5283406,21.9787882 17.3935782,22.1792935 18.1025881,21.8512505 C18.8011624,21.5278849 19.4104198,22.5793688 18.7084693,22.9042935 Z M9.2313703,13.239186 C9.2313703,12.4159602 9.88820198,11.7486484 10.698499,11.7486484 C11.508796,11.7486484 12.1659347,12.4159602 12.1659347,13.239186 C12.1659347,14.0627237 11.508796,14.7300355 10.698499,14.7300355 C9.88820198,14.7300355 9.2313703,14.0627237 9.2313703,13.239186 Z M5.86894455,7.99049785 C5.60651881,6.48811075 5.63997426,4.47120753 5.85267723,2.71966989 C6.51257822,2.98004624 7.16879604,3.31027204 7.80598416,3.7034871 C8.21972673,3.95887419 8.6184297,4.23297097 8.99196436,4.51766989 C9.18011287,4.66142258 9.36304356,4.81047634 9.54198416,4.96233656 C8.13409307,5.72662688 6.88795446,6.75815376 5.86894455,7.99049785 Z M15.3672218,5.37956237 C15.7914,5.37956237 16.2088257,5.40793871 16.6201129,5.45783118 C16.885301,7.03973441 16.4328851,8.56145484 15.3245584,9.75419677 C15.2877267,9.7099172 15.250895,9.66657312 15.2146772,9.62385269 C15.029905,9.40682043 14.8555683,9.20163763 14.7079347,8.94126129 C13.984499,7.6686914 13.7791624,6.4485086 13.7647366,5.50959462 C14.294499,5.42664839 14.8297861,5.37956237 15.3672218,5.37956237 Z M30.1315089,16.6867559 C29.4513505,15.8950247 28.6257069,15.2754226 27.7067564,14.8485301 C27.5993307,14.7986376 27.4068851,13.0810892 27.3396673,12.8319387 C27.1429248,12.1028849 26.8792713,11.3931645 26.5551525,10.7127559 C26.4271624,10.4433366 26.286895,10.1801538 26.1404891,9.9207129 C27.1435386,7.45197097 26.7807465,3.22607849 26.4369842,1.29461613 L26.2546673,0.268078495 L25.2660436,0.54965914 C24.9769149,0.632605376 24.6853307,0.727089247 24.400499,0.831239785 C23.5315782,1.14836882 22.6697168,1.56933656 21.8385485,2.08198172 C21.3714,2.37011075 20.9211327,2.67913226 20.5000238,3.00062688 C20.1037762,3.3031 19.5402515,3.8173043 19.2066178,4.1285086 C17.9770535,3.70878817 16.6821129,3.48208925 15.3672218,3.48208925 C13.9866475,3.48208925 12.6597861,3.71596022 11.4182515,4.14066989 L11.3823406,4.09607849 L11.2960931,4.00346559 C10.9259347,3.65453011 10.5281525,3.31713226 10.1134891,3.00062688 C9.69176634,2.67882043 9.24119208,2.3694871 8.77496436,2.08198172 C7.94410297,1.56933656 7.08193465,1.14836882 6.21332079,0.831239785 C5.92818218,0.727089247 5.63690495,0.632605376 5.34746931,0.54965914 L4.35915248,0.268078495 L4.17652871,1.29461613 C3.8293901,3.24790645 3.46045941,7.54832581 4.50586535,10.0042828 C3.6664099,11.5456484 3.13787525,13.2840892 3.00129109,15.1319817 C2.78398416,15.2414333 2.56759802,15.358057 2.35581584,15.4852828 C1.85674653,15.7861968 1.39604356,16.1295194 0.985984158,16.5074548 C0.851241584,16.632186 0.719875248,16.7615946 0.596489109,16.8925624 L0.000122772277,17.5246376 L0.000122772277,17.7382398 L0.691637624,18.2929817 C1.45067723,18.9019817 2.30701386,19.3397882 3.21491485,19.5998527 C2.85887525,20.0657237 2.5544,20.5571645 2.31008317,21.0598312 C2.22966733,21.2247882 2.15446931,21.3944226 2.08602376,21.564057 L1.69591485,22.5307237 L2.68024158,22.8322613 C3.36623168,23.0421215 4.06818218,23.1475194 4.7673703,23.1475194 C4.87755842,23.1475194 4.9874396,23.1394118 5.09732079,23.1344226 C7.32962772,26.4809602 11.096895,28.6880785 15.3672218,28.6880785 C19.8017564,28.6880785 23.6954792,26.3094548 25.8878851,22.744014 C26.1518455,22.7680247 26.4142713,22.782057 26.6736277,22.782057 C26.9504792,22.782057 27.2239545,22.7683366 27.4922119,22.7408957 C27.6751426,22.722186 27.8568455,22.696928 28.0339446,22.6657452 L29.0449743,22.4867559 L28.7742614,21.4807989 C28.5538851,20.6622505 28.1987663,19.9032613 27.7325386,19.2241 C27.8175584,19.1951 27.9025782,19.167971 27.987905,19.1364763 C28.5336277,18.9337882 29.0480436,18.6818312 29.5182614,18.3880892 C29.6726475,18.2914226 29.8251921,18.1885194 29.971598,18.0818742 L30.8079842,17.4734978 L30.1315089,16.6867559 Z" id="Fill-6" fill="#3F1B53" mask="url(#mask-2)"></path>
                    </g>
                </g>
            </g>
        </g>
    </g>
</svg>