<?xml version="1.0" encoding="UTF-8"?>
<svg width="26px" height="28px" viewBox="0 0 26 28" version="1.1" xmlns="http://www.w3.org/2000/svg" xmlns:xlink="http://www.w3.org/1999/xlink">
    <!-- Generator: Sketch 51.2 (57519) - http://www.bohemiancoding.com/sketch -->
    <title>Shape</title>
    <desc>Created with Sketch.</desc>
    <defs></defs>
    <g id="Page-1" stroke="none" stroke-width="1" fill="none" fill-rule="evenodd">
        <g id="Perfil-DEFAULT-Alterado" transform="translate(-263.000000, -1225.000000)" fill="#3F1B53">
            <g id="navbar" transform="translate(0.000000, 1204.000000)">
                <path d="M284.514976,36.7890151 C283.504873,34.3256074 282.999726,31.7292964 282.999726,29.0000822 C282.999726,27.2813542 282.499949,25.916843 281.500202,24.9063568 C280.49988,23.8958706 279.124821,23.2863953 277.374833,23.0781228 C277.457874,22.8907542 277.499682,22.6980158 277.499682,22.5000993 C277.499682,22.0833624 277.353929,21.7289539 277.062232,21.4374491 C276.770728,21.1457524 276.416511,21 275.999774,21 C275.583229,21 275.229012,21.1457524 274.937315,21.4374491 C274.645619,21.7291457 274.499866,22.0833624 274.499866,22.5000993 C274.499866,22.6980158 274.541483,22.8905624 274.624907,23.0781228 C272.874919,23.2865871 271.49986,23.8958706 270.499921,24.9063568 C269.499983,25.916843 269.000014,27.2813542 269.000014,29.0000822 C269.000014,31.7292964 268.494866,34.3256074 267.48438,36.7890151 C266.473894,39.2526147 264.979165,41.3230663 263,43.0001781 C263,43.5417634 263.197916,44.0104725 263.593749,44.4063054 C263.989582,44.8021383 264.458291,45.0000548 265.000068,45.0000548 L272.000021,45.0000548 C272.000021,46.1043212 272.390484,47.0471093 273.171793,47.8282272 C273.953103,48.6093451 274.895891,49 275.999966,49 C277.104232,49 278.04702,48.6093451 278.827946,47.8282272 C279.609256,47.0471093 279.999911,46.1043212 279.999911,45.0000548 L286.999863,45.0000548 C287.541448,45.0000548 288.010541,44.8023301 288.40599,44.4063054 C288.801823,44.0104725 288.99974,43.5417634 288.99974,43.0001781 C287.020959,41.3230663 285.526037,39.2526147 284.514976,36.7890151 L284.514976,36.7890151 Z M275.999966,47.7499812 C275.23956,47.7499812 274.590962,47.4818734 274.054554,46.9454661 C273.518147,46.4088671 273.249848,45.7602688 273.249848,44.999863 C273.249848,44.8332066 273.333272,44.7497825 273.499928,44.7497825 C273.666584,44.7497825 273.750009,44.8332066 273.750009,44.999863 C273.750009,45.6145163 273.971322,46.1430607 274.413949,46.5858795 C274.856768,47.0286984 275.385312,47.250012 275.999966,47.250012 C276.166622,47.250012 276.250238,47.3336279 276.250238,47.5000925 C276.250238,47.6667489 276.166622,47.7499812 275.999966,47.7499812 L275.999966,47.7499812 Z" id="Shape"></path>
            </g>
        </g>
    </g>
</svg>