<?xml version="1.0" encoding="UTF-8" standalone="no"?>
<svg
   xmlns:dc="http://purl.org/dc/elements/1.1/"
   xmlns:cc="http://creativecommons.org/ns#"
   xmlns:rdf="http://www.w3.org/1999/02/22-rdf-syntax-ns#"
   xmlns:svg="http://www.w3.org/2000/svg"
   xmlns="http://www.w3.org/2000/svg"
   xmlns:sodipodi="http://sodipodi.sourceforge.net/DTD/sodipodi-0.dtd"
   xmlns:inkscape="http://www.inkscape.org/namespaces/inkscape"
   width="267px"
   height="200px"
   viewBox="0 0 267 200"
   version="1.1"
   id="svg89"
   sodipodi:docname="bg-modal.svg"
   inkscape:export-filename="/home/caiosba/Empurrando Juntos/frontend/src/assets/images/bg-modal.png"
   inkscape:export-xdpi="90.239998"
   inkscape:export-ydpi="90.239998"
   inkscape:version="0.92.2 (unknown)">
  <metadata
     id="metadata93">
    <rdf:RDF>
      <cc:Work
         rdf:about="">
        <dc:format>image/svg+xml</dc:format>
        <dc:type
           rdf:resource="http://purl.org/dc/dcmitype/StillImage" />
      </cc:Work>
    </rdf:RDF>
  </metadata>
  <sodipodi:namedview
     pagecolor="#ffffff"
     bordercolor="#666666"
     borderopacity="1"
     objecttolerance="10"
     gridtolerance="10"
     guidetolerance="10"
     inkscape:pageopacity="0"
     inkscape:pageshadow="2"
     inkscape:window-width="1855"
     inkscape:window-height="1056"
     id="namedview91"
     showgrid="false"
     inkscape:zoom="1.0786517"
     inkscape:cx="134.42708"
     inkscape:cy="100"
     inkscape:window-x="65"
     inkscape:window-y="24"
     inkscape:window-maximized="1"
     inkscape:current-layer="svg89" />
  <!-- Generator: Sketch 48.2 (47327) - http://www.bohemiancoding.com/sketch -->
  <title
     id="title2">marca dagua copy 2</title>
  <desc
     id="desc4">Created with Sketch.</desc>
  <defs
     id="defs6" />
  <g
     id="tela-7"
     stroke="none"
     stroke-width="1"
     fill="none"
     fill-rule="evenodd"
     opacity="0.557427705">
    <g
       id="marca-dagua-copy-2">
      <text
         id="Conversas"
         font-family="Roboto-Medium, Roboto"
         font-size="13"
         font-weight="400"
         fill="#F6F8F7">
        <tspan
           x="0.0732421875"
           y="24"
           id="tspan8">Conver</tspan>
        <tspan
           x="10.2041016"
           y="39"
           id="tspan10">sas</tspan>
      </text>
      <path
         d="M191.857507,71 C191.76518,70.904882 191.672853,70.809764 191.582411,70.7146459 C191.840549,70.2207639 192.142023,69.7415154 192.351171,69.2275123 C193.302701,66.8769997 194.437,64.5722169 195.102129,62.1467073 C195.735225,59.8382662 195.286782,58.1865052 192.147676,58.8651356 C191.998823,58.8980611 191.842433,58.8998903 191.689811,58.9053779 C183.766678,59.1669524 176.489831,57.2353249 169.95725,52.8287997 C165.418171,49.7667312 161.817432,45.8851843 159.741025,40.880513 C155.7088,31.1620122 158.951538,20.6734213 166.67306,13.9035791 C178.017931,3.95642924 195.565646,3.31804099 207.628404,12.4457126 C214.556671,17.6881788 218.240315,24.5915521 217.98783,33.2527795 C217.842746,38.2062333 216.50872,42.8907958 214.287228,47.3320757 C210.790121,54.3250794 205.704619,60.1108159 199.639323,65.1045119 C197.13143,67.1678413 194.455842,69.0409346 191.857507,71 Z M191.26087,12.9417476 L185.818285,24.1600184 L173.652174,25.957645 L182.455573,34.6909047 L180.377599,47.0194175 L191.26087,41.1978879 L202.142243,47.0194175 L200.064269,34.6909047 L208.869565,25.957645 L196.701556,24.1600184 L191.26087,12.9417476 Z"
         id="Combined-Shape"
         fill="#000000"
         fill-rule="nonzero"
         style="mix-blend-mode: multiply;"
         opacity="0.103836287" />
      <path
         d="M106.054904,104.423182 C106.655001,105.933722 107.240003,107.40781 107.872181,109 C108.032585,108.755048 108.136375,108.613617 108.219408,108.466354 C109.383749,106.391549 110.563186,104.322577 111.697334,102.237566 C111.92756,101.814732 112.265351,101.661637 112.820158,101.588734 C115.060147,101.294208 117.068021,100.598718 118.647524,99.3098026 C122.185838,96.4228644 121.672546,92.5488267 117.513377,90.1255484 C115.705535,89.0728366 113.648595,88.5100294 111.484091,88.1542653 C110.653767,88.0172087 110.049895,87.7810047 109.478104,87.2531907 C107.543826,85.46708 104.909434,84.907189 102.005186,85.0121685 C100.082231,85.0806969 98.3159049,85.5414405 96.7609342,86.4585537 C96.5476918,86.583946 96.1419653,86.5781138 95.8419163,86.5416625 C91.8525861,86.0634223 88.1916114,86.6233133 85.157154,88.7564398 C80.533758,92.0064323 81.0659203,97.1096058 86.2441238,99.8317843 C86.9348025,100.194839 87.7160621,100.452913 88.4407086,100.779517 C88.6294187,100.864083 88.880403,101.023011 88.8917256,101.158609 C89.0766614,103.22904 90.6863581,104.539826 92.9244591,105.35196 C97.3044191,106.941234 101.603234,106.776474 105.671822,104.631683 C105.773726,104.576278 105.875629,104.519414 106.054904,104.423182 Z"
         id="Shape"
         fill="#000000"
         fill-rule="nonzero"
         style="mix-blend-mode: multiply;"
         opacity="0.103836287" />
      <path
         d="M22.13724,58 C23.653048,57.4274015 25.1688559,56.8562674 26.6829872,56.2836689 C29.753169,55.122363 32.8199974,53.9566637 35.8952096,52.8070734 C36.180262,52.7001688 36.5172945,52.6620932 36.8308521,52.6576998 C38.0465167,52.6415909 39.2638581,52.6591643 40.4795227,52.6489132 C41.970179,52.6357331 42.9829534,51.7966054 42.9896605,50.5093571 C43.0064283,47.0195815 43.0013979,43.5298059 42.9846301,40.0385659 C42.9795998,38.8948333 41.9668254,38.0117722 40.6673219,38.0103078 C33.891459,38.0000566 27.1155961,37.9971277 20.3380564,38.0029855 C19.0536439,38.00445 18.014041,38.9006911 18.0073339,40.0297792 C17.9905661,42.8883784 18.0073339,45.7484421 18.0106875,48.6070413 C18.0106875,49.2089288 18.0006268,49.8122806 18.014041,50.4141681 C18.0458998,51.8141788 19.0184315,52.6459843 20.6298159,52.6503776 C22.8632852,52.6562354 25.0967545,52.6533065 27.3319005,52.6533065 C27.5700031,52.6533065 27.8081057,52.6533065 28.2641895,52.6533065 C26.0961146,54.4911866 24.0823033,56.1972666 22.068492,57.904811 C22.0936437,57.9384933 22.1154418,57.9692466 22.13724,58 Z"
         id="path15"
         fill="#000000"
         fill-rule="nonzero"
         style="mix-blend-mode: multiply;"
         opacity="0.103836287" />
      <path
         d="M87.1950479,36 C86.6939641,34.9838817 86.175535,34.0076112 85.7303413,33.0023605 C85.5221988,32.5332435 85.3911461,32.0134112 85.3371832,31.5080689 C85.1830036,30.0771715 85.5800162,29.6841275 87.0986857,29.7928033 C91.0225576,30.0771715 94.7826137,29.4703985 98.3133276,27.8547524 C102.925226,25.7446315 106.396196,22.6129586 107.639269,17.7678313 C108.982559,12.52966 106.500267,7.10130619 101.425829,3.71786777 C98.3345273,1.656651 94.8847578,0.578949791 91.1574648,0.173226982 C84.8939167,-0.509618995 79.1854154,0.794490033 74.3422472,4.65247924 C68.257933,9.50122906 67.3309279,16.5941332 71.7655199,23.1853175 C74.8722398,27.8004145 79.1911971,31.2508696 83.9707661,34.2394528 C84.9170437,34.8317357 85.8980117,35.3751144 86.8674162,35.9347945 C86.952215,35.9818874 87.0755587,35.9764536 87.1950479,36 Z"
         id="path17"
         fill="#000000"
         fill-rule="nonzero"
         style="mix-blend-mode: multiply;"
         opacity="0.103836287" />
      <path
         d="M14.3522649,87.8717475 C13.5890463,86.0777582 12.8258278,84.2837688 12.0030673,82.3522557 C12.4347459,82.3522557 12.7297488,82.3522557 13.0247517,82.3522557 C16.4714142,82.3522557 19.9194299,82.3507105 23.3660924,82.3507105 C25.2281291,82.3507105 25.9967605,81.4977543 25.9981138,79.410175 C26.0008202,75.1855695 26.0008202,70.9594188 25.9967605,66.7348134 C25.9954073,64.9439145 25.2267759,64.022969 23.6881598,64.0198786 C16.9869927,64.0044265 10.2858256,63.9967004 3.58465855,64.0013361 C1.699617,64.0028813 1,64.8372949 1,66.9866827 C1.00135322,71.2066525 0.998646776,75.4250771 1.00135322,79.6450469 C1.00270645,81.371047 1.85388458,82.486689 3.33295881,82.3198063 C5.46158075,82.0787534 7.22753855,82.801912 8.9353077,84.1864205 C10.637664,85.5662935 12.4699298,86.737563 14.2453601,88 C14.2818972,87.9567341 14.317081,87.9150134 14.3522649,87.8717475 Z"
         id="path19"
         fill="#000000"
         fill-rule="nonzero"
         style="mix-blend-mode: multiply;"
         opacity="0.103836287" />
      <path
         d="M193.947328,78 C193.663887,78.8999151 193.401666,79.6583525 193.190981,80.4284581 C193.059112,80.9112327 192.802955,81.0818811 192.275482,81.0716713 C190.700644,81.0381251 189.125805,81.0512519 187.54945,81.0585445 C185.823039,81.0658372 185.015157,81.8505282 185.012126,83.5220075 C185.004547,88.8325276 185,94.1430477 185,99.4535678 C185,101.232979 185.786662,101.991416 187.65252,101.994333 C192.533156,102.001626 197.413792,102.001626 202.294428,101.995791 C204.193632,101.992874 205.001514,101.200891 204.999998,99.3864752 C204.996966,94.1853451 204.996966,88.9827565 204.995451,83.7816264 C204.995451,81.8315672 204.196663,80.9053985 202.221673,81.1023005 C199.394845,81.385256 197.016672,80.7201648 195.021977,78.7701056 C194.747631,78.4988184 194.386888,78.3092091 193.947328,78 Z"
         id="path21"
         fill="#000000"
         fill-rule="nonzero"
         style="mix-blend-mode: multiply;"
         opacity="0.103836287" />
      <path
         d="M89.8271765,57.8569132 C91.0964709,58.2023606 92.1339437,57.8966029 93.0297478,57.2159981 C93.6565245,56.7382517 94.2847321,56.2149357 94.7383582,55.6034204 C95.7257461,54.2745505 97.1281232,53.7879842 98.7594597,53.6380453 C99.0199012,53.6145255 99.2803426,53.5718958 99.5350601,53.5130962 C100.691306,53.2499682 101.0419,52.8501313 100.996108,51.7535196 C100.861594,48.5224842 100.707047,45.2929187 100.561085,42.0618833 C100.531034,41.3945083 100.509569,40.7271334 100.475225,40.0597585 C100.402244,38.6573891 99.5393531,37.9341546 97.9938763,38.0047141 C93.2715863,38.2208024 88.5478652,38.4457107 83.8255752,38.667679 C83.5050319,38.6823789 83.1830575,38.6867889 82.8639452,38.7147187 C81.4973431,38.8323178 80.8777214,39.6628615 81.043717,40.8976521 C81.1596278,41.7575956 81.053734,42.6439988 81.040855,43.5201122 C81.0365621,43.8141099 80.9893392,44.1081077 81.0022181,44.3991655 C81.1181289,47.0422054 81.2383326,49.6852453 81.3642604,52.3282853 C81.4429652,53.9746727 82.2514785,54.6449877 84.0359317,54.4950488 C85.0233197,54.4127294 85.9992596,54.2245708 86.9866475,54.1378415 C87.7364899,54.071692 88.5006423,54.0334723 89.2490538,54.0834519 C90.6900677,54.1804712 91.7132306,54.8992957 91.8606233,55.8239187 C91.993706,56.6456424 91.4370481,57.2218781 89.8271765,57.8569132 Z"
         id="path23"
         fill="#000000"
         fill-rule="nonzero"
         style="mix-blend-mode: multiply;"
         opacity="0.103836287" />
      <path
         d="M146.255353,143.747806 C147.594406,144.241352 148.717243,143.996224 149.699911,143.137453 C150.458906,142.474456 151.301406,141.816395 151.812871,140.946108 C152.764225,139.328921 154.246429,139.407889 155.637672,139.146309 C157.516522,138.792601 157.986234,139.073922 157.99369,136.459772 C158.00711,131.963565 157.995181,127.469003 157.99369,122.972797 C157.99369,120.804483 157.277938,120.019745 155.293216,120.016454 C150.488729,120.009874 145.684243,120.004938 140.878264,120.000003 C138.684782,119.998358 138.013764,120.740322 138.010782,123.201473 C138.004817,127.730583 137.986924,132.259693 138.016747,136.788803 C138.028676,138.46357 138.912928,139.547727 140.8723,139.381566 C142.51853,139.241728 144.172216,139.116696 145.821428,139.129857 C146.71761,139.136438 147.597389,139.462179 148.138676,140.413078 C148.800747,141.576202 148.514446,142.7311 147.384154,143.316775 C147.066539,143.481291 146.714628,143.575065 146.255353,143.747806 Z"
         id="path25"
         fill="#000000"
         fill-rule="nonzero"
         style="mix-blend-mode: multiply;"
         opacity="0.103836287" />
      <path
         d="M165.666056,146 C165.306754,147.104244 164.894326,148.126039 164.649665,149.19053 C164.417587,150.202018 164.676229,150.442007 165.650678,150.378697 C169.122065,150.149014 172.179626,151.318041 174.494816,153.966756 C179.053895,159.181734 176.719132,165.362558 172.829724,168.148199 C167.367497,172.060169 159.457264,169.488015 157.46922,163.118733 C156.549296,160.171137 157.072171,157.329548 158.256329,154.645498 C159.838935,151.058912 162.700767,147.986168 165.666056,146 Z"
         id="path27"
         fill="#000000"
         fill-rule="nonzero"
         style="mix-blend-mode: multiply;"
         opacity="0.103836287" />
      <path
         d="M216.816501,83.6966713 C216.21643,83.5118703 215.778456,83.428157 215.382565,83.2480945 C213.599497,82.4425516 213.348558,80.5708491 214.858867,79.3151499 C216.132264,78.2568877 217.665952,78.2063438 219.19964,78.2853186 C220.656956,78.3611344 222.109595,78.53172 223.563793,78.6470232 C225.819125,78.8255062 226.992771,77.7467105 226.997447,75.4848725 C227.002123,72.651257 227.000564,69.819221 226.991212,66.9856054 C226.984978,65.1928777 225.95005,64.0493227 224.182568,64.0382662 C217.701801,63.9987788 211.221033,63.9908813 204.740266,64.0098353 C203.108384,64.0145738 202.025139,65.1897187 202.014229,66.8560868 C201.995525,69.9139907 201.995525,72.9734741 202.01267,76.0313781 C202.020463,77.4055394 202.533251,78.0199633 203.878346,78.2742621 C204.874308,78.4622221 205.879622,78.6233307 206.889611,78.7149415 C207.91207,78.8081317 208.664886,79.3104114 209.34133,80.038559 C210.168961,80.9278151 210.996591,81.8233893 211.892801,82.6368296 C213.259716,83.8751544 214.833929,84.3726955 216.816501,83.6966713 Z"
         id="path29"
         fill="#000000"
         fill-rule="nonzero"
         style="mix-blend-mode: multiply;"
         opacity="0.103836287" />
      <path
         d="M85.8552846,126.756191 C85.3757102,126.608497 85.024926,126.54152 84.7080341,126.397261 C83.281173,125.75325 83.0812091,124.255708 84.2877709,123.251049 C85.3062312,122.404388 86.5331283,122.363172 87.7600255,122.426714 C88.9259168,122.486822 90.0867242,122.624211 91.2509208,122.716949 C93.0556798,122.85949 93.9944934,121.995655 93.9978826,120.18727 C94.0012718,117.920349 94.0012718,115.653427 93.9927987,113.388223 C93.9877149,111.954224 93.1607456,111.038868 91.7457467,111.030281 C86.5619367,110.999369 81.3764321,110.992499 76.192622,111.007956 C74.8877728,111.01139 74.0201328,111.950789 74.0116598,113.285181 C73.9964083,115.732426 73.9964083,118.177954 74.0099652,120.625198 C74.0167436,121.724312 74.4268391,122.215478 75.502916,122.419845 C76.2993824,122.570973 77.1043219,122.699775 77.9109559,122.771904 C78.7277576,122.845751 79.3310386,123.247614 79.8733136,123.829801 C80.5359058,124.54079 81.1968035,125.258649 81.9153178,125.90953 C83.0083409,126.900449 84.2691302,127.298878 85.8552846,126.756191 Z"
         id="path31"
         fill="#000000"
         fill-rule="nonzero"
         style="mix-blend-mode: multiply;"
         opacity="0.103836287" />
      <path
         d="M147.779612,21 C151.404867,18.9280179 154.706939,16.4557847 156.385298,12.3793326 C157.845079,8.83654859 156.644467,5.2391118 153.425142,2.94530379 C149.623465,0.236777875 143.851473,0.371802312 140.168452,3.25553851 C135.796914,6.67937246 135.974898,12.6702782 140.541594,15.8272781 C142.644616,17.2803982 144.970899,17.8960454 147.493901,17.7851324 C148.54307,17.7385169 148.799118,18.0616111 148.550877,19.1080504 C148.46813,19.4536487 148.324493,19.7863875 148.190225,20.1175189 C148.068446,20.4165015 147.918565,20.7058396 147.779612,21 Z"
         id="path33"
         fill="#000000"
         fill-rule="nonzero"
         style="mix-blend-mode: multiply;"
         opacity="0.103836287" />
      <path
         d="M224.444721,151 C227.369511,149.620016 230.325399,148.311626 233.207636,146.82962 C234.852523,145.984805 236.489228,145.557028 238.307606,145.646521 C240.489333,145.753913 241.003258,145.111352 240.999984,142.698617 C240.995074,139.620053 240.999984,136.54149 240.985254,133.462926 C240.977071,131.773296 240.330572,131.030503 238.798617,131.023343 C233.592261,130.998285 228.385905,130.996495 223.179548,131.003655 C221.781803,131.005445 221.019099,131.853839 221.012552,133.396701 C220.997822,136.681099 220.994548,139.965497 221.010915,143.249895 C221.019099,144.889409 221.722882,145.65547 223.235196,145.675159 C225.101039,145.698427 226.968519,145.680528 228.881826,145.680528 C227.302407,147.393427 225.765541,149.061579 224.227039,150.729731 C224.299054,150.819224 224.372706,150.908717 224.444721,151 Z"
         id="path35"
         fill="#000000"
         fill-rule="nonzero"
         style="mix-blend-mode: multiply;"
         opacity="0.103836287" />
      <path
         d="M230.231224,170 C229.573894,169.883249 228.885097,169.842229 228.271473,169.626082 C227.79421,169.458845 227.316947,169.138569 227.002269,168.77254 C225.81523,167.388887 224.329246,166.639474 222.357259,166.637897 C221.476158,166.636319 221.009384,166.095164 221.007636,165.30473 C221.000643,162.090932 220.986657,158.875556 221.032111,155.661757 C221.047845,154.596802 221.76811,154.014627 222.958645,154.011471 C228.301193,153.997272 233.643741,153.995694 238.986289,154.009893 C240.281717,154.013049 240.975759,154.647289 240.982752,155.799018 C241.001982,158.885022 241.005479,161.971026 240.991493,165.055452 C240.986249,166.262401 240.278221,166.882442 238.918109,166.857199 C236.570255,166.8146 234.222401,166.723093 231.874547,166.675762 C231.418262,166.666296 230.958481,166.754647 230.503945,166.822489 C229.596621,166.958172 228.816917,167.303691 228.741743,168.225075 C228.66657,169.141725 229.435785,169.4762 230.295908,169.673414 C230.274929,169.782276 230.25395,169.891138 230.231224,170 Z"
         id="path37"
         fill="#000000"
         fill-rule="nonzero"
         style="mix-blend-mode: multiply;"
         opacity="0.103836287" />
      <path
         d="M131.976426,111.80534 C130.424553,113.268699 128.984759,114.626018 127.525998,116 C127.869135,115.881841 128.222617,115.769741 128.567478,115.637947 C131.302223,114.595721 134.068007,113.609544 136.756196,112.482484 C138.251168,111.85533 139.761658,111.762924 141.351466,111.796251 C143.393041,111.840182 144.001721,111.288771 143.999996,109.51335 C143.998272,106.983526 144.003445,104.453702 143.989651,101.923878 C143.982753,100.596857 143.325794,100.015149 141.796336,100.012119 C136.599285,100 131.400509,99.9969703 126.203457,100.00303 C124.729177,100.004545 124.013591,100.642303 124.008418,101.943571 C123.998073,104.597614 123.996348,107.250142 124.008418,109.904185 C124.013591,111.117591 124.772285,111.785647 126.165522,111.800795 C128.062257,111.820489 129.957266,111.80534 131.976426,111.80534 Z"
         id="path39"
         fill="#000000"
         fill-rule="nonzero"
         style="mix-blend-mode: multiply;"
         opacity="0.103836287" />
      <path
         d="M126.90095,137.241754 C128.47772,135.779028 129.92627,134.435272 131.471852,133 C129.188134,133.866349 127.001447,134.694566 124.816493,135.522784 C124.20138,135.756149 123.55681,135.943756 122.974617,136.22898 C121.255764,137.069399 119.443344,137.356149 117.48191,137.257007 C115.641767,137.163966 115.011059,137.784747 115.005861,139.42898 C114.99893,141.886177 114.995464,144.341849 115.011059,146.799047 C115.021455,148.423451 115.681619,148.996949 117.487109,148.998475 C122.539706,149 127.59057,149 132.641435,149 C134.261523,149 134.996195,148.377693 134.997927,146.982078 C135.001393,144.43184 135.001393,141.881602 134.990997,139.332888 C134.985798,137.812202 134.353357,137.253956 132.62584,137.24633 C130.761439,137.234128 128.89877,137.241754 126.90095,137.241754 Z"
         id="path41"
         fill="#000000"
         fill-rule="nonzero"
         style="mix-blend-mode: multiply;"
         opacity="0.103836287" />
      <path
         d="M72.0507489,74 C75.0589945,72.2605484 77.6771668,70.399602 79.257744,67.5029855 C80.9085344,64.4774658 79.7149099,61.0370855 76.5787202,59.3583814 C72.7575618,57.3122292 69.0300209,57.6426361 65.4787932,59.9125167 C62.0835948,62.083127 62.2084182,66.936997 65.6551063,69.4202344 C67.4744084,70.7314905 69.5449177,71.276736 71.812024,71.2204335 C72.9167117,71.1922822 73.0945851,71.4263822 72.7310368,72.4487174 C72.5640854,72.9183989 72.3300414,73.3703008 72.0507489,74 Z"
         id="path43"
         fill="#000000"
         fill-rule="nonzero"
         style="mix-blend-mode: multiply;"
         opacity="0.103836287" />
      <path
         d="M63.2738674,54 C63.5626491,52.0432394 63.812494,50.3400773 64.0769403,48.5468802 C65.546807,48.5468802 67.0247856,48.5048639 68.4995195,48.5573843 C70.3246852,48.6219094 71.0709751,48.0036691 70.9947238,46.3350204 C70.8973816,44.1981898 70.9703882,42.0553568 70.9655211,39.9140244 C70.9622764,38.5094784 70.4528523,38.0157865 68.9683843,38.0127854 C64.6707275,38.0037819 60.3730707,37.9977795 56.075414,38.0007807 C54.5682327,38.0022813 54.0263613,38.4854691 54.0150047,39.8570023 C53.9971586,42.1198819 53.9955363,44.3827615 54.0085152,46.6456412 C54.0166271,48.0351813 54.5763446,48.6804321 56.0348547,48.4838557 C58.1244666,48.2047472 59.2828384,49.1576176 60.3454904,50.57867 C61.1842555,51.6996058 62.1739009,52.7260048 63.2738674,54 Z"
         id="path45"
         fill="#000000"
         fill-rule="nonzero"
         style="mix-blend-mode: multiply;"
         opacity="0.103836287" />
      <path
         d="M212.965948,150.216106 C213.152509,149.086336 213.385297,147.679142 213.661011,146 C212.7183,146.834095 211.935735,147.500277 211.181236,148.202961 C210.755282,148.59902 210.436643,148.701228 209.863752,148.359924 C207.773608,147.115169 205.602566,147.146197 203.469497,148.25224 C202.564759,148.721305 201.927479,149.49517 201.595632,150.604864 C201.476761,151.002748 201.032647,151.355003 200.662827,151.574021 C197.55898,153.408301 197.075242,157.213748 199.705257,159.497016 C201.144914,160.747246 202.820661,161.14513 204.635091,161.03197 C205.130385,161.000943 205.69337,161.0922 206.132532,161.333121 C208.255695,162.495744 210.672733,162.119762 212.383151,160.349363 C212.673724,160.050037 213.152509,159.980681 213.532235,159.778089 C214.63344,159.188565 215.879932,158.785205 216.794576,157.941984 C218.399331,156.463609 218.404284,154.065357 216.794576,152.596107 C215.718135,151.617825 214.337914,151.046551 212.965948,150.216106 Z"
         id="path47"
         fill="#000000"
         fill-rule="nonzero"
         style="mix-blend-mode: multiply;"
         opacity="0.103836287" />
      <path
         d="M212.131661,173.627596 C213.561693,174.802983 214.787435,175.807529 216.013176,176.813783 C215.968677,176.875286 215.924178,176.938497 215.87968,177 C215.576278,176.907746 215.266809,176.825742 214.969475,176.718112 C212.965004,175.990329 210.940305,175.301839 208.972242,174.510845 C207.416804,173.885566 205.859344,173.514841 204.107706,173.600261 C202.540133,173.67714 202.008169,173.164617 202.004124,171.874766 C201.996033,169.855424 202.000078,167.836082 202.014237,165.816739 C202.02435,164.506388 202.566427,164.021199 204.071298,164.016074 C208.357348,164.000698 212.643398,163.995573 216.931471,164.004115 C218.371616,164.007532 218.970328,164.508096 218.982464,165.714235 C219.004714,167.803622 219.004714,169.8913 218.988532,171.980688 C218.980442,173.103114 218.452523,173.583177 217.131716,173.613929 C215.541893,173.656639 213.954092,173.627596 212.131661,173.627596 Z"
         id="path49"
         fill="#000000"
         fill-rule="nonzero"
         style="mix-blend-mode: multiply;"
         opacity="0.103836287" />
      <path
         d="M157.263782,192 C157.411774,191.511241 157.503817,191.253456 157.566984,190.989485 C157.760095,190.185198 157.554351,189.840798 156.758446,189.865545 C154.960893,189.921226 153.271626,189.494335 151.802542,188.195102 C149.411219,186.077145 149.393171,182.734197 151.784494,180.618302 C154.338247,178.358049 158.98734,178.483847 161.461683,180.880211 C163.03003,182.398046 163.450542,184.579933 162.484988,186.656645 C161.357006,189.079818 159.476433,190.572905 157.263782,192 Z"
         id="path51"
         fill="#000000"
         fill-rule="nonzero"
         style="mix-blend-mode: multiply;"
         opacity="0.103836287" />
      <path
         d="M228.263782,59 C228.411774,58.5112407 228.503817,58.2534563 228.566984,57.9894851 C228.760095,57.1851977 228.554351,56.8407977 227.758446,56.865545 C225.960893,56.9212265 224.271626,56.4943355 222.802542,55.195102 C220.411219,53.0771452 220.393171,49.7341969 222.784494,47.6183024 C225.338247,45.3580486 229.98734,45.4838474 232.461683,47.8802114 C234.03003,49.398046 234.450542,51.5799333 233.484988,53.6566446 C232.357006,56.0798181 230.478238,57.5749677 228.263782,59 Z"
         id="path53"
         fill="#000000"
         fill-rule="nonzero"
         style="mix-blend-mode: multiply;"
         opacity="0.103836287" />
      <path
         d="M223.759431,187.934049 C223.794066,187.802148 223.828702,187.669683 223.870685,187.507907 C223.607243,187.49776 223.401526,187.490996 223.19581,187.481414 C221.937373,187.423918 220.988559,186.883912 221.000104,186.23286 C221.0106,185.593646 221.94472,185.072805 223.174819,185.009109 C224.198152,184.956123 225.030463,185.131992 225.604579,185.597028 C226.179745,186.062629 226.101027,186.551904 225.539506,186.985938 C225.066148,187.351767 224.44795,187.664046 223.893776,188 C223.848644,187.977453 223.804562,187.956033 223.759431,187.934049 Z"
         id="path55"
         fill="#000000"
         fill-rule="nonzero"
         style="mix-blend-mode: multiply;"
         opacity="0.103836287" />
      <path
         d="M244.009866,120.609673 C244.93325,123.37988 245.833548,126.081009 246.805024,129 C247.051259,128.550107 247.210928,128.291507 247.339817,128.020509 C249.132719,124.217673 250.944858,120.423694 252.689667,116.601375 C253.043631,115.825575 253.563034,115.547492 254.417163,115.412878 C257.862536,114.872652 260.952022,113.599136 263.381674,111.234541 C268.823863,105.9421 268.03514,98.8394585 261.634941,94.3972082 C258.85325,92.4665651 255.690663,91.435708 252.358789,90.7821233 C251.081442,90.5323796 250.152288,90.0984277 249.27315,89.1313349 C246.297163,85.8563266 242.24582,84.8307832 237.777031,85.0220763 C234.818357,85.149605 232.102072,85.9909403 229.708971,87.6736108 C229.381939,87.903871 228.754808,87.8932436 228.29504,87.827708 C222.160314,86.9509481 216.525753,87.9782628 211.856898,91.8873722 C204.744924,97.8457972 205.562503,107.199674 213.528606,112.191007 C214.590496,112.85699 215.792818,113.328138 216.906649,113.928585 C217.195206,114.084454 217.581873,114.374936 217.60111,114.62468 C217.88582,118.418659 220.359717,120.822221 223.80509,122.311827 C230.543863,125.223733 237.155671,124.924395 243.413515,120.992259 C243.577031,120.89307 243.732851,120.788568 244.009866,120.609673 Z"
         id="path57"
         fill="#000000"
         fill-rule="nonzero"
         style="mix-blend-mode: multiply;"
         opacity="0.103836287" />
      <path
         d="M190.604349,151 C189.034041,147.874796 187.561175,144.942192 185.994614,141.826074 C186.558651,141.7861 186.950291,141.735225 187.341931,141.735225 C193.988569,141.731591 200.633333,141.735225 207.279972,141.733408 C207.888981,141.733408 208.497991,141.697068 209.107001,141.675264 C211.318174,141.595317 212.969059,140.079957 212.978428,137.955909 C213.00841,130.586242 213.006537,123.216576 212.976555,115.845093 C212.967185,113.695607 211.246967,112.02762 209.039541,112.022169 C199.184827,111.998549 189.330114,112.007634 179.477274,112.005817 C176.194243,112.004 172.911212,111.998549 169.630055,112.000366 C166.579385,112.000366 165.035311,113.4594 165.024068,116.428343 C165.001582,122.0955 165.012825,127.76084 165.009077,133.427997 C165.007203,134.992416 164.992212,136.556835 165.005329,138.121254 C165.02032,139.840116 166.659962,141.582599 168.488865,141.682532 C170.278416,141.782466 172.081085,141.667997 173.868763,141.775198 C174.663286,141.82244 175.534639,142.025941 176.20736,142.422043 C180.736518,145.094819 185.220704,147.840274 189.721754,150.558474 C189.937249,150.683846 190.171484,150.781963 190.604349,151 Z"
         id="path59"
         fill="#000000"
         fill-rule="nonzero"
         style="mix-blend-mode: multiply;"
         opacity="0.103836287" />
      <path
         d="M139.824556,182.547513 C140.496394,185.626263 141.156972,188.650066 141.888863,192 C140.047876,190.7132 138.469619,189.61428 136.895115,188.50827 C135.883604,187.797516 134.950913,186.65783 133.847446,186.489447 C132.865962,186.338788 131.721209,187.313637 130.612113,187.700031 C125.351882,189.525657 120.121677,189.486663 115.028467,187.194883 C112.598214,186.10128 110.678407,184.507845 110.319969,181.741048 C110.288066,181.494677 109.858314,181.242989 109.559928,181.08524 C108.163705,180.351445 106.634241,179.794895 105.356247,178.910442 C99.5161328,174.865706 99.5592956,168.213694 105.418176,164.190228 C109.494246,161.391526 114.135185,160.652414 119.036977,161.161107 C120.078514,161.269227 120.902361,161.125658 121.844435,160.682545 C126.682422,158.408489 131.546682,158.424441 136.352765,160.822569 C136.853829,161.072485 137.441218,161.347215 137.730222,161.769058 C138.752992,163.25969 140.344386,163.399714 141.971436,163.669127 C144.872726,164.151234 147.54319,165.209388 149.812051,167.033241 C154.060772,170.448756 154.062649,175.269825 149.817681,178.680023 C147.327376,180.681121 144.362279,181.673695 141.196382,182.216065 C140.896119,182.267466 140.590226,182.297598 140.29184,182.354316 C140.182994,182.372041 140.085409,182.435849 139.824556,182.547513 Z"
         id="path61"
         fill="#000000"
         fill-rule="nonzero"
         style="mix-blend-mode: multiply;"
         opacity="0.103836287" />
      <path
         d="M124.856483,53.8006106 C124.522213,53.2043597 124.14974,52.6234464 123.863222,52.0041891 C123.620637,51.4788748 123.387602,50.920968 123.303557,50.3553923 C123.081983,48.8465516 123.475468,48.4420212 124.999742,48.5282955 C129.922117,48.8062903 134.622917,47.9876435 138.934054,45.510614 C140.271137,44.7418146 141.564287,43.8062183 142.662605,42.7268316 C147.246888,38.2233159 147.086438,32.0230733 142.316873,27.532978 C138.855739,24.2737286 134.584715,22.7706395 129.98324,22.2338219 C124.378954,21.5800549 118.916016,22.2165671 113.986001,25.172898 C112.249703,26.2139406 110.570709,27.5694049 109.304301,29.1395962 C106.064741,33.1523073 106.295865,37.9779136 109.651943,42.5044358 C112.347119,46.1394574 115.865557,48.8235451 119.681973,51.145281 C121.324675,52.1441451 123.02277,53.0509833 124.696033,54 C124.751427,53.9328978 124.803,53.8677128 124.856483,53.8006106 Z"
         id="path63"
         fill="#000000"
         fill-rule="nonzero"
         style="mix-blend-mode: multiply;"
         opacity="0.103836287" />
      <path
         d="M55.3727295,106.49307 C56.6995349,106.090139 57.7557682,105.38179 57.9000733,104.033167 C58.0423741,102.691904 57.2306579,101.667098 55.9559627,101.175853 C54.7814794,100.723246 53.4646953,100.351592 52.2100425,100.349752 C49.6466225,100.344233 47.0852067,100.671729 44.5177782,100.747164 C42.4213456,100.807879 41.0664809,99.5310114 41.0404258,97.6046701 C41.0043496,94.7767938 40.9983369,91.9489175 41.0003411,89.1210412 C41.0023453,85.597695 41.0263962,82.0725089 41.0344131,78.5491627 C41.0384216,76.2585277 42.3712397,75.0074178 44.8905664,75.0055779 C52.9375808,74.9982185 60.9845951,74.9963786 69.0316094,75.0110975 C71.7152836,75.0147773 72.9859703,76.2162107 72.9899788,78.6871527 C72.9959915,84.5360914 72.9979958,90.38687 73,96.2358087 C73,99.8879457 72.7474661,100.184164 68.7911009,100.507981 C66.2817953,100.714046 64.1412694,101.429755 62.5699471,103.372655 C61.9205741,104.174837 61.0607561,104.851908 60.2149678,105.494022 C58.6055649,106.715694 56.8057595,107.398285 54.4608014,106.750651 C54.9097506,106.621861 55.1442464,106.562985 55.3727295,106.49307 Z"
         id="path65"
         fill="#000000"
         fill-rule="nonzero"
         style="mix-blend-mode: multiply;"
         opacity="0.103836287" />
      <path
         d="M161.80568,112 C161.458915,110.515567 161.051923,109.000983 160.765386,107.463344 C160.604779,106.596095 161.075649,106.246712 162.022864,106.346029 C168.282883,107.007551 174.190661,102.914274 176.198247,97.2851324 C179.530839,87.9386996 172.027943,78.4291033 161.944386,79.0267784 C155.757371,79.3938964 150.02115,84.572565 149.165189,90.4712814 C148.396831,95.7723227 150.387991,100.170644 153.496099,104.246185 C155.835849,107.31969 158.704872,109.889515 161.80568,112 Z"
         id="path67"
         fill="#000000"
         fill-rule="nonzero"
         style="mix-blend-mode: multiply;"
         opacity="0.103836287" />
      <path
         d="M35.8817105,18.7592506 C35.3732985,21.1589125 34.8886257,23.4437248 34.3485616,26 C36.2971444,24.6148434 38.0300973,23.4211029 39.7076589,22.1699376 C40.2892664,21.7366412 40.6770047,21.7053185 41.3693945,22.055088 C45.727494,24.2476725 50.1983541,24.2911762 54.6375621,22.2847873 C56.4120583,21.4825798 57.711773,20.2453357 58.0025767,18.3659775 C58.0460983,18.087554 58.5010974,17.7673671 58.8492705,17.6316357 C60.8097229,16.8694515 62.5149802,15.8201432 63.7078689,14.2383501 C66.321146,10.7737185 64.8433883,5.932631 60.4219846,4.25686996 C58.0559896,3.36069453 55.3952344,2.49758189 52.9085657,2.57936877 C50.5742229,2.65593522 48.7977484,1.76672038 46.7700353,1.34212464 C42.8906739,0.532956534 39.4821377,1.0898034 36.6730132,3.75918807 C36.3149487,4.09851663 35.6502545,4.26383055 35.0943643,4.35257802 C32.7540867,4.72496936 30.5799826,5.41406736 28.7500952,6.78878306 C24.9696467,9.62870209 25.1021899,13.7424083 29.0527684,16.4083127 C30.783743,17.5776911 32.7679345,18.2285059 34.8965387,18.5782753 C35.1695381,18.6252593 35.438581,18.6792038 35.8817105,18.7592506 Z"
         id="path69"
         fill="#000000"
         fill-rule="nonzero"
         style="mix-blend-mode: multiply;"
         opacity="0.103836287" />
      <path
         d="M97.8517512,77.7567338 C97.3714829,77.609778 97.0217027,77.5418109 96.7045444,77.3985291 C95.2782384,76.7537605 95.0770695,75.2566484 96.2858955,74.2518383 C97.3044266,73.4050055 98.531376,73.3645927 99.7583254,73.4288858 C100.923655,73.4895051 102.085361,73.6254392 103.250691,73.7191235 C105.053962,73.8624054 105.994563,72.9990402 105.998188,71.189647 C106.001812,68.922854 106,66.656061 105.992751,64.389268 C105.987314,62.9546121 105.16089,62.0398123 103.745458,62.0306276 C98.5621857,61.9993995 93.3771012,61.9920517 88.1920167,62.0085842 C86.887137,62.0122581 86.0208418,62.9527751 86.0117802,64.284562 C85.9954692,66.7313758 85.9972815,69.1781897 86.0099678,71.6250035 C86.0154048,72.7234981 86.4268044,73.2157999 87.5033302,73.4197011 C88.3007566,73.5703308 89.1054325,73.6989171 89.9119206,73.772395 C90.7292828,73.8458729 91.3309773,74.2481644 91.8728648,74.8304767 C92.5343664,75.5413753 93.1958679,76.2596217 93.9153641,76.9099011 C95.0063885,77.9000157 96.2659599,78.2986333 97.8517512,77.7567338 Z"
         id="path71"
         fill="#000000"
         fill-rule="nonzero"
         style="mix-blend-mode: multiply;"
         opacity="0.103836287" />
      <path
         d="M190.640303,200 C190.305279,199.284073 189.923922,198.706307 189.777795,198.103421 C189.58177,197.301367 188.924197,197.147056 187.871011,197.172177 C185.998085,197.217034 184.121596,197.211651 182.24867,197.186531 C180.042503,197.157822 178.996445,196.429335 179.000009,194.93468 C179.012483,189.99496 179.037432,185.057036 179.074855,180.117316 C179.085547,178.728525 180.151208,178.039512 182.189863,178.035924 C188.573135,178.026952 194.958189,178.012598 201.341461,178.000038 C204.028779,177.994655 204.914454,178.567038 204.930492,180.390051 C204.969697,185.2257 204.991082,190.059555 204.999992,194.895205 C205.003556,196.41498 203.850575,197.330076 201.62837,197.159617 C197.738173,196.861762 194.482384,197.545392 191.746951,199.440177 C191.470734,199.633962 191.107198,199.768535 190.640303,200 Z"
         id="path73"
         fill="#000000"
         fill-rule="nonzero"
         style="mix-blend-mode: multiply;"
         opacity="0.103836287" />
      <path
         d="M108.770098,134 C107.017806,132.888462 105.218928,131.853319 103.527553,130.648198 C101.332708,129.084024 99.3295757,127.263929 98.0108767,124.756284 C96.6384264,122.147417 96.5810917,119.53855 98.34951,117.122579 C99.0536522,116.16001 99.9369655,115.273836 100.895531,114.609205 C104.532703,112.092012 108.585552,111.643195 112.779947,112.229521 C115.845563,112.65733 118.660341,113.770777 120.907146,116.137092 C122.159551,117.456804 123.012405,119.015249 122.999863,120.976674 C122.978363,124.240622 121.177694,126.289901 118.758885,127.834976 C115.859897,129.687539 112.661694,130.321612 109.309403,130.195562 C107.884993,130.142086 107.528443,130.674936 108.082082,132.080592 C108.316796,132.678378 108.642887,133.237966 108.925977,133.814744 C108.874018,133.877769 108.822058,133.938885 108.770098,134 Z"
         id="path75"
         fill="#000000"
         fill-rule="nonzero"
         style="mix-blend-mode: multiply;"
         opacity="0.103836287" />
      <path
         d="M50.7663469,52.6666592 C51.8503814,51.8295913 52.9324626,50.9925234 54.0164971,50.1571638 C53.9774328,50.1042064 53.9383685,50.0529574 53.8993042,50 C51.774206,50.7123619 49.6276223,51.3854328 47.5279159,52.1524603 C46.0708173,52.6837422 44.6117655,52.9809867 43.019895,52.9143629 C41.4553696,52.8477392 41.0080833,53.2782312 41.0041768,54.6107067 C40.9983172,57.8496469 40.9983172,61.0868789 41.00613,64.3258192 C41.0100365,65.5318803 41.4963871,65.9879969 42.8538717,65.9931218 C46.9946881,66.0050799 51.1355046,66.0016633 55.2743678,65.9811637 C56.5302852,65.9743305 56.9971036,65.5489633 56.9990569,64.4522335 C57.0049165,61.0749208 56.9814779,57.6976081 56.9834311,54.3202953 C56.9834311,53.3653546 56.4580162,52.909238 55.3798414,52.9109463 C53.8758656,52.9126546 52.3738431,52.9109463 50.8698673,52.9109463 C50.8386158,52.8272395 50.803458,52.7469494 50.7663469,52.6666592 Z"
         id="path77"
         fill="#000000"
         fill-rule="nonzero"
         style="mix-blend-mode: multiply;"
         opacity="0.103836287" />
      <path
         d="M187.415089,168.824132 C187.470506,168.472395 187.525924,168.119155 187.593096,167.687751 C187.171588,167.660694 186.842442,167.642656 186.513296,167.617103 C184.499796,167.463782 182.981694,166.023765 183.000167,164.287628 C183.01696,162.583057 184.511551,161.194147 186.47971,161.024291 C188.117043,160.882995 189.448741,161.351978 190.367327,162.592076 C191.287592,163.833677 191.161643,165.13841 190.263209,166.295835 C189.505837,167.271379 188.51672,168.104123 187.630041,169 C187.557831,168.939874 187.4873,168.881251 187.415089,168.824132 Z"
         id="path79"
         fill="#000000"
         fill-rule="nonzero"
         style="mix-blend-mode: multiply;"
         opacity="0.103836287" />
      <path
         d="M115.889693,3.18462516 C120.10393,2.19667773 124.083933,5.31015091 123.996096,9.26769568 C123.996096,9.30606257 124,9.34442946 124,9.38279635 C124,12.7379809 121.23215,15.4581935 117.818209,15.4581935 C117.660102,15.4581935 117.505899,15.4505201 117.351696,15.43901 C117.304849,15.4370917 117.259954,15.43901 117.213108,15.4370917 C116.469419,15.4083165 116.287889,15.6193344 116.444044,16.3617338 C116.547497,16.8566667 116.740739,17.3343344 116.949596,18 C114.535047,16.2562248 112.53431,14.3685738 111.474407,11.7078299 C110.008501,8.03036346 112.067796,4.08049206 115.889693,3.18462516 Z"
         id="path81"
         fill="#000000"
         fill-rule="nonzero"
         style="mix-blend-mode: multiply;"
         opacity="0.103836287" />
      <path
         d="M241.395146,55.2457673 C246.90584,53.9299402 252.110852,58.0793386 251.996641,63.3577908 C251.99832,63.4082701 252,63.460432 252,63.5109113 C252,67.9833773 248.38051,71.6094737 243.916192,71.6094737 C243.709604,71.6094737 243.506375,71.5993778 243.304826,71.584234 C243.244361,71.5825514 243.185576,71.584234 243.123431,71.5825514 C242.152635,71.5438506 241.912456,71.8265347 242.117364,72.8142463 C242.25341,73.4755251 242.505347,74.1115643 242.779118,75 C239.621511,72.6745869 237.004729,70.1573525 235.619078,66.6103403 C233.704359,61.705435 236.398402,56.4387614 241.395146,55.2457673 Z"
         id="path83"
         fill="#000000"
         fill-rule="nonzero"
         style="mix-blend-mode: multiply;"
         opacity="0.103836287" />
      <path
         d="M118.868858,60.5443251 C122.457832,57.504556 126.703239,56.6716944 131.325025,57.3956163 C131.729944,57.4588716 132.256161,57.3569603 132.598647,57.1373238 C136.201892,54.8320191 139.96211,54.294349 143.977409,56.0022424 C145.550707,56.6716944 146.847519,57.6363379 147.84287,59.0314689 C148.087249,59.3758589 148.611681,59.644694 149.046925,59.720249 C152.177467,60.2631904 155.074333,61.2946033 157.555577,63.3205304 C161.255146,66.3392144 162.064985,70.8461552 159.544497,74.87341 C157.660821,77.8850656 154.726495,79.3434519 151.312331,79.956677 C150.588115,80.0867018 150.274169,80.39595 150.008385,81.0162035 C148.711573,84.0471871 147.371951,87.0605998 146.041248,90.0775267 C145.921734,90.349876 145.766545,90.6064114 145.559626,91 C144.830058,88.6472539 144.155788,86.4754882 143.461895,84.2387101 C143.172922,84.4021197 143.010598,84.4776746 142.866111,84.579586 C140.004921,86.5703712 136.979622,87.3575484 133.852648,87.1695395 C133.693891,87.1748108 133.535134,87.178325 133.376378,87.178325 C127.300807,87.178325 122.375778,83.720368 122.375778,79.4523916 C122.375778,79.2749254 122.388265,79.0992162 122.404319,78.923507 C121.986913,78.5123474 121.474967,78.1749858 120.855994,77.8288387 C113.945612,73.9843215 112.982369,65.529195 118.868858,60.5443251 Z"
         id="path85"
         fill="#000000"
         fill-rule="nonzero"
         style="mix-blend-mode: multiply;"
         opacity="0.103836287" />
    </g>
  </g>
</svg>
