<?xml version="1.0" encoding="UTF-8" standalone="no"?>
<svg width="220px" height="97px" viewBox="0 0 220 97" version="1.1" xmlns="http://www.w3.org/2000/svg" xmlns:xlink="http://www.w3.org/1999/xlink">
    <!-- Generator: Sketch 48.2 (47327) - http://www.bohemiancoding.com/sketch -->
    <title>Group 23</title>
    <desc>Created with Sketch.</desc>
    <defs></defs>
    <g id="Page-1" stroke="none" stroke-width="1" fill="none" fill-rule="evenodd">
        <g id="Group-23">
            <g id="Page-1-Copy" transform="translate(71.000000, 7.000000)">
                <g id="Group-6">
                    <g id="Group-3" fill="#D0021B">
                        <path d="M36.3111478,88.4021565 L3.18885217,69.2775 C1.21522609,68.137729 0,66.0320038 0,63.7538359 L0,25.5031489 C0,23.2242939 1.21522609,21.1185687 3.18885217,19.9794847 L36.3111478,0.854828244 C38.2847739,-0.284942748 40.7152261,-0.284942748 42.6888522,0.854828244 L75.8111478,19.9794847 C77.7847739,21.1185687 79,23.2242939 79,25.5031489 L79,63.7538359 C79,66.0320038 77.7847739,68.137729 75.8111478,69.2775 L42.6888522,88.4021565 C40.7152261,89.5419275 38.2847739,89.5419275 36.3111478,88.4021565" id="Fill-1"></path>
                    </g>
                    <path d="M36.575,85.0401908 L5.45586957,67.0717939 C3.93632174,66.1944656 3,64.5724046 3,62.8177481 L3,26.8809542 C3,25.1262977 3.93632174,23.5042366 5.45586957,22.6262214 L36.575,4.65851145 C38.0945478,3.78049618 39.9671913,3.78049618 41.4874261,4.65851145 L72.6065565,22.6262214 C74.1261043,23.5042366 75.0624261,25.1262977 75.0624261,26.8809542 L75.0624261,62.8177481 C75.0624261,64.5724046 74.1261043,66.1944656 72.6065565,67.0717939 L41.4874261,85.0401908 C39.9671913,85.9175191 38.0945478,85.9175191 36.575,85.0401908" id="Fill-4" fill="#F5A623"></path>
                </g>
                <g id="Group-19" transform="translate(32.000000, 62.000000)" fill="#F8E71C">
                    <polygon id="Fill-12" points="8.0006448 0 10.4727976 4.93770659 16 5.72972286 12.0009672 9.57284516 12.9436608 15 8.0006448 12.4383422 3.05633916 15 4.0003224 9.57284516 0 5.72972286 5.52849198 4.93770659"></polygon>
                </g>
            </g>
            <g id="Group-7-Copy">
                <polygon id="Fill-12" fill="#F8E71C" points="8.0006448 0 10.4727976 4.93770659 16 5.72972286 12.0009672 9.57284516 12.9436608 15 8.0006448 12.4383422 3.05633916 15 4.0003224 9.57284516 0 5.72972286 5.52849198 4.93770659"></polygon>
                <polygon id="Fill-12-Copy" fill="#F5A623" points="24.0006448 26 26.4727976 30.9377066 32 31.7297229 28.0009672 35.5728452 28.9436608 41 24.0006448 38.4383422 19.0563392 41 20.0003224 35.5728452 16 31.7297229 21.528492 30.9377066"></polygon>
                <polygon id="Fill-12-Copy-2" fill="#D0021B" points="48.0006448 45 50.4727976 49.9377066 56 50.7297229 52.0009672 54.5728452 52.9436608 60 48.0006448 57.4383422 43.0563392 60 44.0003224 54.5728452 40 50.7297229 45.528492 49.9377066"></polygon>
            </g>
            <g id="Group-7-Copy-2" transform="translate(192.000000, 30.000000) scale(-1, 1) translate(-192.000000, -30.000000) translate(164.000000, 0.000000)">
                <polygon id="Fill-12" fill="#F8E71C" points="8.0006448 0 10.4727976 4.93770659 16 5.72972286 12.0009672 9.57284516 12.9436608 15 8.0006448 12.4383422 3.05633916 15 4.0003224 9.57284516 0 5.72972286 5.52849198 4.93770659"></polygon>
                <polygon id="Fill-12-Copy" fill="#F5A623" points="24.0006448 26 26.4727976 30.9377066 32 31.7297229 28.0009672 35.5728452 28.9436608 41 24.0006448 38.4383422 19.0563392 41 20.0003224 35.5728452 16 31.7297229 21.528492 30.9377066"></polygon>
                <polygon id="Fill-12-Copy-2" fill="#D0021B" points="48.0006448 45 50.4727976 49.9377066 56 50.7297229 52.0009672 54.5728452 52.9436608 60 48.0006448 57.4383422 43.0563392 60 44.0003224 54.5728452 40 50.7297229 45.528492 49.9377066"></polygon>
            </g>
        </g>
    </g>
</svg>