<?xml version="1.0" encoding="utf-8"?>
<!-- Generator: Adobe Illustrator 17.0.0, SVG Export Plug-In . SVG Version: 6.00 Build 0)  -->
<!DOCTYPE svg PUBLIC "-//W3C//DTD SVG 1.1//EN" "http://www.w3.org/Graphics/SVG/1.1/DTD/svg11.dtd">
<svg version="1.1" id="Layer_1" xmlns="http://www.w3.org/2000/svg" xmlns:xlink="http://www.w3.org/1999/xlink" x="0px" y="0px"
	 width="328.995px" height="159.803px" viewBox="0 0 328.995 159.803" enable-background="new 0 0 328.995 159.803"
	 xml:space="preserve">
<g>
	<path fill="#EF4438" d="M101.108,51.261c1.379-1.071,2.799-2.095,4.13-3.223c3.219-2.73,5.918-5.893,7.774-9.716
		c1.179-2.428,1.887-4.989,1.964-7.697c0.134-4.735-1.821-8.509-5.498-11.375c-6.402-4.99-15.715-4.641-21.736,0.797
		c-4.098,3.701-5.819,9.435-3.679,14.748c1.102,2.736,3.013,4.858,5.422,6.532c3.467,2.409,7.329,3.465,11.534,3.322
		c0.081-0.003,0.164-0.004,0.243-0.022c1.666-0.371,1.904,0.532,1.568,1.794c-0.353,1.326-0.955,2.586-1.46,3.871
		c-0.111,0.281-0.271,0.543-0.408,0.813C101.01,51.157,101.059,51.209,101.108,51.261z"/>
	<path fill="#FEC013" d="M56.942,66.699c0.318,1.036,0.628,2.047,0.963,3.139c0.085-0.168,0.14-0.265,0.184-0.366
		c0.617-1.423,1.242-2.842,1.843-4.272c0.122-0.29,0.301-0.395,0.595-0.445c1.187-0.202,2.251-0.679,3.088-1.563
		c1.875-1.98,1.603-4.637-0.601-6.299c-0.958-0.722-2.048-1.108-3.195-1.352c-0.44-0.094-0.76-0.256-1.063-0.618
		c-1.025-1.225-2.421-1.609-3.96-1.537c-1.019,0.047-1.955,0.363-2.779,0.992c-0.113,0.086-0.328,0.082-0.487,0.057
		c-2.114-0.328-4.054,0.056-5.662,1.519c-2.45,2.229-2.168,5.729,0.576,7.596c0.366,0.249,0.78,0.426,1.164,0.65
		c0.1,0.058,0.233,0.167,0.239,0.26c0.098,1.42,0.951,2.319,2.137,2.876c2.321,1.09,4.599,0.977,6.755-0.494
		C56.793,66.804,56.847,66.765,56.942,66.699z"/>
	<path fill="#FEC013" d="M14.881,40.354c0.904-0.391,1.808-0.781,2.711-1.172c1.831-0.793,3.66-1.589,5.494-2.374
		c0.17-0.073,0.371-0.099,0.558-0.102c0.725-0.011,1.451,0.001,2.176-0.006c0.889-0.009,1.493-0.582,1.497-1.461
		c0.01-2.383,0.007-4.766-0.003-7.15c-0.003-0.781-0.607-1.384-1.382-1.385c-4.041-0.007-8.082-0.009-12.124-0.005
		c-0.766,0.001-1.386,0.613-1.39,1.384c-0.01,1.952,0,3.905,0.002,5.857c0,0.411-0.006,0.823,0.002,1.234
		c0.019,0.956,0.599,1.524,1.56,1.527c1.332,0.004,2.664,0.002,3.997,0.002c0.142,0,0.284,0,0.556,0
		c-1.293,1.255-2.494,2.42-3.695,3.586C14.855,40.312,14.868,40.333,14.881,40.354z"/>
	<path fill="#FEC013" d="M49.685,25.078c-0.26-0.561-0.529-1.1-0.76-1.655c-0.108-0.259-0.176-0.546-0.204-0.825
		c-0.08-0.79,0.126-1.007,0.914-0.947c2.036,0.157,3.987-0.178,5.819-1.07c2.393-1.165,4.194-2.894,4.839-5.569
		c0.697-2.892-0.591-5.889-3.224-7.757c-1.604-1.138-3.394-1.733-5.328-1.957c-3.25-0.377-6.212,0.343-8.725,2.473
		c-3.157,2.677-3.638,6.593-1.337,10.232c1.612,2.548,3.853,4.453,6.333,6.103c0.491,0.327,1,0.627,1.503,0.936
		C49.559,25.068,49.623,25.065,49.685,25.078z"/>
	<path fill="#FEC013" d="M12.652,59.624c-0.564-1.161-1.128-2.322-1.736-3.572c0.319,0,0.537,0,0.755,0
		c2.547,0,5.095-0.001,7.642-0.001c1.376,0,1.944-0.552,1.945-1.903c0.002-2.734,0.002-5.469-0.001-8.203
		c-0.001-1.159-0.569-1.755-1.706-1.757c-4.952-0.01-9.904-0.015-14.856-0.012c-1.393,0.001-1.91,0.541-1.91,1.932
		c0.001,2.731-0.001,5.461,0.001,8.192c0.001,1.117,0.63,1.839,1.723,1.731c1.573-0.156,2.878,0.312,4.14,1.208
		c1.258,0.893,2.612,1.651,3.924,2.468C12.6,59.679,12.626,59.652,12.652,59.624z"/>
	<path fill="#FEC013" d="M75.911,151.218c-0.19-0.837-0.413-1.691-0.57-2.558c-0.088-0.489,0.17-0.686,0.689-0.63
		c3.43,0.373,6.667-1.935,7.767-5.109c1.826-5.27-2.285-10.632-7.81-10.295c-3.39,0.207-6.533,3.127-7.002,6.453
		c-0.421,2.989,0.67,5.469,2.373,7.767C72.641,148.579,74.212,150.028,75.911,151.218z"/>
	<path fill="#FEC013" d="M104.962,53.38c-0.187,0.617-0.36,1.137-0.499,1.665c-0.087,0.331-0.256,0.448-0.604,0.441
		c-1.039-0.023-2.078-0.014-3.118-0.009c-1.139,0.005-1.672,0.543-1.674,1.689c-0.005,3.641-0.008,7.282-0.008,10.923
		c0,1.22,0.519,1.74,1.75,1.742c3.22,0.005,6.44,0.005,9.66,0.001c1.253-0.002,1.786-0.545,1.785-1.789
		c-0.002-3.566-0.002-7.133-0.003-10.699c0-1.337-0.527-1.972-1.83-1.837c-1.865,0.194-3.434-0.262-4.75-1.599
		C105.49,53.722,105.252,53.592,104.962,53.38z"/>
	<path fill="#FEC013" d="M51.184,40.472c0.887,0.235,1.612,0.027,2.238-0.436c0.438-0.325,0.877-0.681,1.194-1.097
		c0.69-0.904,1.67-1.235,2.81-1.337c0.182-0.016,0.364-0.045,0.542-0.085c0.808-0.179,1.053-0.451,1.021-1.197
		c-0.094-2.198-0.202-4.395-0.304-6.593c-0.021-0.454-0.036-0.908-0.06-1.362c-0.051-0.954-0.654-1.446-1.734-1.398
		c-3.3,0.147-6.601,0.3-9.901,0.451c-0.224,0.01-0.449,0.013-0.672,0.032c-0.955,0.08-1.388,0.645-1.272,1.485
		c0.081,0.585,0.007,1.188-0.002,1.784c-0.003,0.2-0.036,0.4-0.027,0.598c0.081,1.798,0.165,3.596,0.253,5.394
		c0.055,1.12,0.62,1.576,1.867,1.474c0.69-0.056,1.372-0.184,2.062-0.243c0.524-0.045,1.058-0.071,1.581-0.037
		c1.007,0.066,1.722,0.555,1.825,1.184C52.698,39.648,52.309,40.04,51.184,40.472z"/>
	<path fill="#FEC013" d="M141.898,59.698c2.21-1.303,4.232-2.834,5.745-4.944c2.617-3.648,1.675-7.664-2.376-9.572
		c-3.365-1.585-6.691-1.308-9.665,1.021c-3.329,2.606-2.863,7.347,0.878,9.59c1.654,0.991,3.442,1.454,5.377,1.246
		c0.491-0.053,0.746,0.178,0.651,0.62C142.361,58.338,142.113,58.998,141.898,59.698z"/>
	<path fill="#FEC013" d="M80.901,87.84c0.898,0.3,1.651,0.151,2.31-0.371c0.509-0.403,1.074-0.803,1.417-1.332
		c0.638-0.983,1.632-0.935,2.565-1.094c1.26-0.215,1.575-0.044,1.58-1.633c0.009-2.733,0.001-5.465,0-8.198
		c0-1.318-0.48-1.795-1.811-1.797c-3.222-0.004-6.444-0.007-9.667-0.01c-1.471-0.001-1.921,0.45-1.923,1.946
		c-0.004,2.753-0.016,5.506,0.004,8.259c0.008,1.018,0.601,1.677,1.915,1.576c1.104-0.085,2.213-0.161,3.319-0.153
		c0.601,0.004,1.191,0.202,1.554,0.78c0.444,0.707,0.252,1.409-0.506,1.765C81.445,87.678,81.209,87.735,80.901,87.84z"/>
	<path fill="#FEC013" d="M93.558,89.711c-0.257,0.75-0.552,1.444-0.727,2.167c-0.166,0.687,0.019,0.85,0.716,0.807
		c2.483-0.156,4.67,0.638,6.326,2.437c3.261,3.542,1.591,7.74-1.191,9.632c-3.907,2.657-9.565,0.91-10.987-3.416
		c-0.658-2.002-0.284-3.932,0.563-5.755C89.39,93.147,91.437,91.06,93.558,89.711z"/>
	<path fill="#FEC013" d="M120.41,56.208c-0.385-0.117-0.666-0.17-0.92-0.284c-1.144-0.51-1.305-1.695-0.336-2.49
		c0.817-0.67,1.801-0.702,2.785-0.652c0.935,0.048,1.867,0.156,2.8,0.229c1.447,0.113,2.2-0.57,2.203-2.002
		c0.003-1.794,0.002-3.587-0.004-5.381c-0.004-1.135-0.668-1.859-1.802-1.866c-4.158-0.025-8.316-0.03-12.474-0.018
		c-1.047,0.003-1.742,0.747-1.749,1.802c-0.012,1.936-0.012,3.873-0.001,5.809c0.005,0.87,0.334,1.259,1.197,1.42
		c0.639,0.119,1.284,0.221,1.932,0.279c0.656,0.059,1.139,0.377,1.573,0.838c0.531,0.563,1.062,1.13,1.637,1.645
		C118.128,56.321,119.138,56.636,120.41,56.208z"/>
	<path fill="#FEC013" d="M47.238,77.921c-0.283-0.086-0.49-0.125-0.677-0.209c-0.842-0.375-0.96-1.247-0.248-1.832
		c0.601-0.493,1.325-0.517,2.049-0.48c0.688,0.035,1.373,0.115,2.06,0.169c1.065,0.083,1.619-0.42,1.621-1.473
		c0.002-1.32,0.002-2.64-0.003-3.959c-0.003-0.835-0.491-1.368-1.326-1.373c-3.059-0.018-6.119-0.022-9.178-0.013
		c-0.77,0.002-1.282,0.549-1.287,1.326c-0.009,1.425-0.009,2.849-0.001,4.274c0.004,0.64,0.246,0.926,0.881,1.045
		c0.47,0.088,0.945,0.163,1.421,0.205c0.482,0.043,0.838,0.277,1.158,0.616c0.391,0.414,0.781,0.832,1.205,1.211
		C45.558,78.005,46.302,78.237,47.238,77.921z"/>
	<path fill="#FEC013" d="M81.548,21.36c2.322-1.289,4.437-2.827,5.512-5.363c0.935-2.204,0.166-4.442-1.896-5.869
		c-2.435-1.685-6.132-1.601-8.491,0.193c-2.8,2.13-2.686,5.857,0.239,7.821c1.347,0.904,2.837,1.287,4.453,1.218
		c0.672-0.029,0.836,0.172,0.677,0.823c-0.053,0.215-0.145,0.422-0.231,0.628C81.733,20.997,81.637,21.177,81.548,21.36z"/>
	<path fill="#FEC013" d="M120.171,91.61c1.787-0.771,3.593-1.502,5.354-2.33c1.005-0.472,2.005-0.711,3.116-0.661
		c1.333,0.06,1.647-0.299,1.645-1.647c-0.003-1.72,0-3.44-0.009-5.16c-0.005-0.944-0.4-1.359-1.336-1.363
		c-3.181-0.014-6.362-0.015-9.543-0.011c-0.854,0.001-1.32,0.475-1.324,1.337c-0.009,1.835-0.011,3.67-0.001,5.505
		c0.005,0.916,0.435,1.344,1.359,1.355c1.14,0.013,2.281,0.003,3.45,0.003c-0.965,0.957-1.904,1.889-2.844,2.821
		C120.082,91.509,120.127,91.559,120.171,91.61z"/>
	<path fill="#FEC013" d="M126.395,105.421c-0.376-0.074-0.77-0.1-1.121-0.237c-0.273-0.106-0.546-0.309-0.726-0.541
		c-0.679-0.877-1.529-1.352-2.657-1.353c-0.504-0.001-0.771-0.344-0.772-0.845c-0.004-2.037-0.012-4.075,0.014-6.112
		c0.009-0.675,0.421-1.044,1.102-1.046c3.056-0.009,6.112-0.01,9.168-0.001c0.741,0.002,1.138,0.404,1.142,1.134
		c0.011,1.956,0.013,3.912,0.005,5.867c-0.003,0.765-0.408,1.158-1.186,1.142c-1.343-0.027-2.686-0.085-4.029-0.115
		c-0.261-0.006-0.524,0.05-0.784,0.093c-0.519,0.086-0.965,0.305-1.008,0.889c-0.043,0.581,0.397,0.793,0.889,0.918
		C126.42,105.283,126.408,105.352,126.395,105.421z"/>
	<path fill="#FEC013" d="M72.348,68.953c-0.9,0.966-1.735,1.862-2.581,2.769c0.199-0.078,0.404-0.152,0.604-0.239
		c1.586-0.688,3.19-1.339,4.749-2.083c0.867-0.414,1.743-0.475,2.665-0.453c1.184,0.029,1.537-0.335,1.536-1.507
		c-0.001-1.67,0.002-3.34-0.006-5.01c-0.004-0.876-0.385-1.26-1.272-1.262c-3.014-0.008-6.029-0.01-9.043-0.006
		c-0.855,0.001-1.27,0.422-1.273,1.281c-0.006,1.752-0.007,3.503,0,5.255c0.003,0.801,0.443,1.242,1.251,1.252
		C70.078,68.963,71.177,68.953,72.348,68.953z"/>
	<path fill="#FEC013" d="M68.82,84.268c0.91-0.959,1.746-1.84,2.638-2.781c-1.318,0.568-2.58,1.111-3.841,1.654
		c-0.355,0.153-0.727,0.276-1.063,0.463c-0.992,0.551-2.038,0.739-3.17,0.674c-1.062-0.061-1.426,0.346-1.429,1.424
		c-0.004,1.611-0.006,3.221,0.003,4.832c0.006,1.065,0.387,1.441,1.429,1.442c2.916,0.001,5.831,0.001,8.746,0.001
		c0.935,0,1.359-0.408,1.36-1.323c0.002-1.672,0.002-3.344-0.004-5.015c-0.003-0.997-0.368-1.363-1.365-1.368
		C71.048,84.263,69.973,84.268,68.82,84.268z"/>
	<path fill="#FEC013" d="M42.606,50.666c1.928-1.174,3.606-2.43,4.619-4.385c1.058-2.042,0.293-4.364-1.717-5.497
		c-2.449-1.381-4.838-1.158-7.114,0.374c-2.176,1.465-2.096,4.741,0.113,6.417c1.166,0.885,2.493,1.253,3.946,1.215
		c0.708-0.019,0.822,0.139,0.589,0.829C42.935,49.936,42.785,50.241,42.606,50.666z"/>
	<path fill="#FEC013" d="M35.481,38.414c0.178-1.304,0.332-2.439,0.495-3.634c0.906,0,1.817-0.028,2.726,0.007
		c1.125,0.043,1.585-0.369,1.538-1.481c-0.06-1.424-0.015-2.852-0.018-4.279c-0.002-0.936-0.316-1.265-1.231-1.267
		c-2.649-0.006-5.298-0.01-7.947-0.008c-0.929,0.001-1.263,0.323-1.27,1.237c-0.011,1.508-0.012,3.016-0.004,4.524
		c0.005,0.926,0.35,1.356,1.249,1.225c1.288-0.186,2.002,0.449,2.657,1.396C34.193,36.881,34.803,37.565,35.481,38.414z"/>
	<path fill="#FEC013" d="M115.012,91.677c0.113-0.619,0.254-1.39,0.421-2.31c-0.571,0.457-1.045,0.822-1.502,1.207
		c-0.258,0.217-0.451,0.273-0.798,0.086c-1.266-0.682-2.581-0.665-3.873-0.059c-0.548,0.257-0.934,0.681-1.135,1.289
		c-0.072,0.218-0.341,0.411-0.565,0.531c-1.88,1.005-2.173,3.09-0.58,4.341c0.872,0.685,1.887,0.903,2.986,0.841
		c0.3-0.017,0.641,0.033,0.907,0.165c1.286,0.637,2.75,0.431,3.786-0.539c0.176-0.164,0.466-0.202,0.696-0.313
		c0.667-0.323,1.422-0.544,1.976-1.006c0.972-0.81,0.975-2.124,0-2.929C116.679,92.445,115.843,92.132,115.012,91.677z"/>
	<path fill="#FEC013" d="M115.529,105.523c0.707,0.688,1.313,1.276,1.919,1.865c-0.022,0.036-0.044,0.073-0.066,0.109
		c-0.15-0.054-0.303-0.102-0.45-0.165c-0.991-0.426-1.992-0.829-2.965-1.292c-0.769-0.366-1.539-0.583-2.405-0.533
		c-0.775,0.045-1.038-0.255-1.04-1.01c-0.004-1.182-0.002-2.364,0.005-3.546c0.005-0.767,0.273-1.051,1.017-1.054
		c2.119-0.009,4.238-0.012,6.358-0.007c0.712,0.002,1.008,0.295,1.014,1.001c0.011,1.223,0.011,2.445,0.003,3.668
		c-0.004,0.657-0.265,0.938-0.918,0.956C117.215,105.54,116.43,105.523,115.529,105.523z"/>
	<path fill="#FEC013" d="M87.772,114.865c0.082-0.237,0.133-0.362,0.168-0.49c0.107-0.39-0.007-0.557-0.448-0.545
		c-0.996,0.027-1.932-0.18-2.746-0.81c-1.325-1.027-1.335-2.648-0.01-3.674c1.415-1.096,3.991-1.035,5.362,0.127
		c0.869,0.736,1.102,1.794,0.567,2.801C90.04,113.449,88.998,114.173,87.772,114.865z"/>
	<path fill="#FEC013" d="M121.539,40.726c0.082-0.237,0.133-0.362,0.168-0.49c0.107-0.39-0.007-0.557-0.448-0.545
		c-0.996,0.027-1.932-0.18-2.746-0.81c-1.325-1.027-1.335-2.648-0.01-3.674c1.415-1.096,3.991-1.035,5.362,0.127
		c0.869,0.736,1.102,1.794,0.567,2.801C123.807,39.31,122.766,40.035,121.539,40.726z"/>
	<path fill="#FEC013" d="M121.363,114.258c0.033-0.234,0.066-0.469,0.106-0.756c-0.251-0.018-0.447-0.03-0.643-0.047
		c-1.199-0.102-2.103-1.06-2.092-2.215c0.01-1.134,0.9-2.058,2.072-2.171c0.975-0.094,1.768,0.218,2.315,1.043
		c0.548,0.826,0.473,1.694-0.062,2.464c-0.451,0.649-1.04,1.203-1.568,1.799C121.448,114.335,121.406,114.297,121.363,114.258z"/>
	<path fill="#FEC013" d="M91.767,144.654c0.058-0.415,0.116-0.83,0.188-1.34c-0.445-0.032-0.792-0.053-1.14-0.083
		c-2.123-0.18-3.724-1.877-3.706-3.924c0.018-2.009,1.593-3.645,3.67-3.845c1.727-0.166,3.132,0.386,4.101,1.848
		c0.971,1.464,0.838,3.001-0.11,4.365c-0.799,1.15-1.842,2.13-2.777,3.186C91.917,144.791,91.842,144.723,91.767,144.654z"/>
	<g>
		<path fill="#009B3A" d="M133.211,76.34c0.48,1.564,0.948,3.089,1.453,4.737c0.128-0.254,0.211-0.4,0.278-0.553
			c0.932-2.147,1.874-4.289,2.781-6.447c0.184-0.438,0.454-0.595,0.898-0.671c1.791-0.305,3.397-1.024,4.66-2.359
			c2.829-2.988,2.419-6.998-0.908-9.506c-1.446-1.09-3.09-1.672-4.822-2.041c-0.664-0.141-1.147-0.386-1.604-0.932
			c-1.547-1.849-3.653-2.428-5.976-2.32c-1.538,0.072-2.95,0.547-4.194,1.497c-0.17,0.13-0.496,0.124-0.735,0.087
			c-3.189-0.495-6.118,0.085-8.545,2.292c-3.697,3.364-3.272,8.645,0.869,11.463c0.552,0.376,1.177,0.642,1.756,0.981
			c0.15,0.088,0.351,0.252,0.361,0.393c0.148,2.142,1.434,3.499,3.225,4.34c3.503,1.644,6.94,1.475,10.193-0.745
			C132.986,76.5,133.067,76.441,133.211,76.34z"/>
		<path fill="#009B3A" d="M104.331,93.214c-0.838-1.72-1.624-3.334-2.46-5.049c0.301-0.022,0.51-0.05,0.719-0.05
			c3.547-0.002,7.093,0,10.64-0.001c0.325,0,0.65-0.02,0.975-0.032c1.18-0.044,2.061-0.878,2.066-2.047
			c0.016-4.056,0.015-8.112-0.001-12.169c-0.005-1.183-0.923-2.101-2.101-2.104c-5.259-0.013-10.518-0.008-15.776-0.009
			c-1.752-0.001-3.504-0.004-5.255-0.003c-1.628,0-2.452,0.803-2.458,2.437c-0.012,3.119-0.006,6.237-0.008,9.356
			c-0.001,0.861-0.009,1.722-0.002,2.583c0.008,0.946,0.883,1.905,1.859,1.96c0.955,0.055,1.917-0.008,2.871,0.051
			c0.424,0.026,0.889,0.138,1.248,0.356c2.417,1.471,4.81,2.982,7.212,4.478C103.975,93.04,104.1,93.094,104.331,93.214z"/>
		<path fill="#009B3A" d="M80.327,107.671c0.358,1.737,0.71,3.443,1.1,5.333c-0.981-0.726-1.822-1.346-2.661-1.97
			c-0.539-0.401-1.036-1.044-1.624-1.139c-0.523-0.085-1.133,0.465-1.724,0.683c-2.803,1.03-5.59,1.008-8.304-0.285
			c-1.295-0.617-2.318-1.516-2.509-3.077c-0.017-0.139-0.246-0.281-0.405-0.37c-0.744-0.414-1.559-0.728-2.24-1.227
			c-3.112-2.282-3.089-6.035,0.033-8.305c2.172-1.579,4.645-1.996,7.257-1.709c0.555,0.061,0.994-0.02,1.496-0.27
			c2.578-1.283,5.17-1.274,7.731,0.079c0.267,0.141,0.58,0.296,0.734,0.534c0.545,0.841,1.393,0.92,2.26,1.072
			c1.546,0.272,2.969,0.869,4.178,1.898c2.264,1.927,2.265,4.647,0.003,6.571c-1.327,1.129-2.907,1.689-4.594,1.995
			c-0.16,0.029-0.323,0.046-0.482,0.078C80.518,107.572,80.466,107.608,80.327,107.671z"/>
		<path fill="#009B3A" d="M87.978,133.506c-0.589-1.215-1.149-2.372-1.754-3.619c0.264,0,0.428,0,0.591,0
			c2.643-0.001,5.287-0.002,7.93-0.004c1.285-0.001,1.841-0.556,1.839-1.837c-0.004-2.746-0.032-5.492,0-8.237
			c0.013-1.117-0.701-1.785-1.76-1.784c-4.996,0.006-9.993-0.007-14.989-0.008c-1.088,0-1.713,0.618-1.716,1.714
			c-0.009,2.831-0.009,5.662-0.003,8.493c0.002,1.031,0.621,1.634,1.664,1.657c0.136,0.003,0.275,0.019,0.409-0.001
			c1.329-0.198,2.432,0.277,3.51,1.024c1.329,0.921,2.737,1.728,4.111,2.582C87.833,133.502,87.87,133.495,87.978,133.506z"/>
		<path fill="#009B3A" d="M69.98,37.471c-0.175-0.311-0.37-0.614-0.52-0.937c-0.127-0.274-0.249-0.565-0.293-0.86
			c-0.116-0.787,0.09-0.998,0.888-0.953c2.577,0.145,5.038-0.282,7.295-1.574c0.7-0.401,1.377-0.889,1.952-1.452
			c2.4-2.349,2.316-5.583-0.181-7.925c-1.812-1.7-4.048-2.484-6.457-2.764c-2.934-0.341-5.794-0.009-8.375,1.533
			c-0.909,0.543-1.788,1.25-2.451,2.069c-1.696,2.093-1.575,4.61,0.182,6.971c1.411,1.896,3.253,3.296,5.251,4.507
			c0.86,0.521,1.749,0.994,2.625,1.489C69.925,37.54,69.952,37.506,69.98,37.471z"/>
		<path fill="#009B3A" d="M32.439,68.129c0.662-0.219,1.189-0.604,1.261-1.337c0.071-0.729-0.334-1.286-0.97-1.553
			c-0.586-0.246-1.243-0.448-1.869-0.449c-1.279-0.003-2.557,0.175-3.838,0.216c-1.046,0.033-1.722-0.661-1.735-1.708
			c-0.018-1.537-0.021-3.074-0.02-4.611c0.001-1.915,0.013-3.831,0.017-5.746c0.002-1.245,0.667-1.925,1.924-1.926
			c4.015-0.004,8.03-0.005,12.045,0.003c1.339,0.002,1.973,0.655,1.975,1.998c0.003,3.179,0.004,6.359,0.005,9.538
			c0,1.985-0.126,2.146-2.1,2.322c-1.252,0.112-2.32,0.501-3.104,1.557c-0.324,0.436-0.753,0.804-1.175,1.153
			c-0.803,0.664-1.701,1.035-2.871,0.683C32.208,68.199,32.325,68.167,32.439,68.129z"/>
		<path fill="#009B3A" d="M89.458,71.722c-0.19-0.837-0.413-1.691-0.57-2.558c-0.088-0.489,0.17-0.686,0.689-0.63
			c3.43,0.373,6.667-1.935,7.767-5.109c1.826-5.27-2.285-10.632-7.81-10.295c-3.39,0.207-6.533,3.127-7.002,6.453
			c-0.421,2.989,0.67,5.469,2.373,7.767C86.187,69.083,87.759,70.532,89.458,71.722z"/>
		<path fill="#009B3A" d="M22.46,20.734c-0.257,1.379-0.502,2.692-0.775,4.161c0.985-0.796,1.861-1.482,2.709-2.201
			c0.294-0.249,0.49-0.267,0.84-0.066c2.203,1.26,4.463,1.285,6.707,0.132c0.897-0.461,1.554-1.172,1.701-2.252
			c0.022-0.16,0.252-0.344,0.428-0.422c0.991-0.438,1.853-1.041,2.456-1.95c1.321-1.991,0.574-4.773-1.661-5.736
			c-1.196-0.515-2.541-1.011-3.798-0.964c-1.18,0.044-2.078-0.467-3.103-0.711c-1.961-0.465-3.684-0.145-5.104,1.389
			c-0.181,0.195-0.517,0.29-0.798,0.341c-1.183,0.214-2.282,0.61-3.207,1.4c-1.911,1.632-1.844,3.996,0.153,5.528
			c0.875,0.672,1.878,1.046,2.954,1.247C22.1,20.657,22.236,20.688,22.46,20.734z"/>
		<path fill="#009B3A" d="M56.714,51.196c-0.265-0.08-0.458-0.117-0.633-0.195c-0.787-0.351-0.898-1.166-0.231-1.713
			c0.562-0.461,1.239-0.483,1.916-0.448c0.643,0.033,1.284,0.107,1.927,0.158c0.995,0.078,1.514-0.392,1.516-1.377
			c0.002-1.234,0.001-2.468-0.003-3.702c-0.003-0.781-0.459-1.279-1.24-1.284c-2.86-0.017-5.721-0.021-8.582-0.012
			c-0.72,0.002-1.198,0.514-1.203,1.239c-0.009,1.332-0.008,2.664-0.001,3.996c0.003,0.598,0.23,0.866,0.824,0.977
			c0.44,0.082,0.884,0.152,1.329,0.192c0.451,0.04,0.783,0.259,1.082,0.576c0.365,0.387,0.73,0.778,1.127,1.132
			C55.144,51.274,55.839,51.491,56.714,51.196z"/>
		<path fill="#009B3A" d="M104.871,119.657c-0.188-0.399-0.402-0.721-0.484-1.057c-0.11-0.447-0.479-0.533-1.07-0.519
			c-1.051,0.025-2.104,0.022-3.155,0.008c-1.238-0.016-1.825-0.422-1.823-1.255c0.007-2.753,0.021-5.505,0.042-8.258
			c0.006-0.774,0.604-1.158,1.748-1.16c3.582-0.005,7.165-0.013,10.747-0.02c1.508-0.003,2.005,0.316,2.014,1.332
			c0.022,2.695,0.034,5.389,0.039,8.084c0.002,0.847-0.645,1.357-1.892,1.262c-2.183-0.166-4.01,0.215-5.545,1.271
			C105.337,119.453,105.133,119.528,104.871,119.657z"/>
		<path fill="#009B3A" d="M61.097,83.241c-0.978-0.582-1.982-1.124-2.926-1.755c-1.225-0.819-2.343-1.772-3.079-3.085
			c-0.766-1.366-0.798-2.732,0.189-3.997c0.393-0.504,0.886-0.968,1.421-1.316c2.03-1.318,4.292-1.553,6.633-1.246
			c1.711,0.224,3.282,0.807,4.536,2.046c0.699,0.691,1.175,1.507,1.168,2.534c-0.012,1.709-1.017,2.782-2.367,3.591
			c-1.618,0.97-3.403,1.302-5.274,1.236c-0.795-0.028-0.994,0.251-0.685,0.987c0.131,0.313,0.313,0.606,0.471,0.908
			C61.155,83.177,61.126,83.209,61.097,83.241z"/>
		<path fill="#009B3A" d="M30.057,38.705c0.555-0.49,1.109-0.98,1.664-1.469c-0.02-0.031-0.04-0.061-0.06-0.092
			c-1.088,0.417-2.187,0.811-3.262,1.26c-0.746,0.311-1.493,0.485-2.308,0.446c-0.801-0.039-1.03,0.213-1.032,0.993
			c-0.003,1.896-0.003,3.791,0.001,5.687c0.002,0.706,0.251,0.973,0.946,0.976c2.12,0.007,4.24,0.005,6.359-0.007
			c0.643-0.004,0.882-0.253,0.883-0.895c0.003-1.977-0.009-3.954-0.008-5.931c0-0.559-0.269-0.826-0.821-0.825
			c-0.77,0.001-1.539,0-2.309,0C30.094,38.799,30.076,38.752,30.057,38.705z"/>
		<path fill="#009B3A" d="M106.194,105.096c0.033-0.234,0.066-0.469,0.106-0.756c-0.251-0.018-0.447-0.03-0.643-0.047
			c-1.199-0.102-2.103-1.06-2.092-2.215c0.01-1.134,0.9-2.058,2.072-2.171c0.975-0.094,1.768,0.218,2.315,1.043
			c0.548,0.826,0.473,1.694-0.062,2.464c-0.451,0.649-1.04,1.203-1.568,1.799C106.279,105.173,106.237,105.134,106.194,105.096z"/>
		<path fill="#009B3A" d="M84.967,146.884c2.159-0.514,4.198,1.108,4.153,3.171c0,0.02,0.002,0.04,0.002,0.06
			c0,1.749-1.418,3.167-3.167,3.167c-0.081,0-0.16-0.004-0.239-0.01c-0.024-0.001-0.047,0-0.071-0.001
			c-0.381-0.015-0.474,0.095-0.394,0.482c0.053,0.258,0.152,0.507,0.259,0.854c-1.237-0.909-2.262-1.893-2.805-3.28
			C81.954,149.41,83.009,147.351,84.967,146.884z"/>
		<path fill="#009B3A" d="M66.048,11.325c2.159-0.515,4.198,1.108,4.153,3.171c0,0.02,0.002,0.04,0.002,0.06
			c0,1.749-1.418,3.167-3.167,3.167c-0.081,0-0.16-0.004-0.239-0.01c-0.024-0.001-0.047,0-0.071-0.001
			c-0.381-0.015-0.474,0.095-0.394,0.482c0.053,0.258,0.152,0.507,0.259,0.854c-1.237-0.909-2.262-1.893-2.805-3.28
			C63.035,13.851,64.09,11.792,66.048,11.325z"/>
	</g>
	<path fill="#FEC013" d="M131.302,33.672c3.281-0.782,6.38,1.684,6.312,4.821c0.001,0.03,0.002,0.061,0.002,0.091
		c0,2.658-2.155,4.813-4.813,4.813c-0.123,0-0.244-0.006-0.364-0.015c-0.036-0.001-0.071,0-0.108-0.001
		c-0.578-0.023-0.721,0.145-0.599,0.732c0.081,0.393,0.231,0.771,0.394,1.299c-1.88-1.382-3.438-2.878-4.263-4.986
		C126.723,37.511,128.327,34.381,131.302,33.672z"/>
	<path fill="#FEC013" d="M65.839,40.293c2.012-1.73,4.392-2.204,6.983-1.792c0.227,0.036,0.522-0.022,0.714-0.147
		c2.02-1.312,4.128-1.618,6.379-0.646c0.882,0.381,1.609,0.93,2.167,1.724c0.137,0.196,0.431,0.349,0.675,0.392
		c1.755,0.309,3.379,0.896,4.77,2.049c2.074,1.718,2.528,4.283,1.115,6.575c-1.056,1.714-2.701,2.544-4.615,2.893
		c-0.406,0.074-0.582,0.25-0.731,0.603c-0.727,1.725-1.478,3.44-2.224,5.157c-0.067,0.155-0.154,0.301-0.27,0.525
		c-0.409-1.339-0.787-2.575-1.176-3.848c-0.162,0.093-0.253,0.136-0.334,0.194c-1.604,1.133-3.3,1.581-5.053,1.474
		c-0.089,0.003-0.178,0.005-0.267,0.005c-3.406,0-6.167-1.968-6.167-4.397c0-0.101,0.007-0.201,0.016-0.301
		c-0.234-0.234-0.521-0.426-0.868-0.623C63.079,47.942,62.539,43.13,65.839,40.293z"/>
	<polygon fill="#FFFFFF" points="99.282,20.405 102.149,26.215 108.561,27.146 103.921,31.669 105.016,38.054 99.282,35.039 
		93.547,38.054 94.642,31.669 90.003,27.146 96.414,26.215 	"/>
	<path fill="#EF4438" d="M323.558,105.21l-182.806,5.398c-1.273,0.038-2.218-1.17-1.875-2.397l9.805-35.097
		c0.231-0.828,0.993-1.396,1.853-1.381l169.133,3c0.926,0.016,1.704,0.702,1.836,1.618l3.868,26.698
		C325.534,104.168,324.687,105.177,323.558,105.21z"/>
	<g>
		<path fill="#EF4438" d="M156.844,36.276c0-0.253,0.169-0.421,0.421-0.421h11.164c6.235,0,9.142,3.076,9.142,7.626
			c0,3.117-1.433,5.055-3.328,6.108v0.084c1.895,0.716,3.834,3.076,3.834,6.488c0,5.645-3.75,8.341-9.942,8.341h-10.869
			c-0.253,0-0.421-0.169-0.421-0.421V36.276z M167.671,47.567c2.359,0,3.749-1.264,3.749-3.37c0-2.106-1.39-3.328-3.749-3.328
			h-4.381c-0.169,0-0.253,0.085-0.253,0.253v6.193c0,0.169,0.084,0.253,0.253,0.253H167.671z M163.29,59.489h4.718
			c2.528,0,3.876-1.348,3.876-3.581c0-2.191-1.348-3.581-3.876-3.581h-4.718c-0.169,0-0.253,0.085-0.253,0.253v6.656
			C163.037,59.404,163.121,59.489,163.29,59.489z"/>
		<path fill="#EF4438" d="M181.194,64.502c-0.253,0-0.422-0.169-0.422-0.421V44.533c0-0.253,0.169-0.421,0.422-0.421h5.055
			c0.252,0,0.421,0.169,0.421,0.421v1.727h0.042c0.969-1.643,2.822-2.611,5.308-2.611c1.348,0,2.696,0.463,3.581,1.221
			c0.211,0.169,0.253,0.337,0.127,0.59l-2.359,4.297c-0.169,0.21-0.337,0.21-0.59,0.084c-0.969-0.632-1.938-0.969-2.949-0.927
			c-2.191,0.084-3.16,1.685-3.16,4.423v10.743c0,0.253-0.169,0.421-0.421,0.421H181.194z"/>
		<path fill="#EF4438" d="M208.83,64.502c-0.253,0-0.422-0.169-0.422-0.421v-1.348h-0.042c-1.053,1.348-2.823,2.232-5.603,2.232
			c-3.624,0-6.783-1.895-6.783-6.235c0-4.507,3.413-6.572,8.468-6.572h3.622c0.169,0,0.253-0.084,0.253-0.252v-0.759
			c0-1.895-0.927-2.78-4.171-2.78c-2.064,0-3.581,0.589-4.55,1.306c-0.21,0.169-0.421,0.126-0.547-0.084l-1.896-3.328
			c-0.126-0.252-0.084-0.463,0.126-0.589c1.728-1.222,4.213-2.022,7.583-2.022c6.657,0,9.058,2.274,9.058,7.372v13.06
			c0,0.253-0.169,0.421-0.421,0.421H208.83z M208.325,57.719v-1.39c0-0.169-0.085-0.253-0.253-0.253h-2.865
			c-2.485,0-3.622,0.716-3.622,2.317c0,1.433,1.011,2.149,2.948,2.149C207.06,60.542,208.325,59.615,208.325,57.719z"/>
		<path fill="#EF4438" d="M216.16,61.806c-0.169-0.169-0.169-0.421,0-0.59l2.739-3.075c0.169-0.169,0.379-0.169,0.59,0
			c1.812,1.39,4.129,2.232,6.235,2.232c2.149,0,3.16-0.801,3.16-1.938c0-0.969-0.548-1.559-2.907-1.769l-2.275-0.253
			c-4.297-0.421-6.656-2.57-6.656-6.235c0-4.002,3.076-6.53,8.383-6.53c3.455,0,6.362,1.095,8.257,2.528
			c0.169,0.169,0.211,0.421,0.042,0.632l-2.359,2.907c-0.169,0.21-0.379,0.21-0.59,0.084c-1.39-0.884-3.412-1.643-5.519-1.643
			c-1.727,0-2.57,0.674-2.57,1.685c0,0.927,0.506,1.474,2.823,1.685l2.232,0.253c4.803,0.464,6.782,2.78,6.782,6.193
			c-0.042,4.17-3.285,6.993-9.1,6.993C221.173,64.965,218.098,63.491,216.16,61.806z"/>
		<path fill="#EF4438" d="M237.435,40.868c-0.253,0-0.422-0.169-0.422-0.421v-4.171c0-0.253,0.169-0.421,0.422-0.421h5.055
			c0.252,0,0.421,0.169,0.421,0.421v4.171c0,0.252-0.169,0.421-0.421,0.421H237.435z M237.435,64.502
			c-0.253,0-0.422-0.169-0.422-0.421V44.533c0-0.253,0.169-0.421,0.422-0.421h5.055c0.252,0,0.421,0.169,0.421,0.421v19.548
			c0,0.253-0.169,0.421-0.421,0.421H237.435z"/>
		<path fill="#EF4438" d="M252.768,64.755c-4.507,0-6.319-1.98-6.319-6.488V36.276c0-0.253,0.169-0.421,0.421-0.421h5.055
			c0.253,0,0.422,0.169,0.422,0.421v21.528c0,1.39,0.547,1.937,1.769,1.937h0.885c0.253,0,0.421,0.169,0.421,0.422v4.17
			c0,0.253-0.169,0.421-0.421,0.421H252.768z"/>
		<path fill="#A82522" d="M273.769,70.635c-0.204,0-0.341-0.136-0.341-0.341v-7.325h-0.035c-0.783,1.124-2.146,1.908-4.326,1.908
			c-2.76,0-4.736-1.363-5.588-3.952c-0.409-1.295-0.579-2.556-0.579-4.667c0-2.146,0.17-3.373,0.579-4.667
			c0.852-2.623,2.828-3.952,5.588-3.952c2.18,0,3.543,0.784,4.326,1.908h0.035v-1.192c0-0.205,0.136-0.341,0.341-0.341h4.088
			c0.204,0,0.341,0.136,0.341,0.341v21.94c0,0.204-0.136,0.341-0.341,0.341H273.769z M273.122,59.085
			c0.204-0.647,0.307-1.363,0.307-2.828c0-1.465-0.102-2.18-0.307-2.828c-0.375-1.192-1.261-1.772-2.521-1.772
			c-1.295,0-2.18,0.579-2.555,1.772c-0.205,0.647-0.307,1.363-0.307,2.828c0,1.465,0.102,2.18,0.307,2.828
			c0.375,1.158,1.26,1.771,2.555,1.771C271.861,60.857,272.747,60.244,273.122,59.085z"/>
		<path fill="#A82522" d="M290.427,64.502c-0.204,0-0.341-0.136-0.341-0.341v-1.192h-0.034c-0.852,1.124-2.146,1.908-4.224,1.908
			c-3.645,0-5.553-2.555-5.553-6.132V48.354c0-0.205,0.136-0.341,0.341-0.341h4.088c0.204,0,0.341,0.136,0.341,0.341v9.471
			c0,1.772,0.852,2.998,2.521,2.998c1.635,0,2.521-1.192,2.521-2.998v-9.471c0-0.205,0.136-0.341,0.341-0.341h4.089
			c0.204,0,0.341,0.136,0.341,0.341v15.807c0,0.204-0.136,0.341-0.341,0.341H290.427z"/>
		<path fill="#A82522" d="M297.546,60.175c-0.341-1.022-0.579-2.214-0.579-3.918c0-1.738,0.204-2.93,0.545-3.952
			c0.954-2.964,3.578-4.667,7.086-4.667c3.645,0,6.166,1.738,7.121,4.634c0.341,1.09,0.545,2.283,0.545,5.076
			c0,0.205-0.136,0.341-0.375,0.341h-9.982c-0.136,0-0.204,0.068-0.204,0.205c0.034,0.341,0.102,0.647,0.204,0.92
			c0.443,1.431,1.704,2.18,3.407,2.18c1.635,0,2.828-0.579,3.781-1.465c0.17-0.136,0.341-0.17,0.477,0l2.248,2.112
			c0.17,0.136,0.17,0.341,0.035,0.477c-1.568,1.669-3.986,2.759-7.018,2.759C301.089,64.877,298.5,63.139,297.546,60.175z
			 M307.358,54.52c0.136,0,0.204-0.068,0.204-0.204c0-0.511-0.068-0.886-0.17-1.226c-0.375-1.124-1.397-1.806-2.759-1.806
			c-1.363,0-2.385,0.681-2.76,1.806c-0.102,0.341-0.17,0.715-0.17,1.226c0,0.136,0.068,0.204,0.204,0.204H307.358z"/>
		<path fill="#F8971D" d="M155.98,97.273c-0.375-1.192-0.545-2.351-0.545-3.986c0-1.635,0.17-2.794,0.545-3.986
			c0.954-2.998,3.679-4.634,7.155-4.634s6.2,1.635,7.154,4.634c0.375,1.192,0.546,2.351,0.546,3.986c0,1.635-0.17,2.794-0.546,3.986
			c-0.953,2.997-3.679,4.633-7.154,4.633S156.934,100.271,155.98,97.273z M165.689,96.115c0.238-0.75,0.307-1.431,0.307-2.828
			s-0.068-2.079-0.307-2.828c-0.375-1.158-1.294-1.772-2.555-1.772s-2.18,0.613-2.555,1.772c-0.239,0.749-0.306,1.431-0.306,2.828
			s0.068,2.078,0.306,2.828c0.375,1.158,1.295,1.771,2.555,1.771S165.314,97.273,165.689,96.115z"/>
		<path fill="#FEC013" d="M177.305,101.531c-0.204,0-0.341-0.136-0.341-0.341V78.706c0-0.204,0.136-0.341,0.341-0.341h8.994
			c5.042,0,8.074,3.032,8.074,7.461c0,4.361-3.066,7.427-8.074,7.427h-4.123c-0.136,0-0.204,0.068-0.204,0.204v7.733
			c0,0.204-0.136,0.341-0.341,0.341H177.305z M189.365,85.826c0-1.874-1.26-3.134-3.373-3.134h-3.816
			c-0.136,0-0.204,0.068-0.204,0.204v5.826c0,0.136,0.068,0.204,0.204,0.204h3.816C188.105,88.926,189.365,87.7,189.365,85.826z"/>
		<path fill="#FEC013" d="M195.666,97.273c-0.375-1.192-0.545-2.351-0.545-3.986c0-1.635,0.17-2.794,0.545-3.986
			c0.954-2.998,3.679-4.634,7.155-4.634s6.2,1.635,7.154,4.634c0.375,1.192,0.546,2.351,0.546,3.986c0,1.635-0.17,2.794-0.546,3.986
			c-0.953,2.997-3.679,4.633-7.154,4.633S196.62,100.271,195.666,97.273z M205.376,96.115c0.238-0.75,0.307-1.431,0.307-2.828
			s-0.068-2.079-0.307-2.828c-0.375-1.158-1.295-1.772-2.555-1.772c-1.261,0-2.18,0.613-2.555,1.772
			c-0.239,0.749-0.307,1.431-0.307,2.828s0.068,2.078,0.307,2.828c0.375,1.158,1.294,1.771,2.555,1.771
			C204.081,97.886,205.001,97.273,205.376,96.115z"/>
		<path fill="#FEC013" d="M216.992,101.531c-0.204,0-0.341-0.136-0.409-0.341l-5.86-15.807c-0.068-0.205,0.034-0.341,0.273-0.341
			h4.292c0.239,0,0.375,0.102,0.443,0.341l3.202,9.777h0.068l3.067-9.777c0.068-0.239,0.204-0.341,0.443-0.341h4.225
			c0.238,0,0.341,0.136,0.272,0.341l-5.86,15.807c-0.068,0.204-0.204,0.341-0.409,0.341H216.992z"/>
		<path fill="#FEC013" d="M227.621,97.273c-0.375-1.192-0.545-2.351-0.545-3.986c0-1.635,0.17-2.794,0.545-3.986
			c0.954-2.998,3.679-4.634,7.155-4.634s6.2,1.635,7.154,4.634c0.375,1.192,0.546,2.351,0.546,3.986c0,1.635-0.17,2.794-0.546,3.986
			c-0.953,2.997-3.679,4.633-7.154,4.633S228.575,100.271,227.621,97.273z M237.33,96.115c0.238-0.75,0.307-1.431,0.307-2.828
			s-0.068-2.079-0.307-2.828c-0.375-1.158-1.295-1.772-2.555-1.772c-1.261,0-2.18,0.613-2.555,1.772
			c-0.239,0.749-0.307,1.431-0.307,2.828s0.068,2.078,0.307,2.828c0.375,1.158,1.294,1.771,2.555,1.771
			C236.035,97.886,236.955,97.273,237.33,96.115z"/>
		<path fill="#FEC013" d="M264.652,103.201c-0.136,0.136-0.341,0.17-0.511,0l-2.351-2.351c-1.363,0.681-2.964,1.056-4.701,1.056
			c-4.054,0-7.256-1.874-8.449-5.621c-0.511-1.601-0.647-2.896-0.647-6.337c0-3.441,0.136-4.735,0.647-6.337
			c1.193-3.747,4.395-5.621,8.449-5.621c4.054,0,7.222,1.874,8.449,5.621c0.511,1.601,0.647,2.896,0.647,6.337
			c0,3.441-0.136,4.735-0.647,6.337c-0.17,0.511-0.375,0.953-0.579,1.397l2.419,2.385c0.136,0.136,0.136,0.341,0,0.477
			L264.652,103.201z M258.315,97.375l-1.465-1.465c-0.136-0.136-0.17-0.306,0-0.476l2.726-2.59c0.204-0.17,0.375-0.136,0.511,0
			l0.92,0.92c0.102-0.784,0.136-1.942,0.136-3.816c0-3.032-0.102-4.19-0.375-5.008c-0.511-1.601-1.772-2.555-3.679-2.555
			c-1.908,0-3.168,0.954-3.679,2.555c-0.273,0.818-0.375,1.976-0.375,5.008c0,3.032,0.102,4.19,0.375,5.008
			c0.511,1.601,1.771,2.555,3.679,2.555C257.531,97.511,257.94,97.477,258.315,97.375z"/>
		<path fill="#FEC013" d="M278.55,101.531c-0.204,0-0.341-0.136-0.341-0.341v-1.192h-0.034c-0.852,1.124-2.146,1.908-4.224,1.908
			c-3.645,0-5.553-2.555-5.553-6.132V85.383c0-0.205,0.136-0.341,0.341-0.341h4.088c0.204,0,0.341,0.136,0.341,0.341v9.471
			c0,1.772,0.852,2.998,2.521,2.998c1.635,0,2.521-1.192,2.521-2.998v-9.471c0-0.205,0.136-0.341,0.341-0.341h4.089
			c0.204,0,0.341,0.136,0.341,0.341v15.807c0,0.204-0.136,0.341-0.341,0.341H278.55z"/>
		<path fill="#FEC013" d="M285.669,97.205c-0.341-1.022-0.579-2.214-0.579-3.918c0-1.738,0.204-2.93,0.545-3.952
			c0.954-2.964,3.578-4.667,7.086-4.667c3.645,0,6.166,1.738,7.121,4.634c0.341,1.09,0.545,2.283,0.545,5.076
			c0,0.205-0.136,0.341-0.375,0.341h-9.982c-0.136,0-0.204,0.068-0.204,0.205c0.034,0.341,0.102,0.647,0.204,0.92
			c0.443,1.431,1.704,2.18,3.407,2.18c1.635,0,2.828-0.579,3.781-1.465c0.17-0.136,0.341-0.17,0.477,0l2.248,2.112
			c0.17,0.136,0.17,0.341,0.035,0.477c-1.568,1.669-3.986,2.759-7.018,2.759C289.212,101.906,286.623,100.169,285.669,97.205z
			 M295.48,91.549c0.136,0,0.204-0.068,0.204-0.204c0-0.511-0.068-0.886-0.17-1.226c-0.375-1.124-1.397-1.806-2.759-1.806
			c-1.363,0-2.385,0.681-2.76,1.806c-0.102,0.341-0.17,0.715-0.17,1.226c0,0.136,0.069,0.204,0.204,0.204H295.48z"/>
		<path fill="#FEC013" d="M302.838,101.531c-0.204,0-0.341-0.136-0.341-0.341V85.383c0-0.205,0.136-0.341,0.341-0.341h4.088
			c0.204,0,0.341,0.136,0.341,0.341v1.397h0.034c0.784-1.329,2.283-2.112,4.293-2.112c1.09,0,2.18,0.375,2.896,0.988
			c0.17,0.136,0.205,0.273,0.102,0.477l-1.908,3.475c-0.136,0.17-0.273,0.17-0.477,0.068c-0.784-0.511-1.568-0.783-2.385-0.749
			c-1.771,0.068-2.555,1.363-2.555,3.577v8.688c0,0.204-0.136,0.341-0.341,0.341H302.838z"/>
	</g>
	<g>
		<path fill="#F8971D" d="M317.667,93.551l-1.968-37.79c0-0.492,0.328-0.82,0.82-0.82h10.657c0.492,0,0.82,0.328,0.82,0.82
			l-1.967,37.79c0,0.492-0.328,0.82-0.82,0.82h-6.722C317.995,94.371,317.667,94.043,317.667,93.551z M316.109,100.519
			c0-0.492,0.328-0.82,0.82-0.82h9.837c0.492,0,0.82,0.328,0.82,0.82v9.345c0,0.492-0.328,0.82-0.82,0.82h-9.837
			c-0.492,0-0.82-0.328-0.82-0.82V100.519z"/>
	</g>
</g>
</svg>
