<?xml version="1.0" encoding="UTF-8" standalone="no"?>
<svg width="188px" height="57px" viewBox="0 0 188 57" version="1.1" xmlns="http://www.w3.org/2000/svg" xmlns:xlink="http://www.w3.org/1999/xlink">
    <!-- Generator: Sketch 47 (45396) - http://www.bohemiancoding.com/sketch -->
    <title>Group 23</title>
    <desc>Created with Sketch.</desc>
    <defs></defs>
    <g id="Page-1" stroke="none" stroke-width="1" fill="none" fill-rule="evenodd">
        <g id="Artboard" transform="translate(-2.000000, -11.000000)" fill-rule="nonzero">
            <g id="Group-23" transform="translate(2.000000, 11.000000)">
                <g id="Group-22">
                    <path d="M51.3861867,21 C52.2306456,20.4960588 53.0032682,19.9039375 53.5813978,19.0878854 C54.5813747,17.6770047 54.2214289,16.1237983 52.6735089,15.3858705 C51.3877152,14.7728645 50.1168236,14.8799955 48.9804341,15.7807469 C47.7083962,16.7886294 47.8864586,18.6222328 49.315925,19.4897234 C49.9479318,19.8729972 50.6311411,20.0520645 51.3705203,19.9716196 C51.5581354,19.9511216 51.6555729,20.0404619 51.6192727,20.2114074 C51.5631028,20.4740138 51.46834,20.7292718 51.3861867,21 Z" id="Shape" fill="#FEC013"></path>
                    <path d="M47.7535644,10.5552976 C48.7285924,10.2592365 49.6495347,11.1928512 49.6293269,12.3805029 C49.6296241,12.3918608 49.6299213,12.4035972 49.6299213,12.414955 C49.6299213,13.4212599 48.9895112,14.2371316 48.1996227,14.2371316 C48.1630703,14.2371316 48.1271122,14.23486 48.0914513,14.2314527 C48.0807531,14.2310741 48.070352,14.2314527 48.0593565,14.2310741 C47.8875899,14.2223664 47.845094,14.2859703 47.8813493,14.5082054 C47.9054204,14.6569932 47.9499965,14.800102 47.9984358,15 C47.4397487,14.4767821 46.9767515,13.9104043 46.731583,13.1123266 C46.3928046,12.0087229 46.8694717,10.8237213 47.7535644,10.5552976 Z" id="Shape" fill="#FEC013"></path>
                    <g id="Group-21">
                        <path d="M36.2279626,17.11657 C36.7320426,16.7203 37.2511097,16.34142 37.7376438,15.92406 C38.9143179,14.91396 39.900911,13.74365 40.5793537,12.32914 C41.0103256,11.43078 41.2691281,10.48321 41.2972747,9.48125 C41.3462571,7.7293 40.6316259,6.33292 39.2875344,5.2725 C36.9473458,3.4262 33.5430695,3.55533 31.3421517,5.56739 C29.8441678,6.93676 29.215073,9.05834 29.9973291,11.02415 C30.4001545,12.03647 31.0987019,12.82161 31.9792883,13.44099 C33.2466164,14.33232 34.6583328,14.72304 36.1954295,14.67013 C36.2250383,14.66902 36.2553781,14.66865 36.2842558,14.66199 C36.8932458,14.52472 36.9802444,14.85883 36.8574229,15.32577 C36.7283872,15.81639 36.508332,16.28259 36.3237341,16.75804 C36.2831592,16.86201 36.2246727,16.95895 36.1745937,17.05885 C36.1921397,17.07809 36.2100511,17.09733 36.2279626,17.11657 Z" id="Shape" fill="#EF4438"></path>
                        <path d="M20.0835121,22.82863 C20.1997539,23.21195 20.3130714,23.58602 20.4355274,23.99006 C20.4665983,23.9279 20.486703,23.89201 20.5027868,23.85464 C20.7283251,23.32813 20.9567878,22.8031 21.1764775,22.274 C21.2210734,22.1667 21.2865051,22.12785 21.3939739,22.10935 C21.8278702,22.03461 22.216805,21.85812 22.5227622,21.53104 C23.2081502,20.79844 23.1087232,19.81535 22.3030725,19.20041 C21.952885,18.93327 21.5544461,18.79045 21.1351714,18.70017 C20.9743337,18.66539 20.8573608,18.60545 20.7466021,18.47151 C20.3719234,18.01826 19.8616292,17.87618 19.2990628,17.90282 C18.9265773,17.92021 18.5844316,18.03713 18.2832264,18.26986 C18.2419204,18.30168 18.1633292,18.3002 18.1052083,18.29095 C17.3324563,18.16959 16.6233082,18.31167 16.0355195,18.85298 C15.1399459,19.67771 15.2430282,20.97271 16.2460706,21.6635 C16.3798584,21.75563 16.531192,21.82112 16.6715595,21.904 C16.7081135,21.92546 16.7567304,21.96579 16.7589236,22.0002 C16.7947466,22.5256 17.1065524,22.85823 17.5400831,23.06432 C18.388502,23.46762 19.2212027,23.42581 20.0093075,22.88154 C20.0290466,22.86748 20.0487858,22.85305 20.0835121,22.82863 Z" id="Shape" fill="#FEC013"></path>
                        <path d="M4.7085239,13.08098 C5.03897228,12.93631 5.36942066,12.79201 5.6995035,12.64734 C6.36880769,12.35393 7.0373808,12.05941 7.70778161,11.76896 C7.76992345,11.74195 7.84339704,11.73233 7.91175306,11.73122 C8.17676974,11.72715 8.44215196,11.73159 8.70716864,11.729 C9.03213391,11.72567 9.25292022,11.51366 9.25438238,11.18843 C9.25803778,10.30672 9.25694116,9.42501 9.25328576,8.54293 C9.25218914,8.25396 9.03140283,8.03085 8.74810914,8.03048 C7.27096101,8.02789 5.79381288,8.02715 4.31629921,8.02863 C4.03629538,8.029 3.80966043,8.25544 3.80819827,8.54071 C3.80454287,9.26295 3.80819827,9.98556 3.80892935,10.7078 C3.80892935,10.85987 3.80673611,11.01231 3.80966043,11.16438 C3.8166057,11.5181 4.02861904,11.72826 4.37990322,11.72937 C4.86680282,11.73085 5.35370243,11.73011 5.84096757,11.73011 C5.89287429,11.73011 5.944781,11.73011 6.04420795,11.73011 C5.57156441,12.19446 5.13255058,12.62551 4.69353675,13.05693 C4.69901985,13.06544 4.70377187,13.07321 4.7085239,13.08098 Z" id="Shape" fill="#FEC013"></path>
                        <path d="M17.4307866,7.42886 C17.3357461,7.22129 17.2374158,7.02186 17.152976,6.81651 C17.1134976,6.72068 17.0886409,6.61449 17.0784058,6.51126 C17.0491626,6.21896 17.1244639,6.13867 17.4125096,6.16087 C18.1567495,6.21896 18.8699185,6.09501 19.5395883,5.76497 C20.4143261,5.33392 21.072664,4.69419 21.3084375,3.70444 C21.5632191,2.6344 21.0924032,1.52551 20.1299358,0.83435 C19.5436092,0.41329 18.8892922,0.19314 18.1823373,0.11026 C16.9943315,-0.02923 15.9116013,0.23717 14.9929987,1.02527 C13.8389881,2.01576 13.6631633,3.46468 14.5042714,4.81111 C15.0935223,5.75387 15.9126979,6.45872 16.8192378,7.06922 C16.998718,7.19021 17.184778,7.30121 17.3686447,7.41554 C17.3847285,7.42516 17.4081231,7.42405 17.4307866,7.42886 Z" id="Shape" fill="#FEC013"></path>
                        <path d="M3.89373469,20.21088 C3.68756999,19.78131 3.48140529,19.35174 3.25915682,18.88924 C3.37576416,18.88924 3.45545194,18.88924 3.53513971,18.88924 C4.46617071,18.88924 5.39756726,18.88887 6.32859826,18.88887 C6.83158164,18.88887 7.0392085,18.68463 7.03957404,18.18476 C7.04030512,17.17318 7.04030512,16.16123 7.0392085,15.14965 C7.03884296,14.72082 6.8312161,14.5003 6.41559684,14.49956 C4.60544155,14.49586 2.79528625,14.49401 0.98513096,14.49512 C0.475933399,14.49549 0.286949092,14.69529 0.286949092,15.20996 C0.287314633,16.22043 0.286583552,17.23053 0.287314633,18.241 C0.287680173,18.65429 0.517604987,18.92143 0.917140475,18.88147 C1.49213528,18.82375 1.9691653,18.99691 2.43047709,19.32843 C2.89032672,19.65884 3.38526821,19.9393 3.86485701,20.24159 C3.8747266,20.23123 3.88423064,20.22124 3.89373469,20.21088 Z" id="Shape" fill="#FEC013"></path>
                        <path d="M27.017445,54.10066 C26.9479924,53.79097 26.8664769,53.47499 26.8090871,53.1542 C26.7769196,52.97327 26.8712289,52.90038 27.0609443,52.9211 C28.3147474,53.05911 29.4980011,52.20515 29.9000954,51.03077 C30.5675719,49.08087 29.064836,47.09693 27.0452261,47.22162 C25.8060447,47.29821 24.6571517,48.37861 24.4857133,49.60923 C24.3318209,50.71516 24.7306253,51.63276 25.3531403,52.48302 C25.8221284,53.12423 26.3963922,53.66036 27.017445,54.10066 Z" id="Shape" fill="#FEC013"></path>
                        <path d="M37.6367547,17.9006 C37.5683987,18.12889 37.5051602,18.32129 37.4543501,18.51665 C37.4225481,18.63912 37.3607718,18.68241 37.2335638,18.67982 C36.8537675,18.67131 36.4739712,18.67464 36.0938093,18.67649 C35.677459,18.67834 35.482626,18.8774 35.481895,19.30142 C35.4800673,20.64859 35.4789706,21.99576 35.4789706,23.34293 C35.4789706,23.79433 35.668686,23.98673 36.1186661,23.98747 C37.2957057,23.98932 38.4727452,23.98932 39.6497848,23.98784 C40.1078068,23.9871 40.3026397,23.78619 40.3022742,23.32591 C40.3015431,22.00649 40.3015431,20.6867 40.3011775,19.36728 C40.3011775,18.87259 40.1085378,18.63764 39.6322389,18.68759 C38.9505063,18.75937 38.3769737,18.59065 37.8959227,18.09596 C37.82976,18.02714 37.7427614,17.97904 37.6367547,17.9006 Z" id="Shape" fill="#FEC013"></path>
                        <path d="M17.9787314,13.12464 C18.3029656,13.21159 18.5679823,13.13463 18.7968105,12.96332 C18.9569171,12.84307 19.1173893,12.71135 19.2332655,12.55743 C19.4854883,12.22295 19.8437177,12.10048 20.2604336,12.06274 C20.3269619,12.05682 20.3934903,12.04609 20.4585564,12.03129 C20.7539129,11.96506 20.8434703,11.86442 20.831773,11.5884 C20.7974122,10.77514 20.7579339,9.96225 20.7206488,9.14899 C20.7129724,8.98101 20.7074893,8.81303 20.6987164,8.64505 C20.6800738,8.29207 20.4596531,8.11003 20.0648696,8.12779 C18.8585868,8.18218 17.6519384,8.23879 16.4456556,8.29466 C16.3637746,8.29836 16.2815281,8.29947 16.2000126,8.3065 C15.8509216,8.3361 15.6926427,8.54515 15.7350454,8.85595 C15.7646541,9.0724 15.7376042,9.29551 15.7343143,9.51603 C15.7332177,9.59003 15.7211549,9.66403 15.7244447,9.73729 C15.7540535,10.40255 15.7847589,11.06781 15.8169264,11.73307 C15.8370311,12.14747 16.0435614,12.31619 16.49939,12.27845 C16.7516128,12.25773 17.0009113,12.21037 17.253134,12.18854 C17.4446771,12.17189 17.6398756,12.16227 17.8310531,12.17485 C18.1991522,12.19927 18.4605135,12.3802 18.4981641,12.61293 C18.5321593,12.81976 18.3899642,12.9648 17.9787314,13.12464 Z" id="Shape" fill="#FEC013"></path>
                        <path d="M28.8414909,30.6508 C29.169746,30.7618 29.4449978,30.70667 29.6858888,30.51353 C29.8719488,30.36442 30.0784791,30.21642 30.2038594,30.02069 C30.437074,29.65698 30.800421,29.67474 31.1414701,29.61591 C31.6020508,29.53636 31.717196,29.59963 31.7190237,29.0117 C31.7223135,28.00049 31.7193892,26.98965 31.7190237,25.97844 C31.7190237,25.49078 31.5435644,25.31429 31.0570303,25.31355 C29.8792596,25.31207 28.701489,25.31096 27.5233527,25.30985 C26.985643,25.30948 26.8211499,25.47635 26.8204189,26.02987 C26.8189567,27.04848 26.8145702,28.06709 26.821881,29.0857 C26.8248053,29.46236 27.0415707,29.70619 27.5218906,29.66882 C27.925447,29.63737 28.3308311,29.60925 28.7351187,29.61221 C28.9548083,29.61369 29.1704771,29.68695 29.3031682,29.90081 C29.4654681,30.1624 29.3952843,30.42214 29.1182048,30.55386 C29.0403448,30.59086 28.9540773,30.61195 28.8414909,30.6508 Z" id="Shape" fill="#FEC013"></path>
                        <path d="M33.4681337,31.34307 C33.3741899,31.62057 33.2663555,31.87735 33.202386,32.14486 C33.1417063,32.39905 33.2093313,32.45936 33.4641128,32.44345 C34.3717492,32.38573 35.1711858,32.67951 35.7765204,33.34514 C36.9685471,34.65568 36.3580949,36.20894 35.341162,36.90898 C33.9129962,37.89207 31.8447695,37.24568 31.3249713,35.64506 C31.0844458,34.90432 31.2211579,34.19022 31.5307705,33.51571 C31.944562,32.61439 32.6928229,31.8422 33.4681337,31.34307 Z" id="Shape" fill="#FEC013"></path>
                        <path d="M43.2836204,18.94696 C43.1428874,18.90367 43.0401706,18.88406 42.9473234,18.84188 C42.5291453,18.65318 42.4702934,18.21473 42.8245019,17.92058 C43.1231482,17.67268 43.4828398,17.66084 43.8425314,17.67934 C44.1843116,17.6971 44.5249951,17.73706 44.8660441,17.76407 C45.3949809,17.80588 45.6702327,17.55317 45.6713293,17.02333 C45.6724259,16.35955 45.6720604,15.69614 45.6698671,15.03236 C45.668405,14.61241 45.4256862,14.34453 45.0111636,14.34194 C43.4912473,14.33269 41.9713309,14.33084 40.4514146,14.33528 C40.068694,14.33639 39.8146435,14.61167 39.8120847,15.00202 C39.8076982,15.71834 39.8076982,16.43503 39.8117192,17.15135 C39.8135469,17.47325 39.9338096,17.61718 40.2492708,17.67675 C40.482851,17.72078 40.7186245,17.75852 40.9554946,17.77998 C41.195289,17.80181 41.3718449,17.91947 41.5304894,18.09004 C41.7245913,18.29835 41.9186931,18.50814 42.1288788,18.69869 C42.4494576,18.98877 42.8186532,19.10532 43.2836204,18.94696 Z" id="Shape" fill="#FEC013"></path>
                        <path d="M16.5363096,26.98077 C16.4328617,26.94895 16.3571949,26.93452 16.2888389,26.90344 C15.981054,26.76469 15.9379202,26.44205 16.1981849,26.2256 C16.4178746,26.04319 16.6825257,26.03431 16.9471768,26.048 C17.1986685,26.06095 17.4490636,26.09055 17.7001897,26.11053 C18.0894901,26.14124 18.2919994,25.95513 18.2927305,25.56552 C18.2934616,25.07712 18.2934616,24.58872 18.2916339,24.10069 C18.2905372,23.79174 18.1121536,23.59453 17.8069275,23.59268 C16.6887399,23.58602 15.5701867,23.58454 14.4519991,23.58787 C14.1705331,23.58861 13.9833765,23.791 13.9815488,24.07849 C13.978259,24.60574 13.978259,25.13262 13.9811833,25.65987 C13.9826455,25.89667 14.0711062,26.00249 14.3032242,26.04652 C14.4750282,26.07908 14.6486598,26.10683 14.8226569,26.12237 C14.9988473,26.13828 15.1289797,26.22486 15.2459525,26.35029 C15.3888788,26.50347 15.5314395,26.65813 15.6864285,26.79836 C15.922202,27.01185 16.1941639,27.09769 16.5363096,26.98077 Z" id="Shape" fill="#FEC013"></path>
                        <path d="M29.0779954,6.0532 C29.9267799,5.57627 30.6998975,5.00721 31.0928532,4.06889 C31.4346334,3.25341 31.1535329,2.42535 30.3997889,1.89736 C29.5096984,1.27391 28.1582962,1.30499 27.2959867,1.96877 C26.272474,2.75687 26.3141456,4.13586 27.3833508,4.86254 C27.8757335,5.19702 28.4203885,5.33873 29.0111015,5.3132 C29.2567446,5.30247 29.3166932,5.37684 29.2585723,5.61771 C29.2391987,5.69726 29.205569,5.77385 29.1741325,5.85007 C29.1456204,5.91889 29.1105285,5.98549 29.0779954,6.0532 Z" id="Shape" fill="#FEC013"></path>
                        <path d="M43.1962563,32.0457 C43.8494767,31.76043 44.5096424,31.48996 45.1533588,31.1836 C45.5207267,31.00896 45.886267,30.92053 46.2923822,30.93903 C46.7796473,30.96123 46.8944269,30.8284 46.8936959,30.32964 C46.8925992,29.69324 46.8936959,29.05684 46.890406,28.42044 C46.8885783,28.07116 46.7441899,27.91761 46.4020442,27.91613 C45.2392607,27.91095 44.0764772,27.91058 42.9136937,27.91206 C42.6015223,27.91243 42.4311806,28.08781 42.4297184,28.40675 C42.4264285,29.0857 42.4256975,29.76465 42.4293529,30.4436 C42.4311806,30.78252 42.5883629,30.94088 42.926122,30.94495 C43.3428379,30.94976 43.7599193,30.94606 44.1872359,30.94606 C43.8344896,31.30015 43.4912473,31.64499 43.1476394,31.98983 C43.1637232,32.00833 43.1801725,32.02683 43.1962563,32.0457 Z" id="Shape" fill="#FEC013"></path>
                        <path d="M45.4713788,37.15577 C45.3339356,37.12839 45.1899128,37.11877 45.0616082,37.06808 C44.9618157,37.02886 44.8620232,36.95375 44.7962259,36.86791 C44.5480241,36.54342 44.2373149,36.36767 43.8249855,36.3673 C43.6407532,36.36693 43.543154,36.24002 43.5427884,36.05465 C43.5413263,35.30096 43.538402,34.5469 43.547906,33.79321 C43.5511959,33.54346 43.7017984,33.40693 43.9507314,33.40619 C45.0678223,33.40286 46.1849133,33.40249 47.3020043,33.40582 C47.5728696,33.40656 47.7179891,33.5553 47.7194513,33.8254 C47.7234722,34.54912 47.7242033,35.27284 47.721279,35.99619 C47.7201824,36.27924 47.5721386,36.42465 47.2877483,36.41873 C46.7968277,36.40874 46.3059072,36.38728 45.8149866,36.37618 C45.7195806,36.37396 45.6234435,36.39468 45.5284031,36.41059 C45.3386877,36.44241 45.1756567,36.52344 45.1599385,36.73952 C45.1442203,36.95449 45.305058,37.03293 45.4849038,37.07918 C45.4805173,37.10471 45.4761308,37.13024 45.4713788,37.15577 Z" id="Shape" fill="#FEC013"></path>
                        <path d="M25.7150252,23.66261 C25.3860389,24.02003 25.0808128,24.35155 24.7715658,24.68714 C24.8443083,24.65828 24.919244,24.6309 24.9923521,24.59871 C25.5720989,24.34415 26.1584255,24.10328 26.7283027,23.828 C27.0452261,23.67482 27.3654394,23.65225 27.7024675,23.66039 C28.1352671,23.67112 28.2643028,23.53644 28.2639373,23.1028 C28.2635717,22.4849 28.2646684,21.867 28.261744,21.2491 C28.2602819,20.92498 28.121011,20.7829 27.7967768,20.78216 C26.6950385,20.7792 25.5929347,20.77846 24.4911964,20.77994 C24.1786595,20.78031 24.0269603,20.93608 24.0258637,21.25391 C24.0236704,21.90215 24.0233049,22.55002 24.0258637,23.19826 C24.0269603,23.49463 24.187798,23.6578 24.4831545,23.6615 C24.8852488,23.66631 25.2869775,23.66261 25.7150252,23.66261 Z" id="Shape" fill="#FEC013"></path>
                        <path d="M24.4253992,29.32916 C24.7580408,28.97433 25.0636324,28.64836 25.3896943,28.30019 C24.9079123,28.51035 24.4466005,28.71126 23.9856543,28.91217 C23.8558875,28.96878 23.7199065,29.01429 23.597085,29.08348 C23.2344691,29.28735 22.852114,29.35691 22.4383224,29.33286 C22.0501187,29.31029 21.917062,29.46088 21.9159654,29.85974 C21.9145032,30.45581 21.9137721,31.05151 21.917062,31.64758 C21.9192552,32.04163 22.0585261,32.18075 22.439419,32.18112 C23.5053344,32.18149 24.5708842,32.18149 25.636434,32.18149 C25.9782141,32.18149 26.1332032,32.03053 26.1335687,31.69198 C26.1342998,31.07334 26.1342998,30.4547 26.1321066,29.83643 C26.13101,29.46754 25.9975878,29.33212 25.6331441,29.33027 C25.2398228,29.32731 24.8468671,29.32916 24.4253992,29.32916 Z" id="Shape" fill="#FEC013"></path>
                        <path d="M14.8431272,16.89642 C15.5478888,16.46204 16.1612653,15.99732 16.5315576,15.27397 C16.9182992,14.51843 16.6386609,13.65929 15.903925,13.24008 C15.0087169,12.72911 14.1354413,12.81162 13.3034717,13.37846 C12.5080561,13.92051 12.5372993,15.13263 13.3447777,15.75275 C13.7709976,16.0802 14.2560696,16.21636 14.7871995,16.2023 C15.046002,16.19527 15.0876736,16.25373 15.0025027,16.50903 C14.9633899,16.62632 14.9085589,16.73917 14.8431272,16.89642 Z" id="Shape" fill="#FEC013"></path>
                        <path d="M12.2386529,12.36318 C12.3037191,11.8807 12.3600123,11.46075 12.4195954,11.0186 C12.7507748,11.0186 13.083782,11.00824 13.4160581,11.02119 C13.8272908,11.0371 13.9954394,10.88466 13.978259,10.47322 C13.9563266,9.94634 13.9727759,9.41798 13.9716792,8.88999 C13.9709482,8.54367 13.8561685,8.42194 13.5216992,8.4212 C12.5533831,8.41898 11.585067,8.4175 10.6167509,8.41824 C10.277164,8.41861 10.1550735,8.53775 10.1525148,8.87593 C10.1484938,9.43389 10.1481283,9.99185 10.1510526,10.54981 C10.1528803,10.89243 10.2789917,11.05153 10.6076124,11.00306 C11.0784282,10.93424 11.3394239,11.16919 11.5788528,11.51958 C11.7678371,11.79597 11.9908167,12.04905 12.2386529,12.36318 Z" id="Shape" fill="#FEC013"></path>
                        <path d="M41.3104342,32.07049 C41.3517402,31.84146 41.4032814,31.55619 41.4643266,31.21579 C41.2556031,31.38488 41.0823371,31.51993 40.9152852,31.66238 C40.8209758,31.74267 40.7504265,31.76339 40.623584,31.6942 C40.1608101,31.44186 39.6801247,31.44815 39.2078467,31.67237 C39.0075306,31.76746 38.8664321,31.92434 38.7929585,32.1493 C38.7666396,32.22996 38.6683093,32.30137 38.5864283,32.34577 C37.8992126,32.71762 37.7921093,33.48907 38.3744149,33.95194 C38.693166,34.20539 39.0641894,34.28605 39.4659181,34.26311 C39.5755802,34.25682 39.7002294,34.27532 39.7974631,34.32416 C40.2675478,34.55985 40.8026988,34.48363 41.1813985,34.12473 C41.2457335,34.06405 41.3517402,34.04999 41.4358145,34.00892 C41.6796298,33.88941 41.9556127,33.80764 42.158122,33.6367 C42.5134271,33.337 42.5145237,32.85082 42.158122,32.55297 C41.9197898,32.35465 41.6141981,32.23884 41.3104342,32.07049 Z" id="Shape" fill="#FEC013"></path>
                        <path d="M41.4994185,37.19351 C41.7578554,37.44807 41.9793728,37.66563 42.2008902,37.88356 C42.1928483,37.89688 42.1848064,37.91057 42.1767645,37.92389 C42.1219335,37.90391 42.0660059,37.88615 42.0122714,37.86284 C41.6500211,37.70522 41.2841153,37.55611 40.9284446,37.3848 C40.6473442,37.24938 40.3658782,37.16909 40.0493203,37.18759 C39.7660266,37.20424 39.6698895,37.09324 39.6691585,36.81389 C39.6676963,36.37655 39.6684274,35.93921 39.6709862,35.50187 C39.6728139,35.21808 39.7707787,35.113 40.0427406,35.11189 C40.8173204,35.10856 41.5919002,35.10745 42.3668455,35.1093 C42.6271101,35.11004 42.73531,35.21845 42.7375033,35.47967 C42.7415242,35.93218 42.7415242,36.38432 42.7385999,36.83683 C42.7371377,37.07992 42.6417317,37.18389 42.403034,37.19055 C42.1157193,37.1998 41.8287702,37.19351 41.4994185,37.19351 Z" id="Shape" fill="#FEC013"></path>
                        <path d="M31.3531179,40.65005 C31.3830922,40.56236 31.4017347,40.51611 31.4145287,40.46875 C31.4536415,40.32445 31.4119699,40.26266 31.2507666,40.2671 C30.8866885,40.27709 30.5445429,40.2005 30.2469931,39.9674 C29.7626523,39.58741 29.7589969,38.98764 30.2433377,38.60802 C30.7605772,38.2025 31.7022088,38.22507 32.2033645,38.65501 C32.521019,38.92733 32.6061899,39.31879 32.4106258,39.69138 C32.1821632,40.12613 31.8012702,40.39401 31.3531179,40.65005 Z" id="Shape" fill="#FEC013"></path>
                        <path d="M43.6963153,13.21862 C43.7262896,13.13093 43.7449322,13.08468 43.7577261,13.03732 C43.7968389,12.89302 43.7551673,12.83123 43.5939641,12.83567 C43.229886,12.84566 42.8877403,12.76907 42.5901906,12.53597 C42.1058497,12.15598 42.1021943,11.55621 42.5865352,11.17659 C43.1037746,10.77107 44.0454063,10.79364 44.546562,11.22358 C44.8642164,11.4959 44.9493873,11.88736 44.7538233,12.25995 C44.5253606,12.6947 44.1448332,12.96295 43.6963153,13.21862 Z" id="Shape" fill="#FEC013"></path>
                        <path d="M43.6319803,40.42546 C43.6440431,40.33888 43.6561059,40.25193 43.6707275,40.14574 C43.5789769,40.13908 43.507331,40.13464 43.4356851,40.12835 C42.9974024,40.09061 42.666954,39.73615 42.670975,39.3088 C42.6746304,38.88922 42.9999612,38.54734 43.4283743,38.50553 C43.7847761,38.47075 44.0746495,38.58619 44.2746,38.89144 C44.4749161,39.19706 44.4475005,39.51822 44.2519365,39.80312 C44.0870779,40.04325 43.8717747,40.24823 43.6787694,40.46875 C43.6630512,40.45395 43.6476985,40.43989 43.6319803,40.42546 Z" id="Shape" fill="#FEC013"></path>
                        <path d="M32.8134512,51.67198 C32.8346525,51.51843 32.8558538,51.36488 32.8821727,51.17618 C32.7195073,51.16434 32.5926649,51.15657 32.4654569,51.14547 C31.6894149,51.07887 31.104185,50.45098 31.1107647,49.69359 C31.1173444,48.95026 31.6930703,48.34494 32.4522974,48.27094 C33.0835854,48.20952 33.5971695,48.41376 33.951378,48.9547 C34.3063175,49.49638 34.2577007,50.06507 33.9111685,50.56975 C33.6191019,50.99525 33.2378434,51.35785 32.8960633,51.74857 C32.8682822,51.72267 32.8408667,51.69751 32.8134512,51.67198 Z" id="Shape" fill="#FEC013"></path>
                        <g id="Group" transform="translate(5.483104, 1.850000)" fill="#009B3A">
                            <path d="M42.4797974,24.5458 C42.6552567,25.12448 42.8263296,25.68873 43.0109274,26.29849 C43.0577165,26.20451 43.0880564,26.15049 43.1125476,26.09388 C43.4532311,25.29949 43.79757,24.50695 44.129115,23.70849 C44.1963744,23.54643 44.2950703,23.48834 44.4573701,23.46022 C45.1120527,23.34737 45.6991103,23.08134 46.1607877,22.58739 C47.194901,21.48183 47.0450295,19.99813 45.8288771,19.07017 C45.3003059,18.66687 44.6993578,18.45153 44.0662421,18.315 C43.8235233,18.26283 43.6469674,18.17218 43.4799155,17.97016 C42.9144248,17.28603 42.144597,17.0718 41.295447,17.11176 C40.7332461,17.1384 40.2171033,17.31415 39.7623712,17.66565 C39.7002294,17.71375 39.5810633,17.71153 39.4936991,17.69784 C38.3279913,17.51469 37.2573239,17.72929 36.3701578,18.54588 C35.0187555,19.79056 35.1741101,21.74453 36.6878122,22.78719 C36.8895904,22.92631 37.1180531,23.02473 37.3297009,23.15016 C37.3845319,23.18272 37.4580055,23.2434 37.4616609,23.29557 C37.5157609,24.08811 37.9858456,24.5902 38.6405282,24.90137 C39.9210157,25.50965 41.1773775,25.44712 42.3664799,24.62572 C42.3975509,24.605 42.4271596,24.58317 42.4797974,24.5458 Z" id="Shape"></path>
                            <path d="M31.9229951,30.78918 C31.6166724,30.15278 31.3293578,29.5556 31.0237661,28.92105 C31.1337937,28.91291 31.2101917,28.90255 31.2865896,28.90255 C32.5831608,28.90181 33.8793665,28.90255 35.1759378,28.90218 C35.2947384,28.90218 35.4135389,28.89478 35.5323395,28.89034 C35.963677,28.87406 36.285718,28.56548 36.2875457,28.13295 C36.2933943,26.63223 36.2930288,25.13151 36.2871801,23.63042 C36.2853524,23.19271 35.9497865,22.85305 35.5191801,22.85194 C33.5968039,22.84713 31.6744278,22.84898 29.7524172,22.84861 C29.1119906,22.84824 28.4715641,22.84713 27.8315032,22.8475 C27.2364037,22.8475 26.9351985,23.14461 26.9330052,23.74919 C26.9286188,24.90322 26.930812,26.05688 26.9300809,27.21091 C26.9297154,27.52948 26.9267911,27.84805 26.9293498,28.16662 C26.9322742,28.51664 27.2521219,28.87147 27.6088892,28.89182 C27.9579801,28.91217 28.3096298,28.88886 28.6583552,28.91069 C28.8133443,28.92031 28.9833205,28.96175 29.1145494,29.04241 C29.9980602,29.58668 30.872798,30.14575 31.7508257,30.69927 C31.7928628,30.7248 31.8385553,30.74478 31.9229951,30.78918 Z" id="Shape"></path>
                            <path d="M23.1485671,36.13827 C23.2794305,36.78096 23.4081007,37.41218 23.5506614,38.11148 C23.1920664,37.84286 22.884647,37.61346 22.5779588,37.38258 C22.3809326,37.23421 22.1992591,36.9963 21.9843214,36.96115 C21.7931439,36.9297 21.5701643,37.1332 21.35413,37.21386 C20.3295207,37.59496 19.3107601,37.58682 18.3186838,37.10841 C17.8453092,36.88012 17.4713615,36.54749 17.4015434,35.96992 C17.3953292,35.91849 17.3116205,35.86595 17.2534996,35.83302 C16.9815376,35.67984 16.6836223,35.56366 16.4346894,35.37903 C15.2971282,34.53469 15.3055356,33.14608 16.4467522,32.30618 C17.2407057,31.72195 18.1446867,31.56766 19.0994778,31.67385 C19.3023526,31.69642 19.4628248,31.66645 19.646326,31.57395 C20.5886888,31.09924 21.5361691,31.10257 22.4723176,31.60318 C22.5699169,31.65535 22.684331,31.7127 22.7406242,31.80076 C22.9398436,32.11193 23.2498217,32.14116 23.5667451,32.1974 C24.1318704,32.29804 24.6520341,32.51893 25.0939723,32.89966 C25.9215554,33.61265 25.9219209,34.61905 25.0950689,35.33093 C24.609997,35.74866 24.0324434,35.95586 23.415777,36.06908 C23.3572906,36.07981 23.2977075,36.0861 23.2395866,36.09794 C23.2183853,36.10164 23.1993772,36.11496 23.1485671,36.13827 Z" id="Shape"></path>
                            <path d="M25.9453155,45.69722 C25.7300123,45.24767 25.5253098,44.81958 25.3041579,44.35819 C25.4006605,44.35819 25.4606091,44.35819 25.5201922,44.35819 C26.4863151,44.35782 27.4528035,44.35745 28.4189263,44.35671 C28.8886456,44.35634 29.0918859,44.15099 29.0911549,43.67702 C29.0896927,42.661 29.0794576,41.64498 29.0911549,40.62933 C29.0959069,40.21604 28.8349111,39.96888 28.447804,39.96925 C26.621565,39.97147 24.7949604,39.96666 22.9687213,39.96629 C22.5710135,39.96629 22.3425509,40.19495 22.3414542,40.60047 C22.3381644,41.64794 22.3381644,42.69541 22.3403576,43.74288 C22.3410887,44.12435 22.5673581,44.34746 22.9486166,44.35597 C22.9983301,44.35708 23.0491401,44.363 23.0981225,44.3556 C23.5839255,44.28234 23.9871164,44.45809 24.3811688,44.73448 C24.8669718,45.07525 25.3816524,45.37384 25.8839047,45.68982 C25.8923122,45.69574 25.9058372,45.69315 25.9453155,45.69722 Z" id="Shape"></path>
                            <path d="M19.3663222,10.16427 C19.3023526,10.0492 19.2310723,9.93709 19.1762413,9.81758 C19.1298176,9.7162 19.0852217,9.60853 19.069138,9.49938 C19.0267353,9.20819 19.1020366,9.13012 19.3937377,9.14677 C20.3357349,9.20042 21.2353295,9.04243 22.0603538,8.56439 C22.316232,8.41602 22.5637027,8.23546 22.7738883,8.02715 C23.6511849,7.15802 23.6204795,5.96144 22.7077256,5.0949 C22.0453666,4.4659 21.2280186,4.17582 20.3474322,4.07222 C19.2749371,3.94605 18.229492,4.06889 17.2860326,4.63943 C16.9537566,4.84034 16.6324467,5.10193 16.3900935,5.40496 C15.7701372,6.17937 15.8143676,7.11066 16.4566218,7.98423 C16.9723991,8.68575 17.6457242,9.20375 18.3760737,9.65182 C18.6904383,9.84459 19.0154035,10.0196 19.3356168,10.20275 C19.3462175,10.1898 19.3560871,10.17722 19.3663222,10.16427 Z" id="Shape"></path>
                            <path d="M5.64357584,21.50773 C5.88556348,21.4267 6.07820319,21.28425 6.10452209,21.01304 C6.13047545,20.74331 5.98243165,20.53722 5.74994805,20.43843 C5.53574147,20.34741 5.29558153,20.27267 5.06675334,20.2723 C4.59922736,20.27119 4.13206693,20.33705 3.66380988,20.35222 C3.28145478,20.36443 3.03434957,20.10765 3.02959755,19.72026 C3.02301783,19.15157 3.02192121,18.58288 3.02228675,18.01419 C3.02265229,17.30564 3.02703877,16.59672 3.02850093,15.88817 C3.02923201,15.42752 3.27231627,15.17592 3.73180036,15.17555 C5.19944444,15.17407 6.66708853,15.1737 8.13473261,15.17666 C8.624191,15.1774 8.85594351,15.41901 8.8566746,15.91592 C8.85777122,17.09215 8.85813676,18.26875 8.8585023,19.44498 C8.8585023,20.17943 8.81244423,20.239 8.09086778,20.30412 C7.6332114,20.34556 7.24281441,20.48949 6.95623086,20.88021 C6.83779582,21.04153 6.68097906,21.17769 6.52672107,21.30682 C6.23319226,21.5525 5.90493712,21.68977 5.47725503,21.55953 C5.55913605,21.53363 5.60190425,21.52179 5.64357584,21.50773 Z" id="Shape"></path>
                            <path d="M26.4863151,22.83714 C26.4168624,22.52745 26.3353469,22.21147 26.2779571,21.89068 C26.2457896,21.70975 26.340099,21.63686 26.5298144,21.65758 C27.7836174,21.79559 28.9668712,20.94163 29.3689654,19.76725 C30.0364419,17.81735 28.533706,15.83341 26.5140961,15.9581 C25.2749147,16.03469 24.1260217,17.11509 23.9545833,18.34571 C23.8006909,19.45164 24.1994953,20.36924 24.8220103,21.2195 C25.2906329,21.86071 25.8652622,22.39684 26.4863151,22.83714 Z" id="Shape"></path>
                            <path d="M1.99584974,3.97158 C1.90190589,4.48181 1.81234853,4.96762 1.71255605,5.51115 C2.07261319,5.21663 2.39282644,4.96281 2.70280457,4.69678 C2.8102734,4.60465 2.88191929,4.59799 3.00985838,4.67236 C3.81514354,5.13856 4.64126449,5.14781 5.4615368,4.7212 C5.7894264,4.55063 6.02958634,4.28756 6.08332076,3.88796 C6.09136264,3.82876 6.1754369,3.76068 6.23977198,3.73182 C6.60202236,3.56976 6.91711806,3.34665 7.13753882,3.01032 C7.62041749,2.27365 7.34735892,1.24431 6.53037648,0.888 C6.09319034,0.69745 5.60153871,0.51393 5.14205463,0.53132 C4.71071714,0.5476 4.382462,0.35853 4.00778325,0.26825 C3.29095883,0.0962 2.66113298,0.2146 2.14206584,0.78218 C2.07590305,0.85433 1.95308153,0.88948 1.85036472,0.90835 C1.41793061,0.98753 1.01620188,1.13405 0.678077154,1.42635 C-0.0204702537,2.03019 0.00402094269,2.90487 0.734004812,3.47171 C1.05385253,3.72035 1.42048939,3.85873 1.8138107,3.9331 C1.86425525,3.94309 1.91396872,3.95456 1.99584974,3.97158 Z" id="Shape"></path>
                            <path d="M14.5170653,15.24252 C14.4201971,15.21292 14.3496479,15.19923 14.2856783,15.17037 C13.9979981,15.0405 13.9574232,14.73895 14.2012385,14.53656 C14.4066721,14.36599 14.6541429,14.35785 14.9016136,14.3708 C15.136656,14.38301 15.3709673,14.41039 15.6060097,14.42926 C15.9697222,14.45812 16.1594376,14.28422 16.1601687,13.91977 C16.1608998,13.46319 16.1605342,13.00661 16.1590721,12.55003 C16.1579754,12.26106 15.9912891,12.0768 15.7058022,12.07495 C14.6603571,12.06866 13.6145464,12.06718 12.5687358,12.07051 C12.3055468,12.07125 12.1308186,12.26069 12.1289909,12.52894 C12.125701,13.02178 12.1260665,13.51462 12.1286253,14.00746 C12.1297219,14.22872 12.2126996,14.32788 12.4298305,14.36895 C12.5906682,14.39929 12.7529681,14.42519 12.9156335,14.43999 C13.0804921,14.45479 13.2018515,14.53582 13.311148,14.65311 C13.4445702,14.7963 13.5779924,14.94097 13.7231119,15.07195 C13.9431671,15.27138 14.1972176,15.35167 14.5170653,15.24252 Z" id="Shape"></path>
                            <path d="M32.1203869,40.57309 C32.0516653,40.42546 31.9734397,40.30632 31.9434654,40.182 C31.903256,40.01661 31.7683716,39.98479 31.5523373,39.98997 C31.1681545,39.99922 30.7832406,39.99811 30.3990579,39.99293 C29.946519,39.98701 29.7319469,39.83679 29.732678,39.52858 C29.7352368,38.50997 29.7403543,37.49173 29.7480307,36.47312 C29.7502239,36.18674 29.968817,36.04466 30.386995,36.04392 C31.6963602,36.04207 33.0060909,36.03911 34.315456,36.03652 C34.8666907,36.03541 35.0483642,36.15344 35.0516541,36.52936 C35.059696,37.52651 35.0640825,38.52329 35.0659102,39.52044 C35.0666412,39.83383 34.8301367,40.02253 34.374308,39.98738 C33.5763337,39.92596 32.9084916,40.06693 32.3473874,40.45765 C32.2907286,40.49761 32.2161584,40.52536 32.1203869,40.57309 Z" id="Shape"></path>
                            <path d="M16.1192282,27.09917 C15.7617298,26.88383 15.3947274,26.68329 15.0496574,26.44982 C14.6018706,26.14679 14.1931966,25.79418 13.924159,25.30837 C13.6441552,24.80295 13.6324579,24.29753 13.9932461,23.82948 C14.1369034,23.643 14.3171148,23.47132 14.5126788,23.34256 C15.2547255,22.8549 16.0815775,22.76795 16.9373073,22.88154 C17.5627466,22.96442 18.1370103,23.18013 18.5953978,23.63856 C18.8509104,23.89423 19.0249076,24.19615 19.0223488,24.57614 C19.0179623,25.20847 18.6505944,25.60548 18.157115,25.90481 C17.5656709,26.26371 16.9131816,26.38655 16.2292558,26.36213 C15.9386513,26.35177 15.8659088,26.455 15.9788607,26.72732 C16.0267465,26.84313 16.0932748,26.95154 16.1510302,27.06328 C16.1404295,27.07549 16.1298288,27.08733 16.1192282,27.09917 Z" id="Shape"></path>
                            <path d="M4.77285898,10.62085 C4.97573381,10.43955 5.17824311,10.25825 5.38111795,10.07732 C5.37380714,10.06585 5.36649634,10.05475 5.35918553,10.04328 C4.96147774,10.19757 4.55974902,10.34335 4.16679325,10.50948 C3.89410023,10.62455 3.62104167,10.68893 3.32312637,10.6745 C3.03032863,10.66007 2.94661991,10.75331 2.94588883,11.04191 C2.94479221,11.74343 2.94479221,12.44458 2.94625437,13.1461 C2.94698545,13.40732 3.03800498,13.50611 3.29205545,13.50722 C4.06700077,13.50981 4.84194608,13.50907 5.61652586,13.50463 C5.85156824,13.50315 5.93893236,13.41102 5.9392979,13.17348 C5.94039452,12.44199 5.93600804,11.7105 5.93637358,10.97901 C5.93637358,10.77218 5.83804325,10.67339 5.63626504,10.67376 C5.35479905,10.67413 5.0736986,10.67376 4.79223261,10.67376 C4.78638397,10.65563 4.77980424,10.63824 4.77285898,10.62085 Z" id="Shape"></path>
                            <path d="M32.6039966,35.18552 C32.6160594,35.09894 32.6281223,35.01199 32.6427439,34.9058 C32.5509933,34.89914 32.4793474,34.8947 32.4077015,34.88841 C31.9694187,34.85067 31.6389704,34.49621 31.6429913,34.06886 C31.6466467,33.64928 31.9719775,33.3074 32.4003907,33.26559 C32.7567924,33.23081 33.0466658,33.34625 33.2466164,33.6515 C33.4469324,33.95712 33.4195169,34.27828 33.2239529,34.56318 C33.0590942,34.80331 32.843791,35.00829 32.6507858,35.22881 C32.6350675,35.21401 32.6197148,35.19958 32.6039966,35.18552 Z" id="Shape"></path>
                            <path d="M24.8446738,50.64708 C25.6338752,50.4569 26.3792118,51.05704 26.3627625,51.82035 C26.3627625,51.82775 26.3634935,51.83515 26.3634935,51.84255 C26.3634935,52.48968 25.8451575,53.01434 25.2058276,53.01434 C25.1762188,53.01434 25.1473412,53.01286 25.1184635,53.01064 C25.1096905,53.01027 25.1012831,53.01064 25.0925101,53.01027 C24.9532393,53.00472 24.919244,53.04542 24.9484873,53.18861 C24.9678609,53.28407 25.0040494,53.3762 25.0431622,53.50459 C24.5909889,53.16826 24.2163101,52.80418 24.0178218,52.29099 C23.7433011,51.5817 24.128946,50.81987 24.8446738,50.64708 Z" id="Shape"></path>
                            <path d="M17.9290179,0.49025 C18.7182193,0.2997 19.4635559,0.90021 19.4471066,1.66352 C19.4471066,1.67092 19.4478377,1.67832 19.4478377,1.68572 C19.4478377,2.33285 18.9295016,2.85751 18.2901717,2.85751 C18.2605629,2.85751 18.2316853,2.85603 18.2028076,2.85381 C18.1940346,2.85344 18.1856272,2.85381 18.1768542,2.85344 C18.0375834,2.84789 18.0035881,2.88859 18.0328314,3.03178 C18.052205,3.12724 18.0883935,3.21937 18.1275063,3.34776 C17.675333,3.01143 17.3006543,2.64735 17.1021659,2.13416 C16.8276452,1.42487 17.2132901,0.66304 17.9290179,0.49025 Z" id="Shape"></path>
                        </g>
                        <path d="M23.3357237,13.05841 C24.0711907,12.41831 24.9411765,12.24293 25.8882912,12.39537 C25.9712689,12.40869 26.0791032,12.38723 26.149287,12.34098 C26.8876783,11.85554 27.6582371,11.74232 28.4810682,12.10196 C28.8034747,12.24293 29.0692224,12.44606 29.2731939,12.73984 C29.3232729,12.81236 29.4307417,12.86897 29.5199336,12.88488 C30.1614567,12.99921 30.7550941,13.2164 31.2635605,13.64301 C32.021691,14.27867 32.1876463,15.22772 31.6711379,16.07576 C31.2851274,16.70994 30.6838137,17.01704 29.9841697,17.14617 C29.8357603,17.17355 29.7714253,17.23867 29.7169598,17.36928 C29.451212,18.00753 29.1766913,18.64208 28.9039983,19.27737 C28.8795071,19.33472 28.8477051,19.38874 28.8053024,19.47162 C28.6557964,18.97619 28.5176222,18.51887 28.3754271,18.04786 C28.3162095,18.08227 28.2829454,18.09818 28.2533366,18.11964 C27.6670101,18.53885 27.0470538,18.70461 26.4062618,18.66502 C26.3737287,18.66613 26.3411956,18.66687 26.3086625,18.66687 C25.0636324,18.66687 24.0543758,17.93871 24.0543758,17.03998 C24.0543758,17.00261 24.0569346,16.96561 24.0602245,16.92861 C23.974688,16.84203 23.869778,16.77099 23.7429355,16.6981 C22.3268326,15.88854 22.1294409,14.1081 23.3357237,13.05841 Z" id="Shape" fill="#FEC013"></path>
                        <polygon id="Shape" fill="#FFFFFF" points="35.5604861 5.69985 36.60849 7.84955 38.952334 8.19402 37.2562273 9.86753 37.6564939 12.22998 35.5604861 11.11443 33.4641128 12.22998 33.8643794 9.86753 32.1686382 8.19402 34.5121167 7.84955"></polygon>
                    </g>
                </g>
                <g id="Group-20" transform="translate(45.125984, 0.000000)">
                    <path d="M139.533772,52.6575 L2.06941732,56.706 C1.11216142,56.7345 0.401551181,55.8285 0.659476378,54.90825 L8.03252756,28.5855 C8.20623228,27.9645 8.77923228,27.5385 9.4259252,27.54975 L136.608614,29.79975 C137.304937,29.81175 137.889969,30.32625 137.989228,31.01325 L140.897843,51.03675 C141.019661,51.876 140.382744,52.63275 139.533772,52.6575 Z" id="Shape" fill="#EF4438"></path>
                    <g id="Group" transform="translate(12.783465, 0.000000)">
                        <path d="M1.38662992,0.957 C1.38662992,0.76725 1.5137126,0.64125 1.70320866,0.64125 L10.098185,0.64125 C14.7867087,0.64125 16.9726811,2.94825 16.9726811,6.36075 C16.9726811,8.6985 15.8951102,10.152 14.4701299,10.94175 L14.4701299,11.00475 C15.8951102,11.54175 17.3531772,13.31175 17.3531772,15.87075 C17.3531772,20.1045 14.5332953,22.1265 9.8771063,22.1265 L1.70396063,22.1265 C1.5137126,22.1265 1.38738189,21.99975 1.38738189,21.81075 L1.38738189,0.957 L1.38662992,0.957 Z M9.52819291,9.42525 C11.3020866,9.42525 12.3473228,8.47725 12.3473228,6.89775 C12.3473228,5.31825 11.3020866,4.40175 9.52819291,4.40175 L6.2338189,4.40175 C6.10673622,4.40175 6.04357087,4.4655 6.04357087,4.5915 L6.04357087,9.23625 C6.04357087,9.363 6.10673622,9.426 6.2338189,9.426 L9.52819291,9.426 L9.52819291,9.42525 Z M6.2338189,18.36675 L9.7816063,18.36675 C11.6825827,18.36675 12.6962362,17.35575 12.6962362,15.681 C12.6962362,14.03775 11.6825827,12.99525 9.7816063,12.99525 L6.2338189,12.99525 C6.10673622,12.99525 6.04357087,13.059 6.04357087,13.185 L6.04357087,18.177 C6.04357087,18.303 6.10673622,18.36675 6.2338189,18.36675 Z" id="Shape" fill="#EF4438"></path>
                        <path d="M19.697063,22.1265 C19.506815,22.1265 19.3797323,21.99975 19.3797323,21.81075 L19.3797323,7.14975 C19.3797323,6.96 19.506815,6.834 19.697063,6.834 L23.4982638,6.834 C23.6877598,6.834 23.8148425,6.96075 23.8148425,7.14975 L23.8148425,8.445 L23.8464252,8.445 C24.5750827,7.21275 25.9684803,6.48675 27.837874,6.48675 C28.8515276,6.48675 29.8651811,6.834 30.5306732,7.4025 C30.6893386,7.52925 30.7209213,7.65525 30.6261732,7.845 L28.8522795,11.06775 C28.7251969,11.22525 28.5988661,11.22525 28.4086181,11.13075 C27.6799606,10.65675 26.9513031,10.404 26.191063,10.4355 C24.5435,10.4985 23.8148425,11.69925 23.8148425,13.75275 L23.8148425,21.81 C23.8148425,21.99975 23.6877598,22.12575 23.4982638,22.12575 L19.697063,22.12575 L19.697063,22.1265 Z" id="Shape" fill="#EF4438"></path>
                        <path d="M40.4784646,22.1265 C40.2882165,22.1265 40.1611339,21.99975 40.1611339,21.81075 L40.1611339,20.79975 L40.1295512,20.79975 C39.3377283,21.81075 38.0067441,22.47375 35.9162717,22.47375 C33.1911378,22.47375 30.8156693,21.0525 30.8156693,17.7975 C30.8156693,14.41725 33.3821378,12.8685 37.1833386,12.8685 L39.9069685,12.8685 C40.0340512,12.8685 40.0972165,12.8055 40.0972165,12.6795 L40.0972165,12.11025 C40.0972165,10.689 39.4001417,10.02525 36.9607559,10.02525 C35.4086929,10.02525 34.2679567,10.467 33.5392992,11.00475 C33.3813858,11.1315 33.2227205,11.09925 33.1279724,10.94175 L31.7022402,8.44575 C31.6074921,8.25675 31.6390748,8.0985 31.7969882,8.004 C33.0963898,7.0875 34.9650315,6.4875 37.4991654,6.4875 C42.5050197,6.4875 44.3104961,8.193 44.3104961,12.0165 L44.3104961,21.8115 C44.3104961,22.00125 44.1834134,22.12725 43.9939173,22.12725 L40.4784646,22.12725 L40.4784646,22.1265 Z M40.0987205,17.03925 L40.0987205,15.99675 C40.0987205,15.87 40.0348031,15.807 39.9084724,15.807 L37.7540827,15.807 C35.8854409,15.807 35.0304528,16.344 35.0304528,17.54475 C35.0304528,18.6195 35.7906929,19.1565 37.2472559,19.1565 C39.1474803,19.1565 40.0987205,18.46125 40.0987205,17.03925 Z" id="Shape" fill="#EF4438"></path>
                        <path d="M45.9903937,20.1045 C45.863311,19.97775 45.863311,19.78875 45.9903937,19.662 L48.0500354,17.35575 C48.1771181,17.229 48.3350315,17.229 48.4936969,17.35575 C49.8562638,18.39825 51.5985748,19.02975 53.1822205,19.02975 C54.7982008,19.02975 55.5584409,18.429 55.5584409,17.57625 C55.5584409,16.8495 55.1463622,16.407 53.3724685,16.2495 L51.6617402,16.05975 C48.4305315,15.744 46.6566378,14.13225 46.6566378,11.3835 C46.6566378,8.382 48.9696929,6.486 52.9603898,6.486 C55.5584409,6.486 57.7444134,7.30725 59.1693937,8.382 C59.2964764,8.50875 59.3280591,8.69775 59.2009764,8.856 L57.4270827,11.03625 C57.3,11.19375 57.1420866,11.19375 56.9834213,11.09925 C55.938185,10.43625 54.4177047,9.867 52.8333071,9.867 C51.5346575,9.867 50.900748,10.3725 50.900748,11.13075 C50.900748,11.826 51.2812441,12.23625 53.0235551,12.3945 L54.7019488,12.58425 C58.3136535,12.93225 59.8017992,14.66925 59.8017992,17.229 C59.7702165,20.3565 57.3315827,22.47375 52.9588858,22.47375 C49.7600118,22.47375 47.4477087,21.36825 45.9903937,20.1045 Z" id="Shape" fill="#EF4438"></path>
                        <path d="M61.9885236,4.401 C61.7982756,4.401 61.6711929,4.27425 61.6711929,4.08525 L61.6711929,0.957 C61.6711929,0.76725 61.7982756,0.64125 61.9885236,0.64125 L65.7897244,0.64125 C65.9792205,0.64125 66.1063031,0.768 66.1063031,0.957 L66.1063031,4.08525 C66.1063031,4.27425 65.9792205,4.401 65.7897244,4.401 L61.9885236,4.401 Z M61.9885236,22.1265 C61.7982756,22.1265 61.6711929,21.99975 61.6711929,21.81075 L61.6711929,7.14975 C61.6711929,6.96 61.7982756,6.834 61.9885236,6.834 L65.7897244,6.834 C65.9792205,6.834 66.1063031,6.96075 66.1063031,7.14975 L66.1063031,21.81075 C66.1063031,22.0005 65.9792205,22.1265 65.7897244,22.1265 L61.9885236,22.1265 L61.9885236,22.1265 Z" id="Shape" fill="#EF4438"></path>
                        <path d="M73.5184567,22.31625 C70.1293346,22.31625 68.7667677,20.83125 68.7667677,17.45025 L68.7667677,0.957 C68.7667677,0.76725 68.8938504,0.64125 69.0833465,0.64125 L72.8845472,0.64125 C73.0747953,0.64125 73.201878,0.768 73.201878,0.957 L73.201878,17.103 C73.201878,18.1455 73.6132047,18.55575 74.5321102,18.55575 L75.1976024,18.55575 C75.3878504,18.55575 75.5141811,18.6825 75.5141811,18.87225 L75.5141811,21.99975 C75.5141811,22.1895 75.3870984,22.3155 75.1976024,22.3155 L73.5184567,22.3155 L73.5184567,22.31625 Z" id="Shape" fill="#EF4438"></path>
                        <path d="M89.3105472,26.72625 C89.1571457,26.72625 89.054126,26.62425 89.054126,26.4705 L89.054126,20.97675 L89.0278071,20.97675 C88.4390157,21.81975 87.4140827,22.40775 85.7747913,22.40775 C83.6993583,22.40775 82.2134685,21.3855 81.5727913,19.44375 C81.2652362,18.4725 81.1374016,17.52675 81.1374016,15.9435 C81.1374016,14.334 81.2652362,13.41375 81.5727913,12.44325 C82.2134685,10.476 83.6993583,9.47925 85.7747913,9.47925 C87.4140827,9.47925 88.4390157,10.06725 89.0278071,10.91025 L89.054126,10.91025 L89.054126,10.01625 C89.054126,9.8625 89.1563937,9.7605 89.3105472,9.7605 L92.3845945,9.7605 C92.5379961,9.7605 92.6410157,9.8625 92.6410157,10.01625 L92.6410157,26.47125 C92.6410157,26.62425 92.538748,26.727 92.3845945,26.727 L89.3105472,26.727 L89.3105472,26.72625 Z M88.8240236,18.06375 C88.9774252,17.5785 89.054878,17.0415 89.054878,15.94275 C89.054878,14.844 88.9781772,14.30775 88.8240236,13.82175 C88.5420354,12.92775 87.8757913,12.49275 86.928311,12.49275 C85.9545118,12.49275 85.2890197,12.927 85.0070315,13.82175 C84.852878,14.307 84.7761772,14.844 84.7761772,15.94275 C84.7761772,17.0415 84.852878,17.57775 85.0070315,18.06375 C85.2890197,18.93225 85.9545118,19.392 86.928311,19.392 C87.8757913,19.39275 88.5420354,18.933 88.8240236,18.06375 Z" id="Shape" fill="#A82522"></path>
                        <path d="M101.836839,22.1265 C101.683437,22.1265 101.580417,22.0245 101.580417,21.87075 L101.580417,20.97675 L101.55485,20.97675 C100.914173,21.81975 99.941126,22.40775 98.3785354,22.40775 C95.6376102,22.40775 94.2028543,20.4915 94.2028543,17.80875 L94.2028543,10.0155 C94.2028543,9.86175 94.305122,9.75975 94.4592756,9.75975 L97.5333228,9.75975 C97.6867244,9.75975 97.7897441,9.86175 97.7897441,10.0155 L97.7897441,17.11875 C97.7897441,18.44775 98.4304213,19.36725 99.6854567,19.36725 C100.914925,19.36725 101.581169,18.47325 101.581169,17.11875 L101.581169,10.0155 C101.581169,9.86175 101.683437,9.75975 101.837591,9.75975 L104.91239,9.75975 C105.065791,9.75975 105.168811,9.86175 105.168811,10.0155 L105.168811,21.87075 C105.168811,22.02375 105.066543,22.1265 104.91239,22.1265 L101.836839,22.1265 Z" id="Shape" fill="#A82522"></path>
                        <path d="M107.190102,18.88125 C106.933681,18.11475 106.754713,17.22075 106.754713,15.94275 C106.754713,14.63925 106.908114,13.74525 107.164535,12.97875 C107.881913,10.75575 109.855079,9.4785 112.492984,9.4785 C115.233909,9.4785 117.129622,10.782 117.847752,12.954 C118.104173,13.7715 118.257575,14.66625 118.257575,16.761 C118.257575,16.91475 118.155307,17.01675 117.975587,17.01675 L110.469437,17.01675 C110.367169,17.01675 110.316035,17.06775 110.316035,17.1705 C110.341602,17.42625 110.392736,17.65575 110.469437,17.8605 C110.802559,18.93375 111.750791,19.4955 113.031394,19.4955 C114.260862,19.4955 115.157961,19.06125 115.874587,18.39675 C116.002421,18.29475 116.131008,18.26925 116.233276,18.39675 L117.923701,19.98075 C118.051535,20.08275 118.051535,20.2365 117.95002,20.3385 C116.770933,21.59025 114.952673,22.40775 112.672705,22.40775 C109.854327,22.40775 107.90748,21.10425 107.190102,18.88125 Z M114.568417,14.64 C114.670685,14.64 114.721819,14.589 114.721819,14.487 C114.721819,14.10375 114.670685,13.8225 114.593984,13.5675 C114.311996,12.7245 113.543484,12.213 112.519303,12.213 C111.49437,12.213 110.725858,12.72375 110.44387,13.5675 C110.367169,13.82325 110.316035,14.10375 110.316035,14.487 C110.316035,14.589 110.367169,14.64 110.469437,14.64 L114.568417,14.64 Z" id="Shape" fill="#A82522"></path>
                        <path d="M0.736929134,46.70475 C0.454940945,45.81075 0.327106299,44.9415 0.327106299,43.71525 C0.327106299,42.489 0.454940945,41.61975 0.736929134,40.72575 C1.45430709,38.47725 3.50342126,37.25025 6.11726378,37.25025 C8.7311063,37.25025 10.7794685,38.4765 11.4968465,40.72575 C11.7788346,41.61975 11.9074213,42.489 11.9074213,43.71525 C11.9074213,44.9415 11.7795866,45.81075 11.4968465,46.70475 C10.7802205,48.9525 8.73035433,50.1795 6.11726378,50.1795 C3.50417323,50.1795 1.45430709,48.95325 0.736929134,46.70475 Z M8.03779134,45.83625 C8.21675984,45.27375 8.26864567,44.763 8.26864567,43.71525 C8.26864567,42.6675 8.21751181,42.156 8.03779134,41.59425 C7.75580315,40.72575 7.06474409,40.26525 6.11651181,40.26525 C5.16827953,40.26525 4.47722047,40.725 4.19523228,41.59425 C4.01551181,42.156 3.96512992,42.6675 3.96512992,43.71525 C3.96512992,44.763 4.01626378,45.27375 4.19523228,45.83625 C4.47722047,46.70475 5.1690315,47.1645 6.11651181,47.1645 C7.06399213,47.1645 7.75580315,46.70475 8.03779134,45.83625 Z" id="Shape" fill="#F8971D"></path>
                        <path d="M16.7726575,49.89825 C16.6192559,49.89825 16.5162362,49.79625 16.5162362,49.6425 L16.5162362,32.7795 C16.5162362,32.6265 16.6185039,32.52375 16.7726575,32.52375 L23.5358622,32.52375 C27.3272874,32.52375 29.6072559,34.79775 29.6072559,38.1195 C29.6072559,41.39025 27.3017205,43.68975 23.5358622,43.68975 L20.4354961,43.68975 C20.3332283,43.68975 20.2820945,43.74075 20.2820945,43.84275 L20.2820945,49.6425 C20.2820945,49.7955 20.1798268,49.89825 20.0256732,49.89825 L16.7726575,49.89825 Z M25.8413976,38.1195 C25.8413976,36.714 24.8939173,35.769 23.3050079,35.769 L20.4354961,35.769 C20.3332283,35.769 20.2820945,35.82 20.2820945,35.922 L20.2820945,40.2915 C20.2820945,40.3935 20.3332283,40.4445 20.4354961,40.4445 L23.3050079,40.4445 C24.8939173,40.4445 25.8413976,39.525 25.8413976,38.1195 Z" id="Shape" fill="#FEC013"></path>
                        <path d="M30.5795512,46.70475 C30.297563,45.81075 30.1697283,44.9415 30.1697283,43.71525 C30.1697283,42.489 30.297563,41.61975 30.5795512,40.72575 C31.2969291,38.47725 33.3460433,37.25025 35.9598858,37.25025 C38.5737283,37.25025 40.6220906,38.4765 41.3394685,40.72575 C41.6214567,41.61975 41.7500433,42.489 41.7500433,43.71525 C41.7500433,44.9415 41.6222087,45.81075 41.3394685,46.70475 C40.6228425,48.9525 38.5729764,50.1795 35.9598858,50.1795 C33.3467953,50.1795 31.2969291,48.95325 30.5795512,46.70475 Z M37.8811654,45.83625 C38.0601339,45.27375 38.1120197,44.763 38.1120197,43.71525 C38.1120197,42.6675 38.0608858,42.156 37.8811654,41.59425 C37.5991772,40.72575 36.9073661,40.26525 35.9598858,40.26525 C35.0116535,40.26525 34.3205945,40.725 34.0386063,41.59425 C33.8588858,42.156 33.807752,42.6675 33.807752,43.71525 C33.807752,44.763 33.8588858,45.27375 34.0386063,45.83625 C34.3205945,46.70475 35.0116535,47.1645 35.9598858,47.1645 C36.9073661,47.1645 37.5991772,46.70475 37.8811654,45.83625 Z" id="Shape" fill="#FEC013"></path>
                        <path d="M46.6160315,49.89825 C46.4626299,49.89825 46.3596102,49.79625 46.3084764,49.6425 L41.9019409,37.78725 C41.8508071,37.6335 41.9275079,37.5315 42.1072283,37.5315 L45.3346772,37.5315 C45.5143976,37.5315 45.6166654,37.608 45.6677992,37.78725 L48.0756024,45.12 L48.1267362,45.12 L50.4330236,37.78725 C50.4841575,37.608 50.5864252,37.5315 50.7661457,37.5315 L53.9432126,37.5315 C54.1221811,37.5315 54.1996339,37.6335 54.147748,37.78725 L49.7412126,49.6425 C49.6900787,49.7955 49.587811,49.89825 49.4336575,49.89825 L46.6160315,49.89825 Z" id="Shape" fill="#FEC013"></path>
                        <path d="M54.6087047,46.70475 C54.3267165,45.81075 54.1988819,44.9415 54.1988819,43.71525 C54.1988819,42.489 54.3267165,41.61975 54.6087047,40.72575 C55.3260827,38.47725 57.3751969,37.25025 59.9890394,37.25025 C62.6028819,37.25025 64.6512441,38.4765 65.368622,40.72575 C65.6506102,41.61975 65.7791969,42.489 65.7791969,43.71525 C65.7791969,44.9415 65.6513622,45.81075 65.368622,46.70475 C64.6519961,48.9525 62.6021299,50.1795 59.9890394,50.1795 C57.3759488,50.1795 55.3260827,48.95325 54.6087047,46.70475 Z M61.9095669,45.83625 C62.0885354,45.27375 62.1404213,44.763 62.1404213,43.71525 C62.1404213,42.6675 62.0892874,42.156 61.9095669,41.59425 C61.6275787,40.72575 60.9357677,40.26525 59.9882874,40.26525 C59.0400551,40.26525 58.3489961,40.725 58.0670079,41.59425 C57.8872874,42.156 57.8361535,42.6675 57.8361535,43.71525 C57.8361535,44.763 57.8872874,45.27375 58.0670079,45.83625 C58.3489961,46.70475 59.0400551,47.1645 59.9882874,47.1645 C60.9357677,47.1645 61.6275787,46.70475 61.9095669,45.83625 Z" id="Shape" fill="#FEC013"></path>
                        <path d="M82.4548504,51.15075 C82.3525827,51.25275 82.1984291,51.27825 82.0705945,51.15075 L80.3027165,49.3875 C79.2777835,49.89825 78.0738819,50.1795 76.7677126,50.1795 C73.7192323,50.1795 71.3114291,48.774 70.4143307,45.96375 C70.0300748,44.763 69.9278071,43.79175 69.9278071,41.211 C69.9278071,38.63025 70.0300748,37.65975 70.4143307,36.45825 C71.3114291,33.648 73.7192323,32.2425 76.7677126,32.2425 C79.8161929,32.2425 82.1984291,33.648 83.1210945,36.45825 C83.5053504,37.659 83.6076181,38.63025 83.6076181,41.211 C83.6076181,43.79175 83.5053504,44.76225 83.1210945,45.96375 C82.9932598,46.347 82.8391063,46.6785 82.6857047,47.0115 L84.5047165,48.80025 C84.6069843,48.90225 84.6069843,49.056 84.5047165,49.158 L82.4548504,51.15075 Z M77.689626,46.78125 L76.5879921,45.6825 C76.4857244,45.5805 76.4601575,45.453 76.5879921,45.3255 L78.6378583,43.383 C78.7912598,43.2555 78.9198465,43.281 79.0221142,43.383 L79.7139252,44.073 C79.790626,43.485 79.8161929,42.6165 79.8161929,41.211 C79.8161929,38.937 79.7394921,38.0685 79.5342047,37.455 C79.1499488,36.25425 78.2017165,35.53875 76.7677126,35.53875 C75.3329567,35.53875 74.3854764,36.25425 74.0012205,37.455 C73.7959331,38.0685 73.7192323,38.937 73.7192323,41.211 C73.7192323,43.485 73.7959331,44.3535 74.0012205,44.967 C74.3854764,46.16775 75.3329567,46.88325 76.7677126,46.88325 C77.1000827,46.88325 77.4076378,46.85775 77.689626,46.78125 Z" id="Shape" fill="#FEC013"></path>
                        <path d="M92.9057087,49.89825 C92.7523071,49.89825 92.6492874,49.79625 92.6492874,49.6425 L92.6492874,48.7485 L92.6237205,48.7485 C91.9830433,49.5915 91.0099961,50.1795 89.4474055,50.1795 C86.7064803,50.1795 85.2717244,48.26325 85.2717244,45.5805 L85.2717244,37.78725 C85.2717244,37.6335 85.3739921,37.5315 85.5281457,37.5315 L88.6021929,37.5315 C88.7555945,37.5315 88.8586142,37.6335 88.8586142,37.78725 L88.8586142,44.8905 C88.8586142,46.2195 89.4992913,47.139 90.7543268,47.139 C91.9837953,47.139 92.6500394,46.245 92.6500394,44.8905 L92.6500394,37.78725 C92.6500394,37.6335 92.7523071,37.5315 92.9064606,37.5315 L95.9812598,37.5315 C96.1346614,37.5315 96.2376811,37.6335 96.2376811,37.78725 L96.2376811,49.6425 C96.2376811,49.7955 96.1354134,49.89825 95.9812598,49.89825 L92.9057087,49.89825 L92.9057087,49.89825 Z" id="Shape" fill="#FEC013"></path>
                        <path d="M98.2589724,46.65375 C98.0025512,45.88725 97.8235827,44.99325 97.8235827,43.71525 C97.8235827,42.41175 97.9769843,41.51775 98.2334055,40.75125 C98.9507835,38.52825 100.923949,37.251 103.561854,37.251 C106.30278,37.251 108.198492,38.5545 108.916622,40.7265 C109.173043,41.544 109.326445,42.43875 109.326445,44.5335 C109.326445,44.68725 109.224177,44.78925 109.044457,44.78925 L101.538307,44.78925 C101.436039,44.78925 101.384906,44.84025 101.384906,44.943 C101.410472,45.19875 101.461606,45.42825 101.538307,45.633 C101.871429,46.70625 102.819661,47.268 104.100264,47.268 C105.329732,47.268 106.226831,46.83375 106.943457,46.16925 C107.071291,46.06725 107.199878,46.04175 107.302146,46.16925 L108.992571,47.75325 C109.120406,47.85525 109.120406,48.009 109.01889,48.111 C107.839803,49.36275 106.021543,50.18025 103.741575,50.18025 C100.923197,50.1795 98.9763504,48.87675 98.2589724,46.65375 Z M105.636535,42.41175 C105.738803,42.41175 105.789937,42.36075 105.789937,42.25875 C105.789937,41.8755 105.738803,41.59425 105.662102,41.33925 C105.380114,40.49625 104.611602,39.98475 103.587421,39.98475 C102.562488,39.98475 101.793976,40.4955 101.511988,41.33925 C101.435287,41.595 101.384154,41.8755 101.384154,42.25875 C101.384154,42.36075 101.436039,42.41175 101.537555,42.41175 L105.636535,42.41175 Z" id="Shape" fill="#FEC013"></path>
                        <path d="M111.16952,49.89825 C111.016118,49.89825 110.913098,49.79625 110.913098,49.6425 L110.913098,37.78725 C110.913098,37.6335 111.015366,37.5315 111.16952,37.5315 L114.243567,37.5315 C114.396969,37.5315 114.499988,37.6335 114.499988,37.78725 L114.499988,38.835 L114.525555,38.835 C115.115098,37.83825 116.242299,37.251 117.753756,37.251 C118.573402,37.251 119.393047,37.53225 119.931457,37.992 C120.059291,38.094 120.08561,38.19675 120.008157,38.34975 L118.573402,40.956 C118.471134,41.0835 118.368114,41.0835 118.214713,41.007 C117.625169,40.62375 117.035626,40.41975 116.421268,40.44525 C115.089531,40.49625 114.499988,41.4675 114.499988,43.128 L114.499988,49.644 C114.499988,49.797 114.39772,49.89975 114.243567,49.89975 L111.16952,49.89975 L111.16952,49.89825 Z" id="Shape" fill="#FEC013"></path>
                    </g>
                    <path d="M135.103925,43.91325 L133.624051,15.57075 C133.624051,15.20175 133.870697,14.95575 134.240665,14.95575 L142.254394,14.95575 C142.624362,14.95575 142.871008,15.20175 142.871008,15.57075 L141.391886,43.91325 C141.391886,44.28225 141.14524,44.52825 140.775272,44.52825 L135.720539,44.52825 C135.350571,44.52825 135.103925,44.28225 135.103925,43.91325 Z M133.932358,49.13925 C133.932358,48.77025 134.179004,48.52425 134.548972,48.52425 L141.946087,48.52425 C142.316055,48.52425 142.562701,48.77025 142.562701,49.13925 L142.562701,56.148 C142.562701,56.517 142.316055,56.763 141.946087,56.763 L134.548972,56.763 C134.179004,56.763 133.932358,56.517 133.932358,56.148 L133.932358,49.13925 Z" id="Shape" fill="#F8971D"></path>
                </g>
            </g>
        </g>
    </g>
</svg>