<?xml version="1.0" encoding="UTF-8" standalone="no"?>
<svg width="52px" height="77px" viewBox="0 0 52 77" version="1.1" xmlns="http://www.w3.org/2000/svg" xmlns:xlink="http://www.w3.org/1999/xlink">
    <!-- Generator: Sketch 48.2 (47327) - http://www.bohemiancoding.com/sketch -->
    <title>badge opinador Nivel</title>
    <desc>Created with Sketch.</desc>
    <defs></defs>
    <g id="Page-1" stroke="none" stroke-width="1" fill="none" fill-rule="evenodd">
        <g id="badge-opinador-Nivel" transform="translate(1.000000, 1.000000)">
            <polygon id="Fill-77-Copy" fill="#5CB878" points="12.1951062 63.9814541 16.6141305 76 30 39.6214219 14.3850543 34 1 70.378175"></polygon>
            <polygon id="Fill-78-Copy" fill="#417505" points="38.804236 63.9814541 50 70.378175 36.6147262 34 21 39.6214219 34.3856814 76"></polygon>
            <path d="M50,25 C50,38.8071429 38.8071429,50 25,50 C11.1928571,50 0,38.8071429 0,25 C0,11.1928571 11.1928571,0 25,0 C38.8071429,0 50,11.1928571 50,25" id="Fill-79-Copy" fill="#FFCD00"></path>
            <path d="M50,25 C50,38.8071429 38.8071429,50 25,50 C11.1928571,50 0,38.8071429 0,25 C0,11.1928571 11.1928571,0 25,0 C38.8071429,0 50,11.1928571 50,25 Z" id="Stroke-80-Copy" stroke="#FFC100" stroke-width="2" stroke-linecap="round" stroke-linejoin="round"></path>
            <polygon id="Fill-81-Copy" fill="#FFC100" points="25.5 3 28.266 5.43645257 31.5852 3.83834496 33.592 6.93232299 37.2184 6.29083474 38.3184 9.81300617 41.9828 10.175848 42.0936 13.8652073 45.5244 15.2051159 44.6388 18.7878278 47.5808 21.0061743 45.764 24.2160212 48 27.1476225 45.3868 29.7472536 46.7504 33.1756074 43.534 34.9717745 43.9252 38.6410873 40.3444 39.5010825 39.7328 43.1403256 36.0532 43 34.4852 46.3393473 30.98 45.2087242 28.5712 48 25.5 45.9636757 22.4288 48 20.0204 45.2087242 16.5152 46.3393473 14.9468 43 11.2672 43.1403256 10.656 39.5010825 7.0748 38.6410873 7.4664 34.9717745 4.2496 33.1756074 5.614 29.7472536 3 27.1476225 5.2364 24.2160212 3.4188 21.0061743 6.3616 18.7878278 5.4756 15.2051159 8.9068 13.8652073 9.018 10.175848 12.682 9.81300617 13.782 6.29083474 17.4084 6.93232299 19.4156 3.83834496 22.7344 5.43645257"></polygon>
            <polygon id="Stroke-82-Copy" stroke="#F5A623" stroke-width="1.2" stroke-linecap="round" stroke-linejoin="round" points="25.5 3 28.266 5.43645257 31.5852 3.83834496 33.592 6.93232299 37.2184 6.29083474 38.3184 9.81300617 41.9828 10.175848 42.0936 13.8652073 45.5244 15.2051159 44.6388 18.7878278 47.5808 21.0061743 45.764 24.2160212 48 27.1476225 45.3868 29.7472536 46.7504 33.1756074 43.534 34.9717745 43.9252 38.6410873 40.3444 39.5010825 39.7328 43.1403256 36.0532 43 34.4852 46.3393473 30.98 45.2087242 28.5712 48 25.5 45.9636757 22.4288 48 20.0204 45.2087242 16.5152 46.3393473 14.9468 43 11.2672 43.1403256 10.656 39.5010825 7.0748 38.6410873 7.4664 34.9717745 4.2496 33.1756074 5.614 29.7472536 3 27.1476225 5.2364 24.2160212 3.4188 21.0061743 6.3616 18.7878278 5.4756 15.2051159 8.9068 13.8652073 9.018 10.175848 12.682 9.81300617 13.782 6.29083474 17.4084 6.93232299 19.4156 3.83834496 22.7344 5.43645257"></polygon>
            <path d="M43,25.5001984 C43,35.1647714 35.1649905,43 25.4998016,43 C15.8350095,43 8,35.1647714 8,25.5001984 C8,15.8352286 15.8350095,8 25.4998016,8 C35.1649905,8 43,15.8352286 43,25.5001984" id="Fill-83-Copy" fill="#FFD703"></path>
            <polygon id="Fill-84-Copy" fill="#FFFFFF" points="16.3259528 37.9774882 17.9911983 28.5766193 11 21.9083728 20.6758249 20.5489731 25.0135567 12 29.3282219 20.5600316 39 21.9447077 31.9909959 28.5947867 33.6307468 38 24.9844199 33.5489731"></polygon>
        </g>
    </g>
</svg>